<svg xmlns="http://www.w3.org/2000/svg" xmlns:xlink="http://www.w3.org/1999/xlink" version="1.1" viewBox="0 0 132 90" >
  <title><![CDATA[10700]]></title>
  <g transform=" scale(3.000000) ">
    <!--converted by libvisio2svg-->
    <g>
      <!--emf-blob start-->
      <g>
        <path d="M 43.3756999999999,8.55720000000008 C 43.3756999999999,12.9833 33.6383,16.8192 21.8354,16.8192 C 9.73739999999998,16.8192 0,12.9833 0,8.55720000000008 C 0,20.6552 0,20.6552 0,20.6552 C 0,25.3763 9.73739999999998,29.2123 21.8354,29.2123 C 33.6383,29.2123 43.3756999999999,25.3763 43.3756999999999,20.6552 Z Z " fill="#036897" stroke="#FFFFFF" stroke-width="0.8852" stroke-linecap="butt" stroke-linejoin="miter"/>
        <path d="M 21.8354,16.8192 C 33.6383,16.8192 43.3756999999999,12.9833 43.3756999999999,8.55720000000008 C 43.3756999999999,3.83600000000001 33.6383,0 21.8354,0 C 9.73739999999998,0 0,3.83600000000001 0,8.55720000000008 C 0,12.9833 9.73739999999998,16.8192 21.8354,16.8192 Z Z " fill="#036897" stroke="#FFFFFF" stroke-width="0.8852" stroke-linecap="butt" stroke-linejoin="miter"/>
        <path d="M 16.8191,5.0163 L 18.5896,7.67190000000005 L 11.8029,9.44240000000002 L 13.2783,8.26210000000003 L 2.65559999999999,6.49160000000006 L 5.31129999999996,4.42610000000002 L 15.6389,6.19659999999999 L 16.8191,5.0163 Z " fill="#FFFFFF" stroke-width="1px" stroke="#FFFFFF"/>
        <path d="M 26.2615,11.5079000000001 L 25.0812,8.85220000000004 L 31.2777,7.67190000000005 L 30.0974,8.55720000000008 L 40.425,10.3276000000001 L 37.7694,12.3931 L 27.7369,10.3276000000001 L 26.2615,11.5079000000001 Z " fill="#FFFFFF" stroke-width="1px" stroke="#FFFFFF"/>
        <path d="M 23.0157,3.54090000000008 L 29.8024,1.77050000000008 L 29.8024,4.72120000000007 L 28.0319,4.42610000000002 L 24.7861,7.08180000000004 L 21.5403,6.7867 L 25.0812,4.13110000000006 L 23.0157,3.54090000000008 Z " fill="#FFFFFF" stroke-width="1px" stroke="#FFFFFF"/>
        <path d="M 20.065,14.1635 L 13.5733,15.3438 L 13.2783,12.3931 L 15.0487,12.6882000000001 L 18.5896,9.73739999999998 L 21.8354,10.3276000000001 L 17.9994,13.5734 L 20.065,14.1635 Z " fill="#FFFFFF" stroke-width="1px" stroke="#FFFFFF"/>
        <path d="M 31.5728,23.0157 C 31.5728,25.6714000000001 27.4417999999999,28.032 22.1305,28.032 C 16.8191,28.032 12.6881,25.6714000000001 12.6881,23.0157 C 12.6881,20.3601 16.8191,18.2946000000001 22.1305,18.2946000000001 C 27.4417999999999,18.2946000000001 31.5728,20.3601 31.5728,23.0157 Z Z " fill="#FFFFFF" stroke="none"/>
        <path d="M 16.229,23.9010000000001 L 19.1797,20.9502 L 17.7044,19.4749 L 22.1305,19.1798 L 21.8354,23.6059 L 20.36,22.1305 L 17.4093,25.0813000000001 L 16.229,23.9010000000001 Z " fill="#036897" stroke="#FFFFFF" stroke-width="0.8852" stroke-linecap="butt" stroke-linejoin="miter"/>
        <path d="M 21.5403,26.2616 L 24.4911,23.3108000000001 L 23.0157,21.8355 L 27.4417999999999,21.5404 L 27.1467,25.9665 L 25.6713,24.4911000000001 L 22.7206,27.4418000000001 L 21.5403,26.2616 Z " fill="#036897" stroke="#FFFFFF" stroke-width="0.8852" stroke-linecap="butt" stroke-linejoin="miter"/>
      </g>
      <!--emf-blob end-->
    </g>
  </g>
</svg>

