<svg xmlns="http://www.w3.org/2000/svg" xmlns:xlink="http://www.w3.org/1999/xlink" version="1.1" viewBox="0 0 108 147" >
  <title><![CDATA[10GE_FCoE]]></title>
  <g transform=" scale(3.000000) ">
    <!--converted by libvisio2svg-->
    <g>
      <!--emf-blob start-->
      <g>
        <path d="M 35.4196,20.6615 L 29.2212,26.2696 L 0,26.2696 L 7.37909999999999,20.6615 L 35.4196,20.6615 Z " fill="#007EBA" stroke="#FFFFFF" stroke-width="0.44275" stroke-linecap="butt" stroke-linejoin="miter"/>
        <path d="M 29.2212,48.702 L 29.2212,26.2696 L 0,26.2696 L 0,48.702 L 29.2212,48.702 Z " fill="#6DAED7" stroke="#FFFFFF" stroke-width="0.44275" stroke-linecap="butt" stroke-linejoin="miter"/>
        <path d="M 34.8293,43.0939 L 34.8293,20.9567 L 29.2212,26.2696 L 29.2212,48.702 L 34.8293,43.0939 Z " fill="#008FC5" stroke="#FFFFFF" stroke-width="0.44275" stroke-linecap="butt" stroke-linejoin="miter"/>
        <path d="M 35.4196,0 L 29.2212,5.9033 L 0,5.9033 L 7.37909999999999,0 L 35.4196,0 Z " fill="#007EBA" stroke="#FFFFFF" stroke-width="0.44275" stroke-linecap="butt" stroke-linejoin="miter"/>
        <path d="M 29.2212,26.5648 L 29.2212,5.9033 L 0,5.9033 L 0,26.5648 L 29.2212,26.5648 Z " fill="#007EBA" stroke="#FFFFFF" stroke-width="0.44275" stroke-linecap="butt" stroke-linejoin="miter"/>
        <path d="M 34.8293,21.2518 L 34.8293,0.295200000000023 L 29.2212,5.9033 L 29.2212,26.5648 L 34.8293,21.2518 Z " fill="#007EBA" stroke="#FFFFFF" stroke-width="0.44275" stroke-linecap="butt" stroke-linejoin="miter"/>
        <path d="M 11.8065,15.6437 L 7.37909999999999,15.6437 L 7.37909999999999,14.4631 L 5.9033,16.234 L 7.37909999999999,18.005 L 7.37909999999999,16.8244 L 11.8065,16.8244 L 11.8065,15.6437 Z " fill="#FFFFFF" stroke-width="1px" stroke="#FFFFFF"/>
        <path d="M 14.1678,19.1857 L 14.1678,23.6131 L 13.2823,23.6131 L 14.7582,25.3841 L 16.5291,23.6131 L 15.3485,23.6131 L 15.3485,19.1857 L 14.1678,19.1857 Z " fill="#FFFFFF" stroke-width="1px" stroke="#FFFFFF"/>
        <path d="M 14.1678,13.2824 L 14.1678,8.85489999999999 L 13.2823,8.85489999999999 L 14.7582,7.37909999999999 L 16.5291,8.85489999999999 L 15.3485,8.85489999999999 L 15.3485,13.2824 L 14.1678,13.2824 Z " fill="#FFFFFF" stroke-width="1px" stroke="#FFFFFF"/>
        <path d="M 18.005,16.8244 L 22.1372,16.8244 L 22.1372,18.005 L 23.9082,16.234 L 22.1372,14.4631 L 22.1372,15.6437 L 18.005,15.6437 L 18.005,16.8244 Z " fill="#FFFFFF" stroke-width="1px" stroke="#FFFFFF"/>
        <path d="M 21.8421,23.318 C 21.2518,24.2034 17.4146,21.8421 13.5775,18.005 C 9.74040000000002,14.1679 7.08389999999997,10.3308 7.96940000000001,9.44529999999997 C 8.85489999999999,8.5598 12.692,10.9211 16.5291,14.7582 C 20.3663,18.5953 22.7276,22.4325 21.8421,23.318 Z Z " stroke="#FFFFFF" stroke-width="0.44275" stroke-linecap="butt" stroke-linejoin="miter" fill="none"/>
        <path d="M 21.8421,9.44529999999997 C 22.7276,10.3308 20.0711,14.1679 16.234,18.005 C 12.3968,21.8421 8.85489999999999,24.2034 7.96940000000001,23.318 C 7.08389999999997,22.4325 9.4452,18.8905 13.2823,14.7582 C 17.1195,10.9211 20.9566,8.5598 21.8421,9.44529999999997 Z Z " stroke="#FFFFFF" stroke-width="0.44275" stroke-linecap="butt" stroke-linejoin="miter" fill="none"/>
        <path d="M 16.5291,18.8905 C 18.005,17.7099 18.5953,15.9389 17.4146,14.4631 C 16.5291,12.9872 14.463,12.6921 12.9872,13.5776 C 11.5114,14.4631 11.2162,16.5292 12.1017,18.005 C 13.2823,19.4808 15.3485,19.776 16.5291,18.8905 Z Z " fill="#B5B5B5" stroke="none"/>
        <path d="M 13.5775,33.9438 L 6.19839999999999,33.9438 " stroke="#FFFFFF" stroke-width="2.65645" stroke-linecap="butt" stroke-linejoin="miter" fill="none"/>
        <path d="M 16.234,31.5825 L 24.4986,31.5825 " stroke="#FFFFFF" stroke-width="2.65645" stroke-linecap="butt" stroke-linejoin="miter" fill="none"/>
        <path d="M 22.7276,28.6309 L 22.7276,34.239 L 25.9744,31.5825 L 22.7276,28.6309 Z " fill="#FFFFFF" stroke="#FFFFFF" stroke-width="0.44275" stroke-linecap="butt" stroke-linejoin="miter"/>
        <path d="M 7.08389999999997,36.6003 L 7.08389999999997,31.2874 L 3.5419,33.9438 L 7.08389999999997,36.6003 Z " fill="#FFFFFF" stroke="#FFFFFF" stroke-width="0.44275" stroke-linecap="butt" stroke-linejoin="miter"/>
        <path d="M 13.5775,43.6842 L 6.19839999999999,43.6842 " stroke="#FFFFFF" stroke-width="2.65645" stroke-linecap="butt" stroke-linejoin="miter" fill="none"/>
        <path d="M 16.234,41.3229 L 24.4986,41.3229 " stroke="#FFFFFF" stroke-width="2.65645" stroke-linecap="butt" stroke-linejoin="miter" fill="none"/>
        <path d="M 22.7276,38.3713 L 22.7276,43.9794 L 25.9744,41.3229 L 22.7276,38.3713 Z " fill="#FFFFFF" stroke="#FFFFFF" stroke-width="0.44275" stroke-linecap="butt" stroke-linejoin="miter"/>
        <path d="M 7.08389999999997,46.3407 L 7.08389999999997,41.0278 L 3.5419,43.6842 L 7.08389999999997,46.3407 Z " fill="#FFFFFF" stroke="#FFFFFF" stroke-width="0.44275" stroke-linecap="butt" stroke-linejoin="miter"/>
      </g>
      <!--emf-blob end-->
    </g>
  </g>
</svg>

