<svg xmlns="http://www.w3.org/2000/svg" xmlns:xlink="http://www.w3.org/1999/xlink" version="1.1" viewBox="0 0 162 96" >
  <title><![CDATA[15200]]></title>
  <g transform=" scale(3.000000) ">
    <!--converted by libvisio2svg-->
    <g>
      <!--emf-blob start-->
      <g>
        <path d="M 4.1344,5.90620000000001 L 43.1157,5.90620000000001 L 47.2501,10.0406 L 47.2501,28.35 L 43.1157,31.8938000000001 L 4.1344,31.8938000000001 L 0,28.35 L 0,10.0406 L 4.1344,5.90620000000001 Z " fill="#036897" stroke="#FFFFFF" stroke-width="0.88595" stroke-linecap="butt" stroke-linejoin="miter"/>
        <path d="M 4.1344,5.90620000000001 L 43.1157,5.90620000000001 L 49.6126,0 L 10.9266,0 L 4.1344,5.90620000000001 Z " fill="#036897" stroke="#FFFFFF" stroke-width="0.88595" stroke-linecap="butt" stroke-linejoin="miter"/>
        <path d="M 42.8204,5.90620000000001 L 47.2501,10.0406 L 53.747,4.13440000000003 L 49.6126,0 L 42.8204,5.90620000000001 Z " fill="#036897" stroke="#FFFFFF" stroke-width="0.88595" stroke-linecap="butt" stroke-linejoin="miter"/>
        <path d="M 1.7719,16.5375 L 46.0688,16.5375 L 46.0688,21.2625 L 1.7719,21.2625 L 1.7719,16.5375 Z " fill="#FFFFFF" stroke-width="1px" stroke="#FFFFFF"/>
        <path d="M 28.3501,18.9 C 21.8532,18.9 16.8328,14.1750000000001 16.8328,8.26870000000008 Z " stroke="#FFFFFF" stroke-width="2.21485" stroke-linecap="round" stroke-linejoin="miter" fill="none"/>
        <path d="M 28.3501,18.3094 C 21.8532,18.3094 16.8328,14.1750000000001 16.8328,8.26870000000008 Z " stroke="#FFFFFF" stroke-width="2.21485" stroke-linecap="round" stroke-linejoin="miter" fill="none"/>
        <path d="M 2.95310000000001,18.3094 C 9.15470000000001,18.3094 14.175,14.1750000000001 14.175,8.26870000000008 Z " stroke="#FFFFFF" stroke-width="2.21485" stroke-linecap="round" stroke-linejoin="miter" fill="none"/>
        <path d="M 45.1829,18.3094 C 38.686,18.3094 33.961,14.1750000000001 33.961,8.26870000000008 Z " stroke="#FFFFFF" stroke-width="2.21485" stroke-linecap="round" stroke-linejoin="miter" fill="none"/>
        <path d="M 19.786,18.3094 C 25.9875,18.3094 31.0079,14.1750000000001 31.0079,8.26870000000008 Z " stroke="#FFFFFF" stroke-width="2.21485" stroke-linecap="round" stroke-linejoin="miter" fill="none"/>
        <path d="M 28.3501,19.7860000000001 C 21.8532,19.7860000000001 16.8328,23.625 16.8328,29.5313 Z " stroke="#FFFFFF" stroke-width="2.21485" stroke-linecap="round" stroke-linejoin="miter" fill="none"/>
        <path d="M 2.95310000000001,19.7860000000001 C 9.15470000000001,19.7860000000001 14.175,23.625 14.175,29.5313 Z " stroke="#FFFFFF" stroke-width="2.21485" stroke-linecap="round" stroke-linejoin="miter" fill="none"/>
        <path d="M 45.1829,19.7860000000001 C 38.686,19.7860000000001 33.961,23.625 33.961,29.5313 Z " stroke="#FFFFFF" stroke-width="2.21485" stroke-linecap="round" stroke-linejoin="miter" fill="none"/>
        <path d="M 19.786,19.7860000000001 C 25.9875,19.7860000000001 31.0079,23.625 31.0079,29.5313 Z " stroke="#FFFFFF" stroke-width="2.21485" stroke-linecap="round" stroke-linejoin="miter" fill="none"/>
        <path d="M 47.2501,10.0406 L 47.2501,28.35 L 53.747,22.4438 L 53.747,4.13440000000003 L 47.2501,10.0406 Z " fill="#036897" stroke="#FFFFFF" stroke-width="0.88595" stroke-linecap="butt" stroke-linejoin="miter"/>
      </g>
      <!--emf-blob end-->
    </g>
  </g>
</svg>

