<svg xmlns="http://www.w3.org/2000/svg" xmlns:xlink="http://www.w3.org/1999/xlink" version="1.1" viewBox="0 0 132 111" >
  <title><![CDATA[3X74 (floor)

cluster controll]]></title>
  <g transform=" scale(3.000000) ">
    <!--converted by libvisio2svg-->
    <g>
      <!--emf-blob start-->
      <g>
        <path d="M 37.5,5.90550000000007 L 7.97239999999999,5.90550000000007 L 7.97239999999999,34.8425000000001 L 37.5,34.8425000000001 Z " fill="#036897" stroke-width="1px" stroke="#036897"/>
        <path d="M 37.5,5.90550000000007 L 7.97239999999999,5.90550000000007 L 7.97239999999999,34.8425000000001 L 37.5,34.8425000000001 " stroke="#FFFFFF" stroke-width="0.88585" stroke-linecap="butt" stroke-linejoin="miter" fill="none"/>
        <path d="M 37.5,34.8425000000001 L 43.1102,28.937 L 43.1102,0 L 5.90550000000002,0 L 0,5.90550000000007 L 37.5,5.90550000000007 L 37.5,34.8425000000001 Z " fill="#036897" stroke="#FFFFFF" stroke-width="0.88585" stroke-linecap="butt" stroke-linejoin="miter"/>
        <path d="M 37.5,5.90550000000007 L 43.1102,0 Z " fill="#000000" stroke-width="1px" stroke="#000000"/>
        <path d="M 37.5,5.90550000000007 L 43.1102,0 " stroke="#FFFFFF" stroke-width="0.88585" stroke-linecap="butt" stroke-linejoin="miter" fill="none"/>
        <path d="M 25.0984,10.3347 L 30.1181,10.3347 " stroke="#FFFFFF" stroke-width="0.88585" stroke-linecap="butt" stroke-linejoin="miter" fill="none"/>
        <path d="M 32.7756,12.6969 L 32.7756,7.08659999999998 L 8.85829999999999,7.08659999999998 L 8.85829999999999,12.6969 L 32.7756,12.6969 Z " fill="none" stroke="#FFFFFF" stroke-width="0.88585" stroke-linecap="butt" stroke-linejoin="miter"/>
        <path d="M 32.7756,20.0788 L 32.7756,15.3543000000001 L 29.2323,15.3543000000001 L 29.2323,20.0788 L 32.7756,20.0788 Z " fill="none" stroke="#FFFFFF" stroke-width="0.88585" stroke-linecap="butt" stroke-linejoin="miter"/>
        <path d="M 0.59050000000002,34.2520000000001 L 0.59050000000002,6.20080000000007 L 7.97239999999999,6.20080000000007 L 7.97239999999999,34.2520000000001 L 0.59050000000002,34.2520000000001 Z " fill="none" stroke="#000000" stroke-width="0.88585" stroke-linecap="butt" stroke-linejoin="miter"/>
        <path d="M 2.06689999999998,7.67720000000008 L 6.79129999999998,7.67720000000008 " stroke="#000000" stroke-width="0.88585" stroke-linecap="butt" stroke-linejoin="miter" fill="none"/>
        <path d="M 2.06689999999998,9.15359999999998 L 6.79129999999998,9.15359999999998 " stroke="#000000" stroke-width="0.88585" stroke-linecap="butt" stroke-linejoin="miter" fill="none"/>
        <path d="M 2.06689999999998,10.6299 L 6.79129999999998,10.6299 " stroke="#000000" stroke-width="0.88585" stroke-linecap="butt" stroke-linejoin="miter" fill="none"/>
        <path d="M 2.06689999999998,12.1063 L 6.79129999999998,12.1063 " stroke="#000000" stroke-width="0.88585" stroke-linecap="butt" stroke-linejoin="miter" fill="none"/>
        <path d="M 2.06689999999998,13.5827 L 6.79129999999998,13.5827 " stroke="#000000" stroke-width="0.88585" stroke-linecap="butt" stroke-linejoin="miter" fill="none"/>
        <path d="M 2.06689999999998,15.0591000000001 L 6.79129999999998,15.0591000000001 " stroke="#000000" stroke-width="0.88585" stroke-linecap="butt" stroke-linejoin="miter" fill="none"/>
        <path d="M 2.06689999999998,16.5354 L 6.79129999999998,16.5354 " stroke="#000000" stroke-width="0.88585" stroke-linecap="butt" stroke-linejoin="miter" fill="none"/>
        <path d="M 2.06689999999998,18.0118 L 6.79129999999998,18.0118 " stroke="#000000" stroke-width="0.88585" stroke-linecap="butt" stroke-linejoin="miter" fill="none"/>
        <path d="M 2.06689999999998,19.4882 L 6.79129999999998,19.4882 " stroke="#000000" stroke-width="0.88585" stroke-linecap="butt" stroke-linejoin="miter" fill="none"/>
        <path d="M 2.06689999999998,20.9646 L 6.79129999999998,20.9646 " stroke="#000000" stroke-width="0.88585" stroke-linecap="butt" stroke-linejoin="miter" fill="none"/>
        <path d="M 2.06689999999998,22.441 L 6.79129999999998,22.441 " stroke="#000000" stroke-width="0.88585" stroke-linecap="butt" stroke-linejoin="miter" fill="none"/>
        <path d="M 2.06689999999998,23.9173000000001 L 6.79129999999998,23.9173000000001 " stroke="#000000" stroke-width="0.88585" stroke-linecap="butt" stroke-linejoin="miter" fill="none"/>
        <path d="M 2.06689999999998,25.3937000000001 L 6.79129999999998,25.3937000000001 " stroke="#000000" stroke-width="0.88585" stroke-linecap="butt" stroke-linejoin="miter" fill="none"/>
        <path d="M 2.06689999999998,26.8701 L 6.79129999999998,26.8701 " stroke="#000000" stroke-width="0.88585" stroke-linecap="butt" stroke-linejoin="miter" fill="none"/>
        <path d="M 2.06689999999998,28.3465 L 6.79129999999998,28.3465 " stroke="#000000" stroke-width="0.88585" stroke-linecap="butt" stroke-linejoin="miter" fill="none"/>
        <path d="M 2.06689999999998,29.8229 L 6.79129999999998,29.8229 " stroke="#000000" stroke-width="0.88585" stroke-linecap="butt" stroke-linejoin="miter" fill="none"/>
        <path d="M 2.06689999999998,31.2992 L 6.79129999999998,31.2992 " stroke="#000000" stroke-width="0.88585" stroke-linecap="butt" stroke-linejoin="miter" fill="none"/>
        <path d="M 2.06689999999998,32.7756000000001 L 6.79129999999998,32.7756000000001 " stroke="#000000" stroke-width="0.88585" stroke-linecap="butt" stroke-linejoin="miter" fill="none"/>
        <path d="M 5.61020000000002,34.8425000000001 L 4.13380000000001,36.9095 L 35.1378,36.9095 L 34.252,34.8425000000001 L 5.61020000000002,34.8425000000001 Z " fill="#036897" stroke="#FFFFFF" stroke-width="0.88585" stroke-linecap="butt" stroke-linejoin="miter"/>
        <path d="M 35.1378,36.9095 L 36.9095,34.8425000000001 L 34.252,34.8425000000001 L 35.1378,36.9095 Z " fill="#036897" stroke="#FFFFFF" stroke-width="0.88585" stroke-linecap="butt" stroke-linejoin="miter"/>
      </g>
      <!--emf-blob end-->
    </g>
  </g>
</svg>

