<svg xmlns="http://www.w3.org/2000/svg" xmlns:xlink="http://www.w3.org/1999/xlink" version="1.1" viewBox="0 0 108 111" >
  <title><![CDATA[6700 series]]></title>
  <g transform=" scale(3.000000) ">
    <!--converted by libvisio2svg-->
    <g>
      <!--emf-blob start-->
      <g>
        <path d="M 31.5825,36.01 L 31.5825,4.13229999999999 L 0,4.13229999999999 L 0,36.01 L 31.5825,36.01 Z " fill="#036897" stroke="#FFFFFF" stroke-width="0.8855" stroke-linecap="butt" stroke-linejoin="miter"/>
        <path d="M 7.08389999999997,17.1195 C 8.26459999999997,17.1195 9.4452,16.234 9.4452,14.7582 C 9.4452,13.5775 8.26459999999997,12.3969 7.08389999999997,12.3969 C 5.60809999999998,12.3969 4.7226,13.5775 4.7226,14.7582 C 4.7226,16.234 5.60809999999998,17.1195 7.08389999999997,17.1195 Z Z " stroke="#FFFFFF" stroke-width="1.771" stroke-linecap="butt" stroke-linejoin="miter" fill="none"/>
        <path d="M 7.08389999999997,12.3969 L 11.2162,12.3969 " stroke="#FFFFFF" stroke-width="1.771" stroke-linecap="butt" stroke-linejoin="miter" fill="none"/>
        <path d="M 11.2162,10.9211 L 11.2162,13.8727 L 12.9872,12.3969 L 11.2162,10.9211 Z " fill="#FFFFFF" stroke="#FFFFFF" stroke-width="1.771" stroke-linecap="butt" stroke-linejoin="miter"/>
        <path d="M 4.7226,14.7582 L 4.7226,10.6259 " stroke="#FFFFFF" stroke-width="1.771" stroke-linecap="butt" stroke-linejoin="miter" fill="none"/>
        <path d="M 2.95159999999998,10.6259 L 6.19839999999999,10.6259 L 4.7226,8.85490000000004 L 2.95159999999998,10.6259 Z " fill="#FFFFFF" stroke="#FFFFFF" stroke-width="1.771" stroke-linecap="butt" stroke-linejoin="miter"/>
        <path d="M 9.4452,14.7582 L 9.4452,18.8905 " stroke="#FFFFFF" stroke-width="1.771" stroke-linecap="butt" stroke-linejoin="miter" fill="none"/>
        <path d="M 10.9211,18.8905 L 7.96940000000001,18.8905 L 9.4452,20.6615 L 10.9211,18.8905 Z " fill="#FFFFFF" stroke="#FFFFFF" stroke-width="1.771" stroke-linecap="butt" stroke-linejoin="miter"/>
        <path d="M 7.08389999999997,17.1195 L 2.95159999999998,17.1195 " stroke="#FFFFFF" stroke-width="1.771" stroke-linecap="butt" stroke-linejoin="miter" fill="none"/>
        <path d="M 2.95159999999998,18.8905 L 2.95159999999998,15.6437 L 0.885499999999979,17.1195 L 2.95159999999998,18.8905 Z " fill="#FFFFFF" stroke="#FFFFFF" stroke-width="1.771" stroke-linecap="butt" stroke-linejoin="miter"/>
        <path d="M 31.2873,4.13229999999999 L 0,4.13229999999999 L 5.01779999999997,0 L 35.4196,0 L 35.4196,0.295200000000023 L 35.4196,31.8777 L 31.2873,36.01 L 31.2873,4.13229999999999 L 31.2873,4.13229999999999 Z " fill="#036897" stroke="#FFFFFF" stroke-width="0.8855" stroke-linecap="butt" stroke-linejoin="miter"/>
        <path d="M 31.2873,4.13229999999999 L 35.4196,0 " stroke="#FFFFFF" stroke-width="0.8855" stroke-linecap="butt" stroke-linejoin="miter" fill="none"/>
        <path d="M 31.2873,25.3841 L 0,25.3841 Z " fill="#000000" stroke-width="1px" stroke="#000000"/>
        <path d="M 31.2873,25.3841 L 0,25.3841 " stroke="#FFFFFF" stroke-width="0.8855" stroke-linecap="butt" stroke-linejoin="miter" fill="none"/>
        <path d="M 21.5469,24.7938 L 21.5469,4.13229999999999 Z " fill="#000000" stroke-width="1px" stroke="#000000"/>
        <path d="M 21.5469,24.7938 L 21.5469,4.13229999999999 " stroke="#FFFFFF" stroke-width="0.8855" stroke-linecap="butt" stroke-linejoin="miter" fill="none"/>
        <path d="M 18.005,24.7938 L 18.005,4.13229999999999 Z " fill="#000000" stroke-width="1px" stroke="#000000"/>
        <path d="M 18.005,24.7938 L 18.005,4.13229999999999 " stroke="#FFFFFF" stroke-width="0.8855" stroke-linecap="butt" stroke-linejoin="miter" fill="none"/>
        <path d="M 28.3357,24.7938 L 28.3357,4.13229999999999 Z " fill="#000000" stroke-width="1px" stroke="#000000"/>
        <path d="M 28.3357,24.7938 L 28.3357,4.13229999999999 " stroke="#FFFFFF" stroke-width="0.8855" stroke-linecap="butt" stroke-linejoin="miter" fill="none"/>
        <path d="M 24.7937,24.7938 L 24.7937,4.13229999999999 Z " fill="#000000" stroke-width="1px" stroke="#000000"/>
        <path d="M 24.7937,24.7938 L 24.7937,4.13229999999999 " stroke="#FFFFFF" stroke-width="0.8855" stroke-linecap="butt" stroke-linejoin="miter" fill="none"/>
        <path d="M 14.463,24.7938 L 14.463,24.4986 Z " fill="#000000" stroke-width="1px" stroke="#000000"/>
        <path d="M 14.463,24.7938 L 14.463,24.4986 " stroke="#FFFFFF" stroke-width="0.8855" stroke-linecap="butt" stroke-linejoin="miter" fill="none"/>
        <path d="M 14.463,24.7938 L 14.463,4.72260000000006 Z " fill="#000000" stroke-width="1px" stroke="#000000"/>
        <path d="M 14.463,24.7938 L 14.463,4.72260000000006 " stroke="#FFFFFF" stroke-width="0.8855" stroke-linecap="butt" stroke-linejoin="miter" fill="none"/>
        <path d="M 11.8065,28.3357 L 2.65649999999999,28.3357 L 2.65649999999999,26.8599 L 11.8065,26.8599 L 11.8065,28.3357 Z " fill="#036897" stroke="#FFFFFF" stroke-width="0.8855" stroke-linecap="butt" stroke-linejoin="miter"/>
        <path d="M 20.3663,30.9922 L 11.2162,30.9922 L 11.2162,29.8115 L 20.3663,29.8115 L 20.3663,30.9922 Z " fill="#036897" stroke="#FFFFFF" stroke-width="0.8855" stroke-linecap="butt" stroke-linejoin="miter"/>
        <path d="M 28.926,33.6487 L 19.776,33.6487 L 19.776,32.468 L 28.926,32.468 L 28.926,33.6487 Z " fill="#036897" stroke="#FFFFFF" stroke-width="0.8855" stroke-linecap="butt" stroke-linejoin="miter"/>
      </g>
      <!--emf-blob end-->
    </g>
  </g>
</svg>

