<svg xmlns="http://www.w3.org/2000/svg" xmlns:xlink="http://www.w3.org/1999/xlink" version="1.1" viewBox="0 0 132 132" >
  <title><![CDATA[7500ARS

(7513)]]></title>
  <g transform=" scale(3.000000) ">
    <!--converted by libvisio2svg-->
    <g>
      <!--emf-blob start-->
      <g>
        <path d="M 43.3851,8.26379999999995 C 43.3851,12.986 33.6456,16.8228 21.8401,16.8228 C 9.73950000000002,16.8228 0,12.986 0,8.26379999999995 C 0,34.8261 0,34.8261 0,34.8261 C 0,39.5483 9.73950000000002,43.3851 21.8401,43.3851 C 33.6456,43.3851 43.3851,39.5483 43.3851,34.8261 Z Z " fill="#036897" stroke="#FFFFFF" stroke-width="0.8854" stroke-linecap="butt" stroke-linejoin="miter"/>
        <path d="M 21.8401,16.8228 C 33.6456,16.8228 43.3851,12.986 43.3851,8.26379999999995 C 43.3851,3.83680000000004 33.6456,0 21.8401,0 C 9.73950000000002,0 0,3.83680000000004 0,8.26379999999995 C 0,12.986 9.73950000000002,16.8228 21.8401,16.8228 Z Z " fill="#036897" stroke="#FFFFFF" stroke-width="0.8854" stroke-linecap="butt" stroke-linejoin="miter"/>
        <path d="M 16.8228,5.01729999999998 L 18.5936,7.67359999999996 L 11.8055,9.44439999999997 L 13.2811,7.96870000000001 L 2.95139999999998,6.1979 L 5.60759999999999,4.4271 L 15.6422,5.90279999999996 L 16.8228,5.01729999999998 Z " fill="#FFFFFF" stroke-width="1px" stroke="#FFFFFF"/>
        <path d="M 26.2672,11.5104 L 25.0866,8.85410000000002 L 31.2845,7.67359999999996 L 30.1039,8.55899999999997 L 40.4337,10.3298 L 38.0726,12.1006 L 27.7428,10.3298 L 26.2672,11.5104 Z " fill="#FFFFFF" stroke-width="1px" stroke="#FFFFFF"/>
        <path d="M 20.0693,14.1666 L 13.5763,15.3471 L 13.2811,12.3958 L 15.052,12.6909000000001 L 18.8887,9.73950000000002 L 21.8401,10.3298 L 18.0033,13.5762999999999 L 20.0693,14.1666 Z " fill="#FFFFFF" stroke-width="1px" stroke="#FFFFFF"/>
        <path d="M 40.1386,15.9374 L 40.1386,36.0067 " stroke="#FFFFFF" stroke-width="0.8854" stroke-linecap="butt" stroke-linejoin="miter" fill="none"/>
        <path d="M 37.7775,17.1179 L 37.7775,37.1872 " stroke="#FFFFFF" stroke-width="0.8854" stroke-linecap="butt" stroke-linejoin="miter" fill="none"/>
        <path d="M 35.4164,18.0034000000001 L 35.4164,38.0726 " stroke="#FFFFFF" stroke-width="0.8854" stroke-linecap="butt" stroke-linejoin="miter" fill="none"/>
        <path d="M 32.465,18.8887999999999 L 32.465,38.9581000000001 " stroke="#FFFFFF" stroke-width="0.8854" stroke-linecap="butt" stroke-linejoin="miter" fill="none"/>
        <path d="M 29.8088,19.479 L 29.8088,39.5483 " stroke="#FFFFFF" stroke-width="0.8854" stroke-linecap="butt" stroke-linejoin="miter" fill="none"/>
        <path d="M 27.1526,19.7742 L 27.1526,39.8434999999999 " stroke="#FFFFFF" stroke-width="0.8854" stroke-linecap="butt" stroke-linejoin="miter" fill="none"/>
        <path d="M 24.2012,20.3644 L 24.2012,40.4337 " stroke="#FFFFFF" stroke-width="0.8854" stroke-linecap="butt" stroke-linejoin="miter" fill="none"/>
        <path d="M 2.65620000000001,15.9374 L 2.65620000000001,36.0067 " stroke="#FFFFFF" stroke-width="0.8854" stroke-linecap="butt" stroke-linejoin="miter" fill="none"/>
        <path d="M 5.01729999999998,17.1179 L 5.01729999999998,37.1872 " stroke="#FFFFFF" stroke-width="0.8854" stroke-linecap="butt" stroke-linejoin="miter" fill="none"/>
        <path d="M 7.3784,18.0034000000001 L 7.3784,38.0726 " stroke="#FFFFFF" stroke-width="0.8854" stroke-linecap="butt" stroke-linejoin="miter" fill="none"/>
        <path d="M 10.3298,18.8887999999999 L 10.3298,38.9581000000001 " stroke="#FFFFFF" stroke-width="0.8854" stroke-linecap="butt" stroke-linejoin="miter" fill="none"/>
        <path d="M 12.986,19.479 L 12.986,39.5483 " stroke="#FFFFFF" stroke-width="0.8854" stroke-linecap="butt" stroke-linejoin="miter" fill="none"/>
        <path d="M 15.6422,19.7742 L 15.6422,39.8434999999999 " stroke="#FFFFFF" stroke-width="0.8854" stroke-linecap="butt" stroke-linejoin="miter" fill="none"/>
        <path d="M 18.5936,20.3644 L 18.5936,40.4337 " stroke="#FFFFFF" stroke-width="0.8854" stroke-linecap="butt" stroke-linejoin="miter" fill="none"/>
        <path d="M 21.545,20.3644 L 21.545,40.4337 " stroke="#FFFFFF" stroke-width="0.8854" stroke-linecap="butt" stroke-linejoin="miter" fill="none"/>
        <path d="M 22.4304,3.54169999999999 L 29.5137,1.47569999999996 L 29.5137,4.4271 L 27.7428,4.13189999999997 L 24.4963,7.08330000000001 L 21.2498,6.49300000000005 L 24.7915,3.83680000000004 L 22.4304,3.54169999999999 Z " fill="#FFFFFF" stroke-width="1px" stroke="#FFFFFF"/>
      </g>
      <!--emf-blob end-->
    </g>
  </g>
</svg>

