<svg xmlns="http://www.w3.org/2000/svg" xmlns:xlink="http://www.w3.org/1999/xlink" version="1.1" viewBox="0 0 129 57" >
  <title><![CDATA[AccessPoint]]></title>
  <g transform=" scale(3.000000) ">
    <!--converted by libvisio2svg-->
    <g>
      <!--emf-blob start-->
      <g>
        <path d="M 0,6.79349999999999 L 9.15650000000005,0 L 42.2379,0 L 35.7397999999999,6.79349999999999 L 0,6.79349999999999 Z " fill="#036897" stroke="#FFFFFF" stroke-width="0.8861" stroke-linecap="butt" stroke-linejoin="miter"/>
        <path d="M 35.7397999999999,18.3129 L 42.2379,11.5194 L 42.2379,0 L 35.7397999999999,6.79349999999999 L 35.7397999999999,18.3129 Z " fill="#036897" stroke="#FFFFFF" stroke-width="0.8861" stroke-linecap="butt" stroke-linejoin="miter"/>
        <path d="M 35.7397999999999,18.3129 L 35.7397999999999,6.79349999999999 L 0,6.79349999999999 L 0,18.3129 L 35.7397999999999,18.3129 Z " fill="#036897" stroke="#FFFFFF" stroke-width="0.8861" stroke-linecap="butt" stroke-linejoin="miter"/>
        <path d="M 32.7861,12.7009 C 32.7861,12.7009 30.4231,18.6083 27.7648,12.7009 C 25.1065,6.79349999999999 22.7435,12.7009 22.7435,12.7009 C 22.7435,12.7009 20.3806,18.6083 17.4269,12.7009 C 14.7685,6.79349999999999 12.4056,12.7009 12.4056,12.7009 C 12.4056,12.7009 10.0426,18.6083 7.38430000000005,12.7009 C 4.726,6.79349999999999 2.36299999999994,12.7009 2.36299999999994,12.7009 Z " stroke="#FFFFFF" stroke-width="0.8861" stroke-linecap="round" stroke-linejoin="miter" fill="none"/>
        <path d="M 2.36299999999994,12.7009 C 2.36299999999994,12.7009 4.726,18.6083 7.38430000000005,12.7009 C 10.0426,6.79349999999999 12.4056,12.7009 12.4056,12.7009 C 12.4056,12.7009 14.7685,18.6083 17.7222,12.7009 C 20.3806,6.79349999999999 22.7435,12.7009 22.7435,12.7009 C 22.7435,12.7009 25.1065,18.6083 27.7648,12.7009 C 30.4231,6.79349999999999 32.7861,12.7009 32.7861,12.7009 Z " stroke="#FFFFFF" stroke-width="0.8861" stroke-linecap="round" stroke-linejoin="miter" fill="none"/>
        <path d="M 33.3768,12.7009 C 33.3768,12.7009 31.0139,18.6083 28.3555,12.7009 C 25.4018,6.79349999999999 23.3343,12.7009 23.3343,12.7009 C 23.3343,12.7009 20.9713,18.6083 18.0176,12.7009 C 15.3593,6.79349999999999 12.9963,12.7009 12.9963,12.7009 C 12.9963,12.7009 10.6334000000001,18.6083 7.97500000000002,12.7009 C 5.0213,6.79349999999999 2.95370000000003,12.7009 2.95370000000003,12.7009 Z " stroke="#000000" stroke-width="0.8861" stroke-linecap="round" stroke-linejoin="miter" fill="none"/>
        <path d="M 2.95370000000003,12.7009 C 2.95370000000003,12.7009 5.0213,18.6083 7.97500000000002,12.7009 C 10.6334000000001,6.79349999999999 12.9963,12.7009 12.9963,12.7009 C 12.9963,12.7009 15.3593,18.6083 18.0176,12.7009 C 20.9713,6.79349999999999 23.3343,12.7009 23.3343,12.7009 C 23.3343,12.7009 25.4018,18.6083 28.3555,12.7009 C 31.0139,6.79349999999999 33.3768,12.7009 33.3768,12.7009 Z " stroke="#000000" stroke-width="0.8861" stroke-linecap="round" stroke-linejoin="miter" fill="none"/>
        <path d="M 32.7861,12.7009 C 32.7861,12.7009 30.4231,18.6083 27.7648,12.7009 C 25.1065,6.79349999999999 22.7435,12.7009 22.7435,12.7009 C 22.7435,12.7009 20.3806,18.6083 17.4269,12.7009 C 14.7685,6.79349999999999 12.4056,12.7009 12.4056,12.7009 C 12.4056,12.7009 10.0426,18.6083 7.38430000000005,12.7009 C 4.726,6.79349999999999 2.36299999999994,12.7009 2.36299999999994,12.7009 Z " stroke="#FFFFFF" stroke-width="0.8861" stroke-linecap="round" stroke-linejoin="miter" fill="none"/>
        <path d="M 2.36299999999994,12.7009 C 2.36299999999994,12.7009 4.726,18.6083 7.38430000000005,12.7009 C 10.0426,6.79349999999999 12.4056,12.7009 12.4056,12.7009 C 12.4056,12.7009 14.7685,18.6083 17.7222,12.7009 C 20.3806,6.79349999999999 22.7435,12.7009 22.7435,12.7009 C 22.7435,12.7009 25.1065,18.6083 27.7648,12.7009 C 30.4231,6.79349999999999 32.7861,12.7009 32.7861,12.7009 Z " stroke="#FFFFFF" stroke-width="0.8861" stroke-linecap="round" stroke-linejoin="miter" fill="none"/>
        <path d="M 33.3768,12.7009 C 33.3768,12.7009 31.0139,18.6083 28.3555,12.7009 C 25.4018,6.79349999999999 23.3343,12.7009 23.3343,12.7009 C 23.3343,12.7009 20.9713,18.6083 18.0176,12.7009 C 15.3593,6.79349999999999 12.9963,12.7009 12.9963,12.7009 C 12.9963,12.7009 10.6334000000001,18.6083 7.97500000000002,12.7009 C 5.0213,6.79349999999999 2.95370000000003,12.7009 2.95370000000003,12.7009 Z " stroke="#000000" stroke-width="0.8861" stroke-linecap="round" stroke-linejoin="miter" fill="none"/>
        <path d="M 2.95370000000003,12.7009 C 2.95370000000003,12.7009 5.0213,18.6083 7.97500000000002,12.7009 C 10.6334000000001,6.79349999999999 12.9963,12.7009 12.9963,12.7009 C 12.9963,12.7009 15.3593,18.6083 18.0176,12.7009 C 20.9713,6.79349999999999 23.3343,12.7009 23.3343,12.7009 C 23.3343,12.7009 25.4018,18.6083 28.3555,12.7009 C 31.0139,6.79349999999999 33.3768,12.7009 33.3768,12.7009 Z " stroke="#000000" stroke-width="0.8861" stroke-linecap="round" stroke-linejoin="miter" fill="none"/>
        <path d="M 32.7861,12.7009 C 32.7861,12.7009 30.4231,18.6083 27.7648,12.7009 C 25.1065,6.79349999999999 22.7435,12.7009 22.7435,12.7009 C 22.7435,12.7009 20.3806,18.6083 17.4269,12.7009 C 14.7685,6.79349999999999 12.4056,12.7009 12.4056,12.7009 C 12.4056,12.7009 10.0426,18.6083 7.38430000000005,12.7009 C 4.726,6.79349999999999 2.36299999999994,12.7009 2.36299999999994,12.7009 Z " stroke="#FFFFFF" stroke-width="0.8861" stroke-linecap="round" stroke-linejoin="miter" fill="none"/>
        <path d="M 2.36299999999994,12.7009 C 2.36299999999994,12.7009 4.726,18.6083 7.38430000000005,12.7009 C 10.0426,6.79349999999999 12.4056,12.7009 12.4056,12.7009 C 12.4056,12.7009 14.7685,18.6083 17.7222,12.7009 C 20.3806,6.79349999999999 22.7435,12.7009 22.7435,12.7009 C 22.7435,12.7009 25.1065,18.6083 27.7648,12.7009 C 30.4231,6.79349999999999 32.7861,12.7009 32.7861,12.7009 Z " stroke="#FFFFFF" stroke-width="0.8861" stroke-linecap="round" stroke-linejoin="miter" fill="none"/>
      </g>
      <!--emf-blob end-->
    </g>
  </g>
</svg>

