<svg xmlns="http://www.w3.org/2000/svg" xmlns:xlink="http://www.w3.org/1999/xlink" version="1.1" viewBox="0 0 153 108" >
  <title><![CDATA[ACE]]></title>
  <g transform=" scale(3.000000) ">
    <!--converted by libvisio2svg-->
    <g>
      <!--emf-blob start-->
      <g>
        <path d="M 0,35.7147 L 45.16,35.7147 L 45.16,6.19839999999999 L 0,6.19839999999999 L 0,35.7147 Z " fill="#046897" stroke="#FFFFFF" stroke-width="0.8855" stroke-linecap="butt" stroke-linejoin="miter"/>
        <path d="M 50.1778,28.3357 L 45.16,35.7147 L 45.16,6.19839999999999 L 50.1778,0 L 50.1778,28.3357 Z " fill="#046897" stroke="#FFFFFF" stroke-width="0.8855" stroke-linecap="butt" stroke-linejoin="miter"/>
        <path d="M 7.96940000000001,0 L 50.1778,0 L 45.16,6.19839999999999 L 0,6.19839999999999 L 7.96940000000001,0 Z " fill="#046897" stroke="#FFFFFF" stroke-width="0.8855" stroke-linecap="butt" stroke-linejoin="miter"/>
        <path d="M 38.9616,21.5469 L 31.2873,21.5469 L 31.2873,20.3662 L 38.9616,20.3662 L 38.9616,18.3001 L 43.389,20.9566 L 38.9616,23.3179 L 38.9616,21.5469 Z " fill="#FFFFFF" stroke-width="1px" stroke="#FFFFFF"/>
        <path d="M 8.85490000000004,21.5469 L 1.18060000000003,21.5469 L 1.18060000000003,20.3662 L 8.85490000000004,20.3662 L 8.85490000000004,18.3001 L 13.2823,20.9566 L 8.85490000000004,23.3179 L 8.85490000000004,21.5469 Z " fill="#FFFFFF" stroke-width="1px" stroke="#FFFFFF"/>
        <path d="M 37.7809,13.5775 L 31.2873,17.7098 L 30.697,16.5291 L 36.8954,12.3968 L 36.0099,10.921 L 41.0277,10.6258 L 38.6664,15.0533 L 37.7809,13.5775 Z " fill="#FFFFFF" stroke-width="1px" stroke="#FFFFFF"/>
        <path d="M 37.7809,28.3357 L 31.2873,24.2034 L 30.697,25.0889 L 36.8954,29.2211 L 36.0099,30.9921 L 41.0277,31.2873 L 38.6664,26.8598 L 37.7809,28.3357 Z " fill="#FFFFFF" stroke-width="1px" stroke="#FFFFFF"/>
        <path d="M 29.8115,20.6614 C 29.8115,24.7937 26.5647,28.0405 22.4324,28.0405 C 18.3001,28.0405 15.0533,24.7937 15.0533,20.6614 C 15.0533,16.5291 18.3001,13.2823 22.4324,13.2823 C 26.5647,13.2823 29.8115,16.5291 29.8115,20.6614 Z Z " fill="#046897" stroke="#FFFFFF" stroke-width="1.32825" stroke-linecap="butt" stroke-linejoin="miter"/>
      </g>
      <!--emf-blob end-->
    </g>
  </g>
</svg>

