<svg xmlns="http://www.w3.org/2000/svg" xmlns:xlink="http://www.w3.org/1999/xlink" version="1.1" viewBox="0 0 129 90" >
  <title><![CDATA[ACS]]></title>
  <g transform=" scale(3.000000) ">
    <!--converted by libvisio2svg-->
    <g>
      <!--emf-blob start-->
      <g>
        <path d="M 0.295199999999966,3.5428 L 5.01889999999997,0 L 42.2175,0 L 37.1986,3.5428 L 0.295199999999966,3.5428 Z " fill="#007EBA" stroke="#FFFFFF" stroke-width="0.44285" stroke-linecap="butt" stroke-linejoin="miter"/>
        <path d="M 37.1986,29.818 L 0.295199999999966,29.818 " stroke="#FFFFFF" stroke-width="0.44285" stroke-linecap="round" stroke-linejoin="round" fill="none"/>
        <path d="M 37.4939,3.5428 L 37.4939,29.818 L 0,29.818 L 0,3.5428 L 37.4939,3.5428 Z " fill="#007EBA" stroke="#FFFFFF" stroke-width="0.44285" stroke-linecap="butt" stroke-linejoin="miter"/>
        <path d="M 41.9223,25.6848 L 41.9223,0 L 37.1986,3.5428 L 37.1986,29.5228 L 41.9223,25.6848 Z " fill="#007EBA" stroke="#FFFFFF" stroke-width="0.44285" stroke-linecap="butt" stroke-linejoin="miter"/>
        <path d="M 34.2464,19.7803 L 29.2275,19.7803 L 29.2275,18.8946 L 26.8657,20.3707 L 29.2275,21.8469 L 29.2275,21.2564 L 34.2464,21.2564 L 34.2464,19.7803 Z " fill="#FFFFFF" stroke-width="1px" stroke="#FFFFFF"/>
        <path d="M 10.0377,11.2187 L 5.01889999999997,11.2187 L 5.01889999999997,10.6282 L 2.65709999999996,12.1044 L 5.01889999999997,13.5805 L 5.01889999999997,12.99 L 10.0377,12.99 L 10.0377,11.2187 Z " fill="#FFFFFF" stroke-width="1px" stroke="#FFFFFF"/>
        <path d="M 27.7514,12.99 L 32.475,12.99 L 32.475,13.5805 L 34.8368,12.1044 L 32.475,10.6282 L 32.475,11.5139 L 27.7514,11.5139 L 27.7514,12.99 Z " fill="#FFFFFF" stroke-width="1px" stroke="#FFFFFF"/>
        <path d="M 2.95229999999998,21.2564 L 7.67589999999996,21.2564 L 7.67589999999996,22.1421 L 10.0377,20.666 L 7.67589999999996,18.8946 L 7.67589999999996,19.7803 L 2.95229999999998,19.7803 L 2.95229999999998,21.2564 Z " fill="#FFFFFF" stroke-width="1px" stroke="#FFFFFF"/>
        <path d="M 7.38069999999999,27.4562 C 7.38069999999999,26.8657 7.67589999999996,26.2753 8.26639999999998,26.2753 C 8.85679999999996,26.2753 9.15209999999996,26.8657 9.15209999999996,27.161 C 9.15209999999996,27.7514 8.85679999999996,28.0466 8.26639999999998,28.0466 C 7.97119999999995,28.3419 7.38069999999999,27.7514 7.38069999999999,27.4562 Z Z " fill="#FFFFFF" stroke="#000000" stroke-width="0.44285" stroke-linecap="butt" stroke-linejoin="miter"/>
        <path d="M 9.44729999999998,28.0466 L 7.38069999999999,26.2753 L 12.3996,20.9612 L 14.1709,22.7325 L 9.44729999999998,28.0466 Z " fill="#FFFFFF" stroke="#000000" stroke-width="0.44285" stroke-linecap="butt" stroke-linejoin="miter"/>
        <path d="M 10.9234,14.171 C 10.6282,18.8946 13.8757,23.0278 18.3040999999999,23.6182 C 23.0277,24.2087 27.1609,20.666 27.7514,16.2375 C 28.0466,11.5139 24.7991,7.38069999999999 20.3707,6.7903 C 15.6471,6.495 11.5139,9.74250000000001 10.9234,14.171 Z M 12.1043,14.4662 C 12.6948,10.333 16.2375,7.67599999999999 20.0755,7.97120000000001 C 24.2087,8.5616 26.8657,12.1044 26.5705,15.9423 C 25.98,20.0755 22.4373,22.7325 18.5993,22.4373 C 14.4662,21.8469 11.8091,18.3041 12.1043,14.4662 Z Z " fill="#FFFFFF" stroke="#000000" stroke-width="0.44285" stroke-linecap="butt" stroke-linejoin="miter"/>
        <path d="M 10.0377,14.7614 C 9.44729999999998,19.1898 12.6948,23.323 17.4184,23.9135 C 21.8468,24.5039 25.98,21.2564 26.5705,16.5328 C 27.1609,12.1044 23.9134,7.97120000000001 19.1898,7.38069999999999 C 14.7614,6.7903 10.6282,10.0378 10.0377,14.7614 Z M 11.2187,14.7614 C 11.5139,10.9235 15.0566,7.97120000000001 19.1898,8.5616 C 23.0277,8.8569 25.98,12.3996 25.3896,16.5328 C 25.0943,20.3707 21.5516,23.323 17.4184,22.7325 C 13.5805,22.4373 10.6282,18.5994 11.2187,14.7614 Z Z " fill="#FFFFFF" stroke="#000000" stroke-width="0.44285" stroke-linecap="butt" stroke-linejoin="miter"/>
        <path d="M 8.26639999999998,27.161 L 8.26639999999998,27.161 Z " fill="#000000" stroke-width="1px" stroke="#000000"/>
        <path d="M 8.26639999999998,27.161 L 8.26639999999998,27.161 " stroke="none" stroke-width="0" fill="none"/>
        <path d="M 21.5516,20.0755 C 21.8468,20.0755 21.8468,20.0755 21.8468,19.7803 C 21.8468,15.6471 21.8468,15.6471 21.8468,15.6471 C 21.8468,15.3519 21.8468,15.3519 21.5516,15.3519 C 15.0566,15.3519 15.0566,15.3519 15.0566,15.3519 C 15.0566,15.3519 14.7614,15.3519 14.7614,15.6471 C 14.7614,19.7803 14.7614,19.7803 14.7614,19.7803 C 14.7614,20.0755 15.0566,20.0755 15.0566,20.0755 Z Z " fill="#007EBA" stroke="#FFFFFF" stroke-width="0.44285" stroke-linecap="round" stroke-linejoin="round"/>
        <path d="M 21.8468,15.3519 L 23.323,13.8757 L 16.2375,13.8757 L 14.7614,15.3519 L 21.8468,15.3519 Z " fill="#007EBA" stroke="#FFFFFF" stroke-width="0.44285" stroke-linecap="round" stroke-linejoin="round"/>
        <path d="M 23.323,18.8946 L 23.323,13.8757 L 21.8468,15.3519 L 21.8468,20.0755 L 23.323,18.8946 Z " fill="#007EBA" stroke="#FFFFFF" stroke-width="0.44285" stroke-linecap="round" stroke-linejoin="round"/>
        <path d="M 19.1898,10.9235 C 18.0089,10.9235 17.1232,11.8091 17.1232,12.6948 C 17.1232,14.4662 17.1232,14.4662 17.1232,14.4662 C 17.4184,14.4662 17.1232,14.7614 16.828,14.7614 C 16.828,14.7614 16.5327,14.7614 16.5327,14.4662 C 16.5327,12.99 16.5327,12.99 16.5327,12.99 C 16.5327,11.5139 17.7137,10.333 19.1898,10.333 C 20.3707,10.333 21.5516,11.5139 21.5516,12.99 C 21.5516,14.7614 21.5516,14.7614 21.5516,14.7614 C 21.5516,14.7614 21.5516,15.0566 21.2564,15.0566 C 20.9612,14.7614 20.9612,14.7614 20.9612,14.4662 C 20.9612,12.6948 20.9612,12.6948 20.9612,12.6948 C 20.9612,11.8091 20.0755,10.9235 19.1898,10.9235 Z Z " fill="#007EBA" stroke="#FFFFFF" stroke-width="0.44285" stroke-linecap="round" stroke-linejoin="round"/>
        <path d="M 18.3040999999999,18.3041 C 18.5993,18.3041 18.8946,17.7137 18.8946,17.4185 C 18.8946,17.1232 18.5993,16.5328 18.3040999999999,16.5328 C 18.0089,16.5328 17.7137,17.1232 17.7137,17.4185 C 17.7137,17.7137 18.0089,18.3041 18.3040999999999,18.3041 Z Z " fill="#FFFFFF" stroke="none"/>
        <path d="M 18.5993,18.8946 L 18.5993,17.4185 L 18.3040999999999,17.7137 L 18.3040999999999,19.1898 L 18.5993,18.8946 Z " fill="#FFFFFF" stroke-width="1px" stroke="#FFFFFF"/>
      </g>
      <!--emf-blob end-->
    </g>
  </g>
</svg>

