<svg xmlns="http://www.w3.org/2000/svg" xmlns:xlink="http://www.w3.org/1999/xlink" version="1.1" viewBox="0 0 135 87" >
  <title><![CDATA[ADM]]></title>
  <g transform=" scale(3.000000) ">
    <!--converted by libvisio2svg-->
    <g>
      <!--emf-blob start-->
      <g>
        <path d="M 0,28.6463 L 39.2778,28.6463 L 39.2778,5.61109999999996 L 0,5.61109999999996 L 0,28.6463 Z " fill="#046897" stroke="#FFFFFF" stroke-width="0.88595" stroke-linecap="butt" stroke-linejoin="miter"/>
        <path d="M 44.003,21.8539 L 39.2778,28.6463 L 39.2778,5.61109999999996 L 44.003,0 L 44.003,21.8539 Z " fill="#046897" stroke="#FFFFFF" stroke-width="0.88595" stroke-linecap="butt" stroke-linejoin="miter"/>
        <path d="M 7.08770000000004,0 L 44.003,0 L 39.2778,5.61109999999996 L 0,5.61109999999996 L 7.08770000000004,0 Z " fill="#046897" stroke="#FFFFFF" stroke-width="0.88595" stroke-linecap="butt" stroke-linejoin="miter"/>
        <path d="M 18.6053,19.4913 L 18.6053,22.4445 L 16.538,22.4445 L 19.7866,27.465 L 23.0351,22.4445 L 20.6725,22.4445 L 20.6725,19.4913 Z " fill="#FFFFFF" stroke-width="1px" stroke="#FFFFFF"/>
        <path d="M 18.6053,19.4913 L 18.6053,22.4445 L 16.538,22.4445 L 19.7866,27.465 L 23.0351,22.4445 L 20.6725,22.4445 L 20.6725,19.4913 " stroke="none" stroke-width="0" fill="none"/>
        <path d="M 25.1024,17.7194 L 7.97370000000001,17.7194 L 7.97370000000001,15.3568 L 2.95320000000004,18.6053 L 7.97370000000001,22.1492 L 7.97370000000001,19.4913 L 18.6053,19.4913 Z " fill="#FFFFFF" stroke-width="1px" stroke="#FFFFFF"/>
        <path d="M 25.1024,17.7194 L 7.97370000000001,17.7194 L 7.97370000000001,15.3568 L 2.95320000000004,18.6053 L 7.97370000000001,22.1492 L 7.97370000000001,19.4913 L 18.6053,19.4913 " stroke="none" stroke-width="0" fill="none"/>
        <path d="M 20.9678,19.4913 L 32.1901,19.4913 L 32.1901,21.8539 L 37.2106,18.6053 L 32.1901,15.0615 L 32.1901,17.7194 L 14.7661,17.7194 Z " fill="#FFFFFF" stroke-width="1px" stroke="#FFFFFF"/>
        <path d="M 20.9678,19.4913 L 32.1901,19.4913 L 32.1901,21.8539 L 37.2106,18.6053 L 32.1901,15.0615 L 32.1901,17.7194 L 14.7661,17.7194 " stroke="none" stroke-width="0" fill="none"/>
        <g transform=" scale(3.000000) ">
          <text font-family="Helvetica" fill="#FFFFFF" style="white-space:pre;" font-weight="700" text-anchor="start" x="0.0000" y="0.0000" font-size="8.2690"><![CDATA[ADM]]></text>
        </g>
        <g transform=" scale(3.000000) ">
</g>
      </g>
      <!--emf-blob end-->
    </g>
  </g>
</svg>

