<svg xmlns="http://www.w3.org/2000/svg" xmlns:xlink="http://www.w3.org/1999/xlink" version="1.1" viewBox="0 0 117 138" >
  <title><![CDATA[Androgenous person]]></title>
  <g transform=" scale(3.000000) ">
    <!--converted by libvisio2svg-->
    <g>
      <!--emf-blob start-->
      <g>
        <path d="M 14.1732,5.31489999999997 C 14.1732,8.26769999999999 11.811,10.6299 8.85820000000001,10.6299 C 5.90550000000002,10.6299 3.83850000000001,8.26769999999999 3.83850000000001,5.31489999999997 C 3.83850000000001,2.36219999999997 5.90550000000002,0 8.85820000000001,0 C 11.811,0 14.1732,2.36219999999997 14.1732,5.31489999999997 Z Z " fill="#0A719F" stroke="#FFFFFF" stroke-width="0.88585" stroke-linecap="butt" stroke-linejoin="miter"/>
        <path d="M 38.6811,45.1772 L 17.1259,45.1772 L 17.1259,22.1457 L 38.6811,22.1457 L 38.6811,45.1772 Z " fill="#0A719F" stroke="#FFFFFF" stroke-width="0.88585" stroke-linecap="butt" stroke-linejoin="miter"/>
        <path d="M 24.5078,19.1929 L 37.2047,19.1929 L 37.2047,21.8504 L 24.5078,21.8504 L 24.5078,19.1929 Z " fill="#0A719F" stroke="#FFFFFF" stroke-width="0.88585" stroke-linecap="butt" stroke-linejoin="miter"/>
        <path d="M 34.8425,11.811 C 34.8425,19.1929 34.8425,19.1929 34.8425,19.1929 C 24.8031,19.1929 24.8031,19.1929 24.8031,19.1929 C 24.8031,9.15350000000001 24.8031,9.15350000000001 24.8031,9.15350000000001 C 33.6614,10.3346 33.6614,10.3346 33.6614,10.3346 C 33.6614,10.3346 34.8425,10.3346 34.8425,11.811 Z Z " fill="#0A719F" stroke="#FFFFFF" stroke-width="0.88585" stroke-linecap="butt" stroke-linejoin="miter"/>
        <path d="M 15.6496,42.2244 C 9.7441,42.2244 9.7441,42.2244 9.7441,42.2244 C 9.7441,35.1378 9.7441,35.1378 9.7441,35.1378 C 6.79129999999998,35.1378 6.79129999999998,35.1378 6.79129999999998,35.1378 C 6.79129999999998,42.2244 6.79129999999998,42.2244 6.79129999999998,42.2244 C 0.885800000000017,42.2244 0.885800000000017,42.2244 0.885800000000017,42.2244 C 0.295200000000023,42.2244 0,42.5197 0,43.1102 C 0,43.9961 0,43.9961 0,43.9961 C 0,44.5866 0.295200000000023,45.1772 0.885800000000017,45.1772 C 15.6496,45.1772 15.6496,45.1772 15.6496,45.1772 C 16.2401,45.1772 16.5354,44.5866 16.5354,43.9961 C 16.5354,43.1102 16.5354,43.1102 16.5354,43.1102 C 16.5354,42.5197 16.2401,42.2244 15.6496,42.2244 Z Z " fill="#0A719F" stroke="#FFFFFF" stroke-width="0.88585" stroke-linecap="butt" stroke-linejoin="miter"/>
        <path d="M 15.9448,31.5945 C 3.54329999999999,31.5945 3.54329999999999,31.5945 3.54329999999999,31.5945 C 3.54329999999999,14.1732 3.54329999999999,14.1732 3.54329999999999,14.1732 C 3.54329999999999,13.5827 3.24799999999999,12.9921 2.6574,12.9921 C 1.47629999999998,12.9921 1.47629999999998,12.9921 1.47629999999998,12.9921 C 0.885800000000017,12.9921 0.295200000000023,13.5827 0.295200000000023,14.1732 C 0.295200000000023,33.9567 0.295200000000023,33.9567 0.295200000000023,33.9567 C 0.295200000000023,34.5472 0.885800000000017,34.8425 1.47629999999998,34.8425 C 2.6574,34.8425 2.6574,34.8425 2.6574,34.8425 C 15.9448,34.8425 15.9448,34.8425 15.9448,34.8425 C 16.5354,34.8425 17.1259,34.5472 17.1259,33.9567 C 17.1259,32.7756 17.1259,32.7756 17.1259,32.7756 C 17.1259,32.185 16.5354,31.5945 15.9448,31.5945 Z Z " fill="#0A719F" stroke="#FFFFFF" stroke-width="0.88585" stroke-linecap="butt" stroke-linejoin="miter"/>
        <path d="M 12.9921,11.811 C 22.4409,18.6023 22.4409,18.6023 22.4409,18.6023 C 23.0315,18.8976 23.3267,19.4882 23.3267,20.0787 C 23.3267,20.9646 22.4409,21.8504 21.2598,21.8504 C 20.9645,21.8504 20.6693,21.8504 20.374,21.5551 C 12.4015,16.8307 12.4015,16.8307 12.4015,16.8307 C 12.4015,25.689 12.4015,25.689 12.4015,25.689 C 16.8307,25.689 16.8307,25.689 16.8307,25.689 C 16.8307,31.2992 16.8307,31.2992 16.8307,31.2992 C 4.13380000000001,31.2992 4.13380000000001,31.2992 4.13380000000001,31.2992 C 4.13380000000001,12.4016 4.13380000000001,12.4016 4.13380000000001,12.4016 C 4.13380000000001,12.4016 4.13380000000001,10.9252 6.79129999999998,10.9252 C 11.2204,10.9252 11.2204,10.9252 11.2204,10.9252 C 11.2204,10.9252 12.1063,10.9252 12.9921,11.811 Z Z " fill="#0A719F" stroke="#FFFFFF" stroke-width="0.88585" stroke-linecap="butt" stroke-linejoin="miter"/>
      </g>
      <!--emf-blob end-->
    </g>
  </g>
</svg>

