<svg xmlns="http://www.w3.org/2000/svg" xmlns:xlink="http://www.w3.org/1999/xlink" version="1.1" viewBox="0 0 99 141" >
  <title><![CDATA[Asic processor]]></title>
  <g transform=" scale(3.000000) ">
    <!--converted by libvisio2svg-->
    <g>
      <!--emf-blob start-->
      <g>
        <path d="M 4.13210000000004,13.8721 L 0,18.0042 L 0,46.0435000000001 L 28.3345,46.0435000000001 L 32.4666,42.2066 L 32.4666,13.8721 L 4.13210000000004,13.8721 Z " fill="#000000" stroke="#FFFFFF" stroke-width="0.88545" stroke-linecap="butt" stroke-linejoin="miter"/>
        <path d="M 0,18.0042 L 28.3345,18.0042 L 32.4666,13.8721 L 4.13210000000004,13.8721 L 0,18.0042 Z " fill="#000000" stroke="#FFFFFF" stroke-width="0.88545" stroke-linecap="butt" stroke-linejoin="miter"/>
        <path d="M 28.3345,18.0042 L 32.4666,13.8721 L 32.4666,42.2066 L 28.3345,46.0435000000001 L 28.3345,18.0042 Z " fill="#000000" stroke="#FFFFFF" stroke-width="0.88545" stroke-linecap="butt" stroke-linejoin="miter"/>
        <path d="M 4.13210000000004,13.8721 L 0,18.0042 L 0,46.0435000000001 L 28.3345,46.0435000000001 L 32.4666,42.2066 L 32.4666,13.8721 L 4.13210000000004,13.8721 Z " fill="#046897" stroke="#FFFFFF" stroke-width="0.88545" stroke-linecap="butt" stroke-linejoin="miter"/>
        <path d="M 0,18.0042 L 28.3345,18.0042 L 32.4666,13.8721 Z " fill="#000000" stroke-width="1px" stroke="#000000"/>
        <path d="M 0,18.0042 L 28.3345,18.0042 L 32.4666,13.8721 " stroke="#FFFFFF" stroke-width="0.88545" stroke-linecap="butt" stroke-linejoin="miter" fill="none"/>
        <path d="M 28.3345,18.0042 L 28.3345,46.0435000000001 Z " fill="#000000" stroke-width="1px" stroke="#000000"/>
        <path d="M 28.3345,18.0042 L 28.3345,46.0435000000001 " stroke="#FFFFFF" stroke-width="0.88545" stroke-linecap="butt" stroke-linejoin="miter" fill="none"/>
        <path d="M 4.13210000000004,0 L 0,3.83700000000005 L 0,18.0042 L 28.3345,18.0042 L 32.4666,13.8721 L 32.4666,0 L 4.13210000000004,0 Z " fill="#000000" stroke="#FFFFFF" stroke-width="0.88545" stroke-linecap="butt" stroke-linejoin="miter"/>
        <path d="M 0,3.83700000000005 L 28.3345,3.83700000000005 L 32.4666,0 L 4.13210000000004,0 L 0,3.83700000000005 Z " fill="#000000" stroke="#FFFFFF" stroke-width="0.88545" stroke-linecap="butt" stroke-linejoin="miter"/>
        <path d="M 28.3345,3.83700000000005 L 32.4666,0 L 32.4666,13.8721 L 28.3345,18.0042 L 28.3345,3.83700000000005 Z " fill="#000000" stroke="#FFFFFF" stroke-width="0.88545" stroke-linecap="butt" stroke-linejoin="miter"/>
        <path d="M 4.13210000000004,0 L 0,3.83700000000005 L 0,18.0042 L 28.3345,18.0042 L 32.4666,13.8721 L 32.4666,0 L 4.13210000000004,0 Z " fill="#046897" stroke="#FFFFFF" stroke-width="0.88545" stroke-linecap="butt" stroke-linejoin="miter"/>
        <path d="M 0,3.83700000000005 L 28.3345,3.83700000000005 L 32.4666,0 " stroke="#FFFFFF" stroke-width="0.88545" stroke-linecap="butt" stroke-linejoin="miter" fill="none"/>
        <path d="M 28.3345,3.83700000000005 L 28.3345,18.0042 Z " fill="#000000" stroke-width="1px" stroke="#000000"/>
        <path d="M 28.3345,3.83700000000005 L 28.3345,18.0042 " stroke="#FFFFFF" stroke-width="0.88545" stroke-linecap="butt" stroke-linejoin="miter" fill="none"/>
        <path d="M 2.06600000000003,5.90300000000002 L 10.0351,5.90300000000002 L 10.0351,10.0351 L 2.06600000000003,10.0351 L 2.06600000000003,5.90300000000002 Z " fill="#FFFFFF" stroke-width="1px" stroke="#FFFFFF"/>
        <path d="M 4.13210000000004,22.1363 L 24.2024,22.1363 L 24.2024,42.2066 L 4.13210000000004,42.2066 L 4.13210000000004,22.1363 Z " fill="#000000" stroke="#FFFFFF" stroke-width="0.88545" stroke-linecap="butt" stroke-linejoin="miter"/>
        <path d="M 7.96910000000003,25.9733000000001 L 20.3654,25.9733000000001 L 20.3654,38.0745 L 7.96910000000003,38.0745 L 7.96910000000003,25.9733000000001 Z " fill="#FFFFFF" stroke-width="1px" stroke="#FFFFFF"/>
        <path d="M 18.2993,5.90300000000002 L 26.2684,5.90300000000002 L 26.2684,10.0351 L 18.2993,10.0351 L 18.2993,5.90300000000002 Z " fill="#FFFFFF" stroke-width="1px" stroke="#FFFFFF"/>
        <path d="M 2.06600000000003,12.1012 L 10.0351,12.1012 L 10.0351,15.9381 L 2.06600000000003,15.9381 L 2.06600000000003,12.1012 Z " fill="#FFFFFF" stroke-width="1px" stroke="#FFFFFF"/>
        <path d="M 18.2993,12.1012 L 26.2684,12.1012 L 26.2684,15.9381 L 18.2993,15.9381 L 18.2993,12.1012 Z " fill="#FFFFFF" stroke-width="1px" stroke="#FFFFFF"/>
        <path d="M 10.0351,7.96910000000003 L 18.2993,7.96910000000003 Z " fill="#000000" stroke-width="1px" stroke="#000000"/>
        <path d="M 10.0351,7.96910000000003 L 18.2993,7.96910000000003 " stroke="#FFFFFF" stroke-width="0.88545" stroke-linecap="butt" stroke-linejoin="miter" fill="none"/>
        <path d="M 10.0351,13.8721 L 18.2993,13.8721 Z " fill="#000000" stroke-width="1px" stroke="#000000"/>
        <path d="M 10.0351,13.8721 L 18.2993,13.8721 " stroke="#FFFFFF" stroke-width="0.88545" stroke-linecap="butt" stroke-linejoin="miter" fill="none"/>
        <path d="M 10.0351,12.1012 L 18.2993,10.0351 Z " fill="#000000" stroke-width="1px" stroke="#000000"/>
        <path d="M 10.0351,12.1012 L 18.2993,10.0351 " stroke="#FFFFFF" stroke-width="0.88545" stroke-linecap="butt" stroke-linejoin="miter" fill="none"/>
        <path d="M 10.0351,10.0351 L 18.2993,12.1012 Z " fill="#000000" stroke-width="1px" stroke="#000000"/>
        <path d="M 10.0351,10.0351 L 18.2993,12.1012 " stroke="#FFFFFF" stroke-width="0.88545" stroke-linecap="butt" stroke-linejoin="miter" fill="none"/>
      </g>
      <!--emf-blob end-->
    </g>
  </g>
</svg>

