<svg xmlns="http://www.w3.org/2000/svg" xmlns:xlink="http://www.w3.org/1999/xlink" version="1.1" viewBox="0 0 150 144" >
  <title><![CDATA[ASR 1000 series]]></title>
  <g transform=" scale(3.000000) ">
    <!--converted by libvisio2svg-->
    <g>
      <!--emf-blob start-->
      <g>
        <path d="M 49.0088,15.6473999999999 L 49.0088,38.3804 L 36.9042,47.8278999999999 L 12.1046,47.8278999999999 L 0,38.3804 L 0,15.6473999999999 Z " fill="#046897" stroke-width="1px" stroke="#046897"/>
        <path d="M 49.0088,15.6473999999999 L 49.0088,38.3804 L 36.9042,47.8278999999999 L 12.1046,47.8278999999999 L 0,38.3804 L 0,15.6473999999999 " stroke="#FFFFFF" stroke-width="0.44285" stroke-linecap="butt" stroke-linejoin="miter" fill="none"/>
        <path d="M 12.1046,47.5326999999999 L 12.1046,25.0948999999999 Z " fill="#046897" stroke-width="1px" stroke="#046897"/>
        <path d="M 12.1046,47.5326999999999 L 12.1046,25.0948999999999 " stroke="#FFFFFF" stroke-width="0.44285" stroke-linecap="butt" stroke-linejoin="miter" fill="none"/>
        <path d="M 36.9042,47.5326999999999 L 36.9042,25.0948999999999 Z " fill="#046897" stroke-width="1px" stroke="#046897"/>
        <path d="M 36.9042,47.5326999999999 L 36.9042,25.0948999999999 " stroke="#FFFFFF" stroke-width="0.44285" stroke-linecap="butt" stroke-linejoin="miter" fill="none"/>
        <path d="M 49.0088,9.15229999999997 L 49.0088,15.9426 L 36.9042,25.3901 L 12.1046,25.3901 L 0,15.9426 L 0,9.15229999999997 Z " fill="#046897" stroke-width="1px" stroke="#046897"/>
        <path d="M 49.0088,9.15229999999997 L 49.0088,15.9426 L 36.9042,25.3901 L 12.1046,25.3901 L 0,15.9426 L 0,9.15229999999997 " stroke="#FFFFFF" stroke-width="0.44285" stroke-linecap="butt" stroke-linejoin="miter" fill="none"/>
        <path d="M 36.609,0 L 12.3998,0 L 0,9.15229999999997 L 12.1046,18.895 L 36.9042,18.895 L 49.0088,9.15229999999997 L 36.609,0 Z " fill="#046897" stroke="#FFFFFF" stroke-width="0.44285" stroke-linecap="butt" stroke-linejoin="miter"/>
        <path d="M 12.1046,25.0948999999999 L 12.1046,18.895 Z " fill="#046897" stroke-width="1px" stroke="#046897"/>
        <path d="M 12.1046,25.0948999999999 L 12.1046,18.895 " stroke="#FFFFFF" stroke-width="0.44285" stroke-linecap="butt" stroke-linejoin="miter" fill="none"/>
        <path d="M 36.9042,25.0948999999999 L 36.9042,18.895 Z " fill="#046897" stroke-width="1px" stroke="#046897"/>
        <path d="M 36.9042,25.0948999999999 L 36.9042,18.895 " stroke="#FFFFFF" stroke-width="0.44285" stroke-linecap="butt" stroke-linejoin="miter" fill="none"/>
        <path d="M 19.7806,5.60949999999991 L 21.5521,8.56179999999995 L 14.4664,9.7426999999999 L 16.2378,8.56179999999995 L 5.90469999999999,5.90469999999993 L 8.56180000000001,4.13329999999996 L 18.5997,6.49519999999995 L 19.7806,5.60949999999991 Z " fill="#FFFFFF" stroke-width="1px" stroke="#FFFFFF"/>
        <path d="M 28.9329,12.9902999999999 L 27.752,10.0379999999999 L 33.9519,9.44749999999999 L 32.7709,10.3331999999999 L 42.8089,12.6950999999999 L 40.447,14.4665 L 30.4091,11.8094 L 28.9329,12.9902999999999 Z " fill="#FFFFFF" stroke-width="1px" stroke="#FFFFFF"/>
        <path d="M 25.9806,4.72379999999998 L 33.0662,3.24759999999992 L 33.0662,6.19989999999996 L 31.2948,5.90469999999993 L 27.752,8.26659999999993 L 24.5044,7.67609999999991 L 28.3424,5.31419999999991 L 25.9806,4.72379999999998 Z " fill="#FFFFFF" stroke-width="1px" stroke="#FFFFFF"/>
        <path d="M 22.4378,15.0568999999999 L 15.9426,15.6473999999999 L 15.6474,12.6950999999999 L 17.714,13.2855 L 21.5521,10.3331999999999 L 24.5044,11.2189 L 20.3711,14.1712 L 22.4378,15.0568999999999 Z " fill="#FFFFFF" stroke-width="1px" stroke="#FFFFFF"/>
        <path d="M 19.4854,9.7426999999999 L 25.3901,10.6283999999999 " stroke="#FFFFFF" stroke-width="0.44285" stroke-linecap="butt" stroke-linejoin="miter" fill="none"/>
        <path d="M 7.38079999999997,8.26659999999993 L 13.2855,8.85699999999997 " stroke="#FFFFFF" stroke-width="0.44285" stroke-linecap="butt" stroke-linejoin="miter" fill="none"/>
        <path d="M 5.01900000000001,5.31419999999991 L 9.74270000000001,5.90469999999993 " stroke="#FFFFFF" stroke-width="0.44285" stroke-linecap="butt" stroke-linejoin="miter" fill="none"/>
        <path d="M 10.3332,5.90469999999993 L 3.2475,10.9236999999999 " stroke="#FFFFFF" stroke-width="0.44285" stroke-linecap="butt" stroke-linejoin="miter" fill="none"/>
        <path d="M 16.2378,7.0856 L 6.49509999999998,13.876 " stroke="#FFFFFF" stroke-width="0.44285" stroke-linecap="butt" stroke-linejoin="miter" fill="none"/>
        <path d="M 22.733,7.67609999999991 L 10.6284,17.1235999999999 " stroke="#FFFFFF" stroke-width="0.44285" stroke-linecap="butt" stroke-linejoin="miter" fill="none"/>
        <path d="M 10.0379,11.5141 L 15.9426,12.3997999999999 " stroke="#FFFFFF" stroke-width="0.44285" stroke-linecap="butt" stroke-linejoin="miter" fill="none"/>
        <path d="M 36.0185,14.1712 L 41.9232,14.7616999999999 " stroke="#FFFFFF" stroke-width="0.44285" stroke-linecap="butt" stroke-linejoin="miter" fill="none"/>
        <path d="M 23.9139,12.3997999999999 L 29.8186,13.2855 " stroke="#FFFFFF" stroke-width="0.44285" stroke-linecap="butt" stroke-linejoin="miter" fill="none"/>
        <path d="M 26.8663,10.0379999999999 L 15.3521,18.5997 " stroke="#FFFFFF" stroke-width="0.44285" stroke-linecap="butt" stroke-linejoin="miter" fill="none"/>
        <path d="M 33.0662,10.9236999999999 L 23.0282,18.3045 " stroke="#FFFFFF" stroke-width="0.44285" stroke-linecap="butt" stroke-linejoin="miter" fill="none"/>
        <path d="M 38.9709,11.8094 L 30.4091,18.3045 " stroke="#FFFFFF" stroke-width="0.44285" stroke-linecap="butt" stroke-linejoin="miter" fill="none"/>
        <path d="M 45.7612,11.5141 L 39.8566,16.5331 " stroke="#FFFFFF" stroke-width="0.44285" stroke-linecap="butt" stroke-linejoin="miter" fill="none"/>
        <path d="M 14.4664,13.876 L 20.3711,14.7616999999999 " stroke="#FFFFFF" stroke-width="0.44285" stroke-linecap="butt" stroke-linejoin="miter" fill="none"/>
        <path d="M 26.571,15.6473999999999 L 32.4757,16.5331 " stroke="#FFFFFF" stroke-width="0.44285" stroke-linecap="butt" stroke-linejoin="miter" fill="none"/>
        <path d="M 17.714,0.295199999999909 L 10.0379,6.19989999999996 " stroke="#FFFFFF" stroke-width="0.44285" stroke-linecap="butt" stroke-linejoin="miter" fill="none"/>
        <path d="M 25.6853,0 L 16.2378,7.3809 " stroke="#FFFFFF" stroke-width="0.44285" stroke-linecap="butt" stroke-linejoin="miter" fill="none"/>
        <path d="M 39.2661,6.49519999999995 L 44.5803,7.3809 " stroke="#FFFFFF" stroke-width="0.44285" stroke-linecap="butt" stroke-linejoin="miter" fill="none"/>
        <path d="M 32.4757,0.295199999999909 L 20.0759,9.7426999999999 " stroke="#FFFFFF" stroke-width="0.44285" stroke-linecap="butt" stroke-linejoin="miter" fill="none"/>
        <path d="M 38.3804,1.77139999999997 L 25.9806,10.6283999999999 " stroke="#FFFFFF" stroke-width="0.44285" stroke-linecap="butt" stroke-linejoin="miter" fill="none"/>
        <path d="M 41.9232,4.42849999999999 L 32.4757,11.5141 " stroke="#FFFFFF" stroke-width="0.44285" stroke-linecap="butt" stroke-linejoin="miter" fill="none"/>
        <path d="M 45.7612,7.0856 L 38.6756,12.3997999999999 " stroke="#FFFFFF" stroke-width="0.44285" stroke-linecap="butt" stroke-linejoin="miter" fill="none"/>
        <path d="M 17.714,6.19989999999996 L 23.6187,7.0856 " stroke="#FFFFFF" stroke-width="0.44285" stroke-linecap="butt" stroke-linejoin="miter" fill="none"/>
        <path d="M 29.8186,7.97129999999993 L 36.0185,8.85699999999997 " stroke="#FFFFFF" stroke-width="0.44285" stroke-linecap="butt" stroke-linejoin="miter" fill="none"/>
        <path d="M 42.2184,9.7426999999999 L 46.9422,10.6283999999999 " stroke="#FFFFFF" stroke-width="0.44285" stroke-linecap="butt" stroke-linejoin="miter" fill="none"/>
        <g transform=" scale(3.000000) ">
          <text font-family="Helvetica" fill="#FFFFFF" style="white-space:pre;" font-weight="700" text-anchor="start" x="0.0000" y="0.0000" font-size="10.6284"><![CDATA[QFP]]></text>
        </g>
        <g transform=" scale(3.000000) ">
</g>
      </g>
      <!--emf-blob end-->
    </g>
  </g>
</svg>

