<svg xmlns="http://www.w3.org/2000/svg" xmlns:xlink="http://www.w3.org/1999/xlink" version="1.1" viewBox="0 0 171 84" >
  <title><![CDATA[ATA]]></title>
  <g transform=" scale(3.000000) ">
    <!--converted by libvisio2svg-->
    <g>
      <!--emf-blob start-->
      <g>
        <path d="M 0,13.8763 L 17.1239,0.295299999999997 L 56.3907,0.295299999999997 L 42.2192,13.8763 L 0,13.8763 Z " fill="#046897" stroke="#FFFFFF" stroke-width="0.8857" stroke-linecap="butt" stroke-linejoin="miter"/>
        <path d="M 42.2192,27.7525 L 56.3907,13.8763 L 56.3907,0 L 42.2192,13.8763 L 42.2192,27.7525 Z " fill="#046897" stroke="#FFFFFF" stroke-width="0.8857" stroke-linecap="butt" stroke-linejoin="miter"/>
        <path d="M 42.2192,27.7525 L 42.2192,13.8763 L 0,13.8763 L 0,27.7525 L 42.2192,27.7525 Z " fill="#046897" stroke="#FFFFFF" stroke-width="0.8857" stroke-linecap="butt" stroke-linejoin="miter"/>
        <path d="M 25.0953,15.943 C 25.0953,15.943 25.6858,15.943 25.981,16.5334 C 25.981,18.6001 25.981,18.6001 25.981,18.6001 C 29.8191,19.4858 29.8191,19.4858 29.8191,19.4858 C 30.1144,18.6001 30.1144,18.6001 30.1144,18.6001 C 29.2287,15.943 29.2287,15.943 29.2287,15.943 C 24.2096,14.762 21.2572,15.0573 21.2572,15.0573 C 21.2572,15.0573 21.2572,15.0573 21.2572,15.0573 C 21.2572,15.0573 18.8953,14.762 13.8762,15.943 C 12.9905,18.6001 12.9905,18.6001 12.9905,18.6001 C 13.2857,19.4858 13.2857,19.4858 13.2857,19.4858 C 17.1239,18.6001 17.1239,18.6001 17.1239,18.6001 C 17.1239,16.5334 17.1239,16.5334 17.1239,16.5334 C 17.4191,15.943 18.0096,15.943 18.0096,15.943 Z Z " fill="#FFFFFF" stroke="none"/>
        <path d="M 25.3906,26.2764 L 25.3906,18.3049 L 17.7143,18.3049 L 17.7143,26.2764 L 25.3906,26.2764 Z " fill="#000000" stroke="#FFFFFF" stroke-width="0.8857" stroke-linecap="butt" stroke-linejoin="miter"/>
        <g transform=" scale(3.000000) ">
          <text font-family="Helvetica" fill="#FFFFFF" style="white-space:pre;" font-weight="700" text-anchor="start" x="0.0000" y="0.0000" font-size="9.4477"><![CDATA[V]]></text>
        </g>
        <g transform=" scale(3.000000) ">
          <path d="M 15.9429,10.6287 C 15.9429,11.5144 14.1715,12.1049 12.1048,12.1049 C 10.0381,12.1049 8.26669999999996,11.5144 8.26669999999996,10.6287 C 8.26669999999996,9.74290000000002 10.0381,9.15249999999997 12.1048,9.15249999999997 C 14.1715,9.15249999999997 15.9429,9.74290000000002 15.9429,10.6287 Z Z " fill="#999999" stroke="none"/>
          <path d="M 15.9429,9.74290000000002 C 15.9429,10.6287 14.1715,11.2191 12.1048,11.2191 C 10.0381,11.2191 8.26669999999996,10.6287 8.26669999999996,9.74290000000002 C 8.26669999999996,8.85719999999998 10.0381,8.26670000000001 12.1048,8.26670000000001 C 14.1715,8.26670000000001 15.9429,8.85719999999998 15.9429,9.74290000000002 Z Z " fill="#FFFFFF" stroke="none"/>
        </g>
      </g>
      <!--emf-blob end-->
    </g>
  </g>
</svg>

