<svg xmlns="http://www.w3.org/2000/svg" xmlns:xlink="http://www.w3.org/1999/xlink" version="1.1" viewBox="0 0 108 138" >
  <title><![CDATA[ATM Tag switch router]]></title>
  <g transform=" scale(3.000000) ">
    <!--converted by libvisio2svg-->
    <g>
      <!--emf-blob start-->
      <g>
        <path d="M 0,45.7504 L 0,16.8242999999999 L 31.8777,16.8242999999999 L 31.8777,45.7504 L 0,45.7504 Z " fill="#046897" stroke="#FFFFFF" stroke-width="0.8855" stroke-linecap="butt" stroke-linejoin="miter"/>
        <path d="M 35.7148,41.6181 L 35.7148,12.9872 L 31.8777,16.8242999999999 L 31.8777,45.7504 L 35.7148,41.6181 Z " fill="#046897" stroke="#FFFFFF" stroke-width="0.8855" stroke-linecap="butt" stroke-linejoin="miter"/>
        <path d="M 5.9033,0 L 0,4.13229999999993 L 31.8777,4.13229999999993 L 35.7148,0 L 5.9033,0 Z " fill="#046897" stroke="#FFFFFF" stroke-width="0.8855" stroke-linecap="butt" stroke-linejoin="miter"/>
        <path d="M 0,16.8242999999999 L 0,4.13229999999993 L 31.8777,4.13229999999993 L 31.8777,16.8242999999999 L 0,16.8242999999999 Z " fill="#046897" stroke="#FFFFFF" stroke-width="0.8855" stroke-linecap="butt" stroke-linejoin="miter"/>
        <path d="M 35.7148,12.9872 L 35.7148,0 L 31.8777,4.13229999999993 L 31.8777,16.8242999999999 L 35.7148,12.9872 Z " fill="#046897" stroke="#FFFFFF" stroke-width="0.8855" stroke-linecap="butt" stroke-linejoin="miter"/>
        <path d="M 31.8777,16.8242999999999 L 0,16.8242999999999 Z " fill="#000000" stroke-width="1px" stroke="#000000"/>
        <path d="M 31.8777,16.8242999999999 L 0,16.8242999999999 " stroke="#FFFFFF" stroke-width="0.8855" stroke-linecap="butt" stroke-linejoin="miter" fill="none"/>
        <path d="M 31.8777,16.8242999999999 L 35.7148,12.9872 Z " fill="#000000" stroke-width="1px" stroke="#000000"/>
        <path d="M 31.8777,16.8242999999999 L 35.7148,12.9872 " stroke="#FFFFFF" stroke-width="0.8855" stroke-linecap="butt" stroke-linejoin="miter" fill="none"/>
        <path d="M 10.9211,7.67429999999996 L 10.9211,5.01779999999997 L 5.9033,5.01779999999997 L 5.9033,7.67429999999996 L 10.9211,7.67429999999996 Z " fill="#000000" stroke-width="1px" stroke="#000000"/>
        <path d="M 22.7276,7.67429999999996 L 22.7276,5.01779999999997 L 27.7454,5.01779999999997 L 27.7454,7.67429999999996 L 22.7276,7.67429999999996 Z " fill="#000000" stroke-width="1px" stroke="#000000"/>
        <path d="M 10.9211,14.463 L 10.9211,11.8065999999999 L 5.9033,11.8065999999999 L 5.9033,14.463 L 10.9211,14.463 Z " fill="#000000" stroke-width="1px" stroke="#000000"/>
        <path d="M 22.7276,14.463 L 22.7276,11.8065999999999 L 27.7454,11.8065999999999 L 27.7454,14.463 L 22.7276,14.463 Z " fill="#000000" stroke-width="1px" stroke="#000000"/>
        <path d="M 9.4452,6.78879999999998 L 25.0889,6.78879999999998 " stroke="#000000" stroke-width="0.8855" stroke-linecap="butt" stroke-linejoin="miter" fill="none"/>
        <path d="M 9.4452,13.2823999999999 L 25.0889,13.2823999999999 " stroke="#000000" stroke-width="0.8855" stroke-linecap="butt" stroke-linejoin="miter" fill="none"/>
        <path d="M 8.5598,13.2823999999999 L 25.0889,6.78879999999998 " stroke="#000000" stroke-width="0.8855" stroke-linecap="butt" stroke-linejoin="miter" fill="none"/>
        <path d="M 8.5598,6.78879999999998 L 25.0889,13.2823999999999 " stroke="#000000" stroke-width="0.8855" stroke-linecap="butt" stroke-linejoin="miter" fill="none"/>
        <path d="M 10.3307,8.55979999999994 L 10.3307,5.90329999999994 L 5.31299999999999,5.90329999999994 L 5.31299999999999,8.55979999999994 L 10.3307,8.55979999999994 Z " fill="#FFFFFF" stroke-width="1px" stroke="#FFFFFF"/>
        <path d="M 22.1373,8.55979999999994 L 22.1373,5.90329999999994 L 27.1551,5.90329999999994 L 27.1551,8.55979999999994 L 22.1373,8.55979999999994 Z " fill="#FFFFFF" stroke-width="1px" stroke="#FFFFFF"/>
        <path d="M 10.3307,15.0534 L 10.3307,12.3969 L 5.31299999999999,12.3969 L 5.31299999999999,15.0534 L 10.3307,15.0534 Z " fill="#FFFFFF" stroke-width="1px" stroke="#FFFFFF"/>
        <path d="M 22.1373,15.0534 L 22.1373,12.3969 L 27.1551,12.3969 L 27.1551,15.0534 L 22.1373,15.0534 Z " fill="#FFFFFF" stroke-width="1px" stroke="#FFFFFF"/>
        <path d="M 8.5598,7.08389999999997 L 24.4986,7.08389999999997 " stroke="#FFFFFF" stroke-width="0.8855" stroke-linecap="butt" stroke-linejoin="miter" fill="none"/>
        <path d="M 8.5598,13.8727 L 24.4986,13.8727 " stroke="#FFFFFF" stroke-width="0.8855" stroke-linecap="butt" stroke-linejoin="miter" fill="none"/>
        <path d="M 7.67430000000002,13.8727 L 24.4986,7.08389999999997 " stroke="#FFFFFF" stroke-width="0.8855" stroke-linecap="butt" stroke-linejoin="miter" fill="none"/>
        <path d="M 7.67430000000002,7.08389999999997 L 24.4986,13.8727 " stroke="#FFFFFF" stroke-width="0.8855" stroke-linecap="butt" stroke-linejoin="miter" fill="none"/>
        <path d="M 7.37909999999999,38.6664 L 13.2824,38.6664 L 20.9566,22.7275999999999 L 26.2696,22.7275999999999 " stroke="#000000" stroke-width="2.65645" stroke-linecap="butt" stroke-linejoin="miter" fill="none"/>
        <path d="M 24.7937,19.776 L 24.7937,25.3840999999999 L 28.3357,22.7275999999999 L 24.7937,19.776 Z " fill="#000000" stroke-width="1px" stroke="#000000"/>
        <path d="M 8.5598,41.3228999999999 L 8.5598,35.7148 L 5.01780000000002,38.6664 L 8.5598,41.3228999999999 Z " fill="#000000" stroke-width="1px" stroke="#000000"/>
        <path d="M 7.67430000000002,41.9132 L 7.67430000000002,36.3051 L 4.42750000000001,38.9616 L 7.67430000000002,41.9132 Z " fill="#FFFFFF" stroke-width="1px" stroke="#FFFFFF"/>
        <path d="M 24.2034,20.0710999999999 L 24.2034,25.9743999999999 L 27.4502,23.0228 L 24.2034,20.0710999999999 Z " fill="#FFFFFF" stroke-width="1px" stroke="#FFFFFF"/>
        <path d="M 8.5598,25.3840999999999 L 8.5598,19.776 L 5.01780000000002,22.7275999999999 L 8.5598,25.3840999999999 Z " fill="#000000" stroke-width="1px" stroke="#000000"/>
        <path d="M 7.67430000000002,25.9743999999999 L 7.67430000000002,20.3663 L 4.42750000000001,23.0228 L 7.67430000000002,25.9743999999999 Z " fill="#FFFFFF" stroke-width="1px" stroke="#FFFFFF"/>
        <path d="M 26.5647,38.6664 L 20.9566,38.6664 L 12.9872,22.4324 L 8.26460000000003,22.4324 " stroke="#000000" stroke-width="2.65645" stroke-linecap="butt" stroke-linejoin="miter" fill="none"/>
        <path d="M 26.2696,38.9616 L 20.3663,38.9616 L 12.3969,23.0228 L 6.49360000000001,23.0228 " stroke="#FFFFFF" stroke-width="2.65645" stroke-linecap="butt" stroke-linejoin="miter" fill="none"/>
        <path d="M 6.49360000000001,38.9616 L 12.1017,38.9616 L 20.0711,23.0228 L 26.2696,23.0228 " stroke="#FFFFFF" stroke-width="2.65645" stroke-linecap="butt" stroke-linejoin="miter" fill="none"/>
        <path d="M 24.7937,35.7148 L 24.7937,41.3228999999999 L 28.3357,38.6664 L 24.7937,35.7148 Z " fill="#000000" stroke-width="1px" stroke="#000000"/>
        <path d="M 24.2034,36.3051 L 24.2034,41.9132 L 27.4502,39.2567999999999 L 24.2034,36.3051 Z " fill="#FFFFFF" stroke-width="1px" stroke="#FFFFFF"/>
      </g>
      <!--emf-blob end-->
    </g>
  </g>
</svg>

