<svg xmlns="http://www.w3.org/2000/svg" xmlns:xlink="http://www.w3.org/1999/xlink" version="1.1" viewBox="0 0 108 108" >
  <title><![CDATA[ATM Fast Gigabit]]></title>
  <g transform=" scale(3.000000) ">
    <!--converted by libvisio2svg-->
    <g>
      <!--emf-blob start-->
      <g>
        <path d="M 26.8648,35.4262 L 26.8648,7.97089999999997 L 0.295199999999966,7.97089999999997 L 0.295199999999966,35.4262 L 26.8648,35.4262 Z " fill="#046897" stroke="#FFFFFF" stroke-width="0.88565" stroke-linecap="butt" stroke-linejoin="miter"/>
        <path d="M 5.01869999999997,29.2266 L 10.6278,29.2266 L 18.3035,13.2848 L 23.9126,13.2848 " stroke="#000000" stroke-width="2.65695" stroke-linecap="butt" stroke-linejoin="miter" fill="none"/>
        <path d="M 22.1413,10.3326 L 22.1413,16.237 L 25.684,13.2848 L 22.1413,10.3326 Z " fill="#000000" stroke-width="1px" stroke="#000000"/>
        <path d="M 5.90440000000001,32.1788 L 5.90440000000001,26.5696 L 2.65699999999998,29.2266 L 5.90440000000001,32.1788 Z " fill="#000000" stroke-width="1px" stroke="#000000"/>
        <path d="M 5.01869999999997,32.7692 L 5.01869999999997,27.1601 L 1.7713,29.817 L 5.01869999999997,32.7692 Z " fill="#FFFFFF" stroke-width="1px" stroke="#FFFFFF"/>
        <path d="M 21.5509,10.9231 L 21.5509,16.5322 L 25.0935,13.8753 L 21.5509,10.9231 Z " fill="#FFFFFF" stroke-width="1px" stroke="#FFFFFF"/>
        <path d="M 5.90440000000001,16.237 L 5.90440000000001,10.6279 L 2.65699999999998,13.2848 L 5.90440000000001,16.237 Z " fill="#000000" stroke-width="1px" stroke="#000000"/>
        <path d="M 5.01869999999997,16.8274 L 5.01869999999997,11.2183 L 1.7713,13.8753 L 5.01869999999997,16.8274 Z " fill="#FFFFFF" stroke-width="1px" stroke="#FFFFFF"/>
        <path d="M 23.9126,29.2266 L 18.3035,29.2266 L 10.3326,13.2848 L 5.60910000000001,13.2848 " stroke="#000000" stroke-width="2.65695" stroke-linecap="butt" stroke-linejoin="miter" fill="none"/>
        <path d="M 23.9126,29.817 L 18.0083,29.817 L 10.0374,13.8753 L 3.83780000000002,13.8753 " stroke="#FFFFFF" stroke-width="2.65695" stroke-linecap="butt" stroke-linejoin="miter" fill="none"/>
        <path d="M 35.4261,0 L 26.8648,7.97089999999997 L 0,7.97089999999997 L 9.74219999999997,0 L 35.4261,0 Z " fill="#046897" stroke="#FFFFFF" stroke-width="0.88565" stroke-linecap="butt" stroke-linejoin="miter"/>
        <path d="M 35.7214,24.7983 L 35.7214,0 L 26.8648,7.97089999999997 L 26.8648,35.1309 L 35.7214,24.7983 Z " fill="#046897" stroke="#FFFFFF" stroke-width="0.88565" stroke-linecap="butt" stroke-linejoin="miter"/>
        <path d="M 3.83780000000002,29.817 L 9.74219999999997,29.817 L 17.4179,13.8753 L 23.6174,13.8753 " stroke="#FFFFFF" stroke-width="2.65695" stroke-linecap="butt" stroke-linejoin="miter" fill="none"/>
        <path d="M 22.1413,26.5696 L 22.1413,32.1788 L 25.684,29.5218 L 22.1413,26.5696 Z " fill="#000000" stroke-width="1px" stroke="#000000"/>
        <path d="M 21.5509,26.8648 L 21.5509,32.474 L 25.0935,29.817 L 21.5509,26.8648 Z " fill="#FFFFFF" stroke-width="1px" stroke="#FFFFFF"/>
        <path d="M 26.8648,1.47609999999997 L 28.0457,0.59050000000002 L 31.5883,1.7713 L 25.3887,3.24739999999997 L 26.8648,1.7713 L 20.6653,1.7713 L 20.9605,1.47609999999997 L 26.8648,1.47609999999997 Z " fill="#000000" stroke-width="1px" stroke="#000000"/>
        <path d="M 22.1413,5.01869999999997 L 23.3222,4.13310000000001 L 26.2744,5.01869999999997 L 20.0748,6.4948 L 21.2557,5.31389999999999 L 15.0561,5.31389999999999 L 15.9418,5.01869999999997 L 22.1413,5.01869999999997 Z " fill="#FFFFFF" stroke-width="1px" stroke="#FFFFFF"/>
        <path d="M 19.1892,2.65699999999998 L 18.5987,3.24739999999997 L 13.58,3.24739999999997 L 12.3991,3.83789999999999 L 9.447,2.9522 L 15.6465,1.47609999999997 L 13.8752,2.65699999999998 L 19.1892,2.65699999999998 Z " fill="#FFFFFF" stroke-width="1px" stroke="#FFFFFF"/>
        <path d="M 14.7609,6.19959999999998 L 13.8752,6.79000000000002 L 8.85649999999998,6.79000000000002 L 7.97089999999997,7.38049999999998 L 5.01869999999997,6.19959999999998 L 11.2183,5.01869999999997 L 9.447,6.19959999999998 L 14.7609,6.19959999999998 Z " fill="#FFFFFF" stroke-width="1px" stroke="#FFFFFF"/>
        <path d="M 26.8648,1.7713 L 28.0457,0.885699999999986 L 31.2931,2.06650000000002 L 25.0935,3.24739999999997 L 25.9792,2.36180000000002 L 20.0748,2.36180000000002 L 20.6653,1.7713 L 26.8648,1.7713 Z " fill="#FFFFFF" stroke-width="1px" stroke="#FFFFFF"/>
      </g>
      <!--emf-blob end-->
    </g>
  </g>
</svg>

