<svg xmlns="http://www.w3.org/2000/svg" xmlns:xlink="http://www.w3.org/1999/xlink" version="1.1" viewBox="0 0 114 129" >
  <title><![CDATA[ATM 3800]]></title>
  <g transform=" scale(3.000000) ">
    <!--converted by libvisio2svg-->
    <g>
      <!--emf-blob start-->
      <g>
        <path d="M 1.47559999999999,12.9849 L 3.83640000000003,10.3289 Z " fill="#000000" stroke-width="1px" stroke="#000000"/>
        <path d="M 1.47559999999999,12.9849 L 3.83640000000003,10.3289 " stroke="#FFFFFF" stroke-width="0.88535" stroke-linecap="butt" stroke-linejoin="miter" fill="none"/>
        <path d="M 33.0524,23.3138 L 0,4.42669999999998 L 0,42.2009 L 33.0524,23.3138 Z " fill="#046897" stroke="#FFFFFF" stroke-width="0.88535" stroke-linecap="butt" stroke-linejoin="miter"/>
        <path d="M 32.4622,23.6089 L 0.295099999999991,5.31200000000001 L 5.6071,0 L 37.7742,18.2969 L 32.4622,23.6089 Z " fill="#046897" stroke="#FFFFFF" stroke-width="0.88535" stroke-linecap="butt" stroke-linejoin="miter"/>
        <path d="M 8.26310000000001,14.1653 L 3.83640000000003,17.7067 L 9.14839999999998,20.0676 L 8.26310000000001,14.1653 Z " fill="#FFFFFF" stroke-width="1px" stroke="#FFFFFF"/>
        <path d="M 2.65600000000001,11.8045 L 6.19729999999998,16.5262 " stroke="#FFFFFF" stroke-width="1.328" stroke-linecap="butt" stroke-linejoin="miter" fill="none"/>
        <path d="M 8.26310000000001,33.3476 L 3.83640000000003,30.1013 L 9.14839999999998,27.7404 L 8.26310000000001,33.3476 Z " fill="#FFFFFF" stroke-width="1px" stroke="#FFFFFF"/>
        <path d="M 2.65600000000001,36.0036 L 6.19729999999998,31.2818 " stroke="#FFFFFF" stroke-width="1.328" stroke-linecap="butt" stroke-linejoin="miter" fill="none"/>
        <path d="M 22.7235,20.9529 L 22.7235,26.56 L 27.7404,23.904 L 22.7235,20.9529 Z " fill="#FFFFFF" stroke-width="1px" stroke="#FFFFFF"/>
        <path d="M 17.4115,23.904 L 23.3138,23.904 " stroke="#FFFFFF" stroke-width="1.328" stroke-linecap="butt" stroke-linejoin="miter" fill="none"/>
      </g>
      <!--emf-blob end-->
    </g>
  </g>
</svg>

