<svg xmlns="http://www.w3.org/2000/svg" xmlns:xlink="http://www.w3.org/1999/xlink" version="1.1" viewBox="0 0 153 108" >
  <title><![CDATA[AVS]]></title>
  <g transform=" scale(3.000000) ">
    <!--converted by libvisio2svg-->
    <g>
      <!--emf-blob start-->
      <g>
        <path d="M 0,35.7148 L 45.16,35.7148 L 45.16,6.19839999999999 L 0,6.19839999999999 L 0,35.7148 Z " fill="#046897" stroke="#FFFFFF" stroke-width="0.8855" stroke-linecap="butt" stroke-linejoin="miter"/>
        <path d="M 50.1777,28.3357 L 45.16,35.7148 L 45.16,6.19839999999999 L 50.1777,0 L 50.1777,28.3357 Z " fill="#046897" stroke="#FFFFFF" stroke-width="0.8855" stroke-linecap="butt" stroke-linejoin="miter"/>
        <path d="M 7.67419999999998,0 L 50.1777,0 L 45.16,6.19839999999999 L 0,6.19839999999999 L 7.67419999999998,0 Z " fill="#046897" stroke="#FFFFFF" stroke-width="0.8855" stroke-linecap="butt" stroke-linejoin="miter"/>
        <path d="M 6.49360000000001,14.1678 L 2.65640000000002,14.1678 L 2.65640000000002,12.692 L 6.49360000000001,12.692 L 6.49360000000001,10.921 L 10.921,13.5775 L 6.49360000000001,15.9388 L 6.49360000000001,14.1678 Z " fill="#FFFFFF" stroke-width="1px" stroke="#FFFFFF"/>
        <path d="M 6.49360000000001,21.5469 L 2.65640000000002,21.5469 L 2.65640000000002,20.3663 L 6.49360000000001,20.3663 L 6.49360000000001,18.3001 L 10.921,20.9566 L 6.49360000000001,23.3179 L 6.49360000000001,21.5469 Z " fill="#FFFFFF" stroke-width="1px" stroke="#FFFFFF"/>
        <path d="M 6.49360000000001,28.926 L 2.65640000000002,28.926 L 2.65640000000002,27.7454 L 6.49360000000001,27.7454 L 6.49360000000001,25.9744 L 10.921,28.3357 L 6.49360000000001,30.9921 L 6.49360000000001,28.926 Z " fill="#FFFFFF" stroke-width="1px" stroke="#FFFFFF"/>
        <path d="M 40.1422,21.5469 L 35.1244,21.5469 L 35.1244,20.3663 L 40.1422,20.3663 L 40.1422,18.5953 L 44.5696,20.9566 L 40.1422,23.3179 L 40.1422,21.5469 Z " fill="#FFFFFF" stroke-width="1px" stroke="#FFFFFF"/>
        <path d="M 14.463,21.5469 C 14.463,26.2695 18.3001,30.1067 23.3179,30.1067 C 23.3179,21.5469 23.3179,21.5469 23.3179,21.5469 Z Z " fill="#FFFFFF" stroke="none"/>
        <path d="M 23.3179,12.692 C 28.0405,12.692 31.8776,16.5291 31.8776,21.5469 C 23.3179,21.5469 23.3179,21.5469 23.3179,21.5469 Z Z " fill="#FFFFFF" stroke="none"/>
      </g>
      <!--emf-blob end-->
    </g>
  </g>
</svg>

