<svg xmlns="http://www.w3.org/2000/svg" xmlns:xlink="http://www.w3.org/1999/xlink" version="1.1" viewBox="0 0 132 126" >
  <title><![CDATA[AXP]]></title>
  <g transform=" scale(3.000000) ">
    <!--converted by libvisio2svg-->
    <g>
      <!--emf-blob start-->
      <g>
        <path d="M 43.4129,8.56449999999995 C 43.4129,12.9943 33.6671,16.8336 21.8541,16.8336 C 9.74580000000003,16.8336 0,12.9943 0,8.56449999999995 C 0,18.3102 0,18.3102 0,18.3102 C 0,23.0354 9.74580000000003,26.8746 21.8541,26.8746 C 33.6671,26.8746 43.4129,23.0354 43.4129,18.3102 Z Z " fill="#808080" stroke="#FFFFFF" stroke-width="0.886" stroke-linecap="butt" stroke-linejoin="miter"/>
        <path d="M 43.4129,18.0149 C 43.4129,22.7401 33.6671,26.5793 21.8541,26.5793 C 9.74580000000003,26.5793 0,22.7401 0,18.0149 C 0,33.0765 0,33.0765 0,33.0765 C 0,37.8017 9.74580000000003,41.3456 21.8541,41.3456 C 33.6671,41.3456 43.4129,37.8017 43.4129,33.0765 Z Z " fill="#046897" stroke="#FFFFFF" stroke-width="0.886" stroke-linecap="butt" stroke-linejoin="miter"/>
        <path d="M 21.8541,16.8336 C 33.6671,16.8336 43.4129,12.9943 43.4129,8.56449999999995 C 43.4129,3.83929999999998 33.6671,0 21.8541,0 C 9.74580000000003,0 0,3.83929999999998 0,8.56449999999995 C 0,12.9943 9.74580000000003,16.8336 21.8541,16.8336 Z Z " fill="#808080" stroke="#FFFFFF" stroke-width="0.886" stroke-linecap="butt" stroke-linejoin="miter"/>
        <path d="M 16.8336,5.0206 L 18.6055,7.67849999999999 L 11.8131,9.4504 L 13.2897,8.26909999999998 L 2.95330000000001,6.49719999999996 L 5.3159,4.42989999999998 L 15.6523,6.20189999999997 L 16.8336,5.0206 Z " fill="#FFFFFF" stroke-width="1px" stroke="#FFFFFF"/>
        <path d="M 26.284,11.5177 L 25.1027,8.85980000000001 L 31.3045,7.67849999999999 L 30.1232000000001,8.56449999999995 L 40.4596,10.3364 L 37.8017,12.4037 L 27.7606,10.3364 L 26.284,11.5177 Z " fill="#FFFFFF" stroke-width="1px" stroke="#FFFFFF"/>
        <path d="M 23.0354,3.54389999999995 L 29.8279,1.77199999999999 L 29.8279,4.72519999999997 L 28.3513,4.42989999999998 L 24.8074,7.08779999999996 L 21.5588,6.79249999999996 L 25.1027,3.83929999999998 L 23.0354,3.54389999999995 Z " fill="#FFFFFF" stroke-width="1px" stroke="#FFFFFF"/>
        <path d="M 20.0822,14.1756 L 13.585,15.3569 L 13.2897,12.4037 L 15.0616000000001,12.699 L 18.9009,9.74579999999997 L 21.8541,10.3364 L 18.0149,13.585 L 20.0822,14.1756 Z " fill="#FFFFFF" stroke-width="1px" stroke="#FFFFFF"/>
        <path d="M 0.590700000000027,20.6728 C 2.65800000000002,24.512 10.6318000000001,27.17 21.2635,27.17 C 31.5999,27.17 40.4596,24.2167 43.1176,20.6728 C 43.1176,18.3102 43.1176,18.3102 43.1176,18.3102 C 43.1176,22.4448 32.7812,25.9887 21.2635,25.9887 C 9.74580000000003,25.9887 0.886000000000024,22.4448 0.295400000000029,18.6055 Z Z " fill="#046897" stroke="none"/>
        <path d="M 19.7868,24.512 L 19.7868,25.398 L 15.9476,25.398 L 21.5588,32.4858 L 26.8747,25.398 L 23.3308,25.398 L 23.3308,24.512 L 19.7868,24.512 Z " fill="#808080" stroke-width="1px" stroke="#808080"/>
        <path d="M 16.2429,38.6877 L 29.2373,25.6933 L 28.056,25.1027 L 15.0616000000001,38.097 L 16.2429,38.6877 Z " fill="#FFFFFF" stroke-width="1px" stroke="#FFFFFF"/>
        <path d="M 26.5793,38.3923 L 13.8803,25.6933 L 15.0616000000001,25.1027 L 27.7606,37.8017 L 26.5793,38.3923 Z " fill="#FFFFFF" stroke-width="1px" stroke="#FFFFFF"/>
        <path d="M 23.3308,37.8017 C 23.3308,38.983 23.3308,38.983 23.3308,38.983 C 26.5793,38.6877 31.8952,38.3923 34.5531,37.5064 C 34.8485,36.3251 34.8485,36.3251 34.8485,36.3251 C 31.8952,37.211 26.5793,37.5064 23.3308,37.8017 Z Z " fill="#FFFFFF" stroke="none"/>
        <path d="M 8.85980000000001,37.5064 C 11.8131,38.3923 16.2429,38.6877 19.7868,38.983 C 19.7868,37.8017 19.7868,37.8017 19.7868,37.8017 C 16.2429,37.8017 11.5177,36.9157 8.85980000000001,36.3251 Z Z " fill="#FFFFFF" stroke="none"/>
        <path d="M 8.56450000000001,25.1027 C 11.2224000000001,25.6933 15.9476,26.284 19.4915,26.5793 C 19.4915,25.398 19.4915,25.398 19.4915,25.398 C 15.6523,25.1027 10.9271000000001,24.512 8.56450000000001,23.9214 Z Z " fill="#FFFFFF" stroke="none"/>
        <path d="M 23.3308,25.398 C 23.3308,26.5793 23.3308,26.5793 23.3308,26.5793 C 26.8747,26.5793 31.8952,25.9887 34.8485,25.1027 C 34.8485,23.9214 34.8485,23.9214 34.8485,23.9214 C 32.1905,24.8074 26.8747,25.398 23.3308,25.398 Z Z " fill="#FFFFFF" stroke="none"/>
        <path d="M 11.2224000000001,34.8484 L 9.74580000000003,34.5531 L 12.1084,28.3513 L 13.8803,28.6466 L 16.2429,35.7344 L 14.471,35.4391 L 14.1757,33.9625 L 11.5177,33.6671 L 11.2224000000001,34.8484 Z M 12.1084,32.4858 L 13.8803,32.7812 L 12.9944,29.8279 L 12.9944,29.8279 L 12.1084,32.4858 Z " fill="#FFFFFF" stroke-width="1px" stroke="#FFFFFF"/>
        <path d="M 29.5326,35.4391 C 28.056,35.7344 28.056,35.7344 28.056,35.7344 C 28.056,28.9419 28.056,28.9419 28.056,28.9419 C 31.0092,28.3513 31.0092,28.3513 31.0092,28.3513 C 32.4858,28.3513 33.3718,28.9419 33.3718,30.4186 C 33.3718,31.0092 32.7812,32.4858 31.0092,32.7812 C 29.5326,33.0765 29.5326,33.0765 29.5326,33.0765 Z M 30.7139,31.5999 C 31.8952,31.5999 31.8952,30.7139 31.8952,30.4186 C 31.8952,29.8279 31.5999,29.5326 30.7139,29.5326 C 29.5326,29.8279 29.5326,29.8279 29.5326,29.8279 C 29.5326,31.8952 29.5326,31.8952 29.5326,31.8952 Z Z " fill="#FFFFFF" stroke="none"/>
      </g>
      <!--emf-blob end-->
    </g>
  </g>
</svg>

