<svg xmlns="http://www.w3.org/2000/svg" xmlns:xlink="http://www.w3.org/1999/xlink" version="1.1" viewBox="0 0 171 72" >
  <title><![CDATA[BBSM]]></title>
  <g transform=" scale(3.000000) ">
    <!--converted by libvisio2svg-->
    <g>
      <!--emf-blob start-->
      <g>
        <path d="M 42.2192,22.7335 L 42.2192,13.5811 L 0.295200000000023,13.5811 L 0.295200000000023,22.7335 L 42.2192,22.7335 Z " fill="#046897" stroke="#FFFFFF" stroke-width="0.8857" stroke-linecap="butt" stroke-linejoin="miter"/>
        <path d="M 0,13.5811 L 17.1239,0 L 56.3907,0 L 42.2192,13.5811 L 0,13.5811 Z " fill="#046897" stroke="#FFFFFF" stroke-width="0.8857" stroke-linecap="butt" stroke-linejoin="miter"/>
        <path d="M 42.2192,23.0287 L 56.3907,9.15249999999997 L 56.3907,0 L 42.2192,13.5811 L 42.2192,23.0287 Z " fill="#046897" stroke="#FFFFFF" stroke-width="0.8857" stroke-linecap="butt" stroke-linejoin="miter"/>
        <path d="M 27.4573,3.54289999999997 L 28.343,6.49529999999999 L 21.8477,5.90479999999997 L 23.6192,5.01909999999998 L 17.1239,1.47620000000001 L 19.4858,0.590499999999963 L 25.9811,3.8381 L 27.4573,3.54289999999997 Z " fill="#FFFFFF" stroke-width="1px" stroke="#FFFFFF"/>
        <path d="M 30.7049,10.0382 L 29.5239,7.08580000000001 L 36.0192,7.97149999999999 L 34.8383,8.26670000000001 L 41.924,11.8096 L 39.2668,12.6953 L 32.1811,9.4477 L 30.7049,10.0382 Z " fill="#FFFFFF" stroke-width="1px" stroke="#FFFFFF"/>
        <path d="M 43.9907,0.885800000000017 L 51.0764,1.47620000000001 L 50.1907,4.13339999999999 L 48.7145,3.24770000000001 L 34.2478,6.79050000000001 L 31.2954,5.3143 L 46.0574,2.06669999999997 L 43.9907,0.885800000000017 Z " fill="#FFFFFF" stroke-width="1px" stroke="#FFFFFF"/>
        <path d="M 13.2858,12.6953 L 6.79050000000001,11.8096 L 7.38100000000003,8.85719999999998 L 9.1524,9.74289999999996 L 23.9144,6.79050000000001 L 26.5716,8.26670000000001 L 11.5143,11.5144 L 13.2858,12.6953 Z " fill="#FFFFFF" stroke-width="1px" stroke="#FFFFFF"/>
        <path d="M 12.1048,19.7811 L 2.95240000000001,19.7811 L 2.95240000000001,16.2382 L 12.1048,16.2382 L 12.1048,19.7811 Z " fill="#FFFFFF" stroke-width="1px" stroke="#FFFFFF"/>
        <path d="M 38.6764,19.7811 L 29.5239,19.7811 L 29.5239,16.2382 L 38.6764,16.2382 L 38.6764,19.7811 Z " fill="#FFFFFF" stroke-width="1px" stroke="#FFFFFF"/>
      </g>
      <!--emf-blob end-->
    </g>
  </g>
</svg>

