<svg xmlns="http://www.w3.org/2000/svg" xmlns:xlink="http://www.w3.org/1999/xlink" version="1.1" viewBox="0 0 87 129" >
  <title><![CDATA[Branch office]]></title>
  <g transform=" scale(3.000000) ">
    <!--converted by libvisio2svg-->
    <g>
      <!--emf-blob start-->
      <g>
        <path d="M 28.9322,32.7703 L 28.9322,0 L 20.9611,7.97120000000001 L 20.9611,42.2175 L 28.9322,32.7703 Z " fill="#0A719F" stroke="#FFFFFF" stroke-width="0.44285" stroke-linecap="butt" stroke-linejoin="miter"/>
        <path d="M 20.9611,7.97120000000001 L 0,7.97120000000001 L 0,42.2175 L 20.9611,42.2175 L 20.9611,7.97120000000001 Z " fill="#0A719F" stroke="#FFFFFF" stroke-width="0.44285" stroke-linecap="butt" stroke-linejoin="miter"/>
        <path d="M 20.9611,7.97120000000001 L 28.9322,0 L 28.9322,0 L 10.0377,0 L 0,7.97120000000001 L 20.9611,7.97120000000001 L 20.9611,7.97120000000001 Z " fill="#0A719F" stroke="#FFFFFF" stroke-width="0.44285" stroke-linecap="butt" stroke-linejoin="miter"/>
        <path d="M 6.19970000000001,31.5893 L 6.19970000000001,34.5416 L 9.15200000000004,34.5416 " stroke="#FFFFFF" stroke-width="0.44285" stroke-linecap="butt" stroke-linejoin="miter" fill="none"/>
        <path d="M 5.90450000000004,34.5416 L 9.15200000000004,34.5416 " stroke="#FFFFFF" stroke-width="0.44285" stroke-linecap="butt" stroke-linejoin="miter" fill="none"/>
        <path d="M 2.06650000000002,31.5893 L 2.06650000000002,34.5416 L 5.0188,34.5416 " stroke="#FFFFFF" stroke-width="0.44285" stroke-linecap="butt" stroke-linejoin="miter" fill="none"/>
        <path d="M 1.47610000000003,34.5416 L 5.0188,34.5416 " stroke="#FFFFFF" stroke-width="0.44285" stroke-linecap="butt" stroke-linejoin="miter" fill="none"/>
        <path d="M 6.19970000000001,26.5705 L 6.19970000000001,29.5228 L 9.15200000000004,29.5228 " stroke="#FFFFFF" stroke-width="0.44285" stroke-linecap="butt" stroke-linejoin="miter" fill="none"/>
        <path d="M 5.90450000000004,29.5228 L 9.15200000000004,29.5228 " stroke="#FFFFFF" stroke-width="0.44285" stroke-linecap="butt" stroke-linejoin="miter" fill="none"/>
        <path d="M 2.06650000000002,26.5705 L 2.06650000000002,29.5228 L 5.0188,29.5228 " stroke="#FFFFFF" stroke-width="0.44285" stroke-linecap="butt" stroke-linejoin="miter" fill="none"/>
        <path d="M 1.47610000000003,29.5228 L 5.0188,29.5228 " stroke="#FFFFFF" stroke-width="0.44285" stroke-linecap="butt" stroke-linejoin="miter" fill="none"/>
        <path d="M 6.19970000000001,20.6659 L 6.19970000000001,23.6182 L 9.15200000000004,23.6182 " stroke="#FFFFFF" stroke-width="0.44285" stroke-linecap="butt" stroke-linejoin="miter" fill="none"/>
        <path d="M 5.90450000000004,23.6182 L 9.15200000000004,23.6182 " stroke="#FFFFFF" stroke-width="0.44285" stroke-linecap="butt" stroke-linejoin="miter" fill="none"/>
        <path d="M 2.06650000000002,20.6659 L 2.06650000000002,23.6182 L 5.0188,23.6182 " stroke="#FFFFFF" stroke-width="0.44285" stroke-linecap="butt" stroke-linejoin="miter" fill="none"/>
        <path d="M 1.47610000000003,23.6182 L 5.0188,23.6182 " stroke="#FFFFFF" stroke-width="0.44285" stroke-linecap="butt" stroke-linejoin="miter" fill="none"/>
        <path d="M 6.19970000000001,15.0566 L 6.19970000000001,18.0089 L 9.15200000000004,18.0089 " stroke="#FFFFFF" stroke-width="0.44285" stroke-linecap="butt" stroke-linejoin="miter" fill="none"/>
        <path d="M 5.90450000000004,18.0089 L 9.15200000000004,18.0089 " stroke="#FFFFFF" stroke-width="0.44285" stroke-linecap="butt" stroke-linejoin="miter" fill="none"/>
        <path d="M 2.06650000000002,15.0566 L 2.06650000000002,18.0089 L 5.0188,18.0089 " stroke="#FFFFFF" stroke-width="0.44285" stroke-linecap="butt" stroke-linejoin="miter" fill="none"/>
        <path d="M 1.47610000000003,18.0089 L 5.0188,18.0089 " stroke="#FFFFFF" stroke-width="0.44285" stroke-linecap="butt" stroke-linejoin="miter" fill="none"/>
        <path d="M 6.19970000000001,9.15210000000002 L 6.19970000000001,12.1043 L 9.15200000000004,12.1043 " stroke="#FFFFFF" stroke-width="0.44285" stroke-linecap="butt" stroke-linejoin="miter" fill="none"/>
        <path d="M 5.90450000000004,12.1043 L 9.15200000000004,12.1043 " stroke="#FFFFFF" stroke-width="0.44285" stroke-linecap="butt" stroke-linejoin="miter" fill="none"/>
        <path d="M 2.06650000000002,9.15210000000002 L 2.06650000000002,12.1043 L 5.0188,12.1043 " stroke="#FFFFFF" stroke-width="0.44285" stroke-linecap="butt" stroke-linejoin="miter" fill="none"/>
        <path d="M 1.47610000000003,12.1043 L 5.0188,12.1043 " stroke="#FFFFFF" stroke-width="0.44285" stroke-linecap="butt" stroke-linejoin="miter" fill="none"/>
        <path d="M 15.3518,31.5893 L 15.3518,34.5416 L 18.304,34.5416 " stroke="#FFFFFF" stroke-width="0.44285" stroke-linecap="butt" stroke-linejoin="miter" fill="none"/>
        <path d="M 15.0565,34.5416 L 18.304,34.5416 " stroke="#FFFFFF" stroke-width="0.44285" stroke-linecap="butt" stroke-linejoin="miter" fill="none"/>
        <path d="M 11.2186,31.5893 L 11.2186,34.5416 L 14.1709,34.5416 " stroke="#FFFFFF" stroke-width="0.44285" stroke-linecap="butt" stroke-linejoin="miter" fill="none"/>
        <path d="M 10.9234,34.5416 L 14.1709,34.5416 " stroke="#FFFFFF" stroke-width="0.44285" stroke-linecap="butt" stroke-linejoin="miter" fill="none"/>
        <path d="M 15.3518,26.5705 L 15.3518,29.5228 L 18.304,29.5228 " stroke="#FFFFFF" stroke-width="0.44285" stroke-linecap="butt" stroke-linejoin="miter" fill="none"/>
        <path d="M 15.0565,29.5228 L 18.304,29.5228 " stroke="#FFFFFF" stroke-width="0.44285" stroke-linecap="butt" stroke-linejoin="miter" fill="none"/>
        <path d="M 11.2186,26.5705 L 11.2186,29.5228 L 14.1709,29.5228 " stroke="#FFFFFF" stroke-width="0.44285" stroke-linecap="butt" stroke-linejoin="miter" fill="none"/>
        <path d="M 10.9234,29.5228 L 14.1709,29.5228 " stroke="#FFFFFF" stroke-width="0.44285" stroke-linecap="butt" stroke-linejoin="miter" fill="none"/>
        <path d="M 15.3518,20.6659 L 15.3518,23.6182 L 18.304,23.6182 " stroke="#FFFFFF" stroke-width="0.44285" stroke-linecap="butt" stroke-linejoin="miter" fill="none"/>
        <path d="M 15.0565,23.6182 L 18.304,23.6182 " stroke="#FFFFFF" stroke-width="0.44285" stroke-linecap="butt" stroke-linejoin="miter" fill="none"/>
        <path d="M 11.2186,20.6659 L 11.2186,23.6182 L 14.1709,23.6182 " stroke="#FFFFFF" stroke-width="0.44285" stroke-linecap="butt" stroke-linejoin="miter" fill="none"/>
        <path d="M 10.9234,23.6182 L 14.1709,23.6182 " stroke="#FFFFFF" stroke-width="0.44285" stroke-linecap="butt" stroke-linejoin="miter" fill="none"/>
        <path d="M 15.3518,15.0566 L 15.3518,18.0089 L 18.304,18.0089 " stroke="#FFFFFF" stroke-width="0.44285" stroke-linecap="butt" stroke-linejoin="miter" fill="none"/>
        <path d="M 15.0565,18.0089 L 18.304,18.0089 " stroke="#FFFFFF" stroke-width="0.44285" stroke-linecap="butt" stroke-linejoin="miter" fill="none"/>
        <path d="M 11.2186,15.0566 L 11.2186,18.0089 L 14.1709,18.0089 " stroke="#FFFFFF" stroke-width="0.44285" stroke-linecap="butt" stroke-linejoin="miter" fill="none"/>
        <path d="M 10.9234,18.0089 L 14.1709,18.0089 " stroke="#FFFFFF" stroke-width="0.44285" stroke-linecap="butt" stroke-linejoin="miter" fill="none"/>
        <path d="M 15.3518,9.15210000000002 L 15.3518,12.1043 L 18.304,12.1043 " stroke="#FFFFFF" stroke-width="0.44285" stroke-linecap="butt" stroke-linejoin="miter" fill="none"/>
        <path d="M 15.0565,12.1043 L 18.304,12.1043 " stroke="#FFFFFF" stroke-width="0.44285" stroke-linecap="butt" stroke-linejoin="miter" fill="none"/>
        <path d="M 11.2186,9.15210000000002 L 11.2186,12.1043 L 14.1709,12.1043 " stroke="#FFFFFF" stroke-width="0.44285" stroke-linecap="butt" stroke-linejoin="miter" fill="none"/>
        <path d="M 10.9234,12.1043 L 14.1709,12.1043 " stroke="#FFFFFF" stroke-width="0.44285" stroke-linecap="butt" stroke-linejoin="miter" fill="none"/>
      </g>
      <!--emf-blob end-->
    </g>
  </g>
</svg>

