<svg xmlns="http://www.w3.org/2000/svg" xmlns:xlink="http://www.w3.org/1999/xlink" version="1.1" viewBox="0 0 75 126" >
  <title><![CDATA[Breakout box]]></title>
  <g transform=" scale(3.000000) ">
    <!--converted by libvisio2svg-->
    <g>
      <!--emf-blob start-->
      <g>
        <path d="M 24.2126,37.2048 L 19.7834,41.6339 L 19.7834,4.42920000000004 L 24.2126,0 L 24.2126,37.2048 Z " fill="#02709F" stroke="#FFFFFF" stroke-width="0.88585" stroke-linecap="butt" stroke-linejoin="miter"/>
        <path d="M 0,41.6339 L 19.7834,41.6339 L 19.7834,4.42920000000004 L 0,4.42920000000004 L 0,41.6339 Z " fill="#02709F" stroke="#FFFFFF" stroke-width="0.88585" stroke-linecap="butt" stroke-linejoin="miter"/>
        <path d="M 4.42910000000001,0 L 24.2126,0 L 19.7834,4.42920000000004 L 0,4.42920000000004 L 4.42910000000001,0 Z " fill="#02709F" stroke="#FFFFFF" stroke-width="0.88585" stroke-linecap="butt" stroke-linejoin="miter"/>
        <path d="M 13.8779,13.5827 L 13.8779,8.56300000000005 L 5.31490000000002,8.56300000000005 L 5.31490000000002,13.5827 L 13.8779,13.5827 Z " fill="#FFFFFF" stroke-width="1px" stroke="#FFFFFF"/>
        <path d="M 3.83859999999999,19.193 C 4.42910000000001,19.193 5.0197,18.6024 5.0197,17.7166 C 5.0197,17.126 4.42910000000001,16.5355 3.83859999999999,16.5355 C 2.95269999999999,16.5355 2.36220000000003,17.126 2.36220000000003,17.7166 C 2.36220000000003,18.6024 2.95269999999999,19.193 3.83859999999999,19.193 Z Z " fill="#FFFFFF" stroke="none"/>
        <path d="M 3.83859999999999,23.6221 C 4.42910000000001,23.6221 5.0197,23.0315000000001 5.0197,22.441 C 5.0197,21.5552 4.42910000000001,20.9646 3.83859999999999,20.9646 C 2.95269999999999,20.9646 2.36220000000003,21.5552 2.36220000000003,22.441 C 2.36220000000003,23.0315000000001 2.95269999999999,23.6221 3.83859999999999,23.6221 Z Z " fill="#FFFFFF" stroke="none"/>
        <path d="M 3.83859999999999,28.0512000000001 C 4.42910000000001,28.0512000000001 5.0197,27.4607 5.0197,26.8701 C 5.0197,26.2796 4.42910000000001,25.689 3.83859999999999,25.689 C 2.95269999999999,25.689 2.36220000000003,26.2796 2.36220000000003,26.8701 C 2.36220000000003,27.4607 2.95269999999999,28.0512000000001 3.83859999999999,28.0512000000001 Z Z " fill="#FFFFFF" stroke="none"/>
        <path d="M 3.83859999999999,32.7756 C 4.42910000000001,32.7756 5.0197,32.1851 5.0197,31.2993 C 5.0197,30.7087 4.42910000000001,30.1182 3.83859999999999,30.1182 C 2.95269999999999,30.1182 2.36220000000003,30.7087 2.36220000000003,31.2993 C 2.36220000000003,32.1851 2.95269999999999,32.7756 3.83859999999999,32.7756 Z Z " fill="#FFFFFF" stroke="none"/>
        <path d="M 3.83859999999999,37.2048 C 4.42910000000001,37.2048 5.0197,36.6142 5.0197,36.0237 C 5.0197,35.1378 4.42910000000001,34.5473 3.83859999999999,34.5473 C 2.95269999999999,34.5473 2.36220000000003,35.1378 2.36220000000003,36.0237 C 2.36220000000003,36.6142 2.95269999999999,37.2048 3.83859999999999,37.2048 Z Z " fill="#FFFFFF" stroke="none"/>
        <path d="M 5.31490000000002,17.4213 L 13.2874,17.4213 " stroke="#FFFFFF" stroke-width="0.88585" stroke-linecap="butt" stroke-linejoin="miter" fill="none"/>
        <path d="M 5.31490000000002,21.8504 L 13.2874,21.8504 " stroke="#FFFFFF" stroke-width="0.88585" stroke-linecap="butt" stroke-linejoin="miter" fill="none"/>
        <path d="M 5.31490000000002,26.5749 L 13.2874,26.5749 " stroke="#FFFFFF" stroke-width="0.88585" stroke-linecap="butt" stroke-linejoin="miter" fill="none"/>
        <path d="M 5.31490000000002,31.004 L 13.2874,31.004 " stroke="#FFFFFF" stroke-width="0.88585" stroke-linecap="butt" stroke-linejoin="miter" fill="none"/>
        <path d="M 5.31490000000002,35.4331 L 13.2874,35.4331 " stroke="#FFFFFF" stroke-width="0.88585" stroke-linecap="butt" stroke-linejoin="miter" fill="none"/>
        <path d="M 15.3543,19.193 C 15.9449,19.193 16.5354,18.6024 16.5354,17.7166 C 16.5354,17.126 15.9449,16.5355 15.3543,16.5355 C 14.4685,16.5355 13.8779,17.126 13.8779,17.7166 C 13.8779,18.6024 14.4685,19.193 15.3543,19.193 Z Z " fill="#FFFFFF" stroke="none"/>
        <path d="M 15.3543,23.6221 C 15.9449,23.6221 16.5354,23.0315000000001 16.5354,22.441 C 16.5354,21.5552 15.9449,20.9646 15.3543,20.9646 C 14.4685,20.9646 13.8779,21.5552 13.8779,22.441 C 13.8779,23.0315000000001 14.4685,23.6221 15.3543,23.6221 Z Z " fill="#FFFFFF" stroke="none"/>
        <path d="M 15.3543,28.0512000000001 C 15.9449,28.0512000000001 16.5354,27.4607 16.5354,26.8701 C 16.5354,26.2796 15.9449,25.689 15.3543,25.689 C 14.4685,25.689 13.8779,26.2796 13.8779,26.8701 C 13.8779,27.4607 14.4685,28.0512000000001 15.3543,28.0512000000001 Z Z " fill="#FFFFFF" stroke="none"/>
        <path d="M 15.3543,32.7756 C 15.9449,32.7756 16.5354,32.1851 16.5354,31.2993 C 16.5354,30.7087 15.9449,30.1182 15.3543,30.1182 C 14.4685,30.1182 13.8779,30.7087 13.8779,31.2993 C 13.8779,32.1851 14.4685,32.7756 15.3543,32.7756 Z Z " fill="#FFFFFF" stroke="none"/>
        <path d="M 15.3543,37.2048 C 15.9449,37.2048 16.5354,36.6142 16.5354,36.0237 C 16.5354,35.1378 15.9449,34.5473 15.3543,34.5473 C 14.4685,34.5473 13.8779,35.1378 13.8779,36.0237 C 13.8779,36.6142 14.4685,37.2048 15.3543,37.2048 Z Z " fill="#FFFFFF" stroke="none"/>
      </g>
      <!--emf-blob end-->
    </g>
  </g>
</svg>

