<svg xmlns="http://www.w3.org/2000/svg" xmlns:xlink="http://www.w3.org/1999/xlink" version="1.1" viewBox="0 0 126 96" >
  <title><![CDATA[Bridge]]></title>
  <g transform=" scale(3.000000) ">
    <!--converted by libvisio2svg-->
    <g>
      <!--emf-blob start-->
      <g>
        <path d="M 36.9095,5.315 C 36.9095,5.315 36.9095,5.315 36.9095,5.315 C 36.9095,5.315 23.6221,20.0787 2.06699999999995,6.20080000000002 C 2.06699999999995,6.20080000000002 2.06699999999995,6.20080000000002 2.06699999999995,6.20080000000002 C 2.06699999999995,6.20080000000002 2.06699999999995,6.20080000000002 2.06699999999995,6.20080000000002 C 0,5.90550000000002 0,5.90550000000002 0,5.90550000000002 C 0,5.90550000000002 0,5.90550000000002 0,5.90550000000002 C 0.295299999999997,6.20080000000002 0.295299999999997,6.20080000000002 0.295299999999997,6.20080000000002 C 6.49609999999996,0 6.49609999999996,0 6.49609999999996,0 C 6.79139999999995,0 6.79139999999995,0 6.79139999999995,0 C 6.79139999999995,0 6.79139999999995,0 6.79139999999995,0 C 31.2993,17.7165 41.0434,0 41.0434,0 Z " fill="#046897" stroke="none"/>
        <path d="M 36.9095,5.315 C 36.9095,5.315 36.9095,5.315 36.9095,5.315 C 36.9095,5.315 23.6221,20.0787 2.06699999999995,6.20080000000002 C 2.06699999999995,6.20080000000002 2.06699999999995,6.20080000000002 2.06699999999995,6.20080000000002 C 2.06699999999995,6.20080000000002 2.06699999999995,6.20080000000002 2.06699999999995,6.20080000000002 C 0,5.90550000000002 0,5.90550000000002 0,5.90550000000002 C 0,5.90550000000002 0,5.90550000000002 0,5.90550000000002 C 0.295299999999997,6.20080000000002 0.295299999999997,6.20080000000002 0.295299999999997,6.20080000000002 C 6.49609999999996,0 6.49609999999996,0 6.49609999999996,0 C 6.79139999999995,0 6.79139999999995,0 6.79139999999995,0 C 6.79139999999995,0 6.79139999999995,0 6.79139999999995,0 C 31.2993,17.7165 41.0434,0 41.0434,0 Z " stroke="#FFFFFF" stroke-width="0.88585" stroke-linecap="butt" stroke-linejoin="miter" fill="none"/>
        <path d="M 0,31.5945 C 0,5.315 0,5.315 0,5.315 C 0,5.315 0,5.315 0,5.315 C 0,5.315 0,5.315 0,5.315 C 0,5.315 0,5.315 0,5.315 C 21.5552,19.1929 35.1378,5.0197 35.1378,5.0197 C 35.1378,5.0197 35.1378,5.0197 35.1378,5.0197 C 35.1378,5.0197 35.1378,5.0197 35.1378,5.0197 C 35.1378,5.0197 35.1378,5.0197 35.1378,5.0197 C 35.1378,5.0197 35.1378,5.0197 35.1378,5.0197 C 35.1378,31.5945 35.1378,31.5945 35.1378,31.5945 Z " fill="#046897" stroke="none"/>
        <path d="M 0,31.5945 C 0,5.315 0,5.315 0,5.315 C 0,5.315 0,5.315 0,5.315 C 0,5.315 0,5.315 0,5.315 C 0,5.315 0,5.315 0,5.315 C 21.5552,19.1929 35.1378,5.0197 35.1378,5.0197 C 35.1378,5.0197 35.1378,5.0197 35.1378,5.0197 C 35.1378,5.0197 35.1378,5.0197 35.1378,5.0197 C 35.1378,5.0197 35.1378,5.0197 35.1378,5.0197 C 35.1378,5.0197 35.1378,5.0197 35.1378,5.0197 C 35.1378,31.5945 35.1378,31.5945 35.1378,31.5945 Z " stroke="#FFFFFF" stroke-width="0.88585" stroke-linecap="butt" stroke-linejoin="miter" fill="none"/>
        <path d="M 34.8426,5.61020000000002 L 34.8426,5.315 L 34.8426,31.5945 L 41.3386,24.8032 L 41.3386,0 L 34.8426,5.61020000000002 Z " fill="#046897" stroke="#FFFFFF" stroke-width="0.88585" stroke-linecap="butt" stroke-linejoin="miter"/>
      </g>
      <!--emf-blob end-->
    </g>
  </g>
</svg>

