<svg xmlns="http://www.w3.org/2000/svg" xmlns:xlink="http://www.w3.org/1999/xlink" version="1.1" viewBox="0 0 132 132" >
  <title><![CDATA[Broadcast router]]></title>
  <g transform=" scale(3.000000) ">
    <!--converted by libvisio2svg-->
    <g>
      <!--emf-blob start-->
      <g>
        <path d="M 43.3917,8.56029999999998 C 43.3917,12.988 33.6507,16.8254 21.5483,16.8254 C 9.74099999999999,16.8254 0,12.988 0,8.56029999999998 C 0,35.1266 0,35.1266 0,35.1266 C 0,39.8495 9.74099999999999,43.6869 21.5483,43.6869 C 33.6507,43.6869 43.3917,39.8495 43.3917,35.1266 Z Z " fill="#046897" stroke="#FFFFFF" stroke-width="0.88555" stroke-linecap="butt" stroke-linejoin="miter"/>
        <path d="M 21.5483,16.8254 C 33.6507,16.8254 43.3917,12.988 43.3917,8.56029999999998 C 43.3917,3.8374 33.6507,0 21.5483,0 C 9.74099999999999,0 0,3.8374 0,8.56029999999998 C 0,12.988 9.74099999999999,16.8254 21.5483,16.8254 Z Z " fill="#046897" stroke="#FFFFFF" stroke-width="0.88555" stroke-linecap="butt" stroke-linejoin="miter"/>
        <path d="M 19.1868,21.2531 L 19.1868,37.4881 L 38.0784,29.8134 L 19.1868,21.2531 Z " fill="#FFFFFF" stroke-width="1px" stroke="#FFFFFF"/>
        <path d="M 17.1205,21.2531 L 17.1205,24.5001 L 11.2169,24.5001 L 11.2169,21.2531 L 17.1205,21.2531 Z " fill="#FFFFFF" stroke="#000000" stroke-width="0.88555" stroke-linecap="butt" stroke-linejoin="miter"/>
        <path d="M 17.1205,25.6808 L 17.1205,28.9278 L 11.2169,28.9278 L 11.2169,25.6808 L 17.1205,25.6808 Z " fill="#FFFFFF" stroke="#000000" stroke-width="0.88555" stroke-linecap="butt" stroke-linejoin="miter"/>
        <path d="M 17.1205,30.1085 L 17.1205,33.3555 L 11.2169,33.3555 L 11.2169,30.1085 L 17.1205,30.1085 Z " fill="#FFFFFF" stroke="#000000" stroke-width="0.88555" stroke-linecap="butt" stroke-linejoin="miter"/>
        <path d="M 17.1205,34.5363 L 17.1205,37.7833 L 11.2169,37.7833 L 11.2169,34.5363 L 17.1205,34.5363 Z " fill="#FFFFFF" stroke="#000000" stroke-width="0.88555" stroke-linecap="butt" stroke-linejoin="miter"/>
        <path d="M 16.8254,4.72289999999998 L 18.8916,7.6748 L 12.1025,9.15069999999997 L 13.5784,7.9699 L 2.95179999999999,6.19889999999998 L 5.60849999999999,4.13259999999997 L 15.6446,5.90369999999996 L 16.8254,4.72289999999998 Z " fill="#FFFFFF" stroke-width="1px" stroke="#FFFFFF"/>
        <path d="M 26.5663,11.5121 L 25.3856,8.56029999999998 L 31.2892,7.37959999999998 L 30.4037,8.26509999999996 L 40.4399,10.0362 L 38.0784,12.1025 L 28.0422,10.0362 L 26.5663,11.5121 Z " fill="#FFFFFF" stroke-width="1px" stroke="#FFFFFF"/>
        <path d="M 23.0242,3.24699999999996 L 30.1085,1.476 L 30.1085,4.42779999999999 L 28.3374,4.13259999999997 L 25.0904,6.78919999999999 L 21.8434,6.49399999999997 L 25.3856,3.8374 L 23.0242,3.24699999999996 Z " fill="#FFFFFF" stroke-width="1px" stroke="#FFFFFF"/>
        <path d="M 20.3675,13.8736 L 13.5784,15.0543 L 13.5784,12.1025 L 15.3495,12.3977 L 18.8916,9.44579999999996 L 22.1386,10.0362 L 18.3013,13.2832 L 20.3675,13.8736 Z " fill="#FFFFFF" stroke-width="1px" stroke="#FFFFFF"/>
      </g>
      <!--emf-blob end-->
    </g>
  </g>
</svg>

