<svg xmlns="http://www.w3.org/2000/svg" xmlns:xlink="http://www.w3.org/1999/xlink" version="1.1" viewBox="0 0 84 126" >
  <title><![CDATA[BTS 10200]]></title>
  <g transform=" scale(3.000000) ">
    <!--converted by libvisio2svg-->
    <g>
      <!--emf-blob start-->
      <g>
        <path d="M 0,41.9291 L 0,4.42910000000001 L 21.8505,4.42910000000001 L 21.8505,41.9291 L 0,41.9291 Z " fill="#046897" stroke="#FFFFFF" stroke-width="0.88585" stroke-linecap="butt" stroke-linejoin="miter"/>
        <path d="M 6.49609999999996,0 L 0,4.42910000000001 L 21.8505,4.42910000000001 L 27.4607,0 L 6.49609999999996,0 Z " fill="#046897" stroke="#FFFFFF" stroke-width="0.88585" stroke-linecap="butt" stroke-linejoin="miter"/>
        <path d="M 27.4607,35.1378 L 27.4607,0 L 21.8505,4.7244 L 21.8505,41.9291 L 27.4607,35.1378 Z " fill="#046897" stroke="#FFFFFF" stroke-width="0.88585" stroke-linecap="butt" stroke-linejoin="miter"/>
        <path d="M 11.2205,5.0197 L 0.885899999999992,23.0315 L 21.8505,23.0315 L 11.2205,5.0197 Z " fill="#FFFFFF" stroke-width="1px" stroke="#FFFFFF"/>
        <path d="M 11.2205,41.0433 L 0.885899999999992,23.0315 L 21.8505,23.0315 L 11.2205,41.0433 Z " fill="#FFFFFF" stroke-width="1px" stroke="#FFFFFF"/>
        <path d="M 10.0394,26.8701 C 12.4016,24.5079 12.4016,24.5079 12.4016,24.5079 C 10.0394,24.5079 8.85829999999999,24.8032 7.08669999999995,24.8032 C 6.49609999999996,27.4606 5.90559999999999,29.2323 5.0197,31.0039 C 7.67719999999997,28.937 7.67719999999997,28.937 7.67719999999997,28.937 C 9.44889999999998,30.4134 11.5158,31.0039 13.2875,30.1181 C 13.2875,30.1181 13.5827,30.1181 13.5827,29.8228 C 16.5355,27.1654 16.5355,27.1654 16.5355,27.1654 C 14.7637999999999,28.937 11.8111,28.937 10.0394,26.8701 Z Z " fill="#046897" stroke="none"/>
        <path d="M 7.67719999999997,23.0315 C 7.08669999999995,20.6693 7.38189999999997,18.0118 8.85829999999999,15.9449 C 9.15359999999998,15.6496 9.44889999999998,15.3543 9.7441,15.0591 C 6.79139999999995,17.7165 6.79139999999995,17.7165 6.79139999999995,17.7165 C 6.49609999999996,18.0118 6.20079999999996,18.3071 5.90559999999999,18.6024 C 4.42919999999998,20.6693 4.13389999999998,23.3268 4.72449999999998,25.689 Z Z " fill="#046897" stroke="none"/>
        <path d="M 13.5827,15.0591 C 12.4016,14.4685 11.2205,14.4685 10.0394,14.7638 C 10.0394,14.7638 9.7441,15.0591 9.7441,15.0591 C 6.79139999999995,17.7165 6.79139999999995,17.7165 6.79139999999995,17.7165 C 7.97249999999997,16.5354 9.7441,16.2402 11.5158,17.126 C 9.7441,18.3071 9.7441,18.3071 9.7441,18.3071 C 14.7637999999999,18.3071 14.7637999999999,18.3071 14.7637999999999,18.3071 C 15.6497,13.2874 15.6497,13.2874 15.6497,13.2874 Z Z " fill="#046897" stroke="none"/>
        <path d="M 17.4213,16.8307 C 19.4881999999999,20.6693 18.6024,24.5079 17.4213,26.2795 C 17.126,26.5748 16.8308,26.8701 16.5355,27.1654 C 13.5827,29.8228 13.5827,29.8228 13.5827,29.8228 C 13.878,29.8228 14.1733,29.5276 14.4686,28.937 C 16.8308,25.3937 15.3544,21.8504 14.4686,19.4882 Z Z " fill="#046897" stroke="none"/>
      </g>
      <!--emf-blob end-->
    </g>
  </g>
</svg>

