<svg xmlns="http://www.w3.org/2000/svg" xmlns:xlink="http://www.w3.org/1999/xlink" version="1.1" viewBox="0 0 123 60" >
  <title><![CDATA[Cable modem]]></title>
  <g transform=" scale(3.000000) ">
    <!--converted by libvisio2svg-->
    <g>
      <!--emf-blob start-->
      <g>
        <path d="M 0,10.0342 L 12.1001,0 L 40.7272,0 L 30.3978,10.0342 L 0,10.0342 Z " fill="#046897" stroke="#FFFFFF" stroke-width="0.88535" stroke-linecap="butt" stroke-linejoin="miter"/>
        <path d="M 30.3978,19.7732999999999 L 40.7272,8.85369999999995 L 40.7272,0 L 30.3978,10.0342 L 30.3978,19.7732999999999 Z " fill="#046897" stroke="#FFFFFF" stroke-width="0.88535" stroke-linecap="butt" stroke-linejoin="miter"/>
        <path d="M 30.3978,19.7732999999999 L 30.3978,10.0342 L 0,10.0342 L 0,19.7732999999999 L 30.3978,19.7732999999999 Z " fill="#046897" stroke="#FFFFFF" stroke-width="0.88535" stroke-linecap="butt" stroke-linejoin="miter"/>
        <path d="M 16.527,15.6416 L 4.72199999999998,15.6416 L 4.72199999999998,14.166 L 16.527,14.166 L 16.527,11.8049999999999 L 21.8392,14.7562 L 16.527,17.7075 L 16.527,15.6416 Z " fill="#FFFFFF" stroke="#FFFFFF" stroke-width="0.88535" stroke-linecap="butt" stroke-linejoin="miter"/>
        <path d="M 5.90249999999997,14.166 L 5.90249999999997,11.8049999999999 L 0.590199999999982,14.7562 L 5.90249999999997,17.7075 L 5.90249999999997,15.6416 Z " fill="#FFFFFF" stroke-width="1px" stroke="#FFFFFF"/>
        <path d="M 5.90249999999997,14.166 L 5.90249999999997,11.8049999999999 L 0.590199999999982,14.7562 L 5.90249999999997,17.7075 L 5.90249999999997,15.6416 " stroke="#FFFFFF" stroke-width="0.88535" stroke-linecap="butt" stroke-linejoin="miter" fill="none"/>
        <path d="M 29.2173,14.166 L 29.2173,11.8049999999999 L 23.9051,14.7562 L 29.2173,17.7075 L 29.2173,15.6416 L 29.2173,14.166 Z " fill="#FFFFFF" stroke="#FFFFFF" stroke-width="0.88535" stroke-linecap="butt" stroke-linejoin="miter"/>
      </g>
      <!--emf-blob end-->
    </g>
  </g>
</svg>

