<svg xmlns="http://www.w3.org/2000/svg" xmlns:xlink="http://www.w3.org/1999/xlink" version="1.1" viewBox="0 0 117 63" >
  <title><![CDATA[Car]]></title>
  <g transform=" scale(3.000000) ">
    <!--converted by libvisio2svg-->
    <g>
      <!--emf-blob start-->
      <g>
        <path d="M 38.6688,18.5964 L 38.6688,0 L 36.8977,1.47590000000002 L 36.8977,20.3675 L 38.6688,18.5964 Z " fill="#0C719F" stroke="#FFFFFF" stroke-width="0.88555" stroke-linecap="butt" stroke-linejoin="miter"/>
        <path d="M 36.8977,20.3675 L 36.8977,1.47590000000002 L 0,1.47590000000002 L 0,20.3675 L 36.8977,20.3675 Z " fill="#0C719F" stroke="#FFFFFF" stroke-width="0.88555" stroke-linecap="butt" stroke-linejoin="miter"/>
        <path d="M 38.6688,0 L 2.06630000000001,0 L 0,1.47590000000002 L 36.8977,1.47590000000002 L 38.6688,0 Z " fill="#0C719F" stroke="#FFFFFF" stroke-width="0.88555" stroke-linecap="butt" stroke-linejoin="miter"/>
        <path d="M 38.6688,0 L 36.8977,1.47590000000002 Z " fill="#000000" stroke-width="1px" stroke="#000000"/>
        <path d="M 38.6688,0 L 36.8977,1.47590000000002 " stroke="#FFFFFF" stroke-width="0.88555" stroke-linecap="butt" stroke-linejoin="miter" fill="none"/>
        <path d="M 21.5482,5.01800000000003 C 23.6145,3.24700000000001 23.6145,3.24700000000001 23.6145,3.24700000000001 C 30.4037,11.2168 25.0904,17.4157 25.0904,17.4157 C 34.241,17.4157 34.241,17.4157 34.241,17.4157 Z " stroke="#FFFFFF" stroke-width="0.88555" stroke-linecap="butt" stroke-linejoin="miter" fill="none"/>
        <path d="M 7.08440000000002,4.72290000000004 L 5.0181,2.95180000000005 L 5.60849999999999,17.4157 L 1.1807,17.4157 " stroke="#FFFFFF" stroke-width="0.88555" stroke-linecap="butt" stroke-linejoin="miter" fill="none"/>
        <path d="M 7.08440000000002,6.78910000000002 C 7.08440000000002,5.01800000000003 8.85540000000003,4.72290000000004 8.85540000000003,4.72290000000004 C 8.85540000000003,4.72290000000004 18.5964,4.72290000000004 20.6627,4.72290000000004 C 23.0242,4.72290000000004 22.729,7.08430000000004 22.729,7.08430000000004 C 22.729,7.08430000000004 22.729,15.0542 22.729,16.2349 C 22.729,17.7108 20.9579,18.3012 20.9579,18.3012 C 20.9579,18.3012 10.9217,18.3012 9.1506,18.3012 C 7.67470000000003,18.3012 7.08440000000002,16.5301 7.08440000000002,16.5301 Z Z " fill="#0C719F" stroke="#FFFFFF" stroke-width="0.88555" stroke-linecap="butt" stroke-linejoin="miter"/>
        <path d="M 34.241,5.60840000000002 L 25.0904,5.60840000000002 Z " fill="#000000" stroke-width="1px" stroke="#000000"/>
        <path d="M 34.241,5.60840000000002 L 25.0904,5.60840000000002 " stroke="#FFFFFF" stroke-width="0.88555" stroke-linecap="butt" stroke-linejoin="miter" fill="none"/>
        <path d="M 5.60849999999999,5.60840000000002 L 1.1807,5.60840000000002 Z " fill="#000000" stroke-width="1px" stroke="#000000"/>
        <path d="M 5.60849999999999,5.60840000000002 L 1.1807,5.60840000000002 " stroke="#FFFFFF" stroke-width="0.88555" stroke-linecap="butt" stroke-linejoin="miter" fill="none"/>
      </g>
      <!--emf-blob end-->
    </g>
  </g>
</svg>

