<svg xmlns="http://www.w3.org/2000/svg" xmlns:xlink="http://www.w3.org/1999/xlink" version="1.1" viewBox="0 0 171 84" >
  <title><![CDATA[CDDI FDDI]]></title>
  <g transform=" scale(3.000000) ">
    <!--converted by libvisio2svg-->
    <g>
      <!--emf-blob start-->
      <g>
        <path d="M 0,13.5827 L 17.126,0 L 56.3977,0 L 42.2245,13.5827 L 0,13.5827 Z " fill="#046897" stroke="#FFFFFF" stroke-width="0.88585" stroke-linecap="butt" stroke-linejoin="miter"/>
        <path d="M 42.2245,27.4607 L 56.3977,12.1063 L 56.3977,0 L 42.2245,13.5827 L 42.2245,27.4607 Z " fill="#046897" stroke="#FFFFFF" stroke-width="0.88585" stroke-linecap="butt" stroke-linejoin="miter"/>
        <path d="M 42.2245,27.4607 L 42.2245,13.5827 L 0,13.5827 L 0,27.4607 L 42.2245,27.4607 Z " fill="#046897" stroke="#FFFFFF" stroke-width="0.88585" stroke-linecap="butt" stroke-linejoin="miter"/>
        <path d="M 36.0237,2.06690000000003 C 26.2796,1.77170000000001 15.0591,3.54330000000004 10.9252,6.49610000000001 C 7.08660000000003,9.44880000000001 11.8111,12.1063 21.5552,12.4016 C 31.2993,12.6969 42.8150000000001,10.9252 46.6536,7.97250000000003 C 50.7875,5.0197 46.0631,2.36220000000003 36.0237,2.06690000000003 Z Z " fill="#046897" stroke="#FFFFFF" stroke-width="0.88585" stroke-linecap="butt" stroke-linejoin="miter"/>
        <path d="M 34.252,4.13390000000004 C 26.2796,3.83860000000004 17.126,5.0197 14.1733,6.79140000000001 C 10.9252,8.56300000000005 15.0591,10.0394 23.3268,10.3347 C 31.2993,10.6299 40.4528,9.44880000000001 43.4056,7.67720000000003 C 46.6536,5.90550000000002 42.5198,4.42920000000004 34.252,4.13390000000004 Z Z " fill="#046897" stroke="#FFFFFF" stroke-width="0.88585" stroke-linecap="butt" stroke-linejoin="miter"/>
      </g>
      <!--emf-blob end-->
    </g>
  </g>
</svg>

