<svg xmlns="http://www.w3.org/2000/svg" xmlns:xlink="http://www.w3.org/1999/xlink" version="1.1" viewBox="0 0 156 102" >
  <title><![CDATA[CDM]]></title>
  <g transform=" scale(3.000000) ">
    <!--converted by libvisio2svg-->
    <g>
      <!--emf-blob start-->
      <g>
        <path d="M 0.295200000000023,11.811 L 0.295200000000023,33.0709 L 39.2716,33.0709 L 39.2716,11.811 Z " fill="#046897" stroke-width="1px" stroke="#046897"/>
        <path d="M 0.295200000000023,11.811 L 0.295200000000023,33.0709 L 39.2716,33.0709 L 39.2716,11.811 " stroke="#FFFFFF" stroke-width="0.88585" stroke-linecap="butt" stroke-linejoin="miter" fill="none"/>
        <path d="M 24.8031,20.9646 C 24.8031,21.8504 22.7362,22.441 20.374,22.441 C 18.0118,22.441 15.9448,21.8504 15.9448,20.9646 C 15.9448,26.5748 15.9448,26.5748 15.9448,26.5748 C 15.9448,27.4606 18.0118,28.0512 20.374,28.0512 C 22.7362,28.0512 24.8031,27.4606 24.8031,26.5748 Z Z " fill="#FFFFFF" stroke="none"/>
        <path d="M 20.374,22.441 C 22.7362,22.441 24.8031,21.8504 24.8031,20.9646 C 24.8031,20.374 22.7362,19.7835 20.374,19.7835 C 18.0118,19.7835 15.9448,20.374 15.9448,20.9646 C 15.9448,21.8504 18.0118,22.441 20.374,22.441 Z Z " fill="#046897" stroke="#FFFFFF" stroke-width="1.32875" stroke-linecap="butt" stroke-linejoin="miter"/>
        <path d="M 20.374,28.6418 C 22.7362,28.6418 24.8031,28.0512 24.8031,27.1654 C 24.8031,26.5748 22.7362,25.9843 20.374,25.9843 C 18.0118,25.9843 15.9448,26.5748 15.9448,27.1654 C 15.9448,28.0512 18.0118,28.6418 20.374,28.6418 Z Z " fill="#FFFFFF" stroke="#FFFFFF" stroke-width="1.32875" stroke-linecap="butt" stroke-linejoin="miter"/>
        <path d="M 0,11.811 L 14.4685,0 L 51.3779,0 L 39.2716,11.811 L 0,11.811 Z " fill="#046897" stroke="#FFFFFF" stroke-width="0.88585" stroke-linecap="butt" stroke-linejoin="miter"/>
        <path d="M 39.2716,12.1063 L 39.2716,33.3662 L 51.3779,20.6693 L 51.3779,0.295299999999997 L 39.2716,12.1063 Z " fill="#046897" stroke="#FFFFFF" stroke-width="0.88585" stroke-linecap="butt" stroke-linejoin="miter"/>
        <path d="M 34.2519,23.3268 L 27.1653,23.3268 L 27.1653,22.1457 L 34.2519,22.1457 L 34.2519,20.374 L 38.3858,22.7362 L 34.2519,25.0984 L 34.2519,23.3268 Z " fill="#FFFFFF" stroke-width="1px" stroke="#FFFFFF"/>
        <path d="M 33.0708,17.4213 L 26.87,21.5551 L 26.2795,20.374 L 32.4803,16.5355 L 31.2992,15.0591 L 36.0236,14.7638 L 33.9567,19.1929 L 33.0708,17.4213 Z " fill="#FFFFFF" stroke-width="1px" stroke="#FFFFFF"/>
        <path d="M 33.0708,27.7559 L 26.87,23.9173 L 26.2795,24.8032 L 32.4803,28.937 L 31.2992,30.4134 L 36.0236,30.7087 L 33.9567,26.2795 L 33.0708,27.7559 Z " fill="#FFFFFF" stroke-width="1px" stroke="#FFFFFF"/>
        <path d="M 5.61020000000002,23.3268 L 12.6968,23.3268 L 12.6968,22.1457 L 5.61020000000002,22.1457 L 5.61020000000002,20.374 L 1.47630000000004,22.7362 L 5.61020000000002,25.0984 L 5.61020000000002,23.3268 Z " fill="#FFFFFF" stroke-width="1px" stroke="#FFFFFF"/>
        <path d="M 20.6693,14.1732 L 20.6693,11.811 L 19.4882,11.811 L 19.4882,14.1732 L 17.7165,14.1732 L 20.0787,18.6024 L 22.4409,14.1732 L 20.6693,14.1732 Z " fill="#FFFFFF" stroke-width="1px" stroke="#FFFFFF"/>
        <path d="M 6.79130000000004,17.4213 L 12.6968,21.5551 L 13.5826,20.374 L 7.38190000000003,16.5355 L 8.26769999999999,15.0591 L 3.54329999999999,14.7638 L 5.90550000000002,19.1929 L 6.79130000000004,17.4213 Z " fill="#FFFFFF" stroke-width="1px" stroke="#FFFFFF"/>
        <path d="M 6.79130000000004,27.7559 L 12.6968,23.9173 L 13.5826,24.8032 L 7.38190000000003,28.937 L 8.26769999999999,30.4134 L 3.54329999999999,30.7087 L 5.90550000000002,26.2795 L 6.79130000000004,27.7559 Z " fill="#FFFFFF" stroke-width="1px" stroke="#FFFFFF"/>
      </g>
      <!--emf-blob end-->
    </g>
  </g>
</svg>

