<svg xmlns="http://www.w3.org/2000/svg" xmlns:xlink="http://www.w3.org/1999/xlink" version="1.1" viewBox="0 0 57 99" >
  <title><![CDATA[Cell Phone]]></title>
  <g transform=" scale(3.000000) ">
    <!--converted by libvisio2svg-->
    <g>
      <!--emf-blob start-->
      <g>
        <path d="M 16.8307,13.5826 C 17.126,12.6968 18.3071,7.6771 18.3071,7.08659999999998 C 18.6024,6.20069999999998 18.3071,5.31489999999997 17.7165,5.31489999999997 C 18.0118,5.01959999999997 18.0118,5.01959999999997 18.0118,5.01959999999997 C 17.7165,4.7244 17.7165,4.7244 17.7165,4.7244 C 17.7165,4.7244 17.7165,4.7244 17.7165,4.7244 C 17.7165,4.7244 18.0118,3.54329999999999 18.0118,2.95269999999999 C 18.3071,1.47629999999998 18.3071,0.590499999999963 18.3071,0.590499999999963 C 18.3071,0.590499999999963 18.3071,0.295199999999966 18.0118,0.295199999999966 C 17.126,0 17.126,0 17.126,0 C 17.126,0 16.8307,0 16.8307,0.295199999999966 C 16.8307,0.295199999999966 16.5355,0.885799999999961 15.9449,2.36219999999997 C 15.6496,2.95269999999999 15.6496,4.13380000000001 15.6496,4.13380000000001 C 15.6496,4.13380000000001 15.6496,4.13380000000001 15.6496,4.13380000000001 C 15.0591,3.83849999999995 14.4685,3.83849999999995 13.878,3.54329999999999 C 12.6969,3.24799999999999 11.2205,2.95269999999999 10.0394,2.6574 C 10.0394,2.6574 9.7441,2.6574 9.7441,2.95269999999999 C 9.7441,2.95269999999999 9.7441,2.95269999999999 9.7441,2.95269999999999 C 9.44880000000001,2.95269999999999 8.56299999999999,3.54329999999999 8.26769999999999,4.13380000000001 C 7.97250000000003,4.7244 6.49610000000001,9.74399999999997 6.20080000000002,10.6298 C 5.90550000000002,11.811 5.315,14.1732 5.0197,15.6495 C 5.0197,16.8306 4.7244,18.8976 3.83859999999999,21.8503 C 3.24810000000002,23.622 2.65750000000003,26.2794 2.06700000000001,27.4605 C 2.06700000000001,27.7558 1.18110000000001,29.2322 2.3623,29.5275 C 3.83859999999999,30.118 5.6103,30.7086 6.49610000000001,31.0038 C 7.38190000000003,31.0038 9.15359999999998,31.5944 10.3347,31.8897 C 11.811,31.8897 11.811,30.4133 11.811,30.118 C 12.1063,28.9369 12.6969,26.2794 13.2874,24.5078 C 13.878,21.555 15.0591,19.4881 15.3543,18.307 C 15.9449,17.1259 16.5355,14.7637 16.8307,13.5826 Z Z " fill="#0C719F" stroke="none"/>
        <path d="M 17.126,0.590499999999963 C 17.126,0.590499999999963 16.5355,0.590499999999963 16.2402,0.590499999999963 C 15.9449,0.295199999999966 15.6496,0.295199999999966 15.6496,0.295199999999966 Z " fill="#0C719F" stroke="none"/>
        <path d="M 15.6496,13.8779 C 15.9449,12.9921 17.126,7.97239999999999 17.126,7.08659999999998 C 17.126,6.49599999999998 16.8307,5.61019999999996 16.5355,5.31489999999997 C 16.5355,5.01959999999997 16.5355,5.01959999999997 16.5355,5.01959999999997 C 16.5355,5.01959999999997 16.2402,5.01959999999997 16.2402,5.01959999999997 C 16.2402,5.01959999999997 16.2402,5.01959999999997 16.2402,5.01959999999997 C 16.2402,5.01959999999997 16.5355,3.83849999999995 16.8307,2.95269999999999 C 17.126,1.47629999999998 17.126,0.885799999999961 17.126,0.885799999999961 C 17.126,0.590499999999963 16.8307,0.295199999999966 16.8307,0.295199999999966 C 15.9449,0 15.9449,0 15.9449,0 C 15.6496,0 15.6496,0.295199999999966 15.3543,0.295199999999966 C 15.3543,0.295199999999966 15.0591,1.18109999999996 14.7638,2.36219999999997 C 14.4685,3.24799999999999 14.1732,4.13380000000001 14.1732,4.13380000000001 C 14.1732,4.13380000000001 14.1732,4.13380000000001 14.1732,4.13380000000001 C 13.5827,3.83849999999995 13.2874,3.83849999999995 12.6969,3.54329999999999 C 11.2205,3.24799999999999 10.0394,2.95269999999999 8.56299999999999,2.95269999999999 C 8.56299999999999,2.95269999999999 8.56299999999999,2.95269999999999 8.26769999999999,3.24799999999999 C 8.26769999999999,3.24799999999999 8.26769999999999,3.24799999999999 8.26769999999999,3.24799999999999 C 7.97250000000003,3.24799999999999 7.38190000000003,3.83849999999995 7.08660000000003,4.42910000000001 C 6.79140000000001,5.01959999999997 5.0197,9.74399999999997 4.7244,10.9251 C 4.42920000000004,11.811 4.13389999999998,14.4684 3.83859999999999,15.6495 C 3.54329999999999,16.8306 3.24810000000002,19.1928 2.65750000000003,22.1456 C 2.06700000000001,23.9172 1.18110000000001,26.5747 0.885899999999992,27.4605 C 0.885899999999992,27.7558 0,29.2322 1.18110000000001,29.8227 C 2.3623,30.118 4.13389999999998,30.7086 5.0197,31.0038 C 5.90550000000002,31.2991 7.67720000000003,31.5944 9.15359999999998,31.8897 C 10.3347,32.1849 10.3347,30.4133 10.3347,30.118 C 10.6299,28.9369 11.2205,26.2794 11.811,24.8031 C 12.6969,21.8503 13.5827,19.7834 14.1732,18.6023 C 14.4685,17.4212 15.3543,14.7637 15.6496,13.8779 Z Z " fill="#0C719F" stroke="none"/>
        <path d="M 6.20080000000002,20.9645 C 5.90550000000002,21.2598 5.6103,21.555 5.0197,21.555 C 4.42920000000004,21.2598 4.13389999999998,20.9645 4.42920000000004,20.3739 C 4.42920000000004,19.7834 5.0197,19.4881 5.6103,19.7834 C 5.90550000000002,19.7834 6.20080000000002,20.3739 6.20080000000002,20.9645 Z Z " fill="#0C719F" stroke="none"/>
        <path d="M 8.56299999999999,21.8503 C 8.56299999999999,22.4409 7.97250000000003,22.7361 7.38190000000003,22.4409 C 6.79140000000001,22.4409 6.49610000000001,21.8503 6.79140000000001,21.2598 C 6.79140000000001,20.9645 7.38190000000003,20.6692 7.97250000000003,20.6692 C 8.56299999999999,20.9645 8.85829999999999,21.2598 8.56299999999999,21.8503 Z Z " fill="#0C719F" stroke="none"/>
        <path d="M 11.2205,22.1456 C 11.2205,22.7361 10.6299,23.0314 10.0394,23.0314 C 9.44880000000001,22.7361 9.15359999999998,22.1456 9.44880000000001,21.8503 C 9.44880000000001,21.2598 10.0394,20.9645 10.6299,20.9645 C 10.9252,21.2598 11.2205,21.8503 11.2205,22.1456 Z Z " fill="#0C719F" stroke="none"/>
        <path d="M 5.6103,23.0314 C 5.315,23.622 5.0197,23.9172 4.42920000000004,23.622 C 3.83859999999999,23.622 3.54329999999999,23.0314 3.83859999999999,22.4409 C 3.83859999999999,21.8503 4.42920000000004,21.555 5.0197,21.8503 C 5.315,21.8503 5.6103,22.4409 5.6103,23.0314 Z Z " fill="#0C719F" stroke="none"/>
        <path d="M 7.97250000000003,23.9172 C 7.97250000000003,24.5078 7.38190000000003,24.8031 6.79140000000001,24.8031 C 6.20080000000002,24.5078 5.90550000000002,23.9172 6.20080000000002,23.622 C 6.20080000000002,23.0314 6.79140000000001,22.7361 7.38190000000003,22.7361 C 7.97250000000003,23.0314 8.26769999999999,23.622 7.97250000000003,23.9172 Z Z " fill="#0C719F" stroke="none"/>
        <path d="M 10.6299,24.5078 C 10.6299,24.8031 10.0394,25.0983 9.44880000000001,25.0983 C 8.85829999999999,24.8031 8.56299999999999,24.5078 8.85829999999999,23.9172 C 8.85829999999999,23.3267 9.44880000000001,23.0314 10.0394,23.3267 C 10.3347,23.3267 10.6299,23.9172 10.6299,24.5078 Z Z " fill="#0C719F" stroke="none"/>
        <path d="M 5.0197,25.0983 C 4.7244,25.6889 4.42920000000004,25.9842 3.83859999999999,25.6889 C 3.24810000000002,25.6889 2.95280000000002,25.0983 3.24810000000002,24.5078 C 3.24810000000002,24.2125 3.83859999999999,23.622 4.42920000000004,23.9172 C 4.7244,23.9172 5.0197,24.5078 5.0197,25.0983 Z Z " fill="#0C719F" stroke="none"/>
        <path d="M 7.38190000000003,25.9842 C 7.38190000000003,26.5747 6.79140000000001,26.87 6.20080000000002,26.87 C 5.6103,26.5747 5.315,25.9842 5.6103,25.6889 C 5.6103,25.0983 6.20080000000002,24.8031 6.79140000000001,24.8031 C 7.38190000000003,25.0983 7.67720000000003,25.6889 7.38190000000003,25.9842 Z Z " fill="#0C719F" stroke="none"/>
        <path d="M 10.0394,26.5747 C 10.0394,26.87 9.44880000000001,27.1653 8.85829999999999,27.1653 C 8.26769999999999,27.1653 7.97250000000003,26.5747 8.26769999999999,25.9842 C 8.26769999999999,25.3936 8.85829999999999,25.0983 9.44880000000001,25.3936 C 9.7441,25.3936 10.3347,25.9842 10.0394,26.5747 Z Z " fill="#0C719F" stroke="none"/>
        <path d="M 4.42920000000004,27.1653 C 4.13389999999998,27.7558 3.83859999999999,28.0511 3.24810000000002,27.7558 C 2.65750000000003,27.7558 2.3623,27.1653 2.65750000000003,26.5747 C 2.65750000000003,26.2794 3.24810000000002,25.9842 3.83859999999999,25.9842 C 4.13389999999998,26.2794 4.42920000000004,26.5747 4.42920000000004,27.1653 Z M 6.79140000000001,28.3463 C 6.79140000000001,28.6416 6.20080000000002,28.9369 5.6103,28.9369 C 5.0197,28.6416 4.7244,28.3463 5.0197,27.7558 C 5.0197,27.1653 5.6103,26.87 6.20080000000002,27.1653 C 6.79140000000001,27.1653 7.08660000000003,27.7558 6.79140000000001,28.3463 Z Z " fill="#0C719F" stroke="none"/>
        <path d="M 9.44880000000001,28.6416 C 9.44880000000001,29.2322 8.85829999999999,29.5275 8.26769999999999,29.2322 C 7.67720000000003,29.2322 7.38190000000003,28.6416 7.67720000000003,28.0511 C 7.67720000000003,27.4605 8.26769999999999,27.1653 8.85829999999999,27.4605 C 9.44880000000001,27.4605 9.7441,28.0511 9.44880000000001,28.6416 Z Z " fill="#0C719F" stroke="none"/>
        <path d="M 5.6103,29.5275 C 5.6103,29.8227 5.6103,29.8227 5.315,29.8227 C 5.315,29.8227 5.315,29.5275 5.315,29.5275 C 5.315,29.5275 5.315,29.5275 5.6103,29.5275 C 5.6103,29.5275 5.6103,29.5275 5.6103,29.5275 Z M 5.315,29.5275 C 5.0197,30.7086 5.0197,30.7086 5.0197,30.7086 M 5.315,29.8227 C 5.0197,30.7086 5.0197,30.7086 5.0197,30.7086 M 5.6103,29.5275 C 5.315,30.7086 5.315,30.7086 5.315,30.7086 M 5.6103,29.8227 C 5.315,30.7086 5.315,30.7086 5.315,30.7086 M 7.38190000000003,13.5826 C 7.38190000000003,14.4684 7.38190000000003,14.4684 7.38190000000003,14.4684 M 7.67720000000003,13.8779 C 7.38190000000003,14.4684 7.38190000000003,14.4684 7.38190000000003,14.4684 M 11.811,15.059 C 11.811,15.6495 11.811,15.6495 11.811,15.6495 M 11.811,14.7637 C 11.5158,15.6495 11.5158,15.6495 11.5158,15.6495 Z " fill="#0C719F" stroke="none"/>
        <path d="M 16.2402,5.01959999999997 C 16.2402,5.01959999999997 16.5355,3.83849999999995 16.8307,2.95269999999999 C 17.126,1.47629999999998 17.126,0.885799999999961 17.126,0.885799999999961 C 17.126,0.590499999999963 16.8307,0.295199999999966 16.8307,0.295199999999966 C 15.9449,0 15.9449,0 15.9449,0 C 15.6496,0 15.6496,0.295199999999966 15.3543,0.295199999999966 C 15.3543,0.295199999999966 15.0591,1.18109999999996 14.7638,2.36219999999997 C 14.4685,3.24799999999999 14.1732,4.13380000000001 14.1732,4.13380000000001 M 13.878,15.059 C 13.878,15.3543 13.5827,15.3543 13.2874,15.3543 C 5.90550000000002,13.2873 5.90550000000002,13.2873 5.90550000000002,13.2873 C 5.90550000000002,13.2873 5.6103,12.9921 5.6103,12.9921 C 7.08660000000003,8.26769999999999 7.08660000000003,8.26769999999999 7.08660000000003,8.26769999999999 C 7.08660000000003,7.97239999999999 7.38190000000003,7.97239999999999 7.38190000000003,7.97239999999999 C 14.7638,10.0393 14.7638,10.0393 14.7638,10.0393 C 15.0591,10.0393 15.0591,10.3346 15.0591,10.3346 Z M 16.5355,4.42910000000001 C 15.6496,4.13380000000001 15.0591,4.13380000000001 14.1732,3.83849999999995 M 8.85829999999999,2.95269999999999 C 8.85829999999999,2.95269999999999 7.08660000000003,6.49599999999998 5.90550000000002,10.0393 C 4.7244,14.4684 4.7244,15.9448 4.7244,18.0117 C 4.7244,18.307 5.315,18.8976 5.6103,19.1928 C 5.90550000000002,19.1928 6.20080000000002,19.1928 6.20080000000002,19.1928 C 6.20080000000002,19.1928 6.49610000000001,19.1928 6.79140000000001,19.4881 C 7.08660000000003,19.7834 7.38190000000003,19.7834 7.38190000000003,19.7834 C 7.67720000000003,20.0787 7.67720000000003,20.0787 7.97250000000003,20.0787 C 8.56299999999999,20.3739 8.56299999999999,20.3739 8.85829999999999,20.3739 C 8.85829999999999,20.3739 9.15359999999998,20.3739 9.44880000000001,20.0787 C 9.7441,20.0787 10.0394,20.3739 10.3347,20.3739 C 10.3347,20.3739 10.6299,20.3739 10.6299,20.3739 C 11.2205,20.6692 11.811,20.3739 12.1063,20.0787 C 13.2874,18.307 13.878,17.1259 15.0591,12.6968 C 15.9449,8.85819999999995 16.2402,5.01959999999997 16.2402,5.01959999999997 M 7.67720000000003,4.7244 C 9.15359999999998,4.7244 10.6299,5.31489999999997 12.1063,5.61019999999996 C 13.5827,5.90549999999996 15.0591,6.49599999999998 16.2402,7.08659999999998 Z " fill="#0C719F" stroke="none"/>
        <path d="M 10.9252,18.0117 C 10.6299,19.1928 9.44880000000001,19.7834 8.26769999999999,19.4881 C 7.08660000000003,19.1928 6.49610000000001,18.0117 6.79140000000001,16.8306 C 7.08660000000003,15.6495 8.26769999999999,15.059 9.44880000000001,15.3543 C 10.6299,15.6495 11.2205,16.8306 10.9252,18.0117 Z M 6.79140000000001,14.4684 C 7.08660000000003,14.4684 7.38190000000003,14.7637 7.67720000000003,14.7637 C 7.67720000000003,14.7637 7.67720000000003,15.059 7.67720000000003,15.059 C 7.38190000000003,15.059 7.38190000000003,15.059 7.08660000000003,15.3543 C 7.08660000000003,15.3543 7.08660000000003,15.3543 6.79140000000001,15.3543 C 6.49610000000001,15.059 5.90550000000002,14.7637 5.90550000000002,14.4684 C 5.6103,14.4684 5.90550000000002,14.4684 5.90550000000002,14.4684 C 6.20080000000002,14.1732 6.49610000000001,14.4684 6.79140000000001,14.4684 Z M 5.315,16.8306 C 5.6103,16.8306 5.90550000000002,17.1259 6.20080000000002,17.1259 C 6.20080000000002,17.1259 6.49610000000001,17.4212 6.20080000000002,17.4212 C 6.20080000000002,17.7165 6.20080000000002,18.307 6.49610000000001,18.6023 C 6.49610000000001,18.6023 6.49610000000001,18.8976 6.49610000000001,18.8976 C 6.20080000000002,18.8976 5.90550000000002,18.6023 5.6103,18.6023 C 5.6103,18.6023 5.315,18.307 5.315,18.307 C 5.315,18.0117 5.315,17.1259 5.315,16.8306 C 5.315,16.8306 5.315,16.8306 5.315,16.8306 Z Z " fill="#0C719F" stroke="none"/>
        <path d="M 12.1063,15.9448 C 11.811,15.6495 11.5158,15.6495 11.2205,15.6495 C 11.2205,15.6495 11.2205,15.9448 11.2205,15.9448 C 11.2205,15.9448 11.2205,16.2401 11.2205,16.5354 C 11.2205,16.5354 11.5158,16.5354 11.5158,16.5354 C 11.811,16.5354 12.6969,16.5354 12.9921,16.5354 C 12.9921,16.5354 12.9921,16.2401 12.9921,16.2401 C 12.6969,16.2401 12.4016,15.9448 12.1063,15.9448 Z M 12.1063,18.6023 C 11.811,18.6023 11.5158,18.6023 11.5158,18.6023 C 11.2205,18.6023 10.9252,18.6023 10.9252,18.8976 C 10.9252,18.8976 10.6299,19.4881 10.3347,19.4881 C 10.0394,19.7834 10.0394,19.7834 10.3347,19.7834 C 10.3347,19.7834 10.9252,20.0787 10.9252,20.0787 C 11.2205,20.0787 11.2205,20.0787 11.5158,19.7834 C 11.811,19.7834 12.1063,19.1928 12.1063,18.8976 C 12.1063,18.6023 12.1063,18.6023 12.1063,18.6023 Z Z " fill="#0C719F" stroke="none"/>
        <path d="M 11.811,6.20069999999998 L 12.4016,3.54329999999999 Z " fill="#0C719F" stroke-width="1px" stroke="#0C719F"/>
        <path d="M 11.811,6.20069999999998 L 12.4016,3.54329999999999 " stroke="none" stroke-width="0" fill="none"/>
        <path d="M 12.1063,6.20069999999998 L 12.6969,3.83849999999995 Z " fill="#0C719F" stroke-width="1px" stroke="#0C719F"/>
        <path d="M 12.1063,6.20069999999998 L 12.6969,3.83849999999995 " stroke="none" stroke-width="0" fill="none"/>
        <path d="M 16.8307,13.5826 C 17.126,12.6968 18.3071,7.6771 18.3071,7.08659999999998 C 18.6024,6.20069999999998 18.3071,5.31489999999997 17.7165,5.31489999999997 C 18.0118,5.01959999999997 18.0118,5.01959999999997 18.0118,5.01959999999997 C 17.7165,4.7244 17.7165,4.7244 17.7165,4.7244 C 17.7165,4.7244 17.7165,4.7244 17.7165,4.7244 C 17.7165,4.7244 18.0118,3.54329999999999 18.0118,2.95269999999999 C 18.3071,1.47629999999998 18.3071,0.590499999999963 18.3071,0.590499999999963 C 18.3071,0.590499999999963 18.3071,0.295199999999966 18.0118,0.295199999999966 C 17.126,0 17.126,0 17.126,0 C 17.126,0 16.8307,0 16.8307,0.295199999999966 C 16.8307,0.295199999999966 16.5355,0.885799999999961 15.9449,2.36219999999997 C 15.6496,2.95269999999999 15.6496,4.13380000000001 15.6496,4.13380000000001 C 15.6496,4.13380000000001 15.6496,4.13380000000001 15.6496,4.13380000000001 C 15.0591,3.83849999999995 14.4685,3.83849999999995 13.878,3.54329999999999 C 12.6969,3.24799999999999 11.2205,2.95269999999999 10.0394,2.6574 C 10.0394,2.6574 9.7441,2.6574 9.7441,2.95269999999999 C 9.7441,2.95269999999999 9.7441,2.95269999999999 9.7441,2.95269999999999 C 9.44880000000001,2.95269999999999 8.56299999999999,3.54329999999999 8.26769999999999,4.13380000000001 C 7.97250000000003,4.7244 6.49610000000001,9.74399999999997 6.20080000000002,10.6298 C 5.90550000000002,11.811 5.315,14.1732 5.0197,15.6495 C 5.0197,16.8306 4.7244,18.8976 3.83859999999999,21.8503 C 3.24810000000002,23.622 2.65750000000003,26.2794 2.06700000000001,27.4605 C 2.06700000000001,27.7558 1.18110000000001,29.2322 2.3623,29.5275 C 3.83859999999999,30.118 5.6103,30.7086 6.49610000000001,31.0038 C 7.38190000000003,31.0038 9.15359999999998,31.5944 10.3347,31.8897 C 11.811,31.8897 11.811,30.4133 11.811,30.118 C 12.1063,28.9369 12.6969,26.2794 13.2874,24.5078 C 13.878,21.555 15.0591,19.4881 15.3543,18.307 C 15.9449,17.1259 16.5355,14.7637 16.8307,13.5826 Z Z " fill="#0C719F" stroke="none"/>
        <path d="M 17.126,0.590499999999963 C 17.126,0.590499999999963 16.5355,0.590499999999963 16.2402,0.590499999999963 C 15.9449,0.295199999999966 15.6496,0.295199999999966 15.6496,0.295199999999966 Z " fill="#000000" stroke="none"/>
        <path d="M 17.126,0.590499999999963 C 17.126,0.590499999999963 16.5355,0.590499999999963 16.2402,0.590499999999963 C 15.9449,0.295199999999966 15.6496,0.295199999999966 15.6496,0.295199999999966 Z " stroke="#FFFFFF" stroke-width="0.4429" stroke-linecap="butt" stroke-linejoin="miter" fill="none"/>
        <path d="M 15.6496,13.8779 C 15.9449,12.9921 17.126,7.97239999999999 17.126,7.08659999999998 C 17.126,6.49599999999998 16.8307,5.61019999999996 16.5355,5.31489999999997 C 16.5355,5.01959999999997 16.5355,5.01959999999997 16.5355,5.01959999999997 C 16.5355,5.01959999999997 16.2402,5.01959999999997 16.2402,5.01959999999997 C 16.2402,5.01959999999997 16.2402,5.01959999999997 16.2402,5.01959999999997 C 16.2402,5.01959999999997 16.5355,3.83849999999995 16.8307,2.95269999999999 C 17.126,1.47629999999998 17.126,0.885799999999961 17.126,0.885799999999961 C 17.126,0.590499999999963 16.8307,0.295199999999966 16.8307,0.295199999999966 C 15.9449,0 15.9449,0 15.9449,0 C 15.6496,0 15.6496,0.295199999999966 15.3543,0.295199999999966 C 15.3543,0.295199999999966 15.0591,1.18109999999996 14.7638,2.36219999999997 C 14.4685,3.24799999999999 14.1732,4.13380000000001 14.1732,4.13380000000001 C 14.1732,4.13380000000001 14.1732,4.13380000000001 14.1732,4.13380000000001 C 13.5827,3.83849999999995 13.2874,3.83849999999995 12.6969,3.54329999999999 C 11.2205,3.24799999999999 10.0394,2.95269999999999 8.56299999999999,2.95269999999999 C 8.56299999999999,2.95269999999999 8.56299999999999,2.95269999999999 8.26769999999999,3.24799999999999 C 8.26769999999999,3.24799999999999 8.26769999999999,3.24799999999999 8.26769999999999,3.24799999999999 C 7.97250000000003,3.24799999999999 7.38190000000003,3.83849999999995 7.08660000000003,4.42910000000001 C 6.79140000000001,5.01959999999997 5.0197,9.74399999999997 4.7244,10.9251 C 4.42920000000004,11.811 4.13389999999998,14.4684 3.83859999999999,15.6495 C 3.54329999999999,16.8306 3.24810000000002,19.1928 2.65750000000003,22.1456 C 2.06700000000001,23.9172 1.18110000000001,26.5747 0.885899999999992,27.4605 C 0.885899999999992,27.7558 0,29.2322 1.18110000000001,29.8227 C 2.3623,30.118 4.13389999999998,30.7086 5.0197,31.0038 C 5.90550000000002,31.2991 7.67720000000003,31.5944 9.15359999999998,31.8897 C 10.3347,32.1849 10.3347,30.4133 10.3347,30.118 C 10.6299,28.9369 11.2205,26.2794 11.811,24.8031 C 12.6969,21.8503 13.5827,19.7834 14.1732,18.6023 C 14.4685,17.4212 15.3543,14.7637 15.6496,13.8779 Z Z " fill="#0C719F" stroke="#FFFFFF" stroke-width="0.4429" stroke-linecap="butt" stroke-linejoin="miter"/>
        <path d="M 6.20080000000002,20.9645 C 5.90550000000002,21.2598 5.6103,21.555 5.0197,21.555 C 4.42920000000004,21.2598 4.13389999999998,20.9645 4.42920000000004,20.3739 C 4.42920000000004,19.7834 5.0197,19.4881 5.6103,19.7834 C 5.90550000000002,19.7834 6.20080000000002,20.3739 6.20080000000002,20.9645 Z Z " fill="#000000" stroke="#FFFFFF" stroke-width="0.4429" stroke-linecap="butt" stroke-linejoin="miter"/>
        <path d="M 8.56299999999999,21.8503 C 8.56299999999999,22.4409 7.97250000000003,22.7361 7.38190000000003,22.4409 C 6.79140000000001,22.4409 6.49610000000001,21.8503 6.79140000000001,21.2598 C 6.79140000000001,20.9645 7.38190000000003,20.6692 7.97250000000003,20.6692 C 8.56299999999999,20.9645 8.85829999999999,21.2598 8.56299999999999,21.8503 Z Z " fill="#000000" stroke="#FFFFFF" stroke-width="0.4429" stroke-linecap="butt" stroke-linejoin="miter"/>
        <path d="M 11.2205,22.1456 C 11.2205,22.7361 10.6299,23.0314 10.0394,23.0314 C 9.44880000000001,22.7361 9.15359999999998,22.1456 9.44880000000001,21.8503 C 9.44880000000001,21.2598 10.0394,20.9645 10.6299,20.9645 C 10.9252,21.2598 11.2205,21.8503 11.2205,22.1456 Z Z " fill="#000000" stroke="#FFFFFF" stroke-width="0.4429" stroke-linecap="butt" stroke-linejoin="miter"/>
        <path d="M 5.6103,23.0314 C 5.315,23.622 5.0197,23.9172 4.42920000000004,23.622 C 3.83859999999999,23.622 3.54329999999999,23.0314 3.83859999999999,22.4409 C 3.83859999999999,21.8503 4.42920000000004,21.555 5.0197,21.8503 C 5.315,21.8503 5.6103,22.4409 5.6103,23.0314 Z Z " fill="#000000" stroke="#FFFFFF" stroke-width="0.4429" stroke-linecap="butt" stroke-linejoin="miter"/>
        <path d="M 7.97250000000003,23.9172 C 7.97250000000003,24.5078 7.38190000000003,24.8031 6.79140000000001,24.8031 C 6.20080000000002,24.5078 5.90550000000002,23.9172 6.20080000000002,23.622 C 6.20080000000002,23.0314 6.79140000000001,22.7361 7.38190000000003,22.7361 C 7.97250000000003,23.0314 8.26769999999999,23.622 7.97250000000003,23.9172 Z Z " fill="#000000" stroke="#FFFFFF" stroke-width="0.4429" stroke-linecap="butt" stroke-linejoin="miter"/>
        <path d="M 10.6299,24.5078 C 10.6299,24.8031 10.0394,25.0983 9.44880000000001,25.0983 C 8.85829999999999,24.8031 8.56299999999999,24.5078 8.85829999999999,23.9172 C 8.85829999999999,23.3267 9.44880000000001,23.0314 10.0394,23.3267 C 10.3347,23.3267 10.6299,23.9172 10.6299,24.5078 Z Z " fill="#000000" stroke="#FFFFFF" stroke-width="0.4429" stroke-linecap="butt" stroke-linejoin="miter"/>
        <path d="M 5.0197,25.0983 C 4.7244,25.6889 4.42920000000004,25.9842 3.83859999999999,25.6889 C 3.24810000000002,25.6889 2.95280000000002,25.0983 3.24810000000002,24.5078 C 3.24810000000002,24.2125 3.83859999999999,23.622 4.42920000000004,23.9172 C 4.7244,23.9172 5.0197,24.5078 5.0197,25.0983 Z Z " fill="#000000" stroke="#FFFFFF" stroke-width="0.4429" stroke-linecap="butt" stroke-linejoin="miter"/>
        <path d="M 7.38190000000003,25.9842 C 7.38190000000003,26.5747 6.79140000000001,26.87 6.20080000000002,26.87 C 5.6103,26.5747 5.315,25.9842 5.6103,25.6889 C 5.6103,25.0983 6.20080000000002,24.8031 6.79140000000001,24.8031 C 7.38190000000003,25.0983 7.67720000000003,25.6889 7.38190000000003,25.9842 Z Z " fill="#000000" stroke="#FFFFFF" stroke-width="0.4429" stroke-linecap="butt" stroke-linejoin="miter"/>
        <path d="M 10.0394,26.5747 C 10.0394,26.87 9.44880000000001,27.1653 8.85829999999999,27.1653 C 8.26769999999999,27.1653 7.97250000000003,26.5747 8.26769999999999,25.9842 C 8.26769999999999,25.3936 8.85829999999999,25.0983 9.44880000000001,25.3936 C 9.7441,25.3936 10.3347,25.9842 10.0394,26.5747 Z Z " fill="#000000" stroke="#FFFFFF" stroke-width="0.4429" stroke-linecap="butt" stroke-linejoin="miter"/>
        <path d="M 4.42920000000004,27.1653 C 4.13389999999998,27.7558 3.83859999999999,28.0511 3.24810000000002,27.7558 C 2.65750000000003,27.7558 2.3623,27.1653 2.65750000000003,26.5747 C 2.65750000000003,26.2794 3.24810000000002,25.9842 3.83859999999999,25.9842 C 4.13389999999998,26.2794 4.42920000000004,26.5747 4.42920000000004,27.1653 Z M 6.79140000000001,28.3463 C 6.79140000000001,28.6416 6.20080000000002,28.9369 5.6103,28.9369 C 5.0197,28.6416 4.7244,28.3463 5.0197,27.7558 C 5.0197,27.1653 5.6103,26.87 6.20080000000002,27.1653 C 6.79140000000001,27.1653 7.08660000000003,27.7558 6.79140000000001,28.3463 Z Z " fill="#000000" stroke="#FFFFFF" stroke-width="0.4429" stroke-linecap="butt" stroke-linejoin="miter"/>
        <path d="M 9.44880000000001,28.6416 C 9.44880000000001,29.2322 8.85829999999999,29.5275 8.26769999999999,29.2322 C 7.67720000000003,29.2322 7.38190000000003,28.6416 7.67720000000003,28.0511 C 7.67720000000003,27.4605 8.26769999999999,27.1653 8.85829999999999,27.4605 C 9.44880000000001,27.4605 9.7441,28.0511 9.44880000000001,28.6416 Z Z " fill="#000000" stroke="#FFFFFF" stroke-width="0.4429" stroke-linecap="butt" stroke-linejoin="miter"/>
        <path d="M 5.6103,29.5275 C 5.6103,29.8227 5.6103,29.8227 5.315,29.8227 C 5.315,29.8227 5.315,29.5275 5.315,29.5275 C 5.315,29.5275 5.315,29.5275 5.6103,29.5275 C 5.6103,29.5275 5.6103,29.5275 5.6103,29.5275 Z M 5.315,29.5275 C 5.0197,30.7086 5.0197,30.7086 5.0197,30.7086 M 5.315,29.8227 C 5.0197,30.7086 5.0197,30.7086 5.0197,30.7086 M 5.6103,29.5275 C 5.315,30.7086 5.315,30.7086 5.315,30.7086 M 5.6103,29.8227 C 5.315,30.7086 5.315,30.7086 5.315,30.7086 M 7.38190000000003,13.5826 C 7.38190000000003,14.4684 7.38190000000003,14.4684 7.38190000000003,14.4684 M 7.67720000000003,13.8779 C 7.38190000000003,14.4684 7.38190000000003,14.4684 7.38190000000003,14.4684 M 11.811,15.059 C 11.811,15.6495 11.811,15.6495 11.811,15.6495 M 11.811,14.7637 C 11.5158,15.6495 11.5158,15.6495 11.5158,15.6495 Z " fill="#000000" stroke="none"/>
        <path d="M 5.6103,29.5275 C 5.6103,29.8227 5.6103,29.8227 5.315,29.8227 C 5.315,29.8227 5.315,29.5275 5.315,29.5275 C 5.315,29.5275 5.315,29.5275 5.6103,29.5275 C 5.6103,29.5275 5.6103,29.5275 5.6103,29.5275 Z M 5.315,29.5275 C 5.0197,30.7086 5.0197,30.7086 5.0197,30.7086 M 5.315,29.8227 C 5.0197,30.7086 5.0197,30.7086 5.0197,30.7086 M 5.6103,29.5275 C 5.315,30.7086 5.315,30.7086 5.315,30.7086 M 5.6103,29.8227 C 5.315,30.7086 5.315,30.7086 5.315,30.7086 M 7.38190000000003,13.5826 C 7.38190000000003,14.4684 7.38190000000003,14.4684 7.38190000000003,14.4684 M 7.67720000000003,13.8779 C 7.38190000000003,14.4684 7.38190000000003,14.4684 7.38190000000003,14.4684 M 11.811,15.059 C 11.811,15.6495 11.811,15.6495 11.811,15.6495 M 11.811,14.7637 C 11.5158,15.6495 11.5158,15.6495 11.5158,15.6495 Z " stroke="#FFFFFF" stroke-width="0.4429" stroke-linecap="butt" stroke-linejoin="miter" fill="none"/>
        <path d="M 16.2402,5.01959999999997 C 16.2402,5.01959999999997 16.5355,3.83849999999995 16.8307,2.95269999999999 C 17.126,1.47629999999998 17.126,0.885799999999961 17.126,0.885799999999961 C 17.126,0.590499999999963 16.8307,0.295199999999966 16.8307,0.295199999999966 C 15.9449,0 15.9449,0 15.9449,0 C 15.6496,0 15.6496,0.295199999999966 15.3543,0.295199999999966 C 15.3543,0.295199999999966 15.0591,1.18109999999996 14.7638,2.36219999999997 C 14.4685,3.24799999999999 14.1732,4.13380000000001 14.1732,4.13380000000001 M 13.878,15.059 C 13.878,15.3543 13.5827,15.3543 13.2874,15.3543 C 5.90550000000002,13.2873 5.90550000000002,13.2873 5.90550000000002,13.2873 C 5.90550000000002,13.2873 5.6103,12.9921 5.6103,12.9921 C 7.08660000000003,8.26769999999999 7.08660000000003,8.26769999999999 7.08660000000003,8.26769999999999 C 7.08660000000003,7.97239999999999 7.38190000000003,7.97239999999999 7.38190000000003,7.97239999999999 C 14.7638,10.0393 14.7638,10.0393 14.7638,10.0393 C 15.0591,10.0393 15.0591,10.3346 15.0591,10.3346 Z M 16.5355,4.42910000000001 C 15.6496,4.13380000000001 15.0591,4.13380000000001 14.1732,3.83849999999995 M 8.85829999999999,2.95269999999999 C 8.85829999999999,2.95269999999999 7.08660000000003,6.49599999999998 5.90550000000002,10.0393 C 4.7244,14.4684 4.7244,15.9448 4.7244,18.0117 C 4.7244,18.307 5.315,18.8976 5.6103,19.1928 C 5.90550000000002,19.1928 6.20080000000002,19.1928 6.20080000000002,19.1928 C 6.20080000000002,19.1928 6.49610000000001,19.1928 6.79140000000001,19.4881 C 7.08660000000003,19.7834 7.38190000000003,19.7834 7.38190000000003,19.7834 C 7.67720000000003,20.0787 7.67720000000003,20.0787 7.97250000000003,20.0787 C 8.56299999999999,20.3739 8.56299999999999,20.3739 8.85829999999999,20.3739 C 8.85829999999999,20.3739 9.15359999999998,20.3739 9.44880000000001,20.0787 C 9.7441,20.0787 10.0394,20.3739 10.3347,20.3739 C 10.3347,20.3739 10.6299,20.3739 10.6299,20.3739 C 11.2205,20.6692 11.811,20.3739 12.1063,20.0787 C 13.2874,18.307 13.878,17.1259 15.0591,12.6968 C 15.9449,8.85819999999995 16.2402,5.01959999999997 16.2402,5.01959999999997 M 7.67720000000003,4.7244 C 9.15359999999998,4.7244 10.6299,5.31489999999997 12.1063,5.61019999999996 C 13.5827,5.90549999999996 15.0591,6.49599999999998 16.2402,7.08659999999998 Z " fill="#0C719F" stroke="none"/>
        <path d="M 10.9252,18.0117 C 10.6299,19.1928 9.44880000000001,19.7834 8.26769999999999,19.4881 C 7.08660000000003,19.1928 6.49610000000001,18.0117 6.79140000000001,16.8306 C 7.08660000000003,15.6495 8.26769999999999,15.059 9.44880000000001,15.3543 C 10.6299,15.6495 11.2205,16.8306 10.9252,18.0117 Z M 6.79140000000001,14.4684 C 7.08660000000003,14.4684 7.38190000000003,14.7637 7.67720000000003,14.7637 C 7.67720000000003,14.7637 7.67720000000003,15.059 7.67720000000003,15.059 C 7.38190000000003,15.059 7.38190000000003,15.059 7.08660000000003,15.3543 C 7.08660000000003,15.3543 7.08660000000003,15.3543 6.79140000000001,15.3543 C 6.49610000000001,15.059 5.90550000000002,14.7637 5.90550000000002,14.4684 C 5.6103,14.4684 5.90550000000002,14.4684 5.90550000000002,14.4684 C 6.20080000000002,14.1732 6.49610000000001,14.4684 6.79140000000001,14.4684 Z M 5.315,16.8306 C 5.6103,16.8306 5.90550000000002,17.1259 6.20080000000002,17.1259 C 6.20080000000002,17.1259 6.49610000000001,17.4212 6.20080000000002,17.4212 C 6.20080000000002,17.7165 6.20080000000002,18.307 6.49610000000001,18.6023 C 6.49610000000001,18.6023 6.49610000000001,18.8976 6.49610000000001,18.8976 C 6.20080000000002,18.8976 5.90550000000002,18.6023 5.6103,18.6023 C 5.6103,18.6023 5.315,18.307 5.315,18.307 C 5.315,18.0117 5.315,17.1259 5.315,16.8306 C 5.315,16.8306 5.315,16.8306 5.315,16.8306 Z Z " fill="#0C719F" stroke="#FFFFFF" stroke-width="0.4429" stroke-linecap="butt" stroke-linejoin="miter"/>
        <path d="M 12.1063,15.9448 C 11.811,15.6495 11.5158,15.6495 11.2205,15.6495 C 11.2205,15.6495 11.2205,15.9448 11.2205,15.9448 C 11.2205,15.9448 11.2205,16.2401 11.2205,16.5354 C 11.2205,16.5354 11.5158,16.5354 11.5158,16.5354 C 11.811,16.5354 12.6969,16.5354 12.9921,16.5354 C 12.9921,16.5354 12.9921,16.2401 12.9921,16.2401 C 12.6969,16.2401 12.4016,15.9448 12.1063,15.9448 Z M 12.1063,18.6023 C 11.811,18.6023 11.5158,18.6023 11.5158,18.6023 C 11.2205,18.6023 10.9252,18.6023 10.9252,18.8976 C 10.9252,18.8976 10.6299,19.4881 10.3347,19.4881 C 10.0394,19.7834 10.0394,19.7834 10.3347,19.7834 C 10.3347,19.7834 10.9252,20.0787 10.9252,20.0787 C 11.2205,20.0787 11.2205,20.0787 11.5158,19.7834 C 11.811,19.7834 12.1063,19.1928 12.1063,18.8976 C 12.1063,18.6023 12.1063,18.6023 12.1063,18.6023 Z Z " fill="#000000" stroke="#FFFFFF" stroke-width="0.4429" stroke-linecap="butt" stroke-linejoin="miter"/>
        <path d="M 11.811,6.20069999999998 L 12.4016,3.54329999999999 Z " fill="#000000" stroke-width="1px" stroke="#000000"/>
        <path d="M 11.811,6.20069999999998 L 12.4016,3.54329999999999 " stroke="#FFFFFF" stroke-width="0.4429" stroke-linecap="butt" stroke-linejoin="miter" fill="none"/>
        <path d="M 12.1063,6.20069999999998 L 12.6969,3.83849999999995 Z " fill="#000000" stroke-width="1px" stroke="#000000"/>
        <path d="M 12.1063,6.20069999999998 L 12.6969,3.83849999999995 " stroke="#FFFFFF" stroke-width="0.4429" stroke-linecap="butt" stroke-linejoin="miter" fill="none"/>
        <path d="M 16.8307,13.5826 C 17.126,12.6968 18.3071,7.6771 18.3071,7.08659999999998 C 18.6024,6.20069999999998 18.3071,5.31489999999997 17.7165,5.31489999999997 C 18.0118,5.01959999999997 18.0118,5.01959999999997 18.0118,5.01959999999997 C 17.7165,4.7244 17.7165,4.7244 17.7165,4.7244 C 17.7165,4.7244 17.7165,4.7244 17.7165,4.7244 C 17.7165,4.7244 18.0118,3.54329999999999 18.0118,2.95269999999999 C 18.3071,1.47629999999998 18.3071,0.590499999999963 18.3071,0.590499999999963 C 18.3071,0.590499999999963 18.3071,0.295199999999966 18.0118,0.295199999999966 C 17.126,0 17.126,0 17.126,0 C 17.126,0 16.8307,0 16.8307,0.295199999999966 C 16.8307,0.295199999999966 16.5355,0.885799999999961 15.9449,2.36219999999997 C 15.6496,2.95269999999999 15.6496,4.13380000000001 15.6496,4.13380000000001 C 15.6496,4.13380000000001 15.6496,4.13380000000001 15.6496,4.13380000000001 C 15.0591,3.83849999999995 14.4685,3.83849999999995 13.878,3.54329999999999 C 12.6969,3.24799999999999 11.2205,2.95269999999999 10.0394,2.6574 C 10.0394,2.6574 9.7441,2.6574 9.7441,2.95269999999999 C 9.7441,2.95269999999999 9.7441,2.95269999999999 9.7441,2.95269999999999 C 9.44880000000001,2.95269999999999 8.56299999999999,3.54329999999999 8.26769999999999,4.13380000000001 C 7.97250000000003,4.7244 6.49610000000001,9.74399999999997 6.20080000000002,10.6298 C 5.90550000000002,11.811 5.315,14.1732 5.0197,15.6495 C 5.0197,16.8306 4.7244,18.8976 3.83859999999999,21.8503 C 3.24810000000002,23.622 2.65750000000003,26.2794 2.06700000000001,27.4605 C 2.06700000000001,27.7558 1.18110000000001,29.2322 2.3623,29.5275 C 3.83859999999999,30.118 5.6103,30.7086 6.49610000000001,31.0038 C 7.38190000000003,31.0038 9.15359999999998,31.5944 10.3347,31.8897 C 11.811,31.8897 11.811,30.4133 11.811,30.118 C 12.1063,28.9369 12.6969,26.2794 13.2874,24.5078 C 13.878,21.555 15.0591,19.4881 15.3543,18.307 C 15.9449,17.1259 16.5355,14.7637 16.8307,13.5826 Z Z " stroke="#FFFFFF" stroke-width="0.4429" stroke-linecap="butt" stroke-linejoin="miter" fill="none"/>
        <path d="M 17.126,0.590499999999963 C 17.126,0.590499999999963 16.5355,0.590499999999963 16.2402,0.590499999999963 C 15.9449,0.295199999999966 15.6496,0.295199999999966 15.6496,0.295199999999966 Z " stroke="#FFFFFF" stroke-width="0.4429" stroke-linecap="butt" stroke-linejoin="miter" fill="none"/>
        <path d="M 15.6496,13.8779 C 15.9449,12.9921 17.126,7.97239999999999 17.126,7.08659999999998 C 17.126,6.49599999999998 16.8307,5.61019999999996 16.5355,5.31489999999997 C 16.5355,5.01959999999997 16.5355,5.01959999999997 16.5355,5.01959999999997 C 16.5355,5.01959999999997 16.2402,5.01959999999997 16.2402,5.01959999999997 C 16.2402,5.01959999999997 16.2402,5.01959999999997 16.2402,5.01959999999997 C 16.2402,5.01959999999997 16.5355,3.83849999999995 16.8307,2.95269999999999 C 17.126,1.47629999999998 17.126,0.885799999999961 17.126,0.885799999999961 C 17.126,0.590499999999963 16.8307,0.295199999999966 16.8307,0.295199999999966 C 15.9449,0 15.9449,0 15.9449,0 C 15.6496,0 15.6496,0.295199999999966 15.3543,0.295199999999966 C 15.3543,0.295199999999966 15.0591,1.18109999999996 14.7638,2.36219999999997 C 14.4685,3.24799999999999 14.1732,4.13380000000001 14.1732,4.13380000000001 C 14.1732,4.13380000000001 14.1732,4.13380000000001 14.1732,4.13380000000001 C 13.5827,3.83849999999995 13.2874,3.83849999999995 12.6969,3.54329999999999 C 11.2205,3.24799999999999 10.0394,2.95269999999999 8.56299999999999,2.95269999999999 C 8.56299999999999,2.95269999999999 8.56299999999999,2.95269999999999 8.26769999999999,3.24799999999999 C 8.26769999999999,3.24799999999999 8.26769999999999,3.24799999999999 8.26769999999999,3.24799999999999 C 7.97250000000003,3.24799999999999 7.38190000000003,3.83849999999995 7.08660000000003,4.42910000000001 C 6.79140000000001,5.01959999999997 5.0197,9.74399999999997 4.7244,10.9251 C 4.42920000000004,11.811 4.13389999999998,14.4684 3.83859999999999,15.6495 C 3.54329999999999,16.8306 3.24810000000002,19.1928 2.65750000000003,22.1456 C 2.06700000000001,23.9172 1.18110000000001,26.5747 0.885899999999992,27.4605 C 0.885899999999992,27.7558 0,29.2322 1.18110000000001,29.8227 C 2.3623,30.118 4.13389999999998,30.7086 5.0197,31.0038 C 5.90550000000002,31.2991 7.67720000000003,31.5944 9.15359999999998,31.8897 C 10.3347,32.1849 10.3347,30.4133 10.3347,30.118 C 10.6299,28.9369 11.2205,26.2794 11.811,24.8031 C 12.6969,21.8503 13.5827,19.7834 14.1732,18.6023 C 14.4685,17.4212 15.3543,14.7637 15.6496,13.8779 Z Z " stroke="#FFFFFF" stroke-width="0.4429" stroke-linecap="butt" stroke-linejoin="miter" fill="none"/>
        <path d="M 6.20080000000002,20.9645 C 5.90550000000002,21.2598 5.6103,21.555 5.0197,21.555 C 4.42920000000004,21.2598 4.13389999999998,20.9645 4.42920000000004,20.3739 C 4.42920000000004,19.7834 5.0197,19.4881 5.6103,19.7834 C 5.90550000000002,19.7834 6.20080000000002,20.3739 6.20080000000002,20.9645 Z Z " stroke="#FFFFFF" stroke-width="0.4429" stroke-linecap="butt" stroke-linejoin="miter" fill="none"/>
        <path d="M 8.56299999999999,21.8503 C 8.56299999999999,22.4409 7.97250000000003,22.7361 7.38190000000003,22.4409 C 6.79140000000001,22.4409 6.49610000000001,21.8503 6.79140000000001,21.2598 C 6.79140000000001,20.9645 7.38190000000003,20.6692 7.97250000000003,20.6692 C 8.56299999999999,20.9645 8.85829999999999,21.2598 8.56299999999999,21.8503 Z Z " stroke="#FFFFFF" stroke-width="0.4429" stroke-linecap="butt" stroke-linejoin="miter" fill="none"/>
        <path d="M 11.2205,22.1456 C 11.2205,22.7361 10.6299,23.0314 10.0394,23.0314 C 9.44880000000001,22.7361 9.15359999999998,22.1456 9.44880000000001,21.8503 C 9.44880000000001,21.2598 10.0394,20.9645 10.6299,20.9645 C 10.9252,21.2598 11.2205,21.8503 11.2205,22.1456 Z Z " stroke="#FFFFFF" stroke-width="0.4429" stroke-linecap="butt" stroke-linejoin="miter" fill="none"/>
        <path d="M 5.6103,23.0314 C 5.315,23.622 5.0197,23.9172 4.42920000000004,23.622 C 3.83859999999999,23.622 3.54329999999999,23.0314 3.83859999999999,22.4409 C 3.83859999999999,21.8503 4.42920000000004,21.555 5.0197,21.8503 C 5.315,21.8503 5.6103,22.4409 5.6103,23.0314 Z Z " stroke="#FFFFFF" stroke-width="0.4429" stroke-linecap="butt" stroke-linejoin="miter" fill="none"/>
        <path d="M 7.97250000000003,23.9172 C 7.97250000000003,24.5078 7.38190000000003,24.8031 6.79140000000001,24.8031 C 6.20080000000002,24.5078 5.90550000000002,23.9172 6.20080000000002,23.622 C 6.20080000000002,23.0314 6.79140000000001,22.7361 7.38190000000003,22.7361 C 7.97250000000003,23.0314 8.26769999999999,23.622 7.97250000000003,23.9172 Z Z " stroke="#FFFFFF" stroke-width="0.4429" stroke-linecap="butt" stroke-linejoin="miter" fill="none"/>
        <path d="M 10.6299,24.5078 C 10.6299,24.8031 10.0394,25.0983 9.44880000000001,25.0983 C 8.85829999999999,24.8031 8.56299999999999,24.5078 8.85829999999999,23.9172 C 8.85829999999999,23.3267 9.44880000000001,23.0314 10.0394,23.3267 C 10.3347,23.3267 10.6299,23.9172 10.6299,24.5078 Z Z " stroke="#FFFFFF" stroke-width="0.4429" stroke-linecap="butt" stroke-linejoin="miter" fill="none"/>
        <path d="M 5.0197,25.0983 C 4.7244,25.6889 4.42920000000004,25.9842 3.83859999999999,25.6889 C 3.24810000000002,25.6889 2.95280000000002,25.0983 3.24810000000002,24.5078 C 3.24810000000002,24.2125 3.83859999999999,23.622 4.42920000000004,23.9172 C 4.7244,23.9172 5.0197,24.5078 5.0197,25.0983 Z Z " stroke="#FFFFFF" stroke-width="0.4429" stroke-linecap="butt" stroke-linejoin="miter" fill="none"/>
        <path d="M 7.38190000000003,25.9842 C 7.38190000000003,26.5747 6.79140000000001,26.87 6.20080000000002,26.87 C 5.6103,26.5747 5.315,25.9842 5.6103,25.6889 C 5.6103,25.0983 6.20080000000002,24.8031 6.79140000000001,24.8031 C 7.38190000000003,25.0983 7.67720000000003,25.6889 7.38190000000003,25.9842 Z Z " stroke="#FFFFFF" stroke-width="0.4429" stroke-linecap="butt" stroke-linejoin="miter" fill="none"/>
        <path d="M 10.0394,26.5747 C 10.0394,26.87 9.44880000000001,27.1653 8.85829999999999,27.1653 C 8.26769999999999,27.1653 7.97250000000003,26.5747 8.26769999999999,25.9842 C 8.26769999999999,25.3936 8.85829999999999,25.0983 9.44880000000001,25.3936 C 9.7441,25.3936 10.3347,25.9842 10.0394,26.5747 Z Z " stroke="#FFFFFF" stroke-width="0.4429" stroke-linecap="butt" stroke-linejoin="miter" fill="none"/>
        <path d="M 4.42920000000004,27.1653 C 4.13389999999998,27.7558 3.83859999999999,28.0511 3.24810000000002,27.7558 C 2.65750000000003,27.7558 2.3623,27.1653 2.65750000000003,26.5747 C 2.65750000000003,26.2794 3.24810000000002,25.9842 3.83859999999999,25.9842 C 4.13389999999998,26.2794 4.42920000000004,26.5747 4.42920000000004,27.1653 Z M 6.79140000000001,28.3463 C 6.79140000000001,28.6416 6.20080000000002,28.9369 5.6103,28.9369 C 5.0197,28.6416 4.7244,28.3463 5.0197,27.7558 C 5.0197,27.1653 5.6103,26.87 6.20080000000002,27.1653 C 6.79140000000001,27.1653 7.08660000000003,27.7558 6.79140000000001,28.3463 Z Z " stroke="#FFFFFF" stroke-width="0.4429" stroke-linecap="butt" stroke-linejoin="miter" fill="none"/>
        <path d="M 9.44880000000001,28.6416 C 9.44880000000001,29.2322 8.85829999999999,29.5275 8.26769999999999,29.2322 C 7.67720000000003,29.2322 7.38190000000003,28.6416 7.67720000000003,28.0511 C 7.67720000000003,27.4605 8.26769999999999,27.1653 8.85829999999999,27.4605 C 9.44880000000001,27.4605 9.7441,28.0511 9.44880000000001,28.6416 Z Z " stroke="#FFFFFF" stroke-width="0.4429" stroke-linecap="butt" stroke-linejoin="miter" fill="none"/>
        <path d="M 5.6103,29.5275 C 5.6103,29.8227 5.6103,29.8227 5.315,29.8227 C 5.315,29.8227 5.315,29.5275 5.315,29.5275 C 5.315,29.5275 5.315,29.5275 5.6103,29.5275 C 5.6103,29.5275 5.6103,29.5275 5.6103,29.5275 Z M 5.315,29.5275 C 5.0197,30.7086 5.0197,30.7086 5.0197,30.7086 M 5.315,29.8227 C 5.0197,30.7086 5.0197,30.7086 5.0197,30.7086 M 5.6103,29.5275 C 5.315,30.7086 5.315,30.7086 5.315,30.7086 M 5.6103,29.8227 C 5.315,30.7086 5.315,30.7086 5.315,30.7086 M 7.38190000000003,13.5826 C 7.38190000000003,14.4684 7.38190000000003,14.4684 7.38190000000003,14.4684 M 7.67720000000003,13.8779 C 7.38190000000003,14.4684 7.38190000000003,14.4684 7.38190000000003,14.4684 M 11.811,15.059 C 11.811,15.6495 11.811,15.6495 11.811,15.6495 M 11.811,14.7637 C 11.5158,15.6495 11.5158,15.6495 11.5158,15.6495 Z " stroke="#FFFFFF" stroke-width="0.4429" stroke-linecap="butt" stroke-linejoin="miter" fill="none"/>
        <path d="M 16.2402,5.01959999999997 C 16.2402,5.01959999999997 16.5355,3.83849999999995 16.8307,2.95269999999999 C 17.126,1.47629999999998 17.126,0.885799999999961 17.126,0.885799999999961 C 17.126,0.590499999999963 16.8307,0.295199999999966 16.8307,0.295199999999966 C 15.9449,0 15.9449,0 15.9449,0 C 15.6496,0 15.6496,0.295199999999966 15.3543,0.295199999999966 C 15.3543,0.295199999999966 15.0591,1.18109999999996 14.7638,2.36219999999997 C 14.4685,3.24799999999999 14.1732,4.13380000000001 14.1732,4.13380000000001 M 13.878,15.059 C 13.878,15.3543 13.5827,15.3543 13.2874,15.3543 C 5.90550000000002,13.2873 5.90550000000002,13.2873 5.90550000000002,13.2873 C 5.90550000000002,13.2873 5.6103,12.9921 5.6103,12.9921 C 7.08660000000003,8.26769999999999 7.08660000000003,8.26769999999999 7.08660000000003,8.26769999999999 C 7.08660000000003,7.97239999999999 7.38190000000003,7.97239999999999 7.38190000000003,7.97239999999999 C 14.7638,10.0393 14.7638,10.0393 14.7638,10.0393 C 15.0591,10.0393 15.0591,10.3346 15.0591,10.3346 Z M 16.5355,4.42910000000001 C 15.6496,4.13380000000001 15.0591,4.13380000000001 14.1732,3.83849999999995 M 8.85829999999999,2.95269999999999 C 8.85829999999999,2.95269999999999 7.08660000000003,6.49599999999998 5.90550000000002,10.0393 C 4.7244,14.4684 4.7244,15.9448 4.7244,18.0117 C 4.7244,18.307 5.315,18.8976 5.6103,19.1928 C 5.90550000000002,19.1928 6.20080000000002,19.1928 6.20080000000002,19.1928 C 6.20080000000002,19.1928 6.49610000000001,19.1928 6.79140000000001,19.4881 C 7.08660000000003,19.7834 7.38190000000003,19.7834 7.38190000000003,19.7834 C 7.67720000000003,20.0787 7.67720000000003,20.0787 7.97250000000003,20.0787 C 8.56299999999999,20.3739 8.56299999999999,20.3739 8.85829999999999,20.3739 C 8.85829999999999,20.3739 9.15359999999998,20.3739 9.44880000000001,20.0787 C 9.7441,20.0787 10.0394,20.3739 10.3347,20.3739 C 10.3347,20.3739 10.6299,20.3739 10.6299,20.3739 C 11.2205,20.6692 11.811,20.3739 12.1063,20.0787 C 13.2874,18.307 13.878,17.1259 15.0591,12.6968 C 15.9449,8.85819999999995 16.2402,5.01959999999997 16.2402,5.01959999999997 M 7.67720000000003,4.7244 C 9.15359999999998,4.7244 10.6299,5.31489999999997 12.1063,5.61019999999996 C 13.5827,5.90549999999996 15.0591,6.49599999999998 16.2402,7.08659999999998 Z " stroke="#FFFFFF" stroke-width="0.4429" stroke-linecap="butt" stroke-linejoin="miter" fill="none"/>
        <path d="M 10.9252,18.0117 C 10.6299,19.1928 9.44880000000001,19.7834 8.26769999999999,19.4881 C 7.08660000000003,19.1928 6.49610000000001,18.0117 6.79140000000001,16.8306 C 7.08660000000003,15.6495 8.26769999999999,15.059 9.44880000000001,15.3543 C 10.6299,15.6495 11.2205,16.8306 10.9252,18.0117 Z M 6.79140000000001,14.4684 C 7.08660000000003,14.4684 7.38190000000003,14.7637 7.67720000000003,14.7637 C 7.67720000000003,14.7637 7.67720000000003,15.059 7.67720000000003,15.059 C 7.38190000000003,15.059 7.38190000000003,15.059 7.08660000000003,15.3543 C 7.08660000000003,15.3543 7.08660000000003,15.3543 6.79140000000001,15.3543 C 6.49610000000001,15.059 5.90550000000002,14.7637 5.90550000000002,14.4684 C 5.6103,14.4684 5.90550000000002,14.4684 5.90550000000002,14.4684 C 6.20080000000002,14.1732 6.49610000000001,14.4684 6.79140000000001,14.4684 Z M 5.315,16.8306 C 5.6103,16.8306 5.90550000000002,17.1259 6.20080000000002,17.1259 C 6.20080000000002,17.1259 6.49610000000001,17.4212 6.20080000000002,17.4212 C 6.20080000000002,17.7165 6.20080000000002,18.307 6.49610000000001,18.6023 C 6.49610000000001,18.6023 6.49610000000001,18.8976 6.49610000000001,18.8976 C 6.20080000000002,18.8976 5.90550000000002,18.6023 5.6103,18.6023 C 5.6103,18.6023 5.315,18.307 5.315,18.307 C 5.315,18.0117 5.315,17.1259 5.315,16.8306 C 5.315,16.8306 5.315,16.8306 5.315,16.8306 Z Z " stroke="#FFFFFF" stroke-width="0.4429" stroke-linecap="butt" stroke-linejoin="miter" fill="none"/>
        <path d="M 12.1063,15.9448 C 11.811,15.6495 11.5158,15.6495 11.2205,15.6495 C 11.2205,15.6495 11.2205,15.9448 11.2205,15.9448 C 11.2205,15.9448 11.2205,16.2401 11.2205,16.5354 C 11.2205,16.5354 11.5158,16.5354 11.5158,16.5354 C 11.811,16.5354 12.6969,16.5354 12.9921,16.5354 C 12.9921,16.5354 12.9921,16.2401 12.9921,16.2401 C 12.6969,16.2401 12.4016,15.9448 12.1063,15.9448 Z M 12.1063,18.6023 C 11.811,18.6023 11.5158,18.6023 11.5158,18.6023 C 11.2205,18.6023 10.9252,18.6023 10.9252,18.8976 C 10.9252,18.8976 10.6299,19.4881 10.3347,19.4881 C 10.0394,19.7834 10.0394,19.7834 10.3347,19.7834 C 10.3347,19.7834 10.9252,20.0787 10.9252,20.0787 C 11.2205,20.0787 11.2205,20.0787 11.5158,19.7834 C 11.811,19.7834 12.1063,19.1928 12.1063,18.8976 C 12.1063,18.6023 12.1063,18.6023 12.1063,18.6023 Z Z " stroke="#FFFFFF" stroke-width="0.4429" stroke-linecap="butt" stroke-linejoin="miter" fill="none"/>
        <path d="M 11.811,6.20069999999998 L 12.4016,3.54329999999999 " stroke="#FFFFFF" stroke-width="0.4429" stroke-linecap="butt" stroke-linejoin="miter" fill="none"/>
        <path d="M 12.1063,6.20069999999998 L 12.6969,3.83849999999995 " stroke="#FFFFFF" stroke-width="0.4429" stroke-linecap="butt" stroke-linejoin="miter" fill="none"/>
        <path d="M 16.8307,13.5826 C 17.126,12.6968 18.3071,7.6771 18.3071,7.08659999999998 C 18.6024,6.20069999999998 18.3071,5.31489999999997 17.7165,5.31489999999997 C 18.0118,5.01959999999997 18.0118,5.01959999999997 18.0118,5.01959999999997 C 17.7165,4.7244 17.7165,4.7244 17.7165,4.7244 C 17.7165,4.7244 17.7165,4.7244 17.7165,4.7244 C 17.7165,4.7244 18.0118,3.54329999999999 18.0118,2.95269999999999 C 18.3071,1.47629999999998 18.3071,0.590499999999963 18.3071,0.590499999999963 C 18.3071,0.590499999999963 18.3071,0.295199999999966 18.0118,0.295199999999966 C 17.126,0 17.126,0 17.126,0 C 17.126,0 16.8307,0 16.8307,0.295199999999966 C 16.8307,0.295199999999966 16.5355,0.885799999999961 15.9449,2.36219999999997 C 15.6496,2.95269999999999 15.6496,4.13380000000001 15.6496,4.13380000000001 C 15.6496,4.13380000000001 15.6496,4.13380000000001 15.6496,4.13380000000001 C 15.0591,3.83849999999995 14.4685,3.83849999999995 13.878,3.54329999999999 C 12.6969,3.24799999999999 11.2205,2.95269999999999 10.0394,2.6574 C 10.0394,2.6574 9.7441,2.6574 9.7441,2.95269999999999 C 9.7441,2.95269999999999 9.7441,2.95269999999999 9.7441,2.95269999999999 C 9.44880000000001,2.95269999999999 8.56299999999999,3.54329999999999 8.26769999999999,4.13380000000001 C 7.97250000000003,4.7244 6.49610000000001,9.74399999999997 6.20080000000002,10.6298 C 5.90550000000002,11.811 5.315,14.1732 5.0197,15.6495 C 5.0197,16.8306 4.7244,18.8976 3.83859999999999,21.8503 C 3.24810000000002,23.622 2.65750000000003,26.2794 2.06700000000001,27.4605 C 2.06700000000001,27.7558 1.18110000000001,29.2322 2.3623,29.5275 C 3.83859999999999,30.118 5.6103,30.7086 6.49610000000001,31.0038 C 7.38190000000003,31.0038 9.15359999999998,31.5944 10.3347,31.8897 C 11.811,31.8897 11.811,30.4133 11.811,30.118 C 12.1063,28.9369 12.6969,26.2794 13.2874,24.5078 C 13.878,21.555 15.0591,19.4881 15.3543,18.307 C 15.9449,17.1259 16.5355,14.7637 16.8307,13.5826 Z Z " fill="#0C719F" stroke="none"/>
        <path d="M 17.126,0.590499999999963 C 17.126,0.590499999999963 16.5355,0.590499999999963 16.2402,0.590499999999963 C 15.9449,0.295199999999966 15.6496,0.295199999999966 15.6496,0.295199999999966 Z " fill="#0C719F" stroke="none"/>
        <path d="M 15.6496,13.8779 C 15.9449,12.9921 17.126,7.97239999999999 17.126,7.08659999999998 C 17.126,6.49599999999998 16.8307,5.61019999999996 16.5355,5.31489999999997 C 16.5355,5.01959999999997 16.5355,5.01959999999997 16.5355,5.01959999999997 C 16.5355,5.01959999999997 16.2402,5.01959999999997 16.2402,5.01959999999997 C 16.2402,5.01959999999997 16.2402,5.01959999999997 16.2402,5.01959999999997 C 16.2402,5.01959999999997 16.5355,3.83849999999995 16.8307,2.95269999999999 C 17.126,1.47629999999998 17.126,0.885799999999961 17.126,0.885799999999961 C 17.126,0.590499999999963 16.8307,0.295199999999966 16.8307,0.295199999999966 C 15.9449,0 15.9449,0 15.9449,0 C 15.6496,0 15.6496,0.295199999999966 15.3543,0.295199999999966 C 15.3543,0.295199999999966 15.0591,1.18109999999996 14.7638,2.36219999999997 C 14.4685,3.24799999999999 14.1732,4.13380000000001 14.1732,4.13380000000001 C 14.1732,4.13380000000001 14.1732,4.13380000000001 14.1732,4.13380000000001 C 13.5827,3.83849999999995 13.2874,3.83849999999995 12.6969,3.54329999999999 C 11.2205,3.24799999999999 10.0394,2.95269999999999 8.56299999999999,2.95269999999999 C 8.56299999999999,2.95269999999999 8.56299999999999,2.95269999999999 8.26769999999999,3.24799999999999 C 8.26769999999999,3.24799999999999 8.26769999999999,3.24799999999999 8.26769999999999,3.24799999999999 C 7.97250000000003,3.24799999999999 7.38190000000003,3.83849999999995 7.08660000000003,4.42910000000001 C 6.79140000000001,5.01959999999997 5.0197,9.74399999999997 4.7244,10.9251 C 4.42920000000004,11.811 4.13389999999998,14.4684 3.83859999999999,15.6495 C 3.54329999999999,16.8306 3.24810000000002,19.1928 2.65750000000003,22.1456 C 2.06700000000001,23.9172 1.18110000000001,26.5747 0.885899999999992,27.4605 C 0.885899999999992,27.7558 0,29.2322 1.18110000000001,29.8227 C 2.3623,30.118 4.13389999999998,30.7086 5.0197,31.0038 C 5.90550000000002,31.2991 7.67720000000003,31.5944 9.15359999999998,31.8897 C 10.3347,32.1849 10.3347,30.4133 10.3347,30.118 C 10.6299,28.9369 11.2205,26.2794 11.811,24.8031 C 12.6969,21.8503 13.5827,19.7834 14.1732,18.6023 C 14.4685,17.4212 15.3543,14.7637 15.6496,13.8779 Z Z " fill="#0C719F" stroke="none"/>
        <path d="M 6.20080000000002,20.9645 C 5.90550000000002,21.2598 5.6103,21.555 5.0197,21.555 C 4.42920000000004,21.2598 4.13389999999998,20.9645 4.42920000000004,20.3739 C 4.42920000000004,19.7834 5.0197,19.4881 5.6103,19.7834 C 5.90550000000002,19.7834 6.20080000000002,20.3739 6.20080000000002,20.9645 Z Z " fill="#0C719F" stroke="none"/>
        <path d="M 8.56299999999999,21.8503 C 8.56299999999999,22.4409 7.97250000000003,22.7361 7.38190000000003,22.4409 C 6.79140000000001,22.4409 6.49610000000001,21.8503 6.79140000000001,21.2598 C 6.79140000000001,20.9645 7.38190000000003,20.6692 7.97250000000003,20.6692 C 8.56299999999999,20.9645 8.85829999999999,21.2598 8.56299999999999,21.8503 Z Z " fill="#0C719F" stroke="none"/>
        <path d="M 11.2205,22.1456 C 11.2205,22.7361 10.6299,23.0314 10.0394,23.0314 C 9.44880000000001,22.7361 9.15359999999998,22.1456 9.44880000000001,21.8503 C 9.44880000000001,21.2598 10.0394,20.9645 10.6299,20.9645 C 10.9252,21.2598 11.2205,21.8503 11.2205,22.1456 Z Z " fill="#0C719F" stroke="none"/>
        <path d="M 5.6103,23.0314 C 5.315,23.622 5.0197,23.9172 4.42920000000004,23.622 C 3.83859999999999,23.622 3.54329999999999,23.0314 3.83859999999999,22.4409 C 3.83859999999999,21.8503 4.42920000000004,21.555 5.0197,21.8503 C 5.315,21.8503 5.6103,22.4409 5.6103,23.0314 Z Z " fill="#0C719F" stroke="none"/>
        <path d="M 7.97250000000003,23.9172 C 7.97250000000003,24.5078 7.38190000000003,24.8031 6.79140000000001,24.8031 C 6.20080000000002,24.5078 5.90550000000002,23.9172 6.20080000000002,23.622 C 6.20080000000002,23.0314 6.79140000000001,22.7361 7.38190000000003,22.7361 C 7.97250000000003,23.0314 8.26769999999999,23.622 7.97250000000003,23.9172 Z Z " fill="#0C719F" stroke="none"/>
        <path d="M 10.6299,24.5078 C 10.6299,24.8031 10.0394,25.0983 9.44880000000001,25.0983 C 8.85829999999999,24.8031 8.56299999999999,24.5078 8.85829999999999,23.9172 C 8.85829999999999,23.3267 9.44880000000001,23.0314 10.0394,23.3267 C 10.3347,23.3267 10.6299,23.9172 10.6299,24.5078 Z Z " fill="#0C719F" stroke="none"/>
        <path d="M 5.0197,25.0983 C 4.7244,25.6889 4.42920000000004,25.9842 3.83859999999999,25.6889 C 3.24810000000002,25.6889 2.95280000000002,25.0983 3.24810000000002,24.5078 C 3.24810000000002,24.2125 3.83859999999999,23.622 4.42920000000004,23.9172 C 4.7244,23.9172 5.0197,24.5078 5.0197,25.0983 Z Z " fill="#0C719F" stroke="none"/>
        <path d="M 7.38190000000003,25.9842 C 7.38190000000003,26.5747 6.79140000000001,26.87 6.20080000000002,26.87 C 5.6103,26.5747 5.315,25.9842 5.6103,25.6889 C 5.6103,25.0983 6.20080000000002,24.8031 6.79140000000001,24.8031 C 7.38190000000003,25.0983 7.67720000000003,25.6889 7.38190000000003,25.9842 Z Z " fill="#0C719F" stroke="none"/>
        <path d="M 10.0394,26.5747 C 10.0394,26.87 9.44880000000001,27.1653 8.85829999999999,27.1653 C 8.26769999999999,27.1653 7.97250000000003,26.5747 8.26769999999999,25.9842 C 8.26769999999999,25.3936 8.85829999999999,25.0983 9.44880000000001,25.3936 C 9.7441,25.3936 10.3347,25.9842 10.0394,26.5747 Z Z " fill="#0C719F" stroke="none"/>
        <path d="M 4.42920000000004,27.1653 C 4.13389999999998,27.7558 3.83859999999999,28.0511 3.24810000000002,27.7558 C 2.65750000000003,27.7558 2.3623,27.1653 2.65750000000003,26.5747 C 2.65750000000003,26.2794 3.24810000000002,25.9842 3.83859999999999,25.9842 C 4.13389999999998,26.2794 4.42920000000004,26.5747 4.42920000000004,27.1653 Z M 6.79140000000001,28.3463 C 6.79140000000001,28.6416 6.20080000000002,28.9369 5.6103,28.9369 C 5.0197,28.6416 4.7244,28.3463 5.0197,27.7558 C 5.0197,27.1653 5.6103,26.87 6.20080000000002,27.1653 C 6.79140000000001,27.1653 7.08660000000003,27.7558 6.79140000000001,28.3463 Z Z " fill="#0C719F" stroke="none"/>
        <path d="M 9.44880000000001,28.6416 C 9.44880000000001,29.2322 8.85829999999999,29.5275 8.26769999999999,29.2322 C 7.67720000000003,29.2322 7.38190000000003,28.6416 7.67720000000003,28.0511 C 7.67720000000003,27.4605 8.26769999999999,27.1653 8.85829999999999,27.4605 C 9.44880000000001,27.4605 9.7441,28.0511 9.44880000000001,28.6416 Z Z " fill="#0C719F" stroke="none"/>
        <path d="M 5.6103,29.5275 C 5.6103,29.8227 5.6103,29.8227 5.315,29.8227 C 5.315,29.8227 5.315,29.5275 5.315,29.5275 C 5.315,29.5275 5.315,29.5275 5.6103,29.5275 C 5.6103,29.5275 5.6103,29.5275 5.6103,29.5275 Z M 5.315,29.5275 C 5.0197,30.7086 5.0197,30.7086 5.0197,30.7086 M 5.315,29.8227 C 5.0197,30.7086 5.0197,30.7086 5.0197,30.7086 M 5.6103,29.5275 C 5.315,30.7086 5.315,30.7086 5.315,30.7086 M 5.6103,29.8227 C 5.315,30.7086 5.315,30.7086 5.315,30.7086 M 7.38190000000003,13.5826 C 7.38190000000003,14.4684 7.38190000000003,14.4684 7.38190000000003,14.4684 M 7.67720000000003,13.8779 C 7.38190000000003,14.4684 7.38190000000003,14.4684 7.38190000000003,14.4684 M 11.811,15.059 C 11.811,15.6495 11.811,15.6495 11.811,15.6495 M 11.811,14.7637 C 11.5158,15.6495 11.5158,15.6495 11.5158,15.6495 Z " fill="#0C719F" stroke="none"/>
        <path d="M 16.2402,5.01959999999997 C 16.2402,5.01959999999997 16.5355,3.83849999999995 16.8307,2.95269999999999 C 17.126,1.47629999999998 17.126,0.885799999999961 17.126,0.885799999999961 C 17.126,0.590499999999963 16.8307,0.295199999999966 16.8307,0.295199999999966 C 15.9449,0 15.9449,0 15.9449,0 C 15.6496,0 15.6496,0.295199999999966 15.3543,0.295199999999966 C 15.3543,0.295199999999966 15.0591,1.18109999999996 14.7638,2.36219999999997 C 14.4685,3.24799999999999 14.1732,4.13380000000001 14.1732,4.13380000000001 M 13.878,15.059 C 13.878,15.3543 13.5827,15.3543 13.2874,15.3543 C 5.90550000000002,13.2873 5.90550000000002,13.2873 5.90550000000002,13.2873 C 5.90550000000002,13.2873 5.6103,12.9921 5.6103,12.9921 C 7.08660000000003,8.26769999999999 7.08660000000003,8.26769999999999 7.08660000000003,8.26769999999999 C 7.08660000000003,7.97239999999999 7.38190000000003,7.97239999999999 7.38190000000003,7.97239999999999 C 14.7638,10.0393 14.7638,10.0393 14.7638,10.0393 C 15.0591,10.0393 15.0591,10.3346 15.0591,10.3346 Z M 16.5355,4.42910000000001 C 15.6496,4.13380000000001 15.0591,4.13380000000001 14.1732,3.83849999999995 M 8.85829999999999,2.95269999999999 C 8.85829999999999,2.95269999999999 7.08660000000003,6.49599999999998 5.90550000000002,10.0393 C 4.7244,14.4684 4.7244,15.9448 4.7244,18.0117 C 4.7244,18.307 5.315,18.8976 5.6103,19.1928 C 5.90550000000002,19.1928 6.20080000000002,19.1928 6.20080000000002,19.1928 C 6.20080000000002,19.1928 6.49610000000001,19.1928 6.79140000000001,19.4881 C 7.08660000000003,19.7834 7.38190000000003,19.7834 7.38190000000003,19.7834 C 7.67720000000003,20.0787 7.67720000000003,20.0787 7.97250000000003,20.0787 C 8.56299999999999,20.3739 8.56299999999999,20.3739 8.85829999999999,20.3739 C 8.85829999999999,20.3739 9.15359999999998,20.3739 9.44880000000001,20.0787 C 9.7441,20.0787 10.0394,20.3739 10.3347,20.3739 C 10.3347,20.3739 10.6299,20.3739 10.6299,20.3739 C 11.2205,20.6692 11.811,20.3739 12.1063,20.0787 C 13.2874,18.307 13.878,17.1259 15.0591,12.6968 C 15.9449,8.85819999999995 16.2402,5.01959999999997 16.2402,5.01959999999997 M 7.67720000000003,4.7244 C 9.15359999999998,4.7244 10.6299,5.31489999999997 12.1063,5.61019999999996 C 13.5827,5.90549999999996 15.0591,6.49599999999998 16.2402,7.08659999999998 Z " fill="#0C719F" stroke="none"/>
        <path d="M 10.9252,18.0117 C 10.6299,19.1928 9.44880000000001,19.7834 8.26769999999999,19.4881 C 7.08660000000003,19.1928 6.49610000000001,18.0117 6.79140000000001,16.8306 C 7.08660000000003,15.6495 8.26769999999999,15.059 9.44880000000001,15.3543 C 10.6299,15.6495 11.2205,16.8306 10.9252,18.0117 Z M 6.79140000000001,14.4684 C 7.08660000000003,14.4684 7.38190000000003,14.7637 7.67720000000003,14.7637 C 7.67720000000003,14.7637 7.67720000000003,15.059 7.67720000000003,15.059 C 7.38190000000003,15.059 7.38190000000003,15.059 7.08660000000003,15.3543 C 7.08660000000003,15.3543 7.08660000000003,15.3543 6.79140000000001,15.3543 C 6.49610000000001,15.059 5.90550000000002,14.7637 5.90550000000002,14.4684 C 5.6103,14.4684 5.90550000000002,14.4684 5.90550000000002,14.4684 C 6.20080000000002,14.1732 6.49610000000001,14.4684 6.79140000000001,14.4684 Z M 5.315,16.8306 C 5.6103,16.8306 5.90550000000002,17.1259 6.20080000000002,17.1259 C 6.20080000000002,17.1259 6.49610000000001,17.4212 6.20080000000002,17.4212 C 6.20080000000002,17.7165 6.20080000000002,18.307 6.49610000000001,18.6023 C 6.49610000000001,18.6023 6.49610000000001,18.8976 6.49610000000001,18.8976 C 6.20080000000002,18.8976 5.90550000000002,18.6023 5.6103,18.6023 C 5.6103,18.6023 5.315,18.307 5.315,18.307 C 5.315,18.0117 5.315,17.1259 5.315,16.8306 C 5.315,16.8306 5.315,16.8306 5.315,16.8306 Z Z " fill="#0C719F" stroke="none"/>
        <path d="M 12.1063,15.9448 C 11.811,15.6495 11.5158,15.6495 11.2205,15.6495 C 11.2205,15.6495 11.2205,15.9448 11.2205,15.9448 C 11.2205,15.9448 11.2205,16.2401 11.2205,16.5354 C 11.2205,16.5354 11.5158,16.5354 11.5158,16.5354 C 11.811,16.5354 12.6969,16.5354 12.9921,16.5354 C 12.9921,16.5354 12.9921,16.2401 12.9921,16.2401 C 12.6969,16.2401 12.4016,15.9448 12.1063,15.9448 Z M 12.1063,18.6023 C 11.811,18.6023 11.5158,18.6023 11.5158,18.6023 C 11.2205,18.6023 10.9252,18.6023 10.9252,18.8976 C 10.9252,18.8976 10.6299,19.4881 10.3347,19.4881 C 10.0394,19.7834 10.0394,19.7834 10.3347,19.7834 C 10.3347,19.7834 10.9252,20.0787 10.9252,20.0787 C 11.2205,20.0787 11.2205,20.0787 11.5158,19.7834 C 11.811,19.7834 12.1063,19.1928 12.1063,18.8976 C 12.1063,18.6023 12.1063,18.6023 12.1063,18.6023 Z Z " fill="#0C719F" stroke="none"/>
        <path d="M 11.811,6.20069999999998 L 12.4016,3.54329999999999 Z " fill="#0C719F" stroke-width="1px" stroke="#0C719F"/>
        <path d="M 11.811,6.20069999999998 L 12.4016,3.54329999999999 " stroke="none" stroke-width="0" fill="none"/>
        <path d="M 12.1063,6.20069999999998 L 12.6969,3.83849999999995 Z " fill="#0C719F" stroke-width="1px" stroke="#0C719F"/>
        <path d="M 12.1063,6.20069999999998 L 12.6969,3.83849999999995 " stroke="none" stroke-width="0" fill="none"/>
        <path d="M 16.8307,13.5826 C 17.126,12.6968 18.3071,7.6771 18.3071,7.08659999999998 C 18.6024,6.20069999999998 18.3071,5.31489999999997 17.7165,5.31489999999997 C 18.0118,5.01959999999997 18.0118,5.01959999999997 18.0118,5.01959999999997 C 17.7165,4.7244 17.7165,4.7244 17.7165,4.7244 C 17.7165,4.7244 17.7165,4.7244 17.7165,4.7244 C 17.7165,4.7244 18.0118,3.54329999999999 18.0118,2.95269999999999 C 18.3071,1.47629999999998 18.3071,0.590499999999963 18.3071,0.590499999999963 C 18.3071,0.590499999999963 18.3071,0.295199999999966 18.0118,0.295199999999966 C 17.126,0 17.126,0 17.126,0 C 17.126,0 16.8307,0 16.8307,0.295199999999966 C 16.8307,0.295199999999966 16.5355,0.885799999999961 15.9449,2.36219999999997 C 15.6496,2.95269999999999 15.6496,4.13380000000001 15.6496,4.13380000000001 C 15.6496,4.13380000000001 15.6496,4.13380000000001 15.6496,4.13380000000001 C 15.0591,3.83849999999995 14.4685,3.83849999999995 13.878,3.54329999999999 C 12.6969,3.24799999999999 11.2205,2.95269999999999 10.0394,2.6574 C 10.0394,2.6574 9.7441,2.6574 9.7441,2.95269999999999 C 9.7441,2.95269999999999 9.7441,2.95269999999999 9.7441,2.95269999999999 C 9.44880000000001,2.95269999999999 8.56299999999999,3.54329999999999 8.26769999999999,4.13380000000001 C 7.97250000000003,4.7244 6.49610000000001,9.74399999999997 6.20080000000002,10.6298 C 5.90550000000002,11.811 5.315,14.1732 5.0197,15.6495 C 5.0197,16.8306 4.7244,18.8976 3.83859999999999,21.8503 C 3.24810000000002,23.622 2.65750000000003,26.2794 2.06700000000001,27.4605 C 2.06700000000001,27.7558 1.18110000000001,29.2322 2.3623,29.5275 C 3.83859999999999,30.118 5.6103,30.7086 6.49610000000001,31.0038 C 7.38190000000003,31.0038 9.15359999999998,31.5944 10.3347,31.8897 C 11.811,31.8897 11.811,30.4133 11.811,30.118 C 12.1063,28.9369 12.6969,26.2794 13.2874,24.5078 C 13.878,21.555 15.0591,19.4881 15.3543,18.307 C 15.9449,17.1259 16.5355,14.7637 16.8307,13.5826 Z Z " fill="#0C719F" stroke="none"/>
        <path d="M 17.126,0.590499999999963 C 17.126,0.590499999999963 16.5355,0.590499999999963 16.2402,0.590499999999963 C 15.9449,0.295199999999966 15.6496,0.295199999999966 15.6496,0.295199999999966 Z " fill="#000000" stroke="none"/>
        <path d="M 17.126,0.590499999999963 C 17.126,0.590499999999963 16.5355,0.590499999999963 16.2402,0.590499999999963 C 15.9449,0.295199999999966 15.6496,0.295199999999966 15.6496,0.295199999999966 Z " stroke="#FFFFFF" stroke-width="0.4429" stroke-linecap="butt" stroke-linejoin="miter" fill="none"/>
        <path d="M 15.6496,13.8779 C 15.9449,12.9921 17.126,7.97239999999999 17.126,7.08659999999998 C 17.126,6.49599999999998 16.8307,5.61019999999996 16.5355,5.31489999999997 C 16.5355,5.01959999999997 16.5355,5.01959999999997 16.5355,5.01959999999997 C 16.5355,5.01959999999997 16.2402,5.01959999999997 16.2402,5.01959999999997 C 16.2402,5.01959999999997 16.2402,5.01959999999997 16.2402,5.01959999999997 C 16.2402,5.01959999999997 16.5355,3.83849999999995 16.8307,2.95269999999999 C 17.126,1.47629999999998 17.126,0.885799999999961 17.126,0.885799999999961 C 17.126,0.590499999999963 16.8307,0.295199999999966 16.8307,0.295199999999966 C 15.9449,0 15.9449,0 15.9449,0 C 15.6496,0 15.6496,0.295199999999966 15.3543,0.295199999999966 C 15.3543,0.295199999999966 15.0591,1.18109999999996 14.7638,2.36219999999997 C 14.4685,3.24799999999999 14.1732,4.13380000000001 14.1732,4.13380000000001 C 14.1732,4.13380000000001 14.1732,4.13380000000001 14.1732,4.13380000000001 C 13.5827,3.83849999999995 13.2874,3.83849999999995 12.6969,3.54329999999999 C 11.2205,3.24799999999999 10.0394,2.95269999999999 8.56299999999999,2.95269999999999 C 8.56299999999999,2.95269999999999 8.56299999999999,2.95269999999999 8.26769999999999,3.24799999999999 C 8.26769999999999,3.24799999999999 8.26769999999999,3.24799999999999 8.26769999999999,3.24799999999999 C 7.97250000000003,3.24799999999999 7.38190000000003,3.83849999999995 7.08660000000003,4.42910000000001 C 6.79140000000001,5.01959999999997 5.0197,9.74399999999997 4.7244,10.9251 C 4.42920000000004,11.811 4.13389999999998,14.4684 3.83859999999999,15.6495 C 3.54329999999999,16.8306 3.24810000000002,19.1928 2.65750000000003,22.1456 C 2.06700000000001,23.9172 1.18110000000001,26.5747 0.885899999999992,27.4605 C 0.885899999999992,27.7558 0,29.2322 1.18110000000001,29.8227 C 2.3623,30.118 4.13389999999998,30.7086 5.0197,31.0038 C 5.90550000000002,31.2991 7.67720000000003,31.5944 9.15359999999998,31.8897 C 10.3347,32.1849 10.3347,30.4133 10.3347,30.118 C 10.6299,28.9369 11.2205,26.2794 11.811,24.8031 C 12.6969,21.8503 13.5827,19.7834 14.1732,18.6023 C 14.4685,17.4212 15.3543,14.7637 15.6496,13.8779 Z Z " fill="#0C719F" stroke="#FFFFFF" stroke-width="0.4429" stroke-linecap="butt" stroke-linejoin="miter"/>
        <path d="M 6.20080000000002,20.9645 C 5.90550000000002,21.2598 5.6103,21.555 5.0197,21.555 C 4.42920000000004,21.2598 4.13389999999998,20.9645 4.42920000000004,20.3739 C 4.42920000000004,19.7834 5.0197,19.4881 5.6103,19.7834 C 5.90550000000002,19.7834 6.20080000000002,20.3739 6.20080000000002,20.9645 Z Z " fill="#000000" stroke="#FFFFFF" stroke-width="0.4429" stroke-linecap="butt" stroke-linejoin="miter"/>
        <path d="M 8.56299999999999,21.8503 C 8.56299999999999,22.4409 7.97250000000003,22.7361 7.38190000000003,22.4409 C 6.79140000000001,22.4409 6.49610000000001,21.8503 6.79140000000001,21.2598 C 6.79140000000001,20.9645 7.38190000000003,20.6692 7.97250000000003,20.6692 C 8.56299999999999,20.9645 8.85829999999999,21.2598 8.56299999999999,21.8503 Z Z " fill="#000000" stroke="#FFFFFF" stroke-width="0.4429" stroke-linecap="butt" stroke-linejoin="miter"/>
        <path d="M 11.2205,22.1456 C 11.2205,22.7361 10.6299,23.0314 10.0394,23.0314 C 9.44880000000001,22.7361 9.15359999999998,22.1456 9.44880000000001,21.8503 C 9.44880000000001,21.2598 10.0394,20.9645 10.6299,20.9645 C 10.9252,21.2598 11.2205,21.8503 11.2205,22.1456 Z Z " fill="#000000" stroke="#FFFFFF" stroke-width="0.4429" stroke-linecap="butt" stroke-linejoin="miter"/>
        <path d="M 5.6103,23.0314 C 5.315,23.622 5.0197,23.9172 4.42920000000004,23.622 C 3.83859999999999,23.622 3.54329999999999,23.0314 3.83859999999999,22.4409 C 3.83859999999999,21.8503 4.42920000000004,21.555 5.0197,21.8503 C 5.315,21.8503 5.6103,22.4409 5.6103,23.0314 Z Z " fill="#000000" stroke="#FFFFFF" stroke-width="0.4429" stroke-linecap="butt" stroke-linejoin="miter"/>
        <path d="M 7.97250000000003,23.9172 C 7.97250000000003,24.5078 7.38190000000003,24.8031 6.79140000000001,24.8031 C 6.20080000000002,24.5078 5.90550000000002,23.9172 6.20080000000002,23.622 C 6.20080000000002,23.0314 6.79140000000001,22.7361 7.38190000000003,22.7361 C 7.97250000000003,23.0314 8.26769999999999,23.622 7.97250000000003,23.9172 Z Z " fill="#000000" stroke="#FFFFFF" stroke-width="0.4429" stroke-linecap="butt" stroke-linejoin="miter"/>
        <path d="M 10.6299,24.5078 C 10.6299,24.8031 10.0394,25.0983 9.44880000000001,25.0983 C 8.85829999999999,24.8031 8.56299999999999,24.5078 8.85829999999999,23.9172 C 8.85829999999999,23.3267 9.44880000000001,23.0314 10.0394,23.3267 C 10.3347,23.3267 10.6299,23.9172 10.6299,24.5078 Z Z " fill="#000000" stroke="#FFFFFF" stroke-width="0.4429" stroke-linecap="butt" stroke-linejoin="miter"/>
        <path d="M 5.0197,25.0983 C 4.7244,25.6889 4.42920000000004,25.9842 3.83859999999999,25.6889 C 3.24810000000002,25.6889 2.95280000000002,25.0983 3.24810000000002,24.5078 C 3.24810000000002,24.2125 3.83859999999999,23.622 4.42920000000004,23.9172 C 4.7244,23.9172 5.0197,24.5078 5.0197,25.0983 Z Z " fill="#000000" stroke="#FFFFFF" stroke-width="0.4429" stroke-linecap="butt" stroke-linejoin="miter"/>
        <path d="M 7.38190000000003,25.9842 C 7.38190000000003,26.5747 6.79140000000001,26.87 6.20080000000002,26.87 C 5.6103,26.5747 5.315,25.9842 5.6103,25.6889 C 5.6103,25.0983 6.20080000000002,24.8031 6.79140000000001,24.8031 C 7.38190000000003,25.0983 7.67720000000003,25.6889 7.38190000000003,25.9842 Z Z " fill="#000000" stroke="#FFFFFF" stroke-width="0.4429" stroke-linecap="butt" stroke-linejoin="miter"/>
        <path d="M 10.0394,26.5747 C 10.0394,26.87 9.44880000000001,27.1653 8.85829999999999,27.1653 C 8.26769999999999,27.1653 7.97250000000003,26.5747 8.26769999999999,25.9842 C 8.26769999999999,25.3936 8.85829999999999,25.0983 9.44880000000001,25.3936 C 9.7441,25.3936 10.3347,25.9842 10.0394,26.5747 Z Z " fill="#000000" stroke="#FFFFFF" stroke-width="0.4429" stroke-linecap="butt" stroke-linejoin="miter"/>
        <path d="M 4.42920000000004,27.1653 C 4.13389999999998,27.7558 3.83859999999999,28.0511 3.24810000000002,27.7558 C 2.65750000000003,27.7558 2.3623,27.1653 2.65750000000003,26.5747 C 2.65750000000003,26.2794 3.24810000000002,25.9842 3.83859999999999,25.9842 C 4.13389999999998,26.2794 4.42920000000004,26.5747 4.42920000000004,27.1653 Z M 6.79140000000001,28.3463 C 6.79140000000001,28.6416 6.20080000000002,28.9369 5.6103,28.9369 C 5.0197,28.6416 4.7244,28.3463 5.0197,27.7558 C 5.0197,27.1653 5.6103,26.87 6.20080000000002,27.1653 C 6.79140000000001,27.1653 7.08660000000003,27.7558 6.79140000000001,28.3463 Z Z " fill="#000000" stroke="#FFFFFF" stroke-width="0.4429" stroke-linecap="butt" stroke-linejoin="miter"/>
        <path d="M 9.44880000000001,28.6416 C 9.44880000000001,29.2322 8.85829999999999,29.5275 8.26769999999999,29.2322 C 7.67720000000003,29.2322 7.38190000000003,28.6416 7.67720000000003,28.0511 C 7.67720000000003,27.4605 8.26769999999999,27.1653 8.85829999999999,27.4605 C 9.44880000000001,27.4605 9.7441,28.0511 9.44880000000001,28.6416 Z Z " fill="#000000" stroke="#FFFFFF" stroke-width="0.4429" stroke-linecap="butt" stroke-linejoin="miter"/>
        <path d="M 5.6103,29.5275 C 5.6103,29.8227 5.6103,29.8227 5.315,29.8227 C 5.315,29.8227 5.315,29.5275 5.315,29.5275 C 5.315,29.5275 5.315,29.5275 5.6103,29.5275 C 5.6103,29.5275 5.6103,29.5275 5.6103,29.5275 Z M 5.315,29.5275 C 5.0197,30.7086 5.0197,30.7086 5.0197,30.7086 M 5.315,29.8227 C 5.0197,30.7086 5.0197,30.7086 5.0197,30.7086 M 5.6103,29.5275 C 5.315,30.7086 5.315,30.7086 5.315,30.7086 M 5.6103,29.8227 C 5.315,30.7086 5.315,30.7086 5.315,30.7086 M 7.38190000000003,13.5826 C 7.38190000000003,14.4684 7.38190000000003,14.4684 7.38190000000003,14.4684 M 7.67720000000003,13.8779 C 7.38190000000003,14.4684 7.38190000000003,14.4684 7.38190000000003,14.4684 M 11.811,15.059 C 11.811,15.6495 11.811,15.6495 11.811,15.6495 M 11.811,14.7637 C 11.5158,15.6495 11.5158,15.6495 11.5158,15.6495 Z " fill="#000000" stroke="none"/>
        <path d="M 5.6103,29.5275 C 5.6103,29.8227 5.6103,29.8227 5.315,29.8227 C 5.315,29.8227 5.315,29.5275 5.315,29.5275 C 5.315,29.5275 5.315,29.5275 5.6103,29.5275 C 5.6103,29.5275 5.6103,29.5275 5.6103,29.5275 Z M 5.315,29.5275 C 5.0197,30.7086 5.0197,30.7086 5.0197,30.7086 M 5.315,29.8227 C 5.0197,30.7086 5.0197,30.7086 5.0197,30.7086 M 5.6103,29.5275 C 5.315,30.7086 5.315,30.7086 5.315,30.7086 M 5.6103,29.8227 C 5.315,30.7086 5.315,30.7086 5.315,30.7086 M 7.38190000000003,13.5826 C 7.38190000000003,14.4684 7.38190000000003,14.4684 7.38190000000003,14.4684 M 7.67720000000003,13.8779 C 7.38190000000003,14.4684 7.38190000000003,14.4684 7.38190000000003,14.4684 M 11.811,15.059 C 11.811,15.6495 11.811,15.6495 11.811,15.6495 M 11.811,14.7637 C 11.5158,15.6495 11.5158,15.6495 11.5158,15.6495 Z " stroke="#FFFFFF" stroke-width="0.4429" stroke-linecap="butt" stroke-linejoin="miter" fill="none"/>
        <path d="M 16.2402,5.01959999999997 C 16.2402,5.01959999999997 16.5355,3.83849999999995 16.8307,2.95269999999999 C 17.126,1.47629999999998 17.126,0.885799999999961 17.126,0.885799999999961 C 17.126,0.590499999999963 16.8307,0.295199999999966 16.8307,0.295199999999966 C 15.9449,0 15.9449,0 15.9449,0 C 15.6496,0 15.6496,0.295199999999966 15.3543,0.295199999999966 C 15.3543,0.295199999999966 15.0591,1.18109999999996 14.7638,2.36219999999997 C 14.4685,3.24799999999999 14.1732,4.13380000000001 14.1732,4.13380000000001 M 13.878,15.059 C 13.878,15.3543 13.5827,15.3543 13.2874,15.3543 C 5.90550000000002,13.2873 5.90550000000002,13.2873 5.90550000000002,13.2873 C 5.90550000000002,13.2873 5.6103,12.9921 5.6103,12.9921 C 7.08660000000003,8.26769999999999 7.08660000000003,8.26769999999999 7.08660000000003,8.26769999999999 C 7.08660000000003,7.97239999999999 7.38190000000003,7.97239999999999 7.38190000000003,7.97239999999999 C 14.7638,10.0393 14.7638,10.0393 14.7638,10.0393 C 15.0591,10.0393 15.0591,10.3346 15.0591,10.3346 Z M 16.5355,4.42910000000001 C 15.6496,4.13380000000001 15.0591,4.13380000000001 14.1732,3.83849999999995 M 8.85829999999999,2.95269999999999 C 8.85829999999999,2.95269999999999 7.08660000000003,6.49599999999998 5.90550000000002,10.0393 C 4.7244,14.4684 4.7244,15.9448 4.7244,18.0117 C 4.7244,18.307 5.315,18.8976 5.6103,19.1928 C 5.90550000000002,19.1928 6.20080000000002,19.1928 6.20080000000002,19.1928 C 6.20080000000002,19.1928 6.49610000000001,19.1928 6.79140000000001,19.4881 C 7.08660000000003,19.7834 7.38190000000003,19.7834 7.38190000000003,19.7834 C 7.67720000000003,20.0787 7.67720000000003,20.0787 7.97250000000003,20.0787 C 8.56299999999999,20.3739 8.56299999999999,20.3739 8.85829999999999,20.3739 C 8.85829999999999,20.3739 9.15359999999998,20.3739 9.44880000000001,20.0787 C 9.7441,20.0787 10.0394,20.3739 10.3347,20.3739 C 10.3347,20.3739 10.6299,20.3739 10.6299,20.3739 C 11.2205,20.6692 11.811,20.3739 12.1063,20.0787 C 13.2874,18.307 13.878,17.1259 15.0591,12.6968 C 15.9449,8.85819999999995 16.2402,5.01959999999997 16.2402,5.01959999999997 M 7.67720000000003,4.7244 C 9.15359999999998,4.7244 10.6299,5.31489999999997 12.1063,5.61019999999996 C 13.5827,5.90549999999996 15.0591,6.49599999999998 16.2402,7.08659999999998 Z " fill="#0C719F" stroke="none"/>
        <path d="M 10.9252,18.0117 C 10.6299,19.1928 9.44880000000001,19.7834 8.26769999999999,19.4881 C 7.08660000000003,19.1928 6.49610000000001,18.0117 6.79140000000001,16.8306 C 7.08660000000003,15.6495 8.26769999999999,15.059 9.44880000000001,15.3543 C 10.6299,15.6495 11.2205,16.8306 10.9252,18.0117 Z M 6.79140000000001,14.4684 C 7.08660000000003,14.4684 7.38190000000003,14.7637 7.67720000000003,14.7637 C 7.67720000000003,14.7637 7.67720000000003,15.059 7.67720000000003,15.059 C 7.38190000000003,15.059 7.38190000000003,15.059 7.08660000000003,15.3543 C 7.08660000000003,15.3543 7.08660000000003,15.3543 6.79140000000001,15.3543 C 6.49610000000001,15.059 5.90550000000002,14.7637 5.90550000000002,14.4684 C 5.6103,14.4684 5.90550000000002,14.4684 5.90550000000002,14.4684 C 6.20080000000002,14.1732 6.49610000000001,14.4684 6.79140000000001,14.4684 Z M 5.315,16.8306 C 5.6103,16.8306 5.90550000000002,17.1259 6.20080000000002,17.1259 C 6.20080000000002,17.1259 6.49610000000001,17.4212 6.20080000000002,17.4212 C 6.20080000000002,17.7165 6.20080000000002,18.307 6.49610000000001,18.6023 C 6.49610000000001,18.6023 6.49610000000001,18.8976 6.49610000000001,18.8976 C 6.20080000000002,18.8976 5.90550000000002,18.6023 5.6103,18.6023 C 5.6103,18.6023 5.315,18.307 5.315,18.307 C 5.315,18.0117 5.315,17.1259 5.315,16.8306 C 5.315,16.8306 5.315,16.8306 5.315,16.8306 Z Z " fill="#0C719F" stroke="#FFFFFF" stroke-width="0.4429" stroke-linecap="butt" stroke-linejoin="miter"/>
        <path d="M 12.1063,15.9448 C 11.811,15.6495 11.5158,15.6495 11.2205,15.6495 C 11.2205,15.6495 11.2205,15.9448 11.2205,15.9448 C 11.2205,15.9448 11.2205,16.2401 11.2205,16.5354 C 11.2205,16.5354 11.5158,16.5354 11.5158,16.5354 C 11.811,16.5354 12.6969,16.5354 12.9921,16.5354 C 12.9921,16.5354 12.9921,16.2401 12.9921,16.2401 C 12.6969,16.2401 12.4016,15.9448 12.1063,15.9448 Z M 12.1063,18.6023 C 11.811,18.6023 11.5158,18.6023 11.5158,18.6023 C 11.2205,18.6023 10.9252,18.6023 10.9252,18.8976 C 10.9252,18.8976 10.6299,19.4881 10.3347,19.4881 C 10.0394,19.7834 10.0394,19.7834 10.3347,19.7834 C 10.3347,19.7834 10.9252,20.0787 10.9252,20.0787 C 11.2205,20.0787 11.2205,20.0787 11.5158,19.7834 C 11.811,19.7834 12.1063,19.1928 12.1063,18.8976 C 12.1063,18.6023 12.1063,18.6023 12.1063,18.6023 Z Z " fill="#000000" stroke="#FFFFFF" stroke-width="0.4429" stroke-linecap="butt" stroke-linejoin="miter"/>
        <path d="M 11.811,6.20069999999998 L 12.4016,3.54329999999999 Z " fill="#000000" stroke-width="1px" stroke="#000000"/>
        <path d="M 11.811,6.20069999999998 L 12.4016,3.54329999999999 " stroke="#FFFFFF" stroke-width="0.4429" stroke-linecap="butt" stroke-linejoin="miter" fill="none"/>
        <path d="M 12.1063,6.20069999999998 L 12.6969,3.83849999999995 Z " fill="#000000" stroke-width="1px" stroke="#000000"/>
        <path d="M 12.1063,6.20069999999998 L 12.6969,3.83849999999995 " stroke="#FFFFFF" stroke-width="0.4429" stroke-linecap="butt" stroke-linejoin="miter" fill="none"/>
        <path d="M 16.8307,13.5826 C 17.126,12.6968 18.3071,7.6771 18.3071,7.08659999999998 C 18.6024,6.20069999999998 18.3071,5.31489999999997 17.7165,5.31489999999997 C 18.0118,5.01959999999997 18.0118,5.01959999999997 18.0118,5.01959999999997 C 17.7165,4.7244 17.7165,4.7244 17.7165,4.7244 C 17.7165,4.7244 17.7165,4.7244 17.7165,4.7244 C 17.7165,4.7244 18.0118,3.54329999999999 18.0118,2.95269999999999 C 18.3071,1.47629999999998 18.3071,0.590499999999963 18.3071,0.590499999999963 C 18.3071,0.590499999999963 18.3071,0.295199999999966 18.0118,0.295199999999966 C 17.126,0 17.126,0 17.126,0 C 17.126,0 16.8307,0 16.8307,0.295199999999966 C 16.8307,0.295199999999966 16.5355,0.885799999999961 15.9449,2.36219999999997 C 15.6496,2.95269999999999 15.6496,4.13380000000001 15.6496,4.13380000000001 C 15.6496,4.13380000000001 15.6496,4.13380000000001 15.6496,4.13380000000001 C 15.0591,3.83849999999995 14.4685,3.83849999999995 13.878,3.54329999999999 C 12.6969,3.24799999999999 11.2205,2.95269999999999 10.0394,2.6574 C 10.0394,2.6574 9.7441,2.6574 9.7441,2.95269999999999 C 9.7441,2.95269999999999 9.7441,2.95269999999999 9.7441,2.95269999999999 C 9.44880000000001,2.95269999999999 8.56299999999999,3.54329999999999 8.26769999999999,4.13380000000001 C 7.97250000000003,4.7244 6.49610000000001,9.74399999999997 6.20080000000002,10.6298 C 5.90550000000002,11.811 5.315,14.1732 5.0197,15.6495 C 5.0197,16.8306 4.7244,18.8976 3.83859999999999,21.8503 C 3.24810000000002,23.622 2.65750000000003,26.2794 2.06700000000001,27.4605 C 2.06700000000001,27.7558 1.18110000000001,29.2322 2.3623,29.5275 C 3.83859999999999,30.118 5.6103,30.7086 6.49610000000001,31.0038 C 7.38190000000003,31.0038 9.15359999999998,31.5944 10.3347,31.8897 C 11.811,31.8897 11.811,30.4133 11.811,30.118 C 12.1063,28.9369 12.6969,26.2794 13.2874,24.5078 C 13.878,21.555 15.0591,19.4881 15.3543,18.307 C 15.9449,17.1259 16.5355,14.7637 16.8307,13.5826 Z Z " stroke="#FFFFFF" stroke-width="0.4429" stroke-linecap="butt" stroke-linejoin="miter" fill="none"/>
        <path d="M 17.126,0.590499999999963 C 17.126,0.590499999999963 16.5355,0.590499999999963 16.2402,0.590499999999963 C 15.9449,0.295199999999966 15.6496,0.295199999999966 15.6496,0.295199999999966 Z " stroke="#FFFFFF" stroke-width="0.4429" stroke-linecap="butt" stroke-linejoin="miter" fill="none"/>
        <path d="M 15.6496,13.8779 C 15.9449,12.9921 17.126,7.97239999999999 17.126,7.08659999999998 C 17.126,6.49599999999998 16.8307,5.61019999999996 16.5355,5.31489999999997 C 16.5355,5.01959999999997 16.5355,5.01959999999997 16.5355,5.01959999999997 C 16.5355,5.01959999999997 16.2402,5.01959999999997 16.2402,5.01959999999997 C 16.2402,5.01959999999997 16.2402,5.01959999999997 16.2402,5.01959999999997 C 16.2402,5.01959999999997 16.5355,3.83849999999995 16.8307,2.95269999999999 C 17.126,1.47629999999998 17.126,0.885799999999961 17.126,0.885799999999961 C 17.126,0.590499999999963 16.8307,0.295199999999966 16.8307,0.295199999999966 C 15.9449,0 15.9449,0 15.9449,0 C 15.6496,0 15.6496,0.295199999999966 15.3543,0.295199999999966 C 15.3543,0.295199999999966 15.0591,1.18109999999996 14.7638,2.36219999999997 C 14.4685,3.24799999999999 14.1732,4.13380000000001 14.1732,4.13380000000001 C 14.1732,4.13380000000001 14.1732,4.13380000000001 14.1732,4.13380000000001 C 13.5827,3.83849999999995 13.2874,3.83849999999995 12.6969,3.54329999999999 C 11.2205,3.24799999999999 10.0394,2.95269999999999 8.56299999999999,2.95269999999999 C 8.56299999999999,2.95269999999999 8.56299999999999,2.95269999999999 8.26769999999999,3.24799999999999 C 8.26769999999999,3.24799999999999 8.26769999999999,3.24799999999999 8.26769999999999,3.24799999999999 C 7.97250000000003,3.24799999999999 7.38190000000003,3.83849999999995 7.08660000000003,4.42910000000001 C 6.79140000000001,5.01959999999997 5.0197,9.74399999999997 4.7244,10.9251 C 4.42920000000004,11.811 4.13389999999998,14.4684 3.83859999999999,15.6495 C 3.54329999999999,16.8306 3.24810000000002,19.1928 2.65750000000003,22.1456 C 2.06700000000001,23.9172 1.18110000000001,26.5747 0.885899999999992,27.4605 C 0.885899999999992,27.7558 0,29.2322 1.18110000000001,29.8227 C 2.3623,30.118 4.13389999999998,30.7086 5.0197,31.0038 C 5.90550000000002,31.2991 7.67720000000003,31.5944 9.15359999999998,31.8897 C 10.3347,32.1849 10.3347,30.4133 10.3347,30.118 C 10.6299,28.9369 11.2205,26.2794 11.811,24.8031 C 12.6969,21.8503 13.5827,19.7834 14.1732,18.6023 C 14.4685,17.4212 15.3543,14.7637 15.6496,13.8779 Z Z " stroke="#FFFFFF" stroke-width="0.4429" stroke-linecap="butt" stroke-linejoin="miter" fill="none"/>
        <path d="M 6.20080000000002,20.9645 C 5.90550000000002,21.2598 5.6103,21.555 5.0197,21.555 C 4.42920000000004,21.2598 4.13389999999998,20.9645 4.42920000000004,20.3739 C 4.42920000000004,19.7834 5.0197,19.4881 5.6103,19.7834 C 5.90550000000002,19.7834 6.20080000000002,20.3739 6.20080000000002,20.9645 Z Z " stroke="#FFFFFF" stroke-width="0.4429" stroke-linecap="butt" stroke-linejoin="miter" fill="none"/>
        <path d="M 8.56299999999999,21.8503 C 8.56299999999999,22.4409 7.97250000000003,22.7361 7.38190000000003,22.4409 C 6.79140000000001,22.4409 6.49610000000001,21.8503 6.79140000000001,21.2598 C 6.79140000000001,20.9645 7.38190000000003,20.6692 7.97250000000003,20.6692 C 8.56299999999999,20.9645 8.85829999999999,21.2598 8.56299999999999,21.8503 Z Z " stroke="#FFFFFF" stroke-width="0.4429" stroke-linecap="butt" stroke-linejoin="miter" fill="none"/>
        <path d="M 11.2205,22.1456 C 11.2205,22.7361 10.6299,23.0314 10.0394,23.0314 C 9.44880000000001,22.7361 9.15359999999998,22.1456 9.44880000000001,21.8503 C 9.44880000000001,21.2598 10.0394,20.9645 10.6299,20.9645 C 10.9252,21.2598 11.2205,21.8503 11.2205,22.1456 Z Z " stroke="#FFFFFF" stroke-width="0.4429" stroke-linecap="butt" stroke-linejoin="miter" fill="none"/>
        <path d="M 5.6103,23.0314 C 5.315,23.622 5.0197,23.9172 4.42920000000004,23.622 C 3.83859999999999,23.622 3.54329999999999,23.0314 3.83859999999999,22.4409 C 3.83859999999999,21.8503 4.42920000000004,21.555 5.0197,21.8503 C 5.315,21.8503 5.6103,22.4409 5.6103,23.0314 Z Z " stroke="#FFFFFF" stroke-width="0.4429" stroke-linecap="butt" stroke-linejoin="miter" fill="none"/>
        <path d="M 7.97250000000003,23.9172 C 7.97250000000003,24.5078 7.38190000000003,24.8031 6.79140000000001,24.8031 C 6.20080000000002,24.5078 5.90550000000002,23.9172 6.20080000000002,23.622 C 6.20080000000002,23.0314 6.79140000000001,22.7361 7.38190000000003,22.7361 C 7.97250000000003,23.0314 8.26769999999999,23.622 7.97250000000003,23.9172 Z Z " stroke="#FFFFFF" stroke-width="0.4429" stroke-linecap="butt" stroke-linejoin="miter" fill="none"/>
        <path d="M 10.6299,24.5078 C 10.6299,24.8031 10.0394,25.0983 9.44880000000001,25.0983 C 8.85829999999999,24.8031 8.56299999999999,24.5078 8.85829999999999,23.9172 C 8.85829999999999,23.3267 9.44880000000001,23.0314 10.0394,23.3267 C 10.3347,23.3267 10.6299,23.9172 10.6299,24.5078 Z Z " stroke="#FFFFFF" stroke-width="0.4429" stroke-linecap="butt" stroke-linejoin="miter" fill="none"/>
        <path d="M 5.0197,25.0983 C 4.7244,25.6889 4.42920000000004,25.9842 3.83859999999999,25.6889 C 3.24810000000002,25.6889 2.95280000000002,25.0983 3.24810000000002,24.5078 C 3.24810000000002,24.2125 3.83859999999999,23.622 4.42920000000004,23.9172 C 4.7244,23.9172 5.0197,24.5078 5.0197,25.0983 Z Z " stroke="#FFFFFF" stroke-width="0.4429" stroke-linecap="butt" stroke-linejoin="miter" fill="none"/>
        <path d="M 7.38190000000003,25.9842 C 7.38190000000003,26.5747 6.79140000000001,26.87 6.20080000000002,26.87 C 5.6103,26.5747 5.315,25.9842 5.6103,25.6889 C 5.6103,25.0983 6.20080000000002,24.8031 6.79140000000001,24.8031 C 7.38190000000003,25.0983 7.67720000000003,25.6889 7.38190000000003,25.9842 Z Z " stroke="#FFFFFF" stroke-width="0.4429" stroke-linecap="butt" stroke-linejoin="miter" fill="none"/>
        <path d="M 10.0394,26.5747 C 10.0394,26.87 9.44880000000001,27.1653 8.85829999999999,27.1653 C 8.26769999999999,27.1653 7.97250000000003,26.5747 8.26769999999999,25.9842 C 8.26769999999999,25.3936 8.85829999999999,25.0983 9.44880000000001,25.3936 C 9.7441,25.3936 10.3347,25.9842 10.0394,26.5747 Z Z " stroke="#FFFFFF" stroke-width="0.4429" stroke-linecap="butt" stroke-linejoin="miter" fill="none"/>
        <path d="M 4.42920000000004,27.1653 C 4.13389999999998,27.7558 3.83859999999999,28.0511 3.24810000000002,27.7558 C 2.65750000000003,27.7558 2.3623,27.1653 2.65750000000003,26.5747 C 2.65750000000003,26.2794 3.24810000000002,25.9842 3.83859999999999,25.9842 C 4.13389999999998,26.2794 4.42920000000004,26.5747 4.42920000000004,27.1653 Z M 6.79140000000001,28.3463 C 6.79140000000001,28.6416 6.20080000000002,28.9369 5.6103,28.9369 C 5.0197,28.6416 4.7244,28.3463 5.0197,27.7558 C 5.0197,27.1653 5.6103,26.87 6.20080000000002,27.1653 C 6.79140000000001,27.1653 7.08660000000003,27.7558 6.79140000000001,28.3463 Z Z " stroke="#FFFFFF" stroke-width="0.4429" stroke-linecap="butt" stroke-linejoin="miter" fill="none"/>
        <path d="M 9.44880000000001,28.6416 C 9.44880000000001,29.2322 8.85829999999999,29.5275 8.26769999999999,29.2322 C 7.67720000000003,29.2322 7.38190000000003,28.6416 7.67720000000003,28.0511 C 7.67720000000003,27.4605 8.26769999999999,27.1653 8.85829999999999,27.4605 C 9.44880000000001,27.4605 9.7441,28.0511 9.44880000000001,28.6416 Z Z " stroke="#FFFFFF" stroke-width="0.4429" stroke-linecap="butt" stroke-linejoin="miter" fill="none"/>
        <path d="M 5.6103,29.5275 C 5.6103,29.8227 5.6103,29.8227 5.315,29.8227 C 5.315,29.8227 5.315,29.5275 5.315,29.5275 C 5.315,29.5275 5.315,29.5275 5.6103,29.5275 C 5.6103,29.5275 5.6103,29.5275 5.6103,29.5275 Z M 5.315,29.5275 C 5.0197,30.7086 5.0197,30.7086 5.0197,30.7086 M 5.315,29.8227 C 5.0197,30.7086 5.0197,30.7086 5.0197,30.7086 M 5.6103,29.5275 C 5.315,30.7086 5.315,30.7086 5.315,30.7086 M 5.6103,29.8227 C 5.315,30.7086 5.315,30.7086 5.315,30.7086 M 7.38190000000003,13.5826 C 7.38190000000003,14.4684 7.38190000000003,14.4684 7.38190000000003,14.4684 M 7.67720000000003,13.8779 C 7.38190000000003,14.4684 7.38190000000003,14.4684 7.38190000000003,14.4684 M 11.811,15.059 C 11.811,15.6495 11.811,15.6495 11.811,15.6495 M 11.811,14.7637 C 11.5158,15.6495 11.5158,15.6495 11.5158,15.6495 Z " stroke="#FFFFFF" stroke-width="0.4429" stroke-linecap="butt" stroke-linejoin="miter" fill="none"/>
        <path d="M 16.2402,5.01959999999997 C 16.2402,5.01959999999997 16.5355,3.83849999999995 16.8307,2.95269999999999 C 17.126,1.47629999999998 17.126,0.885799999999961 17.126,0.885799999999961 C 17.126,0.590499999999963 16.8307,0.295199999999966 16.8307,0.295199999999966 C 15.9449,0 15.9449,0 15.9449,0 C 15.6496,0 15.6496,0.295199999999966 15.3543,0.295199999999966 C 15.3543,0.295199999999966 15.0591,1.18109999999996 14.7638,2.36219999999997 C 14.4685,3.24799999999999 14.1732,4.13380000000001 14.1732,4.13380000000001 M 13.878,15.059 C 13.878,15.3543 13.5827,15.3543 13.2874,15.3543 C 5.90550000000002,13.2873 5.90550000000002,13.2873 5.90550000000002,13.2873 C 5.90550000000002,13.2873 5.6103,12.9921 5.6103,12.9921 C 7.08660000000003,8.26769999999999 7.08660000000003,8.26769999999999 7.08660000000003,8.26769999999999 C 7.08660000000003,7.97239999999999 7.38190000000003,7.97239999999999 7.38190000000003,7.97239999999999 C 14.7638,10.0393 14.7638,10.0393 14.7638,10.0393 C 15.0591,10.0393 15.0591,10.3346 15.0591,10.3346 Z M 16.5355,4.42910000000001 C 15.6496,4.13380000000001 15.0591,4.13380000000001 14.1732,3.83849999999995 M 8.85829999999999,2.95269999999999 C 8.85829999999999,2.95269999999999 7.08660000000003,6.49599999999998 5.90550000000002,10.0393 C 4.7244,14.4684 4.7244,15.9448 4.7244,18.0117 C 4.7244,18.307 5.315,18.8976 5.6103,19.1928 C 5.90550000000002,19.1928 6.20080000000002,19.1928 6.20080000000002,19.1928 C 6.20080000000002,19.1928 6.49610000000001,19.1928 6.79140000000001,19.4881 C 7.08660000000003,19.7834 7.38190000000003,19.7834 7.38190000000003,19.7834 C 7.67720000000003,20.0787 7.67720000000003,20.0787 7.97250000000003,20.0787 C 8.56299999999999,20.3739 8.56299999999999,20.3739 8.85829999999999,20.3739 C 8.85829999999999,20.3739 9.15359999999998,20.3739 9.44880000000001,20.0787 C 9.7441,20.0787 10.0394,20.3739 10.3347,20.3739 C 10.3347,20.3739 10.6299,20.3739 10.6299,20.3739 C 11.2205,20.6692 11.811,20.3739 12.1063,20.0787 C 13.2874,18.307 13.878,17.1259 15.0591,12.6968 C 15.9449,8.85819999999995 16.2402,5.01959999999997 16.2402,5.01959999999997 M 7.67720000000003,4.7244 C 9.15359999999998,4.7244 10.6299,5.31489999999997 12.1063,5.61019999999996 C 13.5827,5.90549999999996 15.0591,6.49599999999998 16.2402,7.08659999999998 Z " stroke="#FFFFFF" stroke-width="0.4429" stroke-linecap="butt" stroke-linejoin="miter" fill="none"/>
        <path d="M 10.9252,18.0117 C 10.6299,19.1928 9.44880000000001,19.7834 8.26769999999999,19.4881 C 7.08660000000003,19.1928 6.49610000000001,18.0117 6.79140000000001,16.8306 C 7.08660000000003,15.6495 8.26769999999999,15.059 9.44880000000001,15.3543 C 10.6299,15.6495 11.2205,16.8306 10.9252,18.0117 Z M 6.79140000000001,14.4684 C 7.08660000000003,14.4684 7.38190000000003,14.7637 7.67720000000003,14.7637 C 7.67720000000003,14.7637 7.67720000000003,15.059 7.67720000000003,15.059 C 7.38190000000003,15.059 7.38190000000003,15.059 7.08660000000003,15.3543 C 7.08660000000003,15.3543 7.08660000000003,15.3543 6.79140000000001,15.3543 C 6.49610000000001,15.059 5.90550000000002,14.7637 5.90550000000002,14.4684 C 5.6103,14.4684 5.90550000000002,14.4684 5.90550000000002,14.4684 C 6.20080000000002,14.1732 6.49610000000001,14.4684 6.79140000000001,14.4684 Z M 5.315,16.8306 C 5.6103,16.8306 5.90550000000002,17.1259 6.20080000000002,17.1259 C 6.20080000000002,17.1259 6.49610000000001,17.4212 6.20080000000002,17.4212 C 6.20080000000002,17.7165 6.20080000000002,18.307 6.49610000000001,18.6023 C 6.49610000000001,18.6023 6.49610000000001,18.8976 6.49610000000001,18.8976 C 6.20080000000002,18.8976 5.90550000000002,18.6023 5.6103,18.6023 C 5.6103,18.6023 5.315,18.307 5.315,18.307 C 5.315,18.0117 5.315,17.1259 5.315,16.8306 C 5.315,16.8306 5.315,16.8306 5.315,16.8306 Z Z " stroke="#FFFFFF" stroke-width="0.4429" stroke-linecap="butt" stroke-linejoin="miter" fill="none"/>
        <path d="M 12.1063,15.9448 C 11.811,15.6495 11.5158,15.6495 11.2205,15.6495 C 11.2205,15.6495 11.2205,15.9448 11.2205,15.9448 C 11.2205,15.9448 11.2205,16.2401 11.2205,16.5354 C 11.2205,16.5354 11.5158,16.5354 11.5158,16.5354 C 11.811,16.5354 12.6969,16.5354 12.9921,16.5354 C 12.9921,16.5354 12.9921,16.2401 12.9921,16.2401 C 12.6969,16.2401 12.4016,15.9448 12.1063,15.9448 Z M 12.1063,18.6023 C 11.811,18.6023 11.5158,18.6023 11.5158,18.6023 C 11.2205,18.6023 10.9252,18.6023 10.9252,18.8976 C 10.9252,18.8976 10.6299,19.4881 10.3347,19.4881 C 10.0394,19.7834 10.0394,19.7834 10.3347,19.7834 C 10.3347,19.7834 10.9252,20.0787 10.9252,20.0787 C 11.2205,20.0787 11.2205,20.0787 11.5158,19.7834 C 11.811,19.7834 12.1063,19.1928 12.1063,18.8976 C 12.1063,18.6023 12.1063,18.6023 12.1063,18.6023 Z Z " stroke="#FFFFFF" stroke-width="0.4429" stroke-linecap="butt" stroke-linejoin="miter" fill="none"/>
        <path d="M 11.811,6.20069999999998 L 12.4016,3.54329999999999 " stroke="#FFFFFF" stroke-width="0.4429" stroke-linecap="butt" stroke-linejoin="miter" fill="none"/>
        <path d="M 12.1063,6.20069999999998 L 12.6969,3.83849999999995 " stroke="#FFFFFF" stroke-width="0.4429" stroke-linecap="butt" stroke-linejoin="miter" fill="none"/>
      </g>
      <!--emf-blob end-->
    </g>
  </g>
</svg>

