<svg xmlns="http://www.w3.org/2000/svg" xmlns:xlink="http://www.w3.org/1999/xlink" version="1.1" viewBox="0 0 72 105" >
  <title><![CDATA[Centri Firewall]]></title>
  <g transform=" scale(3.000000) ">
    <!--converted by libvisio2svg-->
    <g>
      <!--emf-blob start-->
      <g>
        <path d="M 18.0118,5.90550000000002 L 0,5.90550000000002 L 0,34.8425 L 18.0118,34.8425 Z " fill="#046897" stroke-width="1px" stroke="#046897"/>
        <path d="M 18.0118,5.90550000000002 L 0,5.90550000000002 L 0,34.8425 L 18.0118,34.8425 " stroke="#FFFFFF" stroke-width="0.8858" stroke-linecap="butt" stroke-linejoin="miter" fill="none"/>
        <path d="M 18.0118,34.8425 L 23.9173,28.937 L 23.9173,0 L 5.61020000000002,0 L 0,5.90550000000002 L 18.0118,5.90550000000002 L 18.0118,34.8425 Z " fill="#046897" stroke="#FFFFFF" stroke-width="0.8858" stroke-linecap="butt" stroke-linejoin="miter"/>
        <path d="M 18.0118,5.90550000000002 L 23.9173,0 Z " fill="#046897" stroke-width="1px" stroke="#046897"/>
        <path d="M 18.0118,5.90550000000002 L 23.9173,0 " stroke="#FFFFFF" stroke-width="0.8858" stroke-linecap="butt" stroke-linejoin="miter" fill="none"/>
        <path d="M 0.295299999999997,14.1732 L 18.0118,14.1732 Z " fill="#046897" stroke-width="1px" stroke="#046897"/>
        <path d="M 0.295299999999997,14.1732 L 18.0118,14.1732 " stroke="#FFFFFF" stroke-width="0.8858" stroke-linecap="butt" stroke-linejoin="miter" fill="none"/>
        <path d="M 4.42910000000001,10.3346 L 9.44880000000001,10.3346 " stroke="#FFFFFF" stroke-width="0.8858" stroke-linecap="butt" stroke-linejoin="miter" fill="none"/>
        <path d="M 11.5157,12.1063 L 11.5157,8.56300000000005 L 2.36220000000003,8.56300000000005 L 2.36220000000003,12.1063 L 11.5157,12.1063 Z " fill="none" stroke="#FFFFFF" stroke-width="0.8858" stroke-linecap="butt" stroke-linejoin="miter"/>
        <path d="M 3.54330000000004,27.7559000000001 L 3.54330000000004,20.6693 L 10.3346,24.2125 L 3.54330000000004,27.7559000000001 Z " fill="#FFFFFF" stroke-width="1px" stroke="#FFFFFF"/>
        <path d="M 13.2874,27.4606 L 13.2874,20.9645 L 11.2204,20.9645 L 11.2204,27.4606 L 13.2874,27.4606 Z " fill="#FFFFFF" stroke-width="1px" stroke="#FFFFFF"/>
        <path d="M 8.56300000000005,31.5944 C 12.6968,31.5944 16.2401,28.3464 16.2401,24.2125 C 16.2401,20.0787 12.6968,16.8307 8.56300000000005,16.8307 C 4.42910000000001,16.8307 1.18110000000001,20.0787 1.18110000000001,24.2125 C 1.18110000000001,28.3464 4.42910000000001,31.5944 8.56300000000005,31.5944 Z Z " stroke="#FFFFFF" stroke-width="1.32875" stroke-linecap="butt" stroke-linejoin="miter" fill="none"/>
      </g>
      <!--emf-blob end-->
    </g>
  </g>
</svg>

