<svg xmlns="http://www.w3.org/2000/svg" xmlns:xlink="http://www.w3.org/1999/xlink" version="1.1" viewBox="0 0 93 114" >
  <title><![CDATA[Cisco unified presence server]]></title>
  <g transform=" scale(3.000000) ">
    <!--converted by libvisio2svg-->
    <g>
      <!--emf-blob start-->
      <g>
        <path d="M 18.8976,37.5 L 18.8976,4.13380000000001 L 0,4.13380000000001 L 0,37.5 L 18.8976,37.5 Z " fill="#046897" stroke="#FFFFFF" stroke-width="0.88585" stroke-linecap="butt" stroke-linejoin="miter"/>
        <path d="M 0,35.1378 L 18.8976,35.1378 " stroke="#FFFFFF" stroke-width="0.88585" stroke-linecap="butt" stroke-linejoin="miter" fill="none"/>
        <path d="M 18.0118,29.8228 C 18.0118,31.8898 16.5354,33.3661 14.4685,33.3661 C 12.4015,33.3661 10.6299,31.8898 10.6299,29.8228 C 10.6299,27.7559 12.4015,25.9842 14.4685,25.9842 C 16.5354,25.9842 18.0118,27.7559 18.0118,29.8228 Z Z " stroke="#FFFFFF" stroke-width="0.88585" stroke-linecap="butt" stroke-linejoin="miter" fill="none"/>
        <path d="M 15.3543,29.8228 C 15.3543,30.4134 15.059,30.7087 14.4685,30.7087 C 13.8779,30.7087 13.2874,30.4134 13.2874,29.8228 C 13.2874,29.2323 13.8779,28.6417 14.4685,28.6417 C 15.059,28.6417 15.3543,29.2323 15.3543,29.8228 Z Z " fill="#FFFFFF" stroke="#FFFFFF" stroke-width="0.88585" stroke-linecap="butt" stroke-linejoin="miter"/>
        <path d="M 8.26770000000002,29.8228 C 8.26770000000002,31.8898 6.49600000000001,33.3661 4.42910000000001,33.3661 C 2.65740000000002,33.3661 0.885800000000017,31.8898 0.885800000000017,29.8228 C 0.885800000000017,27.7559 2.65740000000002,25.9842 4.42910000000001,25.9842 C 6.49600000000001,25.9842 8.26770000000002,27.7559 8.26770000000002,29.8228 Z Z " stroke="#FFFFFF" stroke-width="0.88585" stroke-linecap="butt" stroke-linejoin="miter" fill="none"/>
        <path d="M 2.95270000000002,31.2992 L 5.90550000000002,28.3465 " stroke="#FFFFFF" stroke-width="1.32875" stroke-linecap="round" stroke-linejoin="miter" fill="none"/>
        <path d="M 2.95270000000002,28.3465 L 5.90550000000002,31.2992 " stroke="#FFFFFF" stroke-width="1.32875" stroke-linecap="round" stroke-linejoin="miter" fill="none"/>
        <path d="M 12.9921,21.8504 C 12.9921,23.622 11.5157,25.3937 9.44880000000001,25.3937 C 7.3818,25.3937 5.61020000000002,23.622 5.61020000000002,21.8504 C 5.61020000000002,19.7835 7.3818,18.0118 9.44880000000001,18.0118 C 11.5157,18.0118 12.9921,19.7835 12.9921,21.8504 Z Z " stroke="#FFFFFF" stroke-width="0.88585" stroke-linecap="butt" stroke-linejoin="miter" fill="none"/>
        <path d="M 8.56290000000001,23.3268 L 7.3818,22.1457 " stroke="#FFFFFF" stroke-width="1.32875" stroke-linecap="round" stroke-linejoin="miter" fill="none"/>
        <path d="M 11.5157,20.6693 L 8.56290000000001,23.3268 " stroke="#FFFFFF" stroke-width="1.32875" stroke-linecap="round" stroke-linejoin="miter" fill="none"/>
        <path d="M 0,4.13380000000001 L 6.49600000000001,0 L 25.0984,0 L 18.8976,4.13380000000001 L 0,4.13380000000001 Z " fill="#046897" stroke="#FFFFFF" stroke-width="0.88585" stroke-linecap="butt" stroke-linejoin="miter"/>
        <path d="M 18.8976,37.5 L 24.8031,32.7756 L 24.8031,0 L 18.8976,4.13380000000001 L 18.8976,37.5 Z " fill="#046897" stroke="#FFFFFF" stroke-width="0.88585" stroke-linecap="butt" stroke-linejoin="miter"/>
        <path d="M 0,16.8307 L 18.8976,16.8307 " stroke="#FFFFFF" stroke-width="0.4429" stroke-linecap="butt" stroke-linejoin="miter" fill="none"/>
        <path d="M 10.3346,10.0394 L 10.3346,6.49599999999998 L 1.47630000000001,6.49599999999998 L 1.47630000000001,10.0394 L 10.3346,10.0394 Z " fill="#1C467E" stroke="#FFFFFF" stroke-width="0.88585" stroke-linecap="butt" stroke-linejoin="miter"/>
        <path d="M 2.3622,8.56299999999999 L 9.44880000000001,8.56299999999999 Z " fill="#000000" stroke-width="1px" stroke="#000000"/>
        <path d="M 2.3622,8.56299999999999 L 9.44880000000001,8.56299999999999 " stroke="#FFFFFF" stroke-width="0.88585" stroke-linecap="butt" stroke-linejoin="miter" fill="none"/>
        <path d="M 24.8031,15.3543 C 25.3937,15.3543 25.3937,15.3543 25.3937,15.3543 C 29.5275,15.3543 30.4134,19.1929 30.4134,19.1929 C 30.4134,15.059 30.4134,15.059 30.4134,15.059 C 30.4134,15.059 29.5275,11.2205 25.3937,11.2205 C 24.8031,11.2205 24.8031,11.2205 24.8031,11.2205 Z " fill="#FFFFFF" stroke="none"/>
        <path d="M 24.8031,15.3543 C 25.3937,15.3543 25.3937,15.3543 25.3937,15.3543 C 29.5275,15.3543 30.4134,19.1929 30.4134,19.1929 C 30.4134,15.059 30.4134,15.059 30.4134,15.059 C 30.4134,15.059 29.5275,11.2205 25.3937,11.2205 C 24.8031,11.2205 24.8031,11.2205 24.8031,11.2205 Z " stroke="#000000" stroke-width="0.88585" stroke-linecap="butt" stroke-linejoin="miter" fill="none"/>
        <path d="M 30.4134,14.7638 C 30.4134,19.4882 30.4134,19.4882 30.4134,19.4882 C 29.8228,25.0984 19.7834,24.8031 19.7834,24.8031 C 19.7834,25.0984 19.7834,25.0984 19.7834,25.0984 C 19.7834,28.937 19.7834,28.937 19.7834,28.937 C 13.2874,22.4409 13.2874,22.4409 13.2874,22.4409 C 19.7834,15.9449 19.7834,15.9449 19.7834,15.9449 C 19.7834,20.0787 19.7834,20.0787 19.7834,20.0787 C 19.7834,20.0787 30.1181,20.374 30.4134,14.7638 Z " fill="#FFFFFF" stroke="none"/>
        <path d="M 30.4134,14.7638 C 30.4134,19.4882 30.4134,19.4882 30.4134,19.4882 C 29.8228,25.0984 19.7834,24.8031 19.7834,24.8031 C 19.7834,25.0984 19.7834,25.0984 19.7834,25.0984 C 19.7834,28.937 19.7834,28.937 19.7834,28.937 C 13.2874,22.4409 13.2874,22.4409 13.2874,22.4409 C 19.7834,15.9449 19.7834,15.9449 19.7834,15.9449 C 19.7834,20.0787 19.7834,20.0787 19.7834,20.0787 C 19.7834,20.0787 30.1181,20.374 30.4134,14.7638 Z " stroke="#000000" stroke-width="0.88585" stroke-linecap="butt" stroke-linejoin="miter" fill="none"/>
      </g>
      <!--emf-blob end-->
    </g>
  </g>
</svg>

