<svg xmlns="http://www.w3.org/2000/svg" xmlns:xlink="http://www.w3.org/1999/xlink" version="1.1" viewBox="0 0 153 108" >
  <title><![CDATA[Cisco file engine]]></title>
  <g transform=" scale(3.000000) ">
    <!--converted by libvisio2svg-->
    <g>
      <!--emf-blob start-->
      <g>
        <path d="M 0,35.7148 L 45.16,35.7148 L 45.16,6.19839999999999 L 0,6.19839999999999 L 0,35.7148 Z " fill="#046897" stroke="#FFFFFF" stroke-width="0.8855" stroke-linecap="butt" stroke-linejoin="miter"/>
        <path d="M 50.1778,28.0405 L 45.16,35.7148 L 45.16,6.19839999999999 L 50.1778,0 L 50.1778,28.0405 Z " fill="#046897" stroke="#FFFFFF" stroke-width="0.8855" stroke-linecap="butt" stroke-linejoin="miter"/>
        <path d="M 7.67430000000002,0 L 50.1778,0 L 45.16,6.19839999999999 L 0,6.19839999999999 L 7.67430000000002,0 Z " fill="#046897" stroke="#FFFFFF" stroke-width="0.8855" stroke-linecap="butt" stroke-linejoin="miter"/>
        <path d="M 6.49360000000001,13.8727 L 2.65650000000005,13.8727 L 2.65650000000005,12.692 L 6.49360000000001,12.692 L 6.49360000000001,10.9211 L 10.9211,13.2824 L 6.49360000000001,15.9388 L 6.49360000000001,13.8727 Z " fill="#FFFFFF" stroke-width="1px" stroke="#FFFFFF"/>
        <path d="M 6.49360000000001,21.5469 L 2.65650000000005,21.5469 L 2.65650000000005,20.0711 L 6.49360000000001,20.0711 L 6.49360000000001,18.3001 L 10.9211,20.9566 L 6.49360000000001,23.3179 L 6.49360000000001,21.5469 Z " fill="#FFFFFF" stroke-width="1px" stroke="#FFFFFF"/>
        <path d="M 6.49360000000001,28.926 L 2.65650000000005,28.926 L 2.65650000000005,27.7454 L 6.49360000000001,27.7454 L 6.49360000000001,25.6792 L 10.9211,28.3357 L 6.49360000000001,30.697 L 6.49360000000001,28.926 Z " fill="#FFFFFF" stroke-width="1px" stroke="#FFFFFF"/>
        <path d="M 37.1906,20.3663 L 42.5036,20.3663 L 42.5036,21.5469 L 37.1906,21.5469 L 37.1906,23.6131 L 32.7632,20.9566 L 37.1906,18.5953 L 37.1906,20.3663 Z " fill="#FFFFFF" stroke-width="1px" stroke="#FFFFFF"/>
        <path d="M 40.1423,21.5469 L 35.1245,21.5469 L 35.1245,20.3663 L 40.1423,20.3663 L 40.1423,18.3001 L 44.5697,20.9566 L 40.1423,23.3179 L 40.1423,21.5469 Z " fill="#FFFFFF" stroke-width="1px" stroke="#FFFFFF"/>
        <path d="M 15.0534,23.6131 C 31.5825,23.6131 31.5825,23.6131 31.5825,23.6131 C 31.5825,14.1679 31.5825,14.1679 31.5825,14.1679 C 31.5825,13.5775 30.4019,13.5775 30.4019,13.5775 C 22.1373,13.5775 22.1373,13.5775 22.1373,13.5775 C 22.1373,11.8065 22.1373,11.8065 22.1373,11.8065 C 16.5292,11.8065 16.5292,11.8065 16.5292,11.8065 C 16.5292,13.2824 16.5292,13.2824 16.5292,13.2824 C 15.0534,13.2824 15.0534,13.2824 15.0534,13.2824 Z Z " fill="#046897" stroke="#FFFFFF" stroke-width="0.8855" stroke-linecap="butt" stroke-linejoin="miter"/>
        <path d="M 13.8727,25.0889 C 30.4019,25.0889 30.4019,25.0889 30.4019,25.0889 C 30.4019,15.6437 30.4019,15.6437 30.4019,15.6437 C 30.4019,15.0533 28.9261,15.0533 28.9261,15.0533 C 20.6615,15.0533 20.6615,15.0533 20.6615,15.0533 C 20.6615,13.2824 20.6615,13.2824 20.6615,13.2824 C 15.3485,13.2824 15.3485,13.2824 15.3485,13.2824 C 15.3485,14.7582 15.3485,14.7582 15.3485,14.7582 C 13.8727,14.7582 13.8727,14.7582 13.8727,14.7582 Z Z " fill="#046897" stroke="#FFFFFF" stroke-width="0.8855" stroke-linecap="butt" stroke-linejoin="miter"/>
        <path d="M 12.1017000000001,26.5647 C 28.6309000000001,26.5647 28.6309000000001,26.5647 28.6309000000001,26.5647 C 28.6309000000001,17.4147 28.6309000000001,17.4147 28.6309000000001,17.4147 C 28.6309000000001,16.5292 27.4502000000001,16.8243 27.4502000000001,16.8243 C 19.1857000000001,16.8243 19.1857000000001,16.8243 19.1857000000001,16.8243 C 19.1857000000001,15.0533 19.1857000000001,15.0533 19.1857000000001,15.0533 C 13.5776,15.0533 13.5776,15.0533 13.5776,15.0533 C 13.5776,16.234 13.5776,16.234 13.5776,16.234 C 12.1017000000001,16.234 12.1017000000001,16.234 12.1017000000001,16.234 Z Z " fill="#046897" stroke="#FFFFFF" stroke-width="0.8855" stroke-linecap="butt" stroke-linejoin="miter"/>
      </g>
      <!--emf-blob end-->
    </g>
  </g>
</svg>

