<svg xmlns="http://www.w3.org/2000/svg" xmlns:xlink="http://www.w3.org/1999/xlink" version="1.1" viewBox="0 0 90 78" >
  <title><![CDATA[Cisco 1000]]></title>
  <g transform=" scale(3.000000) ">
    <!--converted by libvisio2svg-->
    <g>
      <!--emf-blob start-->
      <g>
        <path d="M 18.8875,7.673 L 25.6752,20.6582 Z " fill="#595959" stroke-width="1px" stroke="#595959"/>
        <path d="M 18.8875,7.673 L 25.6752,20.6582 " stroke="none" stroke-width="0" fill="none"/>
        <path d="M 22.4289,0 L 10.3291,0 L 6.78769999999997,2.36090000000002 L 18.8875,2.36090000000002 L 22.4289,0 Z " fill="#046897" stroke="#FFFFFF" stroke-width="0.88535" stroke-linecap="butt" stroke-linejoin="miter"/>
        <path d="M 25.6752,20.6582 L 25.6752,25.9703 L 29.2167,23.9045 L 29.2167,18.5924 L 22.4289,5.31209999999999 L 22.4289,0 L 18.8875,2.36090000000002 L 18.8875,7.673 Z " fill="#046897" stroke-width="1px" stroke="#046897"/>
        <path d="M 25.6752,20.6582 L 25.6752,25.9703 L 29.2167,23.9045 L 29.2167,18.5924 L 22.4289,5.31209999999999 L 22.4289,0 L 18.8875,2.36090000000002 L 18.8875,7.673 " stroke="#FFFFFF" stroke-width="0.88535" stroke-linecap="butt" stroke-linejoin="miter" fill="none"/>
        <path d="M 25.6752,20.6582 L 18.8875,7.673 L 18.8875,7.673 L 18.8875,2.36090000000002 L 6.78769999999997,2.36090000000002 L 6.78769999999997,7.673 L 6.78769999999997,7.673 L 0,20.6582 L 0,20.6582 L 0,25.9703 L 25.6752,25.9703 L 25.6752,20.6582 L 25.6752,20.6582 Z " fill="#046897" stroke="#FFFFFF" stroke-width="0.88535" stroke-linecap="butt" stroke-linejoin="miter"/>
        <path d="M 12.6901,14.1656 L 13.2803,14.1656 L 13.2803,19.1826 L 16.8217,19.1826 L 12.9852,23.9045 L 9.14859999999999,19.1826 L 12.6901,19.1826 L 12.6901,14.1656 Z " fill="#FFFFFF" stroke-width="1px" stroke="#FFFFFF"/>
        <path d="M 13.2803,13.8705 L 12.6901,13.8705 L 12.6901,8.8535 L 9.14859999999999,8.8535 L 12.9852,4.13159999999999 L 16.8217,8.8535 L 13.2803,8.8535 L 13.2803,13.8705 Z " fill="#FFFFFF" stroke-width="1px" stroke="#FFFFFF"/>
      </g>
      <!--emf-blob end-->
    </g>
  </g>
</svg>

