<svg xmlns="http://www.w3.org/2000/svg" xmlns:xlink="http://www.w3.org/1999/xlink" version="1.1" viewBox="0 0 141 114" >
  <title><![CDATA[Cisco CA]]></title>
  <g transform=" scale(3.000000) ">
    <!--converted by libvisio2svg-->
    <g>
      <!--emf-blob start-->
      <g>
        <path d="M 36.6142,21.5552 L 33.0709,25.9843 L 5.0197,25.9843 L 9.44889999999998,21.5552 L 36.6142,21.5552 Z " fill="#000000" stroke="#FFFFFF" stroke-width="0.88585" stroke-linecap="butt" stroke-linejoin="miter"/>
        <path d="M 5.0197,31.2993 L 5.0197,25.9843 L 31.8898,25.9843 L 31.8898,31.2993 L 5.0197,31.2993 Z " fill="#046897" stroke="#FFFFFF" stroke-width="0.88585" stroke-linecap="butt" stroke-linejoin="miter"/>
        <path d="M 4.72449999999998,4.7244 L 31.8898,4.7244 L 31.8898,25.0985 L 4.72449999999998,25.0985 L 4.72449999999998,4.7244 Z " fill="#046897" stroke="#FFFFFF" stroke-width="0.88585" stroke-linecap="butt" stroke-linejoin="miter"/>
        <path d="M 31.8898,25.0985 L 36.319,20.3741 L 36.319,0 L 31.8898,4.7244 L 31.8898,25.0985 Z " fill="#046897" stroke="#FFFFFF" stroke-width="0.88585" stroke-linecap="butt" stroke-linejoin="miter"/>
        <path d="M 41.9292,35.7284 L 43.9961,31.5945 L 39.2717,31.5945 L 37.2048,35.7284 L 41.9292,35.7284 Z " fill="#046897" stroke="#FFFFFF" stroke-width="0.88585" stroke-linecap="butt" stroke-linejoin="miter"/>
        <path d="M 37.2048,35.7284 L 41.9292,35.7284 L 41.9292,36.9095 L 37.2048,36.9095 L 37.2048,35.7284 Z " fill="#046897" stroke="#FFFFFF" stroke-width="0.88585" stroke-linecap="butt" stroke-linejoin="miter"/>
        <path d="M 41.9292,36.9095 L 41.9292,35.7284 L 43.9961,31.5945 L 43.9961,34.252 L 41.9292,36.9095 Z " fill="#046897" stroke="#FFFFFF" stroke-width="0.88585" stroke-linecap="butt" stroke-linejoin="miter"/>
        <path d="M 31.8898,31.2993 L 31.8898,26.2796 L 36.6142,21.5552 L 36.6142,26.5748 L 31.8898,31.2993 Z " fill="#046897" stroke="#FFFFFF" stroke-width="0.88585" stroke-linecap="butt" stroke-linejoin="miter"/>
        <path d="M 9.15359999999998,7.08659999999998 C 27.1654,7.08659999999998 27.1654,7.08659999999998 27.1654,7.08659999999998 C 28.3465,7.08659999999998 29.5276,7.97249999999997 29.5276,9.15359999999998 C 29.5276,20.3741 29.5276,20.3741 29.5276,20.3741 C 29.5276,21.5552 28.3465,22.7363 27.1654,22.7363 C 9.15359999999998,22.7363 9.15359999999998,22.7363 9.15359999999998,22.7363 C 7.97250000000003,22.7363 7.08670000000001,21.5552 7.08670000000001,20.3741 C 7.08670000000001,9.15359999999998 7.08670000000001,9.15359999999998 7.08670000000001,9.15359999999998 C 7.08670000000001,7.97249999999997 7.97250000000003,7.08659999999998 9.15359999999998,7.08659999999998 Z Z " fill="#046897" stroke="#FFFFFF" stroke-width="0.88585" stroke-linecap="butt" stroke-linejoin="miter"/>
        <path d="M 36.319,0 L 10.0394,0 L 4.72449999999998,4.7244 L 31.8898,4.7244 L 36.319,0 Z " fill="#046897" stroke="#FFFFFF" stroke-width="0.88585" stroke-linecap="butt" stroke-linejoin="miter"/>
        <path d="M 31.004,37.7953 L 31.004,36.0237 L 34.5473,31.2993 L 34.5473,34.252 L 31.004,37.7953 Z " fill="#046897" stroke="#FFFFFF" stroke-width="0.88585" stroke-linecap="butt" stroke-linejoin="miter"/>
        <path d="M 31.004,36.0237 L 0,36.0237 L 3.54340000000002,31.2993 L 34.5473,31.2993 L 31.004,36.0237 Z " fill="#046897" stroke="#FFFFFF" stroke-width="0.88585" stroke-linecap="butt" stroke-linejoin="miter"/>
        <path d="M 31.004,36.0237 L 31.004,37.7953 L 0,37.7953 L 0,36.0237 L 31.004,36.0237 Z " fill="#046897" stroke="#FFFFFF" stroke-width="0.88585" stroke-linecap="butt" stroke-linejoin="miter"/>
        <path d="M 42.815,31.5945 C 46.3583,29.8229 43.4056,22.441 36.319,25.9843 Z " stroke="#046897" stroke-width="0.88585" stroke-linecap="butt" stroke-linejoin="miter" fill="none"/>
        <path d="M 17.7166,13.878 C 18.6024,13.878 18.6024,13.878 18.6024,13.878 C 18.8977,14.1733 18.8977,14.1733 18.8977,14.1733 C 19.7835,14.1733 19.7835,14.1733 19.7835,14.1733 C 20.6694,13.2874 20.6694,13.2874 20.6694,13.2874 C 21.5552,13.2874 21.5552,13.2874 21.5552,13.2874 C 22.1457,14.1733 22.1457,14.1733 22.1457,14.1733 C 23.0316,14.1733 23.0316,14.1733 23.0316,14.1733 C 23.9174,13.2874 23.9174,13.2874 23.9174,13.2874 C 24.8032,13.2874 24.8032,13.2874 24.8032,13.2874 C 25.3938,14.1733 25.3938,14.1733 25.3938,14.1733 C 26.2796,14.1733 26.2796,14.1733 26.2796,14.1733 C 26.5749,13.5827 26.5749,13.5827 26.5749,13.5827 C 28.9371,15.0591 28.9371,15.0591 28.9371,15.0591 C 27.1654,16.2402 27.1654,16.2402 27.1654,16.2402 C 17.7166,16.2402 17.7166,16.2402 17.7166,16.2402 C 17.7166,16.5355 17.7166,16.5355 17.7166,16.5355 C 16.2402,16.5355 16.2402,16.5355 16.2402,16.5355 C 15.9449,16.5355 15.6497,16.8307 15.3544,17.126 C 14.7638,18.3071 13.5827,18.8977 12.1064,18.8977 C 9.7441,18.8977 7.97250000000003,17.126 7.97250000000003,15.0591 C 7.97250000000003,12.6969 9.7441,10.9252 12.1064,10.9252 C 13.5827,10.9252 14.7638,11.8111 15.3544,12.9922 C 15.6497,13.2874 15.9449,13.2874 16.2402,13.2874 C 17.7166,13.2874 17.7166,13.2874 17.7166,13.2874 C 17.7166,13.878 17.7166,13.878 17.7166,13.878 Z " fill="#FFFFFF" stroke="none"/>
        <path d="M 28.0512,15.6496 C 17.7166,15.6496 17.7166,15.6496 17.7166,15.6496 C 17.4213,15.6496 16.8308,15.6496 16.2402,15.9449 C 16.8308,16.2402 17.4213,16.2402 17.7166,16.2402 Z " stroke="#000000" stroke-width="0.4429" stroke-linecap="butt" stroke-linejoin="round" fill="none"/>
        <path d="M 28.3465,14.7638 C 18.3071,14.7638 18.3071,14.7638 18.3071,14.7638 C 17.7166,14.7638 16.8308,14.7638 16.5355,14.4685 Z " stroke="#000000" stroke-width="0.4429" stroke-linecap="butt" stroke-linejoin="round" fill="none"/>
        <path d="M 12.1064,18.6024 C 13.878,18.6024 15.6497,17.126 15.6497,15.0591 C 15.6497,12.9922 13.878,11.5158 12.1064,11.5158 C 10.0394,11.5158 8.56299999999999,12.9922 8.56299999999999,15.0591 C 8.56299999999999,17.126 10.0394,18.6024 12.1064,18.6024 Z Z " fill="#FFFFFF" stroke="#000000" stroke-width="0.4429" stroke-linecap="butt" stroke-linejoin="round"/>
        <path d="M 10.0394,15.9449 C 10.63,15.9449 10.9253,15.6496 10.9253,15.0591 C 10.9253,14.4685 10.63,14.1733 10.0394,14.1733 C 9.44889999999998,14.1733 9.15359999999998,14.4685 9.15359999999998,15.0591 C 9.15359999999998,15.6496 9.44889999999998,15.9449 10.0394,15.9449 Z Z " fill="#FFFFFF" stroke="#000000" stroke-width="0.4429" stroke-linecap="butt" stroke-linejoin="round"/>
      </g>
      <!--emf-blob end-->
    </g>
  </g>
</svg>

