<svg xmlns="http://www.w3.org/2000/svg" xmlns:xlink="http://www.w3.org/1999/xlink" version="1.1" viewBox="0 0 129 114" >
  <title><![CDATA[Cisco unity express]]></title>
  <g transform=" scale(3.000000) ">
    <!--converted by libvisio2svg-->
    <g>
      <!--emf-blob start-->
      <g>
        <path d="M 42.7911,8.26310000000001 C 42.7911,12.9849 33.3475,16.8214 21.5431,16.8214 C 9.44359999999995,16.8214 0,12.9849 0,8.26310000000001 C 0,28.9209 0,28.9209 0,28.9209 C 0,33.3476 9.44359999999995,37.184 21.5431,37.184 C 33.3475,37.184 42.7911,33.3476 42.7911,28.9209 Z Z " fill="#126A98" stroke="#FFFFFF" stroke-width="0.88535" stroke-linecap="butt" stroke-linejoin="miter"/>
        <path d="M 21.5431,16.8214 C 33.3475,16.8214 42.7911,12.9849 42.7911,8.26310000000001 C 42.7911,3.8365 33.3475,0 21.5431,0 C 9.44359999999995,0 0,3.8365 0,8.26310000000001 C 0,12.9849 9.44359999999995,16.8214 21.5431,16.8214 Z Z " fill="#126A98" stroke="#FFFFFF" stroke-width="0.88535" stroke-linecap="butt" stroke-linejoin="miter"/>
        <path d="M 16.8213,5.01690000000002 L 18.592,7.67289999999997 L 11.8044,9.14850000000001 L 13.28,7.96800000000002 L 2.65599999999995,6.19740000000002 L 5.31199999999995,4.42669999999998 L 15.3458,5.90230000000003 L 16.8213,5.01690000000002 Z " fill="#FFFFFF" stroke-width="1px" stroke="#FFFFFF"/>
        <path d="M 16.8213,5.01690000000002 L 18.592,7.67289999999997 L 11.8044,9.14850000000001 L 13.28,7.96800000000002 L 2.65599999999995,6.19740000000002 L 5.31199999999995,4.42669999999998 L 15.3458,5.90230000000003 Z Z " fill="none" stroke="none"/>
        <defs>
          <clipPath id="clip-282475249">
            <path d="M 16.8213,5.01690000000002 L 18.592,7.67289999999997 L 11.8044,9.14850000000001 L 13.28,7.96800000000002 L 2.65599999999995,6.19740000000002 L 5.31199999999995,4.42669999999998 L 15.3458,5.90230000000003 Z"/>
          </clipPath>
        </defs>
        <path d="M 26.2649,11.5094 L 25.0844,8.85340000000002 L 31.2818,7.67289999999997 L 30.1013,8.55829999999997 L 40.1351,10.3289 L 37.7742,12.0996 L 27.7404,10.3289 L 26.2649,11.5094 Z " fill="#FFFFFF" stroke-width="1px" stroke="#FFFFFF"/>
        <path d="M 26.2649,11.5094 L 25.0844,8.85340000000002 L 31.2818,7.67289999999997 L 30.1013,8.55829999999997 L 40.1351,10.3289 L 37.7742,12.0996 L 27.7404,10.3289 Z Z " fill="none" stroke="none"/>
        <defs>
          <clipPath id="clip-1622650073">
            <path d="M 26.2649,11.5094 L 25.0844,8.85340000000002 L 31.2818,7.67289999999997 L 30.1013,8.55829999999997 L 40.1351,10.3289 L 37.7742,12.0996 L 27.7404,10.3289 Z"/>
          </clipPath>
        </defs>
        <path d="M 23.0187,3.54140000000001 L 29.8062,1.77069999999998 L 29.8062,4.72179999999997 L 28.0355,4.42669999999998 L 24.7893,7.08269999999999 L 21.5431,6.49250000000001 L 25.0844,3.8365 L 23.0187,3.54140000000001 Z " fill="#FFFFFF" stroke-width="1px" stroke="#FFFFFF"/>
        <path d="M 23.0187,3.54140000000001 L 29.8062,1.77069999999998 L 29.8062,4.72179999999997 L 28.0355,4.42669999999998 L 24.7893,7.08269999999999 L 21.5431,6.49250000000001 L 25.0844,3.8365 Z Z " fill="none" stroke="none"/>
        <defs>
          <clipPath id="clip-984943658">
            <path d="M 23.0187,3.54140000000001 L 29.8062,1.77069999999998 L 29.8062,4.72179999999997 L 28.0355,4.42669999999998 L 24.7893,7.08269999999999 L 21.5431,6.49250000000001 L 25.0844,3.8365 Z"/>
          </clipPath>
        </defs>
        <path d="M 20.0676,14.1654 L 13.5751,15.3458 L 13.28,12.3947 L 15.0506999999999,12.6898 L 18.592,9.73869999999999 L 21.8382,10.0338 L 18.0017999999999,13.5751 L 20.0676,14.1654 Z " fill="#FFFFFF" stroke-width="1px" stroke="#FFFFFF"/>
        <path d="M 20.0676,14.1654 L 13.5751,15.3458 L 13.28,12.3947 L 15.0506999999999,12.6898 L 18.592,9.73869999999999 L 21.8382,10.0338 L 18.0017999999999,13.5751 Z Z " fill="none" stroke="none"/>
        <defs>
          <clipPath id="clip-1144108930">
            <path d="M 20.0676,14.1654 L 13.5751,15.3458 L 13.28,12.3947 L 15.0506999999999,12.6898 L 18.592,9.73869999999999 L 21.8382,10.0338 L 18.0017999999999,13.5751 Z"/>
          </clipPath>
        </defs>
        <path d="M 39.2498,31.5769 L 39.2498,24.1991 L 34.8231,27.7405 L 39.2498,31.5769 Z " fill="#FFFFFF" stroke="#000000" stroke-width="0.44265" stroke-linecap="butt" stroke-linejoin="miter"/>
        <path d="M 3.54129999999998,31.5769 L 3.54129999999998,24.1991 L 7.96799999999996,27.7405 L 3.54129999999998,31.5769 Z " fill="#FFFFFF" stroke="#000000" stroke-width="0.44265" stroke-linecap="butt" stroke-linejoin="miter"/>
        <path d="M 6.49249999999995,17.1165 L 6.49249999999995,24.4942 L 2.06579999999997,20.9529 L 6.49249999999995,17.1165 Z " fill="#FFFFFF" stroke="#000000" stroke-width="0.44265" stroke-linecap="butt" stroke-linejoin="miter"/>
        <path d="M 36.0035,17.1165 L 36.0035,24.4942 L 40.4302,20.9529 L 36.0035,17.1165 Z " fill="#FFFFFF" stroke="#000000" stroke-width="0.44265" stroke-linecap="butt" stroke-linejoin="miter"/>
        <path d="M 36.8889,20.6578 L 34.2329,20.6578 " stroke="#FFFFFF" stroke-width="1.328" stroke-linecap="butt" stroke-linejoin="miter" fill="none"/>
        <path d="M 38.0693,27.7405 L 41.3155,27.7405 " stroke="#FFFFFF" stroke-width="1.328" stroke-linecap="butt" stroke-linejoin="miter" fill="none"/>
        <path d="M 4.72179999999997,27.7405 L 1.18049999999999,27.7405 " stroke="#FFFFFF" stroke-width="1.328" stroke-linecap="butt" stroke-linejoin="miter" fill="none"/>
        <path d="M 5.01689999999996,20.9529 L 8.26309999999995,20.9529 " stroke="#FFFFFF" stroke-width="1.328" stroke-linecap="butt" stroke-linejoin="miter" fill="none"/>
        <path d="M 30.9867,23.0187 L 30.9867,36.0036 L 11.8044,36.0036 L 11.5093,23.0187 L 30.9867,23.0187 Z " fill="#FFFFFF" stroke="#000000" stroke-width="0.44265" stroke-linecap="butt" stroke-linejoin="miter"/>
        <path d="M 26.2649,19.1822 C 26.2649,19.1822 27.1502,19.1822 27.1502,19.7725 C 27.4453,22.4285 27.4453,22.4285 27.4453,22.4285 C 32.4622,23.3138 32.4622,23.3138 32.4622,23.3138 C 33.0524,22.1334 33.0524,22.1334 33.0524,22.1334 C 31.872,19.1822 31.872,19.1822 31.872,19.1822 C 25.3795,17.4116 19.1822,18.0018 19.1822,18.0018 C 19.1822,18.0018 19.1822,18.0018 19.1822,18.0018 C 19.1822,18.0018 17.1164,17.4116 10.624,19.1822 C 9.44359999999995,22.1334 9.44359999999995,22.1334 9.44359999999995,22.1334 C 9.73869999999999,23.3138 9.73869999999999,23.3138 9.73869999999999,23.3138 C 14.7556,22.4285 14.7556,22.4285 14.7556,22.4285 C 15.0506999999999,19.7725 15.0506999999999,19.7725 15.0506999999999,19.7725 C 15.3458,19.1822 15.936,19.1822 15.936,19.1822 Z Z " fill="#FFFFFF" stroke="#000000" stroke-width="0.44265" stroke-linecap="butt" stroke-linejoin="miter"/>
        <path d="M 29.8062,23.6089 L 29.8062,25.9698 L 12.6898,25.9698 L 12.6898,23.6089 L 29.8062,23.6089 Z " fill="#FFFFFF" stroke="#000000" stroke-width="0.44265" stroke-linecap="butt" stroke-linejoin="miter"/>
        <path d="M 29.8062,27.1502 L 29.8062,35.1182 L 12.6898,35.1182 L 12.6898,27.1502 L 29.8062,27.1502 Z " fill="#FFFFFF" stroke="#020202" stroke-width="0.44265" stroke-linecap="butt" stroke-linejoin="miter"/>
        <path d="M 28.6258,34.528 L 13.8702,34.528 L 13.8702,27.4453 L 28.6258,27.4453 L 28.6258,34.528 Z " fill="none" stroke="#030303" stroke-width="0.44265" stroke-linecap="butt" stroke-linejoin="miter"/>
        <path d="M 12.6898,27.1502 L 21.5431,31.5769 L 29.8062,27.1502 L 12.6898,27.1502 Z " fill="#FFFFFF" stroke="#020202" stroke-width="0.44265" stroke-linecap="butt" stroke-linejoin="miter"/>
      </g>
      <!--emf-blob end-->
    </g>
  </g>
</svg>

