<svg xmlns="http://www.w3.org/2000/svg" xmlns:xlink="http://www.w3.org/1999/xlink" version="1.1" viewBox="0 0 132 117" >
  <title><![CDATA[Cisco security]]></title>
  <g transform=" scale(3.000000) ">
    <!--converted by libvisio2svg-->
    <g>
      <!--emf-blob start-->
      <g>
        <path d="M 37.1928,33.3555 L 37.1928,26.2712 L 0,26.2712 L 0,33.3555 L 37.1928,33.3555 Z " fill="#046897" stroke="#FFFFFF" stroke-width="0.88555" stroke-linecap="butt" stroke-linejoin="miter"/>
        <path d="M 25.6808,30.1085 L 35.1266,30.1085 Z " fill="#046897" stroke-width="1px" stroke="#046897"/>
        <path d="M 25.6808,30.1085 L 35.1266,30.1085 " stroke="#FFFFFF" stroke-width="0.88555" stroke-linecap="butt" stroke-linejoin="miter" fill="none"/>
        <path d="M 25.6808,29.8134 L 35.1266,29.8134 Z " fill="#046897" stroke-width="1px" stroke="#046897"/>
        <path d="M 25.6808,29.8134 L 35.1266,29.8134 " stroke="#FFFFFF" stroke-width="0.88555" stroke-linecap="butt" stroke-linejoin="miter" fill="none"/>
        <path d="M 43.3916,26.5664 L 43.3916,20.3676 L 37.1928,26.2712 L 37.1928,33.3555 L 43.3916,26.5664 Z " fill="#046897" stroke="#FFFFFF" stroke-width="0.88555" stroke-linecap="butt" stroke-linejoin="miter"/>
        <path d="M 30.4037,38.964 L 30.4037,37.4881 L 33.9458,32.7652 L 33.9458,35.717 L 30.4037,38.964 Z " fill="#046897" stroke="#FFFFFF" stroke-width="0.88555" stroke-linecap="butt" stroke-linejoin="miter"/>
        <path d="M 30.4037,37.4881 L 30.4037,38.964 L 0.590400000000045,38.964 L 0.590400000000045,37.4881 L 30.4037,37.4881 Z " fill="#046897" stroke="#FFFFFF" stroke-width="0.88555" stroke-linecap="butt" stroke-linejoin="miter"/>
        <path d="M 30.4037,37.4881 L 0.885500000000036,37.4881 L 4.13249999999999,32.7652 L 33.9458,32.7652 L 30.4037,37.4881 Z " fill="#046897" stroke="#FFFFFF" stroke-width="0.88555" stroke-linecap="butt" stroke-linejoin="miter"/>
        <path d="M 43.3916,20.3676 L 6.19880000000001,20.3676 L 0,26.2712 L 37.1928,26.2712 L 43.3916,20.3676 Z " fill="#046897" stroke="#FFFFFF" stroke-width="0.88555" stroke-linecap="butt" stroke-linejoin="miter"/>
        <path d="M 36.3073,20.3676 L 11.5121,20.3676 L 7.37950000000001,24.5001 L 32.1748,24.5001 L 36.3073,20.3676 Z " fill="#046897" stroke="#FFFFFF" stroke-width="0.88555" stroke-linecap="butt" stroke-linejoin="miter"/>
        <path d="M 32.1748,22.729 L 32.1748,4.13259999999997 L 6.49400000000003,4.13259999999997 L 6.49400000000003,22.729 L 32.1748,22.729 Z " fill="#046897" stroke="#FFFFFF" stroke-width="0.88555" stroke-linecap="butt" stroke-linejoin="miter"/>
        <path d="M 8.85540000000003,8.26509999999996 C 8.85540000000003,6.19889999999998 10.6265,5.90369999999996 10.6265,5.90369999999996 C 10.6265,5.90369999999996 25.6808,5.90369999999996 27.4519,5.90369999999996 C 30.1085,5.90369999999996 29.8133,8.26509999999996 29.8133,8.26509999999996 C 29.8133,8.26509999999996 29.8133,17.4157 29.8133,18.8917 C 29.8133,20.0724 28.0422,20.6627 28.0422,20.6627 C 28.0422,20.6627 12.6928,20.6627 10.9217,20.6627 C 9.44580000000002,20.6627 8.85540000000003,18.8917 8.85540000000003,18.8917 Z Z " fill="#046897" stroke="#FFFFFF" stroke-width="0.88555" stroke-linecap="butt" stroke-linejoin="miter"/>
        <path d="M 36.6025,0 L 10.9217,0 L 6.49400000000003,4.13259999999997 L 32.1748,4.13259999999997 L 36.6025,0 Z " fill="#046897" stroke="#FFFFFF" stroke-width="0.88555" stroke-linecap="butt" stroke-linejoin="miter"/>
        <path d="M 36.6025,18.8917 L 36.6025,0 L 32.1748,4.13259999999997 L 32.1748,22.729 L 36.6025,18.8917 Z " fill="#046897" stroke="#FFFFFF" stroke-width="0.88555" stroke-linecap="butt" stroke-linejoin="miter"/>
        <path d="M 23.3193,9.15069999999997 L 23.3193,17.7109 Z " fill="#046897" stroke-width="1px" stroke="#046897"/>
        <path d="M 23.3193,9.15069999999997 L 23.3193,17.7109 " stroke="#FFFFFF" stroke-width="0.88555" stroke-linecap="butt" stroke-linejoin="miter" fill="none"/>
        <path d="M 15.0542,17.7109 L 15.0542,7.9699 Z " fill="#046897" stroke-width="1px" stroke="#046897"/>
        <path d="M 15.0542,17.7109 L 15.0542,7.9699 " stroke="#FFFFFF" stroke-width="0.88555" stroke-linecap="butt" stroke-linejoin="miter" fill="none"/>
        <path d="M 15.0542,17.7109 C 16.8253,21.8435 18.3012,17.1206 18.3012,17.1206 C 26.2711,17.1206 26.2711,17.1206 26.2711,17.1206 C 25.3856,19.1868 24.2049,19.482 24.2049,19.482 C 17.1205,19.482 17.1205,19.482 17.1205,19.482 C 15.6446,19.1868 15.0542,17.7109 15.0542,17.7109 Z Z " fill="#046897" stroke="#FFFFFF" stroke-width="0.88555" stroke-linecap="butt" stroke-linejoin="miter"/>
        <path d="M 17.1205,12.6928 L 21.5482,12.6928 Z " fill="#046897" stroke-width="1px" stroke="#046897"/>
        <path d="M 17.1205,12.6928 L 21.5482,12.6928 " stroke="#FFFFFF" stroke-width="0.88555" stroke-linecap="butt" stroke-linejoin="miter" fill="none"/>
        <path d="M 17.1205,13.5784 L 21.5482,13.5784 Z " fill="#046897" stroke-width="1px" stroke="#046897"/>
        <path d="M 17.1205,13.5784 L 21.5482,13.5784 " stroke="#FFFFFF" stroke-width="0.88555" stroke-linecap="butt" stroke-linejoin="miter" fill="none"/>
        <path d="M 17.1205,15.0543 L 21.5482,15.0543 Z " fill="#046897" stroke-width="1px" stroke="#046897"/>
        <path d="M 17.1205,15.0543 L 21.5482,15.0543 " stroke="#FFFFFF" stroke-width="0.88555" stroke-linecap="butt" stroke-linejoin="miter" fill="none"/>
        <path d="M 17.1205,15.9398 L 21.5482,15.9398 Z " fill="#046897" stroke-width="1px" stroke="#046897"/>
        <path d="M 17.1205,15.9398 L 21.5482,15.9398 " stroke="#FFFFFF" stroke-width="0.88555" stroke-linecap="butt" stroke-linejoin="miter" fill="none"/>
        <path d="M 23.3193,8.85550000000001 C 22.729,7.37959999999998 22.729,7.37959999999998 22.729,7.37959999999998 C 15.0542,7.37959999999998 15.0542,7.37959999999998 15.0542,7.37959999999998 C 15.0542,7.37959999999998 13.8735,7.37959999999998 13.5783,9.44579999999996 C 13.5783,11.2169 13.5783,11.2169 13.5783,11.2169 C 15.0542,11.2169 15.0542,11.2169 15.0542,11.2169 C 15.0542,8.85550000000001 15.0542,8.85550000000001 15.0542,8.85550000000001 Z " fill="#046897" stroke="none"/>
        <path d="M 23.3193,8.85550000000001 C 22.729,7.37959999999998 22.729,7.37959999999998 22.729,7.37959999999998 C 15.0542,7.37959999999998 15.0542,7.37959999999998 15.0542,7.37959999999998 C 15.0542,7.37959999999998 13.8735,7.37959999999998 13.5783,9.44579999999996 C 13.5783,11.2169 13.5783,11.2169 13.5783,11.2169 C 15.0542,11.2169 15.0542,11.2169 15.0542,11.2169 C 15.0542,8.85550000000001 15.0542,8.85550000000001 15.0542,8.85550000000001 Z " stroke="#FFFFFF" stroke-width="0.88555" stroke-linecap="butt" stroke-linejoin="miter" fill="none"/>
        <path d="M 15.0542,7.37959999999998 C 15.0542,7.37959999999998 13.5783,7.37959999999998 13.2831,9.44579999999996 C 13.2831,11.2169 13.2831,11.2169 13.2831,11.2169 Z " fill="#046897" stroke="none"/>
        <path d="M 15.0542,7.37959999999998 C 15.0542,7.37959999999998 13.5783,7.37959999999998 13.2831,9.44579999999996 C 13.2831,11.2169 13.2831,11.2169 13.2831,11.2169 Z " stroke="#FFFFFF" stroke-width="0.88555" stroke-linecap="butt" stroke-linejoin="miter" fill="none"/>
        <path d="M 17.1205,10.3314 L 21.5482,10.3314 Z " fill="#046897" stroke-width="1px" stroke="#046897"/>
        <path d="M 17.1205,10.3314 L 21.5482,10.3314 " stroke="#FFFFFF" stroke-width="0.88555" stroke-linecap="butt" stroke-linejoin="miter" fill="none"/>
        <path d="M 17.1205,9.44579999999996 L 21.5482,9.44579999999996 Z " fill="#046897" stroke-width="1px" stroke="#046897"/>
        <path d="M 17.1205,9.44579999999996 L 21.5482,9.44579999999996 " stroke="#FFFFFF" stroke-width="0.88555" stroke-linecap="butt" stroke-linejoin="miter" fill="none"/>
        <path d="M 15.3494,17.7109 L 15.3494,8.56029999999998 Z " fill="#046897" stroke-width="1px" stroke="#046897"/>
        <path d="M 15.3494,17.7109 L 15.3494,8.56029999999998 " stroke="#FFFFFF" stroke-width="0.88555" stroke-linecap="butt" stroke-linejoin="miter" fill="none"/>
      </g>
      <!--emf-blob end-->
    </g>
  </g>
</svg>

