<svg xmlns="http://www.w3.org/2000/svg" xmlns:xlink="http://www.w3.org/1999/xlink" version="1.1" viewBox="0 0 141 114" >
  <title><![CDATA[Cisco works]]></title>
  <g transform=" scale(3.000000) ">
    <!--converted by libvisio2svg-->
    <g>
      <!--emf-blob start-->
      <g>
        <path d="M 5.3134,30.1092 L 5.3134,25.091 L 32.4707,25.091 L 32.4707,30.1092 L 5.3134,30.1092 Z " fill="#046897" stroke="#FFFFFF" stroke-width="0.88555" stroke-linecap="butt" stroke-linejoin="miter"/>
        <path d="M 36.8985,20.6632 L 36.8985,25.6814 L 32.4707,30.1092 L 32.4707,25.091 L 5.3134,25.091 Z " fill="#046897" stroke-width="1px" stroke="#046897"/>
        <path d="M 36.8985,20.6632 L 36.8985,25.6814 L 32.4707,30.1092 L 32.4707,25.091 L 5.3134,25.091 " stroke="#FFFFFF" stroke-width="0.88555" stroke-linecap="butt" stroke-linejoin="miter" fill="none"/>
        <path d="M 5.3134,20.6632 L 36.8985,20.6632 Z " fill="#000000" stroke-width="1px" stroke="#000000"/>
        <path d="M 5.3134,20.6632 L 36.8985,20.6632 " stroke="#FFFFFF" stroke-width="0.88555" stroke-linecap="butt" stroke-linejoin="bevel" fill="none"/>
        <path d="M 32.4707,25.091 L 36.8985,20.6632 Z " fill="#000000" stroke-width="1px" stroke="#000000"/>
        <path d="M 32.4707,25.091 L 36.8985,20.6632 " stroke="#FFFFFF" stroke-width="0.88555" stroke-linecap="butt" stroke-linejoin="bevel" fill="none"/>
        <path d="M 30.9948,33.9467 L 30.9948,30.9948 L 0,30.9948 L 3.54230000000001,27.4525 L 34.537,27.4525 L 34.537,30.4044 L 30.9948,33.9467 Z " fill="#046897" stroke="#FFFFFF" stroke-width="0.88555" stroke-linecap="butt" stroke-linejoin="miter"/>
        <path d="M 30.9948,30.9948 L 30.9948,33.9467 L 0,33.9467 L 0,30.9948 L 30.9948,30.9948 Z " fill="#046897" stroke="#FFFFFF" stroke-width="0.88555" stroke-linecap="butt" stroke-linejoin="miter"/>
        <path d="M 30.9948,30.9948 L 34.537,27.4525 Z " fill="#000000" stroke-width="1px" stroke="#000000"/>
        <path d="M 30.9948,30.9948 L 34.537,27.4525 " stroke="#FFFFFF" stroke-width="0.88555" stroke-linecap="butt" stroke-linejoin="bevel" fill="none"/>
        <path d="M 32.4707,25.091 L 32.4707,4.72300000000001 L 5.3134,4.72300000000001 L 5.3134,25.091 L 32.4707,25.091 Z " fill="#046897" stroke="#FFFFFF" stroke-width="0.88555" stroke-linecap="butt" stroke-linejoin="miter"/>
        <path d="M 32.4707,25.091 L 36.8985,20.6632 L 36.8985,0 L 10.0364,0 L 5.3134,4.72300000000001 L 32.4707,4.72300000000001 L 32.4707,25.091 Z " fill="#046897" stroke="#FFFFFF" stroke-width="0.88555" stroke-linecap="butt" stroke-linejoin="miter"/>
        <path d="M 30.1092,22.7295 L 30.1092,7.08449999999999 L 7.67489999999998,7.08449999999999 L 7.67489999999998,22.7295 L 30.1092,22.7295 Z " fill="#046897" stroke="#FFFFFF" stroke-width="0.88555" stroke-linecap="butt" stroke-linejoin="miter"/>
        <path d="M 32.4707,4.72300000000001 L 36.8985,0 Z " fill="#000000" stroke-width="1px" stroke="#000000"/>
        <path d="M 32.4707,4.72300000000001 L 36.8985,0 " stroke="#FFFFFF" stroke-width="0.88555" stroke-linecap="butt" stroke-linejoin="bevel" fill="none"/>
        <path d="M 46.9349,34.8322 L 42.5071,28.3381 L 38.0793,31.5852 L 42.5071,37.7841 L 46.9349,34.8322 Z " fill="#046897" stroke="#FFFFFF" stroke-width="0.88555" stroke-linecap="butt" stroke-linejoin="miter"/>
        <path d="M 40.1456,29.814 C 39.5552,28.3381 38.0793,29.2236 38.3745,27.1573 C 38.6697,24.7958 37.1937,23.3199 34.2418,24.5006 Z " stroke="#046897" stroke-width="0.88555" stroke-linecap="butt" stroke-linejoin="miter" fill="none"/>
        <path d="M 14.169,13.8739 C 15.645,13.8739 16.8257,12.6931 16.8257,11.2172 C 16.8257,9.74119999999999 15.645,8.56049999999999 14.169,8.56049999999999 C 12.9883,8.56049999999999 11.8075,9.74119999999999 11.8075,11.2172 C 11.8075,12.6931 12.9883,13.8739 14.169,13.8739 Z Z " stroke="#FFFFFF" stroke-width="0.88555" stroke-linecap="butt" stroke-linejoin="miter" fill="none"/>
        <path d="M 23.3199,13.8739 C 24.7958,13.8739 25.9766,12.6931 25.9766,11.2172 C 25.9766,9.74119999999999 24.7958,8.56049999999999 23.3199,8.56049999999999 C 21.8439,8.56049999999999 20.9584,9.74119999999999 20.9584,11.2172 C 20.9584,12.6931 21.8439,13.8739 23.3199,13.8739 Z Z " stroke="#FFFFFF" stroke-width="0.88555" stroke-linecap="butt" stroke-linejoin="miter" fill="none"/>
        <path d="M 18.8921,21.5488 C 20.368,21.5488 21.2536,20.368 21.2536,19.1872 C 21.2536,17.7113 20.368,16.5306 18.8921,16.5306 C 17.4161,16.5306 16.2354,17.7113 16.2354,19.1872 C 16.2354,20.368 17.4161,21.5488 18.8921,21.5488 Z Z " stroke="#FFFFFF" stroke-width="0.88555" stroke-linecap="butt" stroke-linejoin="miter" fill="none"/>
        <path d="M 14.169,13.8739 L 15.645,16.2354 L 16.2354,14.7594 L 17.7113,16.8257 " stroke="#FFFFFF" stroke-width="0.88555" stroke-linecap="butt" stroke-linejoin="miter" fill="none"/>
        <path d="M 20.0728,17.1209 L 21.2536,14.7594 L 22.1391,15.9402 L 23.3199,13.8739 " stroke="#FFFFFF" stroke-width="0.88555" stroke-linecap="butt" stroke-linejoin="miter" fill="none"/>
        <path d="M 20.9584,11.2172 L 18.5969,11.8075 L 19.1872,10.6268 L 16.8257,11.2172 " stroke="#FFFFFF" stroke-width="0.88555" stroke-linecap="butt" stroke-linejoin="miter" fill="none"/>
      </g>
      <!--emf-blob end-->
    </g>
  </g>
</svg>

