<svg xmlns="http://www.w3.org/2000/svg" xmlns:xlink="http://www.w3.org/1999/xlink" version="1.1" viewBox="0 0 117 153" >
  <title><![CDATA[Class 4_5 switch]]></title>
  <g transform=" scale(3.000000) ">
    <!--converted by libvisio2svg-->
    <g>
      <!--emf-blob start-->
      <g>
        <path d="M 29.8146,8.26549999999997 L 38.08,0 L 37.7849,0.295199999999966 L 9.44619999999998,0.295199999999966 L 0,8.26549999999997 L 29.8146,8.26549999999997 L 29.8146,8.26549999999997 Z " fill="#046897" stroke="#FFFFFF" stroke-width="0.8856" stroke-linecap="butt" stroke-linejoin="miter"/>
        <path d="M 29.8146,50.1831 L 29.8146,8.26549999999997 L 0,8.26549999999997 L 0,50.1831 L 29.8146,50.1831 Z " fill="#046897" stroke="#FFFFFF" stroke-width="0.8856" stroke-linecap="butt" stroke-linejoin="miter"/>
        <path d="M 29.8146,27.7483 L 0,27.7483 Z " fill="#000000" stroke-width="1px" stroke="#000000"/>
        <path d="M 29.8146,27.7483 L 0,27.7483 " stroke="#FFFFFF" stroke-width="0.8856" stroke-linecap="butt" stroke-linejoin="miter" fill="none"/>
        <path d="M 3.54230000000001,37.7849 L 12.9885,37.7849 Z " fill="#000000" stroke-width="1px" stroke="#000000"/>
        <path d="M 3.54230000000001,37.7849 L 12.9885,37.7849 " stroke="#FFFFFF" stroke-width="0.8856" stroke-linecap="butt" stroke-linejoin="miter" fill="none"/>
        <path d="M 3.54230000000001,39.5561 L 12.9885,39.5561 Z " fill="#000000" stroke-width="1px" stroke="#000000"/>
        <path d="M 3.54230000000001,39.5561 L 12.9885,39.5561 " stroke="#FFFFFF" stroke-width="0.8856" stroke-linecap="butt" stroke-linejoin="miter" fill="none"/>
        <path d="M 3.54230000000001,41.6224 L 12.9885,41.6224 Z " fill="#000000" stroke-width="1px" stroke="#000000"/>
        <path d="M 3.54230000000001,41.6224 L 12.9885,41.6224 " stroke="#FFFFFF" stroke-width="0.8856" stroke-linecap="butt" stroke-linejoin="miter" fill="none"/>
        <path d="M 3.54230000000001,43.6888 L 12.9885,43.6888 Z " fill="#000000" stroke-width="1px" stroke="#000000"/>
        <path d="M 3.54230000000001,43.6888 L 12.9885,43.6888 " stroke="#FFFFFF" stroke-width="0.8856" stroke-linecap="butt" stroke-linejoin="miter" fill="none"/>
        <path d="M 3.54230000000001,45.7551 L 12.9885,45.7551 Z " fill="#000000" stroke-width="1px" stroke="#000000"/>
        <path d="M 3.54230000000001,45.7551 L 12.9885,45.7551 " stroke="#FFFFFF" stroke-width="0.8856" stroke-linecap="butt" stroke-linejoin="miter" fill="none"/>
        <path d="M 38.08,41.3272 L 38.08,0.295199999999966 L 29.8146,8.26549999999997 L 29.8146,50.1831 L 38.08,41.3272 Z " fill="#046897" stroke="#FFFFFF" stroke-width="0.8856" stroke-linecap="butt" stroke-linejoin="miter"/>
        <path d="M 29.8146,28.3387 L 0,28.3387 Z " fill="#000000" stroke-width="1px" stroke="#000000"/>
        <path d="M 29.8146,28.3387 L 0,28.3387 " stroke="#FFFFFF" stroke-width="0.8856" stroke-linecap="butt" stroke-linejoin="miter" fill="none"/>
      </g>
      <!--emf-blob end-->
    </g>
  </g>
</svg>

