<svg xmlns="http://www.w3.org/2000/svg" xmlns:xlink="http://www.w3.org/1999/xlink" version="1.1" viewBox="0 0 312 180" >
  <title><![CDATA[Cloud]]></title>
  <g transform=" scale(3.000000) ">
    <!--converted by libvisio2svg-->
    <g>
      <!--emf-blob start-->
      <g>
        <path d="M 37.7898,9.15230000000003 C 20.9616,5.90469999999999 11.8093,14.4664 13.2855,22.1425 C 13.2855,22.4377 13.2855,22.4377 13.2855,22.4377 C 0,24.7996 3.5428,40.4469 10.0379,40.4469 C 10.6284,40.4469 10.6284,40.4469 10.6284,40.4469 C 8.85700000000003,47.8277 24.5043,55.2086 33.0661,51.3705 C 33.6566,50.7801 33.6566,50.7801 33.6566,50.7801 C 36.6089,57.5704 47.8277,58.4561 58.4561,58.7514 C 67.9036,59.0466 73.2177,58.4561 77.351,54.3229 C 77.9415,54.3229 77.9415,54.3229 77.9415,54.3229 C 92.9983,55.5038 99.7887,45.1707 96.5411,37.7898 C 97.4268,37.4946 97.4268,37.4946 97.4268,37.4946 C 102.4458,36.3137 103.0363,24.5044 94.1793,22.733 C 94.4745,22.1425 94.4745,22.1425 94.4745,22.1425 C 98.3125,14.4664 89.1603,7.3809 76.7605,8.56180000000001 C 75.8748000000001,8.26660000000004 75.8748000000001,8.26660000000004 75.8748000000001,8.26660000000004 C 67.0179000000001,0 41.3326,1.47620000000001 38.3803,9.44749999999999 Z Z " fill="#FFFFFF" stroke="#0F73A0" stroke-width="0.8857" stroke-linecap="butt" stroke-linejoin="miter"/>
      </g>
      <!--emf-blob end-->
    </g>
  </g>
</svg>

