<svg xmlns="http://www.w3.org/2000/svg" xmlns:xlink="http://www.w3.org/1999/xlink" version="1.1" viewBox="0 0 93 96" >
  <title><![CDATA[Communications server]]></title>
  <g transform=" scale(3.000000) ">
    <!--converted by libvisio2svg-->
    <g>
      <!--emf-blob start-->
      <g>
        <path d="M 25.3937,31.2992 L 25.3937,5.31489999999997 L 0,5.31489999999997 L 0,31.2992 L 25.3937,31.2992 Z " fill="#046897" stroke="#FFFFFF" stroke-width="0.88585" stroke-linecap="butt" stroke-linejoin="miter"/>
        <path d="M 12.6968,22.7362 C 15.059,22.7362 17.126,20.6693 17.126,18.3071 C 17.126,15.6496 15.059,13.5826 12.6968,13.5826 C 10.3346,13.5826 8.26769999999999,15.6496 8.26769999999999,18.3071 C 8.26769999999999,20.6693 10.3346,22.7362 12.6968,22.7362 Z Z " stroke="#FFFFFF" stroke-width="2.6575" stroke-linecap="butt" stroke-linejoin="miter" fill="none"/>
        <path d="M 12.6968,13.5826 L 20.6693,13.5826 " stroke="#FFFFFF" stroke-width="2.6575" stroke-linecap="butt" stroke-linejoin="miter" fill="none"/>
        <path d="M 20.6693,10.6299 L 20.6693,16.5354 L 23.9173,13.5826 L 20.6693,10.6299 Z " fill="#FFFFFF" stroke="#FFFFFF" stroke-width="0.4429" stroke-linecap="butt" stroke-linejoin="miter"/>
        <path d="M 8.26769999999999,18.3071 L 8.26769999999999,10.3346 " stroke="#FFFFFF" stroke-width="2.6575" stroke-linecap="butt" stroke-linejoin="miter" fill="none"/>
        <path d="M 5.31490000000002,10.3346 L 10.9252,10.3346 L 8.26769999999999,6.79129999999998 L 5.31490000000002,10.3346 Z " fill="#FFFFFF" stroke="#FFFFFF" stroke-width="0.4429" stroke-linecap="butt" stroke-linejoin="miter"/>
        <path d="M 17.126,18.3071 L 17.126,25.9842 " stroke="#FFFFFF" stroke-width="2.6575" stroke-linecap="butt" stroke-linejoin="miter" fill="none"/>
        <path d="M 20.0787,25.9842 L 14.4685,25.9842 L 17.126,29.5275 L 20.0787,25.9842 Z " fill="#FFFFFF" stroke="#FFFFFF" stroke-width="0.4429" stroke-linecap="butt" stroke-linejoin="miter"/>
        <path d="M 12.6968,22.7362 L 5.0197,22.7362 " stroke="#FFFFFF" stroke-width="2.6575" stroke-linecap="butt" stroke-linejoin="miter" fill="none"/>
        <path d="M 4.7244,25.689 L 4.7244,20.0787 L 1.47629999999998,22.7362 L 4.7244,25.689 Z " fill="#FFFFFF" stroke="#FFFFFF" stroke-width="0.4429" stroke-linecap="butt" stroke-linejoin="miter"/>
        <path d="M 25.3937,5.31489999999997 L 0,5.31489999999997 L 6.49599999999998,0 L 30.7087,0 L 30.7087,0.295199999999966 L 30.7087,25.9842 L 25.3937,31.2992 L 25.3937,5.31489999999997 L 25.3937,5.31489999999997 Z " fill="#046897" stroke="#FFFFFF" stroke-width="0.88585" stroke-linecap="butt" stroke-linejoin="miter"/>
        <path d="M 25.3937,5.31489999999997 L 30.7087,0 " stroke="#FFFFFF" stroke-width="0.88585" stroke-linecap="butt" stroke-linejoin="miter" fill="none"/>
      </g>
      <!--emf-blob end-->
    </g>
  </g>
</svg>

