<svg xmlns="http://www.w3.org/2000/svg" xmlns:xlink="http://www.w3.org/1999/xlink" version="1.1" viewBox="0 0 147 111" >
  <title><![CDATA[Congtent switch module]]></title>
  <g transform=" scale(3.000000) ">
    <!--converted by libvisio2svg-->
    <g>
      <!--emf-blob start-->
      <g>
        <path d="M 44.2827,36.0166 L 12.6944,36.0166 L 12.6944,4.13300000000004 L 44.2827,4.13300000000004 L 44.2827,36.0166 Z " fill="#046897" stroke="#FFFFFF" stroke-width="0.88565" stroke-linecap="butt" stroke-linejoin="miter"/>
        <path d="M 16.5322,0 L 48.1205,0 L 44.2827,4.13300000000004 L 12.3991,4.13300000000004 L 16.5322,0 Z " fill="#046897" stroke="#FFFFFF" stroke-width="0.88565" stroke-linecap="butt" stroke-linejoin="miter"/>
        <path d="M 48.1205,29.817 L 44.2827,35.7214 L 44.2827,3.83780000000002 L 48.1205,0 L 48.1205,29.817 Z " fill="#046897" stroke="#FFFFFF" stroke-width="0.88565" stroke-linecap="butt" stroke-linejoin="miter"/>
        <path d="M 12.6944,36.0166 L 0,36.0166 L 0,4.13300000000004 L 12.6944,4.13300000000004 L 12.6944,36.0166 Z " fill="#046897" stroke="#FFFFFF" stroke-width="0.88565" stroke-linecap="butt" stroke-linejoin="miter"/>
        <path d="M 4.13300000000004,0 L 16.8274,0 L 12.9896,4.13300000000004 L 0.295200000000023,4.13300000000004 L 4.13300000000004,0 Z " fill="#046897" stroke="#FFFFFF" stroke-width="0.88565" stroke-linecap="butt" stroke-linejoin="miter"/>
        <path d="M 12.6944,4.13300000000004 L 12.6944,36.0166 Z " fill="#046897" stroke-width="1px" stroke="#046897"/>
        <path d="M 12.6944,4.13300000000004 L 12.6944,36.0166 " stroke="#FFFFFF" stroke-width="0.88565" stroke-linecap="butt" stroke-linejoin="miter" fill="none"/>
        <path d="M 12.9896,15.6465 L 0.295200000000023,15.6465 Z " fill="#000000" stroke-width="1px" stroke="#000000"/>
        <path d="M 12.9896,15.6465 L 0.295200000000023,15.6465 " stroke="#FFFFFF" stroke-width="0.88565" stroke-linecap="butt" stroke-linejoin="miter" fill="none"/>
        <path d="M 23.9126,19.4844 L 17.1226,19.4844 L 17.1226,18.3035 L 14.4657,20.0748 L 17.1226,21.5509 L 17.1226,20.37 L 23.9126,20.37 L 23.9126,19.4844 Z " fill="#FFFFFF" stroke-width="1px" stroke="#FFFFFF"/>
        <path d="M 25.0935,23.027 L 20.0748,27.7505 L 19.1891,26.8648 L 18.5987,29.817 L 21.8461,29.2266 L 20.9605,28.6361 L 25.6839,23.6174 L 25.0935,23.027 Z " fill="#FFFFFF" stroke-width="1px" stroke="#FFFFFF"/>
        <path d="M 28.0457,24.7983 L 28.0457,31.5883 L 26.8648,31.5883 L 28.6361,33.95 L 30.4074,31.5883 L 29.2266,31.5883 L 29.2266,24.7983 L 28.0457,24.7983 Z " fill="#FFFFFF" stroke-width="1px" stroke="#FFFFFF"/>
        <path d="M 31.5883,23.6174 L 36.607,28.6361 L 35.7214,29.2266 L 38.6735,29.817 L 38.0831,26.8648 L 37.1974,27.7505 L 32.474,23.027 L 31.5883,23.6174 Z " fill="#FFFFFF" stroke-width="1px" stroke="#FFFFFF"/>
        <path d="M 33.3596,20.37 L 40.1496,20.37 L 40.1496,21.5509 L 42.8066,20.0748 L 40.1496,18.3035 L 40.1496,19.4844 L 33.3596,19.4844 L 33.3596,20.37 Z " fill="#FFFFFF" stroke-width="1px" stroke="#FFFFFF"/>
        <path d="M 32.474,17.1226 L 37.1974,12.1039 L 38.0831,12.9896 L 38.6735,10.0374 L 35.7214,10.6278 L 36.607,11.5135 L 31.5883,16.237 L 32.474,17.1226 Z " fill="#FFFFFF" stroke-width="1px" stroke="#FFFFFF"/>
        <path d="M 29.2266,15.3513 L 29.2266,8.26609999999999 L 30.4074,8.26609999999999 L 28.6361,5.90430000000003 L 26.8648,8.26609999999999 L 28.0457,8.26609999999999 L 28.0457,15.3513 L 29.2266,15.3513 Z " fill="#FFFFFF" stroke-width="1px" stroke="#FFFFFF"/>
        <path d="M 25.6839,16.237 L 20.9605,11.5135 L 21.8461,10.6278 L 18.5987,10.0374 L 19.1891,12.9896 L 20.0748,12.1039 L 25.0935,17.1226 L 25.6839,16.237 Z " fill="#FFFFFF" stroke-width="1px" stroke="#FFFFFF"/>
        <path d="M 34.5405,15.6465 C 32.1787,12.6944 27.7505,11.8087 24.5031,13.8752 C 21.2557,16.237 20.6652,20.6652 22.7318,23.9126 C 25.0935,27.16 29.5218,27.7505 32.7692,25.6839 C 36.0166,23.3222 36.607,18.8939 34.5405,15.6465 Z Z " fill="#FFFFFF" stroke="none"/>
        <path d="M 5.01870000000002,10.0374 L 3.24740000000003,10.0374 L 3.24740000000003,9.447 L 2.36170000000004,10.0374 L 3.24740000000003,10.6278 L 3.24740000000003,10.3326 L 5.01870000000002,10.3326 L 5.01870000000002,10.0374 Z " fill="#FFFFFF" stroke-width="1px" stroke="#FFFFFF"/>
        <path d="M 5.31389999999999,10.923 L 4.13300000000004,12.3991 L 3.83780000000002,12.1039 L 3.54259999999999,12.9896 L 4.42830000000004,12.9896 L 4.13300000000004,12.6944 L 5.60910000000001,11.2183 L 5.31389999999999,10.923 Z " fill="#FFFFFF" stroke-width="1px" stroke="#FFFFFF"/>
        <path d="M 6.4948,11.5135 L 6.4948,13.58 L 6.19960000000003,13.58 L 6.4948,14.4657 L 7.08519999999999,13.58 L 6.79000000000002,13.58 L 6.79000000000002,11.5135 L 6.4948,11.5135 Z " fill="#FFFFFF" stroke-width="1px" stroke="#FFFFFF"/>
        <path d="M 7.38040000000001,11.2183 L 8.85650000000004,12.6944 L 8.56130000000002,12.9896 L 9.447,12.9896 L 9.447,12.1039 L 9.15170000000001,12.3991 L 7.67570000000001,10.923 L 7.38040000000001,11.2183 Z " fill="#FFFFFF" stroke-width="1px" stroke="#FFFFFF"/>
        <path d="M 7.97090000000003,10.3326 L 10.0374,10.3326 L 10.0374,10.6278 L 10.923,10.0374 L 10.0374,9.447 L 10.0374,10.0374 L 7.97090000000003,10.0374 L 7.97090000000003,10.3326 Z " fill="#FFFFFF" stroke-width="1px" stroke="#FFFFFF"/>
        <path d="M 7.67570000000001,9.15170000000001 L 9.15170000000001,7.67570000000001 L 9.447,7.97090000000003 L 9.447,7.08519999999999 L 8.56130000000002,7.38040000000001 L 8.85650000000004,7.38040000000001 L 7.38040000000001,8.85650000000004 L 7.67570000000001,9.15170000000001 Z " fill="#FFFFFF" stroke-width="1px" stroke="#FFFFFF"/>
        <path d="M 6.79000000000002,8.56130000000002 L 6.79000000000002,6.4948 L 7.08519999999999,6.4948 L 6.4948,5.90430000000003 L 6.19960000000003,6.4948 L 6.4948,6.4948 L 6.4948,8.56130000000002 L 6.79000000000002,8.56130000000002 Z " fill="#FFFFFF" stroke-width="1px" stroke="#FFFFFF"/>
        <path d="M 5.60910000000001,8.85650000000004 L 4.13300000000004,7.38040000000001 L 4.42830000000004,7.38040000000001 L 3.54259999999999,7.08519999999999 L 3.83780000000002,7.97090000000003 L 4.13300000000004,7.67570000000001 L 5.31389999999999,9.15170000000001 L 5.60910000000001,8.85650000000004 Z " fill="#FFFFFF" stroke-width="1px" stroke="#FFFFFF"/>
        <path d="M 8.26609999999999,8.85650000000004 C 7.67570000000001,7.97090000000003 6.19960000000003,7.67570000000001 5.31389999999999,8.26609999999999 C 4.42830000000004,8.85650000000004 4.13300000000004,10.3326 4.7235,11.2183 C 5.60910000000001,12.1039 6.79000000000002,12.3991 7.67570000000001,11.8087 C 8.85650000000004,11.2183 8.85650000000004,9.74220000000003 8.26609999999999,8.85650000000004 Z Z " fill="#FFFFFF" stroke="none"/>
        <path d="M 5.90430000000003,25.9792 L 5.90430000000003,31.5883 L 5.01870000000002,31.5883 L 6.19960000000003,33.95 L 7.67570000000001,31.5883 L 6.79000000000002,31.5883 L 6.79000000000002,25.9792 L 5.90430000000003,25.9792 Z " fill="#FFFFFF" stroke-width="1px" stroke="#FFFFFF"/>
        <path d="M 7.38040000000001,25.9792 L 9.447,31.2931 L 8.56130000000002,31.5883 L 10.6278,33.0644 L 11.2183,30.7026 L 10.3326,30.9979 L 8.26609999999999,25.6839 L 7.38040000000001,25.9792 Z " fill="#FFFFFF" stroke-width="1px" stroke="#FFFFFF"/>
        <path d="M 5.31389999999999,25.9792 L 3.24740000000003,31.2931 L 4.13300000000004,31.5883 L 2.06650000000002,33.0644 L 1.47610000000003,30.7026 L 2.36170000000004,30.9979 L 4.42830000000004,25.6839 L 5.31389999999999,25.9792 Z " fill="#FFFFFF" stroke-width="1px" stroke="#FFFFFF"/>
        <path d="M 5.90430000000003,17.1226 L 5.90430000000003,22.7318 L 5.01870000000002,22.7318 L 6.19960000000003,24.7983 L 7.67570000000001,22.7318 L 6.79000000000002,22.7318 L 6.79000000000002,17.1226 L 5.90430000000003,17.1226 Z " fill="#FFFFFF" stroke-width="1px" stroke="#FFFFFF"/>
      </g>
      <!--emf-blob end-->
    </g>
  </g>
</svg>

