<svg xmlns="http://www.w3.org/2000/svg" xmlns:xlink="http://www.w3.org/1999/xlink" version="1.1" viewBox="0 0 162 111" >
  <title><![CDATA[Content acquirer]]></title>
  <g transform=" scale(3.000000) ">
    <!--converted by libvisio2svg-->
    <g>
      <!--emf-blob start-->
      <g>
        <path d="M 0,36.01 L 48.1117,36.01 L 48.1117,6.49360000000001 L 0,6.49360000000001 L 0,36.01 Z " fill="#046897" stroke="#FFFFFF" stroke-width="0.8855" stroke-linecap="butt" stroke-linejoin="miter"/>
        <path d="M 53.4246,28.3357 L 48.1117,36.01 L 48.1117,6.49360000000001 L 53.4246,0 L 53.4246,28.3357 Z " fill="#046897" stroke="#FFFFFF" stroke-width="0.8855" stroke-linecap="butt" stroke-linejoin="miter"/>
        <path d="M 7.67430000000002,0 L 53.4246,0 L 48.1117,6.49360000000001 L 0,6.49360000000001 L 7.67430000000002,0 Z " fill="#046897" stroke="#FFFFFF" stroke-width="0.8855" stroke-linecap="butt" stroke-linejoin="miter"/>
        <path d="M 10.0356,21.547 L 2.65649999999999,21.547 L 2.65649999999999,20.3663 L 10.0356,20.3663 L 10.0356,18.5953 L 14.463,20.9567 L 10.0356,23.6131 L 10.0356,21.547 Z " fill="#FFFFFF" stroke-width="1px" stroke="#FFFFFF"/>
        <path d="M 38.9616,14.1679 L 31.2874,14.1679 L 31.2874,12.9872 L 38.9616,12.9872 L 38.9616,10.9211 L 43.0939,13.5776 L 38.9616,15.9389 L 38.9616,14.1679 Z " fill="#FFFFFF" stroke-width="1px" stroke="#FFFFFF"/>
        <path d="M 42.5036,21.547 L 31.2874,21.547 L 31.2874,20.3663 L 42.5036,20.3663 L 42.5036,18.5953 L 46.6359,20.9567 L 42.5036,23.6131 L 42.5036,21.547 Z " fill="#FFFFFF" stroke-width="1px" stroke="#FFFFFF"/>
        <path d="M 38.9616,29.2212 L 31.2874,29.2212 L 31.2874,27.7454 L 38.9616,27.7454 L 38.9616,25.9744 L 43.0939,28.6309 L 38.9616,30.9922 L 38.9616,29.2212 Z " fill="#FFFFFF" stroke-width="1px" stroke="#FFFFFF"/>
        <path d="M 29.5164,17.7099 C 29.5164,18.8905 26.5647,20.0712 22.7276,20.0712 C 19.1857,20.0712 16.234,18.8905 16.234,17.7099 C 16.234,23.318 16.234,23.318 16.234,23.318 C 16.234,24.7938 19.1857,25.6793 22.7276,25.6793 C 26.5647,25.6793 29.5164,24.7938 29.5164,23.318 Z Z " fill="#046897" stroke="#FFFFFF" stroke-width="0.8855" stroke-linecap="butt" stroke-linejoin="miter"/>
        <path d="M 22.7276,20.0712 C 26.5647,20.0712 29.5164,18.8905 29.5164,17.7099 C 29.5164,16.234 26.5647,15.3485 22.7276,15.3485 C 19.1857,15.3485 16.234,16.234 16.234,17.7099 C 16.234,18.8905 19.1857,20.0712 22.7276,20.0712 Z Z " fill="#046897" stroke="#FFFFFF" stroke-width="0.8855" stroke-linecap="butt" stroke-linejoin="miter"/>
      </g>
      <!--emf-blob end-->
    </g>
  </g>
</svg>

