<svg xmlns="http://www.w3.org/2000/svg" xmlns:xlink="http://www.w3.org/1999/xlink" version="1.1" viewBox="0 0 153 108" >
  <title><![CDATA[Content engine (cache director]]></title>
  <g transform=" scale(3.000000) ">
    <!--converted by libvisio2svg-->
    <g>
      <!--emf-blob start-->
      <g>
        <path d="M 0,35.7148 L 45.16,35.7148 L 45.16,6.19840000000005 L 0,6.19840000000005 L 0,35.7148 Z " fill="#046897" stroke="#FFFFFF" stroke-width="0.8855" stroke-linecap="butt" stroke-linejoin="miter"/>
        <path d="M 50.1778,28.3357 L 45.16,35.7148 L 45.16,6.19840000000005 L 50.1778,0 L 50.1778,28.3357 Z " fill="#046897" stroke="#FFFFFF" stroke-width="0.8855" stroke-linecap="butt" stroke-linejoin="miter"/>
        <path d="M 7.67419999999998,0 L 50.1778,0 L 45.16,6.19840000000005 L 0,6.19840000000005 L 7.67419999999998,0 Z " fill="#046897" stroke="#FFFFFF" stroke-width="0.8855" stroke-linecap="butt" stroke-linejoin="miter"/>
        <path d="M 10.0355,13.8727 L 2.65649999999999,14.1678 L 2.65649999999999,12.692 L 10.0355,12.692 L 10.0355,10.921 L 14.463,13.2823 L 10.0355,15.9388 L 10.0355,13.8727 Z " fill="#FFFFFF" stroke-width="1px" stroke="#FFFFFF"/>
        <path d="M 10.0355,21.5469 L 2.65649999999999,21.5469 L 2.65649999999999,20.3663 L 10.0355,20.3663 L 10.0355,18.3001 L 14.463,20.9566 L 10.0355,23.3179 L 10.0355,21.5469 Z " fill="#FFFFFF" stroke-width="1px" stroke="#FFFFFF"/>
        <path d="M 10.0355,28.926 L 2.65649999999999,28.926 L 2.65649999999999,27.7454 L 10.0355,27.7454 L 10.0355,25.9744 L 14.463,28.3357 L 10.0355,30.9922 L 10.0355,28.926 Z " fill="#FFFFFF" stroke-width="1px" stroke="#FFFFFF"/>
        <path d="M 35.4196,20.6614 L 42.7987,20.3663 L 42.7987,21.8421 L 35.4196,21.8421 L 35.4196,23.6131 L 30.9922,21.2518 L 35.4196,18.5953 L 35.4196,20.6614 Z " fill="#FFFFFF" stroke-width="1px" stroke="#FFFFFF"/>
        <path d="M 29.2212,16.8243 C 29.2212,17.7098 26.5647,18.5953 23.3179,18.5953 C 19.7759,18.5953 17.1195,17.7098 17.1195,16.8243 C 17.1195,24.4986 17.1195,24.4986 17.1195,24.4986 C 17.1195,25.3841 19.7759,26.2695 23.3179,26.2695 C 26.5647,26.2695 29.2212,25.3841 29.2212,24.4986 Z Z " fill="#FFFFFF" stroke="none"/>
        <path d="M 23.3179,18.5953 C 26.5647,18.5953 29.2212,17.7098 29.2212,16.8243 C 29.2212,15.6437 26.5647,15.0533 23.3179,15.0533 C 19.7759,15.0533 17.1195,15.6437 17.1195,16.8243 C 17.1195,17.7098 19.7759,18.5953 23.3179,18.5953 Z Z " fill="#046897" stroke="#FFFFFF" stroke-width="1.32825" stroke-linecap="butt" stroke-linejoin="miter"/>
        <path d="M 23.3179,27.155 C 26.5647,27.155 29.2212,26.2695 29.2212,25.3841 C 29.2212,24.2034 26.5647,23.3179 23.3179,23.3179 C 19.7759,23.3179 17.1195,24.2034 17.1195,25.3841 C 17.1195,26.2695 19.7759,27.155 23.3179,27.155 Z Z " fill="#FFFFFF" stroke="#FFFFFF" stroke-width="1.32825" stroke-linecap="butt" stroke-linejoin="miter"/>
      </g>
      <!--emf-blob end-->
    </g>
  </g>
</svg>

