<svg xmlns="http://www.w3.org/2000/svg" xmlns:xlink="http://www.w3.org/1999/xlink" version="1.1" viewBox="0 0 159 108" >
  <title><![CDATA[Content service switch 1100]]></title>
  <g transform=" scale(3.000000) ">
    <!--converted by libvisio2svg-->
    <g>
      <!--emf-blob start-->
      <g>
        <path d="M 42.2084,35.4197 L 42.2084,9.74039999999997 L 0,9.74039999999997 L 0,35.4197 L 42.2084,35.4197 Z " fill="#046897" stroke="#FFFFFF" stroke-width="0.8855" stroke-linecap="butt" stroke-linejoin="miter"/>
        <path d="M 0,9.74039999999997 L 12.692,0 L 52.2439,0 L 42.2084,9.74039999999997 L 0,9.74039999999997 Z " fill="#046897" stroke="#FFFFFF" stroke-width="0.8855" stroke-linecap="butt" stroke-linejoin="miter"/>
        <path d="M 42.2084,35.7148 L 51.9488,24.4986 L 51.9488,0 L 42.2084,9.74039999999997 L 42.2084,35.7148 Z " fill="#046897" stroke="#FFFFFF" stroke-width="0.8855" stroke-linecap="butt" stroke-linejoin="miter"/>
        <path d="M 16.234,18.8905 C 17.1195,15.0534 14.7582,12.9872 12.692,13.2824 C 12.3969,13.2824 12.3969,13.2824 12.3969,13.2824 C 11.8065,10.3308 7.37909999999999,11.2162 7.37909999999999,12.6921 C 7.37909999999999,12.6921 7.37909999999999,12.6921 7.37909999999999,12.6921 C 5.31290000000001,12.3969 2.95159999999998,15.9389 4.13229999999999,18.005 C 4.42750000000001,18.005 4.42750000000001,18.005 4.42750000000001,18.005 C 2.36130000000003,18.8905 2.06610000000001,21.2518 2.06610000000001,23.6131 C 2.06610000000001,25.9744 2.06610000000001,27.1551 3.24680000000001,28.0406 C 3.24680000000001,28.3357 3.24680000000001,28.3357 3.24680000000001,28.3357 C 2.95159999999998,31.5825 5.9033,33.3535 7.96940000000001,32.468 C 8.26460000000003,32.7632 8.26460000000003,32.7632 8.26460000000003,32.7632 C 8.55970000000002,33.9438 11.8065,33.9438 12.3969,31.8777 C 12.692,32.1729 12.692,32.1729 12.692,32.1729 C 14.7582,33.0583 16.8243,30.9922 16.5292,28.0406 C 16.5292,27.7454 16.5292,27.7454 16.5292,27.7454 C 18.8905,25.6793 18.5953,19.776 16.234,19.1857 Z Z " fill="#FFFFFF" stroke="none"/>
        <path d="M 37.7809,18.8905 C 38.6664,15.0534 36.3051,12.9872 33.9438,13.2824 C 33.9438,13.2824 33.9438,13.2824 33.9438,13.2824 C 33.3535,10.3308 28.6309,11.2162 28.6309,12.6921 C 28.6309,12.6921 28.6309,12.6921 28.6309,12.6921 C 26.5647,12.3969 24.4986,15.9389 25.6792,18.005 C 25.6792,18.005 25.6792,18.005 25.6792,18.005 C 23.9082,18.8905 23.6131,21.2518 23.3179,23.6131 C 23.3179,25.9744 23.6131,27.1551 24.7937,28.0406 C 24.7937,28.3357 24.7937,28.3357 24.7937,28.3357 C 24.2034,31.5825 27.4502,33.3535 29.5163,32.468 C 29.5163,32.7632 29.5163,32.7632 29.5163,32.7632 C 29.8115,33.9438 33.3535,33.9438 33.9438,31.8777 C 33.9438,32.1729 33.9438,32.1729 33.9438,32.1729 C 36.3051,33.0583 38.3713,30.9922 37.7809,28.0406 C 38.0761,27.7454 38.0761,27.7454 38.0761,27.7454 C 40.4374,25.6793 39.8471,19.776 37.7809,19.1857 Z Z " fill="#FFFFFF" stroke="none"/>
        <path d="M 11.2162,19.4808 L 8.85489999999999,16.8244 L 7.67419999999998,18.005 L 7.37909999999999,14.463 L 10.921,14.7582 L 9.74040000000002,15.9389 L 12.1017,18.3002 L 11.2162,19.4808 Z " fill="#046897" stroke-width="1px" stroke="#046897"/>
        <path d="M 11.2162,26.5648 L 8.85489999999999,28.9261 L 7.67419999999998,27.7454 L 7.37909999999999,31.2874 L 10.921,31.2874 L 9.74040000000002,29.8115 L 12.1017,27.4502 L 11.2162,26.5648 Z " fill="#046897" stroke-width="1px" stroke="#046897"/>
        <path d="M 8.85489999999999,23.6131 L 5.31290000000001,23.6131 L 5.31290000000001,25.3841 L 2.65649999999999,23.0228 L 5.31290000000001,20.3663 L 5.31290000000001,22.1373 L 8.85489999999999,22.1373 L 8.85489999999999,23.6131 Z " fill="#046897" stroke-width="1px" stroke="#046897"/>
        <path d="M 30.697,19.4808 L 33.0583,16.8244 L 34.5341,18.005 L 34.5341,14.463 L 30.9922,14.7582 L 32.1728,15.9389 L 29.8115,18.3002 L 30.697,19.4808 Z " fill="#046897" stroke-width="1px" stroke="#046897"/>
        <path d="M 30.697,26.5648 L 33.0583,28.9261 L 34.5341,27.7454 L 34.5341,31.2874 L 30.9922,31.2874 L 32.1728,29.8115 L 29.8115,27.4502 L 30.697,26.5648 Z " fill="#046897" stroke-width="1px" stroke="#046897"/>
        <path d="M 32.7631,23.6131 L 36.3051,23.6131 L 36.3051,25.3841 L 38.9616,23.0228 L 36.3051,20.3663 L 36.3051,22.1373 L 32.7631,22.1373 L 32.7631,23.6131 Z " fill="#046897" stroke-width="1px" stroke="#046897"/>
        <path d="M 17.4146,22.4325 L 24.2034,22.4325 L 24.2034,23.6131 L 17.4146,23.6131 L 17.4146,22.4325 Z " fill="#FFFFFF" stroke-width="1px" stroke="#FFFFFF"/>
        <path d="M 23.3179,23.6131 L 26.8599,23.6131 L 26.8599,25.3841 L 29.5163,23.0228 L 26.8599,20.3663 L 26.8599,22.1373 L 23.3179,22.1373 L 23.3179,23.6131 Z " fill="#046897" stroke-width="1px" stroke="#046897"/>
        <path d="M 18.005,23.6131 L 14.463,23.6131 L 14.463,25.3841 L 11.8065,23.0228 L 14.463,20.3663 L 14.463,22.1373 L 18.005,22.1373 L 18.005,23.6131 Z " fill="#046897" stroke-width="1px" stroke="#046897"/>
      </g>
      <!--emf-blob end-->
    </g>
  </g>
</svg>

