<svg xmlns="http://www.w3.org/2000/svg" xmlns:xlink="http://www.w3.org/1999/xlink" version="1.1" viewBox="0 0 105 111" >
  <title><![CDATA[Contact center]]></title>
  <g transform=" scale(3.000000) ">
    <!--converted by libvisio2svg-->
    <g>
      <!--emf-blob start-->
      <g>
        <path d="M 0,36.3189 L 0,3.54330000000004 L 31.004,3.54330000000004 L 31.004,36.3189 L 0,36.3189 Z " fill="#046897" stroke="#FFFFFF" stroke-width="0.88585" stroke-linecap="butt" stroke-linejoin="miter"/>
        <path d="M 3.24799999999999,0 L 0,3.54330000000004 L 31.004,3.54330000000004 L 34.252,0 L 3.24799999999999,0 Z " fill="#046897" stroke="#FFFFFF" stroke-width="0.88585" stroke-linecap="butt" stroke-linejoin="miter"/>
        <path d="M 34.252,33.0709000000001 L 34.252,0 L 31.004,3.54330000000004 L 31.004,36.3189 L 34.252,33.0709000000001 Z " fill="#046897" stroke="#FFFFFF" stroke-width="0.88585" stroke-linecap="butt" stroke-linejoin="miter"/>
        <path d="M 28.937,5.01959999999997 L 2.65749999999997,5.01959999999997 L 2.65749999999997,34.5472 L 28.937,34.5472 L 28.937,5.01959999999997 Z " fill="none" stroke="#FFFFFF" stroke-width="0.88585" stroke-linecap="butt" stroke-linejoin="miter"/>
        <path d="M 19.4882,29.5275 C 19.4882,31.5945 17.7166,33.0709000000001 15.6496,33.0709000000001 C 13.878,33.0709000000001 12.1063,31.5945 12.1063,29.5275 C 12.1063,27.4606 13.878,25.9842 15.6496,25.9842 C 17.7166,25.9842 19.4882,27.4606 19.4882,29.5275 Z Z " fill="#046897" stroke="#FFFFFF" stroke-width="0.88585" stroke-linecap="butt" stroke-linejoin="miter"/>
        <g transform=" scale(3.000000) ">
          <text font-family="Helvetica" fill="#FFFFFF" style="white-space:pre;" font-weight="700" text-anchor="start" x="0.0000" y="0.0000" font-size="5.9055"><![CDATA[V]]></text>
        </g>
        <g transform=" scale(3.000000) ">
</g>
        <g transform=" scale(3.000000) ">
          <text font-family="Helvetica" fill="#FFFFFF" style="white-space:pre;" font-weight="700" text-anchor="start" x="0.0000" y="0.0000" font-size="4.7244"><![CDATA[WWW]]></text>
        </g>
        <g transform=" scale(3.000000) ">
          <path d="M 6.79140000000001,24.2126000000001 L 26.8701,24.2126000000001 " stroke="#FFFFFF" stroke-width="0.88585" stroke-linecap="butt" stroke-linejoin="miter" fill="none"/>
          <path d="M 8.56299999999999,22.4409000000001 L 7.67719999999997,24.2126000000001 L 8.56299999999999,25.9842 L 4.42910000000001,24.2126000000001 L 8.56299999999999,22.4409000000001 Z " fill="#FFFFFF" stroke-width="1px" stroke="#FFFFFF"/>
          <path d="M 25.0985,12.9921000000001 L 5.0197,12.9921000000001 " stroke="#FFFFFF" stroke-width="0.88585" stroke-linecap="butt" stroke-linejoin="miter" fill="none"/>
          <path d="M 23.3268,14.7638000000001 L 24.2126,12.9921000000001 L 23.3268,11.5157 L 27.4607,12.9921000000001 L 23.3268,14.7638000000001 Z " fill="#FFFFFF" stroke-width="1px" stroke="#FFFFFF"/>
          <path d="M 22.1457,21.5551 L 10.0394,21.5551 L 10.0394,15.3543 L 22.1457,15.3543 L 22.1457,21.5551 Z " fill="none" stroke="#FFFFFF" stroke-width="0.88585" stroke-linecap="butt" stroke-linejoin="miter"/>
          <path d="M 10.0394,15.3543 L 15.9449,18.3071 L 22.1457,15.3543 " stroke="#FFFFFF" stroke-width="0.88585" stroke-linecap="butt" stroke-linejoin="miter" fill="none"/>
        </g>
      </g>
      <!--emf-blob end-->
    </g>
  </g>
</svg>

