<svg xmlns="http://www.w3.org/2000/svg" xmlns:xlink="http://www.w3.org/1999/xlink" version="1.1" viewBox="0 0 165 111" >
  <title><![CDATA[Content transform=" scale(3.000000) ">
  <g transform=" scale(3.000000) ">
    <!--converted by libvisio2svg-->
    <g>
      <!--emf-blob start-->
      <g>
        <path d="M 50.4729,36.0099 L 0,36.0099 L 0,4.42739999999998 L 50.4729,4.42739999999998 L 50.4729,36.0099 Z " fill="#036C9B" stroke="#FFFFFF" stroke-width="0.44275" stroke-linecap="butt" stroke-linejoin="miter"/>
        <path d="M 3.8372,0.295199999999966 L 54.31,0.295199999999966 L 50.4729,4.42739999999998 L 0,4.42739999999998 L 3.8372,0.295199999999966 Z " fill="#036C9B" stroke="#FFFFFF" stroke-width="0.44275" stroke-linecap="butt" stroke-linejoin="miter"/>
        <path d="M 54.31,30.1066 L 50.1777,35.7147 L 50.1777,4.13229999999999 L 54.31,0 L 54.31,30.1066 Z " fill="#036C9B" stroke="#FFFFFF" stroke-width="0.44275" stroke-linecap="butt" stroke-linejoin="miter"/>
        <path d="M 23.3179,25.6792 C 26.8599,23.0227 26.8599,23.0227 26.8599,23.0227 C 23.3179,23.0227 21.5469,23.0227 19.1856,23.3179 C 18.005,26.5647 18.005,27.4502 16.8243,29.8115 C 19.776,28.3356 19.776,28.3356 19.776,28.3356 C 22.4324,30.4018 25.6792,30.697 28.6308,29.8115 C 28.6308,29.8115 28.6308,29.5163 28.6308,29.5163 C 33.3535,26.2695 33.3535,26.2695 33.3535,26.2695 C 30.4018,28.3356 26.2695,28.0405 23.3179,25.6792 Z Z " fill="#FFFFFF" stroke="#000000" stroke-width="0.44275" stroke-linecap="butt" stroke-linejoin="miter"/>
        <path d="M 20.0711,20.9566 C 19.1856,18.0049 19.4808,14.7582 21.5469,12.3968 C 22.1373,12.1017 22.4324,11.8065 22.7276,11.2162 C 18.3001,14.7582 18.3001,14.7582 18.3001,14.7582 C 18.005,15.0533 17.4147,15.3485 17.1195,15.6436 C 15.0533,18.0049 14.7582,21.2517 15.6437,24.2034 Z Z " fill="#FFFFFF" stroke="#000000" stroke-width="0.44275" stroke-linecap="butt" stroke-linejoin="miter"/>
        <path d="M 28.926,11.2162 C 27.155,10.6259 25.3841,10.3307 23.6131,10.921 C 23.3179,10.921 23.0227,11.2162 22.7276,11.2162 C 18.3001,14.7582 18.3001,14.7582 18.3001,14.7582 C 20.3663,12.9872 23.0227,12.692 25.6792,13.5775 C 23.0227,15.3485 23.0227,15.3485 23.0227,15.3485 C 30.697,15.3485 30.697,15.3485 30.697,15.3485 C 31.2873,9.74039999999997 31.2873,9.74039999999997 31.2873,9.74039999999997 Z Z " fill="#FFFFFF" stroke="#000000" stroke-width="0.44275" stroke-linecap="butt" stroke-linejoin="miter"/>
        <path d="M 34.8293,13.5775 C 37.4857,18.0049 36.6002,22.7276 34.5341,25.0889 C 34.2389,25.6792 33.6486,25.9743 33.3535,26.2695 C 28.6308,29.5163 28.6308,29.5163 28.6308,29.5163 C 29.2212,29.2211 29.5163,28.926 30.1067,28.3356 C 33.6486,23.9082 31.5825,19.7759 30.4018,16.8243 Z Z " fill="#FFFFFF" stroke="#000000" stroke-width="0.44275" stroke-linecap="butt" stroke-linejoin="miter"/>
        <path d="M 9.44529999999997,21.8421 L 2.06619999999998,21.5469 L 2.06619999999998,20.0711 L 9.44529999999997,20.0711 L 9.44529999999997,18.0049 L 13.8727,20.9566 L 9.44529999999997,23.9082 L 9.44529999999997,21.8421 Z " fill="#FFFFFF" stroke-width="1px" stroke="#FFFFFF"/>
        <path d="M 41.9132,21.8421 L 49.2923,21.5469 L 49.2923,20.0711 L 41.9132,20.0711 L 41.9132,18.0049 L 37.4857,20.9566 L 41.9132,23.9082 L 41.9132,21.8421 Z " fill="#FFFFFF" stroke-width="1px" stroke="#FFFFFF"/>
      </g>
      <!--emf-blob end-->
    </g>
  </g>
</svg>

