<svg xmlns="http://www.w3.org/2000/svg" xmlns:xlink="http://www.w3.org/1999/xlink" version="1.1" viewBox="0 0 132 90" >
  <title><![CDATA[Content service router]]></title>
  <g transform=" scale(3.000000) ">
    <!--converted by libvisio2svg-->
    <g>
      <!--emf-blob start-->
      <g>
        <path d="M 43.3917,8.26509999999996 C 43.3917,12.988 33.6507,16.8253 21.5483,16.8253 C 9.74100000000004,16.8253 0,12.988 0,8.26509999999996 C 0,20.6627 0,20.6627 0,20.6627 C 0,25.3856 9.74100000000004,29.223 21.5483,29.223 C 33.6507,29.223 43.3917,25.3856 43.3917,20.6627 Z Z " fill="#036C9B" stroke="#FFFFFF" stroke-width="0.88555" stroke-linecap="butt" stroke-linejoin="miter"/>
        <path d="M 21.5483,16.8253 C 33.6507,16.8253 43.3917,12.988 43.3917,8.26509999999996 C 43.3917,3.54219999999998 33.6507,0 21.5483,0 C 9.74100000000004,0 0,3.54219999999998 0,8.26509999999996 C 0,12.988 9.74100000000004,16.8253 21.5483,16.8253 Z Z " fill="#036C9B" stroke="#FFFFFF" stroke-width="0.88555" stroke-linecap="butt" stroke-linejoin="miter"/>
        <path d="M 16.8254,5.0181 L 18.5964,7.67469999999997 L 11.8073,9.1506 L 13.2832,7.9699 L 2.65660000000003,6.19879999999995 L 5.31330000000003,4.13249999999999 L 15.3494,5.90359999999998 L 16.8254,5.0181 Z " fill="#FFFFFF" stroke-width="1px" stroke="#FFFFFF"/>
        <path d="M 26.2712,11.5121 L 25.0904,8.85539999999997 L 30.9941,7.67469999999997 L 30.1085,8.56029999999998 L 40.1447,10.3314 L 37.7832,12.1024 L 27.7471,10.3314 L 26.2712,11.5121 Z " fill="#FFFFFF" stroke-width="1px" stroke="#FFFFFF"/>
        <path d="M 22.729,3.54219999999998 L 29.8133,1.77109999999999 L 29.8133,4.72289999999998 L 28.0422,4.13249999999999 L 24.7952,7.08439999999996 L 21.5483,6.49399999999997 L 25.0904,3.8374 L 22.729,3.54219999999998 Z " fill="#FFFFFF" stroke-width="1px" stroke="#FFFFFF"/>
        <path d="M 20.0723,14.1687 L 13.2832,15.3494 L 13.2832,12.3976 L 15.0543,12.6928 L 18.5964,9.74099999999999 L 21.8434,10.0362 L 18.0061,13.5783 L 20.0723,14.1687 Z " fill="#FFFFFF" stroke-width="1px" stroke="#FFFFFF"/>
        <path d="M 20.6627,23.0242 L 26.8615,23.0242 L 26.8615,23.9097 L 29.223,22.4338 L 26.8615,20.9579 L 26.8615,21.8434 L 20.6627,21.8434 L 20.6627,23.0242 Z " fill="#FFFFFF" stroke-width="1px" stroke="#FFFFFF"/>
        <path d="M 20.3675,21.2531 L 26.2712,18.8916 L 26.8615,20.0723 L 28.3374,17.7109 L 25.6808,17.1205 L 25.976,18.0061 L 20.0723,20.3674999999999 L 20.3675,21.2531 Z " fill="#FFFFFF" stroke-width="1px" stroke="#FFFFFF"/>
        <path d="M 20.3675,23.6145 L 26.2712,25.6808 L 26.8615,24.7952 L 28.3374,27.1567 L 25.6808,27.7471 L 25.976,26.8615 L 20.0723,24.5001 L 20.3675,23.6145 Z " fill="#FFFFFF" stroke-width="1px" stroke="#FFFFFF"/>
        <path d="M 10.6265,23.0242 L 16.8254,23.0242 L 16.8254,23.9097 L 19.1868,22.4338 L 16.8254,20.9579 L 16.8254,21.8434 L 10.6265,21.8434 L 10.6265,23.0242 Z " fill="#FFFFFF" stroke-width="1px" stroke="#FFFFFF"/>
      </g>
      <!--emf-blob end-->
    </g>
  </g>
</svg>

