<svg xmlns="http://www.w3.org/2000/svg" xmlns:xlink="http://www.w3.org/1999/xlink" version="1.1" viewBox="0 0 108 144" >
  <title><![CDATA[Content switch]]></title>
  <g transform=" scale(3.000000) ">
    <!--converted by libvisio2svg-->
    <g>
      <!--emf-blob start-->
      <g>
        <path d="M 35.4331,42.2244 L 35.4331,0 L 29.5276,5.61019999999996 L 29.5276,47.8346 L 35.4331,42.2244 Z " fill="#046897" stroke="#FFFFFF" stroke-width="0.88585" stroke-linecap="butt" stroke-linejoin="miter"/>
        <path d="M 35.4331,0 L 29.5276,5.61019999999996 L 0,5.61019999999996 L 7.67719999999997,0 L 35.4331,0 Z " fill="#046897" stroke="#FFFFFF" stroke-width="0.88585" stroke-linecap="butt" stroke-linejoin="miter"/>
        <path d="M 29.5276,34.8425 L 29.5276,5.61019999999996 L 0,5.61019999999996 L 0,34.8425 L 29.5276,34.8425 Z " fill="#046897" stroke="#FFFFFF" stroke-width="0.88585" stroke-linecap="butt" stroke-linejoin="miter"/>
        <path d="M 29.5276,47.8346 L 29.5276,35.1378 L 0,35.1378 L 0,47.8346 L 29.5276,47.8346 Z " fill="#046897" stroke="#FFFFFF" stroke-width="0.88585" stroke-linecap="butt" stroke-linejoin="miter"/>
        <path d="M 12.1063,16.8307 L 7.67719999999997,12.1063 L 8.56299999999999,11.5157 L 5.6103,10.9252 L 6.20079999999996,13.5826 L 6.79139999999995,12.9921 L 11.5158,17.4212 L 12.1063,16.8307 Z " fill="#FFFFFF" stroke-width="1px" stroke="#FFFFFF"/>
        <path d="M 10.6299,19.4881 L 4.13389999999998,19.4881 L 4.13389999999998,18.6023 L 1.77169999999995,20.0787 L 4.13389999999998,21.8504 L 4.13389999999998,20.6693 L 10.6299,20.6693 L 10.6299,19.4881 Z " fill="#FFFFFF" stroke-width="1px" stroke="#FFFFFF"/>
        <path d="M 11.5158,22.7362 L 6.79139999999995,27.4606 L 6.20079999999996,26.5748 L 5.6103,29.5275 L 8.56299999999999,28.937 L 7.67719999999997,28.0511 L 12.1063,23.622 L 11.5158,22.7362 Z " fill="#FFFFFF" stroke-width="1px" stroke="#FFFFFF"/>
        <path d="M 14.4685,24.5078 L 14.4685,30.7086 L 13.2874,30.7086 L 14.7638,33.0708 L 16.5355,30.7086 L 15.3544,30.7086 L 15.3544,24.5078 L 14.4685,24.5078 Z " fill="#FFFFFF" stroke-width="1px" stroke="#FFFFFF"/>
        <path d="M 14.4685,15.9448 L 14.4685,9.7441 L 13.2874,9.7441 L 14.7638,7.3818 L 16.5355,9.7441 L 15.3544,9.7441 L 15.3544,15.9448 L 14.4685,15.9448 Z " fill="#FFFFFF" stroke-width="1px" stroke="#FFFFFF"/>
        <path d="M 17.4213,23.622 L 22.1457,28.0511 L 21.2599,28.937 L 24.2126,29.5275 L 23.6221,26.5748 L 22.7362,27.4606 L 18.3071,22.7362 L 17.4213,23.622 Z " fill="#FFFFFF" stroke-width="1px" stroke="#FFFFFF"/>
        <path d="M 19.1929,20.6693 L 25.3937,20.6693 L 25.3937,21.8504 L 28.0512,20.0787 L 25.3937,18.6023 L 25.3937,19.4881 L 19.1929,19.4881 L 19.1929,20.6693 Z " fill="#FFFFFF" stroke-width="1px" stroke="#FFFFFF"/>
        <path d="M 18.3071,17.4212 L 22.7362,12.9921 L 23.6221,13.5826 L 24.2126,10.9252 L 21.2599,11.5157 L 22.1457,12.1063 L 17.4213,16.8307 L 18.3071,17.4212 Z " fill="#FFFFFF" stroke-width="1px" stroke="#FFFFFF"/>
        <path d="M 18.6024,25.3937 C 21.8504,23.3267 22.441,19.1929 20.374,16.2401 C 18.3071,13.2874 14.1733,12.6968 11.2205,14.7637 C 8.26769999999999,16.8307 7.38189999999997,20.9645 9.44880000000001,23.9173 C 11.5158,26.87 15.6496,27.4606 18.6024,25.3937 Z Z " fill="#FFFFFF" stroke="#000000" stroke-width="0.88585" stroke-linecap="butt" stroke-linejoin="miter"/>
        <path d="M 15.0591,41.9291 L 21.5551,41.9291 L 21.5551,43.1102 L 23.9173,41.3385 L 21.5551,39.8622 L 21.5551,40.748 L 15.0591,40.748 L 15.0591,41.9291 Z " fill="#FFFFFF" stroke-width="1px" stroke="#FFFFFF"/>
        <path d="M 15.0591,40.1574 L 20.9646,38.0905 L 21.2599,38.9763 L 23.0315,36.6141 L 20.0788,36.0236 L 20.6693,36.9094 L 14.7638,39.2716 L 15.0591,40.1574 Z " fill="#FFFFFF" stroke-width="1px" stroke="#FFFFFF"/>
        <path d="M 15.0591,42.5196 L 20.9646,44.8818 L 21.2599,43.7007 L 23.0315,46.063 L 20.0788,46.6535 L 20.6693,45.7677 L 14.7638,43.4055 L 15.0591,42.5196 Z " fill="#FFFFFF" stroke-width="1px" stroke="#FFFFFF"/>
        <path d="M 5.315,41.9291 L 11.5158,41.9291 L 11.5158,43.1102 L 13.878,41.3385 L 11.5158,39.8622 L 11.5158,40.748 L 5.315,40.748 L 5.315,41.9291 Z " fill="#FFFFFF" stroke-width="1px" stroke="#FFFFFF"/>
      </g>
      <!--emf-blob end-->
    </g>
  </g>
</svg>

