<svg xmlns="http://www.w3.org/2000/svg" xmlns:xlink="http://www.w3.org/1999/xlink" version="1.1" viewBox="0 0 126 84" >
  <title><![CDATA[CS-MARS]]></title>
  <g transform=" scale(3.000000) ">
    <!--converted by libvisio2svg-->
    <g>
      <!--emf-blob start-->
      <g>
        <path d="M 0,27.4606 L 37.5001,27.4606 L 37.5001,5.61019999999996 L 0,5.61019999999996 L 0,27.4606 Z " fill="#046897" stroke="#FFFFFF" stroke-width="0.88585" stroke-linecap="butt" stroke-linejoin="miter"/>
        <path d="M 41.9292,20.9646 L 37.5001,27.4606 L 37.5001,5.61019999999996 L 41.9292,0 L 41.9292,20.9646 Z " fill="#046897" stroke="#FFFFFF" stroke-width="0.88585" stroke-linecap="butt" stroke-linejoin="miter"/>
        <path d="M 6.79140000000001,0 L 41.9292,0 L 37.5001,5.61019999999996 L 0,5.61019999999996 L 6.79140000000001,0 Z " fill="#046897" stroke="#FFFFFF" stroke-width="0.88585" stroke-linecap="butt" stroke-linejoin="miter"/>
        <path d="M 17.7166,12.1063 L 17.7166,12.1063 Z " fill="#000000" stroke-width="1px" stroke="#000000"/>
        <path d="M 17.7166,12.1063 L 17.7166,12.1063 " stroke="#FFFFFF" stroke-width="0.88585" stroke-linecap="butt" stroke-linejoin="miter" fill="none"/>
        <path d="M 27.756,16.2401 L 33.0709,16.2401 L 33.0709,17.4212 L 35.7284,15.6496 L 33.0709,13.8779 L 33.0709,15.3543 L 27.756,15.3543 L 27.756,16.2401 Z " fill="#FFFFFF" stroke-width="1px" stroke="#FFFFFF"/>
        <path d="M 32.1851,25.0984 C 31.8898,25.0984 31.2993,24.8031 31.2993,24.2126 C 31.004,23.9173 31.2993,23.3268 31.8898,23.3268 C 32.4804,23.0315 33.0709,23.3268 33.0709,23.9173 C 33.0709,24.5079 32.7756,25.0984 32.1851,25.0984 Z Z " fill="#FFFFFF" stroke="#000000" stroke-width="0.88585" stroke-linecap="butt" stroke-linejoin="miter"/>
        <path d="M 33.9567,25.0984 C 33.9567,25.689 33.3662,26.5748 32.4804,26.5748 C 31.8898,26.5748 31.2993,25.689 31.2993,25.0984 C 31.2993,24.2126 31.8898,23.622 32.4804,23.622 C 33.3662,23.622 33.9567,24.2126 33.9567,25.0984 Z Z " fill="#FFFFFF" stroke="#000000" stroke-width="0.88585" stroke-linecap="butt" stroke-linejoin="miter"/>
        <path d="M 33.6615,23.9173 L 31.8898,26.5748 L 23.9174,21.5551 L 25.689,18.6024 L 33.6615,23.9173 Z " fill="#FFFFFF" stroke="#000000" stroke-width="0.88585" stroke-linecap="butt" stroke-linejoin="miter"/>
        <path d="M 15.9449,7.08659999999998 C 11.2205,7.97239999999999 7.97249999999997,12.9921000000001 9.15359999999998,17.7165 C 10.3347,22.4409 15.0591,25.689 19.7835,24.5079 C 24.8032,23.622 27.756,18.6024 26.5749,13.8779 C 25.689,9.15350000000001 20.9646,5.90549999999996 15.9449,7.08659999999998 Z Z " fill="#FFFFFF" stroke="#000000" stroke-width="0.88585" stroke-linecap="butt" stroke-linejoin="miter"/>
        <path d="M 32.1851,24.2126 L 32.1851,24.2126 Z " fill="#000000" stroke-width="1px" stroke="#000000"/>
        <path d="M 32.1851,24.2126 L 32.1851,24.2126 " stroke="none" stroke-width="0" fill="none"/>
        <path d="M 8.85829999999999,15.3543 L 6.20079999999996,15.3543 L 6.20079999999996,16.5354 L 9.15359999999998,16.5354 Z " fill="#FFFFFF" stroke-width="1px" stroke="#FFFFFF"/>
        <path d="M 8.85829999999999,15.3543 L 6.20079999999996,15.3543 L 6.20079999999996,16.5354 L 9.15359999999998,16.5354 " stroke="none" stroke-width="0" fill="none"/>
        <path d="M 10.9252,20.9646 L 7.08670000000001,23.622 L 7.67719999999997,24.2126 L 11.5158,21.8504 Z " fill="#FFFFFF" stroke-width="1px" stroke="#FFFFFF"/>
        <path d="M 10.9252,20.9646 L 7.08670000000001,23.622 L 7.67719999999997,24.2126 L 11.5158,21.8504 " stroke="none" stroke-width="0" fill="none"/>
        <path d="M 10.63,10.0394 L 7.38189999999997,7.97239999999999 L 6.79140000000001,8.85829999999999 L 10.0394,10.9252 Z " fill="#FFFFFF" stroke-width="1px" stroke="#FFFFFF"/>
        <path d="M 10.63,10.0394 L 7.38189999999997,7.97239999999999 L 6.79140000000001,8.85829999999999 L 10.0394,10.9252 " stroke="none" stroke-width="0" fill="none"/>
        <path d="M 19.4882,23.3268 C 15.3544,24.2126 11.2205,21.5551 10.3347,17.4212 C 9.44889999999998,13.2874 12.1063,9.15350000000001 16.2402,8.26769999999999 C 20.3741,7.38189999999997 24.5079,10.0394 25.3938,14.1732 C 26.2796,18.3071 23.6221,22.4409 19.4882,23.3268 Z Z " fill="#FFFFFF" stroke="#000000" stroke-width="0.88585" stroke-linecap="butt" stroke-linejoin="miter"/>
        <path d="M 15.0591,10.0394 L 15.0591,21.8504 L 22.1457,16.8307 L 25.3938,16.8307 L 25.3938,15.059 L 22.1457,15.059 L 15.0591,10.0394 L 15.0591,10.0394 Z " fill="#0B0B0B" stroke-width="1px" stroke="#0B0B0B"/>
        <path d="M 8.85829999999999,16.5354 L 12.1063,16.5354 L 12.1063,17.7165 L 14.7638,15.9449 L 12.1063,14.1732 L 12.1063,15.3543 L 8.85829999999999,15.3543 Z " fill="#000000" stroke-width="1px" stroke="#000000"/>
        <path d="M 8.85829999999999,16.5354 L 12.1063,16.5354 L 12.1063,17.7165 L 14.7638,15.9449 L 12.1063,14.1732 L 12.1063,15.3543 L 8.85829999999999,15.3543 " stroke="none" stroke-width="0" fill="none"/>
        <path d="M 11.5158,21.8504 L 12.6969,21.2598 L 13.2874,22.1457 L 14.4686,19.1929 L 11.5158,19.1929 L 12.1063,20.374 L 10.9252,20.9646 Z " fill="#000000" stroke-width="1px" stroke="#000000"/>
        <path d="M 11.5158,21.8504 L 12.6969,21.2598 L 13.2874,22.1457 L 14.4686,19.1929 L 11.5158,19.1929 L 12.1063,20.374 L 10.9252,20.9646 " stroke="none" stroke-width="0" fill="none"/>
        <path d="M 10.3347,10.9252 L 12.1063,11.811 L 11.5158,12.9921000000001 L 14.4686,12.9921000000001 L 13.2874,10.0394 L 12.6969,11.2205 L 10.9252,10.0394 Z " fill="#000000" stroke-width="1px" stroke="#000000"/>
        <path d="M 10.3347,10.9252 L 12.1063,11.811 L 11.5158,12.9921000000001 L 14.4686,12.9921000000001 L 13.2874,10.0394 L 12.6969,11.2205 L 10.9252,10.0394 " stroke="none" stroke-width="0" fill="none"/>
      </g>
      <!--emf-blob end-->
    </g>
  </g>
</svg>

