<svg xmlns="http://www.w3.org/2000/svg" xmlns:xlink="http://www.w3.org/1999/xlink" version="1.1" viewBox="0 0 108 144" >
  <title><![CDATA[CSM-S]]></title>
  <g transform=" scale(3.000000) ">
    <!--converted by libvisio2svg-->
    <g>
      <!--emf-blob start-->
      <g>
        <path d="M 35.7148,42.2084 L 35.7148,0 L 29.5164,5.60809999999998 L 29.5164,47.8165 L 35.7148,42.2084 Z " fill="#046897" stroke="#FFFFFF" stroke-width="0.8855" stroke-linecap="butt" stroke-linejoin="miter"/>
        <path d="M 35.7148,0 L 29.5164,5.60809999999998 L 0,5.60809999999998 L 7.67430000000002,0 L 35.7148,0 Z " fill="#046897" stroke="#FFFFFF" stroke-width="0.8855" stroke-linecap="butt" stroke-linejoin="miter"/>
        <path d="M 29.5164,34.8293 L 29.5164,5.60809999999998 L 0,5.60809999999998 L 0,34.8293 L 29.5164,34.8293 Z " fill="#046897" stroke="#FFFFFF" stroke-width="0.8855" stroke-linecap="butt" stroke-linejoin="miter"/>
        <path d="M 29.5164,47.8165 L 29.5164,35.1244 L 0,35.1244 L 0,47.8165 L 29.5164,47.8165 Z " fill="#046897" stroke="#FFFFFF" stroke-width="0.8855" stroke-linecap="butt" stroke-linejoin="miter"/>
        <path d="M 12.1017000000001,16.8243 L 7.67430000000002,12.3968 L 8.55970000000002,11.5114 L 5.60810000000004,10.921 L 6.19840000000005,13.8727 L 7.08390000000003,12.9872 L 11.5114,17.4146 L 12.1017000000001,16.8243 Z " fill="#FFFFFF" stroke-width="1px" stroke="#FFFFFF"/>
        <path d="M 10.6259,19.7759 L 4.13230000000004,19.7759 L 4.13230000000004,18.5953 L 1.77100000000002,20.3663 L 4.13230000000004,21.8421 L 4.13230000000004,20.6614 L 10.6259,20.6614 L 10.6259,19.7759 Z " fill="#FFFFFF" stroke-width="1px" stroke="#FFFFFF"/>
        <path d="M 11.5114,23.0227 L 7.08390000000003,27.4502 L 6.19840000000005,26.5647 L 5.60810000000004,29.5163 L 8.55970000000002,28.926 L 7.67430000000002,28.0405 L 12.1017000000001,23.6131 L 11.5114,23.0227 Z " fill="#FFFFFF" stroke-width="1px" stroke="#FFFFFF"/>
        <path d="M 14.463,24.4985 L 14.463,30.9921 L 13.2824000000001,30.9921 L 15.0533,33.3535 L 16.5292,30.9921 L 15.3485,30.9921 L 15.3485,24.4985 L 14.463,24.4985 Z " fill="#FFFFFF" stroke-width="1px" stroke="#FFFFFF"/>
        <path d="M 14.463,15.9388 L 14.463,9.74039999999997 L 13.2824000000001,9.74039999999997 L 15.0533,7.37909999999999 L 16.5292,9.74039999999997 L 15.3485,9.74039999999997 L 15.3485,15.9388 L 14.463,15.9388 Z " fill="#FFFFFF" stroke-width="1px" stroke="#FFFFFF"/>
        <path d="M 17.7098,23.6131 L 22.1373,28.0405 L 21.2518,28.926 L 24.2034,29.5163 L 23.6131,26.5647 L 22.7276000000001,27.4502 L 18.3001,23.0227 L 17.7098,23.6131 Z " fill="#FFFFFF" stroke-width="1px" stroke="#FFFFFF"/>
        <path d="M 19.1856,20.6614 L 25.6792,20.6614 L 25.6792,21.8421 L 28.0405,20.3663 L 25.6792,18.5953 L 25.6792,19.7759 L 19.1856,19.7759 L 19.1856,20.6614 Z " fill="#FFFFFF" stroke-width="1px" stroke="#FFFFFF"/>
        <path d="M 18.3001,17.4146 L 22.7276000000001,12.9872 L 23.6131,13.8727 L 24.2034,10.921 L 21.2518,11.5114 L 22.1373,12.3968 L 17.7098,16.8243 L 18.3001,17.4146 Z " fill="#FFFFFF" stroke-width="1px" stroke="#FFFFFF"/>
        <path d="M 18.8905,25.6792 C 21.8421,23.6131 22.4324,19.4808 20.3663,16.5291 C 18.3001,13.2823 14.1679,12.692 11.2162,14.7582 C 8.26460000000003,16.8243 7.67430000000002,20.9566 9.74040000000002,23.9082 C 11.8065,26.8599 15.9388,27.7453 18.8905,25.6792 Z Z " fill="#FFFFFF" stroke="none"/>
        <path d="M 18.8905,41.9132 L 25.0889,41.9132 L 25.0889,43.0938 L 27.4502000000001,41.3228999999999 L 25.0889,39.847 L 25.0889,41.0277 L 18.8905,41.0277 L 18.8905,41.9132 Z " fill="#FFFFFF" stroke-width="1px" stroke="#FFFFFF"/>
        <path d="M 18.5953,40.1421999999999 L 24.7937,38.0761 L 25.0889,38.9616 L 26.8599,36.8954 L 23.9082,36.0099 L 24.2034,37.1906 L 18.3001,39.2567 L 18.5953,40.1421999999999 Z " fill="#FFFFFF" stroke-width="1px" stroke="#FFFFFF"/>
        <path d="M 18.5953,42.7987 L 24.7937,44.8647999999999 L 25.0889,43.6842 L 26.8599,46.0454999999999 L 23.9082,46.931 L 24.2034,45.7503 L 18.3001,43.6842 L 18.5953,42.7987 Z " fill="#FFFFFF" stroke-width="1px" stroke="#FFFFFF"/>
        <path d="M 9.15010000000001,41.9132 L 15.0533,41.9132 L 15.0533,43.0938 L 17.4147,41.3228999999999 L 15.0533,39.847 L 15.0533,41.0277 L 9.15010000000001,41.0277 L 9.15010000000001,41.9132 Z " fill="#FFFFFF" stroke-width="1px" stroke="#FFFFFF"/>
        <path d="M 6.49360000000001,36.8954 C 5.01780000000002,36.8954 4.13230000000004,37.7809 4.13230000000004,38.9616 C 4.13230000000004,40.7325 4.13230000000004,40.7325 4.13230000000004,40.7325 C 4.13230000000004,41.0277 4.13230000000004,41.0277 3.83710000000002,41.3228999999999 C 3.54200000000003,41.3228999999999 3.24680000000001,41.0277 3.24680000000001,41.0277 C 3.24680000000001,38.9616 3.24680000000001,38.9616 3.24680000000001,38.9616 C 3.24680000000001,37.4857 4.7226,36.0099 6.19840000000005,36.0099 C 7.96940000000001,36.0099 9.15010000000001,37.4857 9.15010000000001,38.9616 C 9.15010000000001,41.0277 9.15010000000001,41.0277 9.15010000000001,41.0277 C 9.15010000000001,41.3228999999999 9.15010000000001,41.3228999999999 8.85490000000004,41.3228999999999 C 8.55970000000002,41.3228999999999 8.55970000000002,41.0277 8.55970000000002,41.0277 C 8.55970000000002,38.9616 8.55970000000002,38.9616 8.55970000000002,38.9616 C 8.55970000000002,37.7809 7.67430000000002,36.8954 6.49360000000001,36.8954 Z Z " fill="#046897" stroke="#FFFFFF" stroke-width="0.8855" stroke-linecap="butt" stroke-linejoin="miter"/>
        <path d="M 10.0356,46.3406 C 10.3307,46.3406 10.3307,46.0454999999999 10.3307,46.0454999999999 C 10.3307,41.0277 10.3307,41.0277 10.3307,41.0277 C 10.3307,40.7325 10.3307,40.7325 10.0356,40.7325 C 2.36130000000003,40.7325 2.36130000000003,40.7325 2.36130000000003,40.7325 C 2.36130000000003,40.7325 2.06610000000001,40.7325 2.06610000000001,41.0277 C 2.06610000000001,46.0454999999999 2.06610000000001,46.0454999999999 2.06610000000001,46.0454999999999 C 2.06610000000001,46.0454999999999 2.36130000000003,46.3406 2.36130000000003,46.3406 Z Z " fill="#046897" stroke="#FFFFFF" stroke-width="0.8855" stroke-linecap="butt" stroke-linejoin="miter"/>
        <path d="M 7.08390000000003,39.847 L 7.08390000000003,39.847 Z " fill="#000000" stroke-width="1px" stroke="#000000"/>
        <path d="M 7.08390000000003,39.847 L 7.08390000000003,39.847 " stroke="#FFFFFF" stroke-width="0.8855" stroke-linecap="butt" stroke-linejoin="miter" fill="none"/>
      </g>
      <!--emf-blob end-->
    </g>
  </g>
</svg>

