<svg xmlns="http://www.w3.org/2000/svg" xmlns:xlink="http://www.w3.org/1999/xlink" version="1.1" viewBox="0 0 174 90" >
  <title><![CDATA[CUBE]]></title>
  <g transform=" scale(3.000000) ">
    <!--converted by libvisio2svg-->
    <g>
      <!--emf-blob start-->
      <g>
        <path d="M 52.5463,29.8156 L 52.5463,5.31369999999998 L 0,5.31369999999998 L 0,29.8156 L 52.5463,29.8156 Z " fill="#007EBA" stroke="#FFFFFF" stroke-width="0.4428" stroke-linecap="butt" stroke-linejoin="miter"/>
        <path d="M 40.1477,23.6164 C 42.5093,23.6164 44.5758,21.5499 44.5758,18.8930999999999 C 44.5758,16.5315 42.5093,14.465 40.1477,14.465 C 37.4909,14.465 35.4244,16.5315 35.4244,18.8930999999999 C 35.4244,21.5499 37.4909,23.6164 40.1477,23.6164 Z Z " stroke="#FFFFFF" stroke-width="2.65685" stroke-linecap="butt" stroke-linejoin="miter" fill="none"/>
        <path d="M 40.1477,14.465 L 47.823,14.465 " stroke="#FFFFFF" stroke-width="2.65685" stroke-linecap="butt" stroke-linejoin="miter" fill="none"/>
        <path d="M 47.823,11.513 L 47.823,17.1219 L 51.3655,14.465 L 47.823,11.513 Z " fill="#FFFFFF" stroke="#FFFFFF" stroke-width="0.4428" stroke-linecap="butt" stroke-linejoin="miter"/>
        <path d="M 35.4244,18.8930999999999 L 35.4244,11.2178 " stroke="#FFFFFF" stroke-width="2.65685" stroke-linecap="butt" stroke-linejoin="miter" fill="none"/>
        <path d="M 32.7676,11.2178 L 38.3765,11.2178 L 35.7196,7.67529999999999 L 32.7676,11.2178 Z " fill="#FFFFFF" stroke="#FFFFFF" stroke-width="0.4428" stroke-linecap="butt" stroke-linejoin="miter"/>
        <path d="M 40.1477,23.3211 L 32.1772,23.3211 " stroke="#FFFFFF" stroke-width="2.65685" stroke-linecap="butt" stroke-linejoin="miter" fill="none"/>
        <path d="M 32.1772,26.5684 L 32.1772,20.6643 L 28.6347,23.6164 L 32.1772,26.5684 Z " fill="#FFFFFF" stroke="#FFFFFF" stroke-width="0.4428" stroke-linecap="butt" stroke-linejoin="miter"/>
        <path d="M 12.3985,23.6164 C 9.74169999999998,23.6164 7.67529999999999,21.5499 7.67529999999999,18.8930999999999 C 7.67529999999999,16.5315 9.74169999999998,14.465 12.3985,14.465 C 14.7602,14.465 16.8266,16.5315 16.8266,18.8930999999999 C 16.8266,21.5499 14.7602,23.6164 12.3985,23.6164 Z Z " stroke="#FFFFFF" stroke-width="2.65685" stroke-linecap="butt" stroke-linejoin="miter" fill="none"/>
        <path d="M 12.3985,14.465 L 4.428,14.465 " stroke="#FFFFFF" stroke-width="2.65685" stroke-linecap="butt" stroke-linejoin="miter" fill="none"/>
        <path d="M 4.428,11.513 L 4.428,17.1219 L 0.885599999999954,14.465 L 4.428,11.513 Z " fill="#FFFFFF" stroke="#FFFFFF" stroke-width="0.4428" stroke-linecap="butt" stroke-linejoin="miter"/>
        <path d="M 16.8266,18.8930999999999 L 16.8266,11.2178 " stroke="#FFFFFF" stroke-width="2.65685" stroke-linecap="butt" stroke-linejoin="miter" fill="none"/>
        <path d="M 19.7786,11.2178 L 13.8745,11.2178 L 16.8266,7.67529999999999 L 19.7786,11.2178 Z " fill="#FFFFFF" stroke="#FFFFFF" stroke-width="0.4428" stroke-linecap="butt" stroke-linejoin="miter"/>
        <path d="M 12.1033,23.3211 L 20.0737999999999,23.3211 " stroke="#FFFFFF" stroke-width="2.65685" stroke-linecap="butt" stroke-linejoin="miter" fill="none"/>
        <path d="M 20.0737999999999,26.5684 L 20.0737999999999,20.6643 L 23.6163,23.6164 L 20.0737999999999,26.5684 Z " fill="#FFFFFF" stroke="#FFFFFF" stroke-width="0.4428" stroke-linecap="butt" stroke-linejoin="miter"/>
        <path d="M 52.2511,5.31369999999998 L 0.295199999999966,5.31369999999998 L 6.49439999999998,0 L 57.5647,0 L 57.5647,0.295199999999966 L 57.5647,24.502 L 52.5463,29.8156 L 52.5463,5.31369999999998 L 52.2511,5.31369999999998 Z " fill="#007EBA" stroke="#FFFFFF" stroke-width="0.4428" stroke-linecap="butt" stroke-linejoin="miter"/>
        <path d="M 52.5463,5.31369999999998 L 57.8599,0 " stroke="#FFFFFF" stroke-width="0.4428" stroke-linecap="butt" stroke-linejoin="miter" fill="none"/>
        <path d="M 26.2731,10.9226 L 26.2731,25.0924 " stroke="#FFFFFF" stroke-width="1.7712" stroke-linecap="butt" stroke-linejoin="miter" fill="none"/>
      </g>
      <!--emf-blob end-->
    </g>
  </g>
</svg>

