<svg xmlns="http://www.w3.org/2000/svg" xmlns:xlink="http://www.w3.org/1999/xlink" version="1.1" viewBox="0 0 129 93" >
  <title><![CDATA[Detector]]></title>
  <g transform=" scale(3.000000) ">
    <!--converted by libvisio2svg-->
    <g>
      <!--emf-blob start-->
      <g>
        <path d="M 35.7365,30.125 L 35.7365,5.61149999999998 L 0,5.61149999999998 L 0,30.125 L 35.7365,30.125 Z " fill="#046897" stroke="#FFFFFF" stroke-width="0.88605" stroke-linecap="butt" stroke-linejoin="miter"/>
        <path d="M 35.7365,5.61149999999998 L 42.5293,0 L 9.15559999999999,0 L 0,5.61149999999998 L 35.7365,5.61149999999998 Z " fill="#046897" stroke="#FFFFFF" stroke-width="0.88605" stroke-linecap="butt" stroke-linejoin="miter"/>
        <path d="M 42.5293,24.5135 L 42.5293,0 L 35.7365,5.61149999999998 L 35.7365,30.125 L 42.5293,24.5135 Z " fill="#046897" stroke="#FFFFFF" stroke-width="0.88605" stroke-linecap="butt" stroke-linejoin="miter"/>
        <path d="M 2.36270000000002,20.3787 L 12.9951,20.3787 L 18.3112,9.74630000000002 L 25.6948,24.8088 L 28.3529,20.3787 L 33.6691,20.3787 " stroke="#FFFFFF" stroke-width="1.77205" stroke-linecap="round" stroke-linejoin="round" fill="none"/>
        <path d="M 5.61150000000004,28.9436 C 6.2022,28.9436 6.79290000000003,28.3529 6.79290000000003,27.7622 C 6.79290000000003,27.1715 6.2022,26.8762 5.61150000000004,26.8762 C 5.02080000000001,26.8762 4.72550000000001,27.1715 4.72550000000001,27.7622 C 4.72550000000001,28.3529 5.02080000000001,28.9436 5.61150000000004,28.9436 Z Z " fill="#FFFFFF" stroke="#000000" stroke-width="0.443" stroke-linecap="butt" stroke-linejoin="miter"/>
        <path d="M 4.72550000000001,26.5809 L 7.08820000000003,28.9436 L 13.2904,22.4461 L 10.9277,20.3787 L 4.72550000000001,26.5809 Z " fill="#FFFFFF" stroke="#000000" stroke-width="0.443" stroke-linecap="butt" stroke-linejoin="miter"/>
        <path d="M 10.0416,15.6532 C 10.0416,20.3787 13.8811,23.9228 18.6066,23.9228 C 23.3321,23.9228 26.8762,20.3787 26.8762,15.6532 C 26.8762,10.9277 23.3321,7.08820000000003 18.6066,7.08820000000003 C 13.8811,7.08820000000003 10.0416,10.9277 10.0416,15.6532 Z M 11.223,15.6532 C 11.223,11.5184 14.4718,8.26960000000003 18.6066,8.26960000000003 C 22.446,8.26960000000003 25.6948,11.5184 25.6948,15.6532 C 25.6948,19.4926 22.446,22.7414 18.6066,22.7414 C 14.4718,22.7414 11.223,19.4926 11.223,15.6532 Z Z " fill="#FFFFFF" stroke="#000000" stroke-width="0.443" stroke-linecap="butt" stroke-linejoin="miter"/>
        <path d="M 9.15559999999999,15.9485 C 9.15559999999999,20.674 12.9951,24.5135 17.4252,24.5135 C 22.1507,24.5135 25.9901,20.674 25.9901,15.9485 C 25.9901,11.5184 22.1507,7.6789 17.4252,7.6789 C 12.9951,7.6789 9.15559999999999,11.5184 9.15559999999999,15.9485 Z M 10.337,15.9485 C 10.337,12.1091 13.5857,8.8603 17.4252,8.8603 C 21.56,8.8603 24.8088,12.1091 24.8088,15.9485 C 24.8088,20.0833 21.56,23.3321 17.4252,23.3321 C 13.5857,23.3321 10.337,20.0833 10.337,15.9485 Z Z " fill="#FFFFFF" stroke="#000000" stroke-width="0.443" stroke-linecap="butt" stroke-linejoin="miter"/>
      </g>
      <!--emf-blob end-->
    </g>
  </g>
</svg>

