<svg xmlns="http://www.w3.org/2000/svg" xmlns:xlink="http://www.w3.org/1999/xlink" version="1.1" viewBox="0 0 87 117" >
  <title><![CDATA[Director-class fibre channel di]]></title>
  <g transform=" scale(3.000000) ">
    <!--converted by libvisio2svg-->
    <g>
      <!--emf-blob start-->
      <g>
        <path d="M 28.3331,0 L 23.3158,4.72219999999999 L 0,4.72219999999999 L 5.90269999999998,0 L 28.3331,0 Z " fill="#036C9B" stroke="#FFFFFF" stroke-width="0.8854" stroke-linecap="butt" stroke-linejoin="miter"/>
        <path d="M 23.3158,28.038 L 23.3158,4.72219999999999 L 0,4.72219999999999 L 0,28.038 L 23.3158,28.038 Z " fill="#036C9B" stroke-width="1px" stroke="#036C9B"/>
        <path d="M 23.3158,28.038 L 23.3158,4.72219999999999 L 0,4.72219999999999 L 0,28.038 L 23.3158,28.038 Z " fill="#036C9B" stroke="#FFFFFF" stroke-width="0.8854" stroke-linecap="butt" stroke-linejoin="miter"/>
        <path d="M 23.3158,28.038 L 23.3158,4.72219999999999 L 0,4.72219999999999 L 0,28.038 L 23.3158,28.038 Z " fill="none" stroke="#FFFFFF" stroke-width="0.8854" stroke-linecap="butt" stroke-linejoin="miter"/>
        <path d="M 23.3158,37.7775 L 23.3158,27.7428 L 0,27.7428 L 0,37.7775 L 23.3158,37.7775 Z " fill="#036C9B" stroke="#FFFFFF" stroke-width="0.8854" stroke-linecap="butt" stroke-linejoin="miter"/>
        <path d="M 27.7428,23.6109 L 27.7428,0.295199999999966 L 23.3158,4.72219999999999 L 23.3158,28.038 L 27.7428,23.6109 Z " fill="#036C9B" stroke-width="1px" stroke="#036C9B"/>
        <path d="M 27.7428,23.6109 L 27.7428,0.295199999999966 L 23.3158,4.72219999999999 L 23.3158,28.038 L 27.7428,23.6109 Z " fill="#036C9B" stroke="#FFFFFF" stroke-width="0.8854" stroke-linecap="butt" stroke-linejoin="miter"/>
        <path d="M 27.7428,23.6109 L 27.7428,0.295199999999966 L 23.3158,4.72219999999999 L 23.3158,28.038 L 27.7428,23.6109 Z " fill="none" stroke="#FFFFFF" stroke-width="0.8854" stroke-linecap="butt" stroke-linejoin="miter"/>
        <path d="M 27.7428,33.3504 L 27.7428,23.3158 L 23.3158,27.7428 L 23.3158,37.7775 L 27.7428,33.3504 Z " fill="#036C9B" stroke="#FFFFFF" stroke-width="0.8854" stroke-linecap="butt" stroke-linejoin="miter"/>
        <path d="M 8.26379999999995,15.6422 L 3.24649999999997,15.6422 L 3.24649999999997,14.4617 L 1.18059999999997,16.2325 L 3.24649999999997,18.2985 L 3.24649999999997,16.8228 L 8.26379999999995,16.8228 L 8.26379999999995,15.6422 Z " fill="#FFFFFF" stroke-width="1px" stroke="#FFFFFF"/>
        <path d="M 11.2152,19.7741 L 11.2152,24.7915 L 9.73949999999996,24.7915 L 11.8055,26.8574 L 13.5762999999999,24.7915 L 12.3957,24.7915 L 12.3957,19.7741 L 11.2152,19.7741 Z " fill="#FFFFFF" stroke-width="1px" stroke="#FFFFFF"/>
        <path d="M 11.2152,12.986 L 11.2152,7.96870000000001 L 9.73949999999996,7.96870000000001 L 11.8055,5.90269999999998 L 13.5762999999999,7.96870000000001 L 12.3957,7.96870000000001 L 12.3957,12.986 L 11.2152,12.986 Z " fill="#FFFFFF" stroke-width="1px" stroke="#FFFFFF"/>
        <path d="M 15.052,16.8228 L 20.3644,16.8228 L 20.3644,18.2985 L 22.1352,16.2325 L 20.3644,14.4617 L 20.3644,15.6422 L 15.052,15.6422 L 15.052,16.8228 Z " fill="#FFFFFF" stroke-width="1px" stroke="#FFFFFF"/>
        <path d="M 19.7742,24.4963 C 18.8887,25.3817 14.4617,22.7255 10.0347,18.2985 C 5.60759999999999,13.8714 2.95139999999998,9.44439999999997 3.83679999999998,8.55899999999997 C 4.72219999999999,7.3784 9.14919999999995,10.3298 13.5762999999999,14.4617 C 18.0033,18.8887 20.6596,23.3158 19.7742,24.4963 Z Z " stroke="#FFFFFF" stroke-width="0.8854" stroke-linecap="butt" stroke-linejoin="miter" fill="none"/>
        <path d="M 19.479,8.2638 C 20.6596,9.44439999999997 17.7082,13.5763 13.2812,18.0033 C 9.14919999999995,22.4304 4.72219999999999,25.3817 3.54169999999999,24.4963 C 2.65619999999996,23.6109 5.3125,19.1839 9.73949999999996,14.7568 C 14.1666,10.3298 18.5936,7.3784 19.479,8.2638 Z Z " stroke="#FFFFFF" stroke-width="0.8854" stroke-linecap="butt" stroke-linejoin="miter" fill="none"/>
        <path d="M 0,5.60759999999999 L 0,38.3677 " stroke="#FFFFFF" stroke-width="0.8854" stroke-linecap="round" stroke-linejoin="round" fill="none"/>
        <path d="M 13.8714,19.1839 C 15.3471,18.0033 15.9374,15.6422 14.7568,14.1666 C 13.5762999999999,12.3957 11.2152,12.1006 9.44439999999997,13.2812 C 7.96869999999996,14.4617 7.3784,16.5276 8.55899999999997,18.2985 C 9.73949999999996,20.0693 12.1006,20.3644 13.8714,19.1839 Z Z " fill="#B5B5B5" stroke="none"/>
      </g>
      <!--emf-blob end-->
    </g>
  </g>
</svg>

