<svg xmlns="http://www.w3.org/2000/svg" xmlns:xlink="http://www.w3.org/1999/xlink" version="1.1" viewBox="0 0 120 102" >
  <title><![CDATA[Directory server]]></title>
  <g transform=" scale(3.000000) ">
    <!--converted by libvisio2svg-->
    <g>
      <!--emf-blob start-->
      <g>
        <path d="M 35.4454,33.0823 L 39.876,29.8332 L 21.5626,0 L 17.1319,2.65840000000003 Z " fill="#036C9B" stroke-width="1px" stroke="#036C9B"/>
        <path d="M 35.4454,33.0823 L 39.876,29.8332 L 21.5626,0 L 17.1319,2.65840000000003 " stroke="#FFFFFF" stroke-width="0.88615" stroke-linecap="butt" stroke-linejoin="miter" fill="none"/>
        <path d="M 0,32.787 L 35.4454,32.787 L 16.8365,2.9538 L 0,32.787 L 0,32.787 Z " fill="#036C9B" stroke="#FFFFFF" stroke-width="0.88615" stroke-linecap="butt" stroke-linejoin="miter"/>
        <path d="M 17.1319,23.6302 C 18.3134,23.6302 19.4949,22.4487 19.4949,20.9718 C 19.4949,19.7903 18.3134,18.6088 17.1319,18.6088 C 15.655,18.6088 14.4735,19.7903 14.4735,20.9718 C 14.4735,22.4487 15.655,23.6302 17.1319,23.6302 Z Z " fill="#FFFFFF" stroke="none"/>
        <path d="M 17.1319,14.1781 C 18.3134,14.1781 19.4949,12.9966 19.4949,11.8151 C 19.4949,10.3382 18.3134,9.1567 17.1319,9.1567 C 15.655,9.1567 14.4735,10.3382 14.4735,11.8151 C 14.4735,12.9966 15.655,14.1781 17.1319,14.1781 Z Z " fill="#FFFFFF" stroke="none"/>
        <path d="M 23.9256,30.4239 C 25.4025,30.4239 26.584,29.5378 26.584,28.0609 C 26.584,26.584 25.4025,25.4025 23.9256,25.4025 C 22.4487,25.4025 21.2672,26.584 21.2672,28.0609 C 21.2672,29.5378 22.4487,30.4239 23.9256,30.4239 Z Z " fill="#FFFFFF" stroke="none"/>
        <path d="M 10.0428,30.4239 C 11.5197,30.4239 12.7012,29.2424 12.7012,28.0609 C 12.7012,26.584 11.5197,25.4025 10.0428,25.4025 C 8.86130000000003,25.4025 7.6798,26.584 7.6798,28.0609 C 7.6798,29.2424 8.86130000000003,30.4239 10.0428,30.4239 Z Z " fill="#FFFFFF" stroke="none"/>
        <path d="M 16.8365,12.1105 L 16.8365,20.9718 L 10.0428,28.0609 " stroke="#FFFFFF" stroke-width="1.77225" stroke-linecap="butt" stroke-linejoin="miter" fill="none"/>
        <path d="M 16.8365,21.2672 L 23.3349,27.7655 " stroke="#FFFFFF" stroke-width="1.77225" stroke-linecap="butt" stroke-linejoin="miter" fill="none"/>
      </g>
      <!--emf-blob end-->
    </g>
  </g>
</svg>

