<svg xmlns="http://www.w3.org/2000/svg" xmlns:xlink="http://www.w3.org/1999/xlink" version="1.1" viewBox="0 0 87 84" >
  <title><![CDATA[Diskette]]></title>
  <g transform=" scale(3.000000) ">
    <!--converted by libvisio2svg-->
    <g>
      <!--emf-blob start-->
      <g>
        <path d="M 28.3331,0 L 27.4477,0.295200000000023 L 0,0.295200000000023 L 0.590300000000013,0 L 28.3331,0 Z " fill="#0B719F" stroke="#FFFFFF" stroke-width="0.8854" stroke-linecap="butt" stroke-linejoin="miter"/>
        <path d="M 28.3331,27.1526 L 28.3331,0 L 27.4477,0.295200000000023 L 27.4477,27.7428 L 28.3331,27.1526 Z " fill="#0B719F" stroke-width="1px" stroke="#0B719F"/>
        <path d="M 1.18049999999999,27.7428 L 27.4477,27.7428 L 27.4477,0.295200000000023 L 0,0.295200000000023 L 0,26.5623000000001 L 1.18049999999999,27.7428 Z " fill="#0B719F" stroke-width="1px" stroke="#0B719F"/>
        <path d="M 25.3817,0.295200000000023 C 25.3817,16.2325 25.3817,16.2325 25.3817,16.2325 C 25.3817,17.4131 24.4963,17.1179 24.4963,17.1179 C 2.9513,17.1179 2.9513,17.1179 2.9513,17.1179 C 2.9513,17.1179 2.0659,17.1179 2.0659,16.2325 C 2.0659,0.295200000000023 2.0659,0.295200000000023 2.0659,0.295200000000023 Z " stroke="#FFFFFF" stroke-width="0.8854" stroke-linecap="butt" stroke-linejoin="miter" fill="none"/>
        <path d="M 1.47570000000002,3.24650000000003 L 1.47570000000002,1.77080000000001 L 0.295099999999991,1.77080000000001 L 0.295099999999991,3.24650000000003 L 1.47570000000002,3.24650000000003 Z " fill="none" stroke="#FFFFFF" stroke-width="0.8854" stroke-linecap="butt" stroke-linejoin="miter"/>
        <path d="M 27.1525,3.24650000000003 L 27.1525,1.77080000000001 L 25.972,1.77080000000001 L 25.972,3.24650000000003 L 27.1525,3.24650000000003 Z " fill="none" stroke="#FFFFFF" stroke-width="0.8854" stroke-linecap="butt" stroke-linejoin="miter"/>
        <path d="M 20.9547,19.7742 C 20.9547,27.4477 20.9547,27.4477 20.9547,27.4477 C 4.42699999999996,27.4477 4.42699999999996,27.4477 4.42699999999996,27.4477 C 4.42699999999996,19.7742 4.42699999999996,19.7742 4.42699999999996,19.7742 C 4.42699999999996,18.8888 5.60759999999999,18.8888 5.60759999999999,18.8888 C 20.0693,18.8888 20.0693,18.8888 20.0693,18.8888 C 20.9547,18.8888 20.9547,19.7742 20.9547,19.7742 Z Z " fill="#FFFFFF" stroke="#0B719F" stroke-width="0.8854" stroke-linecap="butt" stroke-linejoin="miter"/>
        <path d="M 25.3817,27.7428 C 25.3817,19.7742 25.3817,19.7742 25.3817,19.7742 C 25.3817,19.7742 25.3817,18.8888 24.4963,18.8888 C 5.60759999999999,18.8888 5.60759999999999,18.8888 5.60759999999999,18.8888 C 5.60759999999999,18.8888 4.42699999999996,18.8888 4.42699999999996,19.7742 C 4.42699999999996,27.4477 4.42699999999996,27.4477 4.42699999999996,27.4477 Z " stroke="#FFFFFF" stroke-width="0.8854" stroke-linecap="butt" stroke-linejoin="miter" fill="none"/>
        <path d="M 10.92,27.1526 L 10.92,19.479 L 7.67349999999999,19.479 L 7.67349999999999,27.1526 L 10.92,27.1526 Z " fill="#0F73A0" stroke="#FFFFFF" stroke-width="0.8854" stroke-linecap="butt" stroke-linejoin="miter"/>
        <path d="M 27.4477,0.295200000000023 L 28.3331,0 " stroke="#FFFFFF" stroke-width="0.8854" stroke-linecap="butt" stroke-linejoin="miter" fill="none"/>
      </g>
      <!--emf-blob end-->
    </g>
  </g>
</svg>

