<svg xmlns="http://www.w3.org/2000/svg" xmlns:xlink="http://www.w3.org/1999/xlink" version="1.1" viewBox="0 0 153 111" >
  <title><![CDATA[Distributed director]]></title>
  <g transform=" scale(3.000000) ">
    <!--converted by libvisio2svg-->
    <g>
      <!--emf-blob start-->
      <g>
        <path d="M 0,36.0099 L 45.16,36.0099 L 45.16,6.49360000000001 L 0,6.49360000000001 L 0,36.0099 Z " fill="#036C9B" stroke="#FFFFFF" stroke-width="0.8855" stroke-linecap="butt" stroke-linejoin="miter"/>
        <path d="M 50.473,28.3357 L 45.16,36.0099 L 45.16,6.49360000000001 L 50.473,0 L 50.473,28.3357 Z " fill="#036C9B" stroke="#FFFFFF" stroke-width="0.8855" stroke-linecap="butt" stroke-linejoin="miter"/>
        <path d="M 7.96940000000001,0 L 50.473,0 L 45.16,6.49360000000001 L 0,6.49360000000001 L 7.96940000000001,0 Z " fill="#036C9B" stroke="#FFFFFF" stroke-width="0.8855" stroke-linecap="butt" stroke-linejoin="miter"/>
        <path d="M 13.8727,22.4324 L 6.49360000000001,22.4324 L 6.49360000000001,21.2518 L 13.8727,21.2518 L 13.8727,19.1856 L 18.3001,21.8421 L 13.8727,24.2034 L 13.8727,22.4324 Z " fill="#FFFFFF" stroke-width="1px" stroke="#FFFFFF"/>
        <path d="M 29.8115,22.4324 L 22.1373,22.4324 L 22.1373,21.2518 L 29.8115,21.2518 L 29.8115,19.1856 L 33.9438,21.8421 L 29.8115,24.2034 L 29.8115,22.4324 Z " fill="#FFFFFF" stroke-width="1px" stroke="#FFFFFF"/>
        <path d="M 28.3357,16.234 L 22.1373,20.3663 L 21.5469,19.4808 L 27.7454,15.3485 L 26.5647,13.8727 L 31.5825,13.5775 L 29.5163,18.005 L 28.3357,16.234 Z " fill="#FFFFFF" stroke-width="1px" stroke="#FFFFFF"/>
        <path d="M 28.3357,27.155 L 22.1373,23.0228 L 21.5469,24.2034 L 27.7454,28.0405 L 26.5647,29.8115 L 31.5825,30.1067 L 29.5163,25.6792 L 28.3357,27.155 Z " fill="#FFFFFF" stroke-width="1px" stroke="#FFFFFF"/>
        <path d="M 16.234,12.1017 C 8.85489999999999,10.6259 5.01780000000002,14.463 5.60809999999998,17.4146 C 5.9033,17.7098 5.9033,17.7098 5.9033,17.7098 C 0,18.5953 1.47579999999999,25.3841 4.42750000000001,25.3841 C 4.42750000000001,25.3841 4.42750000000001,25.3841 4.42750000000001,25.3841 C 3.83710000000002,28.6309 10.6259,31.5825 14.1678,30.1067 C 14.463,29.8115 14.463,29.8115 14.463,29.8115 C 15.6437,32.7631 20.3663,33.0583 25.0889,33.3535 C 28.926,33.3535 31.2873,33.0583 33.0583,31.2873 C 33.3535,31.2873 33.3535,31.2873 33.3535,31.2873 C 39.8471,31.8777 42.7987,27.4502 41.3229,24.2034 C 41.6181,24.2034 41.6181,24.2034 41.6181,24.2034 C 43.9794,23.6131 43.9794,18.5953 40.4374,17.7098 C 40.4374,17.7098 40.4374,17.7098 40.4374,17.7098 C 41.9132,14.1678 38.0761,11.2162 32.7631,11.8065 C 32.468,11.5114 32.468,11.5114 32.468,11.5114 C 28.6309,8.26460000000003 17.7098,8.85489999999999 16.5292,12.1017 Z Z " stroke="#FFFFFF" stroke-width="0.8855" stroke-linecap="butt" stroke-linejoin="miter" fill="none"/>
      </g>
      <!--emf-blob end-->
    </g>
  </g>
</svg>

