<svg xmlns="http://www.w3.org/2000/svg" xmlns:xlink="http://www.w3.org/1999/xlink" version="1.1" viewBox="0 0 63 9" >
  <title><![CDATA[Dot-dot]]></title>
  <g transform=" scale(3.000000) ">
    <!--converted by libvisio2svg-->
    <g>
      <!--emf-blob start-->
      <g>
        <path d="M 1.46460000000002,2.34340000000003 C 0.585900000000038,2.34340000000003 0,1.75749999999999 0,1.17169999999999 C 0,0.585899999999981 0.585900000000038,0 1.46460000000002,0 C 2.05040000000002,0 2.63630000000001,0.585899999999981 2.63630000000001,1.17169999999999 C 2.63630000000001,1.75749999999999 2.05040000000002,2.34340000000003 1.46460000000002,2.34340000000003 Z Z " fill="#0F73A0" stroke="none"/>
        <path d="M 7.3229,2.34340000000003 C 6.7371,2.34340000000003 6.15129999999999,1.75749999999999 6.15129999999999,1.17169999999999 C 6.15129999999999,0.585899999999981 6.7371,0 7.3229,0 C 7.90880000000004,0 8.49459999999999,0.585899999999981 8.49459999999999,1.17169999999999 C 8.49459999999999,1.75749999999999 7.90880000000004,2.34340000000003 7.3229,2.34340000000003 Z Z " fill="#0F73A0" stroke="none"/>
        <path d="M 13.1813,2.34340000000003 C 12.5954,2.34340000000003 12.0096,1.75749999999999 12.0096,1.17169999999999 C 12.0096,0.585899999999981 12.5954,0 13.1813,0 C 14.06,0 14.6459,0.585899999999981 14.6459,1.17169999999999 C 14.6459,1.75749999999999 14.06,2.34340000000003 13.1813,2.34340000000003 Z Z " fill="#0F73A0" stroke="none"/>
        <path d="M 19.6254,2.34340000000003 C 19.0396,2.34340000000003 18.4538,1.75749999999999 18.4538,1.17169999999999 C 18.4538,0.585899999999981 19.0396,0 19.6254,0 C 20.2113,0 20.7971,0.585899999999981 20.7971,1.17169999999999 C 20.7971,1.75749999999999 20.2113,2.34340000000003 19.6254,2.34340000000003 Z Z " fill="#0F73A0" stroke="none"/>
      </g>
      <!--emf-blob end-->
    </g>
  </g>
</svg>

