<svg xmlns="http://www.w3.org/2000/svg" xmlns:xlink="http://www.w3.org/1999/xlink" version="1.1" viewBox="0 0 78 87" >
  <title><![CDATA[DSLAM]]></title>
  <g transform=" scale(3.000000) ">
    <!--converted by libvisio2svg-->
    <g>
      <!--emf-blob start-->
      <g>
        <path d="M 25.972,6.49299999999999 L 25.972,18.5935 L 23.906,22.4303 L 23.906,10.3297 L 25.972,6.49299999999999 Z " fill="#036C9B" stroke="#FFFFFF" stroke-width="0.8854" stroke-linecap="butt" stroke-linejoin="miter"/>
        <path d="M 5.31239999999997,3.24650000000003 L 0,3.24650000000003 L 2.0659,0 L 7.3784,0 L 20.6595,6.49299999999999 L 25.972,6.49299999999999 L 23.906,10.3297 L 18.5935,10.3297 Z " fill="#036C9B" stroke-width="1px" stroke="#036C9B"/>
        <path d="M 5.31239999999997,3.24650000000003 L 0,3.24650000000003 L 2.0659,0 L 7.3784,0 L 20.6595,6.49299999999999 L 25.972,6.49299999999999 L 23.906,10.3297 L 18.5935,10.3297 " stroke="#FFFFFF" stroke-width="0.8854" stroke-linecap="butt" stroke-linejoin="miter" fill="none"/>
        <path d="M 5.31239999999997,3.24650000000003 L 18.5935,10.3297 L 18.5935,10.3297 L 23.906,10.3297 L 23.906,22.4303 L 18.5935,22.4303 L 18.5935,22.4303 L 5.31239999999997,28.9233 L 5.31239999999997,28.9233 L 0,28.9233 L 0,3.24650000000003 L 5.31239999999997,3.24650000000003 L 5.31239999999997,3.24650000000003 Z " fill="#036C9B" stroke="#FFFFFF" stroke-width="0.8854" stroke-linecap="butt" stroke-linejoin="miter"/>
        <path d="M 17.413,15.9373 L 17.413,14.4616 L 21.84,16.2325 L 17.413,18.2984 L 17.413,16.5276 L 6.78809999999999,16.5276 L 6.78809999999999,15.9373 L 17.413,15.9373 Z " fill="#FFFFFF" stroke-width="1px" stroke="#FFFFFF"/>
        <path d="M 6.49299999999999,10.3297 L 6.49299999999999,9.73950000000002 L 13.8714,9.73950000000002 L 18.2984,12.1005 L 19.1838,10.6249 L 22.4303,14.7568 L 17.413,14.1665 L 18.0033,12.6908 L 13.8714,10.3297 L 6.49299999999999,10.3297 Z " fill="#FFFFFF" stroke-width="1px" stroke="#FFFFFF"/>
        <path d="M 13.8714,22.4303 L 18.0033,20.0692 L 17.413,18.5935 L 22.4303,18.0033 L 19.1838,21.84 L 18.2984,20.6595 L 13.8714,23.0206 L 6.49299999999999,23.0206 L 6.49299999999999,22.4303 L 13.8714,22.4303 Z " fill="#FFFFFF" stroke-width="1px" stroke="#FFFFFF"/>
      </g>
      <!--emf-blob end-->
    </g>
  </g>
</svg>

