<svg xmlns="http://www.w3.org/2000/svg" xmlns:xlink="http://www.w3.org/1999/xlink" version="1.1" viewBox="0 0 129 93" >
  <title><![CDATA[Dual mode]]></title>
  <g transform=" scale(3.000000) ">
    <!--converted by libvisio2svg-->
    <g>
      <!--emf-blob start-->
      <g>
        <path d="M 32.7703,24.2087 C 32.7703,24.2087 30.4084,30.1132 27.7514,24.2087 C 25.0944,18.0089 22.7325,24.2087 22.7325,24.2087 C 22.7325,24.2087 20.3707,30.1132 17.7137,24.2087 C 14.7614,18.0089 12.3996,24.2087 12.3996,24.2087 C 12.3996,24.2087 10.333,30.1132 7.38069999999999,24.2087 C 4.72370000000001,18.0089 2.36189999999999,24.2087 2.36189999999999,24.2087 Z " stroke="#FFFFFF" stroke-width="0.8857" stroke-linecap="round" stroke-linejoin="miter" fill="none"/>
        <path d="M 2.36189999999999,24.2087 C 2.36189999999999,24.2087 4.72370000000001,30.1132 7.38069999999999,24.2087 C 10.333,18.0089 12.3996,24.2087 12.3996,24.2087 C 12.3996,24.2087 14.7614,30.1132 17.7137,24.2087 C 20.3707,18.0089 22.7325,24.2087 22.7325,24.2087 C 22.7325,24.2087 25.0944,30.1132 27.7514,24.2087 C 30.4084,18.0089 32.7703,24.2087 32.7703,24.2087 Z " stroke="#FFFFFF" stroke-width="1.77135" stroke-linecap="round" stroke-linejoin="miter" fill="none"/>
        <path d="M 33.3607,24.2087 C 33.3607,24.2087 30.9989,30.1132 28.3418,24.2087 C 25.3896,18.0089 23.323,24.2087 23.323,24.2087 C 23.323,24.2087 20.9612,30.1132 18.0089,24.2087 C 15.3519,18.0089 12.99,24.2087 12.99,24.2087 C 12.99,24.2087 10.6282,30.1132 7.97120000000001,24.2087 C 5.3141,18.0089 2.95230000000004,24.2087 2.95230000000004,24.2087 Z " stroke="#000000" stroke-width="0.8857" stroke-linecap="round" stroke-linejoin="miter" fill="none"/>
        <path d="M 2.95230000000004,24.2087 C 2.95230000000004,24.2087 5.3141,30.1132 7.97120000000001,24.2087 C 10.6282,18.0089 12.99,24.2087 12.99,24.2087 C 12.99,24.2087 15.3519,30.1132 18.0089,24.2087 C 20.9612,18.0089 23.323,24.2087 23.323,24.2087 C 23.323,24.2087 25.3896,30.1132 28.3418,24.2087 C 30.9989,18.0089 33.3607,24.2087 33.3607,24.2087 Z " stroke="#000000" stroke-width="1.77135" stroke-linecap="round" stroke-linejoin="miter" fill="none"/>
        <path d="M 32.7703,24.2087 C 32.7703,24.2087 30.4084,30.1132 27.7514,24.2087 C 25.0944,18.0089 22.7325,24.2087 22.7325,24.2087 C 22.7325,24.2087 20.3707,30.1132 17.7137,24.2087 C 14.7614,18.0089 12.3996,24.2087 12.3996,24.2087 C 12.3996,24.2087 10.333,30.1132 7.38069999999999,24.2087 C 4.72370000000001,18.0089 2.36189999999999,24.2087 2.36189999999999,24.2087 Z " stroke="#FFFFFF" stroke-width="0.8857" stroke-linecap="round" stroke-linejoin="miter" fill="none"/>
        <path d="M 2.36189999999999,24.2087 C 2.36189999999999,24.2087 4.72370000000001,30.1132 7.38069999999999,24.2087 C 10.333,18.0089 12.3996,24.2087 12.3996,24.2087 C 12.3996,24.2087 14.7614,30.1132 17.7137,24.2087 C 20.3707,18.0089 22.7325,24.2087 22.7325,24.2087 C 22.7325,24.2087 25.0944,30.1132 27.7514,24.2087 C 30.4084,18.0089 32.7703,24.2087 32.7703,24.2087 Z " stroke="#FFFFFF" stroke-width="1.77135" stroke-linecap="round" stroke-linejoin="miter" fill="none"/>
        <path d="M 0,6.79020000000003 L 9.15210000000002,0 L 42.2175,0 L 35.7225,6.79020000000003 L 0,6.79020000000003 Z " fill="#0F73A0" stroke="#FFFFFF" stroke-width="0.8857" stroke-linecap="butt" stroke-linejoin="miter"/>
        <path d="M 35.7225,29.818 L 42.2175,23.0277 L 42.2175,0 L 35.7225,6.79020000000003 L 35.7225,29.818 Z " fill="#0F73A0" stroke="#FFFFFF" stroke-width="0.8857" stroke-linecap="butt" stroke-linejoin="miter"/>
        <path d="M 35.7225,29.818 L 35.7225,6.79020000000003 L 0,6.79020000000003 L 0,29.818 L 35.7225,29.818 Z " fill="#0F73A0" stroke="#FFFFFF" stroke-width="0.8857" stroke-linecap="butt" stroke-linejoin="miter"/>
        <path d="M 32.7703,12.6948 C 32.7703,12.6948 30.4084,18.5993 27.7514,12.6948 C 25.0944,6.79020000000003 22.7325,12.6948 22.7325,12.6948 C 22.7325,12.6948 20.3707,18.5993 17.7137,12.6948 C 14.7614,6.79020000000003 12.3996,12.6948 12.3996,12.6948 C 12.3996,12.6948 10.333,18.5993 7.38069999999999,12.6948 C 4.72370000000001,6.79020000000003 2.36189999999999,12.6948 2.36189999999999,12.6948 Z " stroke="#FFFFFF" stroke-width="0.8857" stroke-linecap="round" stroke-linejoin="miter" fill="none"/>
        <path d="M 2.36189999999999,12.6948 C 2.36189999999999,12.6948 4.72370000000001,18.5993 7.38069999999999,12.6948 C 10.333,6.79020000000003 12.3996,12.6948 12.3996,12.6948 C 12.3996,12.6948 14.7614,18.5993 17.7137,12.6948 C 20.3707,6.79020000000003 22.7325,12.6948 22.7325,12.6948 C 22.7325,12.6948 25.0944,18.5993 27.7514,12.6948 C 30.4084,6.79020000000003 32.7703,12.6948 32.7703,12.6948 Z " stroke="#FFFFFF" stroke-width="1.77135" stroke-linecap="round" stroke-linejoin="miter" fill="none"/>
        <path d="M 33.3607,12.6948 C 33.3607,12.6948 30.9989,18.5993 28.3418,12.6948 C 25.3896,6.79020000000003 23.323,12.6948 23.323,12.6948 C 23.323,12.6948 20.9612,18.5993 18.0089,12.6948 C 15.3519,6.79020000000003 12.99,12.6948 12.99,12.6948 C 12.99,12.6948 10.6282,18.5993 7.97120000000001,12.6948 C 5.3141,6.79020000000003 2.95230000000004,12.6948 2.95230000000004,12.6948 Z " stroke="#000000" stroke-width="0.8857" stroke-linecap="round" stroke-linejoin="miter" fill="none"/>
        <path d="M 2.95230000000004,12.6948 C 2.95230000000004,12.6948 5.3141,18.5993 7.97120000000001,12.6948 C 10.6282,6.79020000000003 12.99,12.6948 12.99,12.6948 C 12.99,12.6948 15.3519,18.5993 18.0089,12.6948 C 20.9612,6.79020000000003 23.323,12.6948 23.323,12.6948 C 23.323,12.6948 25.3896,18.5993 28.3418,12.6948 C 30.9989,6.79020000000003 33.3607,12.6948 33.3607,12.6948 Z " stroke="#000000" stroke-width="1.77135" stroke-linecap="round" stroke-linejoin="miter" fill="none"/>
        <path d="M 32.7703,12.6948 C 32.7703,12.6948 30.4084,18.5993 27.7514,12.6948 C 25.0944,6.79020000000003 22.7325,12.6948 22.7325,12.6948 C 22.7325,12.6948 20.3707,18.5993 17.7137,12.6948 C 14.7614,6.79020000000003 12.3996,12.6948 12.3996,12.6948 C 12.3996,12.6948 10.333,18.5993 7.38069999999999,12.6948 C 4.72370000000001,6.79020000000003 2.36189999999999,12.6948 2.36189999999999,12.6948 Z " stroke="#FFFFFF" stroke-width="0.8857" stroke-linecap="round" stroke-linejoin="miter" fill="none"/>
        <path d="M 2.36189999999999,12.6948 C 2.36189999999999,12.6948 4.72370000000001,18.5993 7.38069999999999,12.6948 C 10.333,6.79020000000003 12.3996,12.6948 12.3996,12.6948 C 12.3996,12.6948 14.7614,18.5993 17.7137,12.6948 C 20.3707,6.79020000000003 22.7325,12.6948 22.7325,12.6948 C 22.7325,12.6948 25.0944,18.5993 27.7514,12.6948 C 30.4084,6.79020000000003 32.7703,12.6948 32.7703,12.6948 Z " stroke="#FFFFFF" stroke-width="1.77135" stroke-linecap="round" stroke-linejoin="miter" fill="none"/>
        <path d="M 33.3607,12.6948 C 33.3607,12.6948 30.9989,18.5993 28.3418,12.6948 C 25.3896,6.79020000000003 23.323,12.6948 23.323,12.6948 C 23.323,12.6948 20.9612,18.5993 18.0089,12.6948 C 15.3519,6.79020000000003 12.99,12.6948 12.99,12.6948 C 12.99,12.6948 10.6282,18.5993 7.97120000000001,12.6948 C 5.3141,6.79020000000003 2.95230000000004,12.6948 2.95230000000004,12.6948 Z " stroke="#000000" stroke-width="0.8857" stroke-linecap="round" stroke-linejoin="miter" fill="none"/>
        <path d="M 2.95230000000004,12.6948 C 2.95230000000004,12.6948 5.3141,18.5993 7.97120000000001,12.6948 C 10.6282,6.79020000000003 12.99,12.6948 12.99,12.6948 C 12.99,12.6948 15.3519,18.5993 18.0089,12.6948 C 20.9612,6.79020000000003 23.323,12.6948 23.323,12.6948 C 23.323,12.6948 25.3896,18.5993 28.3418,12.6948 C 30.9989,6.79020000000003 33.3607,12.6948 33.3607,12.6948 Z " stroke="#000000" stroke-width="1.77135" stroke-linecap="round" stroke-linejoin="miter" fill="none"/>
        <path d="M 32.7703,12.6948 C 32.7703,12.6948 30.4084,18.5993 27.7514,12.6948 C 25.0944,6.79020000000003 22.7325,12.6948 22.7325,12.6948 C 22.7325,12.6948 20.3707,18.5993 17.7137,12.6948 C 14.7614,6.79020000000003 12.3996,12.6948 12.3996,12.6948 C 12.3996,12.6948 10.333,18.5993 7.38069999999999,12.6948 C 4.72370000000001,6.79020000000003 2.36189999999999,12.6948 2.36189999999999,12.6948 Z " stroke="#FFFFFF" stroke-width="0.8857" stroke-linecap="round" stroke-linejoin="miter" fill="none"/>
        <path d="M 2.36189999999999,12.6948 C 2.36189999999999,12.6948 4.72370000000001,18.5993 7.38069999999999,12.6948 C 10.333,6.79020000000003 12.3996,12.6948 12.3996,12.6948 C 12.3996,12.6948 14.7614,18.5993 17.7137,12.6948 C 20.3707,6.79020000000003 22.7325,12.6948 22.7325,12.6948 C 22.7325,12.6948 25.0944,18.5993 27.7514,12.6948 C 30.4084,6.79020000000003 32.7703,12.6948 32.7703,12.6948 Z " stroke="#FFFFFF" stroke-width="1.77135" stroke-linecap="round" stroke-linejoin="miter" fill="none"/>
        <path d="M 33.3607,24.2087 C 33.3607,24.2087 30.9989,30.1132 28.3418,24.2087 C 25.3896,18.0089 23.323,24.2087 23.323,24.2087 C 23.323,24.2087 20.9612,30.1132 18.0089,24.2087 C 15.3519,18.0089 12.99,24.2087 12.99,24.2087 C 12.99,24.2087 10.6282,30.1132 7.97120000000001,24.2087 C 5.3141,18.0089 2.95230000000004,24.2087 2.95230000000004,24.2087 Z " stroke="#000000" stroke-width="0.8857" stroke-linecap="round" stroke-linejoin="miter" fill="none"/>
        <path d="M 2.95230000000004,24.2087 C 2.95230000000004,24.2087 5.3141,30.1132 7.97120000000001,24.2087 C 10.6282,18.0089 12.99,24.2087 12.99,24.2087 C 12.99,24.2087 15.3519,30.1132 18.0089,24.2087 C 20.9612,18.0089 23.323,24.2087 23.323,24.2087 C 23.323,24.2087 25.3896,30.1132 28.3418,24.2087 C 30.9989,18.0089 33.3607,24.2087 33.3607,24.2087 Z " stroke="#000000" stroke-width="1.77135" stroke-linecap="round" stroke-linejoin="miter" fill="none"/>
        <path d="M 32.7703,24.2087 C 32.7703,24.2087 30.4084,30.1132 27.7514,24.2087 C 25.0944,18.0089 22.7325,24.2087 22.7325,24.2087 C 22.7325,24.2087 20.3707,30.1132 17.7137,24.2087 C 14.7614,18.0089 12.3996,24.2087 12.3996,24.2087 C 12.3996,24.2087 10.333,30.1132 7.38069999999999,24.2087 C 4.72370000000001,18.0089 2.36189999999999,24.2087 2.36189999999999,24.2087 Z " stroke="#FFFFFF" stroke-width="0.8857" stroke-linecap="round" stroke-linejoin="miter" fill="none"/>
        <path d="M 2.36189999999999,24.2087 C 2.36189999999999,24.2087 4.72370000000001,30.1132 7.38069999999999,24.2087 C 10.333,18.0089 12.3996,24.2087 12.3996,24.2087 C 12.3996,24.2087 14.7614,30.1132 17.7137,24.2087 C 20.3707,18.0089 22.7325,24.2087 22.7325,24.2087 C 22.7325,24.2087 25.0944,30.1132 27.7514,24.2087 C 30.4084,18.0089 32.7703,24.2087 32.7703,24.2087 Z " stroke="#FFFFFF" stroke-width="1.77135" stroke-linecap="round" stroke-linejoin="miter" fill="none"/>
      </g>
      <!--emf-blob end-->
    </g>
  </g>
</svg>

