<svg xmlns="http://www.w3.org/2000/svg" xmlns:xlink="http://www.w3.org/1999/xlink" version="1.1" viewBox="0 0 87 120" >
  <title><![CDATA[DWDM filter]]></title>
  <g transform=" scale(3.000000) ">
    <!--converted by libvisio2svg-->
    <g>
      <!--emf-blob start-->
      <g>
        <path d="M 11.8069,11.2165 L 5.90350000000001,1.77099999999996 L 7.3793,0 L 13.8732,9.44549999999998 L 11.8069,11.2165 Z " fill="#036C9B" stroke="#FFFFFF" stroke-width="0.44275" stroke-linecap="butt" stroke-linejoin="miter"/>
        <path d="M 5.90350000000001,39.5532 L 11.8069,30.1076 L 11.8069,11.2165 L 5.90350000000001,1.77099999999996 L 5.90350000000001,39.5532 L 5.90350000000001,39.5532 Z " fill="#036C9B" stroke="#FFFFFF" stroke-width="0.44275" stroke-linecap="butt" stroke-linejoin="miter"/>
        <path d="M 11.8069,30.1076 L 11.8069,11.2165 Z " fill="#036C9B" stroke-width="1px" stroke="#036C9B"/>
        <path d="M 11.8069,30.1076 L 11.8069,11.2165 " stroke="#FFFFFF" stroke-width="0.44275" stroke-linecap="butt" stroke-linejoin="miter" fill="none"/>
        <path d="M 11.8069,30.1076 L 11.8069,11.2165 Z " fill="#036C9B" stroke-width="1px" stroke="#036C9B"/>
        <path d="M 11.8069,30.1076 L 11.8069,11.2165 " stroke="#FFFFFF" stroke-width="0.44275" stroke-linecap="butt" stroke-linejoin="miter" fill="none"/>
        <path d="M 21.2525,30.1076 L 21.2525,11.2165 L 23.0235,9.44549999999998 L 23.0235,28.3366 L 21.2525,30.1076 Z " fill="#036C9B" stroke="#FFFFFF" stroke-width="0.44275" stroke-linecap="butt" stroke-linejoin="miter"/>
        <path d="M 21.2525,11.2165 L 12.1021,11.2165 L 13.8732,9.44549999999998 L 23.0235,9.44549999999998 L 21.2525,11.2165 Z " fill="#036C9B" stroke="#FFFFFF" stroke-width="0.44275" stroke-linecap="butt" stroke-linejoin="miter"/>
        <path d="M 12.1021,11.2165 L 12.1021,30.1076 L 21.2525,30.1076 L 21.2525,11.2165 L 12.1021,11.2165 L 12.1021,11.2165 Z " fill="#036C9B" stroke="#FFFFFF" stroke-width="0.44275" stroke-linecap="butt" stroke-linejoin="miter"/>
        <path d="M 12.1021,30.1076 L 21.2525,30.1076 Z " fill="#000000" stroke-width="1px" stroke="#000000"/>
        <path d="M 12.1021,30.1076 L 21.2525,30.1076 " stroke="#FFFFFF" stroke-width="0.44275" stroke-linecap="round" stroke-linejoin="round" fill="none"/>
        <path d="M 21.2525,30.1076 L 21.2525,11.2165 Z " fill="#036C9B" stroke-width="1px" stroke="#036C9B"/>
        <path d="M 21.2525,30.1076 L 21.2525,11.2165 " stroke="#FFFFFF" stroke-width="0.44275" stroke-linecap="butt" stroke-linejoin="miter" fill="none"/>
        <path d="M 21.2525,11.2165 L 12.1021,11.2165 Z " fill="#036C9B" stroke-width="1px" stroke="#036C9B"/>
        <path d="M 21.2525,11.2165 L 12.1021,11.2165 " stroke="#FFFFFF" stroke-width="0.44275" stroke-linecap="butt" stroke-linejoin="miter" fill="none"/>
        <path d="M 12.1021,30.1076 L 21.2525,30.1076 Z " fill="#000000" stroke-width="1px" stroke="#000000"/>
        <path d="M 12.1021,30.1076 L 21.2525,30.1076 " stroke="#FFFFFF" stroke-width="0.44275" stroke-linecap="round" stroke-linejoin="round" fill="none"/>
        <path d="M 21.2525,30.1076 L 21.2525,11.2165 Z " fill="#036C9B" stroke-width="1px" stroke="#036C9B"/>
        <path d="M 21.2525,30.1076 L 21.2525,11.2165 " stroke="#FFFFFF" stroke-width="0.44275" stroke-linecap="butt" stroke-linejoin="miter" fill="none"/>
        <path d="M 21.2525,11.2165 L 12.1021,11.2165 Z " fill="#036C9B" stroke-width="1px" stroke="#036C9B"/>
        <path d="M 21.2525,11.2165 L 12.1021,11.2165 " stroke="#FFFFFF" stroke-width="0.44275" stroke-linecap="butt" stroke-linejoin="miter" fill="none"/>
        <path d="M 11.8069,19.4814 L 5.90350000000001,9.44549999999998 " stroke="#FFFFFF" stroke-width="0.44275" stroke-linecap="round" stroke-linejoin="round" fill="none"/>
        <path d="M 11.8069,19.4814 L 5.90350000000001,15.6441 " stroke="#FFFFFF" stroke-width="0.44275" stroke-linecap="round" stroke-linejoin="round" fill="none"/>
        <path d="M 11.8069,19.7766 L 5.90350000000001,29.8125 " stroke="#FFFFFF" stroke-width="0.44275" stroke-linecap="round" stroke-linejoin="round" fill="none"/>
        <path d="M 11.8069,19.7766 L 5.90350000000001,23.6138 " stroke="#FFFFFF" stroke-width="0.44275" stroke-linecap="round" stroke-linejoin="round" fill="none"/>
        <path d="M 11.8069,19.4814 L 5.90350000000001,19.4814 " stroke="#FFFFFF" stroke-width="0.44275" stroke-linecap="round" stroke-linejoin="round" fill="none"/>
        <path d="M 5.90350000000001,9.44549999999998 L 0,9.44549999999998 " stroke="#036C9B" stroke-width="0.44275" stroke-linecap="round" stroke-linejoin="round" fill="none"/>
        <path d="M 5.90350000000001,15.6441 L 0,15.6441 " stroke="#036C9B" stroke-width="0.44275" stroke-linecap="round" stroke-linejoin="round" fill="none"/>
        <path d="M 5.90350000000001,19.7766 L 0,19.7766 " stroke="#036C9B" stroke-width="0.44275" stroke-linecap="round" stroke-linejoin="round" fill="none"/>
        <path d="M 5.90350000000001,23.3186 L 0,23.3186 " stroke="#036C9B" stroke-width="0.44275" stroke-linecap="round" stroke-linejoin="round" fill="none"/>
        <path d="M 5.90350000000001,29.8125 L 0,29.8125 " stroke="#036C9B" stroke-width="0.44275" stroke-linecap="round" stroke-linejoin="round" fill="none"/>
        <path d="M 28.3366,19.7766 L 22.138,19.7766 " stroke="#036C9B" stroke-width="3.0993" stroke-linecap="butt" stroke-linejoin="round" fill="none"/>
      </g>
      <!--emf-blob end-->
    </g>
  </g>
</svg>

