<svg xmlns="http://www.w3.org/2000/svg" xmlns:xlink="http://www.w3.org/1999/xlink" version="1.1" viewBox="0 0 93 96" >
  <title><![CDATA[End office]]></title>
  <g transform=" scale(3.000000) ">
    <!--converted by libvisio2svg-->
    <g>
      <!--emf-blob start-->
      <g>
        <path d="M 25.3937,31.2993 L 25.3937,5.315 L 0,5.315 L 0,31.2993 L 25.3937,31.2993 Z " fill="#0F73A0" stroke="#FFFFFF" stroke-width="0.88585" stroke-linecap="butt" stroke-linejoin="miter"/>
        <path d="M 13.2874,13.878 L 21.2599,13.878 Z " fill="#000000" stroke-width="1px" stroke="#000000"/>
        <path d="M 13.2874,13.878 L 21.2599,13.878 " stroke="#FFFFFF" stroke-width="0.88585" stroke-linecap="butt" stroke-linejoin="miter" fill="none"/>
        <path d="M 13.2874,23.0316 L 21.2599,23.0316 Z " fill="#000000" stroke-width="1px" stroke="#000000"/>
        <path d="M 13.2874,23.0316 L 21.2599,23.0316 " stroke="#FFFFFF" stroke-width="0.88585" stroke-linecap="butt" stroke-linejoin="miter" fill="none"/>
        <path d="M 10.9252,18.6024 L 10.9252,10.63 Z " fill="#000000" stroke-width="1px" stroke="#000000"/>
        <path d="M 10.9252,18.6024 L 10.9252,10.63 " stroke="#FFFFFF" stroke-width="0.88585" stroke-linecap="butt" stroke-linejoin="miter" fill="none"/>
        <path d="M 18.0118,18.3071 L 18.0118,26.2796 " stroke="#FFFFFF" stroke-width="1.77165" stroke-linecap="butt" stroke-linejoin="miter" fill="none"/>
        <path d="M 8.85829999999999,18.3071 L 8.85829999999999,26.2796 Z " fill="#000000" stroke-width="1px" stroke="#000000"/>
        <path d="M 8.85829999999999,18.3071 L 8.85829999999999,26.2796 " stroke="#FFFFFF" stroke-width="0.88585" stroke-linecap="butt" stroke-linejoin="miter" fill="none"/>
        <path d="M 13.5827,13.878 L 5.61019999999996,13.878 Z " fill="#000000" stroke-width="1px" stroke="#000000"/>
        <path d="M 13.5827,13.878 L 5.61019999999996,13.878 " stroke="#FFFFFF" stroke-width="0.88585" stroke-linecap="butt" stroke-linejoin="miter" fill="none"/>
        <path d="M 30.7087,0 L 30.7087,0 L 30.7087,25.9843 L 25.3937,31.2993 L 25.3937,5.315 L 30.7087,0 Z " fill="#0F73A0" stroke="#FFFFFF" stroke-width="0.88585" stroke-linecap="butt" stroke-linejoin="miter"/>
        <path d="M 25.3937,5.315 L 25.3937,5.315 L 0,5.315 L 6.49609999999996,0 L 30.7087,0 L 25.3937,5.315 Z " fill="#0F73A0" stroke="#FFFFFF" stroke-width="0.88585" stroke-linecap="butt" stroke-linejoin="miter"/>
        <path d="M 12.9921,13.5827 L 21.2599,13.5827 " stroke="#FFFFFF" stroke-width="1.77165" stroke-linecap="butt" stroke-linejoin="miter" fill="none"/>
        <path d="M 21.2599,11.2205 L 21.2599,15.9449 L 23.9173,13.5827 L 21.2599,11.2205 Z " fill="#FFFFFF" stroke="#FFFFFF" stroke-width="0.88585" stroke-linecap="butt" stroke-linejoin="miter"/>
        <path d="M 12.9921,22.7363 L 21.8504,22.7363 " stroke="#FFFFFF" stroke-width="1.77165" stroke-linecap="butt" stroke-linejoin="miter" fill="none"/>
        <path d="M 21.2599,20.3741 L 21.2599,24.8032 L 23.9173,22.7363 L 21.2599,20.3741 Z " fill="#FFFFFF" stroke="#FFFFFF" stroke-width="0.88585" stroke-linecap="butt" stroke-linejoin="miter"/>
        <path d="M 10.6299,18.3071 L 10.6299,10.9252 " stroke="#FFFFFF" stroke-width="1.77165" stroke-linecap="butt" stroke-linejoin="miter" fill="none"/>
        <path d="M 15.3543,18.6024 L 15.3543,10.63 " stroke="#FFFFFF" stroke-width="1.77165" stroke-linecap="butt" stroke-linejoin="miter" fill="none"/>
        <path d="M 15.0591,18.3071 L 15.0591,10.9252 Z " fill="#000000" stroke-width="1px" stroke="#000000"/>
        <path d="M 15.0591,18.3071 L 15.0591,10.9252 " stroke="#FFFFFF" stroke-width="0.88585" stroke-linecap="butt" stroke-linejoin="miter" fill="none"/>
        <path d="M 17.4213,18.0119 L 17.4213,26.5749 Z " fill="#000000" stroke-width="1px" stroke="#000000"/>
        <path d="M 17.4213,18.0119 L 17.4213,26.5749 " stroke="#FFFFFF" stroke-width="0.88585" stroke-linecap="butt" stroke-linejoin="miter" fill="none"/>
        <path d="M 19.7835,26.2796 L 15.3543,26.2796 L 17.4213,28.9371 L 19.7835,26.2796 Z " fill="#FFFFFF" stroke="#FFFFFF" stroke-width="0.88585" stroke-linecap="butt" stroke-linejoin="miter"/>
        <path d="M 8.56299999999999,18.0119 L 8.56299999999999,26.5749 " stroke="#FFFFFF" stroke-width="1.77165" stroke-linecap="butt" stroke-linejoin="miter" fill="none"/>
        <path d="M 10.9252,26.2796 L 6.49609999999996,26.2796 L 8.56299999999999,28.9371 L 10.9252,26.2796 Z " fill="#FFFFFF" stroke="#FFFFFF" stroke-width="0.88585" stroke-linecap="butt" stroke-linejoin="miter"/>
        <path d="M 12.9921,22.7363 L 4.7244,22.7363 " stroke="#FFFFFF" stroke-width="1.77165" stroke-linecap="butt" stroke-linejoin="miter" fill="none"/>
        <path d="M 5.0197,25.0985 L 5.0197,20.6693 L 2.36219999999997,22.7363 L 5.0197,25.0985 Z " fill="#FFFFFF" stroke="#FFFFFF" stroke-width="0.88585" stroke-linecap="butt" stroke-linejoin="miter"/>
        <path d="M 12.9921,13.5827 L 4.7244,13.5827 " stroke="#FFFFFF" stroke-width="1.77165" stroke-linecap="butt" stroke-linejoin="miter" fill="none"/>
        <path d="M 5.0197,15.9449 L 5.0197,11.5158 L 2.36219999999997,13.5827 L 5.0197,15.9449 Z " fill="#FFFFFF" stroke="#FFFFFF" stroke-width="0.88585" stroke-linecap="butt" stroke-linejoin="miter"/>
        <path d="M 12.9921,23.6221 C 15.9449,23.6221 18.3071,21.2599 18.3071,18.3071 C 18.3071,15.3544 15.9449,12.6969 12.9921,12.6969 C 10.0394,12.6969 7.67719999999997,15.3544 7.67719999999997,18.3071 C 7.67719999999997,21.2599 10.0394,23.6221 12.9921,23.6221 Z Z " fill="#0F73A0" stroke="#FFFFFF" stroke-width="0.88585" stroke-linecap="butt" stroke-linejoin="miter"/>
        <path d="M 20.374,10.63 C 20.6693,10.63 20.6693,10.63 20.6693,10.3347 C 20.6693,7.67720000000003 20.6693,7.67720000000003 20.6693,7.67720000000003 C 20.6693,7.38190000000003 20.6693,7.38190000000003 20.374,7.38190000000003 C 5.90549999999996,7.38190000000003 5.90549999999996,7.38190000000003 5.90549999999996,7.38190000000003 C 5.90549999999996,7.38190000000003 5.61019999999996,7.38190000000003 5.61019999999996,7.67720000000003 C 5.61019999999996,10.3347 5.61019999999996,10.3347 5.61019999999996,10.3347 C 5.61019999999996,10.63 5.90549999999996,10.63 5.90549999999996,10.63 C 8.56299999999999,10.63 8.56299999999999,10.63 8.56299999999999,10.63 C 8.56299999999999,9.7441 8.56299999999999,9.7441 8.56299999999999,9.7441 C 17.126,9.7441 17.126,9.7441 17.126,9.7441 C 17.126,10.63 17.126,10.63 17.126,10.63 Z Z " fill="#FFFFFF" stroke="#FFFFFF" stroke-width="0.88585" stroke-linecap="butt" stroke-linejoin="miter"/>
        <path d="M 11.2205,16.2402 L 10.6299,16.2402 L 10.6299,15.6497 L 11.2205,15.6497 L 11.2205,16.2402 Z " fill="#000000" stroke="#FFFFFF" stroke-width="0.88585" stroke-linecap="butt" stroke-linejoin="miter"/>
        <path d="M 11.2205,17.7166 L 10.6299,17.7166 L 10.6299,17.126 L 11.2205,17.126 L 11.2205,17.7166 Z " fill="#000000" stroke="#FFFFFF" stroke-width="0.88585" stroke-linecap="butt" stroke-linejoin="miter"/>
        <path d="M 11.2205,19.193 L 10.6299,19.193 L 10.6299,18.6024 L 11.2205,18.6024 L 11.2205,19.193 Z " fill="#000000" stroke="#FFFFFF" stroke-width="0.88585" stroke-linecap="butt" stroke-linejoin="miter"/>
        <path d="M 11.2205,20.6693 L 10.6299,20.6693 L 10.6299,20.0788 L 11.2205,20.0788 L 11.2205,20.6693 Z " fill="#000000" stroke="#FFFFFF" stroke-width="0.88585" stroke-linecap="butt" stroke-linejoin="miter"/>
        <path d="M 12.6969,16.2402 L 12.1063,16.2402 L 12.1063,15.6497 L 12.6969,15.6497 L 12.6969,16.2402 Z " fill="#000000" stroke="#FFFFFF" stroke-width="0.88585" stroke-linecap="butt" stroke-linejoin="miter"/>
        <path d="M 12.6969,17.7166 L 12.1063,17.7166 L 12.1063,17.126 L 12.6969,17.126 L 12.6969,17.7166 Z " fill="#000000" stroke="#FFFFFF" stroke-width="0.88585" stroke-linecap="butt" stroke-linejoin="miter"/>
        <path d="M 12.6969,19.193 L 12.1063,19.193 L 12.1063,18.6024 L 12.6969,18.6024 L 12.6969,19.193 Z " fill="#000000" stroke="#FFFFFF" stroke-width="0.88585" stroke-linecap="butt" stroke-linejoin="miter"/>
        <path d="M 12.6969,20.6693 L 12.1063,20.6693 L 12.1063,20.0788 L 12.6969,20.0788 L 12.6969,20.6693 Z " fill="#000000" stroke="#FFFFFF" stroke-width="0.88585" stroke-linecap="butt" stroke-linejoin="miter"/>
        <path d="M 14.1732,16.2402 L 13.5827,16.2402 L 13.5827,15.6497 L 14.1732,15.6497 L 14.1732,16.2402 Z " fill="#000000" stroke="#FFFFFF" stroke-width="0.88585" stroke-linecap="butt" stroke-linejoin="miter"/>
        <path d="M 14.1732,17.7166 L 13.5827,17.7166 L 13.5827,17.126 L 14.1732,17.126 L 14.1732,17.7166 Z " fill="#000000" stroke="#FFFFFF" stroke-width="0.88585" stroke-linecap="butt" stroke-linejoin="miter"/>
        <path d="M 14.1732,19.193 L 13.5827,19.193 L 13.5827,18.6024 L 14.1732,18.6024 L 14.1732,19.193 Z " fill="#000000" stroke="#FFFFFF" stroke-width="0.88585" stroke-linecap="butt" stroke-linejoin="miter"/>
        <path d="M 14.1732,20.6693 L 13.5827,20.6693 L 13.5827,20.0788 L 14.1732,20.0788 L 14.1732,20.6693 Z " fill="#000000" stroke="#FFFFFF" stroke-width="0.88585" stroke-linecap="butt" stroke-linejoin="miter"/>
        <path d="M 15.6496,16.2402 L 15.0591,16.2402 L 15.0591,15.6497 L 15.6496,15.6497 L 15.6496,16.2402 Z " fill="#000000" stroke="#FFFFFF" stroke-width="0.88585" stroke-linecap="butt" stroke-linejoin="miter"/>
        <path d="M 15.6496,17.7166 L 15.0591,17.7166 L 15.0591,17.126 L 15.6496,17.126 L 15.6496,17.7166 Z " fill="#000000" stroke="#FFFFFF" stroke-width="0.88585" stroke-linecap="butt" stroke-linejoin="miter"/>
        <path d="M 15.6496,19.193 L 15.0591,19.193 L 15.0591,18.6024 L 15.6496,18.6024 L 15.6496,19.193 Z " fill="#000000" stroke="#FFFFFF" stroke-width="0.88585" stroke-linecap="butt" stroke-linejoin="miter"/>
        <path d="M 15.6496,20.6693 L 15.0591,20.6693 L 15.0591,20.0788 L 15.6496,20.0788 L 15.6496,20.6693 Z " fill="#000000" stroke="#FFFFFF" stroke-width="0.88585" stroke-linecap="butt" stroke-linejoin="miter"/>
      </g>
      <!--emf-blob end-->
    </g>
  </g>
</svg>

