<svg xmlns="http://www.w3.org/2000/svg" xmlns:xlink="http://www.w3.org/1999/xlink" version="1.1" viewBox="0 0 213 102" >
  <title><![CDATA[Fax]]></title>
  <g transform=" scale(3.000000) ">
    <!--converted by libvisio2svg-->
    <g>
      <!--emf-blob start-->
      <g>
        <path d="M 0,33.3456 L 0,17.7056 L 46.9199,17.7056 L 46.9199,33.3456 L 0,33.3456 Z " fill="#0F73A0" stroke="#FFFFFF" stroke-width="0.8853" stroke-linecap="butt" stroke-linejoin="miter"/>
        <path d="M 0,17.7056 L 46.9199,17.7056 L 54.2973,10.3283 L 9.14789999999999,10.3283 L 0,17.7056 Z " fill="#0F73A0" stroke="#FFFFFF" stroke-width="0.8853" stroke-linecap="butt" stroke-linejoin="miter"/>
        <path d="M 46.9199,33.3456 L 54.2973,24.7879 L 54.2973,10.3283 L 46.9199,17.7056 L 46.9199,33.3456 Z " fill="#0F73A0" stroke="#FFFFFF" stroke-width="0.8853" stroke-linecap="butt" stroke-linejoin="miter"/>
        <path d="M 12.9841,8.55770000000001 L 12.3939,11.8037 L 18.0007,11.8037 L 17.4105,8.55770000000001 L 12.9841,8.55770000000001 Z " fill="#0F73A0" stroke="#FFFFFF" stroke-width="0.8853" stroke-linecap="butt" stroke-linejoin="miter"/>
        <path d="M 5.60680000000002,13.5743 L 5.01659999999998,16.8203 L 10.9184,16.8203 L 10.3283,13.5743 L 5.60680000000002,13.5743 Z " fill="#0F73A0" stroke="#FFFFFF" stroke-width="0.8853" stroke-linecap="butt" stroke-linejoin="miter"/>
        <path d="M 13.5743,12.3939 L 17.1154,12.3939 L 16.2301,10.6233 L 13.5743,12.3939 Z " fill="#0F73A0" stroke="#FFFFFF" stroke-width="0.8853" stroke-linecap="butt" stroke-linejoin="miter"/>
        <path d="M 12.9841,8.55770000000001 C 9.14789999999999,8.26259999999996 5.60680000000002,12.689 5.60680000000002,13.5743 C 10.3283,13.5743 10.3283,13.5743 10.3283,13.5743 C 10.3283,12.689 13.5743,8.26259999999996 17.4105,8.55770000000001 Z Z " fill="#0F73A0" stroke="#FFFFFF" stroke-width="0.8853" stroke-linecap="butt" stroke-linejoin="miter"/>
        <path d="M 18.0007,11.8037 C 17.1154,12.3939 17.1154,12.3939 17.1154,12.3939 C 16.2301,10.6233 16.2301,10.6233 16.2301,10.6233 C 13.2792,12.689 13.2792,12.689 13.2792,12.689 C 12.9841,15.3449 12.9841,15.3449 12.9841,15.3449 C 10.9184,16.8203 10.9184,16.8203 10.9184,16.8203 C 10.3283,13.5743 10.3283,13.5743 10.3283,13.5743 C 10.3283,12.689 13.5743,8.26259999999996 17.4105,8.55770000000001 Z Z " fill="#0F73A0" stroke="#FFFFFF" stroke-width="0.8853" stroke-linecap="butt" stroke-linejoin="miter"/>
        <path d="M 23.9026,0 L 16.5252,7.67239999999998 L 17.4105,7.67239999999998 L 24.7879,0 L 23.9026,0 Z " fill="#0F73A0" stroke="#FFFFFF" stroke-width="0.8853" stroke-linecap="butt" stroke-linejoin="miter"/>
        <path d="M 31.2799,10.3283 L 23.9026,17.7056 L 17.4105,7.67239999999998 L 24.7879,0 L 31.2799,10.3283 Z " fill="#0F73A0" stroke="#FFFFFF" stroke-width="0.8853" stroke-linecap="butt" stroke-linejoin="miter"/>
        <path d="M 22.7222,17.7056 L 16.5252,7.67239999999998 L 17.4105,7.67239999999998 L 23.9026,17.7056 L 22.7222,17.7056 Z " fill="#0B719F" stroke="#FFFFFF" stroke-width="0.8853" stroke-linecap="butt" stroke-linejoin="miter"/>
        <path d="M 70.2323,12.689 L 62.855,20.3615 L 46.9199,25.9682 L 54.5924,18.2958 L 70.2323,12.689 Z " fill="#0F73A0" stroke="#FFFFFF" stroke-width="0.8853" stroke-linecap="butt" stroke-linejoin="miter"/>
        <path d="M 70.2323,13.8694 L 62.855,21.5418 L 62.855,20.3615 L 70.2323,12.689 L 70.2323,13.8694 Z " fill="#0F73A0" stroke="#FFFFFF" stroke-width="0.8853" stroke-linecap="butt" stroke-linejoin="miter"/>
        <path d="M 46.9199,25.9682 L 46.9199,26.8535 L 62.855,21.5418 L 62.855,20.3615 L 46.9199,25.9682 Z " fill="#0F73A0" stroke="#FFFFFF" stroke-width="0.8853" stroke-linecap="butt" stroke-linejoin="miter"/>
        <path d="M 23.6075,1.77049999999997 L 29.8045,11.5086 Z " fill="#0F73A0" stroke-width="1px" stroke="#0F73A0"/>
        <path d="M 23.6075,1.77049999999997 L 29.8045,11.5086 " stroke="#FFFFFF" stroke-width="0.8853" stroke-linecap="butt" stroke-linejoin="miter" fill="none"/>
        <path d="M 22.132,3.24599999999998 L 28.329,12.9841 Z " fill="#0F73A0" stroke-width="1px" stroke="#0F73A0"/>
        <path d="M 22.132,3.24599999999998 L 28.329,12.9841 " stroke="#FFFFFF" stroke-width="0.8853" stroke-linecap="butt" stroke-linejoin="miter" fill="none"/>
        <path d="M 20.6566,4.72149999999999 L 26.5584,14.4596 Z " fill="#0F73A0" stroke-width="1px" stroke="#0F73A0"/>
        <path d="M 20.6566,4.72149999999999 L 26.5584,14.4596 " stroke="#FFFFFF" stroke-width="0.8853" stroke-linecap="butt" stroke-linejoin="miter" fill="none"/>
        <path d="M 19.1811,6.19689999999997 L 25.083,15.935 Z " fill="#0F73A0" stroke-width="1px" stroke="#0F73A0"/>
        <path d="M 19.1811,6.19689999999997 L 25.083,15.935 " stroke="#FFFFFF" stroke-width="0.8853" stroke-linecap="butt" stroke-linejoin="miter" fill="none"/>
      </g>
      <!--emf-blob end-->
    </g>
  </g>
</svg>

