<svg xmlns="http://www.w3.org/2000/svg" xmlns:xlink="http://www.w3.org/1999/xlink" version="1.1" viewBox="0 0 129 75" >
  <title><![CDATA[FC storage]]></title>
  <g transform=" scale(3.000000) ">
    <!--converted by libvisio2svg-->
    <g>
      <!--emf-blob start-->
      <g>
        <path d="M 39.2609,24.2059 L 39.2609,3.24709999999999 L 0,3.24709999999999 L 0,24.2059 L 39.2609,24.2059 Z " fill="#036C9B" stroke="#FFFFFF" stroke-width="0.8856" stroke-linecap="butt" stroke-linejoin="miter"/>
        <path d="M 39.2609,24.2059 L 39.2609,3.24709999999999 L 0,3.24709999999999 L 0,24.2059 L 39.2609,24.2059 Z " fill="#036C9B" stroke-width="1px" stroke="#036C9B"/>
        <path d="M 39.2609,24.2059 L 39.2609,3.24709999999999 L 0,3.24709999999999 L 0,24.2059 L 39.2609,24.2059 " stroke="#FFFFFF" stroke-width="0.8856" stroke-linecap="butt" stroke-linejoin="miter" fill="none"/>
        <path d="M 0,3.24709999999999 L 3.24719999999996,0 L 42.508,0 L 39.2609,3.24709999999999 L 0,3.24709999999999 Z " fill="#036C9B" stroke="#FFFFFF" stroke-width="0.8856" stroke-linecap="butt" stroke-linejoin="miter"/>
        <path d="M 0,3.24709999999999 L 3.24719999999996,0 L 42.508,0 L 39.2609,3.24709999999999 L 0,3.24709999999999 Z " fill="#036C9B" stroke-width="1px" stroke="#036C9B"/>
        <path d="M 0,3.24709999999999 L 3.24719999999996,0 L 42.508,0 L 39.2609,3.24709999999999 L 0,3.24709999999999 " stroke="#FFFFFF" stroke-width="0.8856" stroke-linecap="butt" stroke-linejoin="miter" fill="none"/>
        <path d="M 39.2609,24.2059 L 42.508,21.8443 L 42.508,0 L 39.2609,3.24709999999999 L 39.2609,24.2059 Z " fill="#036C9B" stroke="#FFFFFF" stroke-width="0.8856" stroke-linecap="butt" stroke-linejoin="miter"/>
        <path d="M 39.2609,24.2059 L 42.508,21.8443 L 42.508,0 L 39.2609,3.24709999999999 L 39.2609,24.2059 Z " fill="#036C9B" stroke-width="1px" stroke="#036C9B"/>
        <path d="M 39.2609,24.2059 L 42.508,21.8443 L 42.508,0 L 39.2609,3.24709999999999 L 39.2609,24.2059 " stroke="#FFFFFF" stroke-width="0.8856" stroke-linecap="butt" stroke-linejoin="miter" fill="none"/>
        <path d="M 3.24719999999996,10.3318 L 3.24719999999996,17.4164 L 4.13279999999997,18.302 L 11.2174,18.302 L 12.103,17.4164 L 12.103,10.3318 L 11.2174,9.44619999999998 L 4.13279999999997,9.44619999999998 L 3.24719999999996,10.3318 Z " fill="#036C9B" stroke="#FFFFFF" stroke-width="0.8856" stroke-linecap="butt" stroke-linejoin="miter"/>
        <path d="M 3.24719999999996,10.3318 L 3.24719999999996,17.4164 L 4.13279999999997,18.302 L 11.2174,18.302 L 12.103,17.4164 L 12.103,10.3318 L 11.2174,9.44619999999998 L 4.13279999999997,9.44619999999998 L 3.24719999999996,10.3318 Z " fill="#036C9B" stroke-width="1px" stroke="#036C9B"/>
        <path d="M 3.24719999999996,10.3318 L 3.24719999999996,17.4164 L 4.13279999999997,18.302 L 11.2174,18.302 L 12.103,17.4164 L 12.103,10.3318 L 11.2174,9.44619999999998 L 4.13279999999997,9.44619999999998 L 3.24719999999996,10.3318 " stroke="#FFFFFF" stroke-width="0.8856" stroke-linecap="butt" stroke-linejoin="miter" fill="none"/>
        <path d="M 3.24719999999996,10.3318 L 4.13279999999997,11.2174 L 7.97029999999995,11.8077 L 11.2174,11.2174 L 12.103,10.3318 Z " fill="#036C9B" stroke-width="1px" stroke="#036C9B"/>
        <path d="M 3.24719999999996,10.3318 L 4.13279999999997,11.2174 L 7.97029999999995,11.8077 L 11.2174,11.2174 L 12.103,10.3318 " stroke="#FFFFFF" stroke-width="0.8856" stroke-linecap="butt" stroke-linejoin="miter" fill="none"/>
        <path d="M 15.3501,10.3318 L 15.3501,17.4164 L 15.9405,18.302 L 23.3203999999999,18.302 L 23.9108,17.4164 L 23.9108,10.3318 L 23.3203999999999,9.44619999999998 L 15.9405,9.44619999999998 L 15.3501,10.3318 Z " fill="#036C9B" stroke="#FFFFFF" stroke-width="0.8856" stroke-linecap="butt" stroke-linejoin="miter"/>
        <path d="M 15.3501,10.3318 L 15.3501,17.4164 L 15.9405,18.302 L 23.3203999999999,18.302 L 23.9108,17.4164 L 23.9108,10.3318 L 23.3203999999999,9.44619999999998 L 15.9405,9.44619999999998 L 15.3501,10.3318 Z " fill="#036C9B" stroke-width="1px" stroke="#036C9B"/>
        <path d="M 15.3501,10.3318 L 15.3501,17.4164 L 15.9405,18.302 L 23.3203999999999,18.302 L 23.9108,17.4164 L 23.9108,10.3318 L 23.3203999999999,9.44619999999998 L 15.9405,9.44619999999998 L 15.3501,10.3318 " stroke="#FFFFFF" stroke-width="0.8856" stroke-linecap="butt" stroke-linejoin="miter" fill="none"/>
        <path d="M 15.3501,10.3318 L 15.9405,11.2174 L 20.0732,11.8077 L 23.3203999999999,11.2174 L 23.9108,10.3318 Z " fill="#036C9B" stroke-width="1px" stroke="#036C9B"/>
        <path d="M 15.3501,10.3318 L 15.9405,11.2174 L 20.0732,11.8077 L 23.3203999999999,11.2174 L 23.9108,10.3318 " stroke="#FFFFFF" stroke-width="0.8856" stroke-linecap="butt" stroke-linejoin="miter" fill="none"/>
        <path d="M 27.1579,11.2174 L 27.1579,17.4164 L 28.0435,18.302 L 31.881,19.1876 L 35.1282,18.302 L 36.0137,17.4164 L 36.0137,11.2174 L 35.1282,10.3318 L 31.881,9.44619999999998 L 28.0435,10.3318 L 27.1579,11.2174 Z " fill="#036C9B" stroke="#FFFFFF" stroke-width="0.8856" stroke-linecap="butt" stroke-linejoin="miter"/>
        <path d="M 27.1579,11.2174 L 27.1579,17.4164 L 28.0435,18.302 L 31.881,19.1876 L 35.1282,18.302 L 36.0137,17.4164 L 36.0137,11.2174 L 35.1282,10.3318 L 31.881,9.44619999999998 L 28.0435,10.3318 L 27.1579,11.2174 Z " fill="#036C9B" stroke-width="1px" stroke="#036C9B"/>
        <path d="M 27.1579,11.2174 L 27.1579,17.4164 L 28.0435,18.302 L 31.881,19.1876 L 35.1282,18.302 L 36.0137,17.4164 L 36.0137,11.2174 L 35.1282,10.3318 L 31.881,9.44619999999998 L 28.0435,10.3318 L 27.1579,11.2174 " stroke="#FFFFFF" stroke-width="0.8856" stroke-linecap="butt" stroke-linejoin="miter" fill="none"/>
        <path d="M 27.1579,11.2174 L 28.0435,11.8077 L 31.881,11.8077 L 35.1282,11.8077 L 36.0137,11.2174 Z " fill="#036C9B" stroke-width="1px" stroke="#036C9B"/>
        <path d="M 27.1579,11.2174 L 28.0435,11.8077 L 31.881,11.8077 L 35.1282,11.8077 L 36.0137,11.2174 " stroke="#FFFFFF" stroke-width="0.8856" stroke-linecap="butt" stroke-linejoin="miter" fill="none"/>
      </g>
      <!--emf-blob end-->
    </g>
  </g>
</svg>

