<svg xmlns="http://www.w3.org/2000/svg" xmlns:xlink="http://www.w3.org/1999/xlink" version="1.1" viewBox="0 0 171 126" >
  <title><![CDATA[Fibre channel fabric switch]]></title>
  <g transform=" scale(3.000000) ">
    <!--converted by libvisio2svg-->
    <g>
      <!--emf-blob start-->
      <g>
        <path d="M 42.2244,27.4606 L 42.2244,13.8779 L 0,13.8779 L 0,27.4606 L 42.2244,27.4606 Z " fill="#036C9B" stroke="#FFFFFF" stroke-width="0.88585" stroke-linecap="butt" stroke-linejoin="miter"/>
        <path d="M 0,13.8779 L 17.126,0 L 56.3976,0 L 42.2244,13.8779 L 0,13.8779 Z " fill="#036C9B" stroke="#FFFFFF" stroke-width="0.88585" stroke-linecap="butt" stroke-linejoin="miter"/>
        <path d="M 42.2244,27.7559 L 56.3976,12.6968 L 56.3976,0 L 42.2244,13.8779 L 42.2244,27.7559 Z " fill="#036C9B" stroke="#FFFFFF" stroke-width="0.88585" stroke-linecap="butt" stroke-linejoin="miter"/>
        <path d="M 24.8031,10.3346 L 23.9173,10.9252 L 13.2874,10.9252 L 12.4015,11.811 L 9.44880000000001,10.6299 L 15.3543,9.15350000000001 L 14.1732,10.3346 L 24.8031,10.3346 Z " fill="#FFFFFF" stroke-width="1px" stroke="#FFFFFF"/>
        <path d="M 33.0708,5.01960000000003 L 32.185,5.61020000000002 L 21.5551,5.61020000000002 L 20.6693,6.79129999999998 L 17.7165,5.61020000000002 L 23.622,3.83850000000001 L 22.4409,5.01960000000003 L 33.0708,5.01960000000003 Z " fill="#FFFFFF" stroke-width="1px" stroke="#FFFFFF"/>
        <path d="M 26.5748,8.26769999999999 L 27.4606,7.6771 L 37.7953,7.6771 L 38.9764,6.79129999999998 L 41.9291,7.97239999999999 L 36.0236,9.44880000000001 L 37.2047,8.26769999999999 L 26.5748,8.26769999999999 Z " fill="#FFFFFF" stroke-width="1px" stroke="#FFFFFF"/>
        <path d="M 32.185,3.24799999999999 L 32.7756,2.6574 L 43.4055,2.6574 L 44.5866,1.47629999999998 L 47.2441,2.6574 L 41.6338,4.42910000000001 L 42.5197,3.24799999999999 L 32.185,3.24799999999999 Z " fill="#FFFFFF" stroke-width="1px" stroke="#FFFFFF"/>
        <path d="M 42.2244,40.748 L 42.2244,27.1653 L 0,27.1653 L 0,40.748 L 42.2244,40.748 Z " fill="#036C9B" stroke="#FFFFFF" stroke-width="0.88585" stroke-linecap="butt" stroke-linejoin="miter"/>
        <path d="M 42.2244,41.3386 L 56.3976,25.9842 L 56.3976,13.2874 L 42.2244,27.1653 L 42.2244,41.3386 Z " fill="#036C9B" stroke="#FFFFFF" stroke-width="0.88585" stroke-linecap="butt" stroke-linejoin="miter"/>
        <path d="M 16.2401,20.0787 L 8.26769999999999,20.0787 L 8.26769999999999,19.4882 L 5.31490000000002,20.6693 L 8.26769999999999,21.5551 L 8.26769999999999,20.9645 L 16.2401,20.9645 L 16.2401,20.0787 Z " fill="#FFFFFF" stroke-width="1px" stroke="#FFFFFF"/>
        <path d="M 20.6693,22.4409 L 20.6693,25.3937 L 18.6023,25.3937 L 21.5551,26.2795 L 24.8031,25.3937 L 22.7362,25.3937 L 22.7362,22.4409 L 20.6693,22.4409 Z " fill="#FFFFFF" stroke-width="1px" stroke="#FFFFFF"/>
        <path d="M 20.6693,18.6023 L 20.6693,15.9448 L 18.6023,15.9448 L 21.5551,14.7637 L 24.8031,15.9448 L 22.7362,15.9448 L 22.7362,18.6023 L 20.6693,18.6023 Z " fill="#FFFFFF" stroke-width="1px" stroke="#FFFFFF"/>
        <path d="M 27.1653,20.9645 L 34.8425,20.9645 L 34.8425,21.5551 L 38.0905,20.6693 L 34.8425,19.4882 L 34.8425,20.0787 L 27.1653,20.0787 L 27.1653,20.9645 Z " fill="#FFFFFF" stroke-width="1px" stroke="#FFFFFF"/>
        <path d="M 34.2519,25.0984 C 32.7756,25.6889 25.9842,24.2126 19.1929,21.5551 C 12.1063,19.1929 7.97239999999999,16.8307 9.44880000000001,16.2401 C 10.9252,15.6496 17.7165,17.126 24.5078,19.7834 C 31.2992,22.1456 35.7283,24.5078 34.2519,25.0984 Z Z " stroke="#FFFFFF" stroke-width="0.88585" stroke-linecap="butt" stroke-linejoin="miter" fill="none"/>
        <path d="M 33.9567,16.2401 C 35.433,16.8307 31.2992,19.1929 24.2126,21.5551 C 17.4212,23.9173 10.6299,25.6889 9.15350000000001,25.0984 C 7.38190000000003,24.5078 11.811,22.1456 18.6023,19.7834 C 25.6889,17.126 32.4803,15.6496 33.9567,16.2401 Z Z " stroke="#FFFFFF" stroke-width="0.88585" stroke-linecap="butt" stroke-linejoin="miter" fill="none"/>
        <path d="M 24.8031,22.1456 C 27.4606,21.5551 28.0512,20.374 26.2795,19.4882 C 24.5078,18.3071 20.9645,18.3071 18.3071,18.8976 C 15.6496,19.4882 15.059,20.6693 16.8307,21.5551 C 18.6023,22.7362 22.1456,22.7362 24.8031,22.1456 Z Z " fill="#B5B5B5" stroke="none"/>
      </g>
      <!--emf-blob end-->
    </g>
  </g>
</svg>

