<svg xmlns="http://www.w3.org/2000/svg" xmlns:xlink="http://www.w3.org/1999/xlink" version="1.1" viewBox="0 0 72 105" >
  <title><![CDATA[Fibre channel disk subsystem]]></title>
  <g transform=" scale(3.000000) ">
    <!--converted by libvisio2svg-->
    <g>
      <!--emf-blob start-->
      <g>
        <path d="M 18.0118,5.61019999999996 L 0,5.61019999999996 L 0,34.5471 L 18.0118,34.5471 Z " fill="#036C9B" stroke-width="1px" stroke="#036C9B"/>
        <path d="M 18.0118,5.61019999999996 L 0,5.61019999999996 L 0,34.5471 L 18.0118,34.5471 " stroke="none" stroke-width="0" fill="none"/>
        <path d="M 18.0118,34.5471 L 23.9173,28.9369 L 23.9173,0 L 5.90549999999996,0 L 0,5.61019999999996 L 18.0118,5.61019999999996 L 18.0118,34.5471 Z " fill="#036C9B" stroke-width="1px" stroke="#036C9B"/>
        <path d="M 18.0118,5.61019999999996 L 23.9173,0 Z " fill="#036C9B" stroke-width="1px" stroke="#036C9B"/>
        <path d="M 18.0118,5.61019999999996 L 23.9173,0 " stroke="none" stroke-width="0" fill="none"/>
        <path d="M 18.0118,5.61019999999996 L 0,5.61019999999996 L 0,34.5471 L 18.0118,34.5471 Z " fill="#036C9B" stroke-width="1px" stroke="#036C9B"/>
        <path d="M 18.0118,5.61019999999996 L 0,5.61019999999996 L 0,34.5471 L 18.0118,34.5471 " stroke="#FFFFFF" stroke-width="0.4429" stroke-linecap="butt" stroke-linejoin="miter" fill="none"/>
        <path d="M 18.0118,34.5471 L 23.9173,28.9369 L 23.9173,0 L 5.90549999999996,0 L 0,5.61019999999996 L 18.0118,5.61019999999996 L 18.0118,34.5471 Z " fill="#036C9B" stroke="#FFFFFF" stroke-width="0.4429" stroke-linecap="butt" stroke-linejoin="miter"/>
        <path d="M 18.0118,5.61019999999996 L 23.9173,0 Z " fill="#000000" stroke-width="1px" stroke="#000000"/>
        <path d="M 18.0118,5.61019999999996 L 23.9173,0 " stroke="#FFFFFF" stroke-width="0.4429" stroke-linecap="round" stroke-linejoin="round" fill="none"/>
        <path d="M 18.0118,5.61019999999996 L 0,5.61019999999996 L 0,34.5471 L 18.0118,34.5471 " stroke="#FFFFFF" stroke-width="0.4429" stroke-linecap="butt" stroke-linejoin="miter" fill="none"/>
        <path d="M 18.0118,34.5471 L 23.9173,28.9369 L 23.9173,0 L 5.90549999999996,0 L 0,5.61019999999996 L 18.0118,5.61019999999996 L 18.0118,34.5471 Z " fill="none" stroke="#FFFFFF" stroke-width="0.4429" stroke-linecap="butt" stroke-linejoin="miter"/>
        <path d="M 18.0118,5.61019999999996 L 23.9173,0 " stroke="#FFFFFF" stroke-width="0.4429" stroke-linecap="butt" stroke-linejoin="miter" fill="none"/>
        <path d="M 18.0118,5.61019999999996 L 0,5.61019999999996 L 0,34.5471 L 18.0118,34.5471 Z " fill="#036C9B" stroke-width="1px" stroke="#036C9B"/>
        <path d="M 18.0118,5.61019999999996 L 0,5.61019999999996 L 0,34.5471 L 18.0118,34.5471 " stroke="none" stroke-width="0" fill="none"/>
        <path d="M 18.0118,34.5471 L 23.9173,28.9369 L 23.9173,0 L 5.90549999999996,0 L 0,5.61019999999996 L 18.0118,5.61019999999996 L 18.0118,34.5471 Z " fill="#036C9B" stroke-width="1px" stroke="#036C9B"/>
        <path d="M 18.0118,5.61019999999996 L 23.9173,0 Z " fill="#036C9B" stroke-width="1px" stroke="#036C9B"/>
        <path d="M 18.0118,5.61019999999996 L 23.9173,0 " stroke="none" stroke-width="0" fill="none"/>
        <path d="M 18.0118,5.61019999999996 L 0,5.61019999999996 L 0,34.5471 L 18.0118,34.5471 Z " fill="#036C9B" stroke-width="1px" stroke="#036C9B"/>
        <path d="M 18.0118,5.61019999999996 L 0,5.61019999999996 L 0,34.5471 L 18.0118,34.5471 " stroke="#FFFFFF" stroke-width="0.4429" stroke-linecap="butt" stroke-linejoin="miter" fill="none"/>
        <path d="M 18.0118,34.5471 L 23.9173,28.9369 L 23.9173,0 L 5.90549999999996,0 L 0,5.61019999999996 L 18.0118,5.61019999999996 L 18.0118,34.5471 Z " fill="#036C9B" stroke="#FFFFFF" stroke-width="0.4429" stroke-linecap="butt" stroke-linejoin="miter"/>
        <path d="M 18.0118,5.61019999999996 L 23.9173,0 Z " fill="#000000" stroke-width="1px" stroke="#000000"/>
        <path d="M 18.0118,5.61019999999996 L 23.9173,0 " stroke="#FFFFFF" stroke-width="0.4429" stroke-linecap="round" stroke-linejoin="round" fill="none"/>
        <path d="M 18.0118,5.61019999999996 L 0,5.61019999999996 L 0,34.5471 L 18.0118,34.5471 " stroke="#FFFFFF" stroke-width="0.4429" stroke-linecap="butt" stroke-linejoin="miter" fill="none"/>
        <path d="M 18.0118,34.5471 L 23.9173,28.9369 L 23.9173,0 L 5.90549999999996,0 L 0,5.61019999999996 L 18.0118,5.61019999999996 L 18.0118,34.5471 Z " fill="none" stroke="#FFFFFF" stroke-width="0.4429" stroke-linecap="butt" stroke-linejoin="miter"/>
        <path d="M 18.0118,5.61019999999996 L 23.9173,0 " stroke="#FFFFFF" stroke-width="0.4429" stroke-linecap="butt" stroke-linejoin="miter" fill="none"/>
        <path d="M 8.56299999999999,27.7558 C 8.56299999999999,28.3463 7.08659999999998,28.9369 5.0197,28.9369 C 3.24809999999997,28.9369 1.77170000000001,28.3463 1.77170000000001,27.7558 C 1.77170000000001,26.87 3.24809999999997,26.2794 5.0197,26.2794 C 7.08659999999998,26.2794 8.56299999999999,26.87 8.56299999999999,27.7558 Z Z " fill="#FFFFFF" stroke="#000000" stroke-width="0.4429" stroke-linecap="round" stroke-linejoin="round"/>
        <path d="M 6.20079999999996,27.4605 C 6.20079999999996,27.7558 5.6103,28.0511 5.0197,28.0511 C 4.42919999999998,28.0511 4.13389999999998,27.7558 4.13389999999998,27.4605 C 4.13389999999998,27.4605 4.42919999999998,27.1653 5.0197,27.1653 C 5.6103,27.1653 6.20079999999996,27.4605 6.20079999999996,27.4605 Z Z " fill="#000000" stroke="none"/>
        <path d="M 6.20079999999996,26.87 C 6.20079999999996,27.1653 5.6103,27.1653 5.0197,27.1653 C 4.42919999999998,27.1653 4.13389999999998,27.1653 4.13389999999998,26.87 C 4.13389999999998,26.5747 4.42919999999998,26.5747 5.0197,26.5747 C 5.6103,26.5747 6.20079999999996,26.5747 6.20079999999996,26.87 Z Z " fill="#000000" stroke="none"/>
        <path d="M 8.56299999999999,26.2794 C 8.56299999999999,26.87 7.08659999999998,27.4605 5.0197,27.4605 C 3.24809999999997,27.4605 1.77170000000001,26.87 1.77170000000001,26.2794 C 1.77170000000001,25.3936 3.24809999999997,25.0983 5.0197,25.0983 C 7.08659999999998,25.0983 8.56299999999999,25.3936 8.56299999999999,26.2794 Z Z " fill="#FFFFFF" stroke="#000000" stroke-width="0.4429" stroke-linecap="round" stroke-linejoin="round"/>
        <path d="M 6.20079999999996,26.2794 C 6.20079999999996,26.2794 5.6103,26.5747 5.0197,26.5747 C 4.42919999999998,26.5747 4.13389999999998,26.2794 4.13389999999998,26.2794 C 4.13389999999998,25.9842 4.42919999999998,25.6889 5.0197,25.6889 C 5.6103,25.6889 6.20079999999996,25.9842 6.20079999999996,26.2794 Z Z " fill="#000000" stroke="none"/>
        <path d="M 6.20079999999996,25.3936 C 6.20079999999996,25.6889 5.6103,25.9842 5.0197,25.9842 C 4.42919999999998,25.9842 4.13389999999998,25.6889 4.13389999999998,25.3936 C 4.13389999999998,25.3936 4.42919999999998,25.0983 5.0197,25.0983 C 5.6103,25.0983 6.20079999999996,25.3936 6.20079999999996,25.3936 Z Z " fill="#000000" stroke="none"/>
        <path d="M 8.56299999999999,24.8031 C 8.56299999999999,25.6889 7.08659999999998,26.2794 5.0197,26.2794 C 3.24809999999997,26.2794 1.77170000000001,25.6889 1.77170000000001,24.8031 C 1.77170000000001,24.2125 3.24809999999997,23.622 5.0197,23.622 C 7.08659999999998,23.622 8.56299999999999,24.2125 8.56299999999999,24.8031 Z Z " fill="#FFFFFF" stroke="#000000" stroke-width="0.4429" stroke-linecap="round" stroke-linejoin="round"/>
        <path d="M 6.20079999999996,24.8031 C 6.20079999999996,25.0983 5.6103,25.0983 5.0197,25.0983 C 4.42919999999998,25.0983 4.13389999999998,25.0983 4.13389999999998,24.8031 C 4.13389999999998,24.5078 4.42919999999998,24.5078 5.0197,24.5078 C 5.6103,24.5078 6.20079999999996,24.5078 6.20079999999996,24.8031 Z Z " fill="#000000" stroke="none"/>
        <path d="M 8.56299999999999,22.1456 C 8.56299999999999,22.7361 7.08659999999998,23.3267 5.0197,23.3267 C 3.24809999999997,23.3267 1.77170000000001,22.7361 1.77170000000001,22.1456 C 1.77170000000001,21.2598 3.24809999999997,20.6692 5.0197,20.6692 C 7.08659999999998,20.6692 8.56299999999999,21.2598 8.56299999999999,22.1456 Z Z " fill="#FFFFFF" stroke="#000000" stroke-width="0.4429" stroke-linecap="round" stroke-linejoin="round"/>
        <path d="M 6.20079999999996,21.8503 C 6.20079999999996,22.1456 5.6103,22.4409 5.0197,22.4409 C 4.42919999999998,22.4409 4.13389999999998,22.1456 4.13389999999998,21.8503 C 4.13389999999998,21.8503 4.42919999999998,21.5549999999999 5.0197,21.5549999999999 C 5.6103,21.5549999999999 6.20079999999996,21.8503 6.20079999999996,21.8503 Z Z " fill="#000000" stroke="none"/>
        <path d="M 6.20079999999996,21.2598 C 6.20079999999996,21.5549999999999 5.6103,21.5549999999999 5.0197,21.5549999999999 C 4.42919999999998,21.5549999999999 4.13389999999998,21.5549999999999 4.13389999999998,21.2598 C 4.13389999999998,20.9645 4.42919999999998,20.9645 5.0197,20.9645 C 5.6103,20.9645 6.20079999999996,20.9645 6.20079999999996,21.2598 Z Z " fill="#000000" stroke="none"/>
        <path d="M 8.56299999999999,20.6692 C 8.56299999999999,21.2598 7.08659999999998,21.8503 5.0197,21.8503 C 3.24809999999997,21.8503 1.77170000000001,21.2598 1.77170000000001,20.6692 C 1.77170000000001,19.7834 3.24809999999997,19.1928 5.0197,19.1928 C 7.08659999999998,19.1928 8.56299999999999,19.7834 8.56299999999999,20.6692 Z Z " fill="#FFFFFF" stroke="#000000" stroke-width="0.4429" stroke-linecap="round" stroke-linejoin="round"/>
        <path d="M 6.20079999999996,20.3739 C 6.20079999999996,20.6692 5.6103,20.9645 5.0197,20.9645 C 4.42919999999998,20.9645 4.13389999999998,20.6692 4.13389999999998,20.3739 C 4.13389999999998,20.3739 4.42919999999998,20.0787 5.0197,20.0787 C 5.6103,20.0787 6.20079999999996,20.3739 6.20079999999996,20.3739 Z Z " fill="#000000" stroke="none"/>
        <path d="M 6.20079999999996,19.7834 C 6.20079999999996,20.0787 5.6103,20.0787 5.0197,20.0787 C 4.42919999999998,20.0787 4.13389999999998,20.0787 4.13389999999998,19.7834 C 4.13389999999998,19.4881 4.42919999999998,19.4881 5.0197,19.4881 C 5.6103,19.4881 6.20079999999996,19.4881 6.20079999999996,19.7834 Z Z " fill="#000000" stroke="none"/>
        <path d="M 8.56299999999999,19.1928 C 8.56299999999999,19.7834 7.08659999999998,20.3739 5.0197,20.3739 C 3.24809999999997,20.3739 1.77170000000001,19.7834 1.77170000000001,19.1928 C 1.77170000000001,18.307 3.24809999999997,18.0117 5.0197,18.0117 C 7.08659999999998,18.0117 8.56299999999999,18.307 8.56299999999999,19.1928 Z Z " fill="#FFFFFF" stroke="#000000" stroke-width="0.4429" stroke-linecap="round" stroke-linejoin="round"/>
        <path d="M 6.20079999999996,19.1928 C 6.20079999999996,19.1928 5.6103,19.4881 5.0197,19.4881 C 4.42919999999998,19.4881 4.13389999999998,19.1928 4.13389999999998,19.1928 C 4.13389999999998,18.8976 4.42919999999998,18.6023 5.0197,18.6023 C 5.6103,18.6023 6.20079999999996,18.8976 6.20079999999996,19.1928 Z Z " fill="#000000" stroke="none"/>
        <path d="M 8.56299999999999,16.2401 C 8.56299999999999,17.1259 7.08659999999998,17.7165 5.0197,17.7165 C 3.24809999999997,17.7165 1.77170000000001,17.1259 1.77170000000001,16.2401 C 1.77170000000001,15.6495 3.24809999999997,15.059 5.0197,15.059 C 7.08659999999998,15.059 8.56299999999999,15.6495 8.56299999999999,16.2401 Z Z " fill="#FFFFFF" stroke="#000000" stroke-width="0.4429" stroke-linecap="round" stroke-linejoin="round"/>
        <path d="M 6.20079999999996,16.2401 C 6.20079999999996,16.5354 5.6103,16.5354 5.0197,16.5354 C 4.42919999999998,16.5354 4.13389999999998,16.5354 4.13389999999998,16.2401 C 4.13389999999998,15.9448 4.42919999999998,15.9448 5.0197,15.9448 C 5.6103,15.9448 6.20079999999996,15.9448 6.20079999999996,16.2401 Z Z " fill="#000000" stroke="none"/>
        <path d="M 6.20079999999996,15.6495 C 6.20079999999996,15.6495 5.6103,15.9448 5.0197,15.9448 C 4.42919999999998,15.9448 4.13389999999998,15.6495 4.13389999999998,15.6495 C 4.13389999999998,15.3543 4.42919999999998,15.059 5.0197,15.059 C 5.6103,15.059 6.20079999999996,15.3543 6.20079999999996,15.6495 Z Z " fill="#000000" stroke="none"/>
        <path d="M 8.56299999999999,15.059 C 8.56299999999999,15.6495 7.08659999999998,16.2401 5.0197,16.2401 C 3.24809999999997,16.2401 1.77170000000001,15.6495 1.77170000000001,15.059 C 1.77170000000001,14.1731 3.24809999999997,13.5826 5.0197,13.5826 C 7.08659999999998,13.5826 8.56299999999999,14.1731 8.56299999999999,15.059 Z Z " fill="#FFFFFF" stroke="#000000" stroke-width="0.4429" stroke-linecap="round" stroke-linejoin="round"/>
        <path d="M 6.20079999999996,14.7637 C 6.20079999999996,15.059 5.6103,15.3543 5.0197,15.3543 C 4.42919999999998,15.3543 4.13389999999998,15.059 4.13389999999998,14.7637 C 4.13389999999998,14.7637 4.42919999999998,14.4684 5.0197,14.4684 C 5.6103,14.4684 6.20079999999996,14.7637 6.20079999999996,14.7637 Z Z " fill="#000000" stroke="none"/>
        <path d="M 6.20079999999996,14.1731 C 6.20079999999996,14.4684 5.6103,14.4684 5.0197,14.4684 C 4.42919999999998,14.4684 4.13389999999998,14.4684 4.13389999999998,14.1731 C 4.13389999999998,13.8779 4.42919999999998,13.8779 5.0197,13.8779 C 5.6103,13.8779 6.20079999999996,13.8779 6.20079999999996,14.1731 Z Z " fill="#000000" stroke="none"/>
        <path d="M 8.56299999999999,13.5826 C 8.56299999999999,14.1731 7.08659999999998,14.7637 5.0197,14.7637 C 3.24809999999997,14.7637 1.77170000000001,14.1731 1.77170000000001,13.5826 C 1.77170000000001,12.6968 3.24809999999997,12.1062 5.0197,12.1062 C 7.08659999999998,12.1062 8.56299999999999,12.6968 8.56299999999999,13.5826 Z Z " fill="#FFFFFF" stroke="#000000" stroke-width="0.4429" stroke-linecap="round" stroke-linejoin="round"/>
        <path d="M 6.20079999999996,13.2873 C 6.20079999999996,13.5826 5.6103,13.8779 5.0197,13.8779 C 4.42919999999998,13.8779 4.13389999999998,13.5826 4.13389999999998,13.2873 C 4.13389999999998,13.2873 4.42919999999998,12.9921 5.0197,12.9921 C 5.6103,12.9921 6.20079999999996,13.2873 6.20079999999996,13.2873 Z Z " fill="#000000" stroke="none"/>
        <path d="M 16.2402,27.7558 C 16.2402,28.3463 14.7638,28.9369 12.6969,28.9369 C 10.9252,28.9369 9.44880000000001,28.3463 9.44880000000001,27.7558 C 9.44880000000001,26.87 10.9252,26.2794 12.6969,26.2794 C 14.7638,26.2794 16.2402,26.87 16.2402,27.7558 Z Z " fill="#FFFFFF" stroke="#000000" stroke-width="0.4429" stroke-linecap="round" stroke-linejoin="round"/>
        <path d="M 13.878,27.4605 C 13.878,27.7558 13.2874,28.0511 12.6969,28.0511 C 12.1063,28.0511 11.811,27.7558 11.811,27.4605 C 11.811,27.4605 12.1063,27.1653 12.6969,27.1653 C 13.2874,27.1653 13.878,27.4605 13.878,27.4605 Z Z " fill="#000000" stroke="none"/>
        <path d="M 13.878,26.87 C 13.878,27.1653 13.2874,27.1653 12.6969,27.1653 C 12.1063,27.1653 11.811,27.1653 11.811,26.87 C 11.811,26.5747 12.1063,26.5747 12.6969,26.5747 C 13.2874,26.5747 13.878,26.5747 13.878,26.87 Z Z " fill="#000000" stroke="none"/>
        <path d="M 16.2402,26.2794 C 16.2402,26.87 14.7638,27.4605 12.6969,27.4605 C 10.9252,27.4605 9.44880000000001,26.87 9.44880000000001,26.2794 C 9.44880000000001,25.3936 10.9252,25.0983 12.6969,25.0983 C 14.7638,25.0983 16.2402,25.3936 16.2402,26.2794 Z Z " fill="#FFFFFF" stroke="#000000" stroke-width="0.4429" stroke-linecap="round" stroke-linejoin="round"/>
        <path d="M 13.878,26.2794 C 13.878,26.2794 13.2874,26.5747 12.6969,26.5747 C 12.1063,26.5747 11.811,26.2794 11.811,26.2794 C 11.811,25.9842 12.1063,25.6889 12.6969,25.6889 C 13.2874,25.6889 13.878,25.9842 13.878,26.2794 Z Z " fill="#000000" stroke="none"/>
        <path d="M 13.878,25.3936 C 13.878,25.6889 13.2874,25.9842 12.6969,25.9842 C 12.1063,25.9842 11.811,25.6889 11.811,25.3936 C 11.811,25.3936 12.1063,25.0983 12.6969,25.0983 C 13.2874,25.0983 13.878,25.3936 13.878,25.3936 Z Z " fill="#000000" stroke="none"/>
        <path d="M 16.2402,24.8031 C 16.2402,25.6889 14.7638,26.2794 12.6969,26.2794 C 10.9252,26.2794 9.44880000000001,25.6889 9.44880000000001,24.8031 C 9.44880000000001,24.2125 10.9252,23.622 12.6969,23.622 C 14.7638,23.622 16.2402,24.2125 16.2402,24.8031 Z Z " fill="#FFFFFF" stroke="#000000" stroke-width="0.4429" stroke-linecap="round" stroke-linejoin="round"/>
        <path d="M 13.878,24.8031 C 13.878,25.0983 13.2874,25.0983 12.6969,25.0983 C 12.1063,25.0983 11.811,25.0983 11.811,24.8031 C 11.811,24.5078 12.1063,24.5078 12.6969,24.5078 C 13.2874,24.5078 13.878,24.5078 13.878,24.8031 Z Z " fill="#000000" stroke="none"/>
        <path d="M 16.2402,22.1456 C 16.2402,22.7361 14.7638,23.3267 12.6969,23.3267 C 10.9252,23.3267 9.44880000000001,22.7361 9.44880000000001,22.1456 C 9.44880000000001,21.2598 10.9252,20.6692 12.6969,20.6692 C 14.7638,20.6692 16.2402,21.2598 16.2402,22.1456 Z Z " fill="#FFFFFF" stroke="#000000" stroke-width="0.4429" stroke-linecap="round" stroke-linejoin="round"/>
        <path d="M 13.878,21.8503 C 13.878,22.1456 13.2874,22.4409 12.6969,22.4409 C 12.1063,22.4409 11.811,22.1456 11.811,21.8503 C 11.811,21.8503 12.1063,21.5549999999999 12.6969,21.5549999999999 C 13.2874,21.5549999999999 13.878,21.8503 13.878,21.8503 Z Z " fill="#000000" stroke="none"/>
        <path d="M 13.878,21.2598 C 13.878,21.5549999999999 13.2874,21.5549999999999 12.6969,21.5549999999999 C 12.1063,21.5549999999999 11.811,21.5549999999999 11.811,21.2598 C 11.811,20.9645 12.1063,20.9645 12.6969,20.9645 C 13.2874,20.9645 13.878,20.9645 13.878,21.2598 Z Z " fill="#000000" stroke="none"/>
        <path d="M 16.2402,20.6692 C 16.2402,21.2598 14.7638,21.8503 12.6969,21.8503 C 10.9252,21.8503 9.44880000000001,21.2598 9.44880000000001,20.6692 C 9.44880000000001,19.7834 10.9252,19.1928 12.6969,19.1928 C 14.7638,19.1928 16.2402,19.7834 16.2402,20.6692 Z Z " fill="#FFFFFF" stroke="#000000" stroke-width="0.4429" stroke-linecap="round" stroke-linejoin="round"/>
        <path d="M 13.878,20.3739 C 13.878,20.6692 13.2874,20.9645 12.6969,20.9645 C 12.1063,20.9645 11.811,20.6692 11.811,20.3739 C 11.811,20.3739 12.1063,20.0787 12.6969,20.0787 C 13.2874,20.0787 13.878,20.3739 13.878,20.3739 Z Z " fill="#000000" stroke="none"/>
        <path d="M 13.878,19.7834 C 13.878,20.0787 13.2874,20.0787 12.6969,20.0787 C 12.1063,20.0787 11.811,20.0787 11.811,19.7834 C 11.811,19.4881 12.1063,19.4881 12.6969,19.4881 C 13.2874,19.4881 13.878,19.4881 13.878,19.7834 Z Z " fill="#000000" stroke="none"/>
        <path d="M 16.2402,19.1928 C 16.2402,19.7834 14.7638,20.3739 12.6969,20.3739 C 10.9252,20.3739 9.44880000000001,19.7834 9.44880000000001,19.1928 C 9.44880000000001,18.307 10.9252,18.0117 12.6969,18.0117 C 14.7638,18.0117 16.2402,18.307 16.2402,19.1928 Z Z " fill="#FFFFFF" stroke="#000000" stroke-width="0.4429" stroke-linecap="round" stroke-linejoin="round"/>
        <path d="M 13.878,19.1928 C 13.878,19.1928 13.2874,19.4881 12.6969,19.4881 C 12.1063,19.4881 11.811,19.1928 11.811,19.1928 C 11.811,18.8976 12.1063,18.6023 12.6969,18.6023 C 13.2874,18.6023 13.878,18.8976 13.878,19.1928 Z Z " fill="#000000" stroke="none"/>
        <path d="M 16.2402,16.2401 C 16.2402,17.1259 14.7638,17.7165 12.6969,17.7165 C 10.9252,17.7165 9.44880000000001,17.1259 9.44880000000001,16.2401 C 9.44880000000001,15.6495 10.9252,15.059 12.6969,15.059 C 14.7638,15.059 16.2402,15.6495 16.2402,16.2401 Z Z " fill="#FFFFFF" stroke="#000000" stroke-width="0.4429" stroke-linecap="round" stroke-linejoin="round"/>
        <path d="M 13.878,16.2401 C 13.878,16.5354 13.2874,16.5354 12.6969,16.5354 C 12.1063,16.5354 11.811,16.5354 11.811,16.2401 C 11.811,15.9448 12.1063,15.9448 12.6969,15.9448 C 13.2874,15.9448 13.878,15.9448 13.878,16.2401 Z Z " fill="#000000" stroke="none"/>
        <path d="M 13.878,15.6495 C 13.878,15.6495 13.2874,15.9448 12.6969,15.9448 C 12.1063,15.9448 11.811,15.6495 11.811,15.6495 C 11.811,15.3543 12.1063,15.059 12.6969,15.059 C 13.2874,15.059 13.878,15.3543 13.878,15.6495 Z Z " fill="#000000" stroke="none"/>
        <path d="M 16.2402,15.059 C 16.2402,15.6495 14.7638,16.2401 12.6969,16.2401 C 10.9252,16.2401 9.44880000000001,15.6495 9.44880000000001,15.059 C 9.44880000000001,14.1731 10.9252,13.5826 12.6969,13.5826 C 14.7638,13.5826 16.2402,14.1731 16.2402,15.059 Z Z " fill="#FFFFFF" stroke="#000000" stroke-width="0.4429" stroke-linecap="round" stroke-linejoin="round"/>
        <path d="M 13.878,14.7637 C 13.878,15.059 13.2874,15.3543 12.6969,15.3543 C 12.1063,15.3543 11.811,15.059 11.811,14.7637 C 11.811,14.7637 12.1063,14.4684 12.6969,14.4684 C 13.2874,14.4684 13.878,14.7637 13.878,14.7637 Z Z " fill="#000000" stroke="none"/>
        <path d="M 13.878,14.1731 C 13.878,14.4684 13.2874,14.4684 12.6969,14.4684 C 12.1063,14.4684 11.811,14.4684 11.811,14.1731 C 11.811,13.8779 12.1063,13.8779 12.6969,13.8779 C 13.2874,13.8779 13.878,13.8779 13.878,14.1731 Z Z " fill="#000000" stroke="none"/>
        <path d="M 16.2402,13.5826 C 16.2402,14.1731 14.7638,14.7637 12.6969,14.7637 C 10.9252,14.7637 9.44880000000001,14.1731 9.44880000000001,13.5826 C 9.44880000000001,12.6968 10.9252,12.1062 12.6969,12.1062 C 14.7638,12.1062 16.2402,12.6968 16.2402,13.5826 Z Z " fill="#FFFFFF" stroke="#000000" stroke-width="0.4429" stroke-linecap="round" stroke-linejoin="round"/>
        <path d="M 13.878,13.2873 C 13.878,13.5826 13.2874,13.8779 12.6969,13.8779 C 12.1063,13.8779 11.811,13.5826 11.811,13.2873 C 11.811,13.2873 12.1063,12.9921 12.6969,12.9921 C 13.2874,12.9921 13.878,13.2873 13.878,13.2873 Z Z " fill="#000000" stroke="none"/>
      </g>
      <!--emf-blob end-->
    </g>
  </g>
</svg>

