<svg xmlns="http://www.w3.org/2000/svg" xmlns:xlink="http://www.w3.org/1999/xlink" version="1.1" viewBox="0 0 72 105" >
  <title><![CDATA[Fileserver]]></title>
  <g transform=" scale(3.000000) ">
    <!--converted by libvisio2svg-->
    <g>
      <!--emf-blob start-->
      <g>
        <path d="M 18.0118,5.90549999999996 L 0,5.90549999999996 L 0,34.8424 L 18.0118,34.8424 Z " fill="#036C9B" stroke-width="1px" stroke="#036C9B"/>
        <path d="M 18.0118,5.90549999999996 L 0,5.90549999999996 L 0,34.8424 L 18.0118,34.8424 " stroke="#FFFFFF" stroke-width="0.8858" stroke-linecap="butt" stroke-linejoin="miter" fill="none"/>
        <path d="M 18.0118,34.8424 L 23.9173,29.2322 L 23.9173,0 L 5.90549999999996,0 L 0,5.90549999999996 L 18.0118,5.90549999999996 L 18.0118,34.8424 Z " fill="#036C9B" stroke="#FFFFFF" stroke-width="0.8858" stroke-linecap="butt" stroke-linejoin="miter"/>
        <path d="M 18.0118,5.90549999999996 L 23.9173,0 Z " fill="#036C9B" stroke-width="1px" stroke="#036C9B"/>
        <path d="M 18.0118,5.90549999999996 L 23.9173,0 " stroke="#FFFFFF" stroke-width="0.8858" stroke-linecap="butt" stroke-linejoin="miter" fill="none"/>
        <path d="M 0.295299999999997,17.1259 L 18.0118,17.1259 " stroke="#FFFFFF" stroke-width="0.8858" stroke-linecap="butt" stroke-linejoin="miter" fill="none"/>
        <path d="M 0.295299999999997,30.4133 L 18.0118,30.4133 " stroke="#FFFFFF" stroke-width="0.8858" stroke-linecap="butt" stroke-linejoin="miter" fill="none"/>
        <path d="M 4.42919999999998,10.3346 L 9.44880000000001,10.3346 " stroke="#FFFFFF" stroke-width="0.8858" stroke-linecap="butt" stroke-linejoin="miter" fill="none"/>
        <path d="M 11.5157,12.1062 L 11.5157,8.56289999999996 L 2.36219999999997,8.56289999999996 L 2.36219999999997,12.1062 L 11.5157,12.1062 Z " fill="none" stroke="#FFFFFF" stroke-width="0.8858" stroke-linecap="butt" stroke-linejoin="miter"/>
      </g>
      <!--emf-blob end-->
    </g>
  </g>
</svg>

