<svg xmlns="http://www.w3.org/2000/svg" xmlns:xlink="http://www.w3.org/1999/xlink" version="1.1" viewBox="0 0 87 105" >
  <title><![CDATA[File cabinet]]></title>
  <g transform=" scale(3.000000) ">
    <!--converted by libvisio2svg-->
    <g>
      <!--emf-blob start-->
      <g>
        <path d="M 22.441,5.90549999999996 L 4.42910000000001,5.90549999999996 L 4.42910000000001,34.8425999999999 L 22.441,34.8425999999999 Z " fill="#0F73A0" stroke-width="1px" stroke="#0F73A0"/>
        <path d="M 22.441,5.90549999999996 L 4.42910000000001,5.90549999999996 L 4.42910000000001,34.8425999999999 L 22.441,34.8425999999999 " stroke="#FFFFFF" stroke-width="0.88585" stroke-linecap="butt" stroke-linejoin="miter" fill="none"/>
        <path d="M 22.441,34.8425999999999 L 28.3465,28.937 L 28.3465,0 L 10.0394,0 L 4.42910000000001,5.90549999999996 L 22.441,5.90549999999996 L 22.441,34.8425999999999 Z " fill="#0F73A0" stroke="#FFFFFF" stroke-width="0.88585" stroke-linecap="butt" stroke-linejoin="miter"/>
        <path d="M 4.7244,14.7637999999999 L 22.441,14.7637999999999 Z " fill="#0F73A0" stroke-width="1px" stroke="#0F73A0"/>
        <path d="M 4.7244,14.7637999999999 L 22.441,14.7637999999999 " stroke="#FFFFFF" stroke-width="0.88585" stroke-linecap="butt" stroke-linejoin="miter" fill="none"/>
        <path d="M 4.7244,23.9173 L 22.441,23.9173 Z " fill="#0F73A0" stroke-width="1px" stroke="#0F73A0"/>
        <path d="M 4.7244,23.9173 L 22.441,23.9173 " stroke="#FFFFFF" stroke-width="0.88585" stroke-linecap="butt" stroke-linejoin="miter" fill="none"/>
        <path d="M 11.2205,10.0394 L 16.2402,10.0394 Z " fill="#0F73A0" stroke-width="1px" stroke="#0F73A0"/>
        <path d="M 11.2205,10.0394 L 16.2402,10.0394 " stroke="#FFFFFF" stroke-width="0.88585" stroke-linecap="butt" stroke-linejoin="miter" fill="none"/>
        <path d="M 18.3071,11.811 L 18.3071,8.26769999999999 L 9.15359999999998,8.26769999999999 L 9.15359999999998,11.811 L 18.3071,11.811 Z " fill="#0F73A0" stroke="#FFFFFF" stroke-width="0.88585" stroke-linecap="butt" stroke-linejoin="miter"/>
        <path d="M 11.2205,28.6418 L 16.2402,28.6418 Z " fill="#0F73A0" stroke-width="1px" stroke="#0F73A0"/>
        <path d="M 11.2205,28.6418 L 16.2402,28.6418 " stroke="#FFFFFF" stroke-width="0.88585" stroke-linecap="butt" stroke-linejoin="miter" fill="none"/>
        <path d="M 18.3071,30.4134 L 18.3071,26.5748 L 9.15359999999998,26.5748 L 9.15359999999998,30.4134 L 18.3071,30.4134 Z " fill="#0F73A0" stroke="#FFFFFF" stroke-width="0.88585" stroke-linecap="butt" stroke-linejoin="miter"/>
        <path d="M 4.7244,32.7756 L 22.441,32.7756 Z " fill="#0F73A0" stroke-width="1px" stroke="#0F73A0"/>
        <path d="M 4.7244,32.7756 L 22.441,32.7756 " stroke="#FFFFFF" stroke-width="0.88585" stroke-linecap="butt" stroke-linejoin="miter" fill="none"/>
        <path d="M 18.3071,27.7559 L 22.441,23.9173 L 22.441,17.126 L 4.13389999999998,17.126 L 0,21.2599 L 18.3071,21.2599 L 18.3071,27.7559 Z " fill="#0F73A0" stroke="#FFFFFF" stroke-width="0.88585" stroke-linecap="butt" stroke-linejoin="miter"/>
        <path d="M 18.3071,21.2599 L 22.441,17.126 Z " fill="#0F73A0" stroke-width="1px" stroke="#0F73A0"/>
        <path d="M 18.3071,21.2599 L 22.441,17.126 " stroke="#FFFFFF" stroke-width="0.88585" stroke-linecap="butt" stroke-linejoin="miter" fill="none"/>
        <path d="M 18.3071,27.7559 L 0,27.7559 L 0,18.6024 L 18.3071,18.6024 L 18.3071,27.7559 Z " fill="#0F73A0" stroke="#FFFFFF" stroke-width="0.88585" stroke-linecap="butt" stroke-linejoin="miter"/>
        <path d="M 7.08659999999998,23.3268 L 12.1063,23.3268 Z " fill="#0F73A0" stroke-width="1px" stroke="#0F73A0"/>
        <path d="M 7.08659999999998,23.3268 L 12.1063,23.3268 " stroke="#FFFFFF" stroke-width="0.88585" stroke-linecap="butt" stroke-linejoin="miter" fill="none"/>
        <path d="M 14.1732,25.0984 L 14.1732,21.5551 L 5.0197,21.5551 L 5.0197,25.0984 L 14.1732,25.0984 Z " fill="#0F73A0" stroke="#FFFFFF" stroke-width="0.88585" stroke-linecap="butt" stroke-linejoin="miter"/>
      </g>
      <!--emf-blob end-->
    </g>
  </g>
</svg>

