<svg xmlns="http://www.w3.org/2000/svg" xmlns:xlink="http://www.w3.org/1999/xlink" version="1.1" viewBox="0 0 75 96" >
  <title><![CDATA[File server]]></title>
  <g transform=" scale(3.000000) ">
    <!--converted by libvisio2svg-->
    <g>
      <!--emf-blob start-->
      <g>
        <path d="M 18.307,5.9055 L 0,5.9055 L 0,31.8897 L 18.307,31.8897 Z " fill="#046897" stroke-width="1px" stroke="#046897"/>
        <path d="M 18.307,5.9055 L 0,5.9055 L 0,31.8897 L 18.307,31.8897 " stroke="#FFFFFF" stroke-width="0.8858" stroke-linecap="butt" stroke-linejoin="miter" fill="none"/>
        <path d="M 18.307,31.8897 L 24.2125,26.2795 L 24.2125,0 L 5.9054,0 L 0,5.9055 L 18.307,5.9055 L 18.307,31.8897 Z " fill="#046897" stroke="#FFFFFF" stroke-width="0.8858" stroke-linecap="butt" stroke-linejoin="miter"/>
        <path d="M 18.307,5.9055 L 24.2125,0 Z " fill="#046897" stroke-width="1px" stroke="#046897"/>
        <path d="M 18.307,5.9055 L 24.2125,0 " stroke="#FFFFFF" stroke-width="0.8858" stroke-linecap="butt" stroke-linejoin="miter" fill="none"/>
        <path d="M 0.295200000000001,12.9921 L 18.0117,12.9921 " stroke="#FFFFFF" stroke-width="0.8858" stroke-linecap="butt" stroke-linejoin="miter" fill="none"/>
        <path d="M 0.295200000000001,21.2598 L 18.0117,21.2598 " stroke="#FFFFFF" stroke-width="0.8858" stroke-linecap="butt" stroke-linejoin="miter" fill="none"/>
        <path d="M 6.496,18.0118 L 11.5157,18.0118 " stroke="#FFFFFF" stroke-width="0.8858" stroke-linecap="butt" stroke-linejoin="miter" fill="none"/>
        <path d="M 6.496,16.5354 L 11.5157,16.5354 " stroke="#FFFFFF" stroke-width="0.8858" stroke-linecap="butt" stroke-linejoin="miter" fill="none"/>
        <path d="M 13.5826,19.7834 L 13.5826,14.7638 L 4.4291,14.7638 L 4.4291,19.7834 L 13.5826,19.7834 Z " fill="none" stroke="#FFFFFF" stroke-width="0.8858" stroke-linecap="butt" stroke-linejoin="miter"/>
        <path d="M 8.8582,18.0118 L 8.8582,18.0118 " stroke="#FFFFFF" stroke-width="0.8858" stroke-linecap="butt" stroke-linejoin="miter" fill="none"/>
      </g>
      <!--emf-blob end-->
    </g>
  </g>
</svg>

