<svg xmlns="http://www.w3.org/2000/svg" xmlns:xlink="http://www.w3.org/1999/xlink" version="1.1" viewBox="0 0 51 114" >
  <title><![CDATA[Firewall]]></title>
  <g transform=" scale(3.000000) ">
    <!--converted by libvisio2svg-->
    <g>
      <!--emf-blob start-->
      <g>
        <path d="M 0,37.7952 L 0,6.49600000000004 L 9.44880000000001,6.49600000000004 L 9.44880000000001,37.7952 L 0,37.7952 Z " fill="#036C9B" stroke="#FFFFFF" stroke-width="0.8858" stroke-linecap="butt" stroke-linejoin="miter"/>
        <path d="M 9.44880000000001,6.49600000000004 L 0,6.49600000000004 L 8.56299999999999,0 L 16.5354,0 L 9.44880000000001,6.49600000000004 Z " fill="#036C9B" stroke="#FFFFFF" stroke-width="0.8858" stroke-linecap="butt" stroke-linejoin="miter"/>
        <path d="M 16.5354,0 L 16.5354,29.8228 L 9.44880000000001,37.7952 L 9.44880000000001,6.49600000000004 L 16.5354,0 Z " fill="#036C9B" stroke="#FFFFFF" stroke-width="0.8858" stroke-linecap="butt" stroke-linejoin="miter"/>
        <path d="M 14.4685,6.79130000000004 L 14.4685,1.77170000000001 Z " fill="#036C9B" stroke-width="1px" stroke="#036C9B"/>
        <path d="M 14.4685,6.79130000000004 L 14.4685,1.77170000000001 " stroke="#FFFFFF" stroke-width="0.8858" stroke-linecap="butt" stroke-linejoin="miter" fill="none"/>
        <path d="M 14.4685,17.126 L 14.4685,12.1063 Z " fill="#036C9B" stroke-width="1px" stroke="#036C9B"/>
        <path d="M 14.4685,17.126 L 14.4685,12.1063 " stroke="#FFFFFF" stroke-width="0.8858" stroke-linecap="butt" stroke-linejoin="miter" fill="none"/>
        <path d="M 14.4685,27.1653 L 14.4685,22.1456 Z " fill="#036C9B" stroke-width="1px" stroke="#036C9B"/>
        <path d="M 14.4685,27.1653 L 14.4685,22.1456 " stroke="#FFFFFF" stroke-width="0.8858" stroke-linecap="butt" stroke-linejoin="miter" fill="none"/>
        <path d="M 16.5354,24.8031 L 9.44880000000001,32.7755 Z " fill="#036C9B" stroke-width="1px" stroke="#036C9B"/>
        <path d="M 16.5354,24.8031 L 9.44880000000001,32.7755 " stroke="#FFFFFF" stroke-width="0.8858" stroke-linecap="butt" stroke-linejoin="miter" fill="none"/>
        <path d="M 16.5354,19.7834 L 9.44880000000001,27.4606 Z " fill="#036C9B" stroke-width="1px" stroke="#036C9B"/>
        <path d="M 16.5354,19.7834 L 9.44880000000001,27.4606 " stroke="#FFFFFF" stroke-width="0.8858" stroke-linecap="butt" stroke-linejoin="miter" fill="none"/>
        <path d="M 16.5354,14.7638 L 9.44880000000001,22.1456 Z " fill="#036C9B" stroke-width="1px" stroke="#036C9B"/>
        <path d="M 16.5354,14.7638 L 9.44880000000001,22.1456 " stroke="#FFFFFF" stroke-width="0.8858" stroke-linecap="butt" stroke-linejoin="miter" fill="none"/>
        <path d="M 16.5354,9.7441 L 9.44880000000001,17.126 Z " fill="#036C9B" stroke-width="1px" stroke="#036C9B"/>
        <path d="M 16.5354,9.7441 L 9.44880000000001,17.126 " stroke="#FFFFFF" stroke-width="0.8858" stroke-linecap="butt" stroke-linejoin="miter" fill="none"/>
        <path d="M 16.5354,5.0197 L 9.44880000000001,11.811 Z " fill="#036C9B" stroke-width="1px" stroke="#036C9B"/>
        <path d="M 16.5354,5.0197 L 9.44880000000001,11.811 " stroke="#FFFFFF" stroke-width="0.8858" stroke-linecap="butt" stroke-linejoin="miter" fill="none"/>
        <path d="M 9.44880000000001,6.49600000000004 L 16.5354,0 Z " fill="#036C9B" stroke-width="1px" stroke="#036C9B"/>
        <path d="M 9.44880000000001,6.49600000000004 L 16.5354,0 " stroke="#FFFFFF" stroke-width="0.8858" stroke-linecap="butt" stroke-linejoin="miter" fill="none"/>
        <path d="M 9.44880000000001,32.4803 L 0,32.4803 Z " fill="#036C9B" stroke-width="1px" stroke="#036C9B"/>
        <path d="M 9.44880000000001,32.4803 L 0,32.4803 " stroke="#FFFFFF" stroke-width="0.8858" stroke-linecap="butt" stroke-linejoin="miter" fill="none"/>
        <path d="M 9.44880000000001,27.4606 L 0,27.4606 Z " fill="#036C9B" stroke-width="1px" stroke="#036C9B"/>
        <path d="M 9.44880000000001,27.4606 L 0,27.4606 " stroke="#FFFFFF" stroke-width="0.8858" stroke-linecap="butt" stroke-linejoin="miter" fill="none"/>
        <path d="M 9.44880000000001,22.1456 L 0,22.1456 Z " fill="#036C9B" stroke-width="1px" stroke="#036C9B"/>
        <path d="M 9.44880000000001,22.1456 L 0,22.1456 " stroke="#FFFFFF" stroke-width="0.8858" stroke-linecap="butt" stroke-linejoin="miter" fill="none"/>
        <path d="M 9.44880000000001,16.8307 L 0,16.8307 Z " fill="#036C9B" stroke-width="1px" stroke="#036C9B"/>
        <path d="M 9.44880000000001,16.8307 L 0,16.8307 " stroke="#FFFFFF" stroke-width="0.8858" stroke-linecap="butt" stroke-linejoin="miter" fill="none"/>
        <path d="M 9.44880000000001,11.811 L 0,11.811 Z " fill="#036C9B" stroke-width="1px" stroke="#036C9B"/>
        <path d="M 9.44880000000001,11.811 L 0,11.811 " stroke="#FFFFFF" stroke-width="0.8858" stroke-linecap="butt" stroke-linejoin="miter" fill="none"/>
        <path d="M 12.1063,35.1377000000001 L 12.1063,29.8228 Z " fill="#036C9B" stroke-width="1px" stroke="#036C9B"/>
        <path d="M 12.1063,35.1377000000001 L 12.1063,29.8228 " stroke="#FFFFFF" stroke-width="0.8858" stroke-linecap="butt" stroke-linejoin="miter" fill="none"/>
        <path d="M 12.1063,24.8031 L 12.1063,19.7834 Z " fill="#036C9B" stroke-width="1px" stroke="#036C9B"/>
        <path d="M 12.1063,24.8031 L 12.1063,19.7834 " stroke="#FFFFFF" stroke-width="0.8858" stroke-linecap="butt" stroke-linejoin="miter" fill="none"/>
        <path d="M 12.1063,14.4685 L 12.1063,9.44880000000001 Z " fill="#036C9B" stroke-width="1px" stroke="#036C9B"/>
        <path d="M 12.1063,14.4685 L 12.1063,9.44880000000001 " stroke="#FFFFFF" stroke-width="0.8858" stroke-linecap="butt" stroke-linejoin="miter" fill="none"/>
      </g>
      <!--emf-blob end-->
    </g>
  </g>
</svg>

