<svg xmlns="http://www.w3.org/2000/svg" xmlns:xlink="http://www.w3.org/1999/xlink" version="1.1" viewBox="0 0 72 87" >
  <title><![CDATA[Front end processor]]></title>
  <g transform=" scale(3.000000) ">
    <!--converted by libvisio2svg-->
    <g>
      <!--emf-blob start-->
      <g>
        <path d="M 6.19929999999999,4.72320000000002 L 0,4.72320000000002 L 0,28.93 L 6.19929999999999,28.93 Z " fill="#036C9B" stroke-width="1px" stroke="#036C9B"/>
        <path d="M 6.19929999999999,4.72320000000002 L 0,4.72320000000002 L 0,28.93 L 6.19929999999999,28.93 " stroke="#FFFFFF" stroke-width="0.8856" stroke-linecap="butt" stroke-linejoin="miter" fill="none"/>
        <path d="M 6.19929999999999,28.93 L 10.9225,24.2067 L 10.9225,0 L 4.428,0 L 0,4.72320000000002 L 6.19929999999999,4.72320000000002 L 6.19929999999999,28.93 Z " fill="#036C9B" stroke="#FFFFFF" stroke-width="0.8856" stroke-linecap="butt" stroke-linejoin="miter"/>
        <path d="M 6.19929999999999,4.72320000000002 L 10.9225,0 Z " fill="#036C9B" stroke-width="1px" stroke="#036C9B"/>
        <path d="M 6.19929999999999,4.72320000000002 L 10.9225,0 " stroke="#FFFFFF" stroke-width="0.8856" stroke-linecap="butt" stroke-linejoin="miter" fill="none"/>
        <path d="M 12.6937,4.72320000000002 L 6.19929999999999,4.72320000000002 L 6.19929999999999,28.93 L 12.6937,28.93 Z " fill="#036C9B" stroke-width="1px" stroke="#036C9B"/>
        <path d="M 12.6937,4.72320000000002 L 6.19929999999999,4.72320000000002 L 6.19929999999999,28.93 L 12.6937,28.93 " stroke="#FFFFFF" stroke-width="0.8856" stroke-linecap="butt" stroke-linejoin="miter" fill="none"/>
        <path d="M 12.6937,28.93 L 17.1218,24.2067 L 17.1218,0 L 10.9225,0 L 6.19929999999999,4.72320000000002 L 12.6937,4.72320000000002 L 12.6937,28.93 Z " fill="#036C9B" stroke="#FFFFFF" stroke-width="0.8856" stroke-linecap="butt" stroke-linejoin="miter"/>
        <path d="M 12.6937,4.72320000000002 L 17.1218,0 Z " fill="#036C9B" stroke-width="1px" stroke="#036C9B"/>
        <path d="M 12.6937,4.72320000000002 L 17.1218,0 " stroke="#FFFFFF" stroke-width="0.8856" stroke-linecap="butt" stroke-linejoin="miter" fill="none"/>
        <path d="M 18.893,4.72320000000002 L 12.6937,4.72320000000002 L 12.6937,28.93 L 18.893,28.93 Z " fill="#036C9B" stroke-width="1px" stroke="#036C9B"/>
        <path d="M 18.893,4.72320000000002 L 12.6937,4.72320000000002 L 12.6937,28.93 L 18.893,28.93 " stroke="#FFFFFF" stroke-width="0.8856" stroke-linecap="butt" stroke-linejoin="miter" fill="none"/>
        <path d="M 18.893,28.93 L 23.6163,24.2067 L 23.6163,0 L 17.1218,0 L 12.6937,4.72320000000002 L 18.893,4.72320000000002 L 18.893,28.93 Z " fill="#036C9B" stroke="#FFFFFF" stroke-width="0.8856" stroke-linecap="butt" stroke-linejoin="miter"/>
        <path d="M 18.893,4.72320000000002 L 23.6163,0 Z " fill="#036C9B" stroke-width="1px" stroke="#036C9B"/>
        <path d="M 18.893,4.72320000000002 L 23.6163,0 " stroke="#FFFFFF" stroke-width="0.8856" stroke-linecap="butt" stroke-linejoin="miter" fill="none"/>
        <path d="M 18.0074,8.85610000000003 L 18.0074,5.31360000000001 L 13.5794,5.31360000000001 L 13.5794,8.85610000000003 L 18.0074,8.85610000000003 Z " fill="#036C9B" stroke="#FFFFFF" stroke-width="0.8856" stroke-linecap="butt" stroke-linejoin="miter"/>
        <path d="M 18.0074,12.6937 L 18.0074,9.44650000000001 L 13.5794,9.44650000000001 L 13.5794,12.6937 L 18.0074,12.6937 Z " fill="#036C9B" stroke="#FFFFFF" stroke-width="0.8856" stroke-linecap="butt" stroke-linejoin="miter"/>
        <path d="M 18.0074,26.2731 L 18.0074,22.7307 L 13.5794,22.7307 L 13.5794,26.2731 L 18.0074,26.2731 Z " fill="#036C9B" stroke="#FFFFFF" stroke-width="0.8856" stroke-linecap="butt" stroke-linejoin="miter"/>
      </g>
      <!--emf-blob end-->
    </g>
  </g>
</svg>

