<svg xmlns="http://www.w3.org/2000/svg" xmlns:xlink="http://www.w3.org/1999/xlink" version="1.1" viewBox="0 0 144 102" >
  <title><![CDATA[Gatekeeper]]></title>
  <g transform=" scale(3.000000) ">
    <!--converted by libvisio2svg-->
    <g>
      <!--emf-blob start-->
      <g>
        <path d="M 17.4131,4.13190000000009 C 9.73949999999996,2.65620000000001 5.60759999999999,6.49300000000005 6.1979,10.0346000000001 C 6.1979,10.3297 6.1979,10.3297 6.1979,10.3297 C 0,11.2151 1.77080000000001,18.5936 4.72219999999999,18.5936 C 5.01729999999998,18.5936 5.01729999999998,18.5936 5.01729999999998,18.5936 C 4.13189999999997,21.8401 11.2152,25.3817 15.3471,23.6109 C 15.6422,23.3157 15.6422,23.3157 15.6422,23.3157 C 17.1179,26.2671 22.1353,26.8574 27.1526,27.1525 C 31.2845,27.1525 33.9407,26.8574 35.7115,24.7914000000001 C 36.0067,25.0866000000001 36.0067,25.0866000000001 36.0067,25.0866000000001 C 42.7948,25.6768000000001 46.0413,20.6595000000001 44.5656,17.413 C 44.8608,17.1179000000001 44.8608,17.1179000000001 44.8608,17.1179000000001 C 47.2219,16.5276 47.517,11.2151 43.3851,10.3297 C 43.6802,10.0346000000001 43.6802,10.0346000000001 43.6802,10.0346000000001 C 45.451,6.49300000000005 41.3191,3.24650000000008 35.4164,3.83670000000006 C 35.1213,3.54160000000002 35.1213,3.54160000000002 35.1213,3.54160000000002 C 30.9893,0 19.1839,0.590200000000095 17.7082,4.13190000000009 Z Z " fill="#FFFFFF" stroke="#0E6F9C" stroke-width="0.8854" stroke-linecap="butt" stroke-linejoin="miter"/>
        <path d="M 20.9547,9.73950000000002 L 20.9547,29.8087 L 39.8434,29.8087 L 39.8434,9.73950000000002 L 20.9547,9.73950000000002 Z " fill="none" stroke="#0E6F9C" stroke-width="3.54165" stroke-linecap="butt" stroke-linejoin="miter"/>
        <path d="M 20.9547,9.73950000000002 L 39.8434,29.8087 " stroke="#0E6F9C" stroke-width="3.54165" stroke-linecap="butt" stroke-linejoin="miter" fill="none"/>
        <path d="M 20.9547,29.8087 L 39.8434,9.73950000000002 " stroke="#0E6F9C" stroke-width="3.54165" stroke-linecap="butt" stroke-linejoin="miter" fill="none"/>
        <path d="M 23.9061,12.6908000000001 L 23.9061,6.49300000000005 L 18.0033,6.49300000000005 L 18.0033,12.6908000000001 L 23.9061,12.6908000000001 Z " fill="#FFFFFF" stroke="#0E6F9C" stroke-width="0.8854" stroke-linecap="butt" stroke-linejoin="miter"/>
        <path d="M 42.7948,12.6908000000001 L 42.7948,6.49300000000005 L 36.8921,6.49300000000005 L 36.8921,12.6908000000001 L 42.7948,12.6908000000001 Z " fill="#FFFFFF" stroke="#0E6F9C" stroke-width="0.8854" stroke-linecap="butt" stroke-linejoin="miter"/>
        <path d="M 23.9061,33.0553 L 23.9061,26.8574 L 18.0033,26.8574 L 18.0033,33.0553 L 23.9061,33.0553 Z " fill="#FFFFFF" stroke="#0E6F9C" stroke-width="0.8854" stroke-linecap="butt" stroke-linejoin="miter"/>
        <path d="M 42.7948,33.0553 L 42.7948,26.8574 L 36.8921,26.8574 L 36.8921,33.0553 L 42.7948,33.0553 Z " fill="#FFFFFF" stroke="#0E6F9C" stroke-width="0.8854" stroke-linecap="butt" stroke-linejoin="miter"/>
        <path d="M 33.3504,22.7255 L 33.3504,16.5276 L 27.1526,16.5276 L 27.1526,22.7255 L 33.3504,22.7255 Z " fill="#FFFFFF" stroke="#0E6F9C" stroke-width="0.8854" stroke-linecap="butt" stroke-linejoin="miter"/>
      </g>
      <!--emf-blob end-->
    </g>
  </g>
</svg>

