<svg xmlns="http://www.w3.org/2000/svg" xmlns:xlink="http://www.w3.org/1999/xlink" version="1.1" viewBox="0 0 111 126" >
  <title><![CDATA[Generic gateway]]></title>
  <g transform=" scale(3.000000) ">
    <!--converted by libvisio2svg-->
    <g>
      <!--emf-blob start-->
      <g>
        <path d="M 36.9157,7.08780000000002 C 36.9157,11.2223 28.6466,14.4709 18.6055,14.4709 C 8.26910000000004,14.4709 0,11.2223 0,7.08780000000002 C 0,34.2577 0,34.2577 0,34.2577 C 0,38.097 8.26910000000004,41.3455 18.6055,41.3455 C 28.6466,41.3455 36.9157,38.097 36.9157,34.2577 Z Z " fill="#036C9B" stroke="#FFFFFF" stroke-width="0.886" stroke-linecap="butt" stroke-linejoin="miter"/>
        <path d="M 18.6055,14.4709 C 28.6466,14.4709 36.9157,11.2223 36.9157,7.08780000000002 C 36.9157,3.24850000000004 28.6466,0 18.6055,0 C 8.26910000000004,0 0,3.24850000000004 0,7.08780000000002 C 0,11.2223 8.26910000000004,14.4709 18.6055,14.4709 Z Z " fill="#036C9B" stroke="#FFFFFF" stroke-width="0.886" stroke-linecap="butt" stroke-linejoin="miter"/>
        <path d="M 14.1756,4.4298 L 15.9476,6.79250000000002 L 10.0411,7.97380000000004 L 11.2224,7.08780000000002 L 2.36260000000004,5.31580000000002 L 4.72520000000003,3.83920000000001 L 13.2897,5.31580000000002 L 14.1756,4.4298 Z " fill="#FFFFFF" stroke-width="1px" stroke="#FFFFFF"/>
        <path d="M 22.4448,10.041 L 21.2635,7.67840000000001 L 26.5793,6.49709999999999 L 25.6933,7.38310000000001 L 34.2578,8.85970000000003 L 32.1905,10.3364 L 23.6261,8.85970000000003 L 22.4448,10.041 Z " fill="#FFFFFF" stroke-width="1px" stroke="#FFFFFF"/>
        <path d="M 19.4915,3.24850000000004 L 25.398,1.47660000000002 L 25.398,4.1345 L 23.9214,3.83920000000001 L 21.2635,6.20179999999999 L 18.3102,5.61110000000002 L 21.2635,3.54390000000001 L 19.4915,3.24850000000004 Z " fill="#FFFFFF" stroke-width="1px" stroke="#FFFFFF"/>
        <path d="M 17.1289,12.1083 L 11.5177,12.9943 L 11.2224,10.6317 L 12.9943,10.927 L 15.9476,8.26910000000004 L 18.6055,8.85970000000003 L 15.3569,11.5177 L 17.1289,12.1083 Z " fill="#FFFFFF" stroke-width="1px" stroke="#FFFFFF"/>
        <path d="M 18.9009,23.9213 L 18.9009,18.0148 L 19.7868,18.0148 L 18.3102,15.9475 L 16.8336,18.0148 L 17.7196,18.0148 L 17.7196,23.9213 L 18.9009,23.9213 Z " fill="#FFFFFF" stroke-width="1px" stroke="#FFFFFF"/>
        <path d="M 15.9476,24.8073 L 11.813,20.6728 L 12.4037,19.7868 L 9.74580000000003,19.1961 L 10.3364,21.8541 L 10.9271,21.2634 L 15.0616,25.398 L 15.9476,24.8073 Z " fill="#FFFFFF" stroke-width="1px" stroke="#FFFFFF"/>
        <path d="M 14.1756,27.4652 L 8.56450000000001,27.4652 L 8.56450000000001,26.2839 L 6.20190000000002,27.7606 L 8.56450000000001,29.2372 L 8.56450000000001,28.3512 L 14.1756,28.3512 L 14.1756,27.4652 Z " fill="#FFFFFF" stroke-width="1px" stroke="#FFFFFF"/>
        <path d="M 15.0616,30.4185 L 10.9271,34.5531 L 10.3364,33.6671 L 9.74580000000003,36.325 L 12.4037,35.7344 L 11.813,35.1437 L 15.9476,31.0091 L 15.0616,30.4185 Z " fill="#FFFFFF" stroke-width="1px" stroke="#FFFFFF"/>
        <path d="M 17.7196,31.8951 L 17.7196,37.8016 L 16.8336,37.8016 L 18.3102,39.8689 L 19.7868,37.8016 L 18.9009,37.8016 L 18.9009,31.8951 L 17.7196,31.8951 Z " fill="#FFFFFF" stroke-width="1px" stroke="#FFFFFF"/>
        <path d="M 20.6728,31.0091 L 24.8074,35.1437 L 24.2167,35.7344 L 26.8746,36.325 L 26.284,33.6671 L 25.6933,34.5531 L 21.5588,30.4185 L 20.6728,31.0091 Z " fill="#FFFFFF" stroke-width="1px" stroke="#FFFFFF"/>
        <path d="M 22.4448,28.3512 L 28.0559,28.3512 L 28.0559,29.2372 L 30.4185,27.7606 L 28.0559,26.2839 L 28.0559,27.4652 L 22.4448,27.4652 L 22.4448,28.3512 Z " fill="#FFFFFF" stroke-width="1px" stroke="#FFFFFF"/>
        <path d="M 21.5588,25.398 L 25.6933,21.2634 L 26.284,21.8541 L 26.8746,19.1961 L 24.2167,19.7868 L 24.8074,20.6728 L 20.6728,24.8073 L 21.5588,25.398 Z " fill="#FFFFFF" stroke-width="1px" stroke="#FFFFFF"/>
        <path d="M 21.8541,32.7811 C 24.512,30.7138 25.398,27.1699 23.3307,24.2167 C 21.5588,21.5587 17.7196,20.9681 15.0616,22.74 C 12.1084,24.8073 11.5177,28.6465 13.585,31.3045 C 15.3569,33.9624 19.1962,34.5531 21.8541,32.7811 Z Z " fill="#FFFFFF" stroke="none"/>
      </g>
      <!--emf-blob end-->
    </g>
  </g>
</svg>

