<svg xmlns="http://www.w3.org/2000/svg" xmlns:xlink="http://www.w3.org/1999/xlink" version="1.1" viewBox="0 0 108 99" >
  <title><![CDATA[General appliance]]></title>
  <g transform=" scale(3.000000) ">
    <!--converted by libvisio2svg-->
    <g>
      <!--emf-blob start-->
      <g>
        <path d="M 29.5388,32.4927 L 35.4465,26.5849 L 35.4465,0 L 29.5388,5.90769999999998 L 29.5388,32.4927 Z " fill="#036C9B" stroke="#FFFFFF" stroke-width="0.88615" stroke-linecap="butt" stroke-linejoin="miter"/>
        <path d="M 35.4465,0 L 29.5388,5.90769999999998 L 0,5.90769999999998 L 7.68009999999998,0 L 35.4465,0 Z " fill="#036C9B" stroke="#FFFFFF" stroke-width="0.88615" stroke-linecap="butt" stroke-linejoin="miter"/>
        <path d="M 29.5388,32.4927 L 29.5388,5.90769999999998 L 0,5.90769999999998 L 0,32.4927 L 29.5388,32.4927 Z " fill="#036C9B" stroke="#FFFFFF" stroke-width="0.88615" stroke-linecap="butt" stroke-linejoin="miter"/>
        <path d="M 14.1786,8.86160000000001 L 14.1786,28.0618 L 13.2924,28.0618 L 14.7694,30.425 L 16.5417,28.0618 L 15.3602,28.0618 L 15.3602,8.86160000000001 Z " fill="#FFFFFF" stroke-width="1px" stroke="#FFFFFF"/>
        <path d="M 14.1786,8.86160000000001 L 14.1786,28.0618 L 13.2924,28.0618 L 14.7694,30.425 L 16.5417,28.0618 L 15.3602,28.0618 L 15.3602,8.86160000000001 " stroke="none" stroke-width="0" fill="none"/>
        <path d="M 6.20310000000001,8.86160000000001 L 6.20310000000001,28.0618 L 5.02159999999998,28.0618 L 6.49849999999998,30.425 L 8.27080000000001,28.0618 L 7.08929999999998,28.0618 L 7.08929999999998,8.86160000000001 Z " fill="#FFFFFF" stroke-width="1px" stroke="#FFFFFF"/>
        <path d="M 6.20310000000001,8.86160000000001 L 6.20310000000001,28.0618 L 5.02159999999998,28.0618 L 6.49849999999998,30.425 L 8.27080000000001,28.0618 L 7.08929999999998,28.0618 L 7.08929999999998,8.86160000000001 " stroke="none" stroke-width="0" fill="none"/>
        <path d="M 22.1541,8.86160000000001 L 22.1541,28.0618 L 20.9725,28.0618 L 22.7449,30.425 L 24.2218,28.0618 L 23.0402,28.0618 L 23.0402,8.86160000000001 Z " fill="#FFFFFF" stroke-width="1px" stroke="#FFFFFF"/>
        <path d="M 22.1541,8.86160000000001 L 22.1541,28.0618 L 20.9725,28.0618 L 22.7449,30.425 L 24.2218,28.0618 L 23.0402,28.0618 L 23.0402,8.86160000000001 " stroke="none" stroke-width="0" fill="none"/>
        <path d="M 26.5849,15.9509 L 3.24919999999997,15.9509 L 3.24919999999997,8.56619999999998 L 26.5849,8.56619999999998 L 26.5849,15.9509 Z " fill="none" stroke="#FFFFFF" stroke-width="1.77235" stroke-linecap="butt" stroke-linejoin="miter"/>
      </g>
      <!--emf-blob end-->
    </g>
  </g>
</svg>

