<svg xmlns="http://www.w3.org/2000/svg" xmlns:xlink="http://www.w3.org/1999/xlink" version="1.1" viewBox="0 0 84 126" >
  <title><![CDATA[Generic softswitch]]></title>
  <g transform=" scale(3.000000) ">
    <!--converted by libvisio2svg-->
    <g>
      <!--emf-blob start-->
      <g>
        <path d="M 0,41.9223 L 0,4.42849999999999 L 21.8468,4.42849999999999 L 21.8468,41.9223 L 0,41.9223 Z " fill="#036C9B" stroke="#FFFFFF" stroke-width="0.8857" stroke-linecap="butt" stroke-linejoin="miter"/>
        <path d="M 6.495,0 L 0,4.42849999999999 L 21.8468,4.42849999999999 L 27.4562,0 L 6.495,0 Z " fill="#036C9B" stroke="#FFFFFF" stroke-width="0.8857" stroke-linecap="butt" stroke-linejoin="miter"/>
        <path d="M 27.4562,36.0178 L 27.4562,0 L 21.8468,4.42849999999999 L 21.8468,41.9223 L 27.4562,36.0178 Z " fill="#036C9B" stroke="#FFFFFF" stroke-width="0.8857" stroke-linecap="butt" stroke-linejoin="miter"/>
        <path d="M 8.5616,11.2187 L 18.3041,11.2187 L 18.3041,12.3996 L 8.5616,12.3996 L 8.5616,14.1709 L 4.13319999999999,11.8091 L 8.5616,9.15210000000002 L 8.5616,11.2187 Z " fill="#FFFFFF" stroke-width="1px" stroke="#FFFFFF"/>
        <path d="M 14.7614,21.5516 L 5.01890000000003,21.5516 L 5.01890000000003,20.0755 L 14.7614,20.0755 L 14.7614,18.3041 L 19.1898,20.6659 L 14.7614,23.323 L 14.7614,21.5516 Z " fill="#FFFFFF" stroke-width="1px" stroke="#FFFFFF"/>
      </g>
      <!--emf-blob end-->
    </g>
  </g>
</svg>

