<svg xmlns="http://www.w3.org/2000/svg" xmlns:xlink="http://www.w3.org/1999/xlink" version="1.1" viewBox="0 0 132 132" >
  <title><![CDATA[Gigabit switch ATM tag router]]></title>
  <g transform=" scale(3.000000) ">
    <!--converted by libvisio2svg-->
    <g>
      <!--emf-blob start-->
      <g>
        <path d="M 43.4194,8.27030000000002 C 43.4194,12.9962 33.6722,16.8361 21.562,16.8361 C 9.74719999999996,16.8361 0,12.9962 0,8.27030000000002 C 0,35.149 0,35.149 0,35.149 C 0,39.8749 9.74719999999996,43.7147 21.562,43.7147 C 33.6722,43.7147 43.4194,39.8749 43.4194,35.149 Z Z " fill="#036C9B" stroke="#FFFFFF" stroke-width="0.8861" stroke-linecap="butt" stroke-linejoin="miter"/>
        <path d="M 21.562,16.8361 C 33.6722,16.8361 43.4194,12.9962 43.4194,8.27030000000002 C 43.4194,3.5444 33.6722,0 21.562,0 C 9.74719999999996,0 0,3.5444 0,8.27030000000002 C 0,12.9962 9.74719999999996,16.8361 21.562,16.8361 Z Z " fill="#036C9B" stroke="#FFFFFF" stroke-width="0.8861" stroke-linecap="butt" stroke-linejoin="miter"/>
        <path d="M 19.199,7.97500000000002 L 17.4268,5.02120000000002 L 16.5407,4.72590000000002 L 15.3592,5.61200000000002 L 5.31659999999999,3.83980000000003 L 2.06759999999997,6.20269999999999 L 2.6583,7.08879999999999 L 5.31659999999999,5.02120000000002 L 15.3592,6.79349999999999 L 16.8361,5.9074 L 18.6083,8.56569999999999 L 19.199,7.97500000000002 Z " fill="#000000" stroke-width="1px" stroke="#000000"/>
        <path d="M 26.2879,11.5194 L 25.1064,8.86110000000002 L 31.0137999999999,7.67959999999999 L 30.1276999999999,8.56569999999999 L 40.1703,10.3379 L 37.8073,12.1101 L 27.7648,10.3379 Z Z " fill="none" stroke="none"/>
        <defs>
          <clipPath id="clip-470211272">
            <path d="M 26.2879,11.5194 L 25.1064,8.86110000000002 L 31.0137999999999,7.67959999999999 L 30.1276999999999,8.56569999999999 L 40.1703,10.3379 L 37.8073,12.1101 L 27.7648,10.3379 Z"/>
          </clipPath>
        </defs>
        <path clip-path="url(#clip-470211272)" d="M 25.1064,9.74720000000002 L 31.0137999999999,8.56569999999999 L 31.8998999999999,7.38420000000002 L 31.0137999999999,7.08879999999999 L 24.2203,8.56569999999999 L 25.1064,9.74720000000002 Z " fill="#000000" stroke-width="1px" stroke="#000000"/>
        <path clip-path="url(#clip-470211272)" d="M 40.761,10.0425 L 31.3092,7.97500000000002 L 30.1276999999999,8.56569999999999 L 30.1276999999999,9.45179999999999 L 40.1703,11.224 L 40.761,10.0425 Z " fill="#000000" stroke-width="1px" stroke="#000000"/>
        <path d="M 23.0388,3.5444 L 29.8323,1.7722 L 29.8323,4.72590000000002 L 28.0601,4.43049999999999 L 24.8111,7.08879999999999 L 21.562,6.49810000000002 L 25.1064,3.83980000000003 Z Z " fill="none" stroke="none"/>
        <defs>
          <clipPath id="clip-101027544">
            <path d="M 23.0388,3.5444 L 29.8323,1.7722 L 29.8323,4.72590000000002 L 28.0601,4.43049999999999 L 24.8111,7.08879999999999 L 21.562,6.49810000000002 L 25.1064,3.83980000000003 Z"/>
          </clipPath>
        </defs>
        <path clip-path="url(#clip-101027544)" d="M 23.3342,4.43049999999999 L 30.1276999999999,2.36290000000002 L 30.4231,1.7722 L 29.8323,1.1814 L 22.1527,3.24900000000002 L 23.3342,4.43049999999999 Z " fill="#000000" stroke-width="1px" stroke="#000000"/>
        <path d="M 20.0851,14.1777 L 13.2916,15.3592 L 13.2916,12.4055 L 15.0638,12.7009 L 18.6083,9.74720000000002 L 21.8574,10.0425 L 18.0175,13.587 Z Z " fill="none" stroke="none"/>
        <defs>
          <clipPath id="clip-1457850878">
            <path d="M 20.0851,14.1777 L 13.2916,15.3592 L 13.2916,12.4055 L 15.0638,12.7009 L 18.6083,9.74720000000002 L 21.8574,10.0425 L 18.0175,13.587 Z"/>
          </clipPath>
        </defs>
        <path clip-path="url(#clip-1457850878)" d="M 12.4055,11.5194 L 12.4055,13.2916 L 15.0638,13.587 L 18.6083,10.6333 L 21.8574,11.224 L 22.7435,10.0425 L 18.6083,9.15640000000002 L 14.7685,12.1101 L 12.4055,11.5194 Z " fill="#000000" stroke-width="1px" stroke="#000000"/>
        <path clip-path="url(#clip-1457850878)" d="M 20.0851,13.2916 L 18.0175,13.587 L 18.0175,14.4731 L 20.0851,15.0638 L 20.9713,14.1777 L 20.0851,13.2916 Z " fill="#000000" stroke-width="1px" stroke="#000000"/>
        <path d="M 23.0388,3.5444 L 29.8323,1.7722 L 29.8323,4.72590000000002 L 28.0601,4.43049999999999 L 24.8111,7.08879999999999 L 21.562,6.49810000000002 L 25.1064,3.83980000000003 L 23.0388,3.5444 Z " fill="#FFFFFF" stroke-width="1px" stroke="#FFFFFF"/>
        <path d="M 26.2879,11.5194 L 25.1064,8.86110000000002 L 31.0137999999999,7.67959999999999 L 30.1276999999999,8.56569999999999 L 40.1703,10.3379 L 37.8073,12.1101 L 27.7648,10.3379 L 26.2879,11.5194 Z " fill="#FFFFFF" stroke-width="1px" stroke="#FFFFFF"/>
        <path d="M 20.0851,14.1777 L 13.2916,15.3592 L 13.2916,12.4055 L 15.0638,12.7009 L 18.6083,9.74720000000002 L 21.8574,10.0425 L 18.0175,13.587 L 20.0851,14.1777 Z " fill="#FFFFFF" stroke-width="1px" stroke="#FFFFFF"/>
        <path d="M 16.8361,5.02120000000002 L 18.6083,7.67959999999999 L 11.8148,9.15640000000002 L 13.2916,7.97500000000002 L 2.6583,6.20269999999999 L 5.31659999999999,4.13510000000002 L 15.3592,5.9074 L 16.8361,5.02120000000002 Z " fill="#FFFFFF" stroke-width="1px" stroke="#FFFFFF"/>
        <path d="M 12.4055,36.9212 L 18.6083,36.9212 L 26.2879,20.9712 L 31.0137999999999,20.9712 " stroke="#000000" stroke-width="2.65835" stroke-linecap="butt" stroke-linejoin="miter" fill="none"/>
        <path d="M 29.537,18.0175 L 29.537,23.6296 L 33.0814,20.9712 L 29.537,18.0175 Z " fill="#000000" stroke-width="1px" stroke="#000000"/>
        <path d="M 13.2916,39.8749 L 13.2916,34.2629 L 9.74719999999996,36.9212 L 13.2916,39.8749 Z " fill="#000000" stroke-width="1px" stroke="#000000"/>
        <path d="M 13.2916,40.1703 L 13.2916,34.5583 L 9.74719999999996,37.2166 L 13.2916,40.1703 Z " fill="#FFFFFF" stroke-width="1px" stroke="#FFFFFF"/>
        <path d="M 29.8323,18.6083 L 29.8323,24.2203 L 33.0814,21.562 L 29.8323,18.6083 Z " fill="#FFFFFF" stroke-width="1px" stroke="#FFFFFF"/>
        <path d="M 13.2916,23.9249 L 13.2916,18.3129 L 9.74719999999996,20.9712 L 13.2916,23.9249 Z " fill="#000000" stroke-width="1px" stroke="#000000"/>
        <path d="M 13.2916,24.2203 L 13.2916,18.6083 L 9.74719999999996,21.2666 L 13.2916,24.2203 Z " fill="#FFFFFF" stroke-width="1px" stroke="#FFFFFF"/>
        <path d="M 31.3092,36.9212 L 25.9924999999999,36.9212 L 18.0175,20.9712 L 12.9963,20.9712 " stroke="#000000" stroke-width="2.65835" stroke-linecap="butt" stroke-linejoin="miter" fill="none"/>
        <path d="M 31.8998999999999,37.5119 L 25.9924999999999,37.5119 L 18.0175,21.2666 L 12.1102,21.2666 " stroke="#FFFFFF" stroke-width="2.65835" stroke-linecap="butt" stroke-linejoin="miter" fill="none"/>
        <path d="M 12.1102,37.5119 L 17.7222,37.5119 L 25.6972,21.562 L 31.8998999999999,21.562 " stroke="#FFFFFF" stroke-width="2.65835" stroke-linecap="butt" stroke-linejoin="miter" fill="none"/>
        <path d="M 29.537,34.2629 L 29.537,39.8749 L 33.0814,37.2166 L 29.537,34.2629 Z " fill="#000000" stroke-width="1px" stroke="#000000"/>
        <path d="M 29.8323,34.5583 L 29.8323,40.1703 L 33.0814,37.5119 L 29.8323,34.5583 Z " fill="#FFFFFF" stroke-width="1px" stroke="#FFFFFF"/>
      </g>
      <!--emf-blob end-->
    </g>
  </g>
</svg>

