<svg xmlns="http://www.w3.org/2000/svg" xmlns:xlink="http://www.w3.org/1999/xlink" version="1.1" viewBox="0 0 180 132" >
  <title><![CDATA[Government building]]></title>
  <g transform=" scale(3.000000) ">
    <!--converted by libvisio2svg-->
    <g>
      <!--emf-blob start-->
      <g>
        <path d="M 43.1031,20.6659 L 43.1031,16.5327 L 16.5327,16.5327 L 16.5327,20.6659 L 43.1031,20.6659 Z " fill="#0F73A0" stroke="#FFFFFF" stroke-width="0.8857" stroke-linecap="butt" stroke-linejoin="miter"/>
        <path d="M 43.1031,16.5327 C 43.1031,10.6282 37.1986,5.60930000000002 29.8179,5.60930000000002 C 22.4372,5.60930000000002 16.5327,10.6282 16.5327,16.5327 Z Z " fill="#0F73A0" stroke="#FFFFFF" stroke-width="0.8857" stroke-linecap="butt" stroke-linejoin="miter"/>
        <path d="M 30.1131,0 L 30.1131,6.19980000000004 Z " fill="#0B719F" stroke-width="1px" stroke="#0B719F"/>
        <path d="M 30.1131,0 L 30.1131,6.19980000000004 " stroke="#FFFFFF" stroke-width="0.8857" stroke-linecap="butt" stroke-linejoin="miter" fill="none"/>
        <path d="M 35.132,3.83800000000002 C 35.132,4.13320000000004 32.7702,4.13320000000004 32.4749,3.83800000000002 C 31.8845,3.2475 30.4084,3.2475 30.1131,3.83800000000002 C 30.1131,0.885700000000043 30.1131,0.885700000000043 30.1131,0.885700000000043 C 30.4084,0.295299999999997 31.8845,0.295299999999997 32.4749,0.59050000000002 C 32.7702,0.885700000000043 35.132,0.885700000000043 35.132,0.59050000000002 Z Z " fill="#0B719F" stroke="#FFFFFF" stroke-width="0.8857" stroke-linecap="butt" stroke-linejoin="miter"/>
        <path d="M 59.6359,43.3984 L 59.6359,20.6659 L 0,20.6659 L 0,43.3984 L 59.6359,43.3984 Z " fill="#0F73A0" stroke="#FFFFFF" stroke-width="0.8857" stroke-linecap="butt" stroke-linejoin="miter"/>
        <path d="M 37.1986,43.1032 C 37.1986,35.7225 37.1986,35.7225 37.1986,35.7225 C 37.1986,32.1798 33.9511000000001,29.5227 29.8179,29.5227 C 25.6847,29.5227 22.4372,32.1798 22.4372,35.7225 C 22.4372,43.1032 22.4372,43.1032 22.4372,43.1032 Z " fill="#0B719F" stroke="none"/>
        <path d="M 37.1986,43.1032 C 37.1986,35.7225 37.1986,35.7225 37.1986,35.7225 C 37.1986,32.1798 33.9511000000001,29.5227 29.8179,29.5227 C 25.6847,29.5227 22.4372,32.1798 22.4372,35.7225 C 22.4372,43.1032 22.4372,43.1032 22.4372,43.1032 Z " stroke="#FFFFFF" stroke-width="0.8857" stroke-linecap="butt" stroke-linejoin="miter" fill="none"/>
        <path d="M 6.495,27.4562 L 6.495,23.6182 L 2.65700000000004,23.6182 L 2.65700000000004,27.4562 L 6.495,27.4562 Z " fill="#0B719F" stroke="#FFFFFF" stroke-width="0.8857" stroke-linecap="butt" stroke-linejoin="miter"/>
        <path d="M 6.495,33.9512 L 6.495,30.1132 L 2.65700000000004,30.1132 L 2.65700000000004,33.9512 L 6.495,33.9512 Z " fill="#0B719F" stroke="#FFFFFF" stroke-width="0.8857" stroke-linecap="butt" stroke-linejoin="miter"/>
        <path d="M 6.495,40.4462 L 6.495,36.9034 L 2.65700000000004,36.9034 L 2.65700000000004,40.4462 L 6.495,40.4462 Z " fill="#0B719F" stroke="#FFFFFF" stroke-width="0.8857" stroke-linecap="butt" stroke-linejoin="miter"/>
        <path d="M 12.3995,27.4562 L 12.3995,23.6182 L 8.2663,23.6182 L 8.2663,27.4562 L 12.3995,27.4562 Z " fill="#0B719F" stroke="#FFFFFF" stroke-width="0.8857" stroke-linecap="butt" stroke-linejoin="miter"/>
        <path d="M 12.3995,33.9512 L 12.3995,30.1132 L 8.2663,30.1132 L 8.2663,33.9512 L 12.3995,33.9512 Z " fill="#0B719F" stroke="#FFFFFF" stroke-width="0.8857" stroke-linecap="butt" stroke-linejoin="miter"/>
        <path d="M 12.3995,40.4462 L 12.3995,36.9034 L 8.2663,36.9034 L 8.2663,40.4462 L 12.3995,40.4462 Z " fill="#0B719F" stroke="#FFFFFF" stroke-width="0.8857" stroke-linecap="butt" stroke-linejoin="miter"/>
        <path d="M 53.1409,27.4562 L 53.1409,23.6182 L 56.9788,23.6182 L 56.9788,27.4562 L 53.1409,27.4562 Z " fill="#0B719F" stroke="#FFFFFF" stroke-width="0.8857" stroke-linecap="butt" stroke-linejoin="miter"/>
        <path d="M 53.1409,33.9512 L 53.1409,30.1132 L 56.9788,30.1132 L 56.9788,33.9512 L 53.1409,33.9512 Z " fill="#0B719F" stroke="#FFFFFF" stroke-width="0.8857" stroke-linecap="butt" stroke-linejoin="miter"/>
        <path d="M 53.1409,40.4462 L 53.1409,36.9034 L 56.9788,36.9034 L 56.9788,40.4462 L 53.1409,40.4462 Z " fill="#0B719F" stroke="#FFFFFF" stroke-width="0.8857" stroke-linecap="butt" stroke-linejoin="miter"/>
        <path d="M 47.2363,27.4562 L 47.2363,23.6182 L 51.3695,23.6182 L 51.3695,27.4562 L 47.2363,27.4562 Z " fill="#0B719F" stroke="#FFFFFF" stroke-width="0.8857" stroke-linecap="butt" stroke-linejoin="miter"/>
        <path d="M 47.2363,33.9512 L 47.2363,30.1132 L 51.3695,30.1132 L 51.3695,33.9512 L 47.2363,33.9512 Z " fill="#0B719F" stroke="#FFFFFF" stroke-width="0.8857" stroke-linecap="butt" stroke-linejoin="miter"/>
        <path d="M 47.2363,40.4462 L 47.2363,36.9034 L 51.3695,36.9034 L 51.3695,40.4462 L 47.2363,40.4462 Z " fill="#0B719F" stroke="#FFFFFF" stroke-width="0.8857" stroke-linecap="butt" stroke-linejoin="miter"/>
        <path d="M 43.9888,27.7514 L 30.1131,23.323 L 15.9422,27.7514 L 43.9888,27.7514 Z " fill="#0F73A0" stroke="#FFFFFF" stroke-width="0.8857" stroke-linecap="butt" stroke-linejoin="miter"/>
        <path d="M 45.4649,18.3041 L 45.4649,16.5327 L 14.4661,16.5327 L 14.4661,18.3041 L 45.4649,18.3041 Z " fill="#0F73A0" stroke="#FFFFFF" stroke-width="0.8857" stroke-linecap="butt" stroke-linejoin="miter"/>
        <path d="M 20.0754,43.3984 L 20.0754,27.7514 L 17.7136,27.7514 L 17.7136,43.3984 L 20.0754,43.3984 Z " fill="#0B719F" stroke="#FFFFFF" stroke-width="0.8857" stroke-linecap="butt" stroke-linejoin="miter"/>
        <path d="M 39.8556,43.3984 L 39.8556,27.7514 L 42.2174,27.7514 L 42.2174,43.3984 L 39.8556,43.3984 Z " fill="#0B719F" stroke="#FFFFFF" stroke-width="0.8857" stroke-linecap="butt" stroke-linejoin="miter"/>
      </g>
      <!--emf-blob end-->
    </g>
  </g>
</svg>

