<svg xmlns="http://www.w3.org/2000/svg" xmlns:xlink="http://www.w3.org/1999/xlink" version="1.1" viewBox="0 0 168 204" >
  <title><![CDATA[Ground terminal]]></title>
  <g transform=" scale(3.000000) ">
    <!--converted by libvisio2svg-->
    <g>
      <!--emf-blob start-->
      <g>
        <path d="M 24.2125,28.937 C 32.185,28.937 32.185,28.937 32.185,28.937 C 32.185,39.567 32.185,39.567 32.185,39.567 C 32.185,39.567 23.9173,42.2244 24.2125,42.2244 C 24.2125,42.2244 24.2125,28.937 24.2125,28.937 Z Z " fill="#036998" stroke="none"/>
        <path d="M 27.4606,20.6693 C 42.8149,20.6693 55.2165,18.3071 55.2165,15.3544 C 55.2165,12.6969 42.8149,10.3347 27.4606,10.3347 C 12.4015,10.3347 0,12.6969 0,15.3544 C 0,18.3071 12.4015,20.6693 27.4606,20.6693 Z Z " fill="#FFFFFF" stroke="#000000" stroke-width="0.4429" stroke-linecap="butt" stroke-linejoin="miter"/>
        <path d="M 27.7559,29.8229 C 43.1102,29.8229 55.2165,18.3071 55.2165,15.3544 C 55.2165,12.6969 42.8149,10.3347 27.4606,10.3347 C 12.4015,10.3347 0,12.6969 0,15.3544 C 0,18.3071 12.4015,29.8229 27.7559,29.8229 Z Z " fill="#036998" stroke="none"/>
        <path d="M 27.4606,20.6693 C 42.8149,20.6693 55.2165,18.3071 55.2165,15.3544 C 55.2165,12.6969 42.8149,10.3347 27.4606,10.3347 C 12.4015,10.3347 0,12.6969 0,15.3544 C 0,18.3071 12.4015,20.6693 27.4606,20.6693 Z Z " fill="#FFFFFF" stroke="#036998" stroke-width="0.88585" stroke-linecap="butt" stroke-linejoin="miter"/>
        <path d="M 20.374,11.5158 C 15.9448,11.8111 12.1063,12.4016 9.15350000000001,12.9922 Z " stroke="#036998" stroke-width="0.88585" stroke-linecap="butt" stroke-linejoin="miter" fill="none"/>
        <path d="M 20.6692,12.6969 C 16.5354,12.9922 12.6968,13.5827 10.0393,14.1733 Z " stroke="#036998" stroke-width="0.88585" stroke-linecap="butt" stroke-linejoin="miter" fill="none"/>
        <path d="M 20.9645,13.878 C 16.8307,14.1733 13.2874,14.7638 10.6299,15.6496 Z " stroke="#036998" stroke-width="0.88585" stroke-linecap="butt" stroke-linejoin="miter" fill="none"/>
        <path d="M 21.5551,15.3544 C 17.7165,15.6496 14.1732,16.2402 11.811,17.126 Z " stroke="#036998" stroke-width="0.88585" stroke-linecap="butt" stroke-linejoin="miter" fill="none"/>
        <path d="M 21.8503,16.5355 C 18.0118,16.8307 14.7637,17.7166 12.6968,18.6024 Z " stroke="#036998" stroke-width="0.88585" stroke-linecap="butt" stroke-linejoin="miter" fill="none"/>
        <path d="M 22.4409,18.0118 C 19.4881,18.3071 16.8307,18.8977 15.059,19.7835 Z " stroke="#036998" stroke-width="0.88585" stroke-linecap="butt" stroke-linejoin="miter" fill="none"/>
        <path d="M 22.7362,19.4882 C 21.2598,19.4882 20.374,19.7835 19.1929,20.0788 Z " stroke="#036998" stroke-width="0.88585" stroke-linecap="butt" stroke-linejoin="miter" fill="none"/>
        <path d="M 0,15.9449 L 27.7559,2.06700000000001 L 55.2165,15.3544 " stroke="#036998" stroke-width="0.88585" stroke-linecap="butt" stroke-linejoin="miter" fill="none"/>
        <path d="M 27.7559,5.6103 C 28.937,5.6103 29.8228,5.315 29.8228,4.72449999999998 C 29.8228,4.13389999999998 28.937,3.83859999999999 27.7559,3.83859999999999 C 26.87,3.83859999999999 25.9842,4.13389999999998 25.9842,4.72449999999998 C 25.9842,5.315 26.87,5.6103 27.7559,5.6103 Z Z " fill="#036998" stroke="none"/>
        <path d="M 27.7559,0 L 27.1653,19.4882 L 28.6417,19.4882 L 27.7559,0 Z " fill="#036998" stroke-width="1px" stroke="#036998"/>
        <path d="M 34.2519,36.3189 L 34.2519,31.004 L 20.9645,31.004 L 20.9645,36.3189 L 34.2519,36.3189 Z " fill="#036998" stroke-width="1px" stroke="#036998"/>
        <path d="M 26.87,34.5473 L 22.7362,34.5473 L 22.7362,33.3662 L 26.87,33.3662 L 26.87,34.5473 Z " fill="#FFFFFF" stroke-width="1px" stroke="#FFFFFF"/>
        <path d="M 32.4803,34.5473 L 28.3464,34.5473 L 28.3464,33.3662 L 32.4803,33.3662 L 32.4803,34.5473 Z " fill="#FFFFFF" stroke-width="1px" stroke="#FFFFFF"/>
        <path d="M 49.311,46.6536 C 49.311,51.378 39.5669,55.2166 27.4606,55.2166 C 15.6496,55.2166 5.90550000000002,51.378 5.90550000000002,46.6536 C 5.90550000000002,59.0551 5.90550000000002,59.0551 5.90550000000002,59.0551 C 5.90550000000002,63.7795 15.6496,67.6181 27.4606,67.6181 C 39.5669,67.6181 49.311,63.7795 49.311,59.0551 Z Z " fill="#036998" stroke="#FFFFFF" stroke-width="0.88585" stroke-linecap="butt" stroke-linejoin="miter"/>
        <path d="M 27.4606,55.2166 C 39.5669,55.2166 49.311,51.378 49.311,46.6536 C 49.311,41.9292 39.5669,38.3859 27.4606,38.3859 C 15.6496,38.3859 5.90550000000002,41.9292 5.90550000000002,46.6536 C 5.90550000000002,51.378 15.6496,55.2166 27.4606,55.2166 Z Z " fill="#036998" stroke="#FFFFFF" stroke-width="0.88585" stroke-linecap="butt" stroke-linejoin="miter"/>
        <path d="M 22.7362,43.4055 L 24.5078,46.063 L 17.7165,47.5394 L 19.1929,46.3583 L 8.56290000000001,44.5866 L 11.2204,42.5197 L 21.2598,44.2914 L 22.7362,43.4055 Z " fill="#FFFFFF" stroke-width="1px" stroke="#FFFFFF"/>
        <path d="M 32.185,49.9016 L 31.0039,47.2441 L 37.2047,46.063 L 36.0236,46.9488 L 46.0629,48.7205 L 43.7007,50.4921 L 33.6614,48.7205 L 32.185,49.9016 Z " fill="#FFFFFF" stroke-width="1px" stroke="#FFFFFF"/>
        <path d="M 28.937,41.9292 L 35.7283,40.1575 L 35.7283,43.1103 L 33.9566,42.5197 L 30.7086,45.4725 L 27.4606,44.8819 L 31.0039,42.2244 L 28.937,41.9292 Z " fill="#FFFFFF" stroke-width="1px" stroke="#FFFFFF"/>
        <path d="M 25.9842,52.5591 L 19.4881,53.7402 L 19.1929,50.7874 L 20.9645,51.0827 L 24.5078,48.1299 L 27.7559,48.4252 L 23.9173,51.9685 L 25.9842,52.5591 Z " fill="#FFFFFF" stroke-width="1px" stroke="#FFFFFF"/>
      </g>
      <!--emf-blob end-->
    </g>
  </g>
</svg>

