<svg xmlns="http://www.w3.org/2000/svg" xmlns:xlink="http://www.w3.org/1999/xlink" version="1.1" viewBox="0 0 150 93" >
  <title><![CDATA[Guard]]></title>
  <g transform=" scale(3.000000) ">
    <!--converted by libvisio2svg-->
    <g>
      <!--emf-blob start-->
      <g>
        <path d="M 42.2245,30.4134 L 42.2245,5.61030000000005 L 6.79140000000001,5.61030000000005 L 6.79140000000001,30.4134 L 42.2245,30.4134 Z " fill="#046897" stroke="#FFFFFF" stroke-width="0.88585" stroke-linecap="butt" stroke-linejoin="miter"/>
        <path d="M 42.2245,5.61030000000005 L 49.0158,0 L 15.9449,0 L 6.79140000000001,5.61030000000005 L 42.2245,5.61030000000005 Z " fill="#046897" stroke="#FFFFFF" stroke-width="0.88585" stroke-linecap="butt" stroke-linejoin="miter"/>
        <path d="M 49.0158,24.8032000000001 L 49.0158,0 L 42.2245,5.61030000000005 L 42.2245,30.4134 L 49.0158,24.8032000000001 Z " fill="#046897" stroke="#FFFFFF" stroke-width="0.88585" stroke-linecap="butt" stroke-linejoin="miter"/>
        <path d="M 40.7481,13.2875 L 7.08670000000001,13.2875 " stroke="#FFFFFF" stroke-width="1.32875" stroke-linecap="butt" stroke-linejoin="miter" fill="none"/>
        <path d="M 41.6339,13.2875 L 36.6142,15.6497000000001 L 37.7953,13.2875 L 36.6142,11.2205 L 41.6339,13.2875 Z " fill="#FFFFFF" stroke-width="1px" stroke="#FFFFFF"/>
        <path d="M 30.1182,25.6890000000001 L 34.8426,21.8504 L 7.08670000000001,21.8504 " stroke="#D9D9D9" stroke-width="1.32875" stroke-linecap="butt" stroke-linejoin="round" fill="none"/>
        <path d="M 27.1654,28.0512 L 29.5276,23.3268 L 30.1182,25.6890000000001 L 32.1851,26.5749000000001 L 27.1654,28.0512 Z " fill="#D9D9D9" stroke-width="1px" stroke="#D9D9D9"/>
        <path d="M 37.5,24.2126000000001 L 37.5,8.26780000000008 L 33.0709,11.8111 L 33.0709,27.7560000000001 L 37.5,24.2126000000001 Z " fill="none" stroke="#FFFFFF" stroke-width="0.88585" stroke-linecap="butt" stroke-linejoin="miter"/>
        <path d="M 14.7638,24.2126000000001 L 14.7638,8.26780000000008 L 10.3347,11.8111 L 10.3347,27.7560000000001 L 14.7638,24.2126000000001 Z " fill="none" stroke="#FFFFFF" stroke-width="0.88585" stroke-linecap="butt" stroke-linejoin="miter"/>
        <path d="M 25.9843,24.2126000000001 L 25.9843,8.26780000000008 L 21.8504,11.8111 L 21.8504,27.7560000000001 L 25.9843,24.2126000000001 Z " fill="none" stroke="#FFFFFF" stroke-width="0.88585" stroke-linecap="butt" stroke-linejoin="miter"/>
        <path d="M 6.79140000000001,13.5827 L 0,13.5827 " stroke="#000000" stroke-width="1.32875" stroke-linecap="butt" stroke-linejoin="miter" fill="none"/>
        <path d="M 6.79140000000001,21.8504 L 0,21.8504 " stroke="#D9D9D9" stroke-width="1.32875" stroke-linecap="butt" stroke-linejoin="miter" fill="none"/>
        <path d="M 6.79140000000001,21.8504 L 0,21.8504 " stroke="#8C8C8C" stroke-width="1.32875" stroke-linecap="butt" stroke-linejoin="miter" fill="none"/>
      </g>
      <!--emf-blob end-->
    </g>
  </g>
</svg>

