<svg xmlns="http://www.w3.org/2000/svg" xmlns:xlink="http://www.w3.org/1999/xlink" version="1.1" viewBox="0 0 87 87" >
  <title><![CDATA[H.323]]></title>
  <g transform=" scale(3.000000) ">
    <!--converted by libvisio2svg-->
    <g>
      <!--emf-blob start-->
      <g>
        <path d="M 0.295200000000023,24.2012 L 28.9234,24.2012 Z " fill="#0F73A0" stroke-width="1px" stroke="#0F73A0"/>
        <path d="M 0.295200000000023,24.2012 L 28.9234,24.2012 " stroke="#FFFFFF" stroke-width="0.8854" stroke-linecap="butt" stroke-linejoin="miter" fill="none"/>
        <path d="M 24.7915,28.3331 L 28.9234,24.2012 Z " fill="#0F73A0" stroke-width="1px" stroke="#0F73A0"/>
        <path d="M 24.7915,28.3331 L 28.9234,24.2012 " stroke="#FFFFFF" stroke-width="0.8854" stroke-linecap="butt" stroke-linejoin="miter" fill="none"/>
        <path d="M 24.7915,28.3331 L 24.7915,9.73949999999996 L 0,9.73949999999996 L 0,28.3331 L 24.7915,28.3331 Z " fill="#0F73A0" stroke="#FFFFFF" stroke-width="0.8854" stroke-linecap="butt" stroke-linejoin="miter"/>
        <path d="M 24.7915,28.3331 L 28.9234,24.2012 L 28.9234,5.60759999999999 L 4.13200000000001,5.60759999999999 L 0,9.73949999999996 L 24.7915,9.73949999999996 L 24.7915,28.3331 Z " fill="#0F73A0" stroke="#FFFFFF" stroke-width="0.8854" stroke-linecap="butt" stroke-linejoin="miter"/>
        <path d="M 22.4304,26.2672 L 22.4304,11.8055 L 2.06600000000003,11.8055 L 2.06600000000003,26.2672 L 22.4304,26.2672 Z " fill="#0F73A0" stroke="#FFFFFF" stroke-width="0.8854" stroke-linecap="butt" stroke-linejoin="miter"/>
        <path d="M 24.7915,9.73949999999996 L 28.9234,5.60759999999999 Z " fill="#0F73A0" stroke-width="1px" stroke="#0F73A0"/>
        <path d="M 24.7915,9.73949999999996 L 28.9234,5.60759999999999 " stroke="#FFFFFF" stroke-width="0.8854" stroke-linecap="butt" stroke-linejoin="miter" fill="none"/>
        <path d="M 15.9374,9.44439999999997 L 15.9374,3.24649999999997 L 9.44440000000003,3.24649999999997 L 9.44440000000003,9.44439999999997 L 15.9374,9.44439999999997 Z " fill="#0F73A0" stroke="#FFFFFF" stroke-width="0.8854" stroke-linecap="butt" stroke-linejoin="miter"/>
        <path d="M 15.9374,9.44439999999997 L 19.7742,5.90280000000001 L 19.7742,0 L 12.986,0 L 9.44440000000003,3.24649999999997 L 15.9374,3.24649999999997 L 15.9374,9.44439999999997 Z " fill="#0F73A0" stroke="#FFFFFF" stroke-width="0.8854" stroke-linecap="butt" stroke-linejoin="miter"/>
        <path d="M 15.9374,3.24649999999997 L 19.7742,0 Z " fill="#0F73A0" stroke-width="1px" stroke="#0F73A0"/>
        <path d="M 15.9374,3.24649999999997 L 19.7742,0 " stroke="#FFFFFF" stroke-width="0.8854" stroke-linecap="butt" stroke-linejoin="miter" fill="none"/>
      </g>
      <!--emf-blob end-->
    </g>
  </g>
</svg>

