<svg xmlns="http://www.w3.org/2000/svg" xmlns:xlink="http://www.w3.org/1999/xlink" version="1.1" viewBox="0 0 114 63" >
  <title><![CDATA[Handheld]]></title>
  <g transform=" scale(3.000000) ">
    <!--converted by libvisio2svg-->
    <g>
      <!--emf-blob start-->
      <g>
        <path d="M 37.7952,18.8976 L 37.7952,0 L 35.7283,1.77170000000001 L 35.7283,20.374 L 37.7952,18.8976 Z " fill="#0F73A0" stroke="#FFFFFF" stroke-width="0.8858" stroke-linecap="butt" stroke-linejoin="miter"/>
        <path d="M 35.7283,20.374 L 35.7283,1.77170000000001 L 0,1.77170000000001 L 0,20.374 L 35.7283,20.374 Z " fill="#0F73A0" stroke="#FFFFFF" stroke-width="0.8858" stroke-linecap="butt" stroke-linejoin="miter"/>
        <path d="M 2.36220000000003,5.90550000000002 C 2.36220000000003,3.83859999999999 4.13380000000001,3.54329999999999 4.13380000000001,3.54329999999999 C 4.13380000000001,3.54329999999999 24.8031,3.54329999999999 26.5747,3.54329999999999 C 28.9369,3.54329999999999 28.9369,5.90550000000002 28.9369,5.90550000000002 C 28.9369,5.90550000000002 28.9369,15.059 28.9369,16.5354 C 28.9369,17.7165 27.1653,18.3071 27.1653,18.3071 C 27.1653,18.3071 6.20080000000002,18.3071 4.42910000000001,18.3071 C 2.95269999999999,18.3071 2.36220000000003,16.5354 2.36220000000003,16.5354 Z Z " fill="#0F73A0" stroke="#FFFFFF" stroke-width="0.8858" stroke-linecap="butt" stroke-linejoin="miter"/>
        <path d="M 37.7952,0 L 2.06690000000003,0 L 0,1.77170000000001 L 35.7283,1.77170000000001 L 37.7952,0 Z " fill="#0F73A0" stroke="#FFFFFF" stroke-width="0.8858" stroke-linecap="butt" stroke-linejoin="miter"/>
        <path d="M 33.0708,5.61020000000002 C 33.0708,5.90550000000002 32.7755,6.20080000000002 32.185,6.20080000000002 C 31.5944,6.20080000000002 31.2991,5.90550000000002 31.2991,5.61020000000002 C 31.2991,5.315 31.5944,5.0197 32.185,5.0197 C 32.7755,5.0197 33.0708,5.315 33.0708,5.61020000000002 Z Z " fill="#0F73A0" stroke="#FFFFFF" stroke-width="0.8858" stroke-linecap="butt" stroke-linejoin="miter"/>
        <path d="M 33.0708,9.44880000000001 C 33.0708,9.7441 32.7755,10.0394 32.185,10.0394 C 31.5944,10.0394 31.2991,9.7441 31.2991,9.44880000000001 C 31.2991,9.15350000000001 31.5944,8.85829999999999 32.185,8.85829999999999 C 32.7755,8.85829999999999 33.0708,9.15350000000001 33.0708,9.44880000000001 Z Z " fill="#0F73A0" stroke="#FFFFFF" stroke-width="0.8858" stroke-linecap="butt" stroke-linejoin="miter"/>
        <path d="M 33.0708,13.2874 C 33.0708,13.5827 32.7755,13.8779 32.185,13.8779 C 31.5944,13.8779 31.2991,13.5827 31.2991,13.2874 C 31.2991,12.9921 31.5944,12.9921 32.185,12.9921 C 32.7755,12.9921 33.0708,12.9921 33.0708,13.2874 Z Z " fill="#0F73A0" stroke="#FFFFFF" stroke-width="0.8858" stroke-linecap="butt" stroke-linejoin="miter"/>
        <path d="M 33.0708,17.4212 C 33.0708,17.7165 32.7755,18.0118 32.185,18.0118 C 31.5944,18.0118 31.2991,17.7165 31.2991,17.4212 C 31.2991,17.126 31.5944,16.8307 32.185,16.8307 C 32.7755,16.8307 33.0708,17.126 33.0708,17.4212 Z Z " fill="#0F73A0" stroke="#FFFFFF" stroke-width="0.8858" stroke-linecap="butt" stroke-linejoin="miter"/>
      </g>
      <!--emf-blob end-->
    </g>
  </g>
</svg>

