<svg xmlns="http://www.w3.org/2000/svg" xmlns:xlink="http://www.w3.org/1999/xlink" version="1.1" viewBox="0 0 108 78" >
  <title><![CDATA[Hootphone]]></title>
  <g transform=" scale(3.000000) ">
    <!--converted by libvisio2svg-->
    <g>
      <!--emf-blob start-->
      <g>
        <path d="M 0,25.9641 L 0,20.0632 L 24.784,20.0632 L 24.784,25.9641 L 0,25.9641 Z " fill="#0F73A0" stroke="#FFFFFF" stroke-width="0.88515" stroke-linecap="butt" stroke-linejoin="miter"/>
        <path d="M 24.784,20.0632 L 0,20.0632 L 11.8019,3.24549999999999 L 35.4057,3.24549999999999 L 24.784,20.0632 Z " fill="#0F73A0" stroke="#FFFFFF" stroke-width="0.88515" stroke-linecap="butt" stroke-linejoin="miter"/>
        <path d="M 35.4057,3.24549999999999 L 35.4057,14.1623 L 24.784,25.9641 L 24.784,20.3582 L 35.4057,3.24549999999999 Z " fill="#0F73A0" stroke="#FFFFFF" stroke-width="0.88515" stroke-linecap="butt" stroke-linejoin="miter"/>
        <path d="M 16.5227,6.19599999999997 C 15.0474,7.96629999999999 13.2771,10.0316 12.097,12.0969 C 12.097,13.8672 12.097,13.8672 12.097,13.8672 C 8.26130000000001,19.4731 8.26130000000001,19.4731 8.26130000000001,19.4731 C 7.96629999999999,15.3424 7.96629999999999,15.3424 7.96629999999999,15.3424 C 8.5564,12.392 17.4078,1.18019999999996 19.4731,0 C 20.0632,3.54059999999998 20.0632,3.54059999999998 20.0632,3.54059999999998 C 16.8177,7.96629999999999 16.8177,7.96629999999999 16.8177,7.96629999999999 Z Z " fill="#0F73A0" stroke="#FFFFFF" stroke-width="0.88515" stroke-linecap="butt" stroke-linejoin="miter"/>
        <path d="M 3.54059999999998,15.3424 L 2.95049999999998,19.4731 L 8.26130000000001,19.4731 L 7.96629999999999,15.3424 L 3.54059999999998,15.3424 Z " fill="#0F73A0" stroke="#FFFFFF" stroke-width="0.88515" stroke-linecap="butt" stroke-linejoin="miter"/>
        <path d="M 19.4731,0 C 17.4078,1.18019999999996 8.5564,12.392 7.96629999999999,15.3424 C 3.54059999999998,15.3424 3.54059999999998,15.3424 3.54059999999998,15.3424 C 4.13069999999999,12.392 12.9821,1.18019999999996 15.0474,0 Z Z " fill="#0F73A0" stroke="#FFFFFF" stroke-width="0.88515" stroke-linecap="butt" stroke-linejoin="miter"/>
        <path d="M 12.9821,18.588 L 11.2118,18.588 L 12.097,17.7028 L 13.5722,17.7028 L 12.9821,18.588 Z " fill="#0F73A0" stroke="#FFFFFF" stroke-width="0.88515" stroke-linecap="butt" stroke-linejoin="miter"/>
        <path d="M 16.5227,18.588 L 14.7524,18.588 L 15.6375,17.7028 L 17.1128,17.7028 L 16.5227,18.588 Z " fill="#0F73A0" stroke="#FFFFFF" stroke-width="0.88515" stroke-linecap="butt" stroke-linejoin="miter"/>
        <path d="M 20.0632,18.588 L 18.2929,18.588 L 19.1781,17.7028 L 20.6533,17.7028 L 20.0632,18.588 Z " fill="#0F73A0" stroke="#FFFFFF" stroke-width="0.88515" stroke-linecap="butt" stroke-linejoin="miter"/>
        <path d="M 23.6038,18.588 L 21.8335,18.588 L 22.7187,17.7028 L 24.1939,17.7028 L 23.6038,18.588 Z " fill="#0F73A0" stroke="#FFFFFF" stroke-width="0.88515" stroke-linecap="butt" stroke-linejoin="miter"/>
      </g>
      <!--emf-blob end-->
    </g>
  </g>
</svg>

