<svg xmlns="http://www.w3.org/2000/svg" xmlns:xlink="http://www.w3.org/1999/xlink" version="1.1" viewBox="0 0 87 93" >
  <title><![CDATA[HP mini]]></title>
  <g transform=" scale(3.000000) ">
    <!--converted by libvisio2svg-->
    <g>
      <!--emf-blob start-->
      <g>
        <path d="M 22.1403,30.7013 L 22.1403,5.90410000000003 L 0,5.90410000000003 L 0,30.7013 L 22.1403,30.7013 Z " fill="#0F73A0" stroke="#FFFFFF" stroke-width="0.8856" stroke-linecap="butt" stroke-linejoin="miter"/>
        <path d="M 22.1403,30.7013 L 28.0444,24.7972 L 28.0444,0 L 5.60890000000001,0 L 0,5.90410000000003 L 22.1403,5.90410000000003 L 22.1403,30.7013 Z " fill="#0F73A0" stroke="#FFFFFF" stroke-width="0.8856" stroke-linecap="butt" stroke-linejoin="miter"/>
        <path d="M 22.1403,5.90410000000003 L 28.0444,0 Z " fill="#0F73A0" stroke-width="1px" stroke="#0F73A0"/>
        <path d="M 22.1403,5.90410000000003 L 28.0444,0 " stroke="#FFFFFF" stroke-width="0.8856" stroke-linecap="butt" stroke-linejoin="miter" fill="none"/>
        <path d="M 22.1403,11.8082 L 0,11.8082 Z " fill="#0F73A0" stroke-width="1px" stroke="#0F73A0"/>
        <path d="M 22.1403,11.8082 L 0,11.8082 " stroke="#FFFFFF" stroke-width="0.8856" stroke-linecap="butt" stroke-linejoin="miter" fill="none"/>
        <path d="M 22.1403,24.502 L 0,24.502 Z " fill="#0F73A0" stroke-width="1px" stroke="#0F73A0"/>
        <path d="M 22.1403,24.502 L 0,24.502 " stroke="#FFFFFF" stroke-width="0.8856" stroke-linecap="butt" stroke-linejoin="miter" fill="none"/>
        <path d="M 22.1403,18.3027 L 0,18.3027 Z " fill="#0F73A0" stroke-width="1px" stroke="#0F73A0"/>
        <path d="M 22.1403,18.3027 L 0,18.3027 " stroke="#FFFFFF" stroke-width="0.8856" stroke-linecap="butt" stroke-linejoin="miter" fill="none"/>
        <path d="M 15.0554,8.8562 L 19.7787,8.8562 Z " fill="#0F73A0" stroke-width="1px" stroke="#0F73A0"/>
        <path d="M 15.0554,8.8562 L 19.7787,8.8562 " stroke="#FFFFFF" stroke-width="0.8856" stroke-linecap="butt" stroke-linejoin="miter" fill="none"/>
        <path d="M 15.0554,15.3507 L 19.7787,15.3507 Z " fill="#0F73A0" stroke-width="1px" stroke="#0F73A0"/>
        <path d="M 15.0554,15.3507 L 19.7787,15.3507 " stroke="#FFFFFF" stroke-width="0.8856" stroke-linecap="butt" stroke-linejoin="miter" fill="none"/>
        <path d="M 15.0554,21.2547 L 19.7787,21.2547 Z " fill="#0F73A0" stroke-width="1px" stroke="#0F73A0"/>
        <path d="M 15.0554,21.2547 L 19.7787,21.2547 " stroke="#FFFFFF" stroke-width="0.8856" stroke-linecap="butt" stroke-linejoin="miter" fill="none"/>
        <path d="M 15.0554,27.454 L 19.7787,27.454 Z " fill="#0F73A0" stroke-width="1px" stroke="#0F73A0"/>
        <path d="M 15.0554,27.454 L 19.7787,27.454 " stroke="#FFFFFF" stroke-width="0.8856" stroke-linecap="butt" stroke-linejoin="miter" fill="none"/>
      </g>
      <!--emf-blob end-->
    </g>
  </g>
</svg>

