<svg xmlns="http://www.w3.org/2000/svg" xmlns:xlink="http://www.w3.org/1999/xlink" version="1.1" viewBox="0 0 111 99" >
  <title><![CDATA[Hub]]></title>
  <g transform=" scale(3.000000) ">
    <!--converted by libvisio2svg-->
    <g>
      <!--emf-blob start-->
      <g>
        <path d="M 0,32.4863 L 0,3.83929999999998 L 32.7816,3.83929999999998 L 32.7816,32.4863 L 0,32.4863 Z " fill="#036C9B" stroke="#FFFFFF" stroke-width="0.886" stroke-linecap="butt" stroke-linejoin="miter"/>
        <path d="M 3.83929999999998,0 L 0,3.83929999999998 L 32.7816,3.83929999999998 L 36.6208999999999,0 L 3.83929999999998,0 Z " fill="#036C9B" stroke="#FFFFFF" stroke-width="0.886" stroke-linecap="butt" stroke-linejoin="miter"/>
        <path d="M 36.6208999999999,28.647 L 36.6208999999999,0 L 32.7816,3.83929999999998 L 32.7816,32.4863 L 36.6208999999999,28.647 Z " fill="#036C9B" stroke="#FFFFFF" stroke-width="0.886" stroke-linecap="butt" stroke-linejoin="miter"/>
        <path d="M 20.3778,6.4973 L 2.36259999999999,6.4973 L 2.36259999999999,30.1237 L 20.3778,30.1237 L 20.3778,6.4973 Z " fill="none" stroke="#FFFFFF" stroke-width="0.886" stroke-linecap="butt" stroke-linejoin="miter"/>
        <path d="M 5.61129999999997,28.0564 L 5.61129999999997,8.85989999999998 " stroke="#FFFFFF" stroke-width="0.886" stroke-linecap="butt" stroke-linejoin="miter" fill="none"/>
        <path d="M 8.26919999999996,28.0564 L 8.26919999999996,8.85989999999998 " stroke="#FFFFFF" stroke-width="0.886" stroke-linecap="butt" stroke-linejoin="miter" fill="none"/>
        <path d="M 11.2225,28.0564 L 11.2225,8.85989999999998 " stroke="#FFFFFF" stroke-width="0.886" stroke-linecap="butt" stroke-linejoin="miter" fill="none"/>
        <path d="M 14.1758,28.0564 L 14.1758,8.85989999999998 " stroke="#FFFFFF" stroke-width="0.886" stroke-linecap="butt" stroke-linejoin="miter" fill="none"/>
        <path d="M 16.8338,28.0564 L 16.8338,8.85989999999998 " stroke="#FFFFFF" stroke-width="0.886" stroke-linecap="butt" stroke-linejoin="miter" fill="none"/>
      </g>
      <!--emf-blob end-->
    </g>
  </g>
</svg>

