<svg xmlns="http://www.w3.org/2000/svg" xmlns:xlink="http://www.w3.org/1999/xlink" version="1.1" viewBox="0 0 132 90" >
  <title><![CDATA[IAD router]]></title>
  <g transform=" scale(3.000000) ">
    <!--converted by libvisio2svg-->
    <g>
      <!--emf-blob start-->
      <g>
        <path d="M 43.385,8.55889999999999 C 43.385,13.2811 33.6455,16.8227 21.8401,16.8227 C 9.73949999999996,16.8227 0,13.2811 0,8.55889999999999 C 0,20.9546 0,20.9546 0,20.9546 C 0,25.3817 9.73949999999996,29.2185 21.8401,29.2185 C 33.6455,29.2185 43.385,25.3817 43.385,20.9546 Z Z " fill="#036C9B" stroke="#FFFFFF" stroke-width="0.8854" stroke-linecap="butt" stroke-linejoin="miter"/>
        <path d="M 21.8401,16.8227 C 33.6455,16.8227 43.385,13.2811 43.385,8.55889999999999 C 43.385,3.83670000000001 33.6455,0 21.8401,0 C 9.73949999999996,0 0,3.83670000000001 0,8.55889999999999 C 0,13.2811 9.73949999999996,16.8227 21.8401,16.8227 Z Z " fill="#036C9B" stroke="#FFFFFF" stroke-width="0.8854" stroke-linecap="butt" stroke-linejoin="miter"/>
        <path d="M 16.8228,5.31240000000003 L 18.5936,7.96859999999998 L 11.8054,9.4443 L 13.2811,8.2638 L 2.95139999999998,6.49299999999999 L 5.31239999999997,4.42700000000002 L 15.6422,6.19780000000003 L 16.8228,5.31240000000003 Z " fill="#FFFFFF" stroke-width="1px" stroke="#FFFFFF"/>
        <path d="M 26.2671,11.8054 L 25.0866,8.85399999999998 L 31.2844,7.67349999999999 L 30.1039,8.55889999999999 L 40.4337,10.3297 L 37.7774,12.3957 L 27.7428,10.3297 L 26.2671,11.8054 Z " fill="#FFFFFF" stroke-width="1px" stroke="#FFFFFF"/>
        <path d="M 23.0206,3.83670000000001 L 29.8088,1.77080000000001 L 29.8088,4.72210000000001 L 28.3331,4.42700000000002 L 24.7914,7.08319999999998 L 21.5449,6.78809999999999 L 25.0866,4.13190000000003 L 23.0206,3.83670000000001 Z " fill="#FFFFFF" stroke-width="1px" stroke="#FFFFFF"/>
        <path d="M 20.0693,14.1665 L 13.5763,15.347 L 13.2811,12.3957 L 15.0519,12.986 L 18.8887,9.73950000000002 L 21.8401,10.3297 L 18.0033,13.5762 L 20.0693,14.1665 Z " fill="#FFFFFF" stroke-width="1px" stroke="#FFFFFF"/>
        <g transform=" scale(3.000000) ">
          <text font-family="Helvetica" fill="#FFFFFF" style="white-space:pre;" font-weight="700" text-anchor="start" x="0.0000" y="0.0000" font-size="10.6249"><![CDATA[IAD]]></text>
        </g>
        <g transform=" scale(3.000000) ">
</g>
      </g>
      <!--emf-blob end-->
    </g>
  </g>
</svg>

