<svg xmlns="http://www.w3.org/2000/svg" xmlns:xlink="http://www.w3.org/1999/xlink" version="1.1" viewBox="0 0 72 105" >
  <title><![CDATA[IBM mini as400]]></title>
  <g transform=" scale(3.000000) ">
    <!--converted by libvisio2svg-->
    <g>
      <!--emf-blob start-->
      <g>
        <path d="M 18.0083,5.90440000000001 L 0,5.90440000000001 L 0,34.8357 L 18.0083,34.8357 Z " fill="#0F73A0" stroke-width="1px" stroke="#0F73A0"/>
        <path d="M 18.0083,5.90440000000001 L 0,5.90440000000001 L 0,34.8357 L 18.0083,34.8357 " stroke="#FFFFFF" stroke-width="0.88565" stroke-linecap="butt" stroke-linejoin="miter" fill="none"/>
        <path d="M 18.0083,34.8357 L 23.9126,28.9314 L 23.9126,0 L 7.38040000000001,0 L 0,5.90440000000001 L 18.0083,5.90440000000001 L 18.0083,34.8357 Z " fill="#0F73A0" stroke="#FFFFFF" stroke-width="0.88565" stroke-linecap="butt" stroke-linejoin="miter"/>
        <path d="M 18.0083,5.90440000000001 L 23.9126,0 Z " fill="#0F73A0" stroke-width="1px" stroke="#0F73A0"/>
        <path d="M 18.0083,5.90440000000001 L 23.9126,0 " stroke="#FFFFFF" stroke-width="0.88565" stroke-linecap="butt" stroke-linejoin="miter" fill="none"/>
        <path d="M 0.295200000000023,8.26609999999999 L 18.0083,8.26609999999999 Z " fill="#0F73A0" stroke-width="1px" stroke="#0F73A0"/>
        <path d="M 0.295200000000023,8.26609999999999 L 18.0083,8.26609999999999 " stroke="#FFFFFF" stroke-width="0.88565" stroke-linecap="butt" stroke-linejoin="miter" fill="none"/>
        <path d="M 18.0083,8.26609999999999 L 23.6174,2.65699999999998 Z " fill="#0F73A0" stroke-width="1px" stroke="#0F73A0"/>
        <path d="M 18.0083,8.26609999999999 L 23.6174,2.65699999999998 " stroke="#FFFFFF" stroke-width="0.88565" stroke-linecap="butt" stroke-linejoin="miter" fill="none"/>
        <path d="M 7.67560000000003,15.3513 L 7.67560000000003,13.8753 L 1.476,13.8753 L 1.476,15.3513 L 7.67560000000003,15.3513 Z " fill="#0F73A0" stroke="#FFFFFF" stroke-width="0.88565" stroke-linecap="butt" stroke-linejoin="miter"/>
        <path d="M 16.2369,15.3513 L 16.2369,13.8753 L 10.0374,13.8753 L 10.0374,15.3513 L 16.2369,15.3513 Z " fill="#0F73A0" stroke="#FFFFFF" stroke-width="0.88565" stroke-linecap="butt" stroke-linejoin="miter"/>
      </g>
      <!--emf-blob end-->
    </g>
  </g>
</svg>

