<svg xmlns="http://www.w3.org/2000/svg" xmlns:xlink="http://www.w3.org/1999/xlink" version="1.1" viewBox="0 0 84 120" >
  <title><![CDATA[IBM mainframe]]></title>
  <g transform=" scale(3.000000) ">
    <!--converted by libvisio2svg-->
    <g>
      <!--emf-blob start-->
      <g>
        <path d="M 21.5499,6.49450000000002 L 11.2177,6.49450000000002 L 11.2177,38.0813 L 21.5499,38.0813 L 21.5499,6.49450000000002 Z " fill="#0F73A0" stroke="#FFFFFF" stroke-width="0.8856" stroke-linecap="butt" stroke-linejoin="miter"/>
        <path d="M 12.6938,10.9226 L 20.0739,10.9226 L 20.0739,18.0074 L 12.6938,18.0074 L 12.6938,10.9226 Z " fill="#0F73A0" stroke="#FFFFFF" stroke-width="0.8856" stroke-linecap="butt" stroke-linejoin="miter"/>
        <path d="M 27.7492,0 L 21.5499,6.49450000000002 L 21.5499,38.0813 L 27.7492,30.7012 L 27.7492,0 Z " fill="#0F73A0" stroke="#FFFFFF" stroke-width="0.8856" stroke-linecap="butt" stroke-linejoin="miter"/>
        <path d="M 2.06640000000004,6.19929999999999 L 10.6273,6.19929999999999 Z " fill="#0F73A0" stroke-width="1px" stroke="#0F73A0"/>
        <path d="M 2.06640000000004,6.19929999999999 L 10.6273,6.19929999999999 " stroke="#FFFFFF" stroke-width="0.8856" stroke-linecap="butt" stroke-linejoin="miter" fill="none"/>
        <path d="M 12.3986,5.31369999999998 L 16.2362,0.885600000000011 Z " fill="#0F73A0" stroke-width="1px" stroke="#0F73A0"/>
        <path d="M 12.3986,5.31369999999998 L 16.2362,0.885600000000011 " stroke="#FFFFFF" stroke-width="0.8856" stroke-linecap="butt" stroke-linejoin="miter" fill="none"/>
        <path d="M 10.6273,6.78969999999998 C 10.6273,6.78969999999998 10.6273,8.85609999999997 6.78970000000004,8.85609999999997 C 0.295200000000023,7.97050000000002 0.295200000000023,7.97050000000002 0.295200000000023,7.97050000000002 C 0.295200000000023,7.38009999999997 0.295200000000023,7.38009999999997 0.295200000000023,7.38009999999997 C 9.74170000000004,0 9.74170000000004,0 9.74170000000004,0 C 27.7492,0 27.7492,0 27.7492,0 C 21.5499,6.49450000000002 21.5499,6.49450000000002 21.5499,6.49450000000002 C 11.2177,6.49450000000002 11.2177,6.49450000000002 11.2177,6.49450000000002 Z " fill="#0F73A0" stroke="none"/>
        <path d="M 10.6273,6.78969999999998 C 10.6273,6.78969999999998 10.6273,8.85609999999997 6.78970000000004,8.85609999999997 C 0.295200000000023,7.97050000000002 0.295200000000023,7.97050000000002 0.295200000000023,7.97050000000002 C 0.295200000000023,7.38009999999997 0.295200000000023,7.38009999999997 0.295200000000023,7.38009999999997 C 9.74170000000004,0 9.74170000000004,0 9.74170000000004,0 C 27.7492,0 27.7492,0 27.7492,0 C 21.5499,6.49450000000002 21.5499,6.49450000000002 21.5499,6.49450000000002 C 11.2177,6.49450000000002 11.2177,6.49450000000002 11.2177,6.49450000000002 Z " stroke="#FFFFFF" stroke-width="0.8856" stroke-linecap="butt" stroke-linejoin="miter" fill="none"/>
        <path d="M 10.9225,6.49450000000002 C 10.9225,6.49450000000002 7.97050000000002,8.26569999999998 4.428,7.97050000000002 C 0,7.67529999999999 0,7.67529999999999 0,7.67529999999999 C 0,38.9669 0,38.9669 0,38.9669 C 4.428,39.2621 4.428,39.2621 4.428,39.2621 C 8.85610000000003,39.5573 11.2177,38.0813 11.2177,38.0813 Z Z " fill="#0F73A0" stroke="#FFFFFF" stroke-width="0.8856" stroke-linecap="butt" stroke-linejoin="miter"/>
        <path d="M 2.06640000000004,6.19929999999999 L 10.6273,6.19929999999999 Z " fill="#0F73A0" stroke-width="1px" stroke="#0F73A0"/>
        <path d="M 2.06640000000004,6.19929999999999 L 10.6273,6.19929999999999 " stroke="#FFFFFF" stroke-width="0.8856" stroke-linecap="butt" stroke-linejoin="miter" fill="none"/>
        <path d="M 13.2842,5.01850000000002 L 18.0074,0.590399999999988 Z " fill="#0F73A0" stroke-width="1px" stroke="#0F73A0"/>
        <path d="M 13.2842,5.01850000000002 L 18.0074,0.590399999999988 " stroke="#FFFFFF" stroke-width="0.8856" stroke-linecap="butt" stroke-linejoin="miter" fill="none"/>
      </g>
      <!--emf-blob end-->
    </g>
  </g>
</svg>

