<svg xmlns="http://www.w3.org/2000/svg" xmlns:xlink="http://www.w3.org/1999/xlink" version="1.1" viewBox="0 0 72 129" >
  <title><![CDATA[IBM tower]]></title>
  <g transform=" scale(3.000000) ">
    <!--converted by libvisio2svg-->
    <g>
      <!--emf-blob start-->
      <g>
        <path d="M 19.4819,41.0302 L 19.4819,3.24699999999996 L 1.77110000000005,3.24699999999996 L 1.77110000000005,41.0302 L 19.4819,41.0302 Z " fill="#0F73A0" stroke="#FFFFFF" stroke-width="0.88555" stroke-linecap="butt" stroke-linejoin="miter"/>
        <path d="M 1.77110000000005,3.24699999999996 L 5.31319999999999,0 L 22.1386,0 L 19.4819,3.24699999999996 L 1.77110000000005,3.24699999999996 Z " fill="#0F73A0" stroke="#FFFFFF" stroke-width="0.88555" stroke-linecap="butt" stroke-linejoin="miter"/>
        <path d="M 19.4819,41.0302 L 22.1386,35.7169 L 22.1386,0 L 19.4819,3.24699999999996 L 19.4819,41.0302 Z " fill="#0F73A0" stroke="#FFFFFF" stroke-width="0.88555" stroke-linecap="butt" stroke-linejoin="miter"/>
        <path d="M 20.9578,42.5061 L 19.4819,41.0302 L 1.77110000000005,41.0302 L 0,42.5061 L 20.9578,42.5061 Z " fill="#0F73A0" stroke="#FFFFFF" stroke-width="0.88555" stroke-linecap="butt" stroke-linejoin="miter"/>
        <path d="M 20.9578,42.5061 L 23.6145,36.8976 L 22.1386,35.7169 L 19.4819,41.0302 L 20.9578,42.5061 Z " fill="#0F73A0" stroke="#FFFFFF" stroke-width="0.88555" stroke-linecap="butt" stroke-linejoin="miter"/>
        <path d="M 19.4819,41.0302 L 1.77110000000005,41.0302 Z " fill="#000000" stroke-width="1px" stroke="#000000"/>
        <path d="M 19.4819,41.0302 L 1.77110000000005,41.0302 " stroke="#FFFFFF" stroke-width="0.88555" stroke-linecap="butt" stroke-linejoin="miter" fill="none"/>
        <path d="M 22.1386,35.7169 L 19.4819,41.0302 Z " fill="#000000" stroke-width="1px" stroke="#000000"/>
        <path d="M 22.1386,35.7169 L 19.4819,41.0302 " stroke="#FFFFFF" stroke-width="0.88555" stroke-linecap="butt" stroke-linejoin="miter" fill="none"/>
        <path d="M 1.77110000000005,5.01799999999997 L 19.4819,5.01799999999997 Z " fill="#0B719F" stroke-width="1px" stroke="#0B719F"/>
        <path d="M 1.77110000000005,5.01799999999997 L 19.4819,5.01799999999997 " stroke="#FFFFFF" stroke-width="0.88555" stroke-linecap="butt" stroke-linejoin="miter" fill="none"/>
        <path d="M 1.77110000000005,5.31319999999999 L 19.4819,5.31319999999999 Z " fill="#0B719F" stroke-width="1px" stroke="#0B719F"/>
        <path d="M 1.77110000000005,5.31319999999999 L 19.4819,5.31319999999999 " stroke="#FFFFFF" stroke-width="0.88555" stroke-linecap="butt" stroke-linejoin="miter" fill="none"/>
        <path d="M 15.9398,9.74089999999995 L 2.95180000000005,9.74089999999995 L 2.95180000000005,10.9217 L 5.31319999999999,10.9217 Z " fill="#000000" stroke-width="1px" stroke="#000000"/>
        <path d="M 15.9398,9.74089999999995 L 2.95180000000005,9.74089999999995 L 2.95180000000005,10.9217 L 5.31319999999999,10.9217 " stroke="#FFFFFF" stroke-width="0.88555" stroke-linecap="butt" stroke-linejoin="miter" fill="none"/>
        <path d="M 15.9398,11.8072 L 2.95180000000005,11.8072 L 2.95180000000005,12.9879 L 5.31319999999999,12.9879 Z " fill="#000000" stroke-width="1px" stroke="#000000"/>
        <path d="M 15.9398,11.8072 L 2.95180000000005,11.8072 L 2.95180000000005,12.9879 L 5.31319999999999,12.9879 " stroke="#FFFFFF" stroke-width="0.88555" stroke-linecap="butt" stroke-linejoin="miter" fill="none"/>
        <path d="M 15.9398,14.1687 L 2.95180000000005,14.1687 L 2.95180000000005,15.3494 L 5.31319999999999,15.3494 Z " fill="#000000" stroke-width="1px" stroke="#000000"/>
        <path d="M 15.9398,14.1687 L 2.95180000000005,14.1687 L 2.95180000000005,15.3494 L 5.31319999999999,15.3494 " stroke="#FFFFFF" stroke-width="0.88555" stroke-linecap="butt" stroke-linejoin="miter" fill="none"/>
        <path d="M 15.9398,16.2349 L 2.95180000000005,16.2349 L 2.95180000000005,17.4157 L 5.31319999999999,17.4157 Z " fill="#000000" stroke-width="1px" stroke="#000000"/>
        <path d="M 15.9398,16.2349 L 2.95180000000005,16.2349 L 2.95180000000005,17.4157 L 5.31319999999999,17.4157 " stroke="#FFFFFF" stroke-width="0.88555" stroke-linecap="butt" stroke-linejoin="miter" fill="none"/>
        <path d="M 15.9398,18.5964 L 2.95180000000005,18.5964 L 2.95180000000005,19.7771 L 5.31319999999999,19.7771 Z " fill="#000000" stroke-width="1px" stroke="#000000"/>
        <path d="M 15.9398,18.5964 L 2.95180000000005,18.5964 L 2.95180000000005,19.7771 L 5.31319999999999,19.7771 " stroke="#FFFFFF" stroke-width="0.88555" stroke-linecap="butt" stroke-linejoin="miter" fill="none"/>
        <path d="M 15.9398,20.6627 L 2.95180000000005,20.6627 L 2.95180000000005,21.8434 L 5.31319999999999,21.8434 Z " fill="#000000" stroke-width="1px" stroke="#000000"/>
        <path d="M 15.9398,20.6627 L 2.95180000000005,20.6627 L 2.95180000000005,21.8434 L 5.31319999999999,21.8434 " stroke="#FFFFFF" stroke-width="0.88555" stroke-linecap="butt" stroke-linejoin="miter" fill="none"/>
        <path d="M 15.9398,22.7289 L 2.95180000000005,22.7289 L 2.95180000000005,23.9096 L 5.31319999999999,23.9096 Z " fill="#000000" stroke-width="1px" stroke="#000000"/>
        <path d="M 15.9398,22.7289 L 2.95180000000005,22.7289 L 2.95180000000005,23.9096 L 5.31319999999999,23.9096 " stroke="#FFFFFF" stroke-width="0.88555" stroke-linecap="butt" stroke-linejoin="miter" fill="none"/>
        <path d="M 15.9398,25.0904 L 2.95180000000005,25.0904 L 2.95180000000005,26.2711 L 5.31319999999999,26.2711 Z " fill="#000000" stroke-width="1px" stroke="#000000"/>
        <path d="M 15.9398,25.0904 L 2.95180000000005,25.0904 L 2.95180000000005,26.2711 L 5.31319999999999,26.2711 " stroke="#FFFFFF" stroke-width="0.88555" stroke-linecap="butt" stroke-linejoin="miter" fill="none"/>
        <path d="M 15.9398,27.1566 L 2.95180000000005,27.1566 L 2.95180000000005,28.3374 L 5.31319999999999,28.3374 Z " fill="#000000" stroke-width="1px" stroke="#000000"/>
        <path d="M 15.9398,27.1566 L 2.95180000000005,27.1566 L 2.95180000000005,28.3374 L 5.31319999999999,28.3374 " stroke="#FFFFFF" stroke-width="0.88555" stroke-linecap="butt" stroke-linejoin="miter" fill="none"/>
        <path d="M 15.9398,29.5181 L 2.95180000000005,29.5181 L 2.95180000000005,30.6988 L 5.31319999999999,30.6988 Z " fill="#000000" stroke-width="1px" stroke="#000000"/>
        <path d="M 15.9398,29.5181 L 2.95180000000005,29.5181 L 2.95180000000005,30.6988 L 5.31319999999999,30.6988 " stroke="#FFFFFF" stroke-width="0.88555" stroke-linecap="butt" stroke-linejoin="miter" fill="none"/>
        <path d="M 15.9398,31.5844 L 2.95180000000005,31.5844 L 2.95180000000005,32.7651 L 5.31319999999999,32.7651 Z " fill="#000000" stroke-width="1px" stroke="#000000"/>
        <path d="M 15.9398,31.5844 L 2.95180000000005,31.5844 L 2.95180000000005,32.7651 L 5.31319999999999,32.7651 " stroke="#FFFFFF" stroke-width="0.88555" stroke-linecap="butt" stroke-linejoin="miter" fill="none"/>
        <path d="M 15.9398,33.6506 L 2.95180000000005,33.6506 L 2.95180000000005,34.8314 L 5.31319999999999,34.8314 Z " fill="#000000" stroke-width="1px" stroke="#000000"/>
        <path d="M 15.9398,33.6506 L 2.95180000000005,33.6506 L 2.95180000000005,34.8314 L 5.31319999999999,34.8314 " stroke="#FFFFFF" stroke-width="0.88555" stroke-linecap="butt" stroke-linejoin="miter" fill="none"/>
        <path d="M 15.9398,36.0121 L 2.95180000000005,36.0121 L 2.95180000000005,37.1928 L 5.31319999999999,37.1928 Z " fill="#000000" stroke-width="1px" stroke="#000000"/>
        <path d="M 15.9398,36.0121 L 2.95180000000005,36.0121 L 2.95180000000005,37.1928 L 5.31319999999999,37.1928 " stroke="#FFFFFF" stroke-width="0.88555" stroke-linecap="butt" stroke-linejoin="miter" fill="none"/>
        <path d="M 15.9398,38.0783 L 2.95180000000005,38.0783 L 2.95180000000005,39.2591 L 5.31319999999999,39.2591 Z " fill="#000000" stroke-width="1px" stroke="#000000"/>
        <path d="M 15.9398,38.0783 L 2.95180000000005,38.0783 L 2.95180000000005,39.2591 L 5.31319999999999,39.2591 " stroke="#FFFFFF" stroke-width="0.88555" stroke-linecap="butt" stroke-linejoin="miter" fill="none"/>
      </g>
      <!--emf-blob end-->
    </g>
  </g>
</svg>

