<svg xmlns="http://www.w3.org/2000/svg" xmlns:xlink="http://www.w3.org/1999/xlink" version="1.1" viewBox="0 0 63 132" >
  <title><![CDATA[ICM ]]></title>
  <g transform=" scale(3.000000) ">
    <!--converted by libvisio2svg-->
    <g>
      <!--emf-blob start-->
      <g>
        <path d="M 1.47589999999997,42.8013 L 3.54209999999995,43.0965 L 12.1024,43.0965 L 14.1687,42.8013 L 15.3494,41.9157 L 15.6446,41.3254 L 15.6446,7.67470000000003 L 0,7.67470000000003 L 0,41.9157 L 1.47589999999997,42.8013 Z " fill="#036C9B" stroke="#FFFFFF" stroke-width="0.88555" stroke-linecap="butt" stroke-linejoin="miter"/>
        <path d="M 20.6626,0 L 15.6446,4.72290000000004 L 15.6446,41.3254 L 20.6626,35.4217 L 20.6626,0 L 20.6626,0 Z " fill="#036C9B" stroke="#FFFFFF" stroke-width="0.88555" stroke-linecap="butt" stroke-linejoin="miter"/>
        <path d="M 15.6446,7.67470000000003 L 20.6626,2.95180000000005 Z " fill="#036C9B" stroke-width="1px" stroke="#036C9B"/>
        <path d="M 15.6446,7.67470000000003 L 20.6626,2.95180000000005 " stroke="#FFFFFF" stroke-width="0.88555" stroke-linecap="butt" stroke-linejoin="miter" fill="none"/>
        <path d="M 14.759,10.6265 L 14.759,10.0361 Z " fill="#036C9B" stroke-width="1px" stroke="#036C9B"/>
        <path d="M 14.759,10.6265 L 14.759,10.0361 " stroke="#FFFFFF" stroke-width="0.88555" stroke-linecap="butt" stroke-linejoin="miter" fill="none"/>
        <path d="M 14.759,10.6265 L 14.759,10.0361 Z " fill="#036C9B" stroke-width="1px" stroke="#036C9B"/>
        <path d="M 14.759,10.6265 L 14.759,10.0361 " stroke="#FFFFFF" stroke-width="0.88555" stroke-linecap="butt" stroke-linejoin="miter" fill="none"/>
        <path d="M 15.6446,38.6687 L 20.3674999999999,33.3555 Z " fill="#036C9B" stroke-width="1px" stroke="#036C9B"/>
        <path d="M 15.6446,38.6687 L 20.3674999999999,33.3555 " stroke="#FFFFFF" stroke-width="0.88555" stroke-linecap="butt" stroke-linejoin="miter" fill="none"/>
        <path d="M 4.42769999999996,0 C 20.6626,0 20.6626,0 20.6626,0 C 15.6446,4.72290000000004 15.6446,4.72290000000004 15.6446,4.72290000000004 C 15.6446,4.72290000000004 15.6446,4.72290000000004 15.6446,4.72290000000004 C 15.6446,4.72290000000004 9.1506,7.08430000000004 0,4.42770000000002 Z Z " fill="#036C9B" stroke="#FFFFFF" stroke-width="0.88555" stroke-linecap="butt" stroke-linejoin="miter"/>
        <path d="M 0,4.42770000000002 C 9.1506,7.08430000000004 15.6446,4.72290000000004 15.6446,4.72290000000004 C 15.6446,7.67470000000003 15.6446,7.67470000000003 15.6446,7.67470000000003 C 15.6446,7.67470000000003 9.1506,10.0361 0,7.37950000000001 Z Z " fill="#036C9B" stroke="#FFFFFF" stroke-width="0.88555" stroke-linecap="butt" stroke-linejoin="miter"/>
        <path d="M 15.3494,18.5964 L 0,18.5964 L 0,18.8916 Z " fill="#036C9B" stroke-width="1px" stroke="#036C9B"/>
        <path d="M 15.3494,18.5964 L 0,18.5964 L 0,18.8916 " stroke="#FFFFFF" stroke-width="0.88555" stroke-linecap="butt" stroke-linejoin="miter" fill="none"/>
        <path d="M 0.295099999999991,12.988 L 15.3494,12.988 Z " fill="#036C9B" stroke-width="1px" stroke="#036C9B"/>
        <path d="M 0.295099999999991,12.988 L 15.3494,12.988 " stroke="#FFFFFF" stroke-width="0.88555" stroke-linecap="butt" stroke-linejoin="miter" fill="none"/>
        <path d="M 0.295099999999991,15.3494 L 15.3494,15.3494 Z " fill="#036C9B" stroke-width="1px" stroke="#036C9B"/>
        <path d="M 0.295099999999991,15.3494 L 15.3494,15.3494 " stroke="#FFFFFF" stroke-width="0.88555" stroke-linecap="butt" stroke-linejoin="miter" fill="none"/>
        <path d="M 0.295099999999991,12.988 L 15.3494,12.988 Z " fill="#036C9B" stroke-width="1px" stroke="#036C9B"/>
        <path d="M 0.295099999999991,12.988 L 15.3494,12.988 " stroke="#FFFFFF" stroke-width="0.88555" stroke-linecap="butt" stroke-linejoin="miter" fill="none"/>
        <path d="M 0.295099999999991,20.0723 L 1.47589999999997,21.253 L 3.54209999999995,21.253 Z " fill="#036C9B" stroke-width="1px" stroke="#036C9B"/>
        <path d="M 0.295099999999991,20.0723 L 1.47589999999997,21.253 L 3.54209999999995,21.253 " stroke="#FFFFFF" stroke-width="0.88555" stroke-linecap="butt" stroke-linejoin="miter" fill="none"/>
        <path d="M 14.759,11.8072 L 1.1807,11.8072 L 1.1807,10.0361 L 14.759,10.0361 L 14.759,11.8072 Z " fill="#036C9B" stroke="#FFFFFF" stroke-width="0.88555" stroke-linecap="butt" stroke-linejoin="miter"/>
        <path d="M 3.54209999999995,19.7771 L 12.1024,19.7771 L 14.1687,19.4819 L 15.3494,18.5964 Z " fill="#036C9B" stroke-width="1px" stroke="#036C9B"/>
        <path d="M 3.54209999999995,19.7771 L 12.1024,19.7771 L 14.1687,19.4819 L 15.3494,18.5964 " stroke="#FFFFFF" stroke-width="0.88555" stroke-linecap="butt" stroke-linejoin="miter" fill="none"/>
        <path d="M 3.54209999999995,21.253 L 12.1024,21.253 L 14.1687,21.253 L 15.3494,20.0723 Z " fill="#036C9B" stroke-width="1px" stroke="#036C9B"/>
        <path d="M 3.54209999999995,21.253 L 12.1024,21.253 L 14.1687,21.253 L 15.3494,20.0723 " stroke="#FFFFFF" stroke-width="0.88555" stroke-linecap="butt" stroke-linejoin="miter" fill="none"/>
        <path d="M 0.295099999999991,18.5964 L 1.47589999999997,19.4819 L 3.54209999999995,19.7771 Z " fill="#036C9B" stroke-width="1px" stroke="#036C9B"/>
        <path d="M 0.295099999999991,18.5964 L 1.47589999999997,19.4819 L 3.54209999999995,19.7771 " stroke="#FFFFFF" stroke-width="0.88555" stroke-linecap="butt" stroke-linejoin="miter" fill="none"/>
        <path d="M 0.295099999999991,23.6145 L 1.47589999999997,24.5 L 3.54209999999995,24.7952 Z " fill="#036C9B" stroke-width="1px" stroke="#036C9B"/>
        <path d="M 0.295099999999991,23.6145 L 1.47589999999997,24.5 L 3.54209999999995,24.7952 " stroke="#FFFFFF" stroke-width="0.88555" stroke-linecap="butt" stroke-linejoin="miter" fill="none"/>
        <path d="M 3.54209999999995,23.0241 L 12.1024,23.0241 L 14.1687,22.7289 L 15.3494,21.8434 Z " fill="#036C9B" stroke-width="1px" stroke="#036C9B"/>
        <path d="M 3.54209999999995,23.0241 L 12.1024,23.0241 L 14.1687,22.7289 L 15.3494,21.8434 " stroke="#FFFFFF" stroke-width="0.88555" stroke-linecap="butt" stroke-linejoin="miter" fill="none"/>
        <path d="M 3.54209999999995,24.7952 L 12.1024,24.7952 L 14.1687,24.5 L 15.3494,23.6145 Z " fill="#036C9B" stroke-width="1px" stroke="#036C9B"/>
        <path d="M 3.54209999999995,24.7952 L 12.1024,24.7952 L 14.1687,24.5 L 15.3494,23.6145 " stroke="#FFFFFF" stroke-width="0.88555" stroke-linecap="butt" stroke-linejoin="miter" fill="none"/>
        <path d="M 0.295099999999991,21.8434 L 1.47589999999997,22.7289 L 3.54209999999995,23.0241 Z " fill="#036C9B" stroke-width="1px" stroke="#036C9B"/>
        <path d="M 0.295099999999991,21.8434 L 1.47589999999997,22.7289 L 3.54209999999995,23.0241 " stroke="#FFFFFF" stroke-width="0.88555" stroke-linecap="butt" stroke-linejoin="miter" fill="none"/>
        <path d="M 0.295099999999991,26.8615 L 1.47589999999997,27.747 L 3.54209999999995,28.0422 Z " fill="#036C9B" stroke-width="1px" stroke="#036C9B"/>
        <path d="M 0.295099999999991,26.8615 L 1.47589999999997,27.747 L 3.54209999999995,28.0422 " stroke="#FFFFFF" stroke-width="0.88555" stroke-linecap="butt" stroke-linejoin="miter" fill="none"/>
        <path d="M 3.54209999999995,26.5663 L 12.1024,26.5663 L 14.1687,26.2711 L 15.3494,25.3856 Z " fill="#036C9B" stroke-width="1px" stroke="#036C9B"/>
        <path d="M 3.54209999999995,26.5663 L 12.1024,26.5663 L 14.1687,26.2711 L 15.3494,25.3856 " stroke="#FFFFFF" stroke-width="0.88555" stroke-linecap="butt" stroke-linejoin="miter" fill="none"/>
        <path d="M 3.54209999999995,28.0422 L 12.1024,28.0422 L 14.1687,27.747 L 15.3494,26.8615 Z " fill="#036C9B" stroke-width="1px" stroke="#036C9B"/>
        <path d="M 3.54209999999995,28.0422 L 12.1024,28.0422 L 14.1687,27.747 L 15.3494,26.8615 " stroke="#FFFFFF" stroke-width="0.88555" stroke-linecap="butt" stroke-linejoin="miter" fill="none"/>
        <path d="M 0.295099999999991,25.3856 L 1.47589999999997,26.2711 L 3.54209999999995,26.5663 Z " fill="#036C9B" stroke-width="1px" stroke="#036C9B"/>
        <path d="M 0.295099999999991,25.3856 L 1.47589999999997,26.2711 L 3.54209999999995,26.5663 " stroke="#FFFFFF" stroke-width="0.88555" stroke-linecap="butt" stroke-linejoin="miter" fill="none"/>
        <path d="M 0.295099999999991,30.4037 L 1.47589999999997,31.2892 L 3.54209999999995,31.2892 Z " fill="#036C9B" stroke-width="1px" stroke="#036C9B"/>
        <path d="M 0.295099999999991,30.4037 L 1.47589999999997,31.2892 L 3.54209999999995,31.2892 " stroke="#FFFFFF" stroke-width="0.88555" stroke-linecap="butt" stroke-linejoin="miter" fill="none"/>
        <path d="M 3.54209999999995,29.8133 L 12.1024,29.8133 L 14.1687,29.5181 L 15.3494,28.6326 Z " fill="#036C9B" stroke-width="1px" stroke="#036C9B"/>
        <path d="M 3.54209999999995,29.8133 L 12.1024,29.8133 L 14.1687,29.5181 L 15.3494,28.6326 " stroke="#FFFFFF" stroke-width="0.88555" stroke-linecap="butt" stroke-linejoin="miter" fill="none"/>
        <path d="M 3.54209999999995,31.2892 L 12.1024,31.2892 L 14.1687,31.2892 L 15.3494,30.4037 Z " fill="#036C9B" stroke-width="1px" stroke="#036C9B"/>
        <path d="M 3.54209999999995,31.2892 L 12.1024,31.2892 L 14.1687,31.2892 L 15.3494,30.4037 " stroke="#FFFFFF" stroke-width="0.88555" stroke-linecap="butt" stroke-linejoin="miter" fill="none"/>
        <path d="M 0.295099999999991,28.6326 L 1.47589999999997,29.5181 L 3.54209999999995,29.8133 Z " fill="#036C9B" stroke-width="1px" stroke="#036C9B"/>
        <path d="M 0.295099999999991,28.6326 L 1.47589999999997,29.5181 L 3.54209999999995,29.8133 " stroke="#FFFFFF" stroke-width="0.88555" stroke-linecap="butt" stroke-linejoin="miter" fill="none"/>
        <path d="M 0.295099999999991,33.6506 L 1.47589999999997,34.5362 L 3.54209999999995,34.8314 Z " fill="#036C9B" stroke-width="1px" stroke="#036C9B"/>
        <path d="M 0.295099999999991,33.6506 L 1.47589999999997,34.5362 L 3.54209999999995,34.8314 " stroke="#FFFFFF" stroke-width="0.88555" stroke-linecap="butt" stroke-linejoin="miter" fill="none"/>
        <path d="M 3.54209999999995,33.0603 L 12.1024,33.0603 L 14.1687,33.0603 L 15.3494,31.8796 Z " fill="#036C9B" stroke-width="1px" stroke="#036C9B"/>
        <path d="M 3.54209999999995,33.0603 L 12.1024,33.0603 L 14.1687,33.0603 L 15.3494,31.8796 " stroke="#FFFFFF" stroke-width="0.88555" stroke-linecap="butt" stroke-linejoin="miter" fill="none"/>
        <path d="M 3.54209999999995,34.8314 L 12.1024,34.8314 L 14.1687,34.5362 L 15.3494,33.6506 Z " fill="#036C9B" stroke-width="1px" stroke="#036C9B"/>
        <path d="M 3.54209999999995,34.8314 L 12.1024,34.8314 L 14.1687,34.5362 L 15.3494,33.6506 " stroke="#FFFFFF" stroke-width="0.88555" stroke-linecap="butt" stroke-linejoin="miter" fill="none"/>
        <path d="M 0.295099999999991,31.8796 L 1.47589999999997,33.0603 L 3.54209999999995,33.0603 Z " fill="#036C9B" stroke-width="1px" stroke="#036C9B"/>
        <path d="M 0.295099999999991,31.8796 L 1.47589999999997,33.0603 L 3.54209999999995,33.0603 " stroke="#FFFFFF" stroke-width="0.88555" stroke-linecap="butt" stroke-linejoin="miter" fill="none"/>
        <path d="M 0.295099999999991,36.8976 L 1.47589999999997,37.7832 L 3.54209999999995,38.0784 Z " fill="#036C9B" stroke-width="1px" stroke="#036C9B"/>
        <path d="M 0.295099999999991,36.8976 L 1.47589999999997,37.7832 L 3.54209999999995,38.0784 " stroke="#FFFFFF" stroke-width="0.88555" stroke-linecap="butt" stroke-linejoin="miter" fill="none"/>
        <path d="M 3.54209999999995,36.6025 L 12.1024,36.6025 L 14.1687,36.3073 L 15.3494,35.4217 Z " fill="#036C9B" stroke-width="1px" stroke="#036C9B"/>
        <path d="M 3.54209999999995,36.6025 L 12.1024,36.6025 L 14.1687,36.3073 L 15.3494,35.4217 " stroke="#FFFFFF" stroke-width="0.88555" stroke-linecap="butt" stroke-linejoin="miter" fill="none"/>
        <path d="M 3.54209999999995,38.0784 L 12.1024,38.0784 L 14.1687,37.7832 L 15.3494,36.8976 Z " fill="#036C9B" stroke-width="1px" stroke="#036C9B"/>
        <path d="M 3.54209999999995,38.0784 L 12.1024,38.0784 L 14.1687,37.7832 L 15.3494,36.8976 " stroke="#FFFFFF" stroke-width="0.88555" stroke-linecap="butt" stroke-linejoin="miter" fill="none"/>
        <path d="M 0.295099999999991,35.4217 L 1.47589999999997,36.3073 L 3.54209999999995,36.6025 Z " fill="#036C9B" stroke-width="1px" stroke="#036C9B"/>
        <path d="M 0.295099999999991,35.4217 L 1.47589999999997,36.3073 L 3.54209999999995,36.6025 " stroke="#FFFFFF" stroke-width="0.88555" stroke-linecap="butt" stroke-linejoin="miter" fill="none"/>
        <path d="M 0.295099999999991,40.4398 L 1.47589999999997,41.3254 L 3.54209999999995,41.6205 Z " fill="#036C9B" stroke-width="1px" stroke="#036C9B"/>
        <path d="M 0.295099999999991,40.4398 L 1.47589999999997,41.3254 L 3.54209999999995,41.6205 " stroke="#FFFFFF" stroke-width="0.88555" stroke-linecap="butt" stroke-linejoin="miter" fill="none"/>
        <path d="M 3.54209999999995,39.8495 L 12.1024,39.8495 L 14.1687,39.5543 L 15.3494,38.6687 Z " fill="#036C9B" stroke-width="1px" stroke="#036C9B"/>
        <path d="M 3.54209999999995,39.8495 L 12.1024,39.8495 L 14.1687,39.5543 L 15.3494,38.6687 " stroke="#FFFFFF" stroke-width="0.88555" stroke-linecap="butt" stroke-linejoin="miter" fill="none"/>
        <path d="M 3.54209999999995,41.6205 L 12.1024,41.6205 L 14.1687,41.3254 L 15.3494,40.4398 Z " fill="#036C9B" stroke-width="1px" stroke="#036C9B"/>
        <path d="M 3.54209999999995,41.6205 L 12.1024,41.6205 L 14.1687,41.3254 L 15.3494,40.4398 " stroke="#FFFFFF" stroke-width="0.88555" stroke-linecap="butt" stroke-linejoin="miter" fill="none"/>
        <path d="M 0.295099999999991,38.6687 L 1.47589999999997,39.5543 L 3.54209999999995,39.8495 Z " fill="#036C9B" stroke-width="1px" stroke="#036C9B"/>
        <path d="M 0.295099999999991,38.6687 L 1.47589999999997,39.5543 L 3.54209999999995,39.8495 " stroke="#FFFFFF" stroke-width="0.88555" stroke-linecap="butt" stroke-linejoin="miter" fill="none"/>
      </g>
      <!--emf-blob end-->
    </g>
  </g>
</svg>

