<svg xmlns="http://www.w3.org/2000/svg" xmlns:xlink="http://www.w3.org/1999/xlink" version="1.1" viewBox="0 0 120 129" >
  <title><![CDATA[ICS]]></title>
  <g transform=" scale(3.000000) ">
    <!--converted by libvisio2svg-->
    <g>
      <!--emf-blob start-->
      <g>
        <path d="M 19.7766,42.5049 L 0,32.1738 L 0,10.331 L 19.7766,20.6621 L 19.7766,42.5049 Z " fill="#036C9B" stroke="#FFFFFF" stroke-width="0.8855" stroke-linecap="butt" stroke-linejoin="miter"/>
        <path d="M 19.7766,42.5049 L 39.5533,32.1738 L 39.5533,10.331 L 19.7766,20.6621 L 19.7766,42.5049 Z " fill="#036C9B" stroke="#FFFFFF" stroke-width="0.8855" stroke-linecap="butt" stroke-linejoin="miter"/>
        <path d="M 19.7766,20.6621 L 39.5533,10.331 L 19.7766,0 L 0,10.331 L 19.7766,20.6621 Z " fill="#036C9B" stroke="#FFFFFF" stroke-width="0.8855" stroke-linecap="butt" stroke-linejoin="miter"/>
        <path d="M 39.5533,32.1738 L 19.7766,42.5049 L 19.7766,20.6621 L 39.5533,10.331 L 39.5533,32.1738 Z " fill="#036C9B" stroke="#FFFFFF" stroke-width="0.8855" stroke-linecap="butt" stroke-linejoin="miter"/>
        <path d="M 19.7766,11.5117 L 23.9091,13.5779 L 21.5477,13.5779 L 21.5477,17.7104 L 18.3008,17.7104 L 18.3008,13.5779 L 15.6442,13.5779 L 19.7766,11.5117 Z " fill="#FFFFFF" stroke-width="1px" stroke="#FFFFFF"/>
        <path d="M 34.8305,10.331 L 30.6981,12.3972 L 30.6981,11.2165 L 23.0236,11.2165 L 23.0236,9.44549999999998 L 30.6981,9.44549999999998 L 30.6981,7.96960000000001 L 34.8305,10.331 Z " fill="#FFFFFF" stroke-width="1px" stroke="#FFFFFF"/>
        <path d="M 19.7766,9.15030000000002 L 15.6442,7.08409999999998 L 18.3008,7.08409999999998 L 18.3008,2.95170000000002 L 21.5477,2.95170000000002 L 21.5477,7.08409999999998 L 23.9091,7.08409999999998 L 19.7766,9.15030000000002 Z " fill="#FFFFFF" stroke-width="1px" stroke="#FFFFFF"/>
        <path d="M 4.72280000000001,10.331 L 8.85520000000002,7.96960000000001 L 8.85520000000002,9.44549999999998 L 16.5297,9.44549999999998 L 16.5297,11.2165 L 8.85520000000002,11.2165 L 8.85520000000002,12.3972 L 4.72280000000001,10.331 Z " fill="#FFFFFF" stroke-width="1px" stroke="#FFFFFF"/>
        <path d="M 37.7822,25.9752 L 37.7822,13.2828 L 22.4332,21.2524 L 22.4332,33.9449 L 37.7822,25.9752 Z " fill="#FFFFFF" stroke="#036C9B" stroke-width="0.8855" stroke-linecap="round" stroke-linejoin="round"/>
        <path d="M 24.7946,21.5476 C 35.4208,15.9393 35.4208,15.9393 35.4208,15.9393 C 36.0112,15.6441 36.6015,15.9393 36.6015,16.5297 C 36.6015,23.909 36.6015,23.909 36.6015,23.909 C 36.6015,24.7945 36.0112,25.68 35.4208,25.9752 C 24.7946,31.5835 24.7946,31.5835 24.7946,31.5835 C 23.9091,31.8787 23.6139,31.5835 23.6139,30.9932 C 23.6139,23.6138 23.6139,23.6138 23.6139,23.6138 C 23.6139,22.7283 23.9091,21.8428 24.7946,21.5476 Z Z " fill="#FFFFFF" stroke="#036C9B" stroke-width="0.8855" stroke-linecap="round" stroke-linejoin="round"/>
        <path d="M 34.2401,29.2221 L 25.9753,33.6497 L 25.9753,32.1738 L 34.2401,27.7462 L 34.2401,29.2221 Z " fill="#FFFFFF" stroke="#036C9B" stroke-width="0.8855" stroke-linecap="round" stroke-linejoin="round"/>
        <path d="M 37.7822,30.9932 L 22.4332,38.9628 L 22.4332,35.4207 L 37.7822,27.4511 L 37.7822,30.9932 Z " fill="#FFFFFF" stroke="#036C9B" stroke-width="0.8855" stroke-linecap="round" stroke-linejoin="round"/>
        <path d="M 38.0774,31.5835 L 22.138,40.1435 L 22.138,38.6677 L 38.0774,30.1076 L 38.0774,31.5835 Z " fill="#FFFFFF" stroke="#036C9B" stroke-width="0.8855" stroke-linecap="round" stroke-linejoin="round"/>
        <path d="M 30.4029,24.4993 L 28.6318,27.4511 L 28.6318,20.9573 L 33.0594,23.3186 L 30.4029,24.4993 Z " fill="#036C9B" stroke-width="1px" stroke="#036C9B"/>
        <path d="M 30.4029,24.7945 L 31.5836,27.1559 L 31.8787,26.8607 L 30.6981,24.4993 L 30.4029,24.7945 Z " fill="#5E5E5E" stroke-width="1px" stroke="#5E5E5E"/>
        <path d="M 18.3008,35.7159 L 18.3008,30.9932 L 15.3491,31.8787 L 18.3008,35.7159 Z " fill="#FFFFFF" stroke="#FFFFFF" stroke-width="0" stroke-linecap="butt" stroke-linejoin="miter"/>
        <path d="M 1.77109999999999,27.1559 L 1.77109999999999,22.138 L 4.72280000000001,25.9752 L 1.77109999999999,27.1559 Z " fill="#FFFFFF" stroke="#FFFFFF" stroke-width="0" stroke-linecap="butt" stroke-linejoin="miter"/>
        <path d="M 3.5421,18.3007 L 3.5421,23.3186 L 0.590399999999988,19.4814 L 3.5421,18.3007 Z " fill="#FFFFFF" stroke="#FFFFFF" stroke-width="0" stroke-linecap="butt" stroke-linejoin="miter"/>
        <path d="M 16.2346,25.0897 L 16.2346,29.8125 L 19.1863,28.9269 L 16.2346,25.0897 Z " fill="#FFFFFF" stroke="#FFFFFF" stroke-width="0" stroke-linecap="butt" stroke-linejoin="miter"/>
        <path d="M 16.8249,27.7462 L 15.0539,26.8607 Z " fill="#FFFFFF" stroke-width="1px" stroke="#FFFFFF"/>
        <path d="M 16.8249,27.7462 L 15.0539,26.8607 " stroke="none" stroke-width="0" fill="none"/>
        <path d="M 14.7587,27.4511 L 16.5297,28.3366 L 17.1201,27.4511 L 15.0539,26.5656 L 14.7587,27.4511 Z " fill="#FFFFFF" stroke-width="1px" stroke="#FFFFFF"/>
        <path d="M 17.4153,32.7642 L 19.7766,33.9449 Z " fill="#FFFFFF" stroke-width="1px" stroke="#FFFFFF"/>
        <path d="M 17.4153,32.7642 L 19.7766,33.9449 " stroke="#FFFFFF" stroke-width="1.3283" stroke-linecap="butt" stroke-linejoin="miter" fill="none"/>
        <path d="M 2.3614,24.7945 L 0,23.6138 Z " fill="#FFFFFF" stroke-width="1px" stroke="#FFFFFF"/>
        <path d="M 2.3614,24.7945 L 0,23.6138 " stroke="#FFFFFF" stroke-width="1.3283" stroke-linecap="butt" stroke-linejoin="miter" fill="none"/>
        <path d="M 2.65660000000003,20.3669 L 4.72280000000001,21.5476 Z " fill="#FFFFFF" stroke-width="1px" stroke="#FFFFFF"/>
        <path d="M 2.65660000000003,20.3669 L 4.72280000000001,21.5476 " stroke="none" stroke-width="0" fill="none"/>
        <path d="M 2.3614,20.6621 L 5.01800000000003,22.138 L 5.01800000000003,21.2524 L 2.65660000000003,20.0717 L 2.3614,20.6621 Z " fill="#FFFFFF" stroke-width="1px" stroke="#FFFFFF"/>
        <path d="M 13.578,25.9752 L 13.578,35.7159 L 6.4939,32.1738 L 6.4939,22.138 L 13.578,25.9752 Z " fill="#FFFFFF" stroke-width="1px" stroke="#FFFFFF"/>
        <path d="M 12.3973,28.0414 L 7.67450000000002,25.68 L 7.67450000000002,23.909 L 12.3973,26.2704 L 12.3973,28.0414 Z " fill="#FFFFFF" stroke="#036C9B" stroke-width="0.8855" stroke-linecap="butt" stroke-linejoin="miter"/>
        <path d="M 12.3973,34.2401 L 7.67450000000002,31.8787 L 7.67450000000002,27.4511 L 12.3973,29.8125 L 12.3973,34.2401 Z " fill="#FFFFFF" stroke="#036C9B" stroke-width="0.8855" stroke-linecap="butt" stroke-linejoin="miter"/>
        <path d="M 11.5118,22.138 C 11.5118,22.138 11.807,22.138 12.1021,22.7283 C 12.1021,23.909 12.1021,23.909 12.1021,23.909 C 15.0539,25.68 15.0539,25.68 15.0539,25.68 C 15.3491,25.0897 15.3491,25.0897 15.3491,25.0897 C 14.4635,23.0235 14.4635,23.0235 14.4635,23.0235 C 11.807,21.2524 11.2166,20.9573 11.2166,20.9573 C 10.3311,20.3669 10.3311,20.3669 10.3311,20.3669 C 10.3311,20.3669 7.96969999999999,19.4814 6.78899999999999,19.1862 C 5.31319999999999,19.7766 5.31319999999999,19.7766 5.31319999999999,19.7766 C 5.31319999999999,20.6621 5.31319999999999,20.6621 5.31319999999999,20.6621 C 8.26490000000001,21.8428 8.26490000000001,21.8428 8.26490000000001,21.8428 C 8.26490000000001,20.9573 8.26490000000001,20.9573 8.26490000000001,20.9573 C 8.56010000000003,20.3669 9.15039999999999,20.6621 9.15039999999999,20.6621 Z Z " fill="#FFFFFF" stroke="none"/>
        <path d="M 12.3973,28.9269 L 7.67450000000002,26.5656 Z " fill="#FFFFFF" stroke-width="1px" stroke="#FFFFFF"/>
        <path d="M 12.3973,28.9269 L 7.67450000000002,26.5656 " stroke="#036C9B" stroke-width="0.8855" stroke-linecap="butt" stroke-linejoin="miter" fill="none"/>
      </g>
      <!--emf-blob end-->
    </g>
  </g>
</svg>

