<svg xmlns="http://www.w3.org/2000/svg" xmlns:xlink="http://www.w3.org/1999/xlink" version="1.1" viewBox="0 0 111 117" >
  <title><![CDATA[Intelliswitch stack]]></title>
  <g transform=" scale(3.000000) ">
    <!--converted by libvisio2svg-->
    <g>
      <!--emf-blob start-->
      <g>
        <path d="M 0,18.6058 L 27.761,18.6058 " stroke="#FFFFFF" stroke-width="0.886" stroke-linecap="butt" stroke-linejoin="miter" fill="none"/>
        <path d="M 27.761,38.9836 L 27.761,30.1237 L 0,30.1237 L 0,38.9836 L 27.761,38.9836 Z " fill="#046897" stroke="#FFFFFF" stroke-width="0.886" stroke-linecap="butt" stroke-linejoin="miter"/>
        <path d="M 36.9163,21.8545 L 27.761,30.1237 L 0,30.1237 L 10.0412,21.8545 L 36.9163,21.8545 Z " fill="#000000" stroke="#FFFFFF" stroke-width="0.443" stroke-linecap="butt" stroke-linejoin="miter"/>
        <path d="M 36.9163,30.4191 L 36.9163,21.8545 L 27.761,30.1237 L 27.761,38.9836 L 36.9163,30.4191 Z " fill="#046897" stroke="#FFFFFF" stroke-width="0.886" stroke-linecap="butt" stroke-linejoin="miter"/>
        <path d="M 27.761,28.0564 L 27.761,19.1965 L 0,19.1965 L 0,28.0564 L 27.761,28.0564 Z " fill="#046897" stroke="#FFFFFF" stroke-width="0.886" stroke-linecap="butt" stroke-linejoin="miter"/>
        <path d="M 36.9163,10.6319 L 27.761,18.9012 L 0,18.9012 L 10.0412,10.6319 L 36.9163,10.6319 Z " fill="#000000" stroke="#FFFFFF" stroke-width="0.443" stroke-linecap="butt" stroke-linejoin="miter"/>
        <path d="M 36.9163,20.3778 L 36.9163,11.2226 L 27.761,19.4918 L 27.761,28.3517 L 36.9163,20.3778 Z " fill="#046897" stroke="#FFFFFF" stroke-width="0.886" stroke-linecap="butt" stroke-linejoin="miter"/>
        <path d="M 27.761,17.1292 L 27.761,8.26929999999999 L 0,8.26929999999999 L 0,17.1292 L 27.761,17.1292 Z " fill="#046897" stroke="#FFFFFF" stroke-width="0.886" stroke-linecap="butt" stroke-linejoin="miter"/>
        <path d="M 36.9163,0 L 27.761,8.26929999999999 L 0,8.26929999999999 L 10.0412,0 L 36.9163,0 Z " fill="#046897" stroke="#FFFFFF" stroke-width="0.886" stroke-linecap="butt" stroke-linejoin="miter"/>
        <path d="M 36.9163,8.85989999999998 L 36.9163,0 L 27.761,8.26929999999999 L 27.761,17.1292 L 36.9163,8.85989999999998 Z " fill="#046897" stroke="#FFFFFF" stroke-width="0.886" stroke-linecap="butt" stroke-linejoin="miter"/>
        <path d="M 22.7404,4.7253 L 23.9217,3.83929999999998 L 27.1704,4.7253 L 20.6731,6.202 L 21.8544,5.02069999999998 L 15.6525,5.02069999999998 L 16.5385,4.7253 L 22.7404,4.7253 Z " fill="#000000" stroke-width="1px" stroke="#000000"/>
        <path d="M 19.7871,2.36270000000002 L 19.1964,2.95330000000001 L 13.8805,2.95330000000001 L 12.9945,3.54399999999998 L 9.74590000000001,2.36270000000002 L 15.9478,1.1814 L 14.4712,2.36270000000002 L 19.7871,2.36270000000002 Z " fill="#000000" stroke-width="1px" stroke="#000000"/>
        <path d="M 15.0618,5.90659999999997 L 14.4712,6.4973 L 9.15519999999998,6.4973 L 8.26920000000001,7.08799999999997 L 5.0206,6.202 L 11.5179,4.7253 L 10.0412,5.90659999999997 L 15.0618,5.90659999999997 Z " fill="#000000" stroke-width="1px" stroke="#000000"/>
        <path d="M 27.761,1.47669999999999 L 28.9423,0.59069999999997 L 32.191,1.47669999999999 L 25.6937,2.95330000000001 L 26.875,2.06740000000002 L 20.6731,2.06740000000002 L 21.5591,1.47669999999999 L 27.761,1.47669999999999 Z " fill="#000000" stroke-width="1px" stroke="#000000"/>
        <path d="M 22.7404,5.02069999999998 L 23.9217,4.13470000000001 L 27.1704,5.02069999999998 L 20.6731,6.4973 L 21.8544,5.31599999999997 L 15.6525,5.31599999999997 L 16.5385,5.02069999999998 L 22.7404,5.02069999999998 Z " fill="#FFFFFF" stroke-width="1px" stroke="#FFFFFF"/>
        <path d="M 19.7871,2.65800000000002 L 19.1964,3.24869999999999 L 13.8805,3.24869999999999 L 12.9945,3.83929999999998 L 9.74590000000001,2.65800000000002 L 15.9478,1.47669999999999 L 14.4712,2.65800000000002 L 19.7871,2.65800000000002 Z " fill="#FFFFFF" stroke-width="1px" stroke="#FFFFFF"/>
        <path d="M 15.0618,6.202 L 14.4712,6.79259999999999 L 9.15519999999998,6.79259999999999 L 8.26920000000001,7.38330000000002 L 5.0206,6.4973 L 11.5179,5.02069999999998 L 10.0412,6.202 L 15.0618,6.202 Z " fill="#FFFFFF" stroke-width="1px" stroke="#FFFFFF"/>
        <path d="M 27.761,1.77199999999999 L 28.9423,0.885999999999967 L 32.191,1.77199999999999 L 25.6937,3.24869999999999 L 26.875,2.36270000000002 L 20.6731,2.36270000000002 L 21.5591,1.77199999999999 L 27.761,1.77199999999999 Z " fill="#FFFFFF" stroke-width="1px" stroke="#FFFFFF"/>
        <path d="M 15.0618,18.3105 L 15.0618,12.1086 L 15.9478,12.1086 L 14.4712,9.74590000000001 L 12.9945,12.1086 L 13.8805,12.1086 L 13.8805,18.3105 L 15.0618,18.3105 Z " fill="#FFFFFF" stroke-width="1px" stroke="#FFFFFF"/>
        <path d="M 11.8132,20.3778 L 7.38319999999999,15.9479 L 8.26920000000001,15.3572 L 5.61129999999997,14.7666 L 5.90659999999997,17.4245 L 6.79259999999999,16.8339 L 11.2225,20.9685 L 11.8132,20.3778 Z " fill="#FFFFFF" stroke-width="1px" stroke="#FFFFFF"/>
        <path d="M 10.3365,23.3311 L 4.13459999999998,23.3311 L 4.13459999999998,22.1498 L 1.77199999999999,23.6265 L 4.13459999999998,25.3984 L 4.13459999999998,24.2171 L 10.3365,24.2171 L 10.3365,23.3311 Z " fill="#FFFFFF" stroke-width="1px" stroke="#FFFFFF"/>
        <path d="M 11.2225,26.2844 L 6.79259999999999,30.7144 L 5.90659999999997,29.8284 L 5.61129999999997,32.7817 L 8.26920000000001,32.191 L 7.38319999999999,31.305 L 11.8132,27.1704 L 11.2225,26.2844 Z " fill="#FFFFFF" stroke-width="1px" stroke="#FFFFFF"/>
        <path d="M 13.8805,28.0564 L 13.8805,33.963 L 12.9945,33.963 L 14.4712,36.3257 L 15.9478,33.963 L 15.0618,33.963 L 15.0618,28.0564 L 13.8805,28.0564 Z " fill="#FFFFFF" stroke-width="1px" stroke="#FFFFFF"/>
        <path d="M 17.1291,27.1704 L 21.5591,31.305 L 20.6731,32.191 L 23.3311,32.7817 L 22.7404,29.8284 L 22.1497,30.7144 L 17.7198,26.2844 L 17.1291,27.1704 Z " fill="#FFFFFF" stroke-width="1px" stroke="#FFFFFF"/>
        <path d="M 18.6058,24.2171 L 24.8077,24.2171 L 24.8077,25.3984 L 27.1704,23.6265 L 24.8077,22.1498 L 24.8077,23.3311 L 18.6058,23.3311 L 18.6058,24.2171 Z " fill="#FFFFFF" stroke-width="1px" stroke="#FFFFFF"/>
        <path d="M 17.7198,20.9685 L 22.1497,16.8339 L 22.7404,17.4245 L 23.3311,14.7666 L 20.6731,15.3572 L 21.5591,15.9479 L 17.1291,20.3778 L 17.7198,20.9685 Z " fill="#FFFFFF" stroke-width="1px" stroke="#FFFFFF"/>
        <path d="M 17.1291,27.4658 C 19.1964,25.9891 19.7871,23.3311 18.3105,21.2638 C 16.8338,19.1965 13.8805,18.6058 12.1085,20.0825 C 10.0412,21.5591 9.45049999999998,24.2171 10.9272,26.2844 C 12.4039,28.3517 15.0618,28.9424 17.1291,27.4658 Z Z " fill="#FFFFFF" stroke="#000000" stroke-width="0.443" stroke-linecap="butt" stroke-linejoin="miter"/>
        <path d="M 35.4396,20.0825 C 35.1443,25.6938 33.3723,30.1237 31.6003,30.1237 C 30.1237,30.1237 28.9423,25.1031 29.533,19.4918 C 29.8283,13.5852 31.6003,9.15530000000001 33.3723,9.15530000000001 C 34.8489,9.45060000000001 36.0303,14.1759 35.4396,20.0825 Z Z " stroke="#FFFFFF" stroke-width="1.772" stroke-linecap="butt" stroke-linejoin="miter" fill="none"/>
      </g>
      <!--emf-blob end-->
    </g>
  </g>
</svg>

