<svg xmlns="http://www.w3.org/2000/svg" xmlns:xlink="http://www.w3.org/1999/xlink" version="1.1" viewBox="0 0 183 126" >
  <title><![CDATA[Internet streamer]]></title>
  <g transform=" scale(3.000000) ">
    <!--converted by libvisio2svg-->
    <g>
      <!--emf-blob start-->
      <g>
        <path d="M 0,4.72379999999998 L 0,41.3338 L 56.0958,41.3338 L 56.0958,4.72379999999998 L 0,4.72379999999998 L 0,4.72379999999998 L 0,4.72379999999998 L 0,4.72379999999998 Z " fill="#036C9B" stroke="#FFFFFF" stroke-width="0.44285" stroke-linecap="butt" stroke-linejoin="miter"/>
        <path d="M 0,4.72379999999998 L 0,41.3338 L 56.0958,41.3338 L 56.0958,4.72379999999998 L 0,4.72379999999998 L 0,4.72379999999998 L 0,4.72379999999998 L 0,4.72379999999998 Z " fill="#036C9B" stroke="#FFFFFF" stroke-width="0.44285" stroke-linecap="butt" stroke-linejoin="miter"/>
        <path d="M 0,4.72379999999998 L 4.42860000000002,0 L 60.5245,0 L 56.0958,4.72379999999998 L 0,4.72379999999998 L 0,4.72379999999998 L 0,4.72379999999998 L 0,4.72379999999998 Z " fill="#036C9B" stroke="#FFFFFF" stroke-width="0.44285" stroke-linecap="butt" stroke-linejoin="miter"/>
        <path d="M 0,4.72379999999998 L 4.42860000000002,0 L 60.5245,0 L 56.0958,4.72379999999998 L 0,4.72379999999998 L 0,4.72379999999998 L 0,4.72379999999998 L 0,4.72379999999998 Z " fill="#036C9B" stroke="#FFFFFF" stroke-width="0.44285" stroke-linecap="butt" stroke-linejoin="miter"/>
        <path d="M 56.0958,4.72379999999998 L 60.5245,0 L 60.5245,36.6098999999999 L 56.0958,41.3338 L 56.0958,4.72379999999998 L 56.0958,4.72379999999998 L 56.0958,4.72379999999998 L 56.0958,4.72379999999998 Z " fill="#036C9B" stroke="#FFFFFF" stroke-width="0.44285" stroke-linecap="butt" stroke-linejoin="miter"/>
        <path d="M 56.0958,4.72379999999998 L 60.5245,0 L 60.5245,36.6098999999999 L 56.0958,41.3338 L 56.0958,4.72379999999998 L 56.0958,4.72379999999998 L 56.0958,4.72379999999998 L 56.0958,4.72379999999998 Z " fill="#036C9B" stroke="#FFFFFF" stroke-width="0.44285" stroke-linecap="butt" stroke-linejoin="miter"/>
        <path d="M 44.8767,12.6953999999999 L 44.8767,10.6287 L 50.191,14.1716 L 44.8767,17.7144999999999 L 44.8767,15.6478 L 38.0861,15.6478 L 38.0861,12.6953999999999 L 44.8767,12.6953999999999 L 44.8767,12.6953999999999 L 44.8767,12.6953999999999 L 44.8767,12.6953999999999 Z " fill="#060606" stroke-width="1px" stroke="#060606"/>
        <path d="M 16.8287,21.8479 L 16.8287,19.7812 L 21.8478,23.3240999999999 L 16.8287,26.867 L 16.8287,24.8003 L 3.8381,24.8003 L 3.8381,21.8479 L 16.8287,21.8479 L 16.8287,21.8479 L 16.8287,21.8479 L 16.8287,21.8479 Z " fill="#060606" stroke-width="1px" stroke="#060606"/>
        <path d="M 44.8767,31.0002999999999 L 44.8767,28.9336 L 50.191,32.4765 L 44.8767,36.0193999999999 L 44.8767,33.9527999999999 L 38.0861,33.9527999999999 L 38.0861,31.0002999999999 L 44.8767,31.0002999999999 L 44.8767,31.0002999999999 L 44.8767,31.0002999999999 L 44.8767,31.0002999999999 Z " fill="#060606" stroke-width="1px" stroke="#060606"/>
        <path d="M 44.2862,12.1048999999999 L 44.2862,10.0382 L 49.3053,13.2858 L 44.2862,17.1239999999999 L 44.2862,14.7620999999999 L 37.4956,14.7620999999999 L 37.4956,12.1048999999999 L 44.2862,12.1048999999999 L 44.2862,12.1048999999999 L 44.2862,12.1048999999999 L 44.2862,12.1048999999999 Z " fill="#FFFFFF" stroke-width="1px" stroke="#FFFFFF"/>
        <path d="M 15.943,21.2574 L 15.943,18.8954 L 21.2573,22.7335999999999 L 15.943,26.2764999999999 L 15.943,23.9145 L 3.24760000000003,23.9145 L 3.24760000000003,21.2574 L 15.943,21.2574 L 15.943,21.2574 L 15.943,21.2574 L 15.943,21.2574 Z " fill="#FFFFFF" stroke-width="1px" stroke="#FFFFFF"/>
        <path d="M 49.6005,21.8479 L 49.6005,19.7812 L 54.6196,23.3240999999999 L 49.6005,26.867 L 49.6005,24.8003 L 37.7909,24.8003 L 37.7909,21.8479 L 49.6005,21.8479 L 49.6005,21.8479 L 49.6005,21.8479 L 49.6005,21.8479 Z " fill="#060606" stroke-width="1px" stroke="#060606"/>
        <path d="M 49.01,21.2574 L 49.01,18.8954 L 54.0292,22.7335999999999 L 49.01,26.2764999999999 L 49.01,23.9145 L 37.2004,23.9145 L 37.2004,21.2574 L 49.01,21.2574 L 49.01,21.2574 L 49.01,21.2574 L 49.01,21.2574 Z " fill="#FFFFFF" stroke-width="1px" stroke="#FFFFFF"/>
        <path d="M 44.2862,30.4099 L 44.2862,28.3431999999999 L 49.3053,31.8860999999999 L 44.2862,35.429 L 44.2862,33.3623 L 37.4956,33.3623 L 37.4956,30.4099 L 44.2862,30.4099 L 44.2862,30.4099 L 44.2862,30.4099 L 44.2862,30.4099 Z " fill="#FFFFFF" stroke-width="1px" stroke="#FFFFFF"/>
        <path d="M 35.4289,7.67629999999997 L 35.4289,38.3814 L 22.1431,38.3814 L 22.1431,7.67629999999997 L 35.4289,7.67629999999997 L 35.4289,7.67629999999997 L 35.4289,7.67629999999997 Z " fill="#156287" stroke-width="1px" stroke="#156287"/>
        <path d="M 35.4289,7.67629999999997 L 35.4289,38.3814 L 22.1431,38.3814 L 22.1431,7.67629999999997 L 35.4289,7.67629999999997 L 35.4289,7.67629999999997 L 35.4289,7.67629999999997 Z " fill="none" stroke="#8EC9E0" stroke-width="1.3286" stroke-linecap="square" stroke-linejoin="miter"/>
        <path d="M 31.886,31.2955999999999 L 31.886,35.429 L 26.2764,35.429 L 26.2764,31.2955999999999 L 31.886,31.2955999999999 L 31.886,31.2955999999999 L 31.886,31.2955999999999 Z " fill="#FFFFFF" stroke-width="1px" stroke="#FFFFFF"/>
        <path d="M 31.886,31.2955999999999 L 31.886,35.429 L 26.2764,35.429 L 26.2764,31.2955999999999 L 31.886,31.2955999999999 L 31.886,31.2955999999999 L 31.886,31.2955999999999 Z " fill="none" stroke="#FFFFFF" stroke-width="0.44285" stroke-linecap="square" stroke-linejoin="miter"/>
        <path d="M 34.5432,35.429 L 34.5432,36.6098999999999 L 33.6575,36.6098999999999 L 33.6575,35.429 L 34.5432,35.429 L 34.5432,35.429 L 34.5432,35.429 Z " fill="#FFFFFF" stroke-width="1px" stroke="#FFFFFF"/>
        <path d="M 34.5432,35.429 L 34.5432,36.6098999999999 L 33.6575,36.6098999999999 L 33.6575,35.429 L 34.5432,35.429 L 34.5432,35.429 L 34.5432,35.429 Z " fill="none" stroke="#FFFFFF" stroke-width="0.44285" stroke-linecap="square" stroke-linejoin="miter"/>
        <path d="M 34.5432,32.7718 L 34.5432,34.2479999999999 L 33.6575,34.2479999999999 L 33.6575,32.7718 L 34.5432,32.7718 L 34.5432,32.7718 L 34.5432,32.7718 Z " fill="#FFFFFF" stroke-width="1px" stroke="#FFFFFF"/>
        <path d="M 34.5432,32.7718 L 34.5432,34.2479999999999 L 33.6575,34.2479999999999 L 33.6575,32.7718 L 34.5432,32.7718 L 34.5432,32.7718 L 34.5432,32.7718 Z " fill="none" stroke="#FFFFFF" stroke-width="0.44285" stroke-linecap="square" stroke-linejoin="miter"/>
        <path d="M 34.5432,30.4099 L 34.5432,31.5907999999999 L 33.6575,31.5907999999999 L 33.6575,30.4099 L 34.5432,30.4099 L 34.5432,30.4099 L 34.5432,30.4099 Z " fill="#FFFFFF" stroke-width="1px" stroke="#FFFFFF"/>
        <path d="M 34.5432,30.4099 L 34.5432,31.5907999999999 L 33.6575,31.5907999999999 L 33.6575,30.4099 L 34.5432,30.4099 L 34.5432,30.4099 L 34.5432,30.4099 Z " fill="none" stroke="#FFFFFF" stroke-width="0.44285" stroke-linecap="square" stroke-linejoin="miter"/>
        <path d="M 34.5432,28.0478999999999 L 34.5432,29.2289 L 33.6575,29.2289 L 33.6575,28.0478999999999 L 34.5432,28.0478999999999 L 34.5432,28.0478999999999 L 34.5432,28.0478999999999 Z " fill="#FFFFFF" stroke-width="1px" stroke="#FFFFFF"/>
        <path d="M 34.5432,28.0478999999999 L 34.5432,29.2289 L 33.6575,29.2289 L 33.6575,28.0478999999999 L 34.5432,28.0478999999999 L 34.5432,28.0478999999999 L 34.5432,28.0478999999999 Z " fill="none" stroke="#FFFFFF" stroke-width="0.44285" stroke-linecap="square" stroke-linejoin="miter"/>
        <path d="M 34.5432,25.3906999999999 L 34.5432,26.5717 L 33.6575,26.5717 L 33.6575,25.3906999999999 L 34.5432,25.3906999999999 L 34.5432,25.3906999999999 L 34.5432,25.3906999999999 Z " fill="#FFFFFF" stroke-width="1px" stroke="#FFFFFF"/>
        <path d="M 34.5432,25.3906999999999 L 34.5432,26.5717 L 33.6575,26.5717 L 33.6575,25.3906999999999 L 34.5432,25.3906999999999 L 34.5432,25.3906999999999 L 34.5432,25.3906999999999 Z " fill="none" stroke="#FFFFFF" stroke-width="0.44285" stroke-linecap="square" stroke-linejoin="miter"/>
        <path d="M 34.5432,23.0287999999999 L 34.5432,24.2098 L 33.6575,24.2098 L 33.6575,23.0287999999999 L 34.5432,23.0287999999999 L 34.5432,23.0287999999999 L 34.5432,23.0287999999999 Z " fill="#FFFFFF" stroke-width="1px" stroke="#FFFFFF"/>
        <path d="M 34.5432,23.0287999999999 L 34.5432,24.2098 L 33.6575,24.2098 L 33.6575,23.0287999999999 L 34.5432,23.0287999999999 L 34.5432,23.0287999999999 L 34.5432,23.0287999999999 Z " fill="none" stroke="#FFFFFF" stroke-width="0.44285" stroke-linecap="square" stroke-linejoin="miter"/>
        <path d="M 34.5432,20.3715999999999 L 34.5432,21.8479 L 33.6575,21.8479 L 33.6575,20.3715999999999 L 34.5432,20.3715999999999 L 34.5432,20.3715999999999 L 34.5432,20.3715999999999 Z " fill="#FFFFFF" stroke-width="1px" stroke="#FFFFFF"/>
        <path d="M 34.5432,20.3715999999999 L 34.5432,21.8479 L 33.6575,21.8479 L 33.6575,20.3715999999999 L 34.5432,20.3715999999999 L 34.5432,20.3715999999999 L 34.5432,20.3715999999999 Z " fill="none" stroke="#FFFFFF" stroke-width="0.44285" stroke-linecap="square" stroke-linejoin="miter"/>
        <path d="M 34.5432,18.0097 L 34.5432,19.1907 L 33.6575,19.1907 L 33.6575,18.0097 L 34.5432,18.0097 L 34.5432,18.0097 L 34.5432,18.0097 Z " fill="#FFFFFF" stroke-width="1px" stroke="#FFFFFF"/>
        <path d="M 34.5432,18.0097 L 34.5432,19.1907 L 33.6575,19.1907 L 33.6575,18.0097 L 34.5432,18.0097 L 34.5432,18.0097 L 34.5432,18.0097 Z " fill="none" stroke="#FFFFFF" stroke-width="0.44285" stroke-linecap="square" stroke-linejoin="miter"/>
        <path d="M 34.5432,15.3525 L 34.5432,16.5335 L 33.6575,16.5335 L 33.6575,15.3525 L 34.5432,15.3525 L 34.5432,15.3525 L 34.5432,15.3525 Z " fill="#FFFFFF" stroke-width="1px" stroke="#FFFFFF"/>
        <path d="M 34.5432,15.3525 L 34.5432,16.5335 L 33.6575,16.5335 L 33.6575,15.3525 L 34.5432,15.3525 L 34.5432,15.3525 L 34.5432,15.3525 Z " fill="none" stroke="#FFFFFF" stroke-width="0.44285" stroke-linecap="square" stroke-linejoin="miter"/>
        <path d="M 34.5432,12.9906 L 34.5432,14.1716 L 33.6575,14.1716 L 33.6575,12.9906 L 34.5432,12.9906 L 34.5432,12.9906 L 34.5432,12.9906 Z " fill="#FFFFFF" stroke-width="1px" stroke="#FFFFFF"/>
        <path d="M 34.5432,12.9906 L 34.5432,14.1716 L 33.6575,14.1716 L 33.6575,12.9906 L 34.5432,12.9906 L 34.5432,12.9906 L 34.5432,12.9906 Z " fill="none" stroke="#FFFFFF" stroke-width="0.44285" stroke-linecap="square" stroke-linejoin="miter"/>
        <path d="M 34.5432,10.6287 L 34.5432,11.5143999999999 L 33.6575,11.8095999999999 L 33.6575,10.6287 L 34.5432,10.6287 L 34.5432,10.6287 L 34.5432,10.6287 Z " fill="#FFFFFF" stroke-width="1px" stroke="#FFFFFF"/>
        <path d="M 34.5432,10.6287 L 34.5432,11.5143999999999 L 33.6575,11.8095999999999 L 33.6575,10.6287 L 34.5432,10.6287 L 34.5432,10.6287 L 34.5432,10.6287 Z " fill="none" stroke="#FFFFFF" stroke-width="0.44285" stroke-linecap="square" stroke-linejoin="miter"/>
        <path d="M 24.505,35.429 L 24.505,36.6098999999999 L 23.324,36.6098999999999 L 23.324,35.429 L 24.505,35.429 L 24.505,35.429 L 24.505,35.429 Z " fill="#FFFFFF" stroke-width="1px" stroke="#FFFFFF"/>
        <path d="M 24.505,35.429 L 24.505,36.6098999999999 L 23.324,36.6098999999999 L 23.324,35.429 L 24.505,35.429 L 24.505,35.429 L 24.505,35.429 Z " fill="none" stroke="#FFFFFF" stroke-width="0.44285" stroke-linecap="square" stroke-linejoin="miter"/>
        <path d="M 24.505,32.7718 L 24.505,34.2479999999999 L 23.324,34.2479999999999 L 23.324,32.7718 L 24.505,32.7718 L 24.505,32.7718 L 24.505,32.7718 Z " fill="#FFFFFF" stroke-width="1px" stroke="#FFFFFF"/>
        <path d="M 24.505,32.7718 L 24.505,34.2479999999999 L 23.324,34.2479999999999 L 23.324,32.7718 L 24.505,32.7718 L 24.505,32.7718 L 24.505,32.7718 Z " fill="none" stroke="#FFFFFF" stroke-width="0.44285" stroke-linecap="square" stroke-linejoin="miter"/>
        <path d="M 24.505,30.4099 L 24.505,31.5907999999999 L 23.324,31.5907999999999 L 23.324,30.4099 L 24.505,30.4099 L 24.505,30.4099 L 24.505,30.4099 Z " fill="#FFFFFF" stroke-width="1px" stroke="#FFFFFF"/>
        <path d="M 24.505,30.4099 L 24.505,31.5907999999999 L 23.324,31.5907999999999 L 23.324,30.4099 L 24.505,30.4099 L 24.505,30.4099 L 24.505,30.4099 Z " fill="none" stroke="#FFFFFF" stroke-width="0.44285" stroke-linecap="square" stroke-linejoin="miter"/>
        <path d="M 24.505,28.0478999999999 L 24.505,29.2289 L 23.324,29.2289 L 23.324,28.0478999999999 L 24.505,28.0478999999999 L 24.505,28.0478999999999 L 24.505,28.0478999999999 Z " fill="#FFFFFF" stroke-width="1px" stroke="#FFFFFF"/>
        <path d="M 24.505,28.0478999999999 L 24.505,29.2289 L 23.324,29.2289 L 23.324,28.0478999999999 L 24.505,28.0478999999999 L 24.505,28.0478999999999 L 24.505,28.0478999999999 Z " fill="none" stroke="#FFFFFF" stroke-width="0.44285" stroke-linecap="square" stroke-linejoin="miter"/>
        <path d="M 24.505,25.3906999999999 L 24.505,26.5717 L 23.324,26.5717 L 23.324,25.3906999999999 L 24.505,25.3906999999999 L 24.505,25.3906999999999 L 24.505,25.3906999999999 Z " fill="#FFFFFF" stroke-width="1px" stroke="#FFFFFF"/>
        <path d="M 24.505,25.3906999999999 L 24.505,26.5717 L 23.324,26.5717 L 23.324,25.3906999999999 L 24.505,25.3906999999999 L 24.505,25.3906999999999 L 24.505,25.3906999999999 Z " fill="none" stroke="#FFFFFF" stroke-width="0.44285" stroke-linecap="square" stroke-linejoin="miter"/>
        <path d="M 24.505,23.0287999999999 L 24.505,24.2098 L 23.324,24.2098 L 23.324,23.0287999999999 L 24.505,23.0287999999999 L 24.505,23.0287999999999 L 24.505,23.0287999999999 Z " fill="#FFFFFF" stroke-width="1px" stroke="#FFFFFF"/>
        <path d="M 24.505,23.0287999999999 L 24.505,24.2098 L 23.324,24.2098 L 23.324,23.0287999999999 L 24.505,23.0287999999999 L 24.505,23.0287999999999 L 24.505,23.0287999999999 Z " fill="none" stroke="#FFFFFF" stroke-width="0.44285" stroke-linecap="square" stroke-linejoin="miter"/>
        <path d="M 24.505,20.3715999999999 L 24.505,21.8479 L 23.324,21.8479 L 23.324,20.3715999999999 L 24.505,20.3715999999999 L 24.505,20.3715999999999 L 24.505,20.3715999999999 Z " fill="#FFFFFF" stroke-width="1px" stroke="#FFFFFF"/>
        <path d="M 24.505,20.3715999999999 L 24.505,21.8479 L 23.324,21.8479 L 23.324,20.3715999999999 L 24.505,20.3715999999999 L 24.505,20.3715999999999 L 24.505,20.3715999999999 Z " fill="none" stroke="#FFFFFF" stroke-width="0.44285" stroke-linecap="square" stroke-linejoin="miter"/>
        <path d="M 24.505,18.0097 L 24.505,19.1907 L 23.324,19.1907 L 23.324,18.0097 L 24.505,18.0097 L 24.505,18.0097 L 24.505,18.0097 Z " fill="#FFFFFF" stroke-width="1px" stroke="#FFFFFF"/>
        <path d="M 24.505,18.0097 L 24.505,19.1907 L 23.324,19.1907 L 23.324,18.0097 L 24.505,18.0097 L 24.505,18.0097 L 24.505,18.0097 Z " fill="none" stroke="#FFFFFF" stroke-width="0.44285" stroke-linecap="square" stroke-linejoin="miter"/>
        <path d="M 24.505,15.3525 L 24.505,16.5335 L 23.324,16.5335 L 23.324,15.3525 L 24.505,15.3525 L 24.505,15.3525 L 24.505,15.3525 Z " fill="#FFFFFF" stroke-width="1px" stroke="#FFFFFF"/>
        <path d="M 24.505,15.3525 L 24.505,16.5335 L 23.324,16.5335 L 23.324,15.3525 L 24.505,15.3525 L 24.505,15.3525 L 24.505,15.3525 Z " fill="none" stroke="#FFFFFF" stroke-width="0.44285" stroke-linecap="square" stroke-linejoin="miter"/>
        <path d="M 24.505,12.9906 L 24.505,14.1716 L 23.324,14.1716 L 23.324,12.9906 L 24.505,12.9906 L 24.505,12.9906 L 24.505,12.9906 Z " fill="#FFFFFF" stroke-width="1px" stroke="#FFFFFF"/>
        <path d="M 24.505,12.9906 L 24.505,14.1716 L 23.324,14.1716 L 23.324,12.9906 L 24.505,12.9906 L 24.505,12.9906 L 24.505,12.9906 Z " fill="none" stroke="#FFFFFF" stroke-width="0.44285" stroke-linecap="square" stroke-linejoin="miter"/>
        <path d="M 24.505,10.6287 L 24.505,11.8095999999999 L 23.324,11.8095999999999 L 23.324,10.6287 L 24.505,10.6287 L 24.505,10.6287 L 24.505,10.6287 Z " fill="#FFFFFF" stroke-width="1px" stroke="#FFFFFF"/>
        <path d="M 24.505,10.6287 L 24.505,11.8095999999999 L 23.324,11.8095999999999 L 23.324,10.6287 L 24.505,10.6287 L 24.505,10.6287 L 24.505,10.6287 Z " fill="none" stroke="#FFFFFF" stroke-width="0.44285" stroke-linecap="square" stroke-linejoin="miter"/>
        <path d="M 31.886,24.505 L 31.886,28.6383999999999 L 26.2764,28.6383999999999 L 26.2764,24.505 L 31.886,24.505 L 31.886,24.505 L 31.886,24.505 Z " fill="#FFFFFF" stroke-width="1px" stroke="#FFFFFF"/>
        <path d="M 31.886,24.505 L 31.886,28.6383999999999 L 26.2764,28.6383999999999 L 26.2764,24.505 L 31.886,24.505 L 31.886,24.505 L 31.886,24.505 Z " fill="none" stroke="#FFFFFF" stroke-width="0.44285" stroke-linecap="square" stroke-linejoin="miter"/>
        <path d="M 31.886,18.0097 L 31.886,22.1431 L 26.2764,22.1431 L 26.2764,18.0097 L 31.886,18.0097 L 31.886,18.0097 L 31.886,18.0097 Z " fill="#FFFFFF" stroke-width="1px" stroke="#FFFFFF"/>
        <path d="M 31.886,18.0097 L 31.886,22.1431 L 26.2764,22.1431 L 26.2764,18.0097 L 31.886,18.0097 L 31.886,18.0097 L 31.886,18.0097 Z " fill="none" stroke="#FFFFFF" stroke-width="0.44285" stroke-linecap="square" stroke-linejoin="miter"/>
        <path d="M 31.886,11.5143999999999 L 31.886,15.3525 L 26.2764,15.3525 L 26.2764,11.5143999999999 L 31.886,11.5143999999999 L 31.886,11.5143999999999 L 31.886,11.5143999999999 Z " fill="#FFFFFF" stroke-width="1px" stroke="#FFFFFF"/>
        <path d="M 31.886,11.5143999999999 L 31.886,15.3525 L 26.2764,15.3525 L 26.2764,11.5143999999999 L 31.886,11.5143999999999 L 31.886,11.5143999999999 L 31.886,11.5143999999999 Z " fill="none" stroke="#FFFFFF" stroke-width="0.44285" stroke-linecap="square" stroke-linejoin="miter"/>
        <path d="M 8.26670000000001,7.67629999999997 C 4.72380000000004,7.08579999999995 2.95240000000001,8.85719999999992 3.24760000000003,10.3334 C 3.24760000000003,10.3334 3.24760000000003,10.3334 3.24760000000003,10.3334 C 0.590400000000045,10.9239 1.47620000000001,14.1716 2.65710000000001,14.1716 C 2.65710000000001,14.1716 2.65710000000001,14.1716 2.65710000000001,14.1716 C 2.36190000000005,15.6478 5.60950000000003,17.1239999999999 7.38100000000003,16.2383 C 7.38100000000003,16.2383 7.38100000000003,16.2383 7.38100000000003,16.2383 C 8.26670000000001,17.7144999999999 10.3334,17.7144999999999 12.6953,18.0097 C 14.4668,18.0097 15.6478,17.7144999999999 16.5335,16.8286999999999 C 16.5335,17.1239999999999 16.5335,17.1239999999999 16.5335,17.1239999999999 C 19.7811,17.1239999999999 20.9621,15.0572999999999 20.3716,13.5811 C 20.6669,13.5811 20.6669,13.5811 20.6669,13.5811 C 21.5526,13.2858 21.8478,10.9239 19.7811,10.6287 C 20.0764,10.3334 20.0764,10.3334 20.0764,10.3334 C 20.6669,8.85719999999992 18.8954,7.38099999999997 16.2382,7.67629999999997 C 16.2382,7.38099999999997 16.2382,7.38099999999997 16.2382,7.38099999999997 C 14.4668,5.90479999999991 9.1524,6.19999999999993 8.56200000000001,7.67629999999997 Z Z " fill="#FFFFFF" stroke="#000000" stroke-width="0.44285" stroke-linecap="butt" stroke-linejoin="miter"/>
      </g>
      <!--emf-blob end-->
    </g>
  </g>
</svg>

