<svg xmlns="http://www.w3.org/2000/svg" xmlns:xlink="http://www.w3.org/1999/xlink" version="1.1" viewBox="0 0 153 78" >
  <title><![CDATA[IOS SLB]]></title>
  <g transform=" scale(3.000000) ">
    <!--converted by libvisio2svg-->
    <g>
      <!--emf-blob start-->
      <g>
        <path d="M 38.0702,24.7899 L 38.0702,12.3949 L 0,12.3949 L 0,24.7899 L 38.0702,24.7899 Z " fill="#046897" stroke="#FFFFFF" stroke-width="0.88535" stroke-linecap="butt" stroke-linejoin="miter"/>
        <path d="M 0,12.3949 L 15.3462,0 L 50.7603,0 L 38.0702,12.3949 L 0,12.3949 Z " fill="#046897" stroke="#FFFFFF" stroke-width="0.88535" stroke-linecap="butt" stroke-linejoin="miter"/>
        <path d="M 38.0702,25.085 L 50.7603,12.3949 L 50.7603,0 L 38.0702,12.3949 L 38.0702,25.085 Z " fill="#046897" stroke="#FFFFFF" stroke-width="0.88535" stroke-linecap="butt" stroke-linejoin="miter"/>
        <path d="M 22.429,9.14859999999999 L 21.5436,9.7389 L 12.0999,9.7389 L 11.2145,10.6242 L 8.55849999999998,9.7389 L 13.8706,8.26330000000002 L 12.6901,9.14859999999999 L 22.429,9.14859999999999 Z " fill="#FFFFFF" stroke-width="1px" stroke="#FFFFFF"/>
        <path d="M 29.8069,4.42669999999998 L 28.9216,5.017 L 19.4777999999999,5.017 L 18.5925,6.19749999999999 L 15.9364,5.017 L 21.2485,3.54140000000001 L 20.3631999999999,4.42669999999998 L 29.8069,4.42669999999998 Z " fill="#FFFFFF" stroke-width="1px" stroke="#FFFFFF"/>
        <path d="M 23.9046,7.673 L 24.7899,7.08280000000002 L 34.2337,7.08280000000002 L 35.1190999999999,5.90229999999997 L 37.7751,7.08280000000002 L 32.463,8.55840000000001 L 33.3483,7.673 L 23.9046,7.673 Z " fill="#FFFFFF" stroke-width="1px" stroke="#FFFFFF"/>
        <path d="M 28.9216,2.95119999999997 L 29.5118,2.36090000000002 L 38.9555999999999,2.36090000000002 L 40.1361,1.47559999999999 L 42.497,2.36090000000002 L 37.48,3.8365 L 38.3653,2.95119999999997 L 28.9216,2.95119999999997 Z " fill="#FFFFFF" stroke-width="1px" stroke="#FFFFFF"/>
        <path d="M 19.1827,19.1826 L 25.9704,19.1826 L 25.9704,20.3631 L 28.6265,18.5924 L 25.9704,17.1168 L 25.9704,18.2973 L 19.1827,18.2973 L 19.1827,19.1826 Z " fill="#FFFFFF" stroke-width="1px" stroke="#FFFFFF"/>
        <path d="M 18.8876,17.4119 L 25.3801999999999,15.3461 L 25.6753,16.2315 L 27.7411,13.8705 L 24.4948,13.2803 L 25.085,14.1656 L 18.5925,16.5266 L 18.8876,17.4119 Z " fill="#FFFFFF" stroke-width="1px" stroke="#FFFFFF"/>
        <path d="M 18.8876,19.7729 L 25.3801999999999,22.1338 L 25.6753,20.9533 L 27.7411,23.3143 L 24.4948,24.1996 L 25.085,23.0192 L 18.5925,20.9533 L 18.8876,19.7729 Z " fill="#FFFFFF" stroke-width="1px" stroke="#FFFFFF"/>
        <path d="M 8.55849999999998,19.1826 L 15.051,19.1826 L 15.051,20.3631 L 17.7071,18.5924 L 15.051,17.1168 L 15.051,18.2973 L 8.55849999999998,18.2973 L 8.55849999999998,19.1826 Z " fill="#FFFFFF" stroke-width="1px" stroke="#FFFFFF"/>
      </g>
      <!--emf-blob end-->
    </g>
  </g>
</svg>

