<svg xmlns="http://www.w3.org/2000/svg" xmlns:xlink="http://www.w3.org/1999/xlink" version="1.1" viewBox="0 0 69 111" >
  <title><![CDATA[IOS firewall]]></title>
  <g transform=" scale(3.000000) ">
    <!--converted by libvisio2svg-->
    <g>
      <!--emf-blob start-->
      <g>
        <path d="M 19.2003,36.3328 L 19.2003,15.6556 L 0,15.6556 L 0,36.3328 L 19.2003,36.3328 Z " fill="#036C9B" stroke="#FFFFFF" stroke-width="0.88615" stroke-linecap="butt" stroke-linejoin="miter"/>
        <path d="M 19.2003,15.6556 L 19.2003,3.24930000000001 L 0,3.24930000000001 L 0,15.6556 L 19.2003,15.6556 Z " fill="#036C9B" stroke="#FFFFFF" stroke-width="0.88615" stroke-linecap="butt" stroke-linejoin="miter"/>
        <path d="M 0,3.24930000000001 L 3.54469999999998,0.295400000000029 L 22.1542,0.295400000000029 L 19.2003,3.24930000000001 L 0,3.24930000000001 Z " fill="#036C9B" stroke="#FFFFFF" stroke-width="0.88615" stroke-linecap="butt" stroke-linejoin="miter"/>
        <path d="M 19.2003,36.3328 L 22.1542,32.7881 L 22.1542,12.7017 L 19.2003,15.6556 L 19.2003,36.3328 Z " fill="#036C9B" stroke="#FFFFFF" stroke-width="0.88615" stroke-linecap="butt" stroke-linejoin="miter"/>
        <path d="M 19.2003,15.6556 L 22.1542,12.4063 L 22.1542,0.295400000000029 L 19.2003,3.24930000000001 L 19.2003,15.6556 Z " fill="#036C9B" stroke="#FFFFFF" stroke-width="0.88615" stroke-linecap="butt" stroke-linejoin="miter"/>
        <path d="M 0,33.9697 L 18.9049,33.9697 Z " fill="#036C9B" stroke-width="1px" stroke="#036C9B"/>
        <path d="M 0,33.9697 L 18.9049,33.9697 " stroke="#FFFFFF" stroke-width="0.88615" stroke-linecap="butt" stroke-linejoin="miter" fill="none"/>
        <path d="M 0,15.6556 L 18.9049,15.6556 Z " fill="#036C9B" stroke-width="1px" stroke="#036C9B"/>
        <path d="M 0,15.6556 L 18.9049,15.6556 " stroke="#FFFFFF" stroke-width="0.88615" stroke-linecap="butt" stroke-linejoin="miter" fill="none"/>
        <path d="M 7.97549999999995,26.8804 L 7.97549999999995,29.5388 L 7.08939999999996,29.5388 L 9.15709999999996,32.1973 L 11.5202,29.5388 L 10.3386,29.5388 L 10.3386,26.8804 L 7.97549999999995,26.8804 Z " fill="#FFFFFF" stroke-width="1px" stroke="#FFFFFF"/>
        <path d="M 7.97549999999995,24.5172 L 7.97549999999995,21.8588 L 7.08939999999996,21.8588 L 9.15709999999996,19.2003 L 11.5202,21.8588 L 10.3386,21.8588 L 10.3386,24.5172 L 7.97549999999995,24.5172 Z " fill="#FFFFFF" stroke-width="1px" stroke="#FFFFFF"/>
        <path d="M 2.6585,24.8126 L 5.31699999999995,24.8126 L 5.31699999999995,23.6311 L 7.97549999999995,25.6988 L 5.31699999999995,28.0619 L 5.31699999999995,26.8804 L 2.6585,26.8804 L 2.6585,24.8126 Z " fill="#FFFFFF" stroke-width="1px" stroke="#FFFFFF"/>
        <path d="M 15.951,24.8126 L 12.9971,24.8126 L 12.9971,23.6311 L 10.3386,25.6988 L 12.9971,28.0619 L 12.9971,26.8804 L 15.951,26.8804 L 15.951,24.8126 Z " fill="#FFFFFF" stroke-width="1px" stroke="#FFFFFF"/>
        <path d="M 19.2003,7.38470000000001 L 0,7.38470000000001 Z " fill="#036C9B" stroke-width="1px" stroke="#036C9B"/>
        <path d="M 19.2003,7.38470000000001 L 0,7.38470000000001 " stroke="#FFFFFF" stroke-width="0.88615" stroke-linecap="butt" stroke-linejoin="miter" fill="none"/>
        <path d="M 20.9726,1.47700000000003 L 1.7724,1.47700000000003 Z " fill="#036C9B" stroke-width="1px" stroke="#036C9B"/>
        <path d="M 20.9726,1.47700000000003 L 1.7724,1.47700000000003 " stroke="#FFFFFF" stroke-width="0.88615" stroke-linecap="butt" stroke-linejoin="miter" fill="none"/>
        <path d="M 19.2003,11.5202 L 0,11.5202 Z " fill="#036C9B" stroke-width="1px" stroke="#036C9B"/>
        <path d="M 19.2003,11.5202 L 0,11.5202 " stroke="#FFFFFF" stroke-width="0.88615" stroke-linecap="butt" stroke-linejoin="miter" fill="none"/>
        <path d="M 21.8588,4.72620000000001 L 19.4957,7.38470000000001 Z " fill="#036C9B" stroke-width="1px" stroke="#036C9B"/>
        <path d="M 21.8588,4.72620000000001 L 19.4957,7.38470000000001 " stroke="#FFFFFF" stroke-width="0.88615" stroke-linecap="butt" stroke-linejoin="miter" fill="none"/>
        <path d="M 21.8588,9.15710000000001 L 19.4957,11.8156 Z " fill="#036C9B" stroke-width="1px" stroke="#036C9B"/>
        <path d="M 21.8588,9.15710000000001 L 19.4957,11.8156 " stroke="#FFFFFF" stroke-width="0.88615" stroke-linecap="butt" stroke-linejoin="miter" fill="none"/>
        <path d="M 20.6772,1.7724 L 20.6772,13.5879 Z " fill="#036C9B" stroke-width="1px" stroke="#036C9B"/>
        <path d="M 20.6772,1.7724 L 20.6772,13.5879 " stroke="#FFFFFF" stroke-width="0.88615" stroke-linecap="butt" stroke-linejoin="miter" fill="none"/>
        <path d="M 5.61239999999998,3.24930000000001 L 5.61239999999998,7.38470000000001 Z " fill="#036C9B" stroke-width="1px" stroke="#036C9B"/>
        <path d="M 5.61239999999998,3.24930000000001 L 5.61239999999998,7.38470000000001 " stroke="#FFFFFF" stroke-width="0.88615" stroke-linecap="butt" stroke-linejoin="miter" fill="none"/>
        <path d="M 12.9971,3.24930000000001 L 12.9971,7.38470000000001 Z " fill="#036C9B" stroke-width="1px" stroke="#036C9B"/>
        <path d="M 12.9971,3.24930000000001 L 12.9971,7.38470000000001 " stroke="#FFFFFF" stroke-width="0.88615" stroke-linecap="butt" stroke-linejoin="miter" fill="none"/>
        <path d="M 5.61239999999998,11.8156 L 5.61239999999998,15.6556 Z " fill="#036C9B" stroke-width="1px" stroke="#036C9B"/>
        <path d="M 5.61239999999998,11.8156 L 5.61239999999998,15.6556 " stroke="#FFFFFF" stroke-width="0.88615" stroke-linecap="butt" stroke-linejoin="miter" fill="none"/>
        <path d="M 12.9971,11.8156 L 12.9971,15.6556 Z " fill="#036C9B" stroke-width="1px" stroke="#036C9B"/>
        <path d="M 12.9971,11.8156 L 12.9971,15.6556 " stroke="#FFFFFF" stroke-width="0.88615" stroke-linecap="butt" stroke-linejoin="miter" fill="none"/>
        <path d="M 9.45249999999999,7.38470000000001 L 9.45249999999999,11.5202 Z " fill="#036C9B" stroke-width="1px" stroke="#036C9B"/>
        <path d="M 9.45249999999999,7.38470000000001 L 9.45249999999999,11.5202 " stroke="#FFFFFF" stroke-width="0.88615" stroke-linecap="butt" stroke-linejoin="miter" fill="none"/>
        <path d="M 2.06779999999998,7.38470000000001 L 2.06779999999998,11.5202 Z " fill="#036C9B" stroke-width="1px" stroke="#036C9B"/>
        <path d="M 2.06779999999998,7.38470000000001 L 2.06779999999998,11.5202 " stroke="#FFFFFF" stroke-width="0.88615" stroke-linecap="butt" stroke-linejoin="miter" fill="none"/>
        <path d="M 16.8372,7.38470000000001 L 16.8372,11.5202 Z " fill="#036C9B" stroke-width="1px" stroke="#036C9B"/>
        <path d="M 16.8372,7.38470000000001 L 16.8372,11.5202 " stroke="#FFFFFF" stroke-width="0.88615" stroke-linecap="butt" stroke-linejoin="miter" fill="none"/>
        <path d="M 9.45249999999999,0 L 5.61239999999998,3.24930000000001 Z " fill="#036C9B" stroke-width="1px" stroke="#036C9B"/>
        <path d="M 9.45249999999999,0 L 5.61239999999998,3.24930000000001 " stroke="#FFFFFF" stroke-width="0.88615" stroke-linecap="butt" stroke-linejoin="miter" fill="none"/>
        <path d="M 16.8372,0 L 12.9971,3.24930000000001 Z " fill="#036C9B" stroke-width="1px" stroke="#036C9B"/>
        <path d="M 16.8372,0 L 12.9971,3.24930000000001 " stroke="#FFFFFF" stroke-width="0.88615" stroke-linecap="butt" stroke-linejoin="miter" fill="none"/>
        <path d="M 22.1542,12.4063 L 18.9049,15.951 L 0,15.951 " stroke="#FFFFFF" stroke-width="0.88615" stroke-linecap="butt" stroke-linejoin="miter" fill="none"/>
        <path d="M 22.1542,30.7204 L 18.9049,33.9697 Z " fill="#036C9B" stroke-width="1px" stroke="#036C9B"/>
        <path d="M 22.1542,30.7204 L 18.9049,33.9697 " stroke="#FFFFFF" stroke-width="0.88615" stroke-linecap="butt" stroke-linejoin="miter" fill="none"/>
      </g>
      <!--emf-blob end-->
    </g>
  </g>
</svg>

