<svg xmlns="http://www.w3.org/2000/svg" xmlns:xlink="http://www.w3.org/1999/xlink" version="1.1" viewBox="0 0 108 123" >
  <title><![CDATA[IP ]]></title>
  <g transform=" scale(3.000000) ">
    <!--converted by libvisio2svg-->
    <g>
      <!--emf-blob start-->
      <g>
        <path d="M 29.5217,40.4449 L 35.4261,34.8357 L 35.4261,0 L 29.5217,5.60910000000001 L 29.5217,40.4449 Z " fill="#036C9B" stroke="#FFFFFF" stroke-width="0.88565" stroke-linecap="butt" stroke-linejoin="miter"/>
        <path d="M 35.4261,0 L 29.5217,5.60910000000001 L 0,5.60910000000001 L 7.67559999999997,0 L 35.4261,0 Z " fill="#036C9B" stroke="#FFFFFF" stroke-width="0.88565" stroke-linecap="butt" stroke-linejoin="miter"/>
        <path d="M 29.5217,40.4449 L 29.5217,5.60910000000001 L 0,5.60910000000001 L 0,40.4449 L 29.5217,40.4449 Z " fill="#036C9B" stroke="#FFFFFF" stroke-width="0.88565" stroke-linecap="butt" stroke-linejoin="miter"/>
        <path d="M 15.3513,10.6279 L 16.5322,10.6279 L 14.7608,8.26610000000005 L 13.2848,10.6279 L 14.4656,10.6279 L 14.4656,36.0166 L 13.2848,36.0166 L 14.7608,38.3783 L 16.5322,36.0166 L 15.3513,36.0166 L 15.3513,10.6279 Z " fill="#FFFFFF" stroke-width="1px" stroke="#FFFFFF"/>
        <path d="M 7.08519999999999,10.6279 L 8.26609999999999,10.6279 L 6.78999999999996,8.26610000000005 L 5.01869999999997,10.6279 L 6.1995,10.6279 L 6.1995,36.0166 L 5.01869999999997,36.0166 L 6.78999999999996,38.3783 L 8.26609999999999,36.0166 L 7.08519999999999,36.0166 L 7.08519999999999,10.6279 Z " fill="#FFFFFF" stroke-width="1px" stroke="#FFFFFF"/>
        <path d="M 23.3222,10.6279 L 24.2078,10.6279 L 22.7317,8.26610000000005 L 21.2556,10.6279 L 22.1413,10.6279 L 22.1413,36.0166 L 21.2556,36.0166 L 22.7317,38.3783 L 24.2078,36.0166 L 23.3222,36.0166 L 23.3222,10.6279 Z " fill="#FFFFFF" stroke-width="1px" stroke="#FFFFFF"/>
      </g>
      <!--emf-blob end-->
    </g>
  </g>
</svg>

