<svg xmlns="http://www.w3.org/2000/svg" xmlns:xlink="http://www.w3.org/1999/xlink" version="1.1" viewBox="0 0 228 126" >
  <title><![CDATA[IP communicator]]></title>
  <g transform=" scale(3.000000) ">
    <!--converted by libvisio2svg-->
    <g>
      <!--emf-blob start-->
      <g>
        <path d="M 45.1729,21.5531 L 49.3064,0 L 18.0101,0 L 13.2861,21.5531 L 45.1729,21.5531 Z " fill="#036C9B" stroke="#FFFFFF" stroke-width="0.88575" stroke-linecap="butt" stroke-linejoin="miter"/>
        <path d="M 49.3064,0 L 50.7826,1.47629999999998 L 46.9444,22.7341 L 45.1729,21.5531 L 49.3064,0 Z " fill="#036C9B" stroke="#FFFFFF" stroke-width="0.88575" stroke-linecap="butt" stroke-linejoin="miter"/>
        <path d="M 13.2861,21.5531 L 14.7624,22.7341 L 46.9444,22.7341 L 45.1729,21.5531 L 13.2861,21.5531 Z " fill="#036C9B" stroke="#FFFFFF" stroke-width="0.88575" stroke-linecap="butt" stroke-linejoin="miter"/>
        <path d="M 45.4681,23.0294 C 45.4681,26.2771 45.4681,26.2771 45.4681,26.2771 C 44.8776,27.1628 44.8776,27.1628 44.8776,27.1628 C 44.8776,27.1628 42.8109,27.7533 43.1062,28.9343 C 34.544,36.906 34.544,36.906 34.544,36.906 C 34.544,33.3631 34.544,33.3631 34.544,33.3631 Z Z " fill="#036C9B" stroke="#FFFFFF" stroke-width="0.88575" stroke-linecap="butt" stroke-linejoin="miter"/>
        <path d="M 0,33.3631 L 0,36.906 L 34.544,36.906 L 34.544,33.3631 L 0,33.3631 Z " fill="#036C9B" stroke-width="1px" stroke="#036C9B"/>
        <path d="M 0,33.3631 L 0,36.906 L 34.544,36.906 L 34.544,33.3631 L 0,33.3631 " stroke="#FFFFFF" stroke-width="0.88575" stroke-linecap="butt" stroke-linejoin="miter" fill="none"/>
        <path d="M 13.5814,23.3246 L 45.4681,23.0294 L 34.544,33.3631 L 0,33.3631 L 13.5814,23.3246 Z " fill="#036C9B" stroke="#FFFFFF" stroke-width="0.88575" stroke-linecap="butt" stroke-linejoin="miter"/>
        <path d="M 42.5157,19.4864 L 46.0586,2.65729999999996 L 20.3721,2.65729999999996 L 17.1244,19.4864 L 42.5157,19.4864 Z " fill="#036C9B" stroke="#FFFFFF" stroke-width="0.88575" stroke-linecap="butt" stroke-linejoin="miter"/>
        <path d="M 14.4671,23.6199 L 6.49540000000002,30.1153 " stroke="#FFFFFF" stroke-width="0" stroke-linecap="butt" stroke-linejoin="round" fill="none"/>
        <path d="M 17.1244,23.6199 L 8.85739999999998,30.1153 " stroke="#FFFFFF" stroke-width="0" stroke-linecap="butt" stroke-linejoin="round" fill="none"/>
        <path d="M 19.4863,23.6199 L 11.5146,30.1153 " stroke="#FFFFFF" stroke-width="0" stroke-linecap="butt" stroke-linejoin="round" fill="none"/>
        <path d="M 22.1436,23.6199 L 14.1719,30.1153 " stroke="#FFFFFF" stroke-width="0" stroke-linecap="butt" stroke-linejoin="round" fill="none"/>
        <path d="M 24.8008,23.6199 L 16.8291,30.1153 " stroke="#FFFFFF" stroke-width="0" stroke-linecap="butt" stroke-linejoin="round" fill="none"/>
        <path d="M 27.458,23.6199 L 19.1911,30.1153 " stroke="#FFFFFF" stroke-width="0" stroke-linecap="butt" stroke-linejoin="round" fill="none"/>
        <path d="M 29.82,23.6199 L 21.8483,30.1153 " stroke="#FFFFFF" stroke-width="0" stroke-linecap="butt" stroke-linejoin="round" fill="none"/>
        <path d="M 32.4772,23.6199 L 24.5055,30.1153 " stroke="#FFFFFF" stroke-width="0" stroke-linecap="butt" stroke-linejoin="round" fill="none"/>
        <path d="M 35.1345,23.6199 L 27.1628,30.1153 " stroke="#FFFFFF" stroke-width="0" stroke-linecap="butt" stroke-linejoin="round" fill="none"/>
        <path d="M 37.7917,23.6199 L 29.5248,30.1153 " stroke="#FFFFFF" stroke-width="0" stroke-linecap="butt" stroke-linejoin="round" fill="none"/>
        <path d="M 40.1537,23.6199 L 32.182,30.1153 " stroke="#FFFFFF" stroke-width="0" stroke-linecap="butt" stroke-linejoin="round" fill="none"/>
        <path d="M 42.8109,23.6199 L 34.8392,30.1153 " stroke="#FFFFFF" stroke-width="0" stroke-linecap="butt" stroke-linejoin="round" fill="none"/>
        <path d="M 7.38119999999998,29.5248 L 36.0202,29.5248 " stroke="#FFFFFF" stroke-width="0" stroke-linecap="butt" stroke-linejoin="round" fill="none"/>
        <path d="M 9.15269999999998,28.0486 L 37.4965,28.0486 " stroke="#FFFFFF" stroke-width="0" stroke-linecap="butt" stroke-linejoin="round" fill="none"/>
        <path d="M 11.2194,26.5724 L 39.2679,26.5724 " stroke="#FFFFFF" stroke-width="0" stroke-linecap="butt" stroke-linejoin="round" fill="none"/>
        <path d="M 12.9909,25.0961 L 41.3347,25.0961 " stroke="#FFFFFF" stroke-width="0" stroke-linecap="butt" stroke-linejoin="round" fill="none"/>
        <path d="M 30.4105,7.9717 C 35.1345,7.9717 35.1345,7.9717 35.1345,7.9717 C 36.3155,8.56219999999996 36.0202,9.44799999999998 36.0202,9.44799999999998 C 36.0202,10.3337 35.4297,10.3337 35.4297,10.3337 C 26.8675,10.3337 26.8675,10.3337 26.8675,10.3337 C 25.3913,10.3337 25.9818,9.15269999999998 25.9818,9.15269999999998 C 29.5248,5.01929999999999 29.5248,5.01929999999999 29.5248,5.01929999999999 C 30.1153,4.42879999999997 31.2962,5.01929999999999 31.2962,5.01929999999999 C 32.182,5.60980000000001 31.8867,6.49549999999999 31.8867,6.49549999999999 Z Z " fill="#FFFFFF" stroke="none"/>
        <path d="M 33.6582,14.4672 C 29.2295,14.4672 29.2295,14.4672 29.2295,14.4672 C 28.0485,14.1719 28.0485,13.2862 28.0485,13.2862 C 28.0485,12.4005 28.9343,12.1052 28.9343,12.1052 C 37.2012,12.1052 37.2012,12.1052 37.2012,12.1052 C 38.9727,12.4005 38.3822,13.5814 38.3822,13.5814 C 34.8392,17.7149 34.8392,17.7149 34.8392,17.7149 C 34.2487,18.3054 32.7725,17.7149 32.7725,17.7149 C 32.182,16.8292 32.4772,16.2387 32.4772,16.2387 Z Z " fill="#FFFFFF" stroke="none"/>
        <path d="M 43.4014,36.3155 C 43.4014,36.906 42.8109,37.4965 42.2204,37.4965 C 41.3347,37.4965 40.7442,36.906 40.7442,36.3155 C 40.7442,35.4298 41.3347,34.8393 42.2204,34.8393 C 42.8109,34.8393 43.4014,35.4298 43.4014,36.3155 Z Z " fill="#000000" stroke="none"/>
        <path d="M 66.4307,38.3823 C 62.5925,39.8585 55.2113,40.1538 49.0111,39.268 C 45.1729,38.3823 42.8109,37.4965 42.2204,36.3155 Z " stroke="#000000" stroke-width="0.88575" stroke-linecap="butt" stroke-linejoin="round" fill="none"/>
        <path d="M 51.0779,31.8868 C 51.9636,29.5248 53.4398,27.4581 55.8018,25.6866 C 61.4115,20.9626 68.7927,20.0769 72.3357,23.3246 C 75.8787,26.5724 74.1072,32.7726 68.7927,37.4965 C 68.2022,37.7918 67.6117,38.3823 67.0212,38.6775 Z " stroke="#000000" stroke-width="0.88575" stroke-linecap="butt" stroke-linejoin="round" fill="none"/>
        <path d="M 69.3832,38.6775 C 69.3832,39.8585 68.2022,41.0395 67.0212,41.0395 C 65.8402,41.0395 64.6593,39.8585 64.6593,38.6775 C 64.6593,37.4965 65.8402,36.3155 67.0212,36.3155 C 68.2022,36.3155 69.3832,37.4965 69.3832,38.6775 Z Z " fill="#000000" stroke="#FFFFFF" stroke-width="0.88575" stroke-linecap="butt" stroke-linejoin="miter"/>
        <path d="M 52.2588,31.8868 C 52.2588,32.4773 51.6683,33.0678 51.0779,33.0678 C 50.1921,33.0678 49.6016,32.4773 49.6016,31.8868 C 49.6016,31.0011 50.1921,30.4106 51.0779,30.4106 C 51.6683,30.4106 52.2588,31.0011 52.2588,31.8868 Z Z " fill="#000000" stroke="none"/>
      </g>
      <!--emf-blob end-->
    </g>
  </g>
</svg>

