<svg xmlns="http://www.w3.org/2000/svg" xmlns:xlink="http://www.w3.org/1999/xlink" version="1.1" viewBox="0 0 117 108" >
  <title><![CDATA[IP DSL]]></title>
  <g transform=" scale(3.000000) ">
    <!--converted by libvisio2svg-->
    <g>
      <!--emf-blob start-->
      <g>
        <path d="M 38.9764,6.79129999999998 L 38.9764,18.8976 L 28.3465,28.6417 L 28.3465,16.8307 L 38.9764,6.79129999999998 Z " fill="#036C9B" stroke="#FFFFFF" stroke-width="0.88585" stroke-linecap="butt" stroke-linejoin="miter"/>
        <path d="M 9.7441,9.7441 L 0,9.7441 L 10.9252,0 L 20.374,0 L 33.6614,6.79129999999998 L 38.9764,6.79129999999998 L 28.3465,16.8307 L 23.0315,16.8307 Z " fill="#036C9B" stroke-width="1px" stroke="#036C9B"/>
        <path d="M 9.7441,9.7441 L 0,9.7441 L 10.9252,0 L 20.374,0 L 33.6614,6.79129999999998 L 38.9764,6.79129999999998 L 28.3465,16.8307 L 23.0315,16.8307 " stroke="#FFFFFF" stroke-width="0.88585" stroke-linecap="butt" stroke-linejoin="miter" fill="none"/>
        <path d="M 9.7441,9.7441 L 23.0315,16.8307 L 23.0315,16.8307 L 28.3465,16.8307 L 28.3465,28.6417 L 23.0315,28.6417 L 23.0315,28.6417 L 9.7441,35.4331 L 9.7441,35.4331 L 0,35.4331 L 0,9.7441 L 9.7441,9.7441 L 9.7441,9.7441 Z " fill="#036C9B" stroke="#FFFFFF" stroke-width="0.88585" stroke-linecap="butt" stroke-linejoin="miter"/>
        <path d="M 20.9646,6.79129999999998 L 15.9449,4.42910000000001 Z " fill="#FFFFFF" stroke-width="1px" stroke="#FFFFFF"/>
        <path d="M 20.9646,6.79129999999998 L 15.9449,4.42910000000001 " stroke="#FFFFFF" stroke-width="0.88585" stroke-linecap="round" stroke-linejoin="round" fill="none"/>
        <path d="M 23.0315,10.9252 L 26.5748,7.97239999999999 L 22.441,8.26769999999999 L 23.0315,10.9252 Z " fill="#FFFFFF" stroke-width="1px" stroke="#FFFFFF"/>
        <path d="M 17.126,7.38189999999997 L 20.6693,4.42910000000001 L 21.2599,7.38189999999997 L 17.126,7.38189999999997 Z " fill="#FFFFFF" stroke-width="1px" stroke="#FFFFFF"/>
        <path d="M 27.7559,10.6299 L 23.3268,8.56299999999999 Z " fill="#FFFFFF" stroke-width="1px" stroke="#FFFFFF"/>
        <path d="M 27.7559,10.6299 L 23.3268,8.56299999999999 " stroke="#FFFFFF" stroke-width="0.88585" stroke-linecap="round" stroke-linejoin="round" fill="none"/>
        <path d="M 22.441,7.38189999999997 L 25.0984,5.31489999999997 Z " fill="#FFFFFF" stroke-width="1px" stroke="#FFFFFF"/>
        <path d="M 22.441,7.38189999999997 L 25.0984,5.31489999999997 " stroke="#FFFFFF" stroke-width="0.88585" stroke-linecap="round" stroke-linejoin="round" fill="none"/>
        <path d="M 17.7165,8.56299999999999 L 21.5551,10.6299 L 17.4213,11.2205 L 17.7165,8.56299999999999 Z " fill="#FFFFFF" stroke-width="1px" stroke="#FFFFFF"/>
        <path d="M 22.7362,4.42910000000001 L 26.5748,6.49599999999998 L 26.2795,4.13379999999995 L 22.7362,4.42910000000001 Z " fill="#FFFFFF" stroke-width="1px" stroke="#FFFFFF"/>
        <path d="M 18.6024,10.3346 L 21.2599,8.26769999999999 Z " fill="#FFFFFF" stroke-width="1px" stroke="#FFFFFF"/>
        <path d="M 18.6024,10.3346 L 21.2599,8.26769999999999 " stroke="#FFFFFF" stroke-width="0.88585" stroke-linecap="round" stroke-linejoin="round" fill="none"/>
        <path d="M 17.4213,27.4606 L 13.5827,27.4606 L 8.26769999999999,16.8307 L 4.7244,16.8307 " stroke="#FFFFFF" stroke-width="2.6575" stroke-linecap="butt" stroke-linejoin="miter" fill="none"/>
        <path d="M 4.42910000000001,27.4606 L 8.26769999999999,27.4606 L 13.2874,16.8307 L 17.4213,16.8307 " stroke="#FFFFFF" stroke-width="2.6575" stroke-linecap="butt" stroke-linejoin="miter" fill="none"/>
        <path d="M 16.2402,15.059 L 16.2402,18.6024 L 18.3071,16.8307 L 16.2402,15.059 Z " fill="#FFFFFF" stroke="#FFFFFF" stroke-width="0.4429" stroke-linecap="butt" stroke-linejoin="miter"/>
        <path d="M 16.2402,25.689 L 16.2402,29.2323 L 18.3071,27.4606 L 16.2402,25.689 Z " fill="#FFFFFF" stroke="#FFFFFF" stroke-width="0.4429" stroke-linecap="butt" stroke-linejoin="miter"/>
        <path d="M 5.0197,18.8976 L 5.0197,15.059 L 2.95279999999997,16.8307 L 5.0197,18.8976 Z " fill="#FFFFFF" stroke="#FFFFFF" stroke-width="0.4429" stroke-linecap="butt" stroke-linejoin="miter"/>
        <path d="M 5.0197,29.5275999999999 L 5.0197,25.689 L 2.95279999999997,27.4606 L 5.0197,29.5275999999999 Z " fill="#FFFFFF" stroke="#FFFFFF" stroke-width="0.4429" stroke-linecap="butt" stroke-linejoin="miter"/>
      </g>
      <!--emf-blob end-->
    </g>
  </g>
</svg>

