<svg xmlns="http://www.w3.org/2000/svg" xmlns:xlink="http://www.w3.org/1999/xlink" version="1.1" viewBox="0 0 153 87" >
  <title><![CDATA[IP phone]]></title>
  <g transform=" scale(3.000000) ">
    <!--converted by libvisio2svg-->
    <g>
      <!--emf-blob start-->
      <g>
        <path d="M 23.9174,2.06689999999998 C 12.6969,2.06689999999998 12.6969,2.06689999999998 12.6969,2.06689999999998 C 0,20.374 0,20.374 0,20.374 C 11.2205,20.374 11.2205,20.374 11.2205,20.374 C 24.8032,22.441 28.0512,21.2599 41.0434,20.374 C 50.1969,5.315 50.1969,5.315 50.1969,5.315 C 46.9489,5.315 46.9489,5.315 46.9489,5.315 C 49.3111,2.06689999999998 49.3111,2.06689999999998 49.3111,2.06689999999998 C 26.8701,2.06689999999998 26.8701,2.06689999999998 26.8701,2.06689999999998 C 24.2127,5.315 24.2127,5.315 24.2127,5.315 C 21.5552,5.315 21.5552,5.315 21.5552,5.315 Z Z " fill="#036C9B" stroke="#FFFFFF" stroke-width="0.88585" stroke-linecap="butt" stroke-linejoin="miter"/>
        <path d="M 23.9174,19.1929 L 15.9449,19.1929 L 20.3741,13.5827 L 28.0512,13.5827 L 23.9174,19.1929 Z " fill="#036C9B" stroke="#FFFFFF" stroke-width="0.88585" stroke-linecap="butt" stroke-linejoin="miter"/>
        <path d="M 50.1969,5.315 L 50.1969,16.2402 L 41.0434,26.2796 L 41.0434,20.374 L 50.1969,5.315 Z " fill="#036C9B" stroke="#FFFFFF" stroke-width="0.88585" stroke-linecap="butt" stroke-linejoin="miter"/>
        <path d="M 41.0434,20.374 L 50.1969,5.315 Z " fill="#000000" stroke-width="1px" stroke="#000000"/>
        <path d="M 41.0434,20.374 L 50.1969,5.315 " stroke="#FFFFFF" stroke-width="0.88585" stroke-linecap="butt" stroke-linejoin="miter" fill="none"/>
        <path d="M 18.0119,6.20079999999996 C 16.5355,7.97239999999999 14.7638,10.0394 13.5827,12.1063 C 13.5827,13.2874 13.5827,13.2874 13.5827,13.2874 C 9.7441,19.1929 9.7441,19.1929 9.7441,19.1929 C 9.44880000000001,15.3543 9.44880000000001,15.3543 9.44880000000001,15.3543 C 10.0394,12.4016 18.8977,1.18109999999996 20.9646,0 C 21.5552,3.83859999999999 21.5552,3.83859999999999 21.5552,3.83859999999999 C 18.0119,7.38189999999997 18.0119,7.38189999999997 18.0119,7.38189999999997 Z Z " fill="#036C9B" stroke="#FFFFFF" stroke-width="0.88585" stroke-linecap="butt" stroke-linejoin="miter"/>
        <path d="M 2.36220000000003,15.3543 L 2.06690000000003,19.1929 L 9.7441,19.1929 L 9.44880000000001,15.3543 L 2.36220000000003,15.3543 Z " fill="#036C9B" stroke="#FFFFFF" stroke-width="0.88585" stroke-linecap="butt" stroke-linejoin="miter"/>
        <path d="M 20.9646,0 C 18.8977,1.18109999999996 10.0394,12.4016 9.44880000000001,15.3543 C 2.36220000000003,15.3543 2.36220000000003,15.3543 2.36220000000003,15.3543 C 2.95280000000002,12.4016 11.8111,1.18109999999996 13.878,0 Z Z " fill="#036C9B" stroke="#FFFFFF" stroke-width="0.88585" stroke-linecap="butt" stroke-linejoin="miter"/>
        <path d="M 23.3268,9.7441 L 28.0512,3.54329999999999 L 46.0631,3.54329999999999 L 41.9292,9.7441 L 23.3268,9.7441 Z " fill="#FFFFFF" stroke="#FFFFFF" stroke-width="0.4429" stroke-linecap="butt" stroke-linejoin="miter"/>
        <path d="M 25.3938,8.56299999999999 L 28.3465,4.42910000000001 L 40.4528,4.42910000000001 L 37.7953,8.56299999999999 L 25.3938,8.56299999999999 Z " fill="#036C9B" stroke="#FFFFFF" stroke-width="0.88585" stroke-linecap="butt" stroke-linejoin="miter"/>
        <path d="M 25.3938,13.5827 L 21.2599,19.1929 Z " fill="#036C9B" stroke-width="1px" stroke="#036C9B"/>
        <path d="M 25.3938,13.5827 L 21.2599,19.1929 " stroke="#FFFFFF" stroke-width="0.88585" stroke-linecap="butt" stroke-linejoin="miter" fill="none"/>
        <path d="M 22.7363,13.5827 L 18.6024,19.1929 Z " fill="#036C9B" stroke-width="1px" stroke="#036C9B"/>
        <path d="M 22.7363,13.5827 L 18.6024,19.1929 " stroke="#FFFFFF" stroke-width="0.88585" stroke-linecap="butt" stroke-linejoin="miter" fill="none"/>
        <path d="M 19.4882,14.7638 L 27.1654,14.7638 Z " fill="#036C9B" stroke-width="1px" stroke="#036C9B"/>
        <path d="M 19.4882,14.7638 L 27.1654,14.7638 " stroke="#FFFFFF" stroke-width="0.88585" stroke-linecap="butt" stroke-linejoin="miter" fill="none"/>
        <path d="M 18.3071,16.2402 L 25.9843,16.2402 Z " fill="#036C9B" stroke-width="1px" stroke="#036C9B"/>
        <path d="M 18.3071,16.2402 L 25.9843,16.2402 " stroke="#FFFFFF" stroke-width="0.88585" stroke-linecap="butt" stroke-linejoin="miter" fill="none"/>
        <path d="M 16.8308,18.0118 L 24.8032,18.0118 Z " fill="#036C9B" stroke-width="1px" stroke="#036C9B"/>
        <path d="M 16.8308,18.0118 L 24.8032,18.0118 " stroke="#FFFFFF" stroke-width="0.88585" stroke-linecap="butt" stroke-linejoin="miter" fill="none"/>
        <path d="M 41.0434,26.2796 C 28.0512,27.1654 24.8032,28.0512 11.2205,26.2796 C 0,26.2796 0,26.2796 0,26.2796 C 0,20.374 0,20.374 0,20.374 C 11.2205,20.374 11.2205,20.374 11.2205,20.374 C 24.8032,22.441 28.0512,21.2599 41.0434,20.374 Z Z " fill="#036C9B" stroke="#FFFFFF" stroke-width="0.88585" stroke-linecap="butt" stroke-linejoin="miter"/>
        <path d="M 23.9174,2.06689999999998 L 23.9174,5.315 L 21.5552,5.315 L 23.9174,2.06689999999998 Z " fill="#036C9B" stroke="#FFFFFF" stroke-width="0.88585" stroke-linecap="butt" stroke-linejoin="miter"/>
        <path d="M 49.3111,2.06689999999998 L 49.3111,5.315 L 46.9489,5.315 L 49.3111,2.06689999999998 Z " fill="#000000" stroke="#FFFFFF" stroke-width="0.88585" stroke-linecap="butt" stroke-linejoin="miter"/>
        <g transform=" scale(3.000000) ">
          <text font-family="Helvetica" fill="#FFFFFF" style="white-space:pre;" font-weight="700" text-anchor="start" x="0.0000" y="0.0000" font-size="10.6299"><![CDATA[IP]]></text>
        </g>
        <g transform=" scale(3.000000) ">
</g>
      </g>
      <!--emf-blob end-->
    </g>
  </g>
</svg>

