<svg xmlns="http://www.w3.org/2000/svg" xmlns:xlink="http://www.w3.org/1999/xlink" version="1.1" viewBox="0 0 171 96" >
  <title><![CDATA[IPTC]]></title>
  <g transform=" scale(3.000000) ">
    <!--converted by libvisio2svg-->
    <g>
      <!--emf-blob start-->
      <g>
        <path d="M 0,13.8779 L 17.126,0 L 56.3977,0 L 42.5198,13.8779 L 0,13.8779 Z " fill="#036C9B" stroke="#FFFFFF" stroke-width="0.88585" stroke-linecap="butt" stroke-linejoin="miter"/>
        <path d="M 42.5198,31.2992 L 56.3977,17.126 L 56.3977,0 L 42.5198,13.8779 L 42.5198,31.2992 Z " fill="#036C9B" stroke="#FFFFFF" stroke-width="0.88585" stroke-linecap="butt" stroke-linejoin="miter"/>
        <path d="M 42.5198,31.2992 L 42.5198,13.8779 L 0.295299999999997,13.8779 L 0.295299999999997,31.2992 L 42.5198,31.2992 Z " fill="#036C9B" stroke="#FFFFFF" stroke-width="0.88585" stroke-linecap="butt" stroke-linejoin="miter"/>
        <path d="M 13.878,20.374 L 13.878,17.126 L 7.38190000000003,17.126 L 7.38190000000003,20.374 L 13.878,20.374 Z " fill="#FFFFFF" stroke-width="1px" stroke="#FFFFFF"/>
        <path d="M 28.3465,20.374 L 28.3465,17.126 L 34.8426,17.126 L 34.8426,20.374 L 28.3465,20.374 Z " fill="#FFFFFF" stroke-width="1px" stroke="#FFFFFF"/>
        <path d="M 13.878,28.6417 L 13.878,25.3937 L 7.38190000000003,25.3937 L 7.38190000000003,28.6417 L 13.878,28.6417 Z " fill="#FFFFFF" stroke-width="1px" stroke="#FFFFFF"/>
        <path d="M 28.3465,28.6417 L 28.3465,25.3937 L 34.8426,25.3937 L 34.8426,28.6417 L 28.3465,28.6417 Z " fill="#FFFFFF" stroke-width="1px" stroke="#FFFFFF"/>
        <path d="M 11.8111,18.6024 L 31.2993,18.6024 " stroke="#FFFFFF" stroke-width="0.88585" stroke-linecap="butt" stroke-linejoin="miter" fill="none"/>
        <path d="M 11.8111,26.8701 L 31.2993,26.8701 " stroke="#FFFFFF" stroke-width="0.88585" stroke-linecap="butt" stroke-linejoin="miter" fill="none"/>
        <path d="M 10.63,27.1654 L 31.2993,18.6024 " stroke="#FFFFFF" stroke-width="0.88585" stroke-linecap="butt" stroke-linejoin="miter" fill="none"/>
        <path d="M 10.63,18.6024 L 31.2993,27.1654 " stroke="#FFFFFF" stroke-width="0.88585" stroke-linecap="butt" stroke-linejoin="miter" fill="none"/>
        <path d="M 24.2127,2.65750000000003 L 33.0709,1.77159999999998 L 31.2993,4.7244 L 29.2323,4.13380000000001 L 15.9449,9.15350000000001 L 13.5827,8.56299999999999 L 26.5749,3.54329999999999 L 24.2127,2.65750000000003 Z " fill="#FFFFFF" stroke-width="1px" stroke="#FFFFFF"/>
        <path d="M 34.5473,5.90550000000002 L 43.1103,5.0197 L 41.6339,7.6771 L 39.2717,7.38189999999997 L 26.2796,12.4016 L 23.9174,11.811 L 36.6142,6.79129999999998 L 34.5473,5.90550000000002 Z " fill="#FFFFFF" stroke-width="1px" stroke="#FFFFFF"/>
      </g>
      <!--emf-blob end-->
    </g>
  </g>
</svg>

