<svg xmlns="http://www.w3.org/2000/svg" xmlns:xlink="http://www.w3.org/1999/xlink" version="1.1" viewBox="0 0 132 87" >
  <title><![CDATA[IPTV content manager]]></title>
  <g transform=" scale(3.000000) ">
    <!--converted by libvisio2svg-->
    <g>
      <!--emf-blob start-->
      <g>
        <path d="M 0,28.3395 L 0,8.26569999999998 L 36.0148,8.26569999999998 L 36.0148,28.3395 L 0,28.3395 Z " fill="#036C9B" stroke="#FFFFFF" stroke-width="0.8856" stroke-linecap="butt" stroke-linejoin="miter"/>
        <path d="M 36.0148,28.3395 L 36.0148,8.26569999999998 L 43.3949,0 L 43.3949,20.369 L 36.0148,28.3395 Z " fill="#036C9B" stroke="#FFFFFF" stroke-width="0.8856" stroke-linecap="butt" stroke-linejoin="miter"/>
        <path d="M 36.0148,8.26569999999998 L 0,8.26569999999998 L 8.85609999999997,0.295199999999966 L 43.3949,0.295199999999966 L 36.0148,8.26569999999998 Z " fill="#036C9B" stroke="#FFFFFF" stroke-width="0.8856" stroke-linecap="butt" stroke-linejoin="miter"/>
        <path d="M 7.67529999999999,15.6458 L 1.18079999999998,15.6458 L 1.18079999999998,14.465 L 7.67529999999999,14.465 L 7.67529999999999,12.6937 L 11.2177,15.0554 L 7.67529999999999,17.417 L 7.67529999999999,15.6458 Z " fill="#FFFFFF" stroke-width="1px" stroke="#FFFFFF"/>
        <path d="M 30.7012,23.0259 L 24.2067,23.0259 L 24.2067,21.5499 L 30.7012,21.5499 L 30.7012,19.7786 L 34.5388,22.1403 L 30.7012,24.7971 L 30.7012,23.0259 Z " fill="#FFFFFF" stroke-width="1px" stroke="#FFFFFF"/>
        <path d="M 17.417,19.1882 L 12.1033,19.1882 L 12.1033,10.3321 L 17.417,10.3321 L 17.417,19.1882 Z " fill="#FFFFFF" stroke="#000000" stroke-width="0.8856" stroke-linecap="butt" stroke-linejoin="miter"/>
        <path d="M 20.6642,22.7307 L 15.0554,22.7307 L 15.0554,13.8745 L 20.6642,13.8745 L 20.6642,22.7307 Z " fill="#FFFFFF" stroke="#000000" stroke-width="0.8856" stroke-linecap="butt" stroke-linejoin="miter"/>
        <path d="M 23.6163,26.5683 L 18.3026,26.5683 L 18.3026,17.7122 L 23.6163,17.7122 L 23.6163,26.5683 Z " fill="#FFFFFF" stroke="#000000" stroke-width="0.8856" stroke-linecap="butt" stroke-linejoin="miter"/>
      </g>
      <!--emf-blob end-->
    </g>
  </g>
</svg>

