<svg xmlns="http://www.w3.org/2000/svg" xmlns:xlink="http://www.w3.org/1999/xlink" version="1.1" viewBox="0 0 132 87" >
  <title><![CDATA[IPTV server]]></title>
  <g transform=" scale(3.000000) ">
    <!--converted by libvisio2svg-->
    <g>
      <!--emf-blob start-->
      <g>
        <path d="M 0,28.3396 L 0,7.97050000000002 L 35.7197,7.97050000000002 L 35.7197,28.3396 L 0,28.3396 Z " fill="#036C9B" stroke="#FFFFFF" stroke-width="0.4428" stroke-linecap="butt" stroke-linejoin="miter"/>
        <path d="M 35.7197,28.3396 L 35.7197,7.97050000000002 L 43.0998,0 L 43.0998,20.0739 L 35.7197,28.3396 Z " fill="#036C9B" stroke="#FFFFFF" stroke-width="0.4428" stroke-linecap="butt" stroke-linejoin="miter"/>
        <path d="M 35.7197,7.97050000000002 L 0,7.97050000000002 L 8.85609999999997,0 L 43.0998,0 L 35.7197,7.97050000000002 Z " fill="#036C9B" stroke="#FFFFFF" stroke-width="0.4428" stroke-linecap="butt" stroke-linejoin="miter"/>
        <path d="M 7.38009999999997,15.6458 L 0.885600000000011,15.6458 L 0.885600000000011,14.1698 L 7.38009999999997,14.1698 L 7.38009999999997,12.3986 L 11.2177,14.7602 L 7.38009999999997,17.417 L 7.38009999999997,15.6458 Z " fill="#FFFFFF" stroke-width="1px" stroke="#FFFFFF"/>
        <path d="M 30.7012,12.3986 L 25.3875,12.3986 L 25.3875,11.2177 L 30.7012,11.2177 L 30.7012,9.74170000000004 L 33.9484,11.8081 L 30.7012,13.8746 L 30.7012,12.3986 Z " fill="#FFFFFF" stroke-width="1px" stroke="#FFFFFF"/>
        <path d="M 30.7012,18.5978 L 25.3875,18.5978 L 25.3875,17.7122 L 30.7012,17.7122 L 30.7012,15.941 L 33.9484,18.3026 L 30.7012,20.3691 L 30.7012,18.5978 Z " fill="#FFFFFF" stroke-width="1px" stroke="#FFFFFF"/>
        <path d="M 30.7012,25.0923 L 25.3875,25.0923 L 25.3875,23.9115 L 30.7012,23.9115 L 30.7012,22.4355 L 33.9484,24.5019 L 30.7012,26.5683 L 30.7012,25.0923 Z " fill="#FFFFFF" stroke-width="1px" stroke="#FFFFFF"/>
        <path d="M 21.2547,11.5129 L 21.2547,19.1882 L 12.1033,19.1882 L 12.1033,11.5129 L 21.2547,11.5129 Z " fill="#FFFFFF" stroke-width="1px" stroke="#FFFFFF"/>
        <path d="M 23.6163,12.6938 L 23.6163,15.941 L 21.8451,15.941 L 21.8451,12.6938 L 23.6163,12.6938 Z " fill="#FFFFFF" stroke="#000000" stroke-width="0.4428" stroke-linecap="butt" stroke-linejoin="miter"/>
        <path d="M 13.2842,24.2067 L 16.5314,15.3506 L 20.0739,24.2067 " stroke="#FFFFFF" stroke-width="1.7712" stroke-linecap="round" stroke-linejoin="miter" fill="none"/>
        <path d="M 19.1882,14.465 L 21.8451,14.465 " stroke="#FFFFFF" stroke-width="2.65685" stroke-linecap="round" stroke-linejoin="miter" fill="none"/>
      </g>
      <!--emf-blob end-->
    </g>
  </g>
</svg>

