<svg xmlns="http://www.w3.org/2000/svg" xmlns:xlink="http://www.w3.org/1999/xlink" version="1.1" viewBox="0 0 171 129" >
  <title><![CDATA[ISCSI router]]></title>
  <g transform=" scale(3.000000) ">
    <!--converted by libvisio2svg-->
    <g>
      <!--emf-blob start-->
      <g>
        <path d="M 42.5354,27.4707 L 42.5354,13.5877 L 0.295399999999972,13.5877 L 0.295399999999972,27.4707 L 42.5354,27.4707 Z " fill="#036C9B" stroke="#FFFFFF" stroke-width="0.88615" stroke-linecap="butt" stroke-linejoin="miter"/>
        <path d="M 0,13.5877 L 17.1323,0 L 56.4184,0 L 42.5354,13.5877 L 0,13.5877 Z " fill="#036C9B" stroke="#FFFFFF" stroke-width="0.88615" stroke-linecap="butt" stroke-linejoin="miter"/>
        <path d="M 42.5354,27.7661 L 56.4184,13.2923 L 56.4184,0 L 42.5354,13.5877 L 42.5354,27.7661 Z " fill="#036C9B" stroke="#FFFFFF" stroke-width="0.88615" stroke-linecap="butt" stroke-linejoin="miter"/>
        <path d="M 42.5354,41.9446 L 42.5354,27.1754 L 0.295399999999972,27.1754 L 0.295399999999972,41.9446 L 42.5354,41.9446 Z " fill="#76ACC8" stroke="#FFFFFF" stroke-width="0.88615" stroke-linecap="butt" stroke-linejoin="miter"/>
        <path d="M 42.5354,42.24 L 56.4184,27.7661 L 56.4184,13.2923 L 42.5354,27.1754 L 42.5354,42.24 Z " fill="#76ACC8" stroke="#FFFFFF" stroke-width="0.88615" stroke-linecap="butt" stroke-linejoin="miter"/>
        <path d="M 30.4246,5.90769999999998 L 33.083,6.4984 L 40.1723,4.4307 L 42.8307,5.0215 L 41.6492,3.24919999999997 L 33.083,3.24919999999997 L 36.923,3.83999999999997 L 30.4246,5.90769999999998 L 30.4246,5.90769999999998 Z " fill="#FFFFFF" stroke-width="1px" stroke="#FFFFFF"/>
        <path d="M 15.6554,3.83999999999997 L 18.0184,3.24919999999997 L 25.403,5.0215 L 27.7661,4.4307 L 26.5846,6.4984 L 18.0184,6.4984 L 22.1538,5.90769999999998 L 15.6554,3.83999999999997 L 15.6554,3.83999999999997 Z " fill="#FFFFFF" stroke-width="1px" stroke="#FFFFFF"/>
        <path d="M 42.24,10.3384 L 39.5815,10.9292 L 33.083,9.15690000000001 L 29.8338,9.74770000000001 L 31.0154,7.68000000000001 L 39.5815,7.68000000000001 L 36.3323,8.27069999999998 L 42.24,10.3384 L 42.24,10.3384 Z " fill="#FFFFFF" stroke-width="1px" stroke="#FFFFFF"/>
        <path d="M 27.1754,8.27069999999998 L 24.5169,7.68000000000001 L 18.0184,9.74770000000001 L 14.7692,9.15690000000001 L 16.2461,10.9292 L 24.5169,11.2246 L 20.6769,10.3384 L 27.1754,8.27069999999998 L 27.1754,8.27069999999998 Z " fill="#FFFFFF" stroke-width="1px" stroke="#FFFFFF"/>
        <path d="M 21.563,25.4031 C 24.2215,25.4031 26.5846,24.8123 26.5846,23.9261 C 26.5846,23.04 24.2215,22.4492 21.563,22.4492 C 18.6092,22.4492 16.2461,23.04 16.2461,23.9261 C 16.2461,24.8123 18.6092,25.4031 21.563,25.4031 Z Z " fill="#FFFFFF" stroke="#000000" stroke-width="0.4431" stroke-linecap="round" stroke-linejoin="round"/>
        <path d="M 26.5846,16.5415 C 26.5846,17.4277 24.2215,18.3138 21.563,18.3138 C 18.6092,18.3138 16.2461,17.4277 16.2461,16.5415 C 16.2461,23.04 16.2461,23.04 16.2461,23.04 C 16.2461,23.9261 18.6092,24.8123 21.563,24.8123 C 24.2215,24.8123 26.5846,23.9261 26.5846,23.04 Z Z " fill="#FFFFFF" stroke="#000000" stroke-width="0.4431" stroke-linecap="round" stroke-linejoin="round"/>
        <path d="M 21.563,18.3138 C 24.2215,18.3138 26.5846,17.4277 26.5846,16.5415 C 26.5846,15.6554 24.2215,15.0646 21.563,15.0646 C 18.6092,15.0646 16.2461,15.6554 16.2461,16.5415 C 16.2461,17.4277 18.6092,18.3138 21.563,18.3138 Z Z " fill="#FFFFFF" stroke="#000000" stroke-width="0.4431" stroke-linecap="round" stroke-linejoin="round"/>
        <path d="M 0.295399999999972,27.1754 L 42.5354,27.1754 " stroke="#FFFFFF" stroke-width="0.88615" stroke-linecap="round" stroke-linejoin="round" fill="none"/>
        <path d="M 16.5415,34.2646 L 8.56610000000001,34.2646 L 8.56610000000001,33.3784 L 5.6123,34.56 L 8.56610000000001,35.7415 L 8.56610000000001,34.8554 L 16.5415,34.8554 L 16.5415,34.2646 Z " fill="#FFFFFF" stroke-width="1px" stroke="#FFFFFF"/>
        <path d="M 20.9723,36.3323 L 20.9723,39.2861 L 18.9046,39.2861 L 21.8584,40.4677 L 24.8123,39.2861 L 22.7446,39.2861 L 22.7446,36.3323 L 20.9723,36.3323 Z " fill="#FFFFFF" stroke-width="1px" stroke="#FFFFFF"/>
        <path d="M 20.9723,32.7877 L 20.9723,29.8338 L 18.9046,29.8338 L 21.8584,28.9477 L 24.8123,29.8338 L 22.7446,29.8338 L 22.7446,32.7877 L 20.9723,32.7877 Z " fill="#FFFFFF" stroke-width="1px" stroke="#FFFFFF"/>
        <path d="M 27.1754,34.8554 L 35.1507,34.8554 L 35.1507,35.7415 L 38.1046,34.56 L 35.1507,33.3784 L 35.1507,34.2646 L 27.1754,34.2646 L 27.1754,34.8554 Z " fill="#FFFFFF" stroke-width="1px" stroke="#FFFFFF"/>
        <path d="M 34.56,38.9907 C 33.083,39.5815 26.2892,38.1046 19.2,35.7415 C 12.4061,33.0831 7.97539999999998,30.72 9.45229999999998,30.1292 C 10.9292,29.5384 17.723,31.3107 24.8123,33.6738 C 31.6061,36.0369 36.0369,38.4 34.56,38.9907 Z Z " stroke="#FFFFFF" stroke-width="0.88615" stroke-linecap="butt" stroke-linejoin="miter" fill="none"/>
        <path d="M 34.2646,30.1292 C 35.7415,30.72 31.3107,33.0831 24.5169,35.4461 C 17.723,38.1046 10.9292,39.5815 9.15690000000001,38.9907 C 7.68000000000001,38.4 12.1107,36.0369 18.9046,33.6738 C 25.6984,31.3107 32.4923,29.5384 34.2646,30.1292 Z Z " stroke="#FFFFFF" stroke-width="0.88615" stroke-linecap="butt" stroke-linejoin="miter" fill="none"/>
        <path d="M 25.1077,36.0369 C 27.7661,35.4461 28.3569,34.2646 26.5846,33.3784 C 24.8123,32.4923 20.9723,32.1969 18.6092,32.7877 C 15.9507,33.3784 15.36,34.8554 17.1323,35.7415 C 18.9046,36.6277 22.4492,36.9231 25.1077,36.0369 Z Z " fill="#ABCADC" stroke="#FFFFFF" stroke-width="0.88615" stroke-linecap="butt" stroke-linejoin="miter"/>
      </g>
      <!--emf-blob end-->
    </g>
  </g>
</svg>

