<svg xmlns="http://www.w3.org/2000/svg" xmlns:xlink="http://www.w3.org/1999/xlink" version="1.1" viewBox="0 0 132 90" >
  <title><![CDATA[ITP]]></title>
  <g transform=" scale(3.000000) ">
    <!--converted by libvisio2svg-->
    <g>
      <!--emf-blob start-->
      <g>
        <path d="M 13.5794,16.2362 C 5.60890000000001,15.0554 0,12.1034 0,8.5609 C 0,20.9595 0,20.9595 0,20.9595 C 0,24.5019 5.60890000000001,27.454 13.5794,28.6348 Z Z " fill="#0E6F9C" stroke="#FFFFFF" stroke-width="0.8856" stroke-linecap="butt" stroke-linejoin="miter"/>
        <path d="M 13.5794,28.6348 C 15.941,29.2252 18.5979,29.2252 21.5499,29.2252 C 33.6533,29.2252 43.395,25.6828 43.395,20.9595 C 43.395,8.5609 43.395,8.5609 43.395,8.5609 C 43.395,13.2842 33.6533,17.1218 21.5499,17.1218 C 18.8931,17.1218 15.941,16.8266 13.5794,16.2362 Z Z " fill="#4A97B3" stroke="#FFFFFF" stroke-width="0.8856" stroke-linecap="butt" stroke-linejoin="miter"/>
        <path d="M 30.1108,0.885600000000011 C 27.454,0.295200000000023 24.502,0 21.5499,0 C 9.74180000000001,0 0,3.83769999999998 0,8.5609 C 0,12.1034 5.31369999999998,15.0554 12.989,16.2362 Z Z " fill="#0E6F9C" stroke="#FFFFFF" stroke-width="0.8856" stroke-linecap="butt" stroke-linejoin="miter"/>
        <path d="M 12.989,16.2362 C 15.6458,16.8266 18.5979,17.1218 21.5499,17.1218 C 33.6533,17.1218 43.395,13.2842 43.395,8.5609 C 43.395,5.01850000000002 37.7861,2.06639999999999 30.1108,0.885600000000011 Z Z " fill="#4A97B3" stroke="#FFFFFF" stroke-width="0.8856" stroke-linecap="butt" stroke-linejoin="miter"/>
        <path d="M 16.5314,5.31369999999998 L 18.3027,7.97050000000002 L 11.513,9.74169999999998 L 12.989,8.26569999999998 L 2.36169999999998,6.49450000000002 L 5.01849999999996,4.72329999999999 L 15.0554,6.19929999999999 L 16.5314,5.31369999999998 Z " fill="#FFFFFF" stroke-width="1px" stroke="#FFFFFF"/>
        <path d="M 25.978,11.8082 L 24.7972,9.15129999999999 L 30.7012,7.97050000000002 L 29.8156,8.85610000000003 L 39.8526,10.6274 L 37.4909,12.6938 L 27.454,10.6274 L 25.978,11.8082 Z " fill="#FFFFFF" stroke-width="1px" stroke="#FFFFFF"/>
        <path d="M 22.7307,3.83769999999998 L 29.5204,2.06639999999999 L 29.5204,5.01850000000002 L 27.7492,4.72329999999999 L 24.502,7.38010000000003 L 21.2547,7.0849 L 24.7972,4.13290000000001 L 22.7307,3.83769999999998 Z " fill="#FFFFFF" stroke-width="1px" stroke="#FFFFFF"/>
        <path d="M 19.7787,14.465 L 12.989,15.6458 L 12.989,12.6938 L 14.7602,12.989 L 18.3027,10.037 L 21.5499,10.6274 L 17.7123,13.8746 L 19.7787,14.465 Z " fill="#FFFFFF" stroke-width="1px" stroke="#FFFFFF"/>
        <g transform=" scale(3.000000) ">
          <text font-family="Helvetica" fill="#FFFFFF" style="white-space:pre;" font-weight="700" text-anchor="start" x="0.0000" y="0.0000" font-size="9.4465"><![CDATA[ITP]]></text>
        </g>
        <g transform=" scale(3.000000) ">
</g>
      </g>
      <!--emf-blob end-->
    </g>
  </g>
</svg>

