<svg xmlns="http://www.w3.org/2000/svg" xmlns:xlink="http://www.w3.org/1999/xlink" version="1.1" viewBox="0 0 51 105" >
  <title><![CDATA[JBOD]]></title>
  <g transform=" scale(3.000000) ">
    <!--converted by libvisio2svg-->
    <g>
      <!--emf-blob start-->
      <g>
        <path d="M 10.9252,5.90549999999996 L 0,5.90549999999996 L 0,34.8425 L 10.9252,34.8425 Z " fill="#036C9B" stroke-width="1px" stroke="#036C9B"/>
        <path d="M 10.9252,5.90549999999996 L 0,5.90549999999996 L 0,34.8425 L 10.9252,34.8425 " stroke="none" stroke-width="0" fill="none"/>
        <path d="M 10.9252,34.8425 L 16.5354,28.937 L 16.5354,0 L 5.90550000000002,0 L 0,5.90549999999996 L 10.9252,5.90549999999996 L 10.9252,34.8425 Z " fill="#036C9B" stroke-width="1px" stroke="#036C9B"/>
        <path d="M 10.9252,5.90549999999996 L 16.5354,0 Z " fill="#036C9B" stroke-width="1px" stroke="#036C9B"/>
        <path d="M 10.9252,5.90549999999996 L 16.5354,0 " stroke="none" stroke-width="0" fill="none"/>
        <path d="M 10.9252,5.90549999999996 L 0,5.90549999999996 L 0,34.8425 L 10.9252,34.8425 Z " fill="#036C9B" stroke-width="1px" stroke="#036C9B"/>
        <path d="M 10.9252,5.90549999999996 L 0,5.90549999999996 L 0,34.8425 L 10.9252,34.8425 " stroke="#FFFFFF" stroke-width="0.4429" stroke-linecap="butt" stroke-linejoin="miter" fill="none"/>
        <path d="M 10.9252,34.8425 L 16.5354,28.937 L 16.5354,0 L 5.90550000000002,0 L 0,5.90549999999996 L 10.9252,5.90549999999996 L 10.9252,34.8425 Z " fill="#036C9B" stroke="#FFFFFF" stroke-width="0.4429" stroke-linecap="butt" stroke-linejoin="miter"/>
        <path d="M 10.9252,5.90549999999996 L 16.5354,0 Z " fill="#000000" stroke-width="1px" stroke="#000000"/>
        <path d="M 10.9252,5.90549999999996 L 16.5354,0 " stroke="#FFFFFF" stroke-width="0.4429" stroke-linecap="round" stroke-linejoin="round" fill="none"/>
        <path d="M 10.9252,5.90549999999996 L 0,5.90549999999996 L 0,34.8425 L 10.9252,34.8425 " stroke="#FFFFFF" stroke-width="0.4429" stroke-linecap="butt" stroke-linejoin="miter" fill="none"/>
        <path d="M 10.9252,34.8425 L 16.5354,28.937 L 16.5354,0 L 5.90550000000002,0 L 0,5.90549999999996 L 10.9252,5.90549999999996 L 10.9252,34.8425 Z " fill="none" stroke="#FFFFFF" stroke-width="0.4429" stroke-linecap="butt" stroke-linejoin="miter"/>
        <path d="M 10.9252,5.90549999999996 L 16.5354,0 " stroke="#FFFFFF" stroke-width="0.4429" stroke-linecap="butt" stroke-linejoin="miter" fill="none"/>
        <path d="M 10.9252,5.90549999999996 L 0,5.90549999999996 L 0,34.8425 L 10.9252,34.8425 Z " fill="#036C9B" stroke-width="1px" stroke="#036C9B"/>
        <path d="M 10.9252,5.90549999999996 L 0,5.90549999999996 L 0,34.8425 L 10.9252,34.8425 " stroke="none" stroke-width="0" fill="none"/>
        <path d="M 10.9252,34.8425 L 16.5354,28.937 L 16.5354,0 L 5.90550000000002,0 L 0,5.90549999999996 L 10.9252,5.90549999999996 L 10.9252,34.8425 Z " fill="#036C9B" stroke-width="1px" stroke="#036C9B"/>
        <path d="M 10.9252,5.90549999999996 L 16.5354,0 Z " fill="#036C9B" stroke-width="1px" stroke="#036C9B"/>
        <path d="M 10.9252,5.90549999999996 L 16.5354,0 " stroke="none" stroke-width="0" fill="none"/>
        <path d="M 10.9252,5.90549999999996 L 0,5.90549999999996 L 0,34.8425 L 10.9252,34.8425 Z " fill="#036C9B" stroke-width="1px" stroke="#036C9B"/>
        <path d="M 10.9252,5.90549999999996 L 0,5.90549999999996 L 0,34.8425 L 10.9252,34.8425 " stroke="#FFFFFF" stroke-width="0.4429" stroke-linecap="butt" stroke-linejoin="miter" fill="none"/>
        <path d="M 10.9252,34.8425 L 16.5354,28.937 L 16.5354,0 L 5.90550000000002,0 L 0,5.90549999999996 L 10.9252,5.90549999999996 L 10.9252,34.8425 Z " fill="#036C9B" stroke="#FFFFFF" stroke-width="0.4429" stroke-linecap="butt" stroke-linejoin="miter"/>
        <path d="M 10.9252,5.90549999999996 L 16.5354,0 Z " fill="#000000" stroke-width="1px" stroke="#000000"/>
        <path d="M 10.9252,5.90549999999996 L 16.5354,0 " stroke="#FFFFFF" stroke-width="0.4429" stroke-linecap="round" stroke-linejoin="round" fill="none"/>
        <path d="M 10.9252,5.90549999999996 L 0,5.90549999999996 L 0,34.8425 L 10.9252,34.8425 " stroke="#FFFFFF" stroke-width="0.4429" stroke-linecap="butt" stroke-linejoin="miter" fill="none"/>
        <path d="M 10.9252,34.8425 L 16.5354,28.937 L 16.5354,0 L 5.90550000000002,0 L 0,5.90549999999996 L 10.9252,5.90549999999996 L 10.9252,34.8425 Z " fill="none" stroke="#FFFFFF" stroke-width="0.4429" stroke-linecap="butt" stroke-linejoin="miter"/>
        <path d="M 10.9252,5.90549999999996 L 16.5354,0 " stroke="#FFFFFF" stroke-width="0.4429" stroke-linecap="butt" stroke-linejoin="miter" fill="none"/>
        <path d="M 8.85830000000004,27.7559 C 8.85830000000004,28.6417 7.38190000000003,29.2322 5.61030000000005,29.2322 C 3.54340000000002,29.2322 2.06700000000001,28.6417 2.06700000000001,27.7559 C 2.06700000000001,27.1653 3.54340000000002,26.5748 5.61030000000005,26.5748 C 7.38190000000003,26.5748 8.85830000000004,27.1653 8.85830000000004,27.7559 Z Z " fill="#FFFFFF" stroke="#000000" stroke-width="0.4429" stroke-linecap="round" stroke-linejoin="round"/>
        <path d="M 6.49610000000001,27.7559 C 6.49610000000001,28.0511 6.20080000000002,28.0511 5.61030000000005,28.0511 C 5.0197,28.0511 4.42920000000004,28.0511 4.42920000000004,27.7559 C 4.42920000000004,27.4606 5.0197,27.4606 5.61030000000005,27.4606 C 6.20080000000002,27.4606 6.49610000000001,27.4606 6.49610000000001,27.7559 Z Z " fill="#000000" stroke="none"/>
        <path d="M 6.49610000000001,27.1653 C 6.49610000000001,27.1653 6.20080000000002,27.4606 5.61030000000005,27.4606 C 5.0197,27.4606 4.42920000000004,27.1653 4.42920000000004,27.1653 C 4.42920000000004,26.87 5.0197,26.5748 5.61030000000005,26.5748 C 6.20080000000002,26.5748 6.49610000000001,26.87 6.49610000000001,27.1653 Z Z " fill="#000000" stroke="none"/>
        <path d="M 8.85830000000004,26.5748 C 8.85830000000004,27.1653 7.38190000000003,27.7559 5.61030000000005,27.7559 C 3.54340000000002,27.7559 2.06700000000001,27.1653 2.06700000000001,26.5748 C 2.06700000000001,25.6889 3.54340000000002,25.0984 5.61030000000005,25.0984 C 7.38190000000003,25.0984 8.85830000000004,25.6889 8.85830000000004,26.5748 Z Z " fill="#FFFFFF" stroke="#000000" stroke-width="0.4429" stroke-linecap="round" stroke-linejoin="round"/>
        <path d="M 6.49610000000001,26.2795 C 6.49610000000001,26.5748 6.20080000000002,26.87 5.61030000000005,26.87 C 5.0197,26.87 4.42920000000004,26.5748 4.42920000000004,26.2795 C 4.42920000000004,26.2795 5.0197,25.9842 5.61030000000005,25.9842 C 6.20080000000002,25.9842 6.49610000000001,26.2795 6.49610000000001,26.2795 Z Z " fill="#000000" stroke="none"/>
        <path d="M 6.49610000000001,25.6889 C 6.49610000000001,25.9842 6.20080000000002,25.9842 5.61030000000005,25.9842 C 5.0197,25.9842 4.42920000000004,25.9842 4.42920000000004,25.6889 C 4.42920000000004,25.3936 5.0197,25.3936 5.61030000000005,25.3936 C 6.20080000000002,25.3936 6.49610000000001,25.3936 6.49610000000001,25.6889 Z Z " fill="#000000" stroke="none"/>
        <path d="M 8.85830000000004,25.0984 C 8.85830000000004,25.6889 7.38190000000003,26.2795 5.61030000000005,26.2795 C 3.54340000000002,26.2795 2.06700000000001,25.6889 2.06700000000001,25.0984 C 2.06700000000001,24.2126 3.54340000000002,23.622 5.61030000000005,23.622 C 7.38190000000003,23.622 8.85830000000004,24.2126 8.85830000000004,25.0984 Z Z " fill="#FFFFFF" stroke="#000000" stroke-width="0.4429" stroke-linecap="round" stroke-linejoin="round"/>
        <path d="M 6.49610000000001,25.0984 C 6.49610000000001,25.0984 6.20080000000002,25.3936 5.61030000000005,25.3936 C 5.0197,25.3936 4.42920000000004,25.0984 4.42920000000004,25.0984 C 4.42920000000004,24.8031 5.0197,24.5078 5.61030000000005,24.5078 C 6.20080000000002,24.5078 6.49610000000001,24.8031 6.49610000000001,25.0984 Z Z " fill="#000000" stroke="none"/>
        <path d="M 8.85830000000004,22.1456 C 8.85830000000004,23.0315 7.38190000000003,23.622 5.61030000000005,23.622 C 3.54340000000002,23.622 2.06700000000001,23.0315 2.06700000000001,22.1456 C 2.06700000000001,21.5551 3.54340000000002,20.9645 5.61030000000005,20.9645 C 7.38190000000003,20.9645 8.85830000000004,21.5551 8.85830000000004,22.1456 Z Z " fill="#FFFFFF" stroke="#000000" stroke-width="0.4429" stroke-linecap="round" stroke-linejoin="round"/>
        <path d="M 6.49610000000001,22.1456 C 6.49610000000001,22.4409 6.20080000000002,22.4409 5.61030000000005,22.4409 C 5.0197,22.4409 4.42920000000004,22.4409 4.42920000000004,22.1456 C 4.42920000000004,21.8504 5.0197,21.8504 5.61030000000005,21.8504 C 6.20080000000002,21.8504 6.49610000000001,21.8504 6.49610000000001,22.1456 Z Z " fill="#000000" stroke="none"/>
        <path d="M 6.49610000000001,21.5551 C 6.49610000000001,21.5551 6.20080000000002,21.8504 5.61030000000005,21.8504 C 5.0197,21.8504 4.42920000000004,21.5551 4.42920000000004,21.5551 C 4.42920000000004,21.2598 5.0197,20.9645 5.61030000000005,20.9645 C 6.20080000000002,20.9645 6.49610000000001,21.2598 6.49610000000001,21.5551 Z Z " fill="#000000" stroke="none"/>
        <path d="M 8.85830000000004,20.6693 C 8.85830000000004,21.5551 7.38190000000003,22.1456 5.61030000000005,22.1456 C 3.54340000000002,22.1456 2.06700000000001,21.5551 2.06700000000001,20.6693 C 2.06700000000001,20.0787 3.54340000000002,19.4882 5.61030000000005,19.4882 C 7.38190000000003,19.4882 8.85830000000004,20.0787 8.85830000000004,20.6693 Z Z " fill="#FFFFFF" stroke="#000000" stroke-width="0.4429" stroke-linecap="round" stroke-linejoin="round"/>
        <path d="M 6.49610000000001,20.6693 C 6.49610000000001,20.9645 6.20080000000002,20.9645 5.61030000000005,20.9645 C 5.0197,20.9645 4.42920000000004,20.9645 4.42920000000004,20.6693 C 4.42920000000004,20.374 5.0197,20.374 5.61030000000005,20.374 C 6.20080000000002,20.374 6.49610000000001,20.374 6.49610000000001,20.6693 Z Z " fill="#000000" stroke="none"/>
        <path d="M 6.49610000000001,20.0787 C 6.49610000000001,20.0787 6.20080000000002,20.374 5.61030000000005,20.374 C 5.0197,20.374 4.42920000000004,20.0787 4.42920000000004,20.0787 C 4.42920000000004,19.7834 5.0197,19.4882 5.61030000000005,19.4882 C 6.20080000000002,19.4882 6.49610000000001,19.7834 6.49610000000001,20.0787 Z Z " fill="#000000" stroke="none"/>
        <path d="M 8.85830000000004,19.4882 C 8.85830000000004,20.0787 7.38190000000003,20.6693 5.61030000000005,20.6693 C 3.54340000000002,20.6693 2.06700000000001,20.0787 2.06700000000001,19.4882 C 2.06700000000001,18.6023 3.54340000000002,18.0118 5.61030000000005,18.0118 C 7.38190000000003,18.0118 8.85830000000004,18.6023 8.85830000000004,19.4882 Z Z " fill="#FFFFFF" stroke="#000000" stroke-width="0.4429" stroke-linecap="round" stroke-linejoin="round"/>
        <path d="M 6.49610000000001,19.1929 C 6.49610000000001,19.4882 6.20080000000002,19.7834 5.61030000000005,19.7834 C 5.0197,19.7834 4.42920000000004,19.4882 4.42920000000004,19.1929 C 4.42920000000004,19.1929 5.0197,18.8976 5.61030000000005,18.8976 C 6.20080000000002,18.8976 6.49610000000001,19.1929 6.49610000000001,19.1929 Z Z " fill="#000000" stroke="none"/>
        <path d="M 8.85830000000004,16.5354 C 8.85830000000004,17.126 7.38190000000003,17.7165 5.61030000000005,17.7165 C 3.54340000000002,17.7165 2.06700000000001,17.126 2.06700000000001,16.5354 C 2.06700000000001,15.9449 3.54340000000002,15.3543 5.61030000000005,15.3543 C 7.38190000000003,15.3543 8.85830000000004,15.9449 8.85830000000004,16.5354 Z Z " fill="#FFFFFF" stroke="#000000" stroke-width="0.4429" stroke-linecap="round" stroke-linejoin="round"/>
        <path d="M 6.49610000000001,16.5354 C 6.49610000000001,16.5354 6.20080000000002,16.8307 5.61030000000005,16.8307 C 5.0197,16.8307 4.42920000000004,16.5354 4.42920000000004,16.5354 C 4.42920000000004,16.2401 5.0197,15.9449 5.61030000000005,15.9449 C 6.20080000000002,15.9449 6.49610000000001,16.2401 6.49610000000001,16.5354 Z Z " fill="#000000" stroke="none"/>
        <path d="M 6.49610000000001,15.6496 C 6.49610000000001,15.9449 6.20080000000002,16.2401 5.61030000000005,16.2401 C 5.0197,16.2401 4.42920000000004,15.9449 4.42920000000004,15.6496 C 4.42920000000004,15.6496 5.0197,15.3543 5.61030000000005,15.3543 C 6.20080000000002,15.3543 6.49610000000001,15.6496 6.49610000000001,15.6496 Z Z " fill="#000000" stroke="none"/>
        <path d="M 8.85830000000004,15.059 C 8.85830000000004,15.9449 7.38190000000003,16.5354 5.61030000000005,16.5354 C 3.54340000000002,16.5354 2.06700000000001,15.9449 2.06700000000001,15.059 C 2.06700000000001,14.4685 3.54340000000002,13.8779 5.61030000000005,13.8779 C 7.38190000000003,13.8779 8.85830000000004,14.4685 8.85830000000004,15.059 Z Z " fill="#FFFFFF" stroke="#000000" stroke-width="0.4429" stroke-linecap="round" stroke-linejoin="round"/>
        <path d="M 6.49610000000001,15.059 C 6.49610000000001,15.3543 6.20080000000002,15.3543 5.61030000000005,15.3543 C 5.0197,15.3543 4.42920000000004,15.3543 4.42920000000004,15.059 C 4.42920000000004,14.7638 5.0197,14.7638 5.61030000000005,14.7638 C 6.20080000000002,14.7638 6.49610000000001,14.7638 6.49610000000001,15.059 Z Z " fill="#000000" stroke="none"/>
        <path d="M 6.49610000000001,14.4685 C 6.49610000000001,14.4685 6.20080000000002,14.7638 5.61030000000005,14.7638 C 5.0197,14.7638 4.42920000000004,14.4685 4.42920000000004,14.4685 C 4.42920000000004,14.1732 5.0197,13.8779 5.61030000000005,13.8779 C 6.20080000000002,13.8779 6.49610000000001,14.1732 6.49610000000001,14.4685 Z Z " fill="#000000" stroke="none"/>
        <path d="M 8.85830000000004,13.5827 C 8.85830000000004,14.4685 7.38190000000003,15.059 5.61030000000005,15.059 C 3.54340000000002,15.059 2.06700000000001,14.4685 2.06700000000001,13.5827 C 2.06700000000001,12.9921 3.54340000000002,12.4016 5.61030000000005,12.4016 C 7.38190000000003,12.4016 8.85830000000004,12.9921 8.85830000000004,13.5827 Z Z " fill="#FFFFFF" stroke="#000000" stroke-width="0.4429" stroke-linecap="round" stroke-linejoin="round"/>
        <path d="M 6.49610000000001,13.5827 C 6.49610000000001,13.8779 6.20080000000002,13.8779 5.61030000000005,13.8779 C 5.0197,13.8779 4.42920000000004,13.8779 4.42920000000004,13.5827 C 4.42920000000004,13.2874 5.0197,13.2874 5.61030000000005,13.2874 C 6.20080000000002,13.2874 6.49610000000001,13.2874 6.49610000000001,13.5827 Z Z " fill="#000000" stroke="none"/>
      </g>
      <!--emf-blob end-->
    </g>
  </g>
</svg>

