<svg xmlns="http://www.w3.org/2000/svg" xmlns:xlink="http://www.w3.org/1999/xlink" version="1.1" viewBox="0 0 84 39" >
  <title><![CDATA[Key]]></title>
  <g transform=" scale(3.000000) ">
    <!--converted by libvisio2svg-->
    <g>
      <!--emf-blob start-->
      <g>
        <path d="M 6.78049999999996,6.48570000000001 C 8.25450000000001,6.48570000000001 9.43369999999999,5.30649999999997 9.43369999999999,3.83249999999998 C 9.43369999999999,2.35849999999999 8.25450000000001,1.17930000000001 6.78049999999996,1.17930000000001 C 5.30649999999997,1.17930000000001 4.12719999999996,2.35849999999999 4.12719999999996,3.83249999999998 C 4.12719999999996,5.30649999999997 5.30649999999997,6.48570000000001 6.78049999999996,6.48570000000001 Z Z " stroke="#B2B2B2" stroke-width="2.6532" stroke-linecap="butt" stroke-linejoin="miter" fill="none"/>
        <path d="M 6.78049999999996,11.7921 C 8.25450000000001,11.7921 9.43369999999999,10.6129 9.43369999999999,9.13889999999998 C 9.43369999999999,7.66489999999999 8.25450000000001,6.48570000000001 6.78049999999996,6.48570000000001 C 5.30649999999997,6.48570000000001 4.12719999999996,7.66489999999999 4.12719999999996,9.13889999999998 C 4.12719999999996,10.6129 5.30649999999997,11.7921 6.78049999999996,11.7921 Z Z " stroke="#B2B2B2" stroke-width="2.6532" stroke-linecap="butt" stroke-linejoin="miter" fill="none"/>
        <path d="M 2.94799999999998,8.54930000000002 C 4.12719999999996,8.54930000000002 5.01159999999999,7.66489999999999 5.01159999999999,6.48570000000001 C 5.01159999999999,5.30649999999997 4.12719999999996,4.4221 2.94799999999998,4.4221 C 1.7688,4.4221 0.884399999999971,5.30649999999997 0.884399999999971,6.48570000000001 C 0.884399999999971,7.66489999999999 1.7688,8.54930000000002 2.94799999999998,8.54930000000002 Z Z " stroke="#B2B2B2" stroke-width="2.6532" stroke-linecap="butt" stroke-linejoin="miter" fill="none"/>
        <path d="M 9.43369999999999,2.35849999999999 C 9.43369999999999,3.24290000000002 9.7285,4.12729999999999 10.0233,5.01170000000002 C 10.3181,5.60129999999998 11.2025,6.1909 11.7921,6.48570000000001 Z " stroke="#B2B2B2" stroke-width="2.6532" stroke-linecap="butt" stroke-linejoin="miter" fill="none"/>
        <path d="M 9.43369999999999,10.9077 C 9.43369999999999,9.7285 9.7285,8.84410000000003 10.0233,7.9597 C 10.3181,7.37009999999998 11.2025,6.78050000000002 11.7921,6.48570000000001 Z " stroke="#B2B2B2" stroke-width="2.6532" stroke-linecap="butt" stroke-linejoin="miter" fill="none"/>
        <path d="M 5.89609999999999,5.30649999999997 C 7.37009999999998,5.30649999999997 8.54929999999996,4.12729999999999 8.54929999999996,2.6533 C 8.54929999999996,1.17930000000001 7.37009999999998,0 5.89609999999999,0 C 4.42199999999997,0 3.24279999999999,1.17930000000001 3.24279999999999,2.6533 C 3.24279999999999,4.12729999999999 4.42199999999997,5.30649999999997 5.89609999999999,5.30649999999997 Z Z " stroke="#0F73A0" stroke-width="2.6532" stroke-linecap="butt" stroke-linejoin="miter" fill="none"/>
        <path d="M 5.89609999999999,10.6129 C 7.37009999999998,10.6129 8.54929999999996,9.43369999999999 8.54929999999996,7.9597 C 8.54929999999996,6.48570000000001 7.37009999999998,5.30649999999997 5.89609999999999,5.30649999999997 C 4.42199999999997,5.30649999999997 3.24279999999999,6.48570000000001 3.24279999999999,7.9597 C 3.24279999999999,9.43369999999999 4.42199999999997,10.6129 5.89609999999999,10.6129 Z Z " stroke="#0F73A0" stroke-width="2.6532" stroke-linecap="butt" stroke-linejoin="miter" fill="none"/>
        <path d="M 2.06360000000001,7.37009999999998 C 3.24279999999999,7.37009999999998 4.12719999999996,6.48570000000001 4.12719999999996,5.30649999999997 C 4.12719999999996,4.12729999999999 3.24279999999999,3.24290000000002 2.06360000000001,3.24290000000002 C 0.884399999999971,3.24290000000002 0,4.12729999999999 0,5.30649999999997 C 0,6.48570000000001 0.884399999999971,7.37009999999998 2.06360000000001,7.37009999999998 Z Z " stroke="#0F73A0" stroke-width="2.6532" stroke-linecap="butt" stroke-linejoin="miter" fill="none"/>
        <path d="M 8.54929999999996,1.17930000000001 C 8.54929999999996,2.06369999999998 8.84409999999997,2.94810000000001 9.13889999999998,3.83249999999998 C 9.43369999999999,4.71690000000001 10.3181,5.30649999999997 10.9077,5.60129999999998 Z " stroke="#0F73A0" stroke-width="2.6532" stroke-linecap="butt" stroke-linejoin="miter" fill="none"/>
        <path d="M 8.54929999999996,9.7285 C 8.54929999999996,8.84410000000003 8.84409999999997,7.9597 9.13889999999998,7.07529999999997 C 9.43369999999999,6.1909 10.3181,5.60129999999998 10.9077,5.30649999999997 Z " fill="#0F73A0" stroke="none"/>
        <path d="M 27.7114,8.25450000000001 C 27.7114,5.30649999999997 27.7114,5.30649999999997 27.7114,5.30649999999997 C 15.6245,5.30649999999997 15.6245,5.30649999999997 15.6245,5.30649999999997 C 15.3297,4.71690000000001 15.0349,4.4221 14.7401,4.4221 C 14.4453,4.4221 14.1505,4.71690000000001 14.1505,5.30649999999997 C 13.8557,5.30649999999997 13.8557,5.30649999999997 13.8557,5.30649999999997 C 13.5609,4.71690000000001 13.2661,4.12729999999999 12.9713,4.12729999999999 C 12.6765,4.12729999999999 12.3817,4.71690000000001 12.0869,5.30649999999997 C 10.3181,5.30649999999997 10.3181,5.30649999999997 10.3181,5.30649999999997 C 10.3181,7.66489999999999 10.3181,7.66489999999999 10.3181,7.66489999999999 C 12.3817,7.66489999999999 12.3817,7.66489999999999 12.3817,7.66489999999999 C 12.3817,8.25450000000001 12.6765,8.54930000000002 12.9713,8.54930000000002 C 13.2661,8.54930000000002 13.5609,8.25450000000001 13.8557,7.66489999999999 C 14.1505,7.66489999999999 14.1505,7.66489999999999 14.1505,7.66489999999999 C 14.1505,8.25450000000001 14.4453,8.84410000000003 14.7401,8.84410000000003 C 15.0349,8.84410000000003 15.3297,8.25450000000001 15.6245,7.66489999999999 C 24.4686,7.66489999999999 24.4686,7.66489999999999 24.4686,7.66489999999999 C 24.4686,12.0869 24.4686,12.0869 24.4686,12.0869 C 27.4166,12.0869 27.4166,12.0869 27.4166,12.0869 C 27.4166,10.9077 27.4166,10.9077 27.4166,10.9077 C 26.2374,10.9077 26.2374,10.9077 26.2374,10.9077 C 26.2374,10.3181 26.2374,10.3181 26.2374,10.3181 C 27.4166,10.3181 27.4166,10.3181 27.4166,10.3181 C 27.4166,9.13889999999998 27.4166,9.13889999999998 27.4166,9.13889999999998 C 26.2374,9.13889999999998 26.2374,9.13889999999998 26.2374,9.13889999999998 C 26.2374,8.25450000000001 26.2374,8.25450000000001 26.2374,8.25450000000001 Z Z " fill="#B2B2B2" stroke="none"/>
        <path d="M 26.827,7.07529999999997 C 26.827,4.12729999999999 26.827,4.12729999999999 26.827,4.12729999999999 C 14.7401,4.12729999999999 14.7401,4.12729999999999 14.7401,4.12729999999999 C 14.4453,3.53769999999997 14.1505,3.24290000000002 13.8557,3.24290000000002 C 13.5609,3.24290000000002 13.2661,3.53769999999997 13.2661,4.12729999999999 C 12.9713,4.12729999999999 12.9713,4.12729999999999 12.9713,4.12729999999999 C 12.6765,3.53769999999997 12.3817,3.24290000000002 12.0869,3.24290000000002 C 11.7921,3.24290000000002 11.4973,3.53769999999997 11.4973,4.12729999999999 C 9.43369999999999,4.12729999999999 9.43369999999999,4.12729999999999 9.43369999999999,4.12729999999999 C 9.43369999999999,6.48570000000001 9.43369999999999,6.48570000000001 9.43369999999999,6.48570000000001 C 11.4973,6.48570000000001 11.4973,6.48570000000001 11.4973,6.48570000000001 C 11.4973,7.07529999999997 11.7921,7.66489999999999 12.0869,7.66489999999999 C 12.3817,7.66489999999999 12.6765,7.07529999999997 12.9713,6.48570000000001 C 13.2661,6.48570000000001 13.2661,6.48570000000001 13.2661,6.48570000000001 C 13.2661,7.07529999999997 13.5609,7.66489999999999 13.8557,7.66489999999999 C 14.1505,7.66489999999999 14.4453,7.07529999999997 14.7401,6.48570000000001 C 23.5842,6.48570000000001 23.5842,6.48570000000001 23.5842,6.48570000000001 C 23.5842,10.9077 23.5842,10.9077 23.5842,10.9077 C 26.5322,10.9077 26.5322,10.9077 26.5322,10.9077 C 26.5322,9.7285 26.5322,9.7285 26.5322,9.7285 C 25.353,9.7285 25.353,9.7285 25.353,9.7285 C 25.353,9.13889999999998 25.353,9.13889999999998 25.353,9.13889999999998 C 26.5322,9.13889999999998 26.5322,9.13889999999998 26.5322,9.13889999999998 C 26.5322,7.9597 26.5322,7.9597 26.5322,7.9597 C 25.353,7.9597 25.353,7.9597 25.353,7.9597 C 25.353,7.07529999999997 25.353,7.07529999999997 25.353,7.07529999999997 Z Z " fill="#0F73A0" stroke="none"/>
      </g>
      <!--emf-blob end-->
    </g>
  </g>
</svg>

