<svg xmlns="http://www.w3.org/2000/svg" xmlns:xlink="http://www.w3.org/1999/xlink" version="1.1" viewBox="0 0 126 171" >
  <title><![CDATA[Keys]]></title>
  <g transform=" scale(3.000000) ">
    <!--converted by libvisio2svg-->
    <g>
      <!--emf-blob start-->
      <g>
        <path d="M 41.6339,10.6299 L 41.6339,9.7441 L 41.6339,8.56299999999999 L 41.3386,7.38189999999997 L 40.748,6.49610000000001 L 40.4528,5.61020000000002 L 39.8622,4.7244 L 39.2717,3.83859999999999 L 38.6811,3.24799999999999 L 37.7953,2.36219999999997 L 36.9095,1.77170000000001 L 36.0236,1.18110000000001 L 35.1378,0.885800000000017 L 34.252,0.590599999999995 L 33.0709,0.295299999999997 L 32.185,0 L 31.0039,0 L 29.8228,0 L 28.937,0.295299999999997 L 27.7559,0.590599999999995 L 26.8701,0.885800000000017 L 25.9843,1.18110000000001 L 25.0984,1.77170000000001 L 24.2126,2.36219999999997 L 23.3268,3.24799999999999 L 22.7362,3.83859999999999 L 22.1457,4.7244 L 21.5551,5.61020000000002 L 21.2599,6.49610000000001 L 20.9646,7.38189999999997 L 20.374,8.56299999999999 L 20.374,9.7441 L 20.374,10.6299 L 20.374,11.811 L 20.374,12.6968 L 20.6693,13.5827 L 20.9646,14.4685 L 20.374,14.1732 L 19.7835,13.878 L 19.4882,13.878 L 19.1929,13.5827 L 18.8977,13.5827 L 18.6024,13.5827 L 18.3071,13.5827 L 18.3071,13.878 L 13.2874,19.1929 L 13.2874,19.1929 L 13.2874,19.4882 L 12.9921,19.7835 L 13.2874,20.0787 L 13.2874,20.374 L 13.5827,21.2598 L 14.1732,22.4409 L 14.4685,23.3268 L 14.1732,23.622 L 13.878,23.9173 L 13.5827,24.2126 L 13.5827,24.2126 L 13.5827,24.2126 L 13.2874,24.5079 L 13.2874,24.5079 L 13.2874,24.8031 L 13.2874,25.0984 L 13.2874,25.689 L 13.2874,26.2795 L 13.2874,26.8701 L 12.9921,27.1654 L 12.6969,27.7559 L 12.1063,28.3465 L 11.2205,29.2323 L 10.0394,30.4134 L 9.15359999999998,31.5945 L 7.97249999999997,32.7756 L 6.49610000000001,34.252 L 5.315,35.4331 L 4.42919999999998,36.6142 L 3.24799999999999,37.7953 L 2.36219999999997,38.9764 L 1.47640000000001,39.8622 L 0.885800000000017,40.4527 L 0.295299999999997,41.0433 L 0.295299999999997,41.0433 L 0,41.3386 L 0,41.6339 L 0,41.6339 L 0,41.9291 L 1.47640000000001,45.7677 L 1.77170000000001,46.063 L 1.77170000000001,46.063 L 2.06689999999998,46.3583 L 2.36219999999997,46.3583 L 7.38189999999997,46.063 L 7.38189999999997,46.063 L 7.67719999999997,46.063 L 7.97249999999997,46.063 L 7.97249999999997,45.7677 L 9.15359999999998,44.5866 L 9.15359999999998,44.2913 L 9.44880000000001,44.2913 L 9.44880000000001,43.9961 L 9.44880000000001,43.9961 L 9.44880000000001,43.7008 L 9.44880000000001,43.4055 L 9.44880000000001,42.815 L 9.44880000000001,42.2244 L 9.7441,42.2244 L 10.3347,42.2244 L 10.9252,42.2244 L 10.9252,42.2244 L 11.2205,42.2244 L 11.2205,42.2244 L 11.5158,41.9291 L 11.5158,41.9291 L 12.6969,40.748 L 12.9921,40.4527 L 12.9921,39.8622 L 12.9921,39.5669 L 12.6969,39.2716 L 12.6969,39.2716 L 12.4016,38.9764 L 12.4016,38.3858 L 12.6969,38.0905 L 12.9921,37.7953 L 13.2874,37.7953 L 13.5827,37.7953 L 13.878,38.0905 L 14.4685,38.0905 L 14.7638,38.3858 L 15.0591,38.0905 L 15.3543,38.0905 L 16.5354,36.6142 L 16.5354,36.6142 L 16.5354,36.3189 L 16.8307,36.3189 L 16.8307,36.0236 L 16.8307,36.0236 L 16.8307,35.4331 L 16.5354,35.1378 L 16.5354,34.5472 L 17.126,34.252 L 17.7165,34.252 L 18.0118,34.252 L 18.3071,34.252 L 18.3071,34.252 L 18.6024,34.252 L 18.8977,34.252 L 18.8977,34.252 L 18.8977,33.9567 L 19.1929,33.6614 L 19.4882,33.3661 L 19.7835,33.0709 L 20.0788,33.0709 L 20.374,33.0709 L 20.6693,33.0709 L 20.9646,33.0709 L 21.2599,33.3661 L 21.5551,33.6614 L 21.8504,34.252 L 22.1457,34.5472 L 22.1457,37.7953 L 21.8504,44.2913 L 21.5551,50.7874 L 21.5551,53.7401 L 21.5551,54.0354 L 21.5551,54.3307 L 21.8504,54.3307 L 21.8504,54.626 L 25.3937,56.3976 L 25.689,56.6929 L 25.9843,56.6929 L 26.2795,56.3976 L 26.5748,56.3976 L 30.1181,52.8543 L 30.1181,52.8543 L 30.4134,52.559 L 30.4134,52.559 L 30.4134,52.2638 L 30.4134,50.4921 L 30.4134,50.4921 L 30.4134,50.1968 L 30.4134,49.9016 L 30.1181,49.9016 L 30.1181,49.6063 L 29.8228,49.6063 L 29.5276,49.0157 L 29.2323,48.7205 L 29.5276,48.4252 L 29.8228,47.8346 L 30.1181,47.5394 L 30.4134,47.5394 L 30.4134,47.5394 L 30.4134,47.2441 L 30.7087,47.2441 L 30.7087,46.9488 L 30.7087,45.1772 L 30.7087,44.8819 L 30.4134,44.5866 L 30.1181,44.2913 L 29.8228,44.2913 L 29.5276,44.2913 L 29.2323,43.9961 L 28.937,43.7008 L 28.937,43.4055 L 28.937,43.1102 L 29.2323,42.815 L 29.5276,42.5197 L 29.8228,42.5197 L 30.1181,42.5197 L 30.4134,42.2244 L 30.7087,41.9291 L 30.7087,41.6339 L 31.0039,39.8622 L 31.0039,39.5669 L 30.7087,39.5669 L 30.7087,39.2716 L 30.7087,39.2716 L 30.4134,38.9764 L 30.1181,38.6811 L 29.8228,38.3858 L 29.5276,38.0905 L 29.8228,37.5 L 30.4134,37.2047 L 30.7087,36.9094 L 30.7087,36.9094 L 30.7087,36.6142 L 31.0039,36.6142 L 31.0039,36.3189 L 31.0039,36.3189 L 31.0039,36.0236 L 31.0039,35.7283 L 31.0039,35.1378 L 31.0039,34.8425 L 31.5945,34.252 L 31.8898,33.9567 L 32.4803,33.3661 L 32.7756,33.3661 L 32.7756,33.0709 L 32.7756,33.0709 L 32.7756,32.7756 L 32.7756,32.7756 L 33.0709,31.0039 L 33.6614,30.4134 L 33.9567,29.8228 L 34.5473,28.937 L 35.1378,28.3465 L 35.4331,27.4606 L 35.4331,26.5748 L 35.7284,25.689 L 35.7284,24.8031 L 35.7284,23.622 L 35.7284,22.7362 L 35.4331,21.5551 L 35.1378,20.6693 L 36.6142,20.0787 L 37.7953,19.1929 L 38.9764,18.0118 L 39.8622,16.8307 L 40.748,15.3543 L 41.3386,13.878 L 41.6339,12.4016 L 41.6339,10.6299 L 41.6339,10.6299 Z M 2.65749999999997,43.7008 L 3.24799999999999,43.1102 L 3.83859999999999,42.2244 L 4.7244,41.3386 L 5.6103,40.4527 L 6.49610000000001,39.2716 L 7.67719999999997,38.0905 L 8.85829999999999,36.9094 L 9.7441,35.7283 L 10.9252,34.5472 L 12.1063,33.3661 L 12.9921,32.4803 L 13.878,31.2992 L 14.7638,30.7087 L 15.0591,30.1181 L 15.6496,29.5276 L 15.9449,29.2323 L 15.9449,29.5276 L 15.9449,29.5276 L 16.2402,29.5276 L 16.2402,29.8228 L 15.9449,29.8228 L 15.6496,30.4134 L 15.0591,31.0039 L 14.4685,31.8898 L 13.5827,32.7756 L 12.6969,33.6614 L 11.5158,34.8425 L 10.3347,36.0236 L 9.44880000000001,37.2047 L 8.26769999999999,38.3858 L 7.08659999999998,39.5669 L 6.20080000000002,40.748 L 5.0197,41.9291 L 4.13389999999998,42.815 L 3.54329999999999,43.7008 L 2.95279999999997,44.2913 L 2.65749999999997,43.9961 L 2.65749999999997,43.9961 L 2.65749999999997,43.7008 L 2.65749999999997,43.7008 L 2.65749999999997,43.7008 Z M 18.0118,32.4803 L 17.7165,32.4803 L 17.4213,32.7756 L 16.8307,32.7756 L 16.5354,32.7756 L 16.2402,32.7756 L 15.9449,32.7756 L 15.6496,32.7756 L 15.6496,32.7756 L 15.6496,32.7756 L 15.3543,32.7756 L 15.0591,32.7756 L 15.0591,33.0709 L 15.0591,33.0709 L 15.0591,33.3661 L 14.7638,33.3661 L 14.7638,33.6614 L 14.7638,33.9567 L 15.0591,34.5472 L 15.0591,35.1378 L 15.0591,35.7283 L 14.7638,36.0236 L 14.7638,36.0236 L 14.7638,36.0236 L 14.4685,36.3189 L 13.878,36.0236 L 13.5827,36.0236 L 12.9921,36.0236 L 12.6969,36.0236 L 12.4016,36.3189 L 12.1063,36.3189 L 11.811,36.6142 L 11.5158,36.9094 L 10.9252,37.7953 L 10.6299,38.3858 L 10.6299,39.2716 L 11.2205,39.8622 L 10.9252,40.1575 L 10.6299,40.1575 L 10.6299,40.4527 L 10.6299,40.4527 L 10.3347,40.4527 L 10.0394,40.4527 L 9.7441,40.4527 L 9.44880000000001,40.4527 L 9.15359999999998,40.4527 L 8.56299999999999,40.4527 L 8.56299999999999,40.4527 L 8.56299999999999,40.4527 L 8.26769999999999,40.4527 L 7.97249999999997,40.748 L 7.97249999999997,40.748 L 7.97249999999997,40.748 L 7.67719999999997,41.0433 L 7.67719999999997,41.0433 L 7.67719999999997,41.3386 L 7.67719999999997,41.3386 L 7.67719999999997,41.6339 L 7.67719999999997,42.2244 L 7.67719999999997,43.1102 L 7.67719999999997,43.7008 L 7.38189999999997,43.7008 L 7.38189999999997,43.9961 L 7.08659999999998,44.2913 L 7.08659999999998,44.2913 L 6.79140000000001,44.2913 L 6.49610000000001,44.2913 L 6.20080000000002,44.2913 L 5.6103,44.5866 L 5.0197,44.5866 L 4.7244,44.5866 L 4.13389999999998,44.5866 L 3.83859999999999,44.5866 L 16.8307,30.4134 L 18.6024,31.8898 L 18.3071,32.185 L 18.3071,32.185 L 18.0118,32.4803 L 18.0118,32.4803 L 18.0118,32.4803 Z M 22.441,30.4134 L 22.1457,30.7087 L 21.8504,30.7087 L 21.8504,31.0039 L 21.5551,31.2992 L 21.2599,31.2992 L 21.2599,31.2992 L 20.9646,31.2992 L 20.6693,31.2992 L 20.0788,31.2992 L 19.7835,31.2992 L 19.4882,31.2992 L 19.4882,31.2992 L 19.4882,31.2992 L 19.1929,31.2992 L 19.1929,31.2992 L 19.1929,31.2992 L 17.4213,29.8228 L 17.126,29.5276 L 15.6496,28.0512 L 2.06689999999998,42.815 L 2.06689999999998,42.5197 L 2.06689999999998,42.2244 L 2.06689999999998,41.9291 L 2.06689999999998,41.9291 L 2.06689999999998,41.6339 L 2.65749999999997,41.0433 L 3.24799999999999,40.1575 L 4.13389999999998,39.2716 L 5.315,38.3858 L 6.20080000000002,37.2047 L 7.38189999999997,36.0236 L 8.56299999999999,34.5472 L 9.7441,33.3661 L 10.9252,32.185 L 12.1063,31.0039 L 12.9921,29.8228 L 13.878,28.937 L 14.4685,28.3465 L 14.7638,28.0512 L 14.7638,27.7559 L 15.0591,27.7559 L 15.0591,27.4606 L 15.0591,27.4606 L 15.0591,27.1654 L 15.0591,26.8701 L 15.0591,26.2795 L 15.0591,25.689 L 15.0591,25.0984 L 15.3543,24.8031 L 15.6496,24.5079 L 15.9449,24.2126 L 15.9449,23.9173 L 16.2402,23.9173 L 16.2402,23.622 L 16.2402,23.3268 L 16.2402,23.0315 L 15.9449,22.7362 L 15.6496,21.8504 L 15.3543,20.6693 L 15.0591,19.7835 L 15.3543,19.4882 L 15.9449,19.1929 L 16.2402,18.3071 L 17.126,17.7165 L 17.7165,17.126 L 18.3071,16.5354 L 18.8977,15.9449 L 19.1929,15.6496 L 19.1929,15.6496 L 19.7835,15.6496 L 20.0788,15.9449 L 20.374,16.2402 L 20.9646,16.2402 L 21.2599,16.5354 L 21.5551,16.8307 L 22.1457,17.126 L 22.1457,17.126 L 22.1457,17.126 L 22.1457,17.126 L 22.1457,17.126 L 22.441,17.4213 L 22.7362,17.7165 L 23.0315,18.0118 L 23.3268,18.3071 L 23.9173,18.6024 L 24.2126,19.1929 L 24.5079,19.4882 L 24.8032,19.4882 L 24.8032,19.7835 L 25.0984,20.0787 L 25.0984,20.374 L 25.3937,20.6693 L 25.689,20.6693 L 25.9843,20.9646 L 26.2795,20.9646 L 26.5748,20.9646 L 26.8701,20.9646 L 27.4606,20.9646 L 27.7559,20.6693 L 27.7559,20.374 L 28.3465,19.7835 L 28.3465,19.1929 L 28.3465,18.6024 L 27.7559,18.0118 L 27.4606,17.7165 L 27.1654,17.4213 L 26.8701,17.4213 L 26.5748,17.4213 L 26.2795,17.4213 L 25.9843,17.126 L 25.689,17.126 L 25.3937,16.8307 L 25.689,16.5354 L 26.2795,16.5354 L 26.5748,16.5354 L 26.8701,16.5354 L 27.1654,16.5354 L 27.4606,16.8307 L 28.0512,17.126 L 28.3465,17.4213 L 28.3465,17.4213 L 28.3465,17.4213 L 28.3465,17.4213 L 28.6417,17.4213 L 28.937,18.0118 L 29.2323,18.8976 L 29.2323,19.7835 L 28.6417,21.2598 L 28.3465,21.2598 L 28.3465,21.5551 L 28.3465,21.8504 L 28.3465,22.1457 L 28.3465,22.1457 L 28.6417,22.7362 L 28.937,23.3268 L 29.5276,23.9173 L 29.8228,24.8031 L 30.1181,25.3937 L 30.4134,25.9842 L 30.7087,26.5748 L 30.4134,26.8701 L 29.8228,27.4606 L 29.2323,28.0512 L 28.6417,28.6417 L 28.0512,29.5276 L 27.4606,30.1181 L 26.8701,30.7087 L 26.5748,31.0039 L 26.2795,30.7087 L 25.9843,30.7087 L 25.3937,30.4134 L 24.8032,30.4134 L 24.2126,30.1181 L 23.9173,30.1181 L 23.6221,30.1181 L 23.3268,29.8228 L 23.3268,29.8228 L 23.0315,29.8228 L 22.7362,30.1181 L 22.441,30.1181 L 22.441,30.1181 L 22.441,30.4134 L 22.441,30.4134 L 22.441,30.4134 L 22.441,30.4134 Z M 24.2126,15.3543 L 23.6221,14.4685 L 23.3268,13.2874 L 23.0315,12.1063 L 23.0315,10.6299 L 23.0315,9.15350000000001 L 23.6221,7.67720000000003 L 24.2126,6.20080000000002 L 25.3937,5.0197 L 26.5748,4.13389999999998 L 27.7559,3.24799999999999 L 29.5276,2.65750000000003 L 31.0039,2.65750000000003 L 32.7756,2.65750000000003 L 34.252,3.24799999999999 L 35.4331,4.13389999999998 L 36.6142,5.0197 L 37.7953,6.20080000000002 L 38.3858,7.67720000000003 L 38.9764,9.15350000000001 L 38.9764,10.6299 L 38.9764,12.1063 L 38.6811,13.2874 L 38.0906,14.4685 L 37.5,15.6496 L 36.6142,16.5354 L 35.7284,17.4213 L 34.8425,18.0118 L 33.6614,18.6024 L 33.0709,18.0118 L 32.7756,17.7165 L 32.185,17.126 L 31.5945,16.8307 L 31.0039,16.5354 L 30.4134,16.2402 L 29.8228,15.9449 L 29.2323,15.6496 L 28.6417,15.3543 L 28.0512,15.0591 L 27.1654,14.7638 L 26.5748,14.7638 L 25.9843,14.7638 L 25.3937,15.0591 L 24.8032,15.0591 L 24.2126,15.3543 L 24.2126,15.3543 Z M 25.3937,54.626 L 25.3937,54.3307 L 25.0984,54.3307 L 25.0984,54.3307 L 24.8032,54.0354 L 25.0984,49.6063 L 25.3937,43.4055 L 25.3937,37.5 L 25.689,34.5472 L 25.689,34.5472 L 25.9843,34.5472 L 25.9843,34.5472 L 26.2795,34.5472 L 25.9843,37.5 L 25.9843,43.1102 L 25.689,49.6063 L 25.3937,54.626 L 25.3937,54.626 Z M 29.2323,35.7283 L 28.937,36.0236 L 28.3465,36.6142 L 27.7559,37.2047 L 27.7559,37.2047 L 27.4606,37.5 L 27.4606,37.5 L 27.4606,37.7953 L 27.4606,37.7953 L 27.4606,38.0905 L 27.4606,38.0905 L 27.4606,38.3858 L 27.7559,38.3858 L 27.7559,38.6811 L 28.3465,38.9764 L 28.6417,39.5669 L 29.2323,40.1575 L 29.2323,40.1575 L 29.2323,40.4527 L 28.937,40.4527 L 28.937,40.748 L 28.6417,41.0433 L 28.3465,41.0433 L 28.0512,41.6339 L 27.7559,41.9291 L 27.4606,42.2244 L 27.4606,42.5197 L 27.1654,42.815 L 27.1654,43.1102 L 27.4606,44.2913 L 27.7559,44.8819 L 28.3465,45.4724 L 28.937,45.7677 L 28.937,46.063 L 28.937,46.3583 L 28.937,46.3583 L 28.937,46.6535 L 28.6417,46.9488 L 28.0512,47.2441 L 27.4606,47.8346 L 27.4606,47.8346 L 27.1654,48.1299 L 27.1654,48.4252 L 26.8701,48.4252 L 26.8701,48.7205 L 26.8701,48.7205 L 27.1654,49.0157 L 27.1654,49.0157 L 27.1654,49.311 L 27.4606,49.311 L 27.7559,49.9016 L 28.3465,50.4921 L 28.6417,50.7874 L 28.6417,51.0827 L 28.6417,51.3779 L 28.6417,51.6732 L 28.6417,51.9685 L 28.6417,51.9685 L 28.3465,52.2638 L 28.0512,52.559 L 27.7559,52.8543 L 27.4606,53.1496 L 27.1654,53.4449 L 26.5748,53.7401 L 26.2795,54.0354 L 27.1654,34.5472 L 29.2323,34.8425 L 29.2323,35.1378 L 29.2323,35.4331 L 29.2323,35.4331 L 29.2323,35.7283 L 29.2323,35.7283 Z M 34.252,24.8031 L 33.9567,25.689 L 33.9567,26.5748 L 33.3662,27.4606 L 33.0709,28.0512 L 32.7756,28.6417 L 32.185,29.2323 L 31.8898,29.8228 L 31.2992,30.1181 L 31.2992,30.7087 L 31.2992,31.5945 L 31.2992,31.8898 L 31.2992,32.185 L 31.0039,32.185 L 31.0039,32.185 L 31.0039,32.185 L 31.0039,32.185 L 30.7087,32.7756 L 30.1181,33.0709 L 29.8228,33.6614 L 29.5276,33.6614 L 29.5276,33.6614 L 29.5276,33.6614 L 29.5276,33.9567 L 29.5276,33.9567 L 27.1654,33.6614 L 27.1654,33.6614 L 26.5748,33.6614 L 24.8032,33.6614 L 23.9173,53.7401 L 23.9173,53.4449 L 23.6221,53.4449 L 23.3268,53.4449 L 23.3268,53.1496 L 23.3268,49.9016 L 23.6221,43.4055 L 23.9173,36.9094 L 23.9173,34.252 L 23.9173,33.9567 L 23.9173,33.6614 L 23.9173,33.6614 L 23.6221,33.6614 L 23.6221,33.3661 L 23.3268,33.0709 L 23.0315,32.7756 L 22.7362,32.4803 L 23.0315,32.4803 L 23.0315,32.185 L 23.3268,31.8898 L 23.3268,31.8898 L 23.9173,31.8898 L 24.2126,32.185 L 24.8032,32.185 L 25.3937,32.4803 L 25.9843,32.4803 L 26.2795,32.7756 L 26.5748,32.7756 L 26.8701,32.7756 L 26.8701,32.7756 L 27.1654,32.7756 L 27.4606,32.7756 L 27.7559,32.4803 L 32.4803,27.4606 L 32.7756,27.1654 L 32.7756,26.8701 L 32.7756,26.5748 L 32.7756,26.2795 L 32.4803,25.9842 L 32.185,25.689 L 31.8898,25.0984 L 31.5945,24.2126 L 31.0039,23.622 L 30.7087,22.7362 L 30.4134,22.1457 L 30.1181,21.8504 L 30.7087,20.9646 L 31.0039,20.0787 L 31.0039,19.1929 L 31.0039,18.6024 L 31.5945,19.1929 L 32.185,19.4882 L 32.7756,20.374 L 33.3662,20.9646 L 33.6614,21.8504 L 33.9567,22.7362 L 33.9567,23.622 L 34.252,24.8031 L 34.252,24.8031 Z M 34.5473,20.0787 L 34.5473,19.7835 L 34.252,19.4882 L 34.252,19.4882 L 34.252,19.1929 L 35.4331,18.6024 L 36.6142,17.7165 L 37.5,16.8307 L 38.3858,15.9449 L 38.9764,14.7638 L 39.5669,13.5827 L 39.8622,12.1063 L 39.8622,10.6299 L 39.8622,8.85829999999999 L 39.2717,7.08659999999998 L 38.3858,5.61020000000002 L 37.2047,4.42910000000001 L 36.0236,3.24799999999999 L 34.5473,2.36219999999997 L 32.7756,2.06689999999998 L 31.0039,1.77170000000001 L 29.2323,2.06689999999998 L 27.4606,2.36219999999997 L 25.9843,3.24799999999999 L 24.5079,4.42910000000001 L 23.6221,5.61020000000002 L 22.7362,7.08659999999998 L 22.1457,8.85829999999999 L 22.1457,10.6299 L 22.1457,12.1063 L 22.441,13.2874 L 22.7362,14.4685 L 23.3268,15.6496 L 23.6221,15.9449 L 24.2126,16.5354 L 24.5079,16.8307 L 24.8032,17.4213 L 24.8032,17.4213 L 25.0984,17.4213 L 25.3937,17.7165 L 25.3937,17.7165 L 25.689,18.0118 L 25.9843,18.0118 L 25.9843,18.3071 L 26.2795,18.3071 L 26.2795,18.6024 L 26.5748,18.6024 L 26.5748,18.6024 L 26.5748,18.6024 L 26.8701,18.6024 L 26.8701,18.8976 L 26.8701,18.8976 L 26.8701,19.1929 L 26.8701,19.1929 L 26.8701,19.1929 L 26.8701,19.1929 L 26.8701,19.1929 L 26.8701,19.1929 L 26.5748,19.4882 L 26.5748,19.4882 L 26.2795,19.4882 L 26.2795,19.4882 L 25.9843,19.1929 L 25.9843,19.1929 L 25.689,19.1929 L 25.689,18.8976 L 25.3937,18.8976 L 25.0984,18.6024 L 25.0984,18.6024 L 24.8032,18.3071 L 24.5079,18.3071 L 24.2126,18.0118 L 23.9173,17.7165 L 23.6221,17.4213 L 23.3268,17.126 L 23.3268,16.8307 L 23.0315,16.5354 L 22.7362,16.2402 L 22.441,15.6496 L 22.441,15.3543 L 22.1457,15.0591 L 21.5551,13.878 L 21.2599,12.9921 L 21.2599,11.811 L 21.2599,10.6299 L 21.2599,8.85829999999999 L 21.8504,6.79129999999998 L 22.7362,5.315 L 23.9173,3.83859999999999 L 25.3937,2.65750000000003 L 27.1654,1.47640000000001 L 28.937,1.18110000000001 L 31.0039,0.885800000000017 L 33.0709,1.18110000000001 L 34.8425,1.47640000000001 L 36.3189,2.65750000000003 L 38.0906,3.83859999999999 L 39.2717,5.315 L 40.1575,6.79129999999998 L 40.748,8.85829999999999 L 40.748,10.6299 L 40.748,12.4016 L 40.4528,13.5827 L 39.8622,15.0591 L 39.2717,16.2402 L 38.0906,17.4213 L 37.2047,18.3071 L 36.0236,19.1929 L 34.5473,20.0787 L 34.5473,20.0787 Z " fill="#000000" stroke-width="1px" stroke="#000000"/>
        <path d="M 23.3268,29.8228 L 23.6221,30.1181 L 23.9173,30.1181 L 24.2126,30.1181 L 24.8032,30.4134 L 25.3937,30.4134 L 25.9843,30.7087 L 26.2795,30.7087 L 26.5748,31.0039 L 26.8701,30.7087 L 27.4606,30.1181 L 28.0512,29.5276 L 28.6417,28.6417 L 29.2323,28.0512 L 29.8228,27.4606 L 30.4134,26.8701 L 30.7087,26.5748 L 30.4134,25.9842 L 30.1181,25.3937 L 29.8228,24.8031 L 29.5276,23.9173 L 28.937,23.3268 L 28.6417,22.7362 L 28.3465,22.1457 L 28.3465,22.1457 L 28.3465,21.8504 L 28.3465,21.5551 L 28.3465,21.2598 L 28.6417,21.2598 L 29.2323,19.7835 L 29.2323,18.8976 L 28.937,18.0118 L 28.6417,17.4213 L 28.3465,17.4213 L 28.3465,17.4213 L 28.3465,17.4213 L 28.3465,17.4213 L 28.0512,17.126 L 27.4606,16.8307 L 27.1654,16.5354 L 26.8701,16.5354 L 26.5748,16.5354 L 26.2795,16.5354 L 25.689,16.5354 L 25.3937,16.8307 L 25.689,17.126 L 25.9843,17.126 L 26.2795,17.4213 L 26.5748,17.4213 L 26.8701,17.4213 L 27.1654,17.4213 L 27.4606,17.7165 L 27.7559,18.0118 L 28.3465,18.6024 L 28.3465,19.1929 L 28.3465,19.7835 L 27.7559,20.374 L 27.7559,20.6693 L 27.4606,20.9646 L 26.8701,20.9646 L 26.5748,20.9646 L 26.2795,20.9646 L 25.9843,20.9646 L 25.689,20.6693 L 25.3937,20.6693 L 25.0984,20.374 L 25.0984,20.0787 L 24.8032,19.7835 L 24.8032,19.4882 L 24.5079,19.4882 L 24.2126,19.1929 L 23.9173,18.6024 L 23.3268,18.3071 L 23.0315,18.0118 L 22.7362,17.7165 L 22.441,17.4213 L 22.1457,17.126 L 22.1457,17.126 L 22.1457,17.126 L 22.1457,17.126 L 22.1457,17.126 L 21.5551,16.8307 L 21.2599,16.5354 L 20.9646,16.2402 L 20.374,16.2402 L 20.0788,15.9449 L 19.7835,15.6496 L 19.1929,15.6496 L 19.1929,15.6496 L 18.8977,15.9449 L 18.3071,16.5354 L 17.7165,17.126 L 17.126,17.7165 L 16.2402,18.3071 L 15.9449,19.1929 L 15.3543,19.4882 L 15.0591,19.7835 L 15.3543,20.6693 L 15.6496,21.8504 L 15.9449,22.7362 L 16.2402,23.0315 L 16.2402,23.3268 L 16.2402,23.622 L 16.2402,23.9173 L 15.9449,23.9173 L 15.9449,24.2126 L 15.6496,24.5079 L 15.3543,24.8031 L 15.0591,25.0984 L 15.0591,25.689 L 15.0591,26.2795 L 15.0591,26.8701 L 15.0591,27.1654 L 15.0591,27.4606 L 15.0591,27.4606 L 15.0591,27.7559 L 14.7638,27.7559 L 14.7638,28.0512 L 14.4685,28.3465 L 13.878,28.937 L 12.9921,29.8228 L 12.1063,31.0039 L 10.9252,32.185 L 9.7441,33.3661 L 8.56299999999999,34.5472 L 7.38189999999997,36.0236 L 6.20080000000002,37.2047 L 5.315,38.3858 L 4.13389999999998,39.2716 L 3.24799999999999,40.1575 L 2.65749999999997,41.0433 L 2.06689999999998,41.6339 L 2.06689999999998,41.9291 L 2.06689999999998,41.9291 L 2.06689999999998,42.2244 L 2.06689999999998,42.5197 L 2.06689999999998,42.815 L 15.6496,28.0512 L 17.126,29.5276 L 17.4213,29.8228 L 19.1929,31.2992 L 19.1929,31.2992 L 19.1929,31.2992 L 19.4882,31.2992 L 19.4882,31.2992 L 19.4882,31.2992 L 19.7835,31.2992 L 20.0788,31.2992 L 20.6693,31.2992 L 20.9646,31.2992 L 21.2599,31.2992 L 21.2599,31.2992 L 21.5551,31.2992 L 21.8504,31.0039 L 21.8504,30.7087 L 22.1457,30.7087 L 22.441,30.4134 L 22.441,30.4134 L 22.441,30.4134 L 22.441,30.1181 L 22.441,30.1181 L 22.7362,30.1181 L 23.0315,29.8228 L 23.3268,29.8228 L 23.3268,29.8228 L 23.3268,29.8228 Z " fill="#C1DAEA" stroke-width="1px" stroke="#C1DAEA"/>
        <path d="M 3.83859999999999,44.5866 L 4.13389999999998,44.5866 L 4.7244,44.5866 L 5.0197,44.5866 L 5.6103,44.5866 L 6.20080000000002,44.2913 L 6.49610000000001,44.2913 L 6.79140000000001,44.2913 L 7.08659999999998,44.2913 L 7.08659999999998,44.2913 L 7.38189999999997,43.9961 L 7.38189999999997,43.7008 L 7.67719999999997,43.7008 L 7.67719999999997,43.1102 L 7.67719999999997,42.2244 L 7.67719999999997,41.6339 L 7.67719999999997,41.3386 L 7.67719999999997,41.3386 L 7.67719999999997,41.0433 L 7.67719999999997,41.0433 L 7.97249999999997,40.748 L 7.97249999999997,40.748 L 7.97249999999997,40.748 L 8.26769999999999,40.4527 L 8.56299999999999,40.4527 L 8.56299999999999,40.4527 L 8.56299999999999,40.4527 L 9.15359999999998,40.4527 L 9.44880000000001,40.4527 L 9.7441,40.4527 L 10.0394,40.4527 L 10.3347,40.4527 L 10.6299,40.4527 L 10.6299,40.4527 L 10.6299,40.1575 L 10.9252,40.1575 L 11.2205,39.8622 L 10.6299,39.2716 L 10.6299,38.3858 L 10.9252,37.7953 L 11.5158,36.9094 L 11.811,36.6142 L 12.1063,36.3189 L 12.4016,36.3189 L 12.6969,36.0236 L 12.9921,36.0236 L 13.5827,36.0236 L 13.878,36.0236 L 14.4685,36.3189 L 14.7638,36.0236 L 14.7638,36.0236 L 14.7638,36.0236 L 15.0591,35.7283 L 15.0591,35.1378 L 15.0591,34.5472 L 14.7638,33.9567 L 14.7638,33.6614 L 14.7638,33.3661 L 15.0591,33.3661 L 15.0591,33.0709 L 15.0591,33.0709 L 15.0591,32.7756 L 15.3543,32.7756 L 15.6496,32.7756 L 15.6496,32.7756 L 15.6496,32.7756 L 15.9449,32.7756 L 16.2402,32.7756 L 16.5354,32.7756 L 16.8307,32.7756 L 17.4213,32.7756 L 17.7165,32.4803 L 18.0118,32.4803 L 18.0118,32.4803 L 18.3071,32.185 L 18.3071,32.185 L 18.6024,31.8898 L 16.8307,30.4134 L 3.83859999999999,44.5866 L 3.83859999999999,44.5866 Z " fill="#C1DAEA" stroke-width="1px" stroke="#C1DAEA"/>
        <path d="M 15.9449,29.2323 L 15.6496,29.5276 L 15.0591,30.1181 L 14.7638,30.7087 L 13.878,31.2992 L 12.9921,32.4803 L 12.1063,33.3661 L 10.9252,34.5472 L 9.7441,35.7283 L 8.85829999999999,36.9094 L 7.67719999999997,38.0905 L 6.49610000000001,39.2716 L 5.6103,40.4527 L 4.7244,41.3386 L 3.83859999999999,42.2244 L 3.24799999999999,43.1102 L 2.65749999999997,43.7008 L 2.65749999999997,43.7008 L 2.65749999999997,43.9961 L 2.65749999999997,43.9961 L 2.95279999999997,44.2913 L 3.54329999999999,43.7008 L 4.13389999999998,42.815 L 5.0197,41.9291 L 6.20080000000002,40.748 L 7.08659999999998,39.5669 L 8.26769999999999,38.3858 L 9.44880000000001,37.2047 L 10.3347,36.0236 L 11.5158,34.8425 L 12.6969,33.6614 L 13.5827,32.7756 L 14.4685,31.8898 L 15.0591,31.0039 L 15.6496,30.4134 L 15.9449,29.8228 L 16.2402,29.8228 L 16.2402,29.5276 L 15.9449,29.5276 L 15.9449,29.5276 L 15.9449,29.2323 L 15.9449,29.2323 Z " fill="#3A99C5" stroke-width="1px" stroke="#3A99C5"/>
        <path d="M 26.2795,54.0354 L 26.5748,53.7401 L 27.1654,53.4449 L 27.4606,53.1496 L 27.7559,52.8543 L 28.0512,52.559 L 28.3465,52.2638 L 28.6417,51.9685 L 28.6417,51.9685 L 28.6417,51.6732 L 28.6417,51.3779 L 28.6417,51.0827 L 28.6417,50.7874 L 28.3465,50.4921 L 27.7559,49.9016 L 27.4606,49.311 L 27.1654,49.311 L 27.1654,49.0157 L 27.1654,49.0157 L 26.8701,48.7205 L 26.8701,48.7205 L 26.8701,48.4252 L 27.1654,48.4252 L 27.1654,48.1299 L 27.4606,47.8346 L 27.4606,47.8346 L 28.0512,47.2441 L 28.6417,46.9488 L 28.937,46.6535 L 28.937,46.3583 L 28.937,46.3583 L 28.937,46.063 L 28.937,45.7677 L 28.3465,45.4724 L 27.7559,44.8819 L 27.4606,44.2913 L 27.1654,43.1102 L 27.1654,42.815 L 27.4606,42.5197 L 27.4606,42.2244 L 27.7559,41.9291 L 28.0512,41.6339 L 28.3465,41.0433 L 28.6417,41.0433 L 28.937,40.748 L 28.937,40.4527 L 29.2323,40.4527 L 29.2323,40.1575 L 29.2323,40.1575 L 28.6417,39.5669 L 28.3465,38.9764 L 27.7559,38.6811 L 27.7559,38.3858 L 27.4606,38.3858 L 27.4606,38.0905 L 27.4606,38.0905 L 27.4606,37.7953 L 27.4606,37.7953 L 27.4606,37.5 L 27.4606,37.5 L 27.7559,37.2047 L 27.7559,37.2047 L 28.3465,36.6142 L 28.937,36.0236 L 29.2323,35.7283 L 29.2323,35.4331 L 29.2323,35.4331 L 29.2323,35.1378 L 29.2323,34.8425 L 27.1654,34.5472 L 26.2795,54.0354 L 26.2795,54.0354 Z " fill="#C1DAEA" stroke-width="1px" stroke="#C1DAEA"/>
        <path d="M 31.0039,0.885800000000017 L 28.937,1.18110000000001 L 27.1654,1.47640000000001 L 25.3937,2.65750000000003 L 23.9173,3.83859999999999 L 22.7362,5.315 L 21.8504,6.79129999999998 L 21.2599,8.85829999999999 L 21.2599,10.6299 L 21.2599,11.811 L 21.2599,12.9921 L 21.5551,13.878 L 22.1457,15.0591 L 22.441,15.3543 L 22.441,15.6496 L 22.7362,16.2402 L 23.0315,16.5354 L 23.3268,16.8307 L 23.3268,17.126 L 23.6221,17.4213 L 23.9173,17.7165 L 24.2126,18.0118 L 24.5079,18.3071 L 24.8032,18.3071 L 25.0984,18.6024 L 25.0984,18.6024 L 25.3937,18.8976 L 25.689,18.8976 L 25.689,19.1929 L 25.9843,19.1929 L 25.9843,19.1929 L 26.2795,19.4882 L 26.2795,19.4882 L 26.5748,19.4882 L 26.5748,19.4882 L 26.8701,19.1929 L 26.8701,19.1929 L 26.8701,19.1929 L 26.8701,19.1929 L 26.8701,19.1929 L 26.8701,19.1929 L 26.8701,18.8976 L 26.8701,18.8976 L 26.8701,18.6024 L 26.5748,18.6024 L 26.5748,18.6024 L 26.5748,18.6024 L 26.2795,18.6024 L 26.2795,18.3071 L 25.9843,18.3071 L 25.9843,18.0118 L 25.689,18.0118 L 25.3937,17.7165 L 25.3937,17.7165 L 25.0984,17.4213 L 24.8032,17.4213 L 24.8032,17.4213 L 24.5079,16.8307 L 24.2126,16.5354 L 23.6221,15.9449 L 23.3268,15.6496 L 22.7362,14.4685 L 22.441,13.2874 L 22.1457,12.1063 L 22.1457,10.6299 L 22.1457,8.85829999999999 L 22.7362,7.08659999999998 L 23.6221,5.61020000000002 L 24.5079,4.42910000000001 L 25.9843,3.24799999999999 L 27.4606,2.36219999999997 L 29.2323,2.06689999999998 L 31.0039,1.77170000000001 L 32.7756,2.06689999999998 L 34.5473,2.36219999999997 L 36.0236,3.24799999999999 L 37.2047,4.42910000000001 L 38.3858,5.61020000000002 L 39.2717,7.08659999999998 L 39.8622,8.85829999999999 L 39.8622,10.6299 L 39.8622,12.1063 L 39.5669,13.5827 L 38.9764,14.7638 L 38.3858,15.9449 L 37.5,16.8307 L 36.6142,17.7165 L 35.4331,18.6024 L 34.252,19.1929 L 34.252,19.4882 L 34.252,19.4882 L 34.5473,19.7835 L 34.5473,20.0787 L 36.0236,19.1929 L 37.2047,18.3071 L 38.0906,17.4213 L 39.2717,16.2402 L 39.8622,15.0591 L 40.4528,13.5827 L 40.748,12.4016 L 40.748,10.6299 L 40.748,8.85829999999999 L 40.1575,6.79129999999998 L 39.2717,5.315 L 38.0906,3.83859999999999 L 36.3189,2.65750000000003 L 34.8425,1.47640000000001 L 33.0709,1.18110000000001 L 31.0039,0.885800000000017 L 31.0039,0.885800000000017 Z " fill="#3A99C5" stroke-width="1px" stroke="#3A99C5"/>
        <path d="M 24.8032,54.0354 L 25.0984,54.3307 L 25.0984,54.3307 L 25.3937,54.3307 L 25.3937,54.626 L 25.689,49.6063 L 25.9843,43.1102 L 25.9843,37.5 L 26.2795,34.5472 L 25.9843,34.5472 L 25.9843,34.5472 L 25.689,34.5472 L 25.689,34.5472 L 25.3937,37.5 L 25.3937,43.4055 L 25.0984,49.6063 L 24.8032,54.0354 L 24.8032,54.0354 Z " fill="#3A99C5" stroke-width="1px" stroke="#3A99C5"/>
        <path d="M 31.0039,18.6024 L 31.0039,19.1929 L 31.0039,20.0787 L 30.7087,20.9646 L 30.1181,21.8504 L 30.4134,22.1457 L 30.7087,22.7362 L 31.0039,23.622 L 31.5945,24.2126 L 31.8898,25.0984 L 32.185,25.689 L 32.4803,25.9842 L 32.7756,26.2795 L 32.7756,26.5748 L 32.7756,26.8701 L 32.7756,27.1654 L 32.4803,27.4606 L 27.7559,32.4803 L 27.4606,32.7756 L 27.1654,32.7756 L 26.8701,32.7756 L 26.8701,32.7756 L 26.5748,32.7756 L 26.2795,32.7756 L 25.9843,32.4803 L 25.3937,32.4803 L 24.8032,32.185 L 24.2126,32.185 L 23.9173,31.8898 L 23.3268,31.8898 L 23.3268,31.8898 L 23.0315,32.185 L 23.0315,32.4803 L 22.7362,32.4803 L 23.0315,32.7756 L 23.3268,33.0709 L 23.6221,33.3661 L 23.6221,33.6614 L 23.9173,33.6614 L 23.9173,33.6614 L 23.9173,33.9567 L 23.9173,34.252 L 23.9173,36.9094 L 23.6221,43.4055 L 23.3268,49.9016 L 23.3268,53.1496 L 23.3268,53.4449 L 23.6221,53.4449 L 23.9173,53.4449 L 23.9173,53.7401 L 24.8032,33.6614 L 26.5748,33.6614 L 27.1654,33.6614 L 27.1654,33.6614 L 29.5276,33.9567 L 29.5276,33.9567 L 29.5276,33.6614 L 29.5276,33.6614 L 29.5276,33.6614 L 29.8228,33.6614 L 30.1181,33.0709 L 30.7087,32.7756 L 31.0039,32.185 L 31.0039,32.185 L 31.0039,32.185 L 31.0039,32.185 L 31.2992,32.185 L 31.2992,31.8898 L 31.2992,31.5945 L 31.2992,30.7087 L 31.2992,30.1181 L 31.8898,29.8228 L 32.185,29.2323 L 32.7756,28.6417 L 33.0709,28.0512 L 33.3662,27.4606 L 33.9567,26.5748 L 33.9567,25.689 L 34.252,24.8031 L 33.9567,23.622 L 33.9567,22.7362 L 33.6614,21.8504 L 33.3662,20.9646 L 32.7756,20.374 L 32.185,19.4882 L 31.5945,19.1929 L 31.0039,18.6024 L 31.0039,18.6024 Z " fill="#C1DAEA" stroke-width="1px" stroke="#C1DAEA"/>
        <path d="M 17.4213,23.622 L 16.2402,20.0787 L 20.0788,15.9449 L 19.7835,15.9449 L 19.4882,15.6496 L 19.1929,15.6496 L 19.1929,15.6496 L 18.8977,15.9449 L 18.3071,16.5354 L 17.7165,17.126 L 17.126,17.7165 L 16.2402,18.3071 L 15.9449,19.1929 L 15.3543,19.4882 L 15.0591,19.7835 L 15.3543,20.6693 L 15.6496,21.8504 L 15.9449,22.7362 L 16.2402,23.0315 L 16.2402,23.3268 L 16.2402,23.622 L 16.2402,23.9173 L 15.9449,23.9173 L 15.9449,24.2126 L 15.6496,24.5079 L 15.3543,24.8031 L 15.0591,25.0984 L 15.0591,25.689 L 15.0591,26.2795 L 15.0591,26.8701 L 15.0591,27.1654 L 15.0591,27.4606 L 15.0591,27.4606 L 15.0591,27.7559 L 14.7638,27.7559 L 14.7638,28.0512 L 14.4685,28.3465 L 13.878,28.937 L 12.9921,29.8228 L 12.1063,31.0039 L 10.9252,32.185 L 9.7441,33.3661 L 8.56299999999999,34.5472 L 7.38189999999997,36.0236 L 6.20080000000002,37.2047 L 5.315,38.3858 L 4.13389999999998,39.2716 L 3.24799999999999,40.1575 L 2.65749999999997,41.0433 L 2.06689999999998,41.6339 L 2.06689999999998,41.9291 L 2.06689999999998,41.9291 L 2.06689999999998,42.2244 L 2.06689999999998,42.5197 L 2.06689999999998,42.815 L 15.6496,28.0512 L 15.6496,25.3937 L 17.4213,23.622 L 17.4213,23.622 Z " fill="#FFFFFF" stroke-width="1px" stroke="#FFFFFF"/>
        <path d="M 22.7362,32.4803 L 23.0315,32.7756 L 23.3268,33.0709 L 23.6221,33.3661 L 23.6221,33.6614 L 23.9173,33.6614 L 23.9173,33.6614 L 23.9173,33.9567 L 23.9173,34.252 L 23.9173,36.9094 L 23.6221,43.4055 L 23.3268,49.9016 L 23.3268,53.1496 L 23.3268,53.4449 L 23.6221,53.4449 L 23.9173,53.4449 L 23.9173,53.7401 L 24.8032,33.6614 L 23.3268,32.185 L 23.0315,32.185 L 23.0315,32.185 L 23.0315,32.4803 L 22.7362,32.4803 L 22.7362,32.4803 Z " fill="#FFFFFF" stroke-width="1px" stroke="#FFFFFF"/>
      </g>
      <!--emf-blob end-->
    </g>
  </g>
</svg>

