<svg xmlns="http://www.w3.org/2000/svg" xmlns:xlink="http://www.w3.org/1999/xlink" version="1.1" viewBox="0 0 153 102" >
  <title><![CDATA[Laptop]]></title>
  <g transform=" scale(3.000000) ">
    <!--converted by libvisio2svg-->
    <g>
      <!--emf-blob start-->
      <g>
        <path d="M 49.0022,0 L 50.183,1.476 L 46.9359,19.778 L 45.4599,18.8925 L 49.0022,0 Z " fill="#0F73A0" stroke="#FFFFFF" stroke-width="0.4428" stroke-linecap="butt" stroke-linejoin="miter"/>
        <path d="M 13.5789,18.8925 L 14.7597,19.778 L 46.9359,19.778 L 45.4599,18.8925 L 13.5789,18.8925 Z " fill="#000000" stroke="#FFFFFF" stroke-width="0.4428" stroke-linecap="butt" stroke-linejoin="miter"/>
        <path d="M 45.7551,20.3684 C 45.7551,23.3204 45.7551,23.3204 45.7551,23.3204 C 44.8695,24.206 44.8695,24.206 44.8695,24.206 C 44.8695,24.206 42.8032,24.7963 43.3935,25.9771 C 34.5377,33.9474 34.5377,33.9474 34.5377,33.9474 C 34.5377,30.405 34.5377,30.405 34.5377,30.405 Z Z " fill="#0F73A0" stroke="#FFFFFF" stroke-width="0.4428" stroke-linecap="butt" stroke-linejoin="miter"/>
        <path d="M 0,30.405 L 0,33.9474 L 34.5377,33.9474 L 34.5377,30.405 L 0,30.405 Z " fill="#0F73A0" stroke-width="1px" stroke="#0F73A0"/>
        <path d="M 0,30.405 L 0,33.9474 L 34.5377,33.9474 L 34.5377,30.405 L 0,30.405 " stroke="#FFFFFF" stroke-width="0.4428" stroke-linecap="butt" stroke-linejoin="miter" fill="none"/>
        <path d="M 13.8741,20.3684 L 45.7551,20.3684 L 34.5377,30.405 L 0,30.405 L 13.8741,20.3684 Z " fill="#0F73A0" stroke="#FFFFFF" stroke-width="0.4428" stroke-linecap="butt" stroke-linejoin="miter"/>
        <path d="M 45.4599,18.8925 L 49.0022,0 L 17.7116,0 L 13.5789,18.8925 L 45.4599,18.8925 Z " fill="#0F73A0" stroke="#FFFFFF" stroke-width="0.4428" stroke-linecap="butt" stroke-linejoin="miter"/>
        <path d="M 42.8032,16.5309 L 45.4599,2.36160000000001 L 20.0732,2.36160000000001 L 17.1213,16.5309 L 42.8032,16.5309 Z " fill="#0F73A0" stroke="#FFFFFF" stroke-width="0.4428" stroke-linecap="butt" stroke-linejoin="miter"/>
        <path d="M 14.4645,20.6636 L 6.49430000000001,27.1579 " stroke="#FFFFFF" stroke-width="0" stroke-linecap="butt" stroke-linejoin="round" fill="none"/>
        <path d="M 17.1213,20.6636 L 9.15100000000001,27.1579 " stroke="#FFFFFF" stroke-width="0" stroke-linecap="butt" stroke-linejoin="round" fill="none"/>
        <path d="M 19.778,20.6636 L 11.8078,27.1579 " stroke="#FFFFFF" stroke-width="0" stroke-linecap="butt" stroke-linejoin="round" fill="none"/>
        <path d="M 22.4347,20.6636 L 14.1693,27.1579 " stroke="#FFFFFF" stroke-width="0" stroke-linecap="butt" stroke-linejoin="round" fill="none"/>
        <path d="M 24.7963,20.6636 L 16.8261,27.1579 " stroke="#FFFFFF" stroke-width="0" stroke-linecap="butt" stroke-linejoin="round" fill="none"/>
        <path d="M 27.4531,20.6636 L 19.4828,27.1579 " stroke="#FFFFFF" stroke-width="0" stroke-linecap="butt" stroke-linejoin="round" fill="none"/>
        <path d="M 30.1098,20.6636 L 22.1396,27.1579 " stroke="#FFFFFF" stroke-width="0" stroke-linecap="butt" stroke-linejoin="round" fill="none"/>
        <path d="M 32.7665,20.6636 L 24.5011,27.1579 " stroke="#FFFFFF" stroke-width="0" stroke-linecap="butt" stroke-linejoin="round" fill="none"/>
        <path d="M 35.1281,20.6636 L 27.1579,27.1579 " stroke="#FFFFFF" stroke-width="0" stroke-linecap="butt" stroke-linejoin="round" fill="none"/>
        <path d="M 37.7848,20.6636 L 29.8146,27.1579 " stroke="#FFFFFF" stroke-width="0" stroke-linecap="butt" stroke-linejoin="round" fill="none"/>
        <path d="M 40.4416,20.6636 L 32.4714,27.1579 " stroke="#FFFFFF" stroke-width="0" stroke-linecap="butt" stroke-linejoin="round" fill="none"/>
        <path d="M 43.0983,20.6636 L 34.8329,27.1579 " stroke="#FFFFFF" stroke-width="0" stroke-linecap="butt" stroke-linejoin="round" fill="none"/>
        <path d="M 7.37979999999999,26.5675000000001 L 36.0137,26.5675000000001 " stroke="#FFFFFF" stroke-width="0" stroke-linecap="butt" stroke-linejoin="round" fill="none"/>
        <path d="M 9.44620000000003,25.0915 L 37.4897,25.0915 " stroke="#FFFFFF" stroke-width="0" stroke-linecap="butt" stroke-linejoin="round" fill="none"/>
        <path d="M 11.2174,23.6156 L 39.556,23.6156 " stroke="#FFFFFF" stroke-width="0" stroke-linecap="butt" stroke-linejoin="round" fill="none"/>
        <path d="M 12.9885,22.1396 L 41.3272,22.1396 " stroke="#FFFFFF" stroke-width="0" stroke-linecap="butt" stroke-linejoin="round" fill="none"/>
      </g>
      <!--emf-blob end-->
    </g>
  </g>
</svg>

