<svg xmlns="http://www.w3.org/2000/svg" xmlns:xlink="http://www.w3.org/1999/xlink" version="1.1" viewBox="0 0 171 84" >
  <title><![CDATA[Layer 2 remote switch]]></title>
  <g transform=" scale(3.000000) ">
    <!--converted by libvisio2svg-->
    <g>
      <!--emf-blob start-->
      <g>
        <path d="M 0,13.5827 L 16.8307,0 L 56.3977,0 L 42.2244,13.5827 L 0,13.5827 Z " fill="#046897" stroke="#FFFFFF" stroke-width="0.88585" stroke-linecap="butt" stroke-linejoin="miter"/>
        <path d="M 38.6811,7.08659999999998 L 39.5669,6.20069999999998 L 42.815,7.6771 L 37.2047,9.15349999999995 L 38.3858,7.38189999999997 L 28.0512,7.38189999999997 L 28.3465,7.08659999999998 L 38.6811,7.08659999999998 Z " fill="#000000" stroke-width="1px" stroke="#000000"/>
        <path d="M 32.185,3.54329999999999 L 31.8898,4.13380000000001 L 21.2598,4.13380000000001 L 19.4882,5.31489999999997 L 16.8307,3.83849999999995 L 23.0315,2.06689999999998 L 21.5551,3.54329999999999 L 32.185,3.54329999999999 Z " fill="#000000" stroke-width="1px" stroke="#000000"/>
        <path d="M 26.2795,9.44880000000001 L 25.9842,10.0393 L 15.3543,10.0393 L 13.5827,11.2204 L 10.9252,9.7441 L 17.4212,7.97239999999999 L 15.9449,9.44880000000001 L 26.2795,9.44880000000001 Z " fill="#000000" stroke-width="1px" stroke="#000000"/>
        <path d="M 44.5866,2.06689999999998 L 45.7677,1.18109999999996 L 49.0158,2.6574 L 43.1103,4.13380000000001 L 44.5866,2.6574 L 33.9567,2.6574 L 34.252,2.06689999999998 L 44.5866,2.06689999999998 Z " fill="#000000" stroke-width="1px" stroke="#000000"/>
        <path d="M 38.6811,7.38189999999997 L 39.5669,6.49599999999998 L 42.5197,7.6771 L 36.9095,9.44880000000001 L 38.3858,7.97239999999999 L 27.7559,7.97239999999999 L 28.0512,7.38189999999997 L 38.6811,7.38189999999997 Z " fill="#FFFFFF" stroke-width="1px" stroke="#FFFFFF"/>
        <path d="M 31.8898,4.13380000000001 L 31.5945,4.42910000000001 L 20.9646,4.42910000000001 L 20.0787,5.31489999999997 L 17.126,4.13380000000001 L 22.7362,2.6574 L 21.2598,4.13380000000001 L 31.8898,4.13380000000001 Z " fill="#FFFFFF" stroke-width="1px" stroke="#FFFFFF"/>
        <path d="M 42.2244,27.4606 L 56.3977,12.1063 L 56.3977,0 L 42.2244,13.5827 L 42.2244,27.4606 Z " fill="#046897" stroke="#FFFFFF" stroke-width="0.88585" stroke-linecap="butt" stroke-linejoin="miter"/>
        <path d="M 25.9842,10.0393 L 25.689,10.3346 L 15.059,10.3346 L 14.1732,11.2204 L 11.2204,10.0393 L 16.8307,8.56299999999999 L 15.3543,10.0393 L 25.9842,10.0393 Z " fill="#FFFFFF" stroke-width="1px" stroke="#FFFFFF"/>
        <path d="M 44.5866,2.6574 L 45.7677,1.47629999999998 L 48.4252,2.6574 L 42.815,4.42910000000001 L 44.2914,2.95269999999999 L 33.6614,2.95269999999999 L 33.9567,2.6574 L 44.5866,2.6574 Z " fill="#FFFFFF" stroke-width="1px" stroke="#FFFFFF"/>
        <path d="M 43.9961,2.95269999999999 L 42.5197,4.42910000000001 " stroke="#000000" stroke-width="0.4429" stroke-linecap="round" stroke-linejoin="miter" fill="none"/>
        <path d="M 37.5,8.26769999999999 L 36.9095,9.15349999999995 " stroke="#000000" stroke-width="0.4429" stroke-linecap="round" stroke-linejoin="miter" fill="none"/>
        <path d="M 28.0512,7.38189999999997 L 27.7559,7.6771 " stroke="#000000" stroke-width="0.4429" stroke-linecap="round" stroke-linejoin="miter" fill="none"/>
        <path d="M 34.252,2.36219999999997 L 33.6614,2.95269999999999 " stroke="#000000" stroke-width="0.4429" stroke-linecap="round" stroke-linejoin="miter" fill="none"/>
        <path d="M 42.2244,27.4606 L 42.2244,13.5827 L 0,13.5827 L 0,27.4606 L 42.2244,27.4606 Z " fill="#046897" stroke="#FFFFFF" stroke-width="0.88585" stroke-linecap="butt" stroke-linejoin="miter"/>
        <path d="M 11.2204,18.8976 L 11.2204,16.2401 L 11.811,16.2401 L 10.9252,15.059 L 10.3346,16.2401 L 10.6299,16.2401 L 10.6299,18.8976 L 11.2204,18.8976 Z " fill="#FFFFFF" stroke-width="1px" stroke="#FFFFFF"/>
        <path d="M 9.7441,19.1929 L 7.97239999999999,17.4212 L 8.26769999999999,17.126 L 7.08660000000003,16.8307 L 7.08660000000003,18.0118 L 7.6771,17.7165 L 9.44880000000001,19.4882 L 9.7441,19.1929 Z " fill="#FFFFFF" stroke-width="1px" stroke="#FFFFFF"/>
        <path d="M 9.15350000000001,20.374 L 6.49599999999998,20.374 L 6.49599999999998,20.0787 L 5.31490000000002,20.6693 L 6.49599999999998,21.5551 L 6.49599999999998,20.9646 L 9.15350000000001,20.9646 L 9.15350000000001,20.374 Z " fill="#FFFFFF" stroke-width="1px" stroke="#FFFFFF"/>
        <path d="M 9.44880000000001,21.8504 L 7.6771,23.9173 L 7.08660000000003,23.622 L 7.08660000000003,24.8031 L 8.26769999999999,24.5079 L 7.97239999999999,24.2126 L 9.7441,22.1457 L 9.44880000000001,21.8504 Z " fill="#FFFFFF" stroke-width="1px" stroke="#FFFFFF"/>
        <path d="M 10.6299,22.7362 L 10.6299,25.3937 L 10.3346,25.3937 L 10.9252,26.2795 L 11.811,25.3937 L 11.2204,25.3937 L 11.2204,22.7362 L 10.6299,22.7362 Z " fill="#FFFFFF" stroke-width="1px" stroke="#FFFFFF"/>
        <path d="M 12.4015,19.4882 L 14.4685,17.7165 L 14.7638,18.0118 L 15.059,16.8307 L 13.8779,17.126 L 14.1732,17.4212 L 12.1063,19.1929 L 12.4015,19.4882 Z " fill="#FFFFFF" stroke-width="1px" stroke="#FFFFFF"/>
        <path d="M 12.6968,23.0315 C 13.8779,22.1457 14.1732,20.374 13.2874,19.1929 C 12.4015,17.7165 10.6299,17.4212 9.44880000000001,18.3071 C 8.26769999999999,19.1929 7.6771,20.9646 8.85820000000001,22.4409 C 9.7441,23.622 11.5157,23.9173 12.6968,23.0315 Z Z " fill="#FFFFFF" stroke="none"/>
        <path d="M 12.4015,22.1457 L 14.4685,24.2126 L 14.1732,24.5079 L 15.3543,24.8031 L 15.059,23.622 L 14.7638,23.9173 L 12.6968,21.8504 L 12.4015,22.1457 Z " fill="#FFFFFF" stroke-width="1px" stroke="#FFFFFF"/>
        <path d="M 12.6968,20.6693 L 30.7087,20.6693 " stroke="#FFFFFF" stroke-width="1.77165" stroke-linecap="butt" stroke-linejoin="miter" fill="none"/>
        <path d="M 31.8898,21.8504 L 31.8898,23.9173 L 31.5945,23.9173 L 31.8898,24.5079 L 32.4803,23.9173 L 32.185,23.9173 L 32.185,21.8504 L 31.8898,21.8504 Z " fill="#FFFFFF" stroke-width="1px" stroke="#FFFFFF"/>
        <path d="M 32.7756,21.8504 L 34.252,23.0315 L 33.9567,23.3268 L 34.8425,23.3268 L 34.5473,22.7362 L 34.252,22.7362 L 33.0709,21.5551 L 32.7756,21.8504 Z " fill="#FFFFFF" stroke-width="1px" stroke="#FFFFFF"/>
        <path d="M 33.3661,20.6693 L 35.1378,20.6693 L 35.1378,21.2598 L 36.0236,20.6693 L 35.1378,20.0787 L 35.1378,20.374 L 33.3661,20.374 L 33.3661,20.6693 Z " fill="#FFFFFF" stroke-width="1px" stroke="#FFFFFF"/>
        <path d="M 33.0709,19.7834 L 34.252,18.6023 L 34.5473,18.6023 L 34.8425,17.7165 L 33.9567,18.0118 L 34.252,18.3071 L 32.7756,19.4882 L 33.0709,19.7834 Z " fill="#FFFFFF" stroke-width="1px" stroke="#FFFFFF"/>
        <path d="M 32.185,19.4882 L 32.185,17.4212 L 32.4803,17.4212 L 31.8898,16.8307 L 31.5945,17.4212 L 31.8898,17.4212 L 31.8898,19.4882 L 32.185,19.4882 Z " fill="#FFFFFF" stroke-width="1px" stroke="#FFFFFF"/>
        <path d="M 31.0039,21.5551 L 29.5276,22.7362 L 29.2323,22.7362 L 29.2323,23.3268 L 30.1181,23.3268 L 29.8228,23.0315 L 31.2992,21.8504 L 31.0039,21.5551 Z " fill="#FFFFFF" stroke-width="1px" stroke="#FFFFFF"/>
        <path d="M 30.7087,19.1929 C 29.8228,19.7834 29.8228,20.9646 30.4134,21.8504 C 31.0039,22.7362 32.185,23.0315 33.0709,22.4409 C 33.9567,21.5551 34.252,20.374 33.6614,19.4882 C 33.0709,18.6023 31.5945,18.3071 30.7087,19.1929 Z Z " fill="#FFFFFF" stroke="none"/>
        <path d="M 31.0039,19.4882 L 29.5276,18.3071 L 29.8228,18.0118 L 28.937,17.7165 L 29.2323,18.6023 L 29.5276,18.6023 L 30.7087,19.7834 L 31.0039,19.4882 Z " fill="#FFFFFF" stroke-width="1px" stroke="#FFFFFF"/>
      </g>
      <!--emf-blob end-->
    </g>
  </g>
</svg>

