<svg xmlns="http://www.w3.org/2000/svg" xmlns:xlink="http://www.w3.org/1999/xlink" version="1.1" viewBox="0 0 171 96" >
  <title><![CDATA[Lightweight AP]]></title>
  <g transform=" scale(3.000000) ">
    <!--converted by libvisio2svg-->
    <g>
      <!--emf-blob start-->
      <g>
        <path d="M 0,13.8763 L 16.8286,0 L 56.3907,0 L 42.2192,13.8763 L 0,13.8763 Z " fill="#046897" stroke="#FFFFFF" stroke-width="0.8857" stroke-linecap="butt" stroke-linejoin="miter"/>
        <path d="M 42.2192,31.2954 L 56.3907,16.8286 L 56.3907,0 L 42.2192,13.8763 L 42.2192,31.2954 Z " fill="#046897" stroke="#FFFFFF" stroke-width="0.8857" stroke-linecap="butt" stroke-linejoin="miter"/>
        <path d="M 42.2192,31.2954 L 42.2192,13.8763 L 0,13.8763 L 0,31.2954 L 42.2192,31.2954 Z " fill="#046897" stroke="#FFFFFF" stroke-width="0.8857" stroke-linecap="butt" stroke-linejoin="miter"/>
        <path d="M 39.8573,23.0287 C 39.8573,23.0287 36.9049,30.1144 33.6573,23.0287 C 30.1144,15.6477 27.4572,23.0287 27.4572,23.0287 C 27.4572,23.0287 24.5048,30.1144 21.2572,23.0287 C 18.0096,15.6477 15.0572,23.0287 15.0572,23.0287 C 15.0572,23.0287 12.4,30.1144 8.8571,23.0287 C 5.60949999999997,15.6477 2.65709999999996,23.0287 2.65709999999996,23.0287 Z " stroke="#FFFFFF" stroke-width="0.8857" stroke-linecap="round" stroke-linejoin="miter" fill="none"/>
        <path d="M 2.65709999999996,23.0287 C 2.65709999999996,23.0287 5.60949999999997,30.1144 8.8571,23.0287 C 12.4,15.6477 15.0572,23.0287 15.0572,23.0287 C 15.0572,23.0287 18.0096,30.1144 21.2572,23.0287 C 24.8001,15.6477 27.4572,23.0287 27.4572,23.0287 C 27.4572,23.0287 30.1144,30.1144 33.6573,23.0287 C 36.9049,15.6477 39.8573,23.0287 39.8573,23.0287 Z " stroke="#FFFFFF" stroke-width="1.77145" stroke-linecap="round" stroke-linejoin="miter" fill="none"/>
        <path d="M 40.4478,23.0287 C 40.4478,23.0287 37.7906,30.1144 34.2477,23.0287 C 31.0001,15.6477 28.0477,23.0287 28.0477,23.0287 C 28.0477,23.0287 25.3906,30.1144 21.8477,23.0287 C 18.6,15.6477 15.6477,23.0287 15.6477,23.0287 C 15.6477,23.0287 12.9905,30.1144 9.44759999999997,23.0287 C 6.19999999999999,15.6477 3.24759999999998,23.0287 3.24759999999998,23.0287 Z " stroke="#000000" stroke-width="0.8857" stroke-linecap="round" stroke-linejoin="miter" fill="none"/>
        <path d="M 3.24759999999998,23.0287 C 3.24759999999998,23.0287 6.19999999999999,30.1144 9.44759999999997,23.0287 C 12.9905,15.6477 15.6477,23.0287 15.6477,23.0287 C 15.6477,23.0287 18.6,30.1144 21.8477,23.0287 C 25.3906,15.6477 28.0477,23.0287 28.0477,23.0287 C 28.0477,23.0287 31.0001,30.1144 34.2477,23.0287 C 37.7906,15.6477 40.4478,23.0287 40.4478,23.0287 Z " stroke="#000000" stroke-width="1.77145" stroke-linecap="round" stroke-linejoin="miter" fill="none"/>
        <path d="M 39.8573,23.0287 C 39.8573,23.0287 36.9049,30.1144 33.6573,23.0287 C 30.1144,15.6477 27.4572,23.0287 27.4572,23.0287 C 27.4572,23.0287 24.5048,30.1144 21.2572,23.0287 C 18.0096,15.6477 15.0572,23.0287 15.0572,23.0287 C 15.0572,23.0287 12.4,30.1144 8.8571,23.0287 C 5.60949999999997,15.6477 2.65709999999996,23.0287 2.65709999999996,23.0287 Z " stroke="#FFFFFF" stroke-width="0.8857" stroke-linecap="round" stroke-linejoin="miter" fill="none"/>
        <path d="M 2.65709999999996,23.0287 C 2.65709999999996,23.0287 5.60949999999997,30.1144 8.8571,23.0287 C 12.4,15.6477 15.0572,23.0287 15.0572,23.0287 C 15.0572,23.0287 18.0096,30.1144 21.2572,23.0287 C 24.8001,15.6477 27.4572,23.0287 27.4572,23.0287 C 27.4572,23.0287 30.1144,30.1144 33.6573,23.0287 C 36.9049,15.6477 39.8573,23.0287 39.8573,23.0287 Z " stroke="#FFFFFF" stroke-width="1.77145" stroke-linecap="round" stroke-linejoin="miter" fill="none"/>
        <path d="M 40.4478,23.0287 C 40.4478,23.0287 37.7906,30.1144 34.2477,23.0287 C 31.0001,15.6477 28.0477,23.0287 28.0477,23.0287 C 28.0477,23.0287 25.3906,30.1144 21.8477,23.0287 C 18.6,15.6477 15.6477,23.0287 15.6477,23.0287 C 15.6477,23.0287 12.9905,30.1144 9.44759999999997,23.0287 C 6.19999999999999,15.6477 3.24759999999998,23.0287 3.24759999999998,23.0287 Z " stroke="#000000" stroke-width="0.8857" stroke-linecap="round" stroke-linejoin="miter" fill="none"/>
        <path d="M 3.24759999999998,23.0287 C 3.24759999999998,23.0287 6.19999999999999,30.1144 9.44759999999997,23.0287 C 12.9905,15.6477 15.6477,23.0287 15.6477,23.0287 C 15.6477,23.0287 18.6,30.1144 21.8477,23.0287 C 25.3906,15.6477 28.0477,23.0287 28.0477,23.0287 C 28.0477,23.0287 31.0001,30.1144 34.2477,23.0287 C 37.7906,15.6477 40.4478,23.0287 40.4478,23.0287 Z " stroke="#000000" stroke-width="1.77145" stroke-linecap="round" stroke-linejoin="miter" fill="none"/>
        <path d="M 39.8573,23.0287 C 39.8573,23.0287 36.9049,30.1144 33.6573,23.0287 C 30.1144,15.6477 27.4572,23.0287 27.4572,23.0287 C 27.4572,23.0287 24.5048,30.1144 21.2572,23.0287 C 18.0096,15.6477 15.0572,23.0287 15.0572,23.0287 C 15.0572,23.0287 12.4,30.1144 8.8571,23.0287 C 5.60949999999997,15.6477 2.65709999999996,23.0287 2.65709999999996,23.0287 Z " stroke="#FFFFFF" stroke-width="0.8857" stroke-linecap="round" stroke-linejoin="miter" fill="none"/>
        <path d="M 2.65709999999996,23.0287 C 2.65709999999996,23.0287 5.60949999999997,30.1144 8.8571,23.0287 C 12.4,15.6477 15.0572,23.0287 15.0572,23.0287 C 15.0572,23.0287 18.0096,30.1144 21.2572,23.0287 C 24.8001,15.6477 27.4572,23.0287 27.4572,23.0287 C 27.4572,23.0287 30.1144,30.1144 33.6573,23.0287 C 36.9049,15.6477 39.8573,23.0287 39.8573,23.0287 Z " stroke="#FFFFFF" stroke-width="1.77145" stroke-linecap="round" stroke-linejoin="miter" fill="none"/>
        <g transform=" scale(3.000000) ">
          <text font-family="Helvetica" fill="#FFFFFF" style="white-space:pre;" font-weight="700" text-anchor="start" x="0.0000" y="0.0000" font-size="10.6286"><![CDATA[L]]></text>
        </g>
        <g transform=" scale(3.000000) ">
</g>
        <g transform=" scale(3.000000) ">
          <text font-family="Helvetica" fill="#FFFFFF" style="white-space:pre;" font-weight="700" text-anchor="start" x="0.0000" y="0.0000" font-size="10.6286"><![CDATA[W]]></text>
        </g>
        <g transform=" scale(3.000000) ">
</g>
        <g transform=" scale(3.000000) ">
          <text font-family="Helvetica" fill="#FFFFFF" style="white-space:pre;" font-weight="700" text-anchor="start" x="0.0000" y="0.0000" font-size="10.6286"><![CDATA[APP]]></text>
        </g>
        <g transform=" scale(3.000000) ">
</g>
      </g>
      <!--emf-blob end-->
    </g>
  </g>
</svg>

