<svg xmlns="http://www.w3.org/2000/svg" xmlns:xlink="http://www.w3.org/1999/xlink" version="1.1" viewBox="0 0 132 87" >
  <title><![CDATA[Localdirector]]></title>
  <g transform=" scale(3.000000) ">
    <!--converted by libvisio2svg-->
    <g>
      <!--emf-blob start-->
      <g>
        <path d="M 0,28.6282 L 39.2531,28.6282 L 39.2531,5.60759999999999 L 0,5.60759999999999 L 0,28.6282 Z " fill="#036C9B" stroke="#FFFFFF" stroke-width="0.8854" stroke-linecap="butt" stroke-linejoin="miter"/>
        <path d="M 43.9753,21.8401 L 39.2531,28.6282 L 39.2531,5.60759999999999 L 43.9753,0 L 43.9753,21.8401 Z " fill="#036C9B" stroke="#FFFFFF" stroke-width="0.8854" stroke-linecap="butt" stroke-linejoin="miter"/>
        <path d="M 7.08330000000001,0 L 43.9753,0 L 39.2531,5.60759999999999 L 0,5.60759999999999 L 7.08330000000001,0 Z " fill="#036C9B" stroke="#FFFFFF" stroke-width="0.8854" stroke-linecap="butt" stroke-linejoin="miter"/>
        <path d="M 13.5763,17.7082 L 5.01729999999998,17.7082 L 5.01729999999998,16.2325 L 13.5763,16.2325 L 13.5763,14.1665 L 18.5936,16.8228 L 13.5763,19.7741 L 13.5763,17.7082 Z " fill="#FFFFFF" stroke-width="1px" stroke="#FFFFFF"/>
        <path d="M 30.9893,17.7082 L 22.7255,17.7082 L 22.7255,16.2325 L 30.9893,16.2325 L 30.9893,14.1665 L 36.0066,16.8228 L 30.9893,19.7741 L 30.9893,17.7082 Z " fill="#FFFFFF" stroke-width="1px" stroke="#FFFFFF"/>
        <path d="M 29.8088,10.92 L 22.7255,15.3471 L 21.8401,14.4617 L 28.9234,9.73949999999996 L 27.7428,7.96869999999996 L 33.3504,7.67349999999999 L 30.6942,12.6909 L 29.8088,10.92 Z " fill="#FFFFFF" stroke-width="1px" stroke="#FFFFFF"/>
        <path d="M 29.8088,23.0206 L 22.7255,18.2985 L 21.8401,19.479 L 28.9234,24.2012 L 27.7428,25.972 L 33.3504,26.2672 L 30.6942,21.2498 L 29.8088,23.0206 Z " fill="#FFFFFF" stroke-width="1px" stroke="#FFFFFF"/>
      </g>
      <!--emf-blob end-->
    </g>
  </g>
</svg>

