<svg xmlns="http://www.w3.org/2000/svg" xmlns:xlink="http://www.w3.org/1999/xlink" version="1.1" viewBox="0 0 90 105" >
  <title><![CDATA[Lock]]></title>
  <g transform=" scale(3.000000) ">
    <!--converted by libvisio2svg-->
    <g>
      <!--emf-blob start-->
      <g>
        <path d="M 23.6269,34.2589 C 24.2175,34.2589 24.8082,33.6683 24.8082,33.0776 C 24.8082,18.6061 24.8082,18.6061 24.8082,18.6061 C 24.8082,17.7201 24.2175,17.4248 23.6269,17.4248 C 1.18129999999996,17.4248 1.18129999999996,17.4248 1.18129999999996,17.4248 C 0.295299999999997,17.4248 0,17.7201 0,18.6061 C 0,33.0776 0,33.0776 0,33.0776 C 0,33.6683 0.295299999999997,34.2589 1.18129999999996,34.2589 Z Z " fill="#0B719F" stroke="#FFFFFF" stroke-width="0.886" stroke-linecap="butt" stroke-linejoin="miter"/>
        <path d="M 24.8082,17.4248 L 29.5336,12.6994 L 4.72539999999998,12.6994 L 0,17.4248 L 24.8082,17.4248 Z " fill="#0B719F" stroke="#FFFFFF" stroke-width="0.886" stroke-linecap="butt" stroke-linejoin="miter"/>
        <path d="M 29.5336,29.5336 L 29.5336,12.6994 L 24.8082,17.4248 L 24.8082,34.2589 L 29.5336,29.5336 Z " fill="#0B719F" stroke="#FFFFFF" stroke-width="0.886" stroke-linecap="butt" stroke-linejoin="miter"/>
        <path d="M 14.7668,2.06729999999999 C 11.2227999999999,2.06729999999999 8.26939999999996,5.02069999999998 8.26939999999996,8.56470000000002 C 8.26939999999996,14.4714 8.26939999999996,14.4714 8.26939999999996,14.4714 C 8.26939999999996,14.7668 7.97409999999996,15.3574 7.38339999999999,15.3574 C 6.49739999999997,15.3574 5.9067,15.0621 5.9067,14.7668 C 5.9067,8.86000000000001 5.9067,8.86000000000001 5.9067,8.86000000000001 C 5.9067,4.13470000000001 9.74609999999996,0 14.7668,0 C 19.4922,0 23.6269,4.13470000000001 23.6269,8.86000000000001 C 23.6269,15.0621 23.6269,15.0621 23.6269,15.0621 C 23.3314999999999,15.6528 23.0362,15.9481 22.1502,15.9481 C 21.5595,15.9481 20.9688,15.0621 21.2642,14.7668 C 21.2642,8.56470000000002 21.2642,8.56470000000002 21.2642,8.56470000000002 C 21.2642,5.02069999999998 18.3108,2.06729999999999 14.7668,2.06729999999999 Z Z " fill="#0B719F" stroke="#FFFFFF" stroke-width="0.886" stroke-linecap="butt" stroke-linejoin="miter"/>
        <path d="M 12.4041,27.1709 C 13.2901,27.1709 14.1761,25.9895 14.1761,24.5128 C 14.1761,23.0362 13.2901,21.8548 12.4041,21.8548 C 11.2227999999999,21.8548 10.3367,23.0362 10.3367,24.5128 C 10.3367,25.9895 11.2227999999999,27.1709 12.4041,27.1709 Z Z " fill="#FFFFFF" stroke="none"/>
        <path d="M 12.9948,29.8289 L 12.9948,24.8082 L 11.5181,25.6942 L 11.5181,30.7149 L 12.9948,29.8289 Z " fill="#FFFFFF" stroke-width="1px" stroke="#FFFFFF"/>
      </g>
      <!--emf-blob end-->
    </g>
  </g>
</svg>

