<svg xmlns="http://www.w3.org/2000/svg" xmlns:xlink="http://www.w3.org/1999/xlink" version="1.1" viewBox="0 0 105 102" >
  <title><![CDATA[Longreach CPE]]></title>
  <g transform=" scale(3.000000) ">
    <!--converted by libvisio2svg-->
    <g>
      <!--emf-blob start-->
      <g>
        <path d="M 28.341,33.0644 L 28.341,4.42829999999998 L 0.295299999999997,4.42829999999998 L 0.295299999999997,33.0644 L 28.341,33.0644 Z " fill="#036C9B" stroke="#FFFFFF" stroke-width="0.88565" stroke-linecap="butt" stroke-linejoin="miter"/>
        <path d="M 34.2453,28.3409 L 34.2453,0 L 28.341,4.42829999999998 L 28.341,33.0644 L 34.2453,28.3409 Z " fill="#036C9B" stroke="#FFFFFF" stroke-width="0.88565" stroke-linecap="butt" stroke-linejoin="miter"/>
        <path d="M 28.0457,4.42829999999998 L 34.2453,0 L 6.4948,0 L 0,4.42829999999998 L 28.0457,4.42829999999998 Z " fill="#036C9B" stroke="#FFFFFF" stroke-width="0.88565" stroke-linecap="butt" stroke-linejoin="miter"/>
        <path d="M 23.027,28.3409 L 4.42829999999998,28.3409 L 4.42829999999998,24.2079 L 23.027,24.2079 L 23.027,28.3409 Z " fill="#FFFFFF" stroke-width="1px" stroke="#FFFFFF"/>
        <path d="M 23.027,22.7318 L 4.42829999999998,22.7318 L 4.42829999999998,19.7796 L 23.027,19.7796 L 23.027,22.7318 Z " fill="#FFFFFF" stroke-width="1px" stroke="#FFFFFF"/>
        <path d="M 23.027,18.5987 L 4.42829999999998,18.5987 L 4.42829999999998,15.9418 L 23.027,15.9418 L 23.027,18.5987 Z " fill="#FFFFFF" stroke-width="1px" stroke="#FFFFFF"/>
        <path d="M 23.027,14.7609 L 4.42829999999998,14.7609 L 4.42829999999998,12.6944 L 23.027,12.6944 L 23.027,14.7609 Z " fill="#FFFFFF" stroke-width="1px" stroke="#FFFFFF"/>
        <path d="M 23.027,11.5135 L 4.42829999999998,11.5135 L 4.42829999999998,10.3326 L 23.027,10.3326 L 23.027,11.5135 Z " fill="#FFFFFF" stroke-width="1px" stroke="#FFFFFF"/>
      </g>
      <!--emf-blob end-->
    </g>
  </g>
</svg>

