<svg xmlns="http://www.w3.org/2000/svg" xmlns:xlink="http://www.w3.org/1999/xlink" version="1.1" viewBox="0 0 114 180" >
  <title><![CDATA[Mac woman]]></title>
  <g transform=" scale(3.000000) ">
    <!--converted by libvisio2svg-->
    <g>
      <!--emf-blob start-->
      <g>
        <path d="M 33.6655,20.9671 C 35.4373,20.0811 33.6655,16.8327 28.3499,19.4905 Z " fill="#0F73A0" stroke="none"/>
        <path d="M 33.6655,20.9671 C 35.4373,20.0811 33.6655,16.8327 28.3499,19.4905 Z " stroke="#FFFFFF" stroke-width="0.88595" stroke-linecap="butt" stroke-linejoin="miter" fill="none"/>
        <path d="M 29.5311,20.3764 L 29.5311,8.56400000000002 L 13.5843,8.56400000000002 L 13.5843,20.3764 Z " fill="#0F73A0" stroke-width="1px" stroke="#0F73A0"/>
        <path d="M 29.5311,20.3764 L 29.5311,8.56400000000002 L 13.5843,8.56400000000002 L 13.5843,20.3764 " stroke="#FFFFFF" stroke-width="0.88595" stroke-linecap="butt" stroke-linejoin="miter" fill="none"/>
        <path d="M 29.5311,8.56400000000002 L 29.5311,20.3764 L 31.303,17.128 L 31.303,6.7921 L 29.5311,8.56400000000002 Z " fill="#0F73A0" stroke="#FFFFFF" stroke-width="0.88595" stroke-linecap="butt" stroke-linejoin="miter"/>
        <path d="M 31.303,6.7921 L 19.7859,6.7921 L 13.5843,8.56400000000002 L 29.5311,8.56400000000002 L 31.303,6.7921 Z " fill="#0F73A0" stroke="#FFFFFF" stroke-width="0.88595" stroke-linecap="butt" stroke-linejoin="miter"/>
        <path d="M 28.0546,19.1952 L 28.0546,9.74520000000001 L 15.0609,9.74520000000001 L 15.0609,19.1952 L 28.0546,19.1952 Z " fill="#0F73A0" stroke="#FFFFFF" stroke-width="0.88595" stroke-linecap="butt" stroke-linejoin="miter"/>
        <path d="M 26.8733,21.853 L 27.7592,23.3296 L 29.5311,21.5577 L 29.2358,20.6718 Z " fill="#0F73A0" stroke-width="1px" stroke="#0F73A0"/>
        <path d="M 26.8733,21.853 L 27.7592,23.3296 L 29.5311,21.5577 L 29.2358,20.6718 " stroke="#FFFFFF" stroke-width="0.88595" stroke-linecap="butt" stroke-linejoin="miter" fill="none"/>
        <path d="M 26.8733,21.853 L 29.5311,20.3764 L 13.5843,20.3764 L 17.1281,21.853 L 26.8733,21.853 Z " fill="#0F73A0" stroke="#FFFFFF" stroke-width="0.88595" stroke-linecap="butt" stroke-linejoin="miter"/>
        <path d="M 27.7592,23.3296 L 26.8733,21.853 L 17.1281,21.853 L 16.2421,23.3296 L 27.7592,23.3296 Z " fill="#0F73A0" stroke="#FFFFFF" stroke-width="0.88595" stroke-linecap="butt" stroke-linejoin="miter"/>
        <path d="M 6.79219999999998,28.0545 C 6.79219999999998,28.0545 6.79219999999998,28.0545 6.79219999999998,28.0545 C 6.79219999999998,46.3638 6.79219999999998,46.3638 6.79219999999998,46.3638 C 6.79219999999998,46.3638 5.31560000000002,46.3638 5.31560000000002,46.3638 C 5.31560000000002,47.8404 5.31560000000002,48.431 5.31560000000002,49.9075 C 5.31560000000002,49.9075 3.5437,49.9075 3.5437,49.9075 C 3.5437,44.5919 3.5437,33.3701 3.5437,27.4639 Z " fill="#0F73A0" stroke="none"/>
        <path d="M 6.79219999999998,28.0545 C 6.79219999999998,28.0545 6.79219999999998,28.0545 6.79219999999998,28.0545 C 6.79219999999998,46.3638 6.79219999999998,46.3638 6.79219999999998,46.3638 C 6.79219999999998,46.3638 5.31560000000002,46.3638 5.31560000000002,46.3638 C 5.31560000000002,47.8404 5.31560000000002,48.431 5.31560000000002,49.9075 C 5.31560000000002,49.9075 3.5437,49.9075 3.5437,49.9075 C 3.5437,44.5919 3.5437,33.3701 3.5437,27.4639 Z " stroke="#FFFFFF" stroke-width="0.88595" stroke-linecap="butt" stroke-linejoin="miter" fill="none"/>
        <path d="M 36.6186,26.8733 C 36.6186,24.5108 37.5045,24.2155 37.7998,23.9202 C 37.7998,23.6249 37.7998,23.0342 37.7998,22.7389 C 36.9139,22.7389 36.6186,22.7389 35.4373,22.7389 C 10.0406,22.4436 10.0406,22.4436 10.0406,22.4436 C 10.0406,22.7389 5.90620000000001,23.6249 5.90620000000001,23.6249 C 4.72500000000002,23.6249 4.13440000000003,24.2155 2.95310000000001,24.2155 C 2.95310000000001,24.5108 2.95310000000001,24.5108 2.95310000000001,24.8061 C 3.2484,25.1014 3.5437,25.1014 3.83910000000003,25.3967 C 4.13440000000003,26.2827 4.13440000000003,26.578 4.13440000000003,27.1686 C 4.13440000000003,27.7592 4.13440000000003,28.0545 4.13440000000003,28.6451 Z " fill="#0F73A0" stroke="none"/>
        <path d="M 36.6186,26.8733 C 36.6186,24.5108 37.5045,24.2155 37.7998,23.9202 C 37.7998,23.6249 37.7998,23.0342 37.7998,22.7389 C 36.9139,22.7389 36.6186,22.7389 35.4373,22.7389 C 10.0406,22.4436 10.0406,22.4436 10.0406,22.4436 C 10.0406,22.7389 5.90620000000001,23.6249 5.90620000000001,23.6249 C 4.72500000000002,23.6249 4.13440000000003,24.2155 2.95310000000001,24.2155 C 2.95310000000001,24.5108 2.95310000000001,24.5108 2.95310000000001,24.8061 C 3.2484,25.1014 3.5437,25.1014 3.83910000000003,25.3967 C 4.13440000000003,26.2827 4.13440000000003,26.578 4.13440000000003,27.1686 C 4.13440000000003,27.7592 4.13440000000003,28.0545 4.13440000000003,28.6451 Z " stroke="#FFFFFF" stroke-width="0.88595" stroke-linecap="butt" stroke-linejoin="miter" fill="none"/>
        <path d="M 36.6186,27.7592 C 36.3233,27.7592 36.3233,27.7592 36.3233,27.7592 C 36.3233,45.7732 36.3233,45.7732 36.3233,45.7732 C 36.3233,45.7732 34.8467,45.7732 34.8467,45.7732 C 34.8467,47.5451 34.8467,47.8404 35.142,49.3169 C 34.8467,49.3169 33.3702,49.3169 33.3702,49.3169 C 33.3702,44.0013 33.3702,33.0748 33.0748,26.8733 Z " fill="#0F73A0" stroke="none"/>
        <path d="M 36.6186,27.7592 C 36.3233,27.7592 36.3233,27.7592 36.3233,27.7592 C 36.3233,45.7732 36.3233,45.7732 36.3233,45.7732 C 36.3233,45.7732 34.8467,45.7732 34.8467,45.7732 C 34.8467,47.5451 34.8467,47.8404 35.142,49.3169 C 34.8467,49.3169 33.3702,49.3169 33.3702,49.3169 C 33.3702,44.0013 33.3702,33.0748 33.0748,26.8733 Z " stroke="#FFFFFF" stroke-width="0.88595" stroke-linecap="butt" stroke-linejoin="miter" fill="none"/>
        <path d="M 36.028,29.2358 L 36.028,25.692 L 3.83910000000003,25.3967 L 3.83910000000003,28.6451 L 36.028,29.2358 Z " fill="#0F73A0" stroke="#FFFFFF" stroke-width="0.88595" stroke-linecap="butt" stroke-linejoin="miter"/>
        <path d="M 37.5045,27.7592 L 37.5045,24.2155 L 36.028,25.692 L 36.028,29.2358 L 37.5045,27.7592 Z " fill="#0F73A0" stroke="#FFFFFF" stroke-width="0.88595" stroke-linecap="butt" stroke-linejoin="miter"/>
        <path d="M 37.5045,22.7389 L 35.7326,24.5108 L 2.95310000000001,24.2155 L 10.0406,22.4436 L 37.5045,22.7389 Z " fill="#0F73A0" stroke="#FFFFFF" stroke-width="0.88595" stroke-linecap="butt" stroke-linejoin="miter"/>
        <path d="M 33.3702,23.6249 L 33.3702,23.0342 L 34.2561,20.9671 L 34.2561,22.4436 L 33.3702,23.6249 Z " fill="#0F73A0" stroke="#FFFFFF" stroke-width="0.88595" stroke-linecap="butt" stroke-linejoin="miter"/>
        <path d="M 33.3702,23.0342 L 34.2561,20.9671 L 32.1889,20.9671 L 31.0077,23.0342 L 33.3702,23.0342 Z " fill="#0F73A0" stroke="#FFFFFF" stroke-width="0.88595" stroke-linecap="butt" stroke-linejoin="miter"/>
        <path d="M 31.0077,23.0342 L 33.3702,23.0342 L 33.3702,23.6249 L 31.0077,23.6249 L 31.0077,23.0342 Z " fill="#0F73A0" stroke="#FFFFFF" stroke-width="0.88595" stroke-linecap="butt" stroke-linejoin="miter"/>
        <path d="M 28.3499,23.9202 L 28.3499,23.0342 L 29.8264,20.9671 L 29.8264,22.1483 L 28.3499,23.9202 Z " fill="#0F73A0" stroke="#FFFFFF" stroke-width="0.88595" stroke-linecap="butt" stroke-linejoin="miter"/>
        <path d="M 28.3499,23.0342 L 13.5843,23.0342 L 15.3562,20.9671 L 29.8264,20.9671 L 28.3499,23.0342 Z " fill="#0F73A0" stroke="#FFFFFF" stroke-width="0.88595" stroke-linecap="butt" stroke-linejoin="miter"/>
        <path d="M 28.3499,23.0342 L 28.3499,23.9202 L 13.5843,23.9202 L 13.5843,23.0342 L 28.3499,23.0342 Z " fill="#0F73A0" stroke="#FFFFFF" stroke-width="0.88595" stroke-linecap="butt" stroke-linejoin="miter"/>
        <path d="M 24.2155,49.3169 C 23.9202,50.7935 23.6249,51.0888 25.3968,51.3841 C 25.3968,51.6794 25.3968,51.6794 25.3968,51.6794 C 25.3968,51.6794 25.6921,51.0888 25.6921,51.9747 C 25.6921,51.9747 25.9874,53.156 20.9671,51.9747 C 20.9671,51.9747 20.6718,50.7935 20.0812,51.3841 C 20.0812,51.6794 20.0812,51.6794 20.0812,51.6794 C 20.3765,50.7935 20.9671,50.7935 20.6718,49.6122 C 20.6718,49.6122 20.6718,49.6122 20.6718,49.6122 Z Z " fill="#0F73A0" stroke="#FFFFFF" stroke-width="0.88595" stroke-linecap="butt" stroke-linejoin="miter"/>
        <path d="M 27.1686,23.6249 C 27.4639,23.3296 27.1686,23.6249 27.4639,23.0342 C 28.0546,22.4436 28.3499,22.1483 28.9405,21.5577 C 29.2358,21.2624 29.2358,20.6718 29.5311,20.3764 C 29.8264,20.0811 30.417,20.0811 31.0077,20.3764 C 31.303,20.3764 31.303,20.3764 31.5983,20.6718 C 31.8936,20.6718 32.1889,20.9671 31.8936,21.2624 C 32.1889,21.2624 32.1889,21.2624 32.1889,21.5577 C 32.1889,21.5577 32.1889,21.5577 32.1889,21.5577 C 32.4842,22.1483 33.0748,22.4436 32.7795,22.7389 C 32.4842,22.7389 32.1889,22.4436 31.8936,22.7389 C 31.5983,22.7389 31.5983,22.7389 31.303,23.0342 C 31.303,23.3296 31.0077,23.3296 30.7124,23.3296 C 30.417,23.3296 30.1217,23.6249 29.8264,23.6249 C 29.8264,23.6249 29.5311,23.9202 29.2358,23.9202 C 28.6452,24.2155 28.9405,24.2155 28.3499,24.5108 C 28.0546,24.5108 27.4639,23.9202 27.1686,23.6249 Z Z " fill="#0F73A0" stroke="#FFFFFF" stroke-width="0.88595" stroke-linecap="butt" stroke-linejoin="miter"/>
        <path d="M 25.3968,51.6794 C 26.2827,51.6794 27.4639,51.3841 27.1686,51.9747 C 27.1686,53.156 27.1686,53.156 26.578,53.7466 C 26.2827,54.0419 26.2827,53.7466 25.9874,54.0419 C 24.5108,54.3372 22.1483,52.8606 21.853,54.0419 C 21.853,54.0419 21.2624,54.9278 21.2624,55.2231 C 20.9671,55.2231 20.6718,55.2231 20.6718,55.2231 C 19.7859,53.4513 19.4905,52.5653 19.7859,51.6794 C 20.3765,51.0888 20.9671,51.9747 20.9671,51.9747 C 26.578,53.156 25.6921,51.9747 25.6921,51.9747 C 25.6921,51.0888 25.3968,51.6794 25.3968,51.6794 Z Z " fill="#0F73A0" stroke="#FFFFFF" stroke-width="0.88595" stroke-linecap="butt" stroke-linejoin="miter"/>
        <path d="M 6.79219999999998,28.9405 C 5.90620000000001,32.4842 5.90620000000001,35.7326 6.79219999999998,38.981 C 7.08750000000003,39.2763 7.38280000000003,39.2763 7.67810000000003,39.5717 C 9.74529999999999,39.2763 9.74529999999999,39.2763 12.1078,39.5717 C 14.7656,39.5717 14.7656,39.5717 14.7656,39.5717 C 15.0609,39.867 15.3562,39.5717 15.3562,39.867 C 16.5374,41.3435 22.739,38.981 23.0343,40.7529 C 23.0343,40.1623 20.3765,41.3435 20.3765,42.5248 C 20.6718,44.5919 20.3765,48.7263 20.0812,50.4982 C 20.6718,50.7935 19.4905,50.7935 20.6718,51.3841 C 22.1483,51.6794 24.2155,50.7935 24.2155,50.7935 C 24.8061,50.4982 24.8061,51.0888 25.3968,50.7935 C 25.6921,45.4779 25.3968,41.9341 25.9874,36.6185 C 25.9874,35.7326 25.6921,35.7326 25.6921,35.142 C 25.6921,34.5514 25.1014,34.5514 24.8061,33.9607 C 23.9202,33.6654 22.4437,33.6654 21.5577,33.6654 C 18.6046,33.0748 18.6046,33.0748 18.6046,33.0748 C 18.8999,32.1889 18.8999,28.3498 18.8999,27.7592 C 19.4905,27.4639 19.4905,24.8061 19.7859,24.5108 C 20.0812,22.4436 20.0812,22.4436 20.0812,22.4436 C 20.0812,22.7389 19.7859,23.3296 20.6718,23.9202 C 21.2624,23.9202 20.9671,24.2155 21.5577,24.2155 C 21.5577,24.2155 21.5577,24.2155 21.5577,24.5108 C 21.853,24.5108 21.853,24.5108 22.1483,24.5108 C 22.4437,25.1014 23.3296,24.8061 23.6249,25.3967 C 24.5108,25.3967 25.1014,25.9874 25.6921,25.692 C 25.9874,25.692 26.2827,25.3967 26.578,25.692 C 27.4639,25.1014 28.0546,25.3967 28.6452,24.8061 C 28.6452,24.5108 29.2358,24.5108 29.5311,24.5108 C 29.8264,23.9202 29.8264,24.5108 29.8264,23.9202 C 30.1217,23.9202 30.417,23.9202 30.7124,23.9202 C 30.7124,23.9202 31.303,22.7389 31.303,22.4436 C 31.303,22.4436 30.7124,20.6718 28.9405,20.9671 C 27.1686,20.6718 27.1686,20.6718 27.1686,20.6718 C 25.9874,20.6718 24.8061,20.6718 23.9202,19.4905 C 23.6249,18.8999 23.6249,18.8999 23.6249,18.8999 C 23.6249,18.014 23.6249,18.014 23.6249,18.014 C 23.9202,17.4233 23.3296,15.6515 23.0343,15.0608 C 22.1483,14.1749 22.739,14.7655 21.5577,13.8796 C 7.38280000000003,12.6984 7.38280000000003,12.6984 7.38280000000003,12.6984 C 7.38280000000003,12.6984 7.08750000000003,12.6984 7.08750000000003,12.6984 C 5.90620000000001,12.6984 5.02030000000002,12.403 3.83910000000003,12.9937 C 3.83910000000003,13.5843 3.2484,14.7655 3.2484,15.3562 C 3.5437,16.2421 1.77190000000002,16.2421 2.36250000000001,17.128 C 2.65780000000001,17.4233 2.36250000000001,17.7186 2.65780000000001,18.014 C 2.36250000000001,19.4905 2.65780000000001,18.3093 2.36250000000001,19.4905 C 2.06720000000001,19.4905 2.06720000000001,19.4905 2.06720000000001,19.4905 C 0.590599999999995,23.6249 0,27.7592 0,27.7592 C 0,28.0545 0.295299999999997,28.0545 0.295299999999997,28.0545 C 1.18130000000002,29.2358 6.20150000000001,30.7123 6.20150000000001,30.7123 C 6.20150000000001,30.7123 6.20150000000001,30.7123 6.20150000000001,30.7123 Z " fill="#0F73A0" stroke="none"/>
        <path d="M 6.79219999999998,28.9405 C 5.90620000000001,32.4842 5.90620000000001,35.7326 6.79219999999998,38.981 C 7.08750000000003,39.2763 7.38280000000003,39.2763 7.67810000000003,39.5717 C 9.74529999999999,39.2763 9.74529999999999,39.2763 12.1078,39.5717 C 14.7656,39.5717 14.7656,39.5717 14.7656,39.5717 C 15.0609,39.867 15.3562,39.5717 15.3562,39.867 C 16.5374,41.3435 22.739,38.981 23.0343,40.7529 C 23.0343,40.1623 20.3765,41.3435 20.3765,42.5248 C 20.6718,44.5919 20.3765,48.7263 20.0812,50.4982 C 20.6718,50.7935 19.4905,50.7935 20.6718,51.3841 C 22.1483,51.6794 24.2155,50.7935 24.2155,50.7935 C 24.8061,50.4982 24.8061,51.0888 25.3968,50.7935 C 25.6921,45.4779 25.3968,41.9341 25.9874,36.6185 C 25.9874,35.7326 25.6921,35.7326 25.6921,35.142 C 25.6921,34.5514 25.1014,34.5514 24.8061,33.9607 C 23.9202,33.6654 22.4437,33.6654 21.5577,33.6654 C 18.6046,33.0748 18.6046,33.0748 18.6046,33.0748 C 18.8999,32.1889 18.8999,28.3498 18.8999,27.7592 C 19.4905,27.4639 19.4905,24.8061 19.7859,24.5108 C 20.0812,22.4436 20.0812,22.4436 20.0812,22.4436 C 20.0812,22.7389 19.7859,23.3296 20.6718,23.9202 C 21.2624,23.9202 20.9671,24.2155 21.5577,24.2155 C 21.5577,24.2155 21.5577,24.2155 21.5577,24.5108 C 21.853,24.5108 21.853,24.5108 22.1483,24.5108 C 22.4437,25.1014 23.3296,24.8061 23.6249,25.3967 C 24.5108,25.3967 25.1014,25.9874 25.6921,25.692 C 25.9874,25.692 26.2827,25.3967 26.578,25.692 C 27.4639,25.1014 28.0546,25.3967 28.6452,24.8061 C 28.6452,24.5108 29.2358,24.5108 29.5311,24.5108 C 29.8264,23.9202 29.8264,24.5108 29.8264,23.9202 C 30.1217,23.9202 30.417,23.9202 30.7124,23.9202 C 30.7124,23.9202 31.303,22.7389 31.303,22.4436 C 31.303,22.4436 30.7124,20.6718 28.9405,20.9671 C 27.1686,20.6718 27.1686,20.6718 27.1686,20.6718 C 25.9874,20.6718 24.8061,20.6718 23.9202,19.4905 C 23.6249,18.8999 23.6249,18.8999 23.6249,18.8999 C 23.6249,18.014 23.6249,18.014 23.6249,18.014 C 23.9202,17.4233 23.3296,15.6515 23.0343,15.0608 C 22.1483,14.1749 22.739,14.7655 21.5577,13.8796 C 7.38280000000003,12.6984 7.38280000000003,12.6984 7.38280000000003,12.6984 C 7.38280000000003,12.6984 7.08750000000003,12.6984 7.08750000000003,12.6984 C 5.90620000000001,12.6984 5.02030000000002,12.403 3.83910000000003,12.9937 C 3.83910000000003,13.5843 3.2484,14.7655 3.2484,15.3562 C 3.5437,16.2421 1.77190000000002,16.2421 2.36250000000001,17.128 C 2.65780000000001,17.4233 2.36250000000001,17.7186 2.65780000000001,18.014 C 2.36250000000001,19.4905 2.65780000000001,18.3093 2.36250000000001,19.4905 C 2.06720000000001,19.4905 2.06720000000001,19.4905 2.06720000000001,19.4905 C 0.590599999999995,23.6249 0,27.7592 0,27.7592 C 0,28.0545 0.295299999999997,28.0545 0.295299999999997,28.0545 C 1.18130000000002,29.2358 6.20150000000001,30.7123 6.20150000000001,30.7123 C 6.20150000000001,30.7123 6.20150000000001,30.7123 6.20150000000001,30.7123 Z " stroke="#FFFFFF" stroke-width="0.88595" stroke-linecap="butt" stroke-linejoin="miter" fill="none"/>
        <path d="M 12.4031,50.2028 C 11.8125,50.7935 11.5171,51.0888 11.2218,51.6794 C 12.1078,50.7935 12.6984,51.6794 12.6984,51.6794 C 14.4703,52.5653 15.3562,52.8606 15.3562,52.8606 C 17.7187,52.5653 16.8327,51.3841 16.8327,51.3841 C 15.6515,50.7935 15.3562,50.4982 15.3562,50.2028 Z " fill="#0F73A0" stroke="none"/>
        <path d="M 11.5171,43.706 C 10.6312,49.0216 10.6312,49.0216 10.6312,49.0216 C 10.3359,50.4982 10.3359,50.4982 10.3359,50.4982 C 14.4703,51.0888 14.4703,51.0888 14.4703,51.0888 C 14.7656,51.0888 14.7656,51.0888 14.7656,51.0888 C 14.7656,50.7935 15.6515,51.3841 16.2421,51.3841 C 16.8327,50.7935 16.2421,51.0888 16.8327,50.7935 C 16.8327,50.7935 16.5374,48.7263 16.5374,43.706 Z " fill="#0F73A0" stroke="none"/>
        <path d="M 11.5171,43.706 C 10.6312,49.0216 10.6312,49.0216 10.6312,49.0216 C 10.3359,50.4982 10.3359,50.4982 10.3359,50.4982 C 14.4703,51.0888 14.4703,51.0888 14.4703,51.0888 C 14.7656,51.0888 14.7656,51.0888 14.7656,51.0888 C 14.7656,50.7935 15.6515,51.3841 16.2421,51.3841 C 16.8327,50.7935 16.2421,51.0888 16.8327,50.7935 C 16.8327,50.7935 16.5374,48.7263 16.5374,43.706 Z " stroke="#FFFFFF" stroke-width="0.88595" stroke-linecap="butt" stroke-linejoin="miter" fill="none"/>
        <path d="M 13.289,55.8138 L 13.8796,51.6794 Z " fill="#0F73A0" stroke-width="1px" stroke="#0F73A0"/>
        <path d="M 13.289,55.8138 L 13.8796,51.6794 " stroke="none" stroke-width="0" fill="none"/>
        <path d="M 12.1078,40.4576 C 12.4031,40.4576 12.6984,40.1623 12.6984,39.867 C 11.5171,33.3701 11.5171,33.3701 11.5171,33.3701 C 11.5171,33.0748 11.2218,32.7795 10.9265,33.0748 C 9.44999999999999,33.3701 9.44999999999999,33.3701 9.44999999999999,33.3701 C 9.15469999999999,33.3701 8.85930000000002,33.6654 8.85930000000002,33.9607 C 10.0406,40.1623 10.0406,40.1623 10.0406,40.1623 C 10.0406,40.4576 10.3359,40.7529 10.6312,40.7529 Z Z " fill="#0F73A0" stroke="#FFFFFF" stroke-width="0.88595" stroke-linecap="butt" stroke-linejoin="miter"/>
        <path d="M 12.4031,49.9075 C 11.2218,50.2028 10.0406,50.2028 10.0406,50.7935 C 9.74529999999999,51.3841 10.3359,51.6794 10.9265,51.6794 Z " fill="#0F73A0" stroke="none"/>
        <path d="M 12.4031,49.9075 C 11.2218,50.2028 10.0406,50.2028 10.0406,50.7935 C 9.74529999999999,51.3841 10.3359,51.6794 10.9265,51.6794 Z " stroke="#FFFFFF" stroke-width="0.88595" stroke-linecap="butt" stroke-linejoin="miter" fill="none"/>
        <path d="M 23.9202,40.4576 C 24.2155,40.1623 24.2155,39.867 24.2155,39.5717 C 24.2155,36.3232 24.2155,36.3232 24.2155,36.3232 C 24.2155,36.0279 23.9202,35.7326 23.6249,35.7326 C 19.7859,39.2763 19.7859,39.2763 19.7859,39.2763 C 19.4905,39.2763 19.1952,39.5717 19.1952,39.867 C 19.1952,43.706 19.1952,43.706 19.1952,43.706 C 19.1952,44.0013 19.4905,44.2966 19.7859,44.2966 Z Z " fill="#0F73A0" stroke="#FFFFFF" stroke-width="0.88595" stroke-linecap="butt" stroke-linejoin="miter"/>
        <path d="M 4.72500000000002,25.9874 C 4.72500000000002,25.1014 5.61090000000002,23.0342 5.61090000000002,22.4436 C 5.61090000000002,23.3296 5.31560000000002,26.578 5.61090000000002,26.8733 Z Z " fill="#0F73A0" stroke="#FFFFFF" stroke-width="0.88595" stroke-linecap="butt" stroke-linejoin="miter"/>
        <path d="M 4.13440000000003,33.0748 C 4.13440000000003,33.0748 4.13440000000003,33.0748 4.13440000000003,33.0748 C 4.42970000000003,30.7123 2.95310000000001,27.1686 5.61090000000002,25.692 C 16.5374,25.692 7.97340000000003,25.9874 18.8999,25.9874 C 19.4905,26.578 19.4905,26.578 19.4905,26.578 C 20.9671,26.2827 20.6718,33.3701 20.6718,33.3701 C 19.7859,33.9607 19.7859,33.9607 19.7859,33.9607 Z " fill="#0F73A0" stroke="none"/>
        <path d="M 4.13440000000003,33.0748 C 4.13440000000003,33.0748 4.13440000000003,33.0748 4.13440000000003,33.0748 C 4.42970000000003,30.7123 2.95310000000001,27.1686 5.61090000000002,25.692 C 16.5374,25.692 7.97340000000003,25.9874 18.8999,25.9874 C 19.4905,26.578 19.4905,26.578 19.4905,26.578 C 20.9671,26.2827 20.6718,33.3701 20.6718,33.3701 C 19.7859,33.9607 19.7859,33.9607 19.7859,33.9607 Z " stroke="#FFFFFF" stroke-width="0.88595" stroke-linecap="butt" stroke-linejoin="miter" fill="none"/>
        <path d="M 2.95310000000001,33.6654 C 3.2484,31.5983 1.77190000000002,27.1686 4.42970000000003,25.692 C 15.3562,25.692 7.67810000000003,25.692 18.6046,25.692 C 18.6046,25.692 18.6046,25.692 18.6046,25.692 C 20.0812,25.692 19.4905,33.9607 19.4905,33.9607 Z Z " fill="#0F73A0" stroke="#FFFFFF" stroke-width="0.88595" stroke-linecap="butt" stroke-linejoin="miter"/>
        <path d="M 19.1952,6.7921 C 19.1952,6.7921 19.1952,6.7921 19.4905,7.08750000000003 C 19.4905,7.38280000000003 19.7859,7.97340000000003 19.7859,8.26870000000002 C 19.4905,8.56400000000002 19.1952,8.85930000000002 19.1952,9.15460000000002 C 18.8999,9.44990000000001 18.3093,9.15460000000002 18.014,9.44990000000001 C 17.4234,9.74520000000001 17.4234,10.3359 16.8327,10.3359 C 16.2421,10.6312 15.9468,10.6312 15.3562,10.6312 C 15.0609,10.9265 14.7656,11.2218 14.4703,11.5171 C 14.1749,11.8124 13.5843,11.8124 12.9937,11.8124 C 12.6984,11.5171 12.4031,11.5171 12.1078,11.2218 C 11.5171,10.6312 10.9265,10.0406 10.3359,9.74520000000001 C 10.0406,9.74520000000001 9.44999999999999,9.74520000000001 8.85930000000002,9.44990000000001 C 8.56400000000002,9.44990000000001 8.56400000000002,9.15460000000002 7.97340000000003,8.85930000000002 C 7.97340000000003,8.56400000000002 7.67810000000003,7.97340000000003 7.67810000000003,7.38280000000003 C 7.67810000000003,7.38280000000003 7.38280000000003,7.38280000000003 7.38280000000003,7.08750000000003 C 9.15469999999999,6.49680000000001 8.26870000000002,5.31560000000002 8.56400000000002,4.1343 C 9.44999999999999,3.5437 8.56400000000002,3.2484 8.85930000000002,2.36250000000001 C 9.74529999999999,0 12.6984,0.295299999999997 14.7656,0 C 15.3562,0 15.9468,0 16.2421,0.590599999999995 C 16.2421,0.885899999999992 16.8327,0.885899999999992 16.8327,0.885899999999992 C 17.1281,1.47650000000004 17.1281,1.18119999999999 17.7187,1.77190000000002 C 18.014,2.36250000000001 18.014,2.65780000000001 18.014,2.95310000000001 C 18.6046,3.5437 19.1952,3.839 19.4905,5.02030000000002 C 19.4905,5.31560000000002 19.1952,5.90620000000001 18.8999,5.90620000000001 C 19.1952,6.49680000000001 19.4905,5.90620000000001 19.1952,6.7921 Z " fill="#0F73A0" stroke="none"/>
        <path d="M 19.1952,6.7921 C 19.1952,6.7921 19.1952,6.7921 19.4905,7.08750000000003 C 19.4905,7.38280000000003 19.7859,7.97340000000003 19.7859,8.26870000000002 C 19.4905,8.56400000000002 19.1952,8.85930000000002 19.1952,9.15460000000002 C 18.8999,9.44990000000001 18.3093,9.15460000000002 18.014,9.44990000000001 C 17.4234,9.74520000000001 17.4234,10.3359 16.8327,10.3359 C 16.2421,10.6312 15.9468,10.6312 15.3562,10.6312 C 15.0609,10.9265 14.7656,11.2218 14.4703,11.5171 C 14.1749,11.8124 13.5843,11.8124 12.9937,11.8124 C 12.6984,11.5171 12.4031,11.5171 12.1078,11.2218 C 11.5171,10.6312 10.9265,10.0406 10.3359,9.74520000000001 C 10.0406,9.74520000000001 9.44999999999999,9.74520000000001 8.85930000000002,9.44990000000001 C 8.56400000000002,9.44990000000001 8.56400000000002,9.15460000000002 7.97340000000003,8.85930000000002 C 7.97340000000003,8.56400000000002 7.67810000000003,7.97340000000003 7.67810000000003,7.38280000000003 C 7.67810000000003,7.38280000000003 7.38280000000003,7.38280000000003 7.38280000000003,7.08750000000003 C 9.15469999999999,6.49680000000001 8.26870000000002,5.31560000000002 8.56400000000002,4.1343 C 9.44999999999999,3.5437 8.56400000000002,3.2484 8.85930000000002,2.36250000000001 C 9.74529999999999,0 12.6984,0.295299999999997 14.7656,0 C 15.3562,0 15.9468,0 16.2421,0.590599999999995 C 16.2421,0.885899999999992 16.8327,0.885899999999992 16.8327,0.885899999999992 C 17.1281,1.47650000000004 17.1281,1.18119999999999 17.7187,1.77190000000002 C 18.014,2.36250000000001 18.014,2.65780000000001 18.014,2.95310000000001 C 18.6046,3.5437 19.1952,3.839 19.4905,5.02030000000002 C 19.4905,5.31560000000002 19.1952,5.90620000000001 18.8999,5.90620000000001 C 19.1952,6.49680000000001 19.4905,5.90620000000001 19.1952,6.7921 Z " stroke="#FFFFFF" stroke-width="0.88595" stroke-linecap="butt" stroke-linejoin="miter" fill="none"/>
        <path d="M 19.7859,12.403 C 19.7859,12.403 19.7859,12.6984 19.7859,12.6984 C 19.1952,12.6984 19.1952,13.8796 18.8999,13.8796 C 18.6046,13.8796 18.3093,13.5843 18.014,13.5843 C 18.014,13.5843 17.7187,13.5843 17.4234,13.8796 C 17.1281,14.1749 16.8327,14.1749 16.5374,14.1749 C 15.0609,13.8796 13.8796,14.7655 12.4031,15.0608 C 12.1078,15.0608 11.5171,15.0608 11.2218,14.7655 C 10.6312,14.4702 10.6312,13.5843 10.0406,13.289 C 9.15469999999999,12.9937 8.26870000000002,12.9937 7.38280000000003,12.9937 C 7.08750000000003,12.9937 7.08750000000003,12.6984 6.79219999999998,12.6984 C 6.79219999999998,12.403 6.79219999999998,12.403 6.79219999999998,12.1077 C 6.79219999999998,12.1077 6.49689999999998,11.8124 6.79219999999998,11.8124 C 6.79219999999998,11.8124 6.79219999999998,11.5171 6.49689999999998,11.2218 C 6.20150000000001,10.6312 6.79219999999998,7.97340000000003 7.38280000000003,7.38280000000003 C 7.08750000000003,7.38280000000003 7.67810000000003,7.08750000000003 7.67810000000003,7.38280000000003 C 7.67810000000003,7.67810000000003 7.67810000000003,8.26870000000002 7.97340000000003,8.85930000000002 C 8.26870000000002,8.85930000000002 8.56400000000002,9.15460000000002 8.85930000000002,9.44990000000001 C 9.44999999999999,9.44990000000001 9.74529999999999,9.44990000000001 10.3359,9.44990000000001 C 10.9265,10.0406 11.5171,10.6312 12.1078,11.2218 C 12.4031,11.2218 12.6984,11.5171 12.9937,11.5171 C 13.289,11.5171 13.8796,11.8124 14.4703,11.2218 C 14.7656,10.9265 15.0609,10.9265 15.3562,10.6312 C 15.6515,10.3359 16.2421,10.3359 16.8327,10.3359 C 17.1281,10.0406 17.4234,9.44990000000001 17.7187,9.15460000000002 C 18.3093,9.15460000000002 18.6046,9.15460000000002 19.1952,8.85930000000002 C 19.1952,8.56400000000002 19.4905,8.26870000000002 19.4905,8.26870000000002 C 19.4905,7.67810000000003 19.1952,7.38280000000003 19.1952,6.7921 C 19.1952,6.7921 19.1952,6.49680000000001 18.8999,6.49680000000001 C 19.1952,6.49680000000001 19.1952,6.49680000000001 19.1952,6.49680000000001 C 21.2624,8.26870000000002 18.8999,10.0406 20.0812,11.8124 Z Z " fill="#0F73A0" stroke="#FFFFFF" stroke-width="0.88595" stroke-linecap="butt" stroke-linejoin="miter"/>
        <path d="M 16.8327,53.7466 C 16.5374,53.7466 15.9468,54.0419 15.3562,54.0419 C 14.1749,53.7466 15.6515,53.7466 13.5843,53.4513 C 12.9937,54.0419 12.9937,54.9278 12.9937,55.5184 C 12.6984,55.8138 12.6984,55.5184 12.4031,55.5184 C 11.5171,53.7466 10.9265,52.8606 11.2218,51.6794 C 12.1078,50.7935 12.6984,51.6794 12.6984,51.6794 C 14.4703,52.5653 15.3562,52.8606 15.3562,52.8606 C 17.7187,52.27 16.8327,51.3841 16.8327,51.3841 C 18.014,51.3841 18.014,51.3841 18.014,51.3841 C 18.6046,51.6794 16.8327,53.7466 16.8327,53.7466 Z Z " fill="#0F73A0" stroke="none"/>
        <path d="M 11.5171,44.0013 C 11.5171,48.7263 11.5171,44.8873 11.5171,49.6122 C 11.5171,49.6122 11.5171,49.9075 11.2218,49.9075 C 10.0406,50.2028 8.85930000000002,49.9075 8.85930000000002,50.7935 C 8.56400000000002,51.3841 9.15469999999999,51.6794 9.74529999999999,51.6794 C 8.56400000000002,52.5653 7.38280000000003,53.7466 6.20150000000001,54.6325 C 5.31560000000002,55.5184 5.90620000000001,56.4044 5.90620000000001,57.5856 C 6.20150000000001,57.8809 6.49689999999998,57.5856 6.79219999999998,57.5856 C 6.79219999999998,56.6997 7.08750000000003,56.1091 7.08750000000003,55.5184 C 8.56400000000002,54.0419 9.74529999999999,52.8606 11.2218,51.6794 C 11.5171,51.6794 11.5171,51.6794 11.5171,51.6794 C 11.2218,53.7466 10.3359,56.995 10.6312,58.7669 C 10.6312,59.0622 10.6312,59.3575 10.9265,59.3575 C 11.2218,59.3575 11.8125,59.6528 11.8125,59.3575 C 12.1078,58.1762 11.5171,56.995 12.4031,55.5184 C 12.1078,55.5184 12.1078,55.5184 12.4031,55.5184 C 12.4031,56.1091 12.4031,56.6997 12.4031,57.2903 C 12.6984,57.2903 13.289,57.5856 13.5843,56.995 C 13.5843,55.8138 13.289,54.3372 13.289,52.5653 C 13.289,52.27 12.9937,52.27 13.289,51.9747 C 14.7656,52.8606 15.9468,54.3372 17.4234,55.5184 C 18.014,55.8138 17.7187,57.8809 17.7187,57.8809 C 18.6046,57.8809 18.6046,57.8809 18.6046,57.8809 C 18.8999,57.8809 18.8999,57.8809 18.8999,57.8809 C 18.8999,57.8809 19.1952,55.8138 18.3093,54.6325 C 14.7656,51.6794 14.7656,51.6794 14.7656,51.6794 C 14.7656,51.3841 15.3562,51.3841 15.6515,51.3841 C 16.2421,51.3841 16.2421,50.7935 15.9468,50.2028 C 15.3562,50.2028 15.0609,50.2028 14.4703,50.2028 C 13.8796,50.2028 13.8796,49.9075 13.8796,49.0216 C 13.8796,44.5919 13.8796,48.7263 13.8796,44.0013 Z " fill="#0F73A0" stroke="none"/>
        <path d="M 11.5171,44.0013 C 11.5171,48.7263 11.5171,44.8873 11.5171,49.6122 C 11.5171,49.6122 11.5171,49.9075 11.2218,49.9075 C 10.0406,50.2028 8.85930000000002,49.9075 8.85930000000002,50.7935 C 8.56400000000002,51.3841 9.15469999999999,51.6794 9.74529999999999,51.6794 C 8.56400000000002,52.5653 7.38280000000003,53.7466 6.20150000000001,54.6325 C 5.31560000000002,55.5184 5.90620000000001,56.4044 5.90620000000001,57.5856 C 6.20150000000001,57.8809 6.49689999999998,57.5856 6.79219999999998,57.5856 C 6.79219999999998,56.6997 7.08750000000003,56.1091 7.08750000000003,55.5184 C 8.56400000000002,54.0419 9.74529999999999,52.8606 11.2218,51.6794 C 11.5171,51.6794 11.5171,51.6794 11.5171,51.6794 C 11.2218,53.7466 10.3359,56.995 10.6312,58.7669 C 10.6312,59.0622 10.6312,59.3575 10.9265,59.3575 C 11.2218,59.3575 11.8125,59.6528 11.8125,59.3575 C 12.1078,58.1762 11.5171,56.995 12.4031,55.5184 C 12.1078,55.5184 12.1078,55.5184 12.4031,55.5184 C 12.4031,56.1091 12.4031,56.6997 12.4031,57.2903 C 12.6984,57.2903 13.289,57.5856 13.5843,56.995 C 13.5843,55.8138 13.289,54.3372 13.289,52.5653 C 13.289,52.27 12.9937,52.27 13.289,51.9747 C 14.7656,52.8606 15.9468,54.3372 17.4234,55.5184 C 18.014,55.8138 17.7187,57.8809 17.7187,57.8809 C 18.6046,57.8809 18.6046,57.8809 18.6046,57.8809 C 18.8999,57.8809 18.8999,57.8809 18.8999,57.8809 C 18.8999,57.8809 19.1952,55.8138 18.3093,54.6325 C 14.7656,51.6794 14.7656,51.6794 14.7656,51.6794 C 14.7656,51.3841 15.3562,51.3841 15.6515,51.3841 C 16.2421,51.3841 16.2421,50.7935 15.9468,50.2028 C 15.3562,50.2028 15.0609,50.2028 14.4703,50.2028 C 13.8796,50.2028 13.8796,49.9075 13.8796,49.0216 C 13.8796,44.5919 13.8796,48.7263 13.8796,44.0013 Z " stroke="#FFFFFF" stroke-width="0.44295" stroke-linecap="butt" stroke-linejoin="miter" fill="none"/>
        <path d="M 15.6515,50.2028 C 15.9468,50.2028 15.9468,50.4982 15.9468,50.7935 C 15.9468,51.0888 15.9468,51.0888 15.9468,51.0888 C 15.9468,51.3841 15.9468,51.3841 15.6515,51.3841 C 15.3562,51.3841 15.3562,51.3841 15.3562,51.3841 C 15.3562,51.3841 12.4031,52.27 9.44999999999999,51.3841 C 9.15469999999999,51.3841 8.85930000000002,51.3841 8.85930000000002,51.0888 C 8.85930000000002,50.7935 8.85930000000002,50.7935 8.85930000000002,50.7935 C 8.85930000000002,50.4982 9.15469999999999,50.2028 9.44999999999999,50.2028 C 12.1078,51.0888 15.6515,50.2028 15.6515,50.2028 Z Z " fill="#0F73A0" stroke="#FFFFFF" stroke-width="0.88595" stroke-linecap="butt" stroke-linejoin="miter"/>
        <path d="M 10.0406,31.5983 C 10.9265,31.5983 11.2218,31.0076 11.2218,30.1217 C 11.2218,29.5311 10.9265,28.9405 10.0406,28.9405 C 9.44999999999999,28.9405 8.85930000000002,29.5311 8.85930000000002,30.1217 C 8.85930000000002,31.0076 9.44999999999999,31.5983 10.0406,31.5983 Z Z " fill="#0F73A0" stroke="#FFFFFF" stroke-width="0.88595" stroke-linecap="butt" stroke-linejoin="miter"/>
        <path d="M 9.74529999999999,31.5983 C 10.3359,31.5983 10.9265,31.0076 10.9265,30.1217 C 10.9265,29.5311 10.3359,28.9405 9.74529999999999,28.9405 C 8.85930000000002,28.9405 8.56400000000002,29.5311 8.56400000000002,30.1217 C 8.56400000000002,31.0076 8.85930000000002,31.5983 9.74529999999999,31.5983 Z Z " fill="#0F73A0" stroke="#FFFFFF" stroke-width="0.88595" stroke-linecap="butt" stroke-linejoin="miter"/>
        <path d="M 10.0406,39.5717 L 12.6984,39.5717 Z " fill="#0F73A0" stroke-width="1px" stroke="#0F73A0"/>
        <path d="M 10.0406,39.5717 L 12.6984,39.5717 " stroke="#FFFFFF" stroke-width="0.88595" stroke-linecap="butt" stroke-linejoin="miter" fill="none"/>
        <path d="M 19.4905,44.2966 C 19.7859,44.2966 20.0812,44.0013 19.7859,43.706 C 19.7859,39.867 19.7859,39.867 19.7859,39.867 C 20.0812,39.5717 19.7859,39.2763 19.4905,39.2763 C 7.38280000000003,39.2763 7.38280000000003,39.2763 7.38280000000003,39.2763 C 6.79219999999998,38.981 6.79219999999998,38.981 6.79219999999998,38.981 C 6.49689999999998,38.981 3.2484,39.2763 3.2484,39.5717 C 3.2484,43.706 3.2484,43.706 3.2484,43.706 C 3.2484,44.0013 3.5437,44.2966 3.83910000000003,44.2966 Z Z " fill="#0F73A0" stroke="#FFFFFF" stroke-width="0.88595" stroke-linecap="butt" stroke-linejoin="miter"/>
        <path d="M 4.13440000000003,44.0013 C 4.13440000000003,44.0013 3.83910000000003,44.0013 3.83910000000003,43.706 C 3.83910000000003,40.1623 3.83910000000003,40.1623 3.83910000000003,40.1623 C 3.83910000000003,39.867 4.13440000000003,39.5717 4.13440000000003,39.5717 C 18.6046,39.5717 18.6046,39.5717 18.6046,39.5717 C 18.8999,39.5717 18.8999,39.867 18.8999,40.1623 C 18.8999,43.706 18.8999,43.706 18.8999,43.706 C 18.8999,44.0013 18.8999,44.0013 18.6046,44.0013 Z Z " fill="#0F73A0" stroke="#FFFFFF" stroke-width="0.88595" stroke-linecap="butt" stroke-linejoin="miter"/>
        <path d="M 23.6249,40.1623 C 23.9202,39.867 23.9202,39.2763 23.9202,39.867 C 23.9202,36.6185 23.9202,36.6185 23.9202,36.6185 C 23.9202,36.3232 23.6249,36.3232 23.3296,36.3232 C 20.0812,39.5717 20.0812,39.5717 20.0812,39.5717 C 19.7859,39.5717 19.7859,39.867 19.7859,40.1623 C 19.7859,43.1154 19.7859,43.1154 19.7859,43.1154 C 19.7859,43.4107 19.7859,43.706 20.0812,43.706 Z Z " fill="#0F73A0" stroke="#FFFFFF" stroke-width="0.88595" stroke-linecap="butt" stroke-linejoin="miter"/>
        <path d="M 3.83910000000003,33.3701 C 4.13440000000003,31.3029 2.65780000000001,27.4639 5.02030000000002,25.9874 C 15.0609,25.9874 7.97340000000003,25.9874 17.7187,25.9874 C 18.014,26.2827 18.014,26.2827 18.014,26.2827 C 19.1952,25.9874 18.8999,33.3701 18.8999,33.3701 Z Z " fill="#0F73A0" stroke="#FFFFFF" stroke-width="0.88595" stroke-linecap="butt" stroke-linejoin="miter"/>
        <path d="M 7.08750000000003,38.6857 L 8.26870000000002,39.2763 L 3.83910000000003,39.2763 L 6.20150000000001,37.7998 L 7.08750000000003,38.6857 Z " fill="#0F73A0" stroke="#FFFFFF" stroke-width="0.88595" stroke-linecap="butt" stroke-linejoin="miter"/>
      </g>
      <!--emf-blob end-->
    </g>
  </g>
</svg>

