<svg xmlns="http://www.w3.org/2000/svg" xmlns:xlink="http://www.w3.org/1999/xlink" version="1.1" viewBox="0 0 168 108" >
  <title><![CDATA[Macintosh]]></title>
  <g transform=" scale(3.000000) ">
    <!--converted by libvisio2svg-->
    <g>
      <!--emf-blob start-->
      <g>
        <path d="M 10.9231,1.7713 L 0.885699999999986,1.7713 L 0.885699999999986,30.7026 L 10.3326,30.7026 Z " fill="#0F73A0" stroke-width="1px" stroke="#0F73A0"/>
        <path d="M 10.9231,1.7713 L 0.885699999999986,1.7713 L 0.885699999999986,30.7026 L 10.3326,30.7026 " stroke="#FFFFFF" stroke-width="0.88565" stroke-linecap="butt" stroke-linejoin="miter" fill="none"/>
        <path d="M 10.3326,1.7713 L 10.3326,30.7026 L 11.2183,30.1122 L 11.2183,1.7713 L 10.3326,1.7713 Z " fill="#0F73A0" stroke="#FFFFFF" stroke-width="0.88565" stroke-linecap="butt" stroke-linejoin="miter"/>
        <path d="M 13.2848,1.7713 L 13.2848,30.4074 L 17.7131,26.5696 L 17.7131,0 L 13.2848,1.7713 Z " fill="#0F73A0" stroke="#FFFFFF" stroke-width="0.88565" stroke-linecap="butt" stroke-linejoin="miter"/>
        <path d="M 9.447,3.54259999999999 L 1.47609999999997,3.54259999999999 Z " fill="#0B719F" stroke-width="1px" stroke="#0B719F"/>
        <path d="M 9.447,3.54259999999999 L 1.47609999999997,3.54259999999999 " stroke="#FFFFFF" stroke-width="0.88565" stroke-linecap="butt" stroke-linejoin="miter" fill="none"/>
        <path d="M 8.85660000000001,6.49470000000002 L 2.06650000000002,6.49470000000002 Z " fill="#0B719F" stroke-width="1px" stroke="#0B719F"/>
        <path d="M 8.85660000000001,6.49470000000002 L 2.06650000000002,6.49470000000002 " stroke="#FFFFFF" stroke-width="0.88565" stroke-linecap="butt" stroke-linejoin="miter" fill="none"/>
        <path d="M 13.2848,1.7713 L 11.2183,1.7713 L 11.2183,30.4074 L 13.2848,30.4074 Z " fill="#0F73A0" stroke-width="1px" stroke="#0F73A0"/>
        <path d="M 13.2848,1.7713 L 11.2183,1.7713 L 11.2183,30.4074 L 13.2848,30.4074 " stroke="#FFFFFF" stroke-width="0.88565" stroke-linecap="butt" stroke-linejoin="miter" fill="none"/>
        <path d="M 0.295199999999966,5.01870000000002 L 10.6279,5.01870000000002 Z " fill="#0B719F" stroke-width="1px" stroke="#0B719F"/>
        <path d="M 0.295199999999966,5.01870000000002 L 10.6279,5.01870000000002 " stroke="#FFFFFF" stroke-width="0.88565" stroke-linecap="butt" stroke-linejoin="miter" fill="none"/>
        <path d="M 0.295199999999966,7.9708 L 10.6279,7.9708 Z " fill="#0B719F" stroke-width="1px" stroke="#0B719F"/>
        <path d="M 0.295199999999966,7.9708 L 10.6279,7.9708 " stroke="#FFFFFF" stroke-width="0.88565" stroke-linecap="butt" stroke-linejoin="miter" fill="none"/>
        <path d="M 12.3992,27.4552 C 12.3992,27.4552 12.6944,27.16 12.6944,26.8648 C 12.6944,26.8648 12.3992,26.5696 12.3992,26.5696 C 12.104,26.5696 11.8087,26.8648 11.8087,26.8648 C 11.8087,27.16 12.104,27.4552 12.3992,27.4552 Z Z " fill="#0B719F" stroke="#FFFFFF" stroke-width="0.88565" stroke-linecap="butt" stroke-linejoin="miter"/>
        <path d="M 12.3992,29.5217 C 12.3992,29.5217 12.6944,29.5217 12.6944,29.2265 C 12.6944,29.2265 12.3992,28.9313 12.3992,28.9313 C 12.104,28.9313 11.8087,29.2265 11.8087,29.2265 C 11.8087,29.5217 12.104,29.5217 12.3992,29.5217 Z Z " fill="#0B719F" stroke="#FFFFFF" stroke-width="0.88565" stroke-linecap="butt" stroke-linejoin="miter"/>
        <path d="M 13.58,1.7713 L 18.0083,0 L 7.67570000000001,0 L 0,2.06650000000002 L 10.3326,2.06650000000002 L 10.9231,1.7713 L 13.58,1.7713 Z " fill="#0F73A0" stroke="#FFFFFF" stroke-width="0.88565" stroke-linecap="butt" stroke-linejoin="miter"/>
        <path d="M 43.6923,23.9126 L 16.5322,23.9126 Z " fill="#0B719F" stroke-width="1px" stroke="#0B719F"/>
        <path d="M 43.6923,23.9126 L 16.5322,23.9126 " stroke="#FFFFFF" stroke-width="0.88565" stroke-linecap="butt" stroke-linejoin="miter" fill="none"/>
        <path d="M 43.397,23.9126 L 43.397,3.54259999999999 L 16.5322,3.54259999999999 L 16.5322,23.9126 Z " fill="#0F73A0" stroke-width="1px" stroke="#0F73A0"/>
        <path d="M 43.397,23.9126 L 43.397,3.54259999999999 L 16.5322,3.54259999999999 L 16.5322,23.9126 " stroke="#FFFFFF" stroke-width="0.88565" stroke-linecap="butt" stroke-linejoin="miter" fill="none"/>
        <path d="M 43.397,23.9126 L 46.6444,18.3035 L 46.6444,0.295200000000023 L 26.8648,0.295200000000023 L 16.5322,3.54259999999999 L 43.397,3.54259999999999 L 43.397,23.9126 Z " fill="#0F73A0" stroke="#FFFFFF" stroke-width="0.88565" stroke-linecap="butt" stroke-linejoin="miter"/>
        <path d="M 41.0353,21.5509 L 41.0353,5.90430000000003 L 18.894,5.90430000000003 L 18.894,21.5509 L 41.0353,21.5509 Z " fill="#0F73A0" stroke="#FFFFFF" stroke-width="0.88565" stroke-linecap="butt" stroke-linejoin="miter"/>
        <path d="M 43.397,3.54259999999999 L 46.6444,0.295200000000023 Z " fill="#0F73A0" stroke-width="1px" stroke="#0F73A0"/>
        <path d="M 43.397,3.54259999999999 L 46.6444,0.295200000000023 " stroke="#FFFFFF" stroke-width="0.88565" stroke-linecap="butt" stroke-linejoin="miter" fill="none"/>
        <path d="M 41.921,35.4261 L 41.921,32.4739 L 10.6279,32.4739 L 15.9418,28.9313 L 45.4636,28.9313 L 45.4636,31.5883 L 41.921,35.4261 Z " fill="#0F73A0" stroke="#FFFFFF" stroke-width="0.88565" stroke-linecap="butt" stroke-linejoin="miter"/>
        <path d="M 41.921,32.4739 L 41.921,35.4261 L 10.6279,35.4261 L 10.6279,32.4739 L 41.921,32.4739 Z " fill="#0F73A0" stroke="#FFFFFF" stroke-width="0.88565" stroke-linecap="butt" stroke-linejoin="miter"/>
        <path d="M 41.921,32.4739 L 45.4636,28.9313 Z " fill="#0B719F" stroke-width="1px" stroke="#0B719F"/>
        <path d="M 41.921,32.4739 L 45.4636,28.9313 " stroke="#FFFFFF" stroke-width="0.88565" stroke-linecap="butt" stroke-linejoin="miter" fill="none"/>
        <path d="M 43.6923,33.95 L 43.397,35.4261 L 48.4158,35.4261 L 48.1205,33.95 Z " fill="#0F73A0" stroke-width="1px" stroke="#0F73A0"/>
        <path d="M 43.6923,33.95 L 43.397,35.4261 L 48.4158,35.4261 L 48.1205,33.95 " stroke="#FFFFFF" stroke-width="0.88565" stroke-linecap="butt" stroke-linejoin="miter" fill="none"/>
        <path d="M 48.1205,33.95 L 48.1205,32.1787 L 45.7588,32.1787 L 43.6923,33.95 L 48.1205,33.95 Z " fill="#0F73A0" stroke="#FFFFFF" stroke-width="0.88565" stroke-linecap="butt" stroke-linejoin="miter"/>
        <path d="M 39.264,26.2743 L 40.4449,28.9313 L 43.397,25.3887 L 43.1018,24.2078 Z " fill="#0B719F" stroke-width="1px" stroke="#0B719F"/>
        <path d="M 39.264,26.2743 L 40.4449,28.9313 L 43.397,25.3887 L 43.1018,24.2078 " stroke="#FFFFFF" stroke-width="0.88565" stroke-linecap="butt" stroke-linejoin="miter" fill="none"/>
        <path d="M 39.264,26.2743 L 43.397,23.9126 L 16.5322,23.9126 L 22.4366,26.2743 L 39.264,26.2743 Z " fill="#0F73A0" stroke="#FFFFFF" stroke-width="0.88565" stroke-linecap="butt" stroke-linejoin="miter"/>
        <path d="M 40.4449,28.9313 L 39.264,26.2743 L 22.4366,26.2743 L 20.9605,28.9313 L 40.4449,28.9313 Z " fill="#0F73A0" stroke="#FFFFFF" stroke-width="0.88565" stroke-linecap="butt" stroke-linejoin="miter"/>
        <path d="M 46.9397,32.1787 C 47.5301,31.5883 44.8731,30.9978 47.8253,30.4074 C 49.8918,30.1122 55.501,26.8648 42.2162,26.5696 Z " stroke="#0B719F" stroke-width="0.88565" stroke-linecap="butt" stroke-linejoin="miter" fill="none"/>
      </g>
      <!--emf-blob end-->
    </g>
  </g>
</svg>

