<svg xmlns="http://www.w3.org/2000/svg" xmlns:xlink="http://www.w3.org/1999/xlink" version="1.1" viewBox="0 0 180 261" >
  <title><![CDATA[Man_woman]]></title>
  <g transform=" scale(3.000000) ">
    <!--converted by libvisio2svg-->
    <g>
      <!--emf-blob start-->
      <g>
        <path d="M 35.4416,76.1995 C 33.9649,79.153 33.9649,79.153 33.9649,79.153 C 33.9649,79.153 33.9649,80.3343 35.737,79.7436 C 37.2137,79.153 37.2137,79.153 37.2137,79.153 C 38.6904,77.3809 38.6904,77.3809 38.6904,77.3809 C 38.9858,77.0855 38.9858,77.0855 38.9858,77.0855 C 38.9858,76.4948 38.9858,76.1995 38.9858,75.6088 C 39.2811,74.7227 38.9858,73.5414 39.2811,72.6553 C 39.8718,70.5879 40.7579,68.5205 41.6439,66.453 C 42.2346,64.6809 41.3486,62.9089 41.9392,61.1368 C 37.2137,59.6601 37.2137,59.6601 37.2137,59.6601 C 36.9183,64.6809 36.9183,69.4065 36.623,74.4274 C 36.3277,75.0181 35.737,75.6088 35.1463,76.1995 Z Z " fill="#0F73A0" stroke="none"/>
        <path d="M 47.8462,75.9041 C 47.8462,75.9041 47.8462,75.9041 47.8462,75.9041 C 47.8462,76.4948 47.8462,76.4948 47.8462,76.4948 C 49.0276,77.9716 49.0276,77.9716 49.0276,77.9716 C 51.3903,79.7436 51.3903,79.7436 51.3903,79.7436 C 52.5717,79.7436 52.5717,79.7436 52.5717,79.7436 C 53.1624,78.8576 53.4578,78.5623 53.4578,78.5623 C 52.5717,77.6762 51.6857,77.0855 51.095,75.9041 C 50.7997,75.3134 50.5043,74.4274 50.5043,73.8367 C 50.7997,69.1112 51.095,64.3856 51.6857,59.9554 C 46.9601,61.1368 46.9601,61.1368 46.9601,61.1368 C 46.3695,61.1368 46.6648,61.7275 46.6648,62.0228 C 46.3695,63.2042 46.3695,64.0903 46.6648,65.2716 C 46.6648,66.1577 47.2555,67.0437 47.2555,68.2251 C 47.8462,70.8832 48.1415,73.246 47.8462,75.9041 Z Z " fill="#0F73A0" stroke="none"/>
        <path d="M 13.2906,2.95339999999999 C 13.2906,3.24879999999996 13.2906,3.54409999999996 13.5859,3.83949999999993 C 13.5859,4.72550000000001 13.2906,5.61159999999995 12.9952,6.49760000000003 C 12.6999,6.79290000000003 12.6999,7.3836 12.4045,7.3836 C 12.1092,7.0883 11.8139,6.49760000000003 11.5185,6.49760000000003 C 11.2232,6.20219999999995 10.6325,6.79290000000003 10.3371,7.0883 C 11.2232,7.97429999999997 12.1092,9.15570000000002 11.5185,10.3371 C 10.6325,8.86040000000003 9.74639999999999,7.67899999999997 8.86040000000003,5.90689999999995 C 8.565,5.02089999999998 8.565,3.83949999999993 9.15570000000002,3.24879999999996 C 10.0418,2.06740000000002 11.2232,1.18139999999994 12.4045,0.885999999999967 C 14.1766,0.295299999999997 15.9487,0 18.0161,0 C 16.2441,0.885999999999967 14.7673,1.77199999999993 12.9952,2.65809999999999 C 12.9952,2.95339999999999 12.9952,2.95339999999999 13.2906,2.95339999999999 Z Z " fill="#0F73A0" stroke="none"/>
        <path d="M 19.4929,3.24879999999996 C 18.9022,4.13480000000004 18.6068,4.72550000000001 18.0161,5.61159999999995 C 18.3115,5.31619999999998 18.0161,5.31619999999998 18.0161,5.31619999999998 C 17.7208,5.31619999999998 17.4254,5.31619999999998 17.4254,5.31619999999998 C 17.1301,5.02089999999998 17.1301,4.72550000000001 17.4254,4.72550000000001 C 17.4254,4.43020000000001 18.0161,4.72550000000001 18.0161,4.72550000000001 C 18.9022,3.24879999999996 17.1301,2.36270000000002 16.8348,1.18139999999994 C 18.0161,1.18139999999994 18.9022,2.06740000000002 20.0836,2.06740000000002 C 19.7882,2.36270000000002 19.4929,2.95339999999999 19.4929,3.24879999999996 Z Z " fill="#0F73A0" stroke="none"/>
        <path d="M 15.0627,5.31619999999998 C 14.7673,5.31619999999998 14.472,5.61159999999995 14.472,5.31619999999998 C 14.1766,4.13480000000004 15.6534,4.72550000000001 16.2441,4.43020000000001 C 16.2441,5.31619999999998 15.6534,5.61159999999995 15.0627,5.31619999999998 Z Z " fill="#0F73A0" stroke="none"/>
        <path d="M 16.8348,7.3836 C 16.5394,7.3836 16.5394,7.3836 16.2441,7.3836 C 16.5394,7.0883 16.8348,6.79290000000003 17.1301,6.49760000000003 C 17.1301,6.79290000000003 17.1301,7.0883 17.4254,7.3836 C 17.1301,7.3836 17.1301,7.3836 16.8348,7.3836 Z Z " fill="#0F73A0" stroke="none"/>
        <path d="M 16.8348,8.86040000000003 C 16.2441,8.86040000000003 15.6534,8.86040000000003 15.0627,8.86040000000003 C 15.358,8.56499999999994 15.6534,8.56499999999994 15.6534,8.56499999999994 C 16.2441,8.26969999999994 17.1301,7.97429999999997 17.4254,8.86040000000003 C 17.1301,8.86040000000003 16.8348,8.86040000000003 16.8348,8.86040000000003 Z Z " fill="#0F73A0" stroke="none"/>
        <path d="M 16.5394,9.15570000000002 C 17.1301,9.4511 16.5394,9.4511 16.5394,9.4511 C 16.2441,9.74639999999999 15.9487,9.4511 15.9487,9.15570000000002 C 16.2441,9.15570000000002 16.2441,9.15570000000002 16.5394,9.15570000000002 Z Z " fill="#0F73A0" stroke="none"/>
        <path d="M 20.9696,81.8111 C 22.7417,82.9925 24.2184,83.8785 25.6952,85.0599 C 25.3998,85.3552 25.3998,85.6506 25.3998,85.6506 C 24.2184,85.6506 22.7417,85.6506 21.5603,85.6506 C 20.3789,85.3552 19.4929,84.7645 18.3115,84.1738 C 18.3115,84.1738 18.0161,84.7645 18.0161,84.7645 C 17.1301,85.0599 15.9487,84.7645 15.358,84.1738 C 14.7673,83.8785 15.358,82.6971 15.0627,82.1064 Z Z " fill="#0F73A0" stroke="none"/>
        <path d="M 15.0627,82.1064 C 15.0627,82.1064 14.7673,82.1064 14.7673,82.1064 C 14.472,71.4739 14.7673,60.8414 14.472,50.2089 C 12.6999,60.5461 11.2232,70.5879 9.15570000000002,81.5157 C 9.15570000000002,81.5157 8.565,81.5157 8.565,81.8111 C 3.24880000000002,81.8111 3.24880000000002,81.8111 3.24880000000002,81.8111 C 3.54410000000001,81.2204 3.24880000000002,80.6297 3.24880000000002,80.039 C 3.83949999999999,74.4274 4.72550000000001,68.8158 5.02089999999998,63.2042 C 5.02089999999998,57.5926 5.31619999999998,51.981 5.61160000000001,46.0741 C 5.61160000000001,45.188 6.20229999999998,44.0067 5.90690000000001,43.1206 C 5.90690000000001,42.8253 5.31619999999998,42.5299 5.02089999999998,42.5299 C 5.31619999999998,41.6439 5.61160000000001,40.4625 5.90690000000001,39.5765 C 4.13479999999998,37.8044 2.36279999999999,36.0323 0.886000000000024,33.9649 C 0.295299999999997,33.3742 0,32.1928 0,31.3067 C 0.295299999999997,26.5812 1.47669999999999,21.5603 1.47669999999999,16.5394 C 3.83949999999999,15.0627 6.79300000000001,14.7673 9.4511,13.5859 C 10.3371,13.2906 11.2232,12.6999 11.5185,11.5185 C 12.9952,12.4045 13.8813,13.5859 15.358,14.472 C 15.6534,14.472 15.6534,14.1766 15.6534,13.8813 C 15.9487,13.8813 15.9487,13.8813 15.9487,13.8813 C 15.9487,13.5859 15.9487,13.2906 16.2441,12.9952 C 16.2441,12.9952 16.2441,12.9952 16.2441,12.6999 C 16.5394,12.6999 16.5394,12.1092 16.8348,12.1092 C 16.8348,12.4045 17.4254,12.6999 17.7208,12.9952 C 19.7882,13.8813 21.8557,14.472 23.9231,15.358 C 24.5138,15.6534 25.3998,16.244 25.6952,16.8347 C 25.9905,17.4254 25.6952,18.0161 25.6952,18.9022 C 25.3998,19.4929 25.1045,20.3789 25.1045,21.2649 C 25.1045,24.5138 25.9905,28.0579 26.2859,31.6021 C 24.8091,33.3742 23.6277,35.4416 22.4463,37.509 C 22.7417,39.2811 23.3324,40.7578 23.3324,42.5299 C 23.3324,42.5299 22.4463,42.8253 22.4463,43.1206 C 22.4463,44.8927 22.7417,46.9601 22.7417,49.0276 C 22.151,59.9554 22.151,70.8832 20.9696,81.8111 Z Z " fill="#0F73A0" stroke="none"/>
        <path d="M 8.565,81.8111 C 8.2697,82.4018 8.86040000000003,83.2878 8.565,83.8785 C 7.97430000000003,84.4692 7.0883,84.7645 6.20229999999998,85.3552 C 5.90690000000001,85.3552 6.20229999999998,85.9459 5.61160000000001,85.9459 C 4.13479999999998,86.2413 2.65809999999999,86.2413 0.886000000000024,86.2413 C 1.1814,85.3552 0.886000000000024,84.4692 1.1814,83.8785 C 1.77210000000002,82.9925 2.95339999999999,82.6971 3.24880000000002,81.8111 Z Z " fill="#0F73A0" stroke="none"/>
        <path d="M 6.79300000000001,30.1254 C 6.79300000000001,28.6486 6.79300000000001,27.4672 6.49760000000003,25.9905 C 5.90690000000001,27.1719 5.61160000000001,28.6486 5.61160000000001,30.1254 C 5.61160000000001,30.716 6.49760000000003,31.3067 6.79300000000001,31.8974 C 7.0883,31.3067 6.79300000000001,30.716 6.79300000000001,30.1254 Z Z " fill="#0F73A0" stroke="none"/>
        <path d="M 38.0997,15.6534 C 37.8044,15.358 37.2137,15.358 37.2137,14.7673 C 37.509,14.7673 38.0997,14.7673 38.3951,14.472 C 37.509,14.1766 37.2137,13.5859 37.2137,12.9952 C 37.2137,12.6999 37.509,12.4045 37.509,12.4045 C 37.8044,12.4045 37.8044,12.9952 38.0997,12.9952 C 38.0997,13.2906 38.3951,12.9952 38.3951,12.9952 C 38.3951,12.6999 38.3951,12.4045 38.0997,11.8138 C 38.6904,12.1092 39.2811,12.1092 39.2811,11.8138 C 39.2811,11.2231 38.3951,10.6324999999999 38.9858,10.0418 C 39.2811,10.0418 39.5765,10.6324999999999 39.8718,10.3371 C 39.8718,9.74639999999999 39.2811,9.4511 39.2811,8.86040000000003 C 39.2811,8.56499999999994 39.8718,8.56499999999994 40.1672,8.26969999999994 C 40.1672,7.67899999999997 39.8718,6.79290000000003 39.8718,6.49760000000003 C 40.4625,5.02089999999998 41.3486,3.54409999999996 41.9392,2.36270000000002 C 43.7113,2.06740000000002 44.5974,0.295299999999997 47.5508,2.06740000000002 C 47.5508,2.06740000000002 47.2555,2.06740000000002 47.2555,2.06740000000002 C 47.2555,2.36270000000002 47.2555,2.36270000000002 47.5508,2.36270000000002 C 47.8462,2.36270000000002 48.4369,2.36270000000002 48.7322,2.65809999999999 C 48.7322,2.95339999999999 48.4369,3.54409999999996 48.4369,3.83949999999993 C 48.7322,4.13480000000004 49.6183,4.13480000000004 49.6183,4.43020000000001 C 49.6183,5.02089999999998 48.7322,5.90689999999995 49.0276,6.49760000000003 C 49.0276,7.0883 49.9136,7.0883 50.209,7.67899999999997 C 50.5043,8.26969999999994 50.209,8.86040000000003 50.5043,9.4511 C 50.7997,9.15570000000002 51.095,9.15570000000002 51.3903,8.86040000000003 C 51.3903,9.4511 51.6857,9.74639999999999 51.6857,10.0418 C 51.981,9.74639999999999 52.5717,9.4511 52.8671,8.86040000000003 C 53.1624,9.15570000000002 52.8671,9.74639999999999 52.8671,9.74639999999999 C 52.2764,10.3371 51.6857,10.9278 51.095,10.9278 C 51.095,11.2231 51.095,11.2231 50.7997,11.2231 C 50.209,10.6324999999999 50.209,10.6324999999999 50.209,10.6324999999999 C 49.9136,10.9278 50.7997,11.2231 50.5043,11.2231 C 50.5043,11.8138 50.5043,11.8138 50.5043,11.8138 C 50.7997,12.4045 51.3903,11.8138 51.981,11.8138 C 52.2764,12.6999 51.095,12.6999 51.095,13.2906 C 50.7997,13.5859 51.3903,13.5859 51.6857,13.5859 C 51.6857,14.1766 51.095,14.472 50.7997,14.7673 Z " fill="#0F73A0" stroke="none"/>
        <path d="M 53.4578,78.5623 C 54.3438,79.153 54.9345,80.3343 55.5252,80.925 C 55.5252,81.2204 55.2299,81.5157 54.9345,81.5157 C 53.4578,81.5157 52.2764,81.8111 51.095,81.2204 C 50.209,80.925 49.9136,79.4483 48.7322,78.8576 C 48.1415,79.153 48.4369,79.7436 48.1415,80.3343 C 48.1415,80.3343 47.8462,80.3343 47.8462,80.3343 C 47.5508,78.8576 46.3695,77.0855 47.8462,75.9041 C 47.8462,75.9041 47.8462,75.9041 47.8462,75.9041 C 47.8462,76.1995 47.8462,76.1995 47.8462,76.1995 C 49.0276,77.9716 49.0276,77.9716 49.0276,77.9716 C 51.3903,79.7436 51.3903,79.7436 51.3903,79.7436 C 52.5717,79.7436 52.5717,79.7436 52.5717,79.7436 C 53.1624,78.5623 53.4578,78.5623 53.4578,78.5623 Z Z " fill="#0F73A0" stroke="none"/>
        <path d="M 41.9392,61.7275 C 42.2346,61.1368 43.1206,61.1368 44.0067,61.1368 C 44.302,61.1368 44.302,62.0228 44.5974,62.0228 C 45.1881,62.0228 45.7788,61.1368 46.3695,61.1368 C 46.6648,61.1368 46.6648,61.4321 46.9601,61.7275 C 48.7322,61.1368 48.7322,61.1368 48.7322,61.1368 C 50.5043,62.0228 50.5043,62.0228 50.5043,62.0228 C 51.3903,60.5461 51.3903,60.5461 51.3903,60.5461 C 51.6857,60.5461 51.6857,60.5461 51.6857,60.5461 C 51.6857,60.2507 51.981,60.2507 51.981,60.2507 C 52.8671,54.6392 52.8671,49.0276 53.7531,43.1206 C 53.7531,42.5299 53.4578,41.6439 53.4578,40.7578 C 53.7531,40.7578 54.0485,40.4625 54.3438,40.7578 C 54.3438,39.2811 53.7531,38.0997 53.7531,36.9183 C 55.5252,34.8509 57.2973,32.7835 58.774,30.4207 C 59.0694,30.1254 59.0694,29.2393 58.774,28.6486 C 58.1833,26.8765 57.5926,25.1045 57.0019,23.3324 C 56.1159,20.6743 55.2299,18.0161 54.3438,15.358 C 53.1624,15.0627 51.981,15.0627 50.7997,14.7673 C 45.4834,14.1766 45.4834,14.1766 45.4834,14.1766 C 38.0997,15.6534 38.0997,15.6534 38.0997,15.6534 C 36.623,16.244 34.8509,16.8347 33.3742,17.7208 C 33.0788,20.3789 33.3742,22.7417 33.0788,25.3998 C 32.7835,26.8765 32.4881,28.0579 32.1928,29.5347 C 32.1928,30.1254 31.8974,30.716 32.1928,31.3067 C 32.4881,32.1928 32.4881,33.0788 32.7835,33.6695 C 34.2602,35.1463 36.0323,35.7369 37.509,37.2137 C 37.509,38.0997 37.2137,38.9858 36.9183,40.1672 C 36.623,40.4625 37.2137,40.4625 37.2137,40.4625 C 37.2137,41.0532 36.623,41.9392 36.623,42.5299 C 36.0323,48.4369 36.0323,54.3438 36.3277,60.2507 C 36.3277,60.2507 37.2137,59.9554 37.2137,60.2507 C 38.3951,61.4321 38.3951,61.4321 38.3951,61.4321 C 40.4625,60.8414 40.4625,60.8414 40.4625,60.8414 C 41.9392,62.0228 41.9392,62.0228 41.9392,62.0228 Z " fill="#0F73A0" stroke="none"/>
        <path d="M 49.3229,12.4045 C 49.0276,12.1092 48.4369,11.8138 48.1415,11.5185 C 48.1415,11.8138 47.8462,11.8138 47.8462,11.8138 C 47.8462,12.4045 47.5508,12.9952 48.1415,12.9952 C 48.4369,12.9952 48.1415,12.4045 48.1415,12.1092 C 48.4369,12.4045 48.4369,12.6999 48.7322,12.6999 C 49.0276,12.9952 49.0276,12.6999 49.3229,12.4045 Z Z " fill="#0F73A0" stroke="none"/>
        <path d="M 47.8462,17.4254 C 47.8462,17.4254 47.8462,17.4254 47.5508,17.4254 C 47.5508,17.1301 47.5508,17.1301 47.5508,16.8347 C 47.8462,16.8347 47.8462,16.8347 48.1415,16.8347 C 48.1415,17.1301 48.1415,17.1301 48.1415,17.1301 C 48.4369,16.244 48.1415,15.358 48.1415,14.7673 C 48.1415,14.472 47.5508,14.472 47.2555,14.1766 C 46.9601,13.5859 46.6648,11.8138 47.2555,12.1092 C 48.4369,12.1092 48.4369,9.74639999999999 48.7322,8.26969999999994 C 49.0276,7.67899999999997 48.7322,7.3836 48.4369,6.79290000000003 C 48.4369,6.79290000000003 48.4369,7.0883 48.4369,7.0883 C 48.1415,7.3836 47.5508,7.3836 47.5508,7.3836 C 47.2555,7.0883 47.2555,6.79290000000003 47.5508,6.79290000000003 C 47.5508,6.49760000000003 48.7322,6.20219999999995 48.7322,6.49760000000003 C 48.7322,5.61159999999995 48.4369,5.31619999999998 48.1415,4.72550000000001 C 47.8462,5.02089999999998 47.5508,5.02089999999998 47.2555,5.02089999999998 C 47.5508,4.72550000000001 47.5508,4.13480000000004 47.2555,4.13480000000004 C 46.6648,4.43020000000001 46.6648,5.31619999999998 45.7788,5.31619999999998 C 45.7788,5.02089999999998 45.7788,4.72550000000001 45.7788,4.43020000000001 C 45.4834,4.72550000000001 45.1881,5.31619999999998 44.5974,5.31619999999998 C 44.5974,5.31619999999998 44.5974,4.43020000000001 44.302,4.72550000000001 C 43.7113,5.31619999999998 44.5974,5.61159999999995 44.302,6.20219999999995 C 44.0067,7.3836 44.0067,8.26969999999994 43.416,9.4511 C 43.416,9.4511 43.416,9.74639999999999 43.416,10.0418 C 43.416,10.0418 43.7113,10.3371 44.0067,10.3371 C 44.0067,10.6324999999999 43.7113,10.3371 43.416,10.6324999999999 C 43.416,10.9278 43.416,10.9278 43.416,11.2231 C 43.7113,11.5185 44.0067,11.5185 44.5974,11.5185 C 44.302,12.1092 43.7113,12.4045 43.1206,11.8138 C 42.8253,12.6999 43.416,13.2906 44.0067,13.5859 C 43.7113,13.8813 43.1206,13.5859 42.8253,13.8813 C 42.5299,14.1766 42.8253,14.7673 42.8253,15.0627 C 42.8253,15.0627 42.5299,15.0627 42.5299,15.0627 C 42.2346,15.6534 42.5299,16.244 42.8253,16.8347 C 42.8253,16.5394 42.8253,16.5394 43.1206,16.5394 C 43.416,16.8347 43.1206,16.8347 43.1206,17.1301 C 43.1206,17.1301 42.8253,17.1301 42.8253,17.1301 C 42.5299,17.4254 42.8253,17.4254 42.8253,17.7208 C 44.0067,18.3115 45.1881,18.6068 46.3695,18.6068 C 46.6648,18.6068 47.2555,18.3115 47.5508,18.0161 C 47.2555,17.7208 46.6648,18.0161 46.9601,17.4254 C 46.9601,17.1301 47.2555,17.4254 47.5508,17.4254 C 47.5508,17.4254 47.2555,17.7208 47.5508,18.0161 C 47.5508,18.0161 47.5508,18.0161 47.5508,18.0161 C 47.8462,17.7208 48.4369,17.7208 48.4369,17.4254 C 48.4369,17.4254 48.4369,17.1301 48.1415,17.1301 C 48.1415,17.1301 48.1415,17.4254 47.8462,17.4254 Z Z " fill="#FFFFFF" stroke="none"/>
        <path d="M 46.3695,7.3836 C 46.3695,7.3836 46.3695,7.3836 46.3695,7.3836 C 45.7788,7.3836 45.1881,7.3836 44.8927,6.79290000000003 C 45.4834,6.79290000000003 46.3695,6.49760000000003 46.6648,6.79290000000003 C 46.9601,7.0883 46.6648,7.0883 46.3695,7.3836 Z Z " fill="#0F73A0" stroke="none"/>
        <path d="M 48.1415,8.86040000000003 C 47.8462,9.4511 47.5508,8.86040000000003 47.2555,9.15570000000002 C 47.2555,8.86040000000003 47.5508,8.56499999999994 47.8462,8.56499999999994 C 47.8462,8.56499999999994 48.1415,8.86040000000003 48.1415,8.86040000000003 Z Z " fill="#0F73A0" stroke="none"/>
        <path d="M 47.5508,10.0418 C 47.2555,10.0418 46.9601,10.3371 46.3695,10.0418 C 46.9601,9.74639999999999 47.8462,10.0418 48.4369,9.74639999999999 C 48.4369,9.74639999999999 48.4369,10.0418 48.4369,10.0418 C 48.1415,10.0418 47.8462,10.0418 47.5508,10.0418 Z Z " fill="#0F73A0" stroke="none"/>
        <path d="M 46.3695,18.3115 C 46.3695,18.3115 45.7788,18.3115 45.7788,17.7208 C 46.0741,17.7208 46.0741,17.4254 46.3695,17.7208 C 46.6648,17.7208 46.6648,18.0161 46.3695,18.3115 Z Z " fill="#0B719F" stroke="none"/>
        <path d="M 45.4834,18.3115 C 45.1881,18.3115 45.1881,18.0161 45.1881,18.0161 C 45.1881,18.0161 44.8927,17.7208 45.1881,17.7208 C 45.4834,17.7208 45.4834,17.4254 45.7788,17.7208 C 45.7788,18.0161 45.7788,18.0161 45.4834,18.3115 Z Z " fill="#0B719F" stroke="none"/>
        <path d="M 44.5974,18.0161 C 44.302,18.0161 44.302,18.0161 44.0067,17.7208 C 44.0067,17.7208 44.0067,17.4254 44.302,17.4254 C 44.5974,17.4254 44.8927,17.4254 44.5974,17.7208 C 44.5974,18.0161 44.5974,18.0161 44.5974,18.0161 Z Z " fill="#0B719F" stroke="none"/>
        <path d="M 43.7113,17.4254 C 43.7113,17.4254 43.416,17.4254 43.416,17.4254 C 43.416,17.1301 43.7113,16.8347 44.0067,17.1301 C 44.0067,17.1301 44.0067,17.4254 43.7113,17.4254 Z Z " fill="#0B719F" stroke="none"/>
        <path d="M 47.5508,10.6324999999999 C 47.2555,10.6324999999999 47.2555,10.6324999999999 46.9601,10.3371 C 47.2555,10.3371 47.8462,10.3371 48.1415,10.3371 C 48.1415,10.6324999999999 47.8462,10.6324999999999 47.5508,10.6324999999999 Z Z " fill="#0F73A0" stroke="none"/>
        <path d="M 10.3371,13.2906 C 12.1092,18.6068 12.1092,18.6068 12.1092,18.6068 C 15.9487,27.4672 15.9487,27.4672 15.9487,27.4672 C 17.7208,18.3115 17.7208,18.3115 17.7208,18.3115 C 17.4254,12.9952 17.4254,12.9952 17.4254,12.9952 C 16.5394,12.4045 16.5394,12.4045 16.5394,12.4045 C 15.358,14.472 15.358,14.472 15.358,14.472 C 11.5185,11.8138 11.5185,11.8138 11.5185,11.8138 C 11.5185,12.4045 10.3371,13.2906 10.3371,13.2906 Z Z " fill="#FFFFFF" stroke="none"/>
        <path d="M 15.0627,14.7673 L 15.6534,15.0627 L 15.9487,14.472 L 16.2441,15.358 L 15.6534,15.9487 L 16.5394,24.2184 L 15.9487,27.7626 L 14.1766,23.9231 L 15.0627,15.9487 L 14.472,15.358 L 15.0627,14.7673 Z " fill="#0F73A0" stroke-width="1px" stroke="#0F73A0"/>
        <path d="M 42.8253,17.7208 C 43.416,19.4929 43.416,19.4929 43.416,19.4929 C 47.8462,28.0579 47.8462,28.0579 47.8462,28.0579 C 49.3229,20.0836 49.3229,20.0836 49.3229,20.0836 C 48.4369,17.4254 48.4369,17.4254 48.4369,17.4254 C 46.3695,19.7882 42.8253,17.7208 42.8253,17.7208 Z Z " fill="#FFFFFF" stroke="none"/>
        <path d="M 38.6904,77.0855 C 37.2137,78.8576 37.2137,78.8576 37.2137,78.8576 C 35.737,79.4483 35.737,79.4483 35.737,79.4483 C 33.9649,80.039 33.9649,78.8576 33.9649,78.8576 C 35.1463,76.1995 35.1463,76.1995 35.1463,76.1995 C 34.5556,77.0855 33.9649,77.9716 33.3742,78.8576 C 32.7835,79.7436 32.1928,80.6297 32.1928,81.5157 C 32.1928,81.5157 32.7835,81.8111 33.0788,81.8111 C 33.9649,81.5157 35.1463,81.5157 36.0323,80.925 C 36.9183,80.6297 37.509,79.4483 38.0997,78.8576 C 38.3951,79.153 38.0997,79.7436 38.3951,80.039 C 38.6904,79.153 38.6904,77.9716 38.9858,77.0855 Z Z " fill="#0F73A0" stroke="none"/>
        <path d="M 54.0485,23.9231 C 52.8671,22.151 51.6857,23.6277 51.6857,23.6277 C 51.095,24.8091 51.981,25.3998 51.981,25.3998 C 51.981,25.3998 51.981,25.3998 51.981,25.3998 C 51.3903,24.2184 52.2764,23.6277 52.2764,23.6277 C 53.1624,24.5138 54.0485,23.9231 54.0485,23.9231 Z Z " fill="#FFFFFF" stroke="none"/>
        <path d="M 53.7531,21.5603 C 53.7531,20.9696 52.8671,21.2649 52.8671,21.5603 C 52.5717,21.5603 52.8671,21.2649 52.8671,21.2649 C 52.8671,20.9696 52.5717,20.9696 52.2764,20.9696 C 52.2764,21.2649 52.2764,21.5603 52.2764,21.5603 C 51.981,21.2649 51.3903,20.9696 51.3903,21.8556 C 51.095,22.151 51.6857,21.8556 51.981,22.4463 C 51.6857,22.4463 51.3903,22.151 51.3903,22.4463 C 51.3903,22.4463 51.095,22.7417 51.3903,23.037 C 51.6857,23.037 51.981,22.7417 52.2764,22.7417 C 52.2764,23.037 51.981,23.6277 52.5717,23.3324 C 52.8671,23.3324 52.8671,22.7417 52.8671,22.4463 C 52.8671,22.7417 53.1624,22.7417 53.4578,23.037 C 53.4578,22.7417 53.7531,22.7417 53.7531,22.4463 C 54.0485,21.8556 53.4578,22.151 53.1624,21.8556 C 53.4578,22.151 53.7531,21.8556 53.7531,21.5603 Z Z " fill="#FFFFFF" stroke="none"/>
      </g>
      <!--emf-blob end-->
    </g>
  </g>
</svg>

