<svg xmlns="http://www.w3.org/2000/svg" xmlns:xlink="http://www.w3.org/1999/xlink" version="1.1" viewBox="0 0 99 99" >
  <title><![CDATA[MAS gateway]]></title>
  <g transform=" scale(3.000000) ">
    <!--converted by libvisio2svg-->
    <g>
      <!--emf-blob start-->
      <g>
        <path d="M 26.8588,32.7618 L 26.8588,5.31270000000001 L 0,5.31270000000001 L 0,32.7618 L 26.8588,32.7618 Z " fill="#036C9B" stroke="#FFFFFF" stroke-width="0.88545" stroke-linecap="butt" stroke-linejoin="miter"/>
        <path d="M 32.1715,0 L 26.8588,5.31270000000001 L 0,5.31270000000001 L 5.60790000000003,0 L 32.1715,0 Z " fill="#036C9B" stroke="#FFFFFF" stroke-width="0.88545" stroke-linecap="butt" stroke-linejoin="miter"/>
        <path d="M 32.1715,25.9733 L 32.1715,0 L 26.8588,5.31270000000001 L 26.8588,32.4666 L 32.1715,25.9733 Z " fill="#036C9B" stroke="#FFFFFF" stroke-width="0.88545" stroke-linecap="butt" stroke-linejoin="miter"/>
        <path d="M 16.2333,25.9733 L 18.2994,23.6121 L 15.0527,22.7266 L 16.2333,25.9733 Z " fill="#FFFFFF" stroke-width="1px" stroke="#FFFFFF"/>
        <path d="M 16.5285,23.9072 L 20.3654,28.0394 " stroke="#FFFFFF" stroke-width="1.3282" stroke-linecap="butt" stroke-linejoin="miter" fill="none"/>
        <path d="M 3.83699999999999,14.1673 L 6.19819999999999,12.1012 L 2.65640000000002,10.9206 L 3.83699999999999,14.1673 Z " fill="#FFFFFF" stroke-width="1px" stroke="#FFFFFF"/>
        <path d="M 4.13209999999998,12.1012 L 8.26420000000002,16.2333 " stroke="#FFFFFF" stroke-width="1.3282" stroke-linecap="butt" stroke-linejoin="miter" fill="none"/>
        <path d="M 5.01760000000002,20.9557 L 5.01760000000002,17.7091 L 1.77089999999998,19.48 L 5.01760000000002,20.9557 Z " fill="#FFFFFF" stroke-width="1px" stroke="#FFFFFF"/>
        <path d="M 3.54180000000002,19.1848 L 9.44490000000002,19.1848 " stroke="#FFFFFF" stroke-width="1.3282" stroke-linecap="butt" stroke-linejoin="miter" fill="none"/>
        <path d="M 16.2333,12.9867 L 18.2994,15.3479 L 15.0527,16.2333 L 16.2333,12.9867 Z " fill="#FFFFFF" stroke-width="1px" stroke="#FFFFFF"/>
        <path d="M 16.5285,15.0527 L 20.3654,10.9206 " stroke="#FFFFFF" stroke-width="1.3282" stroke-linecap="butt" stroke-linejoin="miter" fill="none"/>
        <path d="M 3.83699999999999,24.7927 L 6.19819999999999,26.8588 L 2.65640000000002,28.0394 L 3.83699999999999,24.7927 Z " fill="#FFFFFF" stroke-width="1px" stroke="#FFFFFF"/>
        <path d="M 4.13209999999998,26.8588 L 8.26420000000002,22.7266 " stroke="#FFFFFF" stroke-width="1.3282" stroke-linecap="butt" stroke-linejoin="miter" fill="none"/>
        <path d="M 8.26420000000002,15.9382 L 14.4624,15.9382 L 14.4624,22.7266 L 8.26420000000002,22.7266 L 8.26420000000002,15.9382 Z " fill="#036C9B" stroke="#FFFFFF" stroke-width="0.88545" stroke-linecap="butt" stroke-linejoin="miter"/>
        <path d="M 19.48,23.9072 L 24.7927,23.9072 L 24.7927,29.22 L 19.48,29.22 L 19.48,23.9072 Z " fill="#036C9B" stroke="#FFFFFF" stroke-width="0.88545" stroke-linecap="butt" stroke-linejoin="miter"/>
        <path d="M 19.48,9.74000000000001 L 24.7927,9.74000000000001 L 24.7927,15.0527 L 19.48,15.0527 L 19.48,9.74000000000001 Z " fill="#036C9B" stroke="#FFFFFF" stroke-width="0.88545" stroke-linecap="butt" stroke-linejoin="miter"/>
      </g>
      <!--emf-blob end-->
    </g>
  </g>
</svg>

