<svg xmlns="http://www.w3.org/2000/svg" xmlns:xlink="http://www.w3.org/1999/xlink" version="1.1" viewBox="0 0 138 45" >
  <title><![CDATA[MAU]]></title>
  <g transform=" scale(3.000000) ">
    <!--converted by libvisio2svg-->
    <g>
      <!--emf-blob start-->
      <g>
        <path d="M 0,14.1733 L 0,4.42920000000004 L 39.2717,4.42920000000004 L 39.2717,14.1733 L 0,14.1733 Z " fill="#0F73A0" stroke="#FFFFFF" stroke-width="0.88585" stroke-linecap="butt" stroke-linejoin="miter"/>
        <path d="M 9.44879999999995,9.15360000000004 L 9.44879999999995,7.67720000000003 L 2.65749999999997,7.67720000000003 L 2.65749999999997,9.15360000000004 L 9.44879999999995,9.15360000000004 Z " fill="#0B719F" stroke="#FFFFFF" stroke-width="0.88585" stroke-linecap="butt" stroke-linejoin="miter"/>
        <path d="M 18.3071,9.15360000000004 L 18.3071,7.67720000000003 L 11.5158,7.67720000000003 L 11.5158,9.15360000000004 L 18.3071,9.15360000000004 Z " fill="#0B719F" stroke="#FFFFFF" stroke-width="0.88585" stroke-linecap="butt" stroke-linejoin="miter"/>
        <path d="M 27.4606,9.15360000000004 L 27.4606,7.67720000000003 L 20.374,7.67720000000003 L 20.374,9.15360000000004 L 27.4606,9.15360000000004 Z " fill="#0B719F" stroke="#FFFFFF" stroke-width="0.88585" stroke-linecap="butt" stroke-linejoin="miter"/>
        <path d="M 36.3189,9.15360000000004 L 36.3189,7.67720000000003 L 29.2323,7.67720000000003 L 29.2323,9.15360000000004 L 36.3189,9.15360000000004 Z " fill="#0B719F" stroke="#FFFFFF" stroke-width="0.88585" stroke-linecap="butt" stroke-linejoin="miter"/>
        <path d="M 39.2717,4.42920000000004 L 39.2717,4.42920000000004 L 0,4.42920000000004 L 5.90549999999996,0 L 45.4725,0 L 39.2717,4.42920000000004 Z " fill="#0F73A0" stroke="#FFFFFF" stroke-width="0.88585" stroke-linecap="butt" stroke-linejoin="miter"/>
        <path d="M 39.2717,14.1733 L 39.2717,4.42920000000004 L 45.4725,0 L 45.4725,8.85830000000004 L 39.2717,14.1733 Z " fill="#0F73A0" stroke="#FFFFFF" stroke-width="0.88585" stroke-linecap="butt" stroke-linejoin="miter"/>
      </g>
      <!--emf-blob end-->
    </g>
  </g>
</svg>

