<svg xmlns="http://www.w3.org/2000/svg" xmlns:xlink="http://www.w3.org/1999/xlink" version="1.1" viewBox="0 0 93 111" >
  <title><![CDATA[MCU]]></title>
  <g transform=" scale(3.000000) ">
    <!--converted by libvisio2svg-->
    <g>
      <!--emf-blob start-->
      <g>
        <path d="M 4.7226,8.5598 L 4.13229999999999,8.5598 L 0,8.5598 L 0,12.3969 L 4.13229999999999,12.3969 L 4.7226,12.3969 Z " fill="#FFFFFF" stroke-width="1px" stroke="#FFFFFF"/>
        <path d="M 4.7226,8.5598 L 4.13229999999999,8.5598 L 0,8.5598 L 0,12.3969 L 4.13229999999999,12.3969 L 4.7226,12.3969 " stroke="#036E9D" stroke-width="0.8855" stroke-linecap="butt" stroke-linejoin="miter" fill="none"/>
        <path d="M 25.384,12.3969 C 25.9744,12.3969 25.9744,12.3969 25.9744,12.3969 C 30.4018,12.3969 30.9921,16.234 30.9921,16.234 C 30.9921,12.3969 30.9921,12.3969 30.9921,12.3969 C 30.9921,12.3969 30.4018,8.5598 25.9744,8.5598 C 25.0889,8.5598 25.0889,8.5598 25.0889,8.5598 Z " fill="#FFFFFF" stroke="none"/>
        <path d="M 25.384,12.3969 C 25.9744,12.3969 25.9744,12.3969 25.9744,12.3969 C 30.4018,12.3969 30.9921,16.234 30.9921,16.234 C 30.9921,12.3969 30.9921,12.3969 30.9921,12.3969 C 30.9921,12.3969 30.4018,8.5598 25.9744,8.5598 C 25.0889,8.5598 25.0889,8.5598 25.0889,8.5598 Z " stroke="#036E9D" stroke-width="0.8855" stroke-linecap="butt" stroke-linejoin="miter" fill="none"/>
        <path d="M 23.0227,36.01 L 23.0227,2.95170000000002 L 4.13229999999999,2.95170000000002 L 4.13229999999999,36.01 L 23.0227,36.01 Z " fill="#036E9D" stroke="#FFFFFF" stroke-width="0.8855" stroke-linecap="butt" stroke-linejoin="miter"/>
        <path d="M 4.13229999999999,2.95170000000002 L 7.67419999999998,0 L 26.2695,0 L 23.0227,2.95170000000002 L 4.13229999999999,2.95170000000002 Z " fill="#036E9D" stroke="#FFFFFF" stroke-width="0.8855" stroke-linecap="butt" stroke-linejoin="miter"/>
        <path d="M 23.0227,36.01 L 26.2695,32.468 L 26.2695,0 L 23.0227,2.95170000000002 L 23.0227,36.01 Z " fill="#036E9D" stroke="#FFFFFF" stroke-width="0.8855" stroke-linecap="butt" stroke-linejoin="miter"/>
        <path d="M 30.9921,12.1017 C 30.9921,16.8244 30.9921,16.8244 30.9921,16.8244 C 30.4018,22.4325 20.6614,22.1373 20.6614,22.1373 C 20.6614,22.4325 20.6614,22.4325 20.6614,22.4325 C 20.6614,26.2696 20.6614,26.2696 20.6614,26.2696 C 14.1678,19.776 14.1678,19.776 14.1678,19.776 C 20.6614,13.2824 20.6614,13.2824 20.6614,13.2824 C 20.6614,17.4147 20.6614,17.4147 20.6614,17.4147 C 20.6614,17.4147 30.697,17.7099 30.9921,12.1017 Z " fill="#FFFFFF" stroke="none"/>
        <path d="M 30.9921,12.1017 C 30.9921,16.8244 30.9921,16.8244 30.9921,16.8244 C 30.4018,22.4325 20.6614,22.1373 20.6614,22.1373 C 20.6614,22.4325 20.6614,22.4325 20.6614,22.4325 C 20.6614,26.2696 20.6614,26.2696 20.6614,26.2696 C 14.1678,19.776 14.1678,19.776 14.1678,19.776 C 20.6614,13.2824 20.6614,13.2824 20.6614,13.2824 C 20.6614,17.4147 20.6614,17.4147 20.6614,17.4147 C 20.6614,17.4147 30.697,17.7099 30.9921,12.1017 Z " stroke="#036E9D" stroke-width="0.8855" stroke-linecap="butt" stroke-linejoin="miter" fill="none"/>
        <path d="M 7.37909999999999,9.44530000000003 L 6.19839999999999,10.3308 L 6.19839999999999,5.31299999999999 L 11.2162,5.31299999999999 L 10.3307,6.49360000000001 L 10.0355,6.78879999999998 L 17.4146,14.1679 L 15.0533,16.5292 L 7.67419999999998,9.15010000000001 L 7.37909999999999,9.44530000000003 Z " fill="#FFFFFF" stroke-width="1px" stroke="#FFFFFF"/>
        <path d="M 7.37909999999999,30.4019 L 6.19839999999999,29.2212 L 6.19839999999999,34.239 L 11.2162,34.239 L 10.3307,33.0584 L 10.0355,32.7632 L 17.4146,25.3841 L 15.0533,23.0228 L 7.67419999999998,30.4019 L 7.37909999999999,30.4019 Z " fill="#FFFFFF" stroke-width="1px" stroke="#FFFFFF"/>
      </g>
      <!--emf-blob end-->
    </g>
  </g>
</svg>

