<svg xmlns="http://www.w3.org/2000/svg" xmlns:xlink="http://www.w3.org/1999/xlink" version="1.1" viewBox="0 0 111 135" >
  <title><![CDATA[MDU]]></title>
  <g transform=" scale(3.000000) ">
    <!--converted by libvisio2svg-->
    <g>
      <!--emf-blob start-->
      <g>
        <path d="M 36.6003,35.7147 L 36.6003,2.65639999999996 L 28.6309,10.6258 L 28.6309,44.8648 L 36.6003,35.7147 Z " fill="#0F73A0" stroke="#FFFFFF" stroke-width="0.8855" stroke-linecap="butt" stroke-linejoin="miter"/>
        <path d="M 28.6309,10.6258 L 0,10.6258 L 0,44.8648 L 28.6309,44.8648 L 28.6309,10.6258 Z " fill="#0F73A0" stroke="#FFFFFF" stroke-width="0.8855" stroke-linecap="butt" stroke-linejoin="miter"/>
        <path d="M 28.6309,10.6258 L 36.6003,2.65639999999996 L 32.7632,0 L 5.31299999999999,0 L 0,10.6258 L 28.6309,10.6258 L 28.6309,10.6258 Z " fill="#0F73A0" stroke="#FFFFFF" stroke-width="0.8855" stroke-linecap="butt" stroke-linejoin="miter"/>
        <path d="M 6.19849999999997,23.613 L 6.19849999999997,26.5647 L 9.15010000000001,26.5647 Z " fill="#0B719F" stroke-width="1px" stroke="#0B719F"/>
        <path d="M 6.19849999999997,23.613 L 6.19849999999997,26.5647 L 9.15010000000001,26.5647 " stroke="#FFFFFF" stroke-width="0.8855" stroke-linecap="butt" stroke-linejoin="miter" fill="none"/>
        <path d="M 5.60809999999998,26.5647 L 9.15010000000001,26.5647 Z " fill="#0B719F" stroke-width="1px" stroke="#0B719F"/>
        <path d="M 5.60809999999998,26.5647 L 9.15010000000001,26.5647 " stroke="#FFFFFF" stroke-width="0.8855" stroke-linecap="butt" stroke-linejoin="miter" fill="none"/>
        <path d="M 1.77099999999996,23.613 L 1.77099999999996,26.5647 L 4.72269999999997,26.5647 Z " fill="#0B719F" stroke-width="1px" stroke="#0B719F"/>
        <path d="M 1.77099999999996,23.613 L 1.77099999999996,26.5647 L 4.72269999999997,26.5647 " stroke="#FFFFFF" stroke-width="0.8855" stroke-linecap="butt" stroke-linejoin="miter" fill="none"/>
        <path d="M 1.47589999999997,26.5647 L 4.72269999999997,26.5647 Z " fill="#0B719F" stroke-width="1px" stroke="#0B719F"/>
        <path d="M 1.47589999999997,26.5647 L 4.72269999999997,26.5647 " stroke="#FFFFFF" stroke-width="0.8855" stroke-linecap="butt" stroke-linejoin="miter" fill="none"/>
        <path d="M 1.77099999999996,17.7098 L 1.77099999999996,20.6614 L 4.72269999999997,20.6614 Z " fill="#0B719F" stroke-width="1px" stroke="#0B719F"/>
        <path d="M 1.77099999999996,17.7098 L 1.77099999999996,20.6614 L 4.72269999999997,20.6614 " stroke="#FFFFFF" stroke-width="0.8855" stroke-linecap="butt" stroke-linejoin="miter" fill="none"/>
        <path d="M 1.47589999999997,20.6614 L 4.72269999999997,20.6614 Z " fill="#0B719F" stroke-width="1px" stroke="#0B719F"/>
        <path d="M 1.47589999999997,20.6614 L 4.72269999999997,20.6614 " stroke="#FFFFFF" stroke-width="0.8855" stroke-linecap="butt" stroke-linejoin="miter" fill="none"/>
        <path d="M 6.19849999999997,12.1017 L 6.19849999999997,15.0533 L 9.15010000000001,15.0533 Z " fill="#0B719F" stroke-width="1px" stroke="#0B719F"/>
        <path d="M 6.19849999999997,12.1017 L 6.19849999999997,15.0533 L 9.15010000000001,15.0533 " stroke="#FFFFFF" stroke-width="0.8855" stroke-linecap="butt" stroke-linejoin="miter" fill="none"/>
        <path d="M 5.60809999999998,15.0533 L 9.15010000000001,15.0533 Z " fill="#0B719F" stroke-width="1px" stroke="#0B719F"/>
        <path d="M 5.60809999999998,15.0533 L 9.15010000000001,15.0533 " stroke="#FFFFFF" stroke-width="0.8855" stroke-linecap="butt" stroke-linejoin="miter" fill="none"/>
        <path d="M 1.77099999999996,12.1017 L 1.77099999999996,15.0533 L 4.72269999999997,15.0533 Z " fill="#0B719F" stroke-width="1px" stroke="#0B719F"/>
        <path d="M 1.77099999999996,12.1017 L 1.77099999999996,15.0533 L 4.72269999999997,15.0533 " stroke="#FFFFFF" stroke-width="0.8855" stroke-linecap="butt" stroke-linejoin="miter" fill="none"/>
        <path d="M 1.47589999999997,15.0533 L 4.72269999999997,15.0533 Z " fill="#0B719F" stroke-width="1px" stroke="#0B719F"/>
        <path d="M 1.47589999999997,15.0533 L 4.72269999999997,15.0533 " stroke="#FFFFFF" stroke-width="0.8855" stroke-linecap="butt" stroke-linejoin="miter" fill="none"/>
        <path d="M 10.9211,23.613 L 10.9211,26.5647 L 13.8727,26.5647 Z " fill="#0B719F" stroke-width="1px" stroke="#0B719F"/>
        <path d="M 10.9211,23.613 L 10.9211,26.5647 L 13.8727,26.5647 " stroke="#FFFFFF" stroke-width="0.8855" stroke-linecap="butt" stroke-linejoin="miter" fill="none"/>
        <path d="M 10.6259,26.5647 L 13.8727,26.5647 Z " fill="#0B719F" stroke-width="1px" stroke="#0B719F"/>
        <path d="M 10.6259,26.5647 L 13.8727,26.5647 " stroke="#FFFFFF" stroke-width="0.8855" stroke-linecap="butt" stroke-linejoin="miter" fill="none"/>
        <path d="M 10.9211,17.7098 L 10.9211,20.6614 L 13.8727,20.6614 Z " fill="#0B719F" stroke-width="1px" stroke="#0B719F"/>
        <path d="M 10.9211,17.7098 L 10.9211,20.6614 L 13.8727,20.6614 " stroke="#FFFFFF" stroke-width="0.8855" stroke-linecap="butt" stroke-linejoin="miter" fill="none"/>
        <path d="M 10.6259,20.6614 L 13.8727,20.6614 Z " fill="#0B719F" stroke-width="1px" stroke="#0B719F"/>
        <path d="M 10.6259,20.6614 L 13.8727,20.6614 " stroke="#FFFFFF" stroke-width="0.8855" stroke-linecap="butt" stroke-linejoin="miter" fill="none"/>
        <path d="M 10.9211,12.1017 L 10.9211,15.0533 L 13.8727,15.0533 Z " fill="#0B719F" stroke-width="1px" stroke="#0B719F"/>
        <path d="M 10.9211,12.1017 L 10.9211,15.0533 L 13.8727,15.0533 " stroke="#FFFFFF" stroke-width="0.8855" stroke-linecap="butt" stroke-linejoin="miter" fill="none"/>
        <path d="M 10.6259,15.0533 L 13.8727,15.0533 Z " fill="#0B719F" stroke-width="1px" stroke="#0B719F"/>
        <path d="M 10.6259,15.0533 L 13.8727,15.0533 " stroke="#FFFFFF" stroke-width="0.8855" stroke-linecap="butt" stroke-linejoin="miter" fill="none"/>
        <path d="M 19.776,23.613 L 19.776,26.5647 L 22.7276,26.5647 Z " fill="#0B719F" stroke-width="1px" stroke="#0B719F"/>
        <path d="M 19.776,23.613 L 19.776,26.5647 L 22.7276,26.5647 " stroke="#FFFFFF" stroke-width="0.8855" stroke-linecap="butt" stroke-linejoin="miter" fill="none"/>
        <path d="M 19.1857,26.5647 L 22.7276,26.5647 Z " fill="#0B719F" stroke-width="1px" stroke="#0B719F"/>
        <path d="M 19.1857,26.5647 L 22.7276,26.5647 " stroke="#FFFFFF" stroke-width="0.8855" stroke-linecap="butt" stroke-linejoin="miter" fill="none"/>
        <path d="M 15.3485,23.613 L 15.3485,26.5647 L 18.3002,26.5647 Z " fill="#0B719F" stroke-width="1px" stroke="#0B719F"/>
        <path d="M 15.3485,23.613 L 15.3485,26.5647 L 18.3002,26.5647 " stroke="#FFFFFF" stroke-width="0.8855" stroke-linecap="butt" stroke-linejoin="miter" fill="none"/>
        <path d="M 15.0534,26.5647 L 18.3002,26.5647 Z " fill="#0B719F" stroke-width="1px" stroke="#0B719F"/>
        <path d="M 15.0534,26.5647 L 18.3002,26.5647 " stroke="#FFFFFF" stroke-width="0.8855" stroke-linecap="butt" stroke-linejoin="miter" fill="none"/>
        <path d="M 15.3485,17.7098 L 15.3485,20.6614 L 18.3002,20.6614 Z " fill="#0B719F" stroke-width="1px" stroke="#0B719F"/>
        <path d="M 15.3485,17.7098 L 15.3485,20.6614 L 18.3002,20.6614 " stroke="#FFFFFF" stroke-width="0.8855" stroke-linecap="butt" stroke-linejoin="miter" fill="none"/>
        <path d="M 15.0534,20.6614 L 18.3002,20.6614 Z " fill="#0B719F" stroke-width="1px" stroke="#0B719F"/>
        <path d="M 15.0534,20.6614 L 18.3002,20.6614 " stroke="#FFFFFF" stroke-width="0.8855" stroke-linecap="butt" stroke-linejoin="miter" fill="none"/>
        <path d="M 19.776,12.1017 L 19.776,15.0533 L 22.7276,15.0533 Z " fill="#0B719F" stroke-width="1px" stroke="#0B719F"/>
        <path d="M 19.776,12.1017 L 19.776,15.0533 L 22.7276,15.0533 " stroke="#FFFFFF" stroke-width="0.8855" stroke-linecap="butt" stroke-linejoin="miter" fill="none"/>
        <path d="M 19.1857,15.0533 L 22.7276,15.0533 Z " fill="#0B719F" stroke-width="1px" stroke="#0B719F"/>
        <path d="M 19.1857,15.0533 L 22.7276,15.0533 " stroke="#FFFFFF" stroke-width="0.8855" stroke-linecap="butt" stroke-linejoin="miter" fill="none"/>
        <path d="M 15.3485,12.1017 L 15.3485,15.0533 L 18.3002,15.0533 Z " fill="#0B719F" stroke-width="1px" stroke="#0B719F"/>
        <path d="M 15.3485,12.1017 L 15.3485,15.0533 L 18.3002,15.0533 " stroke="#FFFFFF" stroke-width="0.8855" stroke-linecap="butt" stroke-linejoin="miter" fill="none"/>
        <path d="M 15.0534,15.0533 L 18.3002,15.0533 Z " fill="#0B719F" stroke-width="1px" stroke="#0B719F"/>
        <path d="M 15.0534,15.0533 L 18.3002,15.0533 " stroke="#FFFFFF" stroke-width="0.8855" stroke-linecap="butt" stroke-linejoin="miter" fill="none"/>
        <path d="M 24.4986,23.613 L 24.4986,26.5647 L 27.4502,26.5647 Z " fill="#0B719F" stroke-width="1px" stroke="#0B719F"/>
        <path d="M 24.4986,23.613 L 24.4986,26.5647 L 27.4502,26.5647 " stroke="#FFFFFF" stroke-width="0.8855" stroke-linecap="butt" stroke-linejoin="miter" fill="none"/>
        <path d="M 24.2034,26.5647 L 27.4502,26.5647 Z " fill="#0B719F" stroke-width="1px" stroke="#0B719F"/>
        <path d="M 24.2034,26.5647 L 27.4502,26.5647 " stroke="#FFFFFF" stroke-width="0.8855" stroke-linecap="butt" stroke-linejoin="miter" fill="none"/>
        <path d="M 24.4986,17.7098 L 24.4986,20.6614 L 27.4502,20.6614 Z " fill="#0B719F" stroke-width="1px" stroke="#0B719F"/>
        <path d="M 24.4986,17.7098 L 24.4986,20.6614 L 27.4502,20.6614 " stroke="#FFFFFF" stroke-width="0.8855" stroke-linecap="butt" stroke-linejoin="miter" fill="none"/>
        <path d="M 24.2034,20.6614 L 27.4502,20.6614 Z " fill="#0B719F" stroke-width="1px" stroke="#0B719F"/>
        <path d="M 24.2034,20.6614 L 27.4502,20.6614 " stroke="#FFFFFF" stroke-width="0.8855" stroke-linecap="butt" stroke-linejoin="miter" fill="none"/>
        <path d="M 24.4986,12.1017 L 24.4986,15.0533 L 27.4502,15.0533 Z " fill="#0B719F" stroke-width="1px" stroke="#0B719F"/>
        <path d="M 24.4986,12.1017 L 24.4986,15.0533 L 27.4502,15.0533 " stroke="#FFFFFF" stroke-width="0.8855" stroke-linecap="butt" stroke-linejoin="miter" fill="none"/>
        <path d="M 24.2034,15.0533 L 27.4502,15.0533 Z " fill="#0B719F" stroke-width="1px" stroke="#0B719F"/>
        <path d="M 24.2034,15.0533 L 27.4502,15.0533 " stroke="#FFFFFF" stroke-width="0.8855" stroke-linecap="butt" stroke-linejoin="miter" fill="none"/>
        <path d="M 35.1245,7.08389999999997 L 35.1245,10.3307 L 33.0584,12.1017 Z " fill="#0B719F" stroke-width="1px" stroke="#0B719F"/>
        <path d="M 35.1245,7.08389999999997 L 35.1245,10.3307 L 33.0584,12.1017 " stroke="#FFFFFF" stroke-width="0.8855" stroke-linecap="butt" stroke-linejoin="miter" fill="none"/>
        <path d="M 35.1245,18.8904 L 35.1245,22.1372 L 33.0584,23.9082 Z " fill="#0B719F" stroke-width="1px" stroke="#0B719F"/>
        <path d="M 35.1245,18.8904 L 35.1245,22.1372 L 33.0584,23.9082 " stroke="#FFFFFF" stroke-width="0.8855" stroke-linecap="butt" stroke-linejoin="miter" fill="none"/>
        <path d="M 31.8777,21.5469 L 31.8777,25.0889 L 29.8116,26.8598 Z " fill="#0B719F" stroke-width="1px" stroke="#0B719F"/>
        <path d="M 31.8777,21.5469 L 31.8777,25.0889 L 29.8116,26.8598 " stroke="#FFFFFF" stroke-width="0.8855" stroke-linecap="butt" stroke-linejoin="miter" fill="none"/>
        <path d="M 31.8777,9.74039999999997 L 31.8777,13.2823 L 29.8116,15.0533 Z " fill="#0B719F" stroke-width="1px" stroke="#0B719F"/>
        <path d="M 31.8777,9.74039999999997 L 31.8777,13.2823 L 29.8116,15.0533 " stroke="#FFFFFF" stroke-width="0.8855" stroke-linecap="butt" stroke-linejoin="miter" fill="none"/>
        <path d="M 33.0584,0 L 28.6309,10.6258 Z " fill="#0F73A0" stroke-width="1px" stroke="#0F73A0"/>
        <path d="M 33.0584,0 L 28.6309,10.6258 " stroke="#FFFFFF" stroke-width="0.8855" stroke-linecap="butt" stroke-linejoin="miter" fill="none"/>
      </g>
      <!--emf-blob end-->
    </g>
  </g>
</svg>

