<svg xmlns="http://www.w3.org/2000/svg" xmlns:xlink="http://www.w3.org/1999/xlink" version="1.1" viewBox="0 0 153 81" >
  <title><![CDATA[ME1100]]></title>
  <g transform=" scale(3.000000) ">
    <!--converted by libvisio2svg-->
    <g>
      <!--emf-blob start-->
      <g>
        <path d="M 0,9.74010000000004 L 11.8062,0 L 50.4716,0 L 40.4363,9.74010000000004 L 0,9.74010000000004 Z " fill="#036C9B" stroke="#FFFFFF" stroke-width="0.88545" stroke-linecap="butt" stroke-linejoin="miter"/>
        <path d="M 40.4363,26.564 L 50.4716,16.5287 L 50.4716,0 L 40.4363,9.74010000000004 L 40.4363,26.564 Z " fill="#036C9B" stroke="#FFFFFF" stroke-width="0.88545" stroke-linecap="butt" stroke-linejoin="miter"/>
        <path d="M 40.4363,26.8591 L 40.4363,9.74010000000004 L 0,9.74010000000004 L 0,26.8591 L 40.4363,26.8591 Z " fill="#036C9B" stroke="#FFFFFF" stroke-width="0.88545" stroke-linecap="butt" stroke-linejoin="miter"/>
        <path d="M 28.6301,15.9384 C 28.6301,17.4142 25.3834,18.8899 20.956,18.8899 C 16.8239,18.8899 13.5771999999999,17.4142 13.5771999999999,15.9384 C 13.5771999999999,20.3657 13.5771999999999,20.3657 13.5771999999999,20.3657 C 13.5771999999999,21.8415 16.8239,23.3173 20.956,23.3173 C 25.3834,23.3173 28.6301,21.8415 28.6301,20.3657 Z Z " fill="#036C9B" stroke="#FFFFFF" stroke-width="0.88545" stroke-linecap="butt" stroke-linejoin="miter"/>
        <path d="M 20.956,18.8899 C 25.3834,18.8899 28.6301,17.4142 28.6301,15.9384 C 28.6301,14.1675 25.3834,12.9868 20.956,12.9868 C 16.8239,12.9868 13.5771999999999,14.1675 13.5771999999999,15.9384 C 13.5771999999999,17.4142 16.8239,18.8899 20.956,18.8899 Z Z " fill="#036C9B" stroke="#FFFFFF" stroke-width="0.88545" stroke-linecap="butt" stroke-linejoin="miter"/>
        <path d="M 9.44499999999999,12.9868 L 0,12.9868 " stroke="#FFFFFF" stroke-width="1.3282" stroke-linecap="butt" stroke-linejoin="miter" fill="none"/>
        <path d="M 12.6917,12.9868 L 7.08369999999996,15.3481 L 8.26439999999997,12.9868 L 7.08369999999996,10.9208 L 12.6917,12.9868 Z " fill="#FFFFFF" stroke-width="1px" stroke="#FFFFFF"/>
        <path d="M 9.44499999999999,18.0045 L 0,18.0045 " stroke="#FFFFFF" stroke-width="1.3282" stroke-linecap="butt" stroke-linejoin="miter" fill="none"/>
        <path d="M 12.6917,18.0045 L 7.08369999999996,20.3657 L 8.26439999999997,18.0045 L 7.08369999999996,15.6432 L 12.6917,18.0045 Z " fill="#FFFFFF" stroke-width="1px" stroke="#FFFFFF"/>
        <path d="M 37.1896,18.0045 L 32.7623,18.0045 " stroke="#FFFFFF" stroke-width="1.3282" stroke-linecap="butt" stroke-linejoin="miter" fill="none"/>
        <path d="M 39.8459999999999,18.0045 L 35.4187,19.7754 L 36.3040999999999,18.0045 L 35.4187,16.2335 L 39.8459999999999,18.0045 Z " fill="#FFFFFF" stroke-width="1px" stroke="#FFFFFF"/>
        <path d="M 9.44499999999999,23.0221 L 0,23.0221 " stroke="#FFFFFF" stroke-width="1.3282" stroke-linecap="butt" stroke-linejoin="miter" fill="none"/>
        <path d="M 12.6917,23.0221 L 7.08369999999996,25.3834 L 8.26439999999997,23.0221 L 7.08369999999996,20.6609 L 12.6917,23.0221 Z " fill="#FFFFFF" stroke-width="1px" stroke="#FFFFFF"/>
        <path d="M 33.6477,16.2335 L 32.7623,18.0045 L 33.6477,19.7754 L 29.2204,18.0045 L 33.6477,16.2335 Z " fill="#FFFFFF" stroke-width="1px" stroke="#FFFFFF"/>
      </g>
      <!--emf-blob end-->
    </g>
  </g>
</svg>

