<svg xmlns="http://www.w3.org/2000/svg" xmlns:xlink="http://www.w3.org/1999/xlink" version="1.1" viewBox="0 0 126 141" >
  <title><![CDATA[Mediator]]></title>
  <g transform=" scale(3.000000) ">
    <!--converted by libvisio2svg-->
    <g>
      <!--emf-blob start-->
      <g>
        <path d="M 33.361,46.056 L 33.361,7.97119999999995 L 0,7.97119999999995 L 0,46.056 L 33.361,46.056 Z " fill="#026C9B" stroke="#FFFFFF" stroke-width="0.44285" stroke-linecap="butt" stroke-linejoin="miter"/>
        <path d="M 33.361,7.97119999999995 L 0,7.97119999999995 L 10.0378,0.295199999999966 L 41.3323,0.295199999999966 L 41.3323,0.295199999999966 L 41.3323,38.38 L 33.361,46.056 L 33.361,7.97119999999995 L 33.361,7.97119999999995 Z " fill="#026C9B" stroke="#FFFFFF" stroke-width="0.44285" stroke-linecap="butt" stroke-linejoin="miter"/>
        <path d="M 33.361,7.97119999999995 L 41.6275,0 Z " fill="#026C9B" stroke-width="1px" stroke="#026C9B"/>
        <path d="M 33.361,7.97119999999995 L 41.6275,0 " stroke="#FFFFFF" stroke-width="0.44285" stroke-linecap="butt" stroke-linejoin="miter" fill="none"/>
        <path d="M 7.97120000000001,29.2277999999999 L 2.36180000000002,29.2277999999999 L 2.36180000000002,38.6752 L 7.97120000000001,38.6752 Z " fill="#026C9B" stroke-width="1px" stroke="#026C9B"/>
        <path d="M 7.97120000000001,29.2277999999999 L 2.36180000000002,29.2277999999999 L 2.36180000000002,38.6752 L 7.97120000000001,38.6752 " stroke="#FFFFFF" stroke-width="0.44285" stroke-linecap="round" stroke-linejoin="round" fill="none"/>
        <path d="M 7.97120000000001,38.6752 L 11.2187,36.9038 L 11.2187,27.4564999999999 L 5.60930000000002,27.4564999999999 L 2.36180000000002,29.2277999999999 L 7.97120000000001,29.2277999999999 L 7.97120000000001,38.6752 Z " fill="#026C9B" stroke="#FFFFFF" stroke-width="0.44285" stroke-linecap="round" stroke-linejoin="round"/>
        <path d="M 7.97120000000001,29.2277999999999 L 11.2187,27.4564999999999 Z " fill="#026C9B" stroke-width="1px" stroke="#026C9B"/>
        <path d="M 7.97120000000001,29.2277999999999 L 11.2187,27.4564999999999 " stroke="#FFFFFF" stroke-width="0.44285" stroke-linecap="round" stroke-linejoin="round" fill="none"/>
        <path d="M 19.7804,17.7138 L 7.97120000000001,17.7138 L 7.97120000000001,38.6752 L 19.7804,38.6752 Z " fill="#026C9B" stroke-width="1px" stroke="#026C9B"/>
        <path d="M 19.7804,17.7138 L 7.97120000000001,17.7138 L 7.97120000000001,38.6752 L 19.7804,38.6752 " stroke="#FFFFFF" stroke-width="0.44285" stroke-linecap="round" stroke-linejoin="round" fill="none"/>
        <path d="M 19.7804,38.6752 L 24.5041,36.0180999999999 L 24.5041,15.0568 L 12.6949,15.0568 L 7.97120000000001,17.7138 L 19.7804,17.7138 L 19.7804,38.6752 Z " fill="#026C9B" stroke="#FFFFFF" stroke-width="0.44285" stroke-linecap="round" stroke-linejoin="round"/>
        <path d="M 19.7804,17.7138 L 24.5041,15.0568 Z " fill="#026C9B" stroke-width="1px" stroke="#026C9B"/>
        <path d="M 19.7804,17.7138 L 24.5041,15.0568 " stroke="#FFFFFF" stroke-width="0.44285" stroke-linecap="round" stroke-linejoin="round" fill="none"/>
        <path d="M 25.9803,20.9614 L 19.7804,20.9614 L 19.7804,38.6752 L 25.9803,38.6752 Z " fill="#026C9B" stroke-width="1px" stroke="#026C9B"/>
        <path d="M 25.9803,20.9614 L 19.7804,20.9614 L 19.7804,38.6752 L 25.9803,38.6752 " stroke="#FFFFFF" stroke-width="0.44285" stroke-linecap="round" stroke-linejoin="round" fill="none"/>
        <path d="M 25.9803,38.6752 L 30.704,36.0180999999999 L 30.704,18.3043 L 24.5041,18.3043 L 19.7804,20.9614 L 25.9803,20.9614 L 25.9803,38.6752 Z " fill="#026C9B" stroke="#FFFFFF" stroke-width="0.44285" stroke-linecap="round" stroke-linejoin="round"/>
        <path d="M 25.9803,20.9614 L 30.704,18.3043 Z " fill="#026C9B" stroke-width="1px" stroke="#026C9B"/>
        <path d="M 25.9803,20.9614 L 30.704,18.3043 " stroke="#FFFFFF" stroke-width="0.44285" stroke-linecap="round" stroke-linejoin="round" fill="none"/>
        <path d="M 14.171,26.2755 L 14.171,27.1612 L 15.9424,27.1612 Z " fill="#026C9B" stroke-width="1px" stroke="#026C9B"/>
        <path d="M 14.171,26.2755 L 14.171,27.1612 L 15.9424,27.1612 " stroke="#FFFFFF" stroke-width="0.44285" stroke-linecap="round" stroke-linejoin="round" fill="none"/>
        <path d="M 16.5329,26.2755 L 16.5329,27.1612 L 18.3043,27.1612 Z " fill="#026C9B" stroke-width="1px" stroke="#026C9B"/>
        <path d="M 16.5329,26.2755 L 16.5329,27.1612 L 18.3043,27.1612 " stroke="#FFFFFF" stroke-width="0.44285" stroke-linecap="round" stroke-linejoin="round" fill="none"/>
        <path d="M 9.15210000000002,26.2755 L 9.15210000000002,27.1612 L 10.9235,27.1612 Z " fill="#026C9B" stroke-width="1px" stroke="#026C9B"/>
        <path d="M 9.15210000000002,26.2755 L 9.15210000000002,27.1612 L 10.9235,27.1612 " stroke="#FFFFFF" stroke-width="0.44285" stroke-linecap="round" stroke-linejoin="round" fill="none"/>
        <path d="M 11.514,26.2755 L 11.514,27.1612 L 13.2853,27.1612 Z " fill="#026C9B" stroke-width="1px" stroke="#026C9B"/>
        <path d="M 11.514,26.2755 L 11.514,27.1612 L 13.2853,27.1612 " stroke="#FFFFFF" stroke-width="0.44285" stroke-linecap="round" stroke-linejoin="round" fill="none"/>
        <path d="M 14.171,28.3421 L 14.171,29.2277999999999 L 15.9424,29.2277999999999 Z " fill="#026C9B" stroke-width="1px" stroke="#026C9B"/>
        <path d="M 14.171,28.3421 L 14.171,29.2277999999999 L 15.9424,29.2277999999999 " stroke="#FFFFFF" stroke-width="0.44285" stroke-linecap="round" stroke-linejoin="round" fill="none"/>
        <path d="M 16.5329,28.3421 L 16.5329,29.2277999999999 L 18.3043,29.2277999999999 Z " fill="#026C9B" stroke-width="1px" stroke="#026C9B"/>
        <path d="M 16.5329,28.3421 L 16.5329,29.2277999999999 L 18.3043,29.2277999999999 " stroke="#FFFFFF" stroke-width="0.44285" stroke-linecap="round" stroke-linejoin="round" fill="none"/>
        <path d="M 9.15210000000002,28.3421 L 9.15210000000002,29.2277999999999 L 10.9235,29.2277999999999 Z " fill="#026C9B" stroke-width="1px" stroke="#026C9B"/>
        <path d="M 9.15210000000002,28.3421 L 9.15210000000002,29.2277999999999 L 10.9235,29.2277999999999 " stroke="#FFFFFF" stroke-width="0.44285" stroke-linecap="round" stroke-linejoin="round" fill="none"/>
        <path d="M 11.514,28.3421 L 11.514,29.2277999999999 L 13.2853,29.2277999999999 Z " fill="#026C9B" stroke-width="1px" stroke="#026C9B"/>
        <path d="M 11.514,28.3421 L 11.514,29.2277999999999 L 13.2853,29.2277999999999 " stroke="#FFFFFF" stroke-width="0.44285" stroke-linecap="round" stroke-linejoin="round" fill="none"/>
        <path d="M 14.171,30.4088 L 14.171,31.2945 L 15.9424,31.2945 Z " fill="#026C9B" stroke-width="1px" stroke="#026C9B"/>
        <path d="M 14.171,30.4088 L 14.171,31.2945 L 15.9424,31.2945 " stroke="#FFFFFF" stroke-width="0.44285" stroke-linecap="round" stroke-linejoin="round" fill="none"/>
        <path d="M 16.5329,30.4088 L 16.5329,31.2945 L 18.3043,31.2945 Z " fill="#026C9B" stroke-width="1px" stroke="#026C9B"/>
        <path d="M 16.5329,30.4088 L 16.5329,31.2945 L 18.3043,31.2945 " stroke="#FFFFFF" stroke-width="0.44285" stroke-linecap="round" stroke-linejoin="round" fill="none"/>
        <path d="M 9.15210000000002,30.4088 L 9.15210000000002,31.2945 L 10.9235,31.2945 Z " fill="#026C9B" stroke-width="1px" stroke="#026C9B"/>
        <path d="M 9.15210000000002,30.4088 L 9.15210000000002,31.2945 L 10.9235,31.2945 " stroke="#FFFFFF" stroke-width="0.44285" stroke-linecap="round" stroke-linejoin="round" fill="none"/>
        <path d="M 11.514,30.4088 L 11.514,31.2945 L 13.2853,31.2945 Z " fill="#026C9B" stroke-width="1px" stroke="#026C9B"/>
        <path d="M 11.514,30.4088 L 11.514,31.2945 L 13.2853,31.2945 " stroke="#FFFFFF" stroke-width="0.44285" stroke-linecap="round" stroke-linejoin="round" fill="none"/>
        <path d="M 14.171,32.1801 L 14.171,33.0658 L 15.9424,33.0658 Z " fill="#026C9B" stroke-width="1px" stroke="#026C9B"/>
        <path d="M 14.171,32.1801 L 14.171,33.0658 L 15.9424,33.0658 " stroke="#FFFFFF" stroke-width="0.44285" stroke-linecap="round" stroke-linejoin="round" fill="none"/>
        <path d="M 16.5329,32.1801 L 16.5329,33.0658 L 18.3043,33.0658 Z " fill="#026C9B" stroke-width="1px" stroke="#026C9B"/>
        <path d="M 16.5329,32.1801 L 16.5329,33.0658 L 18.3043,33.0658 " stroke="#FFFFFF" stroke-width="0.44285" stroke-linecap="round" stroke-linejoin="round" fill="none"/>
        <path d="M 9.15210000000002,32.1801 L 9.15210000000002,33.0658 L 10.9235,33.0658 Z " fill="#026C9B" stroke-width="1px" stroke="#026C9B"/>
        <path d="M 9.15210000000002,32.1801 L 9.15210000000002,33.0658 L 10.9235,33.0658 " stroke="#FFFFFF" stroke-width="0.44285" stroke-linecap="round" stroke-linejoin="round" fill="none"/>
        <path d="M 11.514,32.1801 L 11.514,33.0658 L 13.2853,33.0658 Z " fill="#026C9B" stroke-width="1px" stroke="#026C9B"/>
        <path d="M 11.514,32.1801 L 11.514,33.0658 L 13.2853,33.0658 " stroke="#FFFFFF" stroke-width="0.44285" stroke-linecap="round" stroke-linejoin="round" fill="none"/>
        <path d="M 20.9613,21.8471 L 20.9613,22.7328 L 22.7327,22.7328 Z " fill="#026C9B" stroke-width="1px" stroke="#026C9B"/>
        <path d="M 20.9613,21.8471 L 20.9613,22.7328 L 22.7327,22.7328 " stroke="#FFFFFF" stroke-width="0.44285" stroke-linecap="round" stroke-linejoin="round" fill="none"/>
        <path d="M 23.3232,21.8471 L 23.3232,22.7328 L 25.0946,22.7328 Z " fill="#026C9B" stroke-width="1px" stroke="#026C9B"/>
        <path d="M 23.3232,21.8471 L 23.3232,22.7328 L 25.0946,22.7328 " stroke="#FFFFFF" stroke-width="0.44285" stroke-linecap="round" stroke-linejoin="round" fill="none"/>
        <path d="M 20.9613,23.6185 L 20.9613,24.5041 L 22.7327,24.5041 Z " fill="#026C9B" stroke-width="1px" stroke="#026C9B"/>
        <path d="M 20.9613,23.6185 L 20.9613,24.5041 L 22.7327,24.5041 " stroke="#FFFFFF" stroke-width="0.44285" stroke-linecap="round" stroke-linejoin="round" fill="none"/>
        <path d="M 23.3232,23.6185 L 23.3232,24.5041 L 25.0946,24.5041 Z " fill="#026C9B" stroke-width="1px" stroke="#026C9B"/>
        <path d="M 23.3232,23.6185 L 23.3232,24.5041 L 25.0946,24.5041 " stroke="#FFFFFF" stroke-width="0.44285" stroke-linecap="round" stroke-linejoin="round" fill="none"/>
        <path d="M 20.9613,25.3898 L 20.9613,26.2755 L 22.7327,26.2755 Z " fill="#026C9B" stroke-width="1px" stroke="#026C9B"/>
        <path d="M 20.9613,25.3898 L 20.9613,26.2755 L 22.7327,26.2755 " stroke="#FFFFFF" stroke-width="0.44285" stroke-linecap="round" stroke-linejoin="round" fill="none"/>
        <path d="M 23.3232,25.3898 L 23.3232,26.2755 L 25.0946,26.2755 Z " fill="#026C9B" stroke-width="1px" stroke="#026C9B"/>
        <path d="M 23.3232,25.3898 L 23.3232,26.2755 L 25.0946,26.2755 " stroke="#FFFFFF" stroke-width="0.44285" stroke-linecap="round" stroke-linejoin="round" fill="none"/>
        <path d="M 3.2475,30.1135 L 3.2475,30.9992 L 5.01890000000003,30.9992 Z " fill="#026C9B" stroke-width="1px" stroke="#026C9B"/>
        <path d="M 3.2475,30.1135 L 3.2475,30.9992 L 5.01890000000003,30.9992 " stroke="#FFFFFF" stroke-width="0.44285" stroke-linecap="round" stroke-linejoin="round" fill="none"/>
        <path d="M 5.60930000000002,30.1135 L 5.60930000000002,30.9992 L 7.38070000000005,30.9992 Z " fill="#026C9B" stroke-width="1px" stroke="#026C9B"/>
        <path d="M 5.60930000000002,30.1135 L 5.60930000000002,30.9992 L 7.38070000000005,30.9992 " stroke="#FFFFFF" stroke-width="0.44285" stroke-linecap="round" stroke-linejoin="round" fill="none"/>
        <path d="M 3.2475,31.8849 L 3.2475,32.7705999999999 L 5.01890000000003,32.7705999999999 Z " fill="#026C9B" stroke-width="1px" stroke="#026C9B"/>
        <path d="M 3.2475,31.8849 L 3.2475,32.7705999999999 L 5.01890000000003,32.7705999999999 " stroke="#FFFFFF" stroke-width="0.44285" stroke-linecap="round" stroke-linejoin="round" fill="none"/>
        <path d="M 5.90460000000002,31.8849 L 5.90460000000002,32.7705999999999 L 7.67600000000004,32.7705999999999 Z " fill="#026C9B" stroke-width="1px" stroke="#026C9B"/>
        <path d="M 5.90460000000002,31.8849 L 5.90460000000002,32.7705999999999 L 7.67600000000004,32.7705999999999 " stroke="#FFFFFF" stroke-width="0.44285" stroke-linecap="round" stroke-linejoin="round" fill="none"/>
        <path d="M 3.2475,33.6563 L 3.2475,34.542 L 5.01890000000003,34.542 Z " fill="#026C9B" stroke-width="1px" stroke="#026C9B"/>
        <path d="M 3.2475,33.6563 L 3.2475,34.542 L 5.01890000000003,34.542 " stroke="#FFFFFF" stroke-width="0.44285" stroke-linecap="round" stroke-linejoin="round" fill="none"/>
        <path d="M 5.90460000000002,33.6563 L 5.90460000000002,34.542 L 7.67600000000004,34.542 Z " fill="#026C9B" stroke-width="1px" stroke="#026C9B"/>
        <path d="M 5.90460000000002,33.6563 L 5.90460000000002,34.542 L 7.67600000000004,34.542 " stroke="#FFFFFF" stroke-width="0.44285" stroke-linecap="round" stroke-linejoin="round" fill="none"/>
        <path d="M 14.171,18.5995 L 14.171,19.7805 L 15.9424,19.7805 Z " fill="#026C9B" stroke-width="1px" stroke="#026C9B"/>
        <path d="M 14.171,18.5995 L 14.171,19.7805 L 15.9424,19.7805 " stroke="#FFFFFF" stroke-width="0.44285" stroke-linecap="round" stroke-linejoin="round" fill="none"/>
        <path d="M 16.5329,18.5995 L 16.5329,19.7805 L 18.3043,19.7805 Z " fill="#026C9B" stroke-width="1px" stroke="#026C9B"/>
        <path d="M 16.5329,18.5995 L 16.5329,19.7805 L 18.3043,19.7805 " stroke="#FFFFFF" stroke-width="0.44285" stroke-linecap="round" stroke-linejoin="round" fill="none"/>
        <path d="M 9.15210000000002,18.5995 L 9.15210000000002,19.7805 L 10.9235,19.7805 Z " fill="#026C9B" stroke-width="1px" stroke="#026C9B"/>
        <path d="M 9.15210000000002,18.5995 L 9.15210000000002,19.7805 L 10.9235,19.7805 " stroke="#FFFFFF" stroke-width="0.44285" stroke-linecap="round" stroke-linejoin="round" fill="none"/>
        <path d="M 11.514,18.5995 L 11.514,19.7805 L 13.5806,19.7805 Z " fill="#026C9B" stroke-width="1px" stroke="#026C9B"/>
        <path d="M 11.514,18.5995 L 11.514,19.7805 L 13.5806,19.7805 " stroke="#FFFFFF" stroke-width="0.44285" stroke-linecap="round" stroke-linejoin="round" fill="none"/>
        <path d="M 14.171,20.6661 L 14.171,21.8471 L 15.9424,21.8471 Z " fill="#026C9B" stroke-width="1px" stroke="#026C9B"/>
        <path d="M 14.171,20.6661 L 14.171,21.8471 L 15.9424,21.8471 " stroke="#FFFFFF" stroke-width="0.44285" stroke-linecap="round" stroke-linejoin="round" fill="none"/>
        <path d="M 16.5329,20.6661 L 16.5329,21.8471 L 18.3043,21.8471 Z " fill="#026C9B" stroke-width="1px" stroke="#026C9B"/>
        <path d="M 16.5329,20.6661 L 16.5329,21.8471 L 18.3043,21.8471 " stroke="#FFFFFF" stroke-width="0.44285" stroke-linecap="round" stroke-linejoin="round" fill="none"/>
        <path d="M 9.15210000000002,20.6661 L 9.15210000000002,21.8471 L 10.9235,21.8471 Z " fill="#026C9B" stroke-width="1px" stroke="#026C9B"/>
        <path d="M 9.15210000000002,20.6661 L 9.15210000000002,21.8471 L 10.9235,21.8471 " stroke="#FFFFFF" stroke-width="0.44285" stroke-linecap="round" stroke-linejoin="round" fill="none"/>
        <path d="M 11.514,20.6661 L 11.514,21.8471 L 13.2853,21.8471 Z " fill="#026C9B" stroke-width="1px" stroke="#026C9B"/>
        <path d="M 11.514,20.6661 L 11.514,21.8471 L 13.2853,21.8471 " stroke="#FFFFFF" stroke-width="0.44285" stroke-linecap="round" stroke-linejoin="round" fill="none"/>
        <path d="M 14.171,22.7328 L 14.171,23.6185 L 15.9424,23.6185 Z " fill="#026C9B" stroke-width="1px" stroke="#026C9B"/>
        <path d="M 14.171,22.7328 L 14.171,23.6185 L 15.9424,23.6185 " stroke="#FFFFFF" stroke-width="0.44285" stroke-linecap="round" stroke-linejoin="round" fill="none"/>
        <path d="M 16.5329,22.7328 L 16.5329,23.6185 L 18.3043,23.6185 Z " fill="#026C9B" stroke-width="1px" stroke="#026C9B"/>
        <path d="M 16.5329,22.7328 L 16.5329,23.6185 L 18.3043,23.6185 " stroke="#FFFFFF" stroke-width="0.44285" stroke-linecap="round" stroke-linejoin="round" fill="none"/>
        <path d="M 9.15210000000002,22.7328 L 9.15210000000002,23.6185 L 10.9235,23.6185 Z " fill="#026C9B" stroke-width="1px" stroke="#026C9B"/>
        <path d="M 9.15210000000002,22.7328 L 9.15210000000002,23.6185 L 10.9235,23.6185 " stroke="#FFFFFF" stroke-width="0.44285" stroke-linecap="round" stroke-linejoin="round" fill="none"/>
        <path d="M 11.514,22.7328 L 11.514,23.6185 L 13.2853,23.6185 Z " fill="#026C9B" stroke-width="1px" stroke="#026C9B"/>
        <path d="M 11.514,22.7328 L 11.514,23.6185 L 13.2853,23.6185 " stroke="#FFFFFF" stroke-width="0.44285" stroke-linecap="round" stroke-linejoin="round" fill="none"/>
        <path d="M 14.171,24.5041 L 14.171,25.3898 L 15.9424,25.3898 Z " fill="#026C9B" stroke-width="1px" stroke="#026C9B"/>
        <path d="M 14.171,24.5041 L 14.171,25.3898 L 15.9424,25.3898 " stroke="#FFFFFF" stroke-width="0.44285" stroke-linecap="round" stroke-linejoin="round" fill="none"/>
        <path d="M 16.5329,24.5041 L 16.5329,25.3898 L 18.3043,25.3898 Z " fill="#026C9B" stroke-width="1px" stroke="#026C9B"/>
        <path d="M 16.5329,24.5041 L 16.5329,25.3898 L 18.3043,25.3898 " stroke="#FFFFFF" stroke-width="0.44285" stroke-linecap="round" stroke-linejoin="round" fill="none"/>
        <path d="M 9.15210000000002,24.5041 L 9.15210000000002,25.3898 L 10.9235,25.3898 Z " fill="#026C9B" stroke-width="1px" stroke="#026C9B"/>
        <path d="M 9.15210000000002,24.5041 L 9.15210000000002,25.3898 L 10.9235,25.3898 " stroke="#FFFFFF" stroke-width="0.44285" stroke-linecap="round" stroke-linejoin="round" fill="none"/>
        <path d="M 11.514,24.5041 L 11.514,25.3898 L 13.2853,25.3898 Z " fill="#026C9B" stroke-width="1px" stroke="#026C9B"/>
        <path d="M 11.514,24.5041 L 11.514,25.3898 L 13.2853,25.3898 " stroke="#FFFFFF" stroke-width="0.44285" stroke-linecap="round" stroke-linejoin="round" fill="none"/>
        <path d="M 20.9613,27.1612 L 20.9613,28.0469 Z " fill="#026C9B" stroke-width="1px" stroke="#026C9B"/>
        <path d="M 20.9613,27.1612 L 20.9613,28.0469 " stroke="#FFFFFF" stroke-width="0.44285" stroke-linecap="round" stroke-linejoin="round" fill="none"/>
        <path d="M 20.9613,28.0469 L 22.7327,28.0469 Z " fill="#026C9B" stroke-width="1px" stroke="#026C9B"/>
        <path d="M 20.9613,28.0469 L 22.7327,28.0469 " stroke="#FFFFFF" stroke-width="0.44285" stroke-linecap="round" stroke-linejoin="round" fill="none"/>
        <path d="M 23.3232,27.1612 L 23.3232,28.0469 L 25.0946,28.0469 Z " fill="#026C9B" stroke-width="1px" stroke="#026C9B"/>
        <path d="M 23.3232,27.1612 L 23.3232,28.0469 L 25.0946,28.0469 " stroke="#FFFFFF" stroke-width="0.44285" stroke-linecap="round" stroke-linejoin="round" fill="none"/>
        <path d="M 20.9613,28.6374 L 20.9613,29.8183 Z " fill="#026C9B" stroke-width="1px" stroke="#026C9B"/>
        <path d="M 20.9613,28.6374 L 20.9613,29.8183 " stroke="#FFFFFF" stroke-width="0.44285" stroke-linecap="round" stroke-linejoin="round" fill="none"/>
        <path d="M 20.9613,29.8183 L 22.7327,29.8183 Z " fill="#026C9B" stroke-width="1px" stroke="#026C9B"/>
        <path d="M 20.9613,29.8183 L 22.7327,29.8183 " stroke="#FFFFFF" stroke-width="0.44285" stroke-linecap="round" stroke-linejoin="round" fill="none"/>
        <path d="M 23.3232,28.6374 L 23.3232,29.8183 L 25.0946,29.8183 Z " fill="#026C9B" stroke-width="1px" stroke="#026C9B"/>
        <path d="M 23.3232,28.6374 L 23.3232,29.8183 L 25.0946,29.8183 " stroke="#FFFFFF" stroke-width="0.44285" stroke-linecap="round" stroke-linejoin="round" fill="none"/>
        <path d="M 18.009,16.8280999999999 L 18.009,16.5329 L 18.009,16.2377 L 18.009,15.9425 L 18.3043,15.6472 L 18.3043,15.352 L 18.3043,15.0568 L 18.3043,14.7615 L 18.5995,14.4663 L 18.5995,14.1711 L 18.5995,14.1711 L 18.8947,13.8758 L 18.8947,13.5805999999999 L 19.19,13.5805999999999 L 19.19,13.2854 L 19.4852,13.2854 L 19.4852,12.9901 L 19.7804,12.9901 L 19.7804,12.9901 L 20.0757,12.6949 L 20.0757,12.6949 L 20.3709,12.6949 L 20.3709,12.6949 L 20.6661,12.3997 L 20.6661,12.3997 L 20.9613,12.3997 L 20.9613,12.3997 L 20.9613,12.3997 L 21.2566,12.3997 L 21.2566,12.3997 L 21.2566,12.3997 L 21.2566,12.3997 L 18.009,12.3997 L 18.009,12.3997 L 17.7138,12.3997 L 17.7138,12.3997 L 17.7138,12.3997 L 17.4186,12.3997 L 17.4186,12.3997 L 17.4186,12.3997 L 17.1233,12.3997 L 17.1233,12.6949 L 16.8281,12.6949 L 16.8281,12.6949 L 16.5329,12.6949 L 16.5329,12.9901 L 16.2376,12.9901 L 16.2376,12.9901 L 15.9424,13.2854 L 15.9424,13.2854 L 15.6472,13.5805999999999 L 15.6472,13.5805999999999 L 15.352,13.8758 L 15.352,14.1711 L 15.0567,14.1711 L 15.0567,14.4663 L 15.0567,14.7615 L 14.7615,15.0568 L 14.7615,15.352 L 14.7615,15.6472 L 14.7615,15.9425 L 14.7615,15.9425 L 14.7615,16.2377 L 14.7615,17.1233999999999 L 18.009,16.8280999999999 L 18.009,16.8280999999999 Z " fill="#FFFFFF" stroke-width="1px" stroke="#FFFFFF"/>
        <path d="M 18.3043,16.5329 L 17.7138,16.5329 L 17.7138,16.8280999999999 L 18.3043,16.8280999999999 L 18.3043,16.5329 L 18.3043,16.5329 L 18.3043,16.5329 L 18.3043,16.5329 L 18.3043,16.5329 L 18.3043,16.5329 L 18.3043,16.2377 L 18.3043,16.2377 L 18.3043,16.2377 L 18.3043,16.2377 L 18.3043,16.2377 L 18.3043,16.2377 L 18.3043,16.2377 L 18.3043,16.2377 L 18.3043,16.2377 L 18.009,16.2377 L 18.009,16.2377 L 18.009,16.2377 L 18.009,16.2377 L 18.009,16.2377 L 18.009,16.2377 L 18.009,16.2377 L 18.009,16.2377 L 18.009,16.2377 L 18.009,16.2377 L 18.009,16.2377 L 18.009,16.2377 L 18.009,16.2377 L 18.009,16.2377 L 18.009,16.2377 L 18.009,16.2377 L 18.009,16.5329 L 17.7138,16.5329 L 17.7138,16.5329 L 17.7138,16.5329 L 18.3043,16.5329 Z " fill="#141617" stroke-width="1px" stroke="#141617"/>
        <path d="M 21.2566,12.3997 L 21.2566,12.1045 L 21.2566,12.1045 L 21.2566,12.1045 L 20.9613,12.1045 L 20.9613,12.1045 L 20.9613,12.1045 L 20.6661,12.1045 L 20.6661,12.1045 L 20.6661,12.3997 L 20.3709,12.3997 L 20.3709,12.3997 L 20.3709,12.3997 L 20.3709,12.3997 L 20.0757,12.3997 L 20.0757,12.3997 L 20.0757,12.6949 L 19.7804,12.6949 L 19.7804,12.6949 L 19.7804,12.6949 L 19.7804,12.6949 L 19.4852,12.6949 L 19.4852,12.9901 L 19.4852,12.9901 L 19.4852,12.9901 L 19.19,12.9901 L 19.19,13.2854 L 19.19,13.2854 L 18.8947,13.2854 L 18.8947,13.2854 L 18.8947,13.5805999999999 L 18.8947,13.5805999999999 L 18.5995,13.5805999999999 L 18.5995,13.8758 L 18.5995,13.8758 L 18.5995,13.8758 L 18.5995,14.1711 L 18.3043,14.1711 L 18.3043,14.1711 L 18.3043,14.4663 L 18.3043,14.4663 L 18.3043,14.7615 L 18.009,14.7615 L 18.009,15.0568 L 18.009,15.0568 L 18.009,15.0568 L 18.009,15.352 L 18.009,15.352 L 18.009,15.6472 L 18.009,15.6472 L 18.009,15.6472 L 18.009,15.9425 L 18.009,15.9425 L 18.009,15.9425 L 18.009,15.9425 L 18.009,16.2377 L 17.7138,16.2377 L 17.7138,16.2377 L 17.7138,16.5329 L 17.7138,16.5329 L 18.3043,16.5329 L 18.3043,16.5329 L 18.3043,16.2377 L 18.3043,16.2377 L 18.3043,16.2377 L 18.3043,15.9425 L 18.3043,15.9425 L 18.3043,15.9425 L 18.3043,15.9425 L 18.3043,15.6472 L 18.3043,15.6472 L 18.3043,15.6472 L 18.3043,15.6472 L 18.3043,15.352 L 18.3043,15.352 L 18.5995,15.0568 L 18.5995,15.0568 L 18.5995,15.0568 L 18.5995,14.7615 L 18.5995,14.7615 L 18.5995,14.4663 L 18.5995,14.4663 L 18.8947,14.4663 L 18.8947,14.1711 L 18.8947,14.1711 L 18.8947,14.1711 L 18.8947,13.8758 L 19.19,13.8758 L 19.19,13.8758 L 19.19,13.8758 L 19.19,13.5805999999999 L 19.4852,13.5805999999999 L 19.4852,13.5805999999999 L 19.4852,13.5805999999999 L 19.4852,13.2854 L 19.7804,13.2854 L 19.7804,13.2854 L 19.7804,13.2854 L 19.7804,13.2854 L 20.0757,12.9901 L 20.0757,12.9901 L 20.0757,12.9901 L 20.0757,12.9901 L 20.3709,12.9901 L 20.3709,12.9901 L 20.3709,12.9901 L 20.3709,12.6949 L 20.3709,12.6949 L 20.6661,12.6949 L 20.6661,12.6949 L 20.6661,12.6949 L 20.9613,12.6949 L 20.9613,12.6949 L 20.9613,12.6949 L 21.2566,12.6949 L 21.2566,12.3997 L 21.2566,12.3997 L 21.2566,12.3997 L 21.5518,12.3997 L 21.2566,12.1045 L 21.5518,12.3997 L 21.5518,12.3997 L 21.5518,12.3997 L 21.5518,12.3997 L 21.5518,12.3997 L 21.5518,12.3997 L 21.5518,12.3997 L 21.5518,12.3997 L 21.5518,12.3997 L 21.5518,12.3997 L 21.5518,12.3997 L 21.5518,12.3997 L 21.5518,12.3997 L 21.5518,12.3997 L 21.5518,12.3997 L 21.5518,12.1045 L 21.5518,12.1045 L 21.5518,12.1045 L 21.5518,12.1045 L 21.5518,12.1045 L 21.5518,12.1045 L 21.5518,12.1045 L 21.5518,12.1045 L 21.5518,12.1045 L 21.5518,12.1045 L 21.5518,12.1045 L 21.5518,12.1045 L 21.5518,12.1045 L 21.5518,12.1045 L 21.5518,12.1045 L 21.2566,12.1045 L 21.2566,12.1045 L 21.2566,12.1045 L 21.2566,12.3997 Z " fill="#141617" stroke-width="1px" stroke="#141617"/>
        <path d="M 18.009,12.1045 L 18.009,12.3997 L 21.2566,12.3997 L 21.2566,12.1045 L 18.009,12.1045 L 18.009,12.1045 L 18.009,12.1045 L 18.009,12.1045 L 18.009,12.1045 L 18.009,12.1045 L 17.7138,12.1045 L 17.7138,12.1045 L 17.7138,12.1045 L 17.7138,12.1045 L 17.7138,12.1045 L 17.7138,12.1045 L 17.7138,12.1045 L 17.7138,12.1045 L 17.7138,12.1045 L 17.7138,12.1045 L 17.7138,12.1045 L 17.7138,12.1045 L 17.7138,12.3997 L 17.7138,12.3997 L 17.7138,12.3997 L 17.7138,12.3997 L 17.7138,12.3997 L 17.7138,12.3997 L 17.7138,12.3997 L 17.7138,12.3997 L 17.7138,12.3997 L 17.7138,12.3997 L 17.7138,12.3997 L 17.7138,12.3997 L 17.7138,12.3997 L 18.009,12.3997 L 18.009,12.3997 L 18.009,12.3997 L 18.009,12.3997 L 18.009,12.1045 Z " fill="#141617" stroke-width="1px" stroke="#141617"/>
        <path d="M 14.7615,16.2377 L 14.7615,16.2377 L 14.7615,16.2377 L 14.7615,16.2377 L 14.7615,15.9425 L 14.7615,15.9425 L 14.7615,15.9425 L 15.0567,15.9425 L 15.0567,15.9425 L 15.0567,15.9425 L 15.0567,15.6472 L 15.0567,15.6472 L 15.0567,15.6472 L 15.0567,15.6472 L 15.0567,15.6472 L 15.0567,15.352 L 15.0567,15.352 L 15.0567,15.352 L 15.0567,15.0568 L 15.0567,15.0568 L 15.0567,15.0568 L 15.0567,14.7615 L 15.352,14.7615 L 15.352,14.4663 L 15.352,14.4663 L 15.352,14.4663 L 15.352,14.1711 L 15.352,14.1711 L 15.6472,14.1711 L 15.6472,13.8758 L 15.6472,13.8758 L 15.6472,13.8758 L 15.9424,13.8758 L 15.9424,13.5805999999999 L 15.9424,13.5805999999999 L 15.9424,13.5805999999999 L 15.9424,13.5805999999999 L 16.2376,13.2854 L 16.2376,13.2854 L 16.2376,13.2854 L 16.2376,13.2854 L 16.5329,13.2854 L 16.5329,12.9901 L 16.5329,12.9901 L 16.5329,12.9901 L 16.8281,12.9901 L 16.8281,12.9901 L 16.8281,12.9901 L 16.8281,12.9901 L 17.1233,12.6949 L 17.1233,12.6949 L 17.1233,12.6949 L 17.1233,12.6949 L 17.4186,12.6949 L 17.4186,12.6949 L 17.4186,12.6949 L 17.7138,12.6949 L 17.7138,12.6949 L 17.7138,12.3997 L 18.009,12.3997 L 18.009,12.3997 L 18.009,12.3997 L 18.009,12.1045 L 18.009,12.1045 L 17.7138,12.1045 L 17.7138,12.1045 L 17.7138,12.1045 L 17.4186,12.1045 L 17.4186,12.1045 L 17.1233,12.1045 L 17.1233,12.3997 L 17.1233,12.3997 L 16.8281,12.3997 L 16.8281,12.3997 L 16.8281,12.3997 L 16.8281,12.3997 L 16.5329,12.3997 L 16.5329,12.6949 L 16.5329,12.6949 L 16.5329,12.6949 L 16.2376,12.6949 L 16.2376,12.6949 L 16.2376,12.6949 L 16.2376,12.9901 L 15.9424,12.9901 L 15.9424,12.9901 L 15.9424,12.9901 L 15.6472,13.2854 L 15.6472,13.2854 L 15.6472,13.2854 L 15.6472,13.2854 L 15.352,13.5805999999999 L 15.352,13.5805999999999 L 15.352,13.5805999999999 L 15.352,13.8758 L 15.0567,13.8758 L 15.0567,13.8758 L 15.0567,14.1711 L 15.0567,14.1711 L 15.0567,14.1711 L 14.7615,14.4663 L 14.7615,14.4663 L 14.7615,14.7615 L 14.7615,14.7615 L 14.7615,15.0568 L 14.7615,15.0568 L 14.4663,15.0568 L 14.4663,15.352 L 14.4663,15.352 L 14.4663,15.352 L 14.4663,15.352 L 14.4663,15.6472 L 14.4663,15.6472 L 14.4663,15.6472 L 14.4663,15.9425 L 14.4663,15.9425 L 14.4663,15.9425 L 14.4663,15.9425 L 14.4663,16.2377 L 14.4663,15.9425 L 14.4663,16.2377 L 14.4663,16.2377 L 14.4663,16.2377 L 14.4663,16.2377 L 14.4663,16.2377 L 14.4663,16.2377 L 14.4663,16.2377 L 14.4663,16.5329 L 14.4663,16.5329 L 14.4663,16.5329 L 14.4663,16.5329 L 14.4663,16.5329 L 14.4663,16.5329 L 14.4663,16.5329 L 14.4663,16.5329 L 14.4663,16.5329 L 14.4663,16.5329 L 14.4663,16.5329 L 14.7615,16.5329 L 14.7615,16.5329 L 14.7615,16.5329 L 14.7615,16.5329 L 14.7615,16.5329 L 14.7615,16.5329 L 14.7615,16.5329 L 14.7615,16.5329 L 14.7615,16.5329 L 14.7615,16.5329 L 14.7615,16.5329 L 14.7615,16.5329 L 14.7615,16.5329 L 14.7615,16.5329 L 14.7615,16.5329 L 14.7615,16.5329 L 14.7615,16.2377 L 14.7615,16.2377 L 14.7615,16.2377 L 14.7615,16.2377 Z " fill="#141617" stroke-width="1px" stroke="#141617"/>
        <path d="M 14.7615,17.4186 L 14.7615,17.1233999999999 L 14.7615,16.2377 L 14.4663,16.2377 L 14.4663,17.1233999999999 L 14.7615,17.4186 L 14.4663,17.1233999999999 L 14.4663,17.1233999999999 L 14.4663,17.1233999999999 L 14.4663,17.1233999999999 L 14.4663,17.1233999999999 L 14.4663,17.1233999999999 L 14.4663,17.1233999999999 L 14.4663,17.1233999999999 L 14.4663,17.4186 L 14.4663,17.4186 L 14.4663,17.4186 L 14.4663,17.4186 L 14.4663,17.4186 L 14.4663,17.4186 L 14.7615,17.4186 L 14.7615,17.4186 L 14.7615,17.4186 L 14.7615,17.4186 L 14.7615,17.4186 L 14.7615,17.4186 L 14.7615,17.4186 L 14.7615,17.4186 L 14.7615,17.4186 L 14.7615,17.4186 L 14.7615,17.4186 L 14.7615,17.1233999999999 L 14.7615,17.1233999999999 L 14.7615,17.1233999999999 L 14.7615,17.1233999999999 L 14.7615,17.1233999999999 L 14.7615,17.1233999999999 L 14.7615,17.1233999999999 L 14.7615,17.1233999999999 L 14.7615,17.4186 Z " fill="#141617" stroke-width="1px" stroke="#141617"/>
        <path d="M 18.3043,16.8280999999999 L 18.009,16.8280999999999 L 14.7615,16.8280999999999 L 14.7615,17.4186 L 18.009,17.1233999999999 L 18.3043,16.8280999999999 L 18.009,17.1233999999999 L 18.009,17.1233999999999 L 18.009,17.1233999999999 L 18.3043,17.1233999999999 L 18.3043,17.1233999999999 L 18.3043,17.1233999999999 L 18.3043,17.1233999999999 L 18.3043,17.1233999999999 L 18.3043,17.1233999999999 L 18.3043,17.1233999999999 L 18.3043,17.1233999999999 L 18.3043,17.1233999999999 L 18.3043,17.1233999999999 L 18.3043,17.1233999999999 L 18.3043,17.1233999999999 L 18.3043,16.8280999999999 L 18.3043,16.8280999999999 L 18.3043,16.8280999999999 L 18.3043,16.8280999999999 L 18.3043,16.8280999999999 L 18.3043,16.8280999999999 L 18.3043,16.8280999999999 L 18.3043,16.8280999999999 L 18.3043,16.8280999999999 L 18.3043,16.8280999999999 L 18.3043,16.8280999999999 L 18.3043,16.8280999999999 L 18.3043,16.8280999999999 L 18.3043,16.8280999999999 L 18.009,16.8280999999999 L 18.009,16.8280999999999 L 18.009,16.8280999999999 L 18.009,16.8280999999999 L 18.3043,16.8280999999999 Z " fill="#141617" stroke-width="1px" stroke="#141617"/>
        <path d="M 17.7138,16.5329 L 17.7138,16.8280999999999 L 18.3043,16.8280999999999 L 18.3043,16.5329 L 17.7138,16.5329 Z " fill="#000000" stroke-width="1px" stroke="#000000"/>
        <path d="M 18.009,12.3997 L 21.2566,12.3997 L 21.2566,12.1045 L 18.009,12.1045 L 18.009,12.3997 Z " fill="#000000" stroke-width="1px" stroke="#000000"/>
        <path d="M 14.7615,17.1233999999999 L 14.7615,16.2377 L 14.4663,16.2377 L 14.4663,17.1233999999999 L 14.7615,17.1233999999999 Z " fill="#000000" stroke-width="1px" stroke="#000000"/>
        <path d="M 17.7138,12.3997 L 21.847,12.3997 L 22.1423,12.3997 L 22.7327,12.3997 L 23.028,12.6949 L 23.3232,12.6949 L 23.6184,12.9901 L 23.9137,13.2854 L 24.2089,13.5805999999999 L 24.5041,13.8758 L 24.7993,14.1711 L 25.0946,14.4663 L 25.0946,14.7615 L 25.3898,15.352 L 25.3898,15.6472 L 25.685,15.9425 L 25.685,16.5329 L 25.9803,16.8280999999999 L 25.9803,17.1233999999999 L 25.9803,17.7138 L 26.2755,17.4186 L 26.2755,17.7138 L 26.2755,18.0091 L 26.2755,18.3043 L 26.2755,18.8948 L 26.2755,19.19 L 26.2755,17.7138 L 26.2755,18.0091 L 26.2755,18.3043 L 26.2755,18.3043 L 26.2755,18.5995 L 26.2755,18.8948 L 26.5707,18.8948 L 29.8183,18.8948 L 24.2089,24.2089 L 18.8947,18.8948 L 22.4375,18.8948 L 22.4375,18.5995 L 22.4375,18.3043 L 22.4375,18.3043 L 22.4375,18.0091 L 22.4375,17.7138 L 22.4375,19.19 L 22.1423,18.5995 L 22.1423,18.3043 L 22.1423,18.0091 L 22.1423,17.7138 L 22.1423,18.0091 L 22.1423,17.7138 L 21.847,17.1233999999999 L 21.847,16.8280999999999 L 21.847,16.2377 L 21.5518,15.9425 L 21.5518,15.6472 L 21.2566,15.0568 L 21.2566,14.7615 L 20.9613,14.4663 L 20.6661,14.1711 L 20.3709,13.8758 L 20.3709,13.5805999999999 L 20.0757,13.2854 L 19.7804,12.9901 L 19.4852,12.6949 L 18.8947,12.3997 L 18.5995,12.3997 L 18.3043,12.3997 L 17.7138,12.3997 L 17.7138,12.3997 Z " fill="#FFFFFF" stroke-width="1px" stroke="#FFFFFF"/>
        <path d="M 21.847,12.1045 L 21.847,12.1045 L 17.7138,12.1045 L 17.7138,12.3997 L 21.847,12.3997 L 21.847,12.1045 L 21.847,12.3997 L 21.847,12.3997 L 21.847,12.3997 L 21.847,12.3997 L 21.847,12.3997 L 21.847,12.3997 L 21.847,12.3997 L 21.847,12.3997 L 21.847,12.3997 L 22.1423,12.3997 L 22.1423,12.3997 L 22.1423,12.3997 L 22.1423,12.3997 L 22.1423,12.3997 L 22.1423,12.3997 L 22.1423,12.3997 L 22.1423,12.3997 L 22.1423,12.1045 L 22.1423,12.1045 L 22.1423,12.1045 L 22.1423,12.1045 L 22.1423,12.1045 L 22.1423,12.1045 L 22.1423,12.1045 L 21.847,12.1045 L 21.847,12.1045 L 21.847,12.1045 L 21.847,12.1045 L 21.847,12.1045 L 21.847,12.1045 L 21.847,12.1045 L 21.847,12.1045 L 21.847,12.1045 L 21.847,12.1045 Z " fill="#141617" stroke-width="1px" stroke="#141617"/>
        <path d="M 26.2755,18.5995 L 26.5707,18.8948 L 26.5707,18.5995 L 26.5707,18.3043 L 26.5707,18.3043 L 26.5707,18.0091 L 26.5707,17.7138 L 26.5707,19.19 L 26.5707,18.8948 L 26.5707,18.5995 L 26.5707,18.5995 L 26.5707,18.3043 L 26.5707,18.3043 L 26.5707,18.0091 L 26.5707,17.7138 L 26.5707,17.7138 L 26.2755,17.4186 L 26.2755,17.4186 L 26.2755,17.7138 L 26.2755,17.7138 L 26.2755,17.4186 L 26.2755,17.1233999999999 L 26.2755,17.1233999999999 L 26.2755,16.8280999999999 L 25.9803,16.5329 L 25.9803,16.2377 L 25.9803,16.2377 L 25.9803,15.9425 L 25.9803,15.9425 L 25.685,15.6472 L 25.685,15.6472 L 25.685,15.6472 L 25.685,15.352 L 25.685,15.352 L 25.685,15.352 L 25.685,15.0568 L 25.685,15.0568 L 25.3898,15.0568 L 25.3898,14.7615 L 25.3898,14.7615 L 25.3898,14.7615 L 25.3898,14.4663 L 25.3898,14.4663 L 25.0946,14.4663 L 25.0946,14.1711 L 25.0946,14.1711 L 25.0946,14.1711 L 25.0946,13.8758 L 24.7993,13.8758 L 24.7993,13.8758 L 24.7993,13.8758 L 24.7993,13.5805999999999 L 24.7993,13.5805999999999 L 24.5041,13.5805999999999 L 24.5041,13.2854 L 24.5041,13.2854 L 24.5041,13.2854 L 24.2089,13.2854 L 24.2089,12.9901 L 24.2089,12.9901 L 24.2089,12.9901 L 23.9137,12.9901 L 23.9137,12.9901 L 23.9137,12.6949 L 23.9137,12.6949 L 23.6184,12.6949 L 23.6184,12.6949 L 23.6184,12.6949 L 23.3232,12.3997 L 23.3232,12.3997 L 23.3232,12.3997 L 23.028,12.3997 L 23.028,12.3997 L 23.028,12.3997 L 22.7327,12.1045 L 22.7327,12.1045 L 22.7327,12.1045 L 22.4375,12.1045 L 22.4375,12.1045 L 22.4375,12.1045 L 22.1423,12.1045 L 22.1423,12.1045 L 21.847,12.1045 L 21.847,12.1045 L 21.847,12.3997 L 21.847,12.3997 L 22.1423,12.3997 L 22.1423,12.3997 L 22.1423,12.3997 L 22.4375,12.6949 L 22.4375,12.6949 L 22.4375,12.6949 L 22.7327,12.6949 L 22.7327,12.6949 L 22.7327,12.6949 L 22.7327,12.6949 L 23.028,12.6949 L 23.028,12.6949 L 23.028,12.9901 L 23.3232,12.9901 L 23.3232,12.9901 L 23.3232,12.9901 L 23.3232,12.9901 L 23.6184,12.9901 L 23.6184,13.2854 L 23.6184,13.2854 L 23.6184,13.2854 L 23.9137,13.2854 L 23.9137,13.2854 L 23.9137,13.5805999999999 L 23.9137,13.5805999999999 L 24.2089,13.5805999999999 L 24.2089,13.5805999999999 L 24.2089,13.8758 L 24.2089,13.8758 L 24.2089,13.8758 L 24.5041,13.8758 L 24.5041,14.1711 L 24.5041,14.1711 L 24.5041,14.1711 L 24.5041,14.1711 L 24.7993,14.4663 L 24.7993,14.4663 L 24.7993,14.4663 L 24.7993,14.4663 L 24.7993,14.7615 L 24.7993,14.7615 L 25.0946,14.7615 L 25.0946,15.0568 L 25.0946,15.0568 L 25.0946,15.0568 L 25.0946,15.352 L 25.0946,15.352 L 25.0946,15.352 L 25.3898,15.6472 L 25.3898,15.6472 L 25.3898,15.6472 L 25.3898,15.9425 L 25.3898,15.9425 L 25.3898,15.9425 L 25.3898,16.2377 L 25.3898,16.2377 L 25.685,16.5329 L 25.685,16.8280999999999 L 25.685,16.8280999999999 L 25.685,17.1233999999999 L 25.685,17.4186 L 25.685,17.4186 L 25.9803,17.7138 L 25.9803,18.0091 L 25.9803,17.4186 L 25.9803,17.4186 L 25.9803,17.7138 L 25.9803,18.0091 L 25.9803,18.0091 L 25.9803,18.3043 L 25.9803,18.3043 L 25.9803,18.5995 L 25.9803,18.8948 L 25.9803,18.8948 L 25.9803,19.19 L 26.2755,17.7138 L 26.2755,18.0091 L 26.2755,18.3043 L 26.2755,18.3043 L 26.2755,18.5995 L 26.2755,18.8948 L 26.2755,18.8948 L 26.2755,18.8948 L 26.2755,18.8948 L 26.2755,18.8948 L 26.2755,18.8948 L 26.2755,18.8948 L 26.2755,18.8948 L 26.2755,18.8948 L 26.2755,18.8948 L 26.2755,18.8948 L 26.2755,18.8948 L 26.2755,18.8948 L 26.2755,18.8948 L 26.2755,18.8948 L 26.2755,18.8948 L 26.2755,18.8948 L 26.2755,18.8948 L 26.2755,18.8948 L 26.2755,18.8948 L 26.2755,18.8948 L 26.5707,18.8948 L 26.5707,18.8948 L 26.5707,18.8948 L 26.5707,18.8948 L 26.5707,18.8948 L 26.5707,18.8948 L 26.5707,18.8948 L 26.5707,18.8948 L 26.5707,18.8948 L 26.5707,18.8948 L 26.5707,18.8948 L 26.5707,18.8948 L 26.5707,18.8948 L 26.5707,18.8948 L 26.2755,18.5995 Z " fill="#141617" stroke-width="1px" stroke="#141617"/>
        <path d="M 26.5707,18.8948 L 26.5707,18.5995 L 26.2755,18.5995 L 26.2755,18.8948 L 26.5707,18.8948 L 26.5707,18.8948 L 26.5707,18.8948 L 26.5707,18.8948 L 26.5707,18.8948 L 26.5707,18.8948 L 26.866,18.8948 L 26.866,18.8948 L 26.866,18.8948 L 26.866,18.8948 L 26.866,18.8948 L 26.866,18.8948 L 26.866,18.8948 L 26.866,18.8948 L 26.866,18.8948 L 26.866,18.8948 L 26.866,18.8948 L 26.866,18.8948 L 26.866,18.8948 L 26.866,18.8948 L 26.866,18.8948 L 26.866,18.5995 L 26.866,18.5995 L 26.866,18.5995 L 26.866,18.5995 L 26.866,18.5995 L 26.866,18.5995 L 26.866,18.5995 L 26.866,18.5995 L 26.866,18.5995 L 26.866,18.5995 L 26.5707,18.5995 L 26.5707,18.5995 L 26.5707,18.5995 L 26.5707,18.5995 L 26.5707,18.8948 Z " fill="#141617" stroke-width="1px" stroke="#141617"/>
        <path d="M 30.1135,18.8948 L 29.8183,18.5995 L 26.5707,18.5995 L 26.5707,18.8948 L 29.8183,18.8948 L 30.1135,18.8948 L 29.8183,18.8948 L 29.8183,18.8948 L 30.1135,18.8948 L 30.1135,18.8948 L 30.1135,18.8948 L 30.1135,18.8948 L 30.1135,18.8948 L 30.1135,18.8948 L 30.1135,18.8948 L 30.1135,18.8948 L 30.1135,18.8948 L 30.1135,18.8948 L 30.1135,18.8948 L 30.1135,18.8948 L 30.1135,18.8948 L 30.1135,18.8948 L 30.1135,18.8948 L 30.1135,18.8948 L 30.1135,18.8948 L 30.1135,18.5995 L 30.1135,18.5995 L 30.1135,18.5995 L 30.1135,18.5995 L 30.1135,18.5995 L 30.1135,18.5995 L 30.1135,18.5995 L 30.1135,18.5995 L 30.1135,18.5995 L 30.1135,18.5995 L 30.1135,18.5995 L 30.1135,18.5995 L 29.8183,18.5995 L 29.8183,18.5995 L 30.1135,18.8948 Z " fill="#141617" stroke-width="1px" stroke="#141617"/>
        <path d="M 24.2089,24.5041 L 24.5041,24.5041 L 30.1135,18.8948 L 29.8183,18.5995 L 24.2089,24.2089 L 24.2089,24.5041 L 24.2089,24.2089 L 24.2089,24.2089 L 24.2089,24.2089 L 24.2089,24.2089 L 24.2089,24.2089 L 24.2089,24.2089 L 24.2089,24.2089 L 24.2089,24.2089 L 24.2089,24.2089 L 24.2089,24.5041 L 24.2089,24.5041 L 24.2089,24.5041 L 24.2089,24.5041 L 24.2089,24.5041 L 24.2089,24.5041 L 24.2089,24.5041 L 24.2089,24.5041 L 24.2089,24.5041 L 24.2089,24.5041 L 24.2089,24.5041 L 24.2089,24.5041 L 24.2089,24.5041 L 24.2089,24.5041 L 24.2089,24.5041 L 24.2089,24.5041 L 24.5041,24.5041 L 24.5041,24.5041 L 24.5041,24.5041 L 24.5041,24.5041 L 24.5041,24.5041 L 24.5041,24.5041 L 24.5041,24.5041 L 24.5041,24.5041 L 24.2089,24.5041 Z " fill="#141617" stroke-width="1px" stroke="#141617"/>
        <path d="M 18.8947,18.5995 L 18.5995,18.8948 L 24.2089,24.5041 L 24.5041,24.2089 L 18.8947,18.5995 L 18.8947,18.5995 L 18.8947,18.5995 L 18.8947,18.5995 L 18.8947,18.5995 L 18.8947,18.5995 L 18.8947,18.5995 L 18.8947,18.5995 L 18.8947,18.5995 L 18.8947,18.5995 L 18.8947,18.5995 L 18.8947,18.5995 L 18.5995,18.5995 L 18.5995,18.5995 L 18.5995,18.5995 L 18.5995,18.5995 L 18.5995,18.5995 L 18.5995,18.5995 L 18.5995,18.5995 L 18.5995,18.5995 L 18.5995,18.5995 L 18.5995,18.5995 L 18.5995,18.5995 L 18.5995,18.5995 L 18.5995,18.8948 L 18.5995,18.8948 L 18.5995,18.8948 L 18.5995,18.8948 L 18.5995,18.8948 L 18.5995,18.8948 L 18.5995,18.8948 L 18.5995,18.8948 L 18.5995,18.8948 L 18.5995,18.8948 L 18.5995,18.8948 L 18.8947,18.5995 Z " fill="#141617" stroke-width="1px" stroke="#141617"/>
        <path d="M 22.4375,18.8948 L 22.4375,18.5995 L 18.8947,18.5995 L 18.8947,18.8948 L 22.4375,18.8948 L 22.4375,18.8948 L 22.4375,18.8948 L 22.4375,18.8948 L 22.4375,18.8948 L 22.4375,18.8948 L 22.4375,18.8948 L 22.4375,18.8948 L 22.4375,18.8948 L 22.4375,18.8948 L 22.4375,18.8948 L 22.4375,18.8948 L 22.4375,18.8948 L 22.4375,18.8948 L 22.4375,18.8948 L 22.4375,18.8948 L 22.4375,18.8948 L 22.4375,18.8948 L 22.4375,18.8948 L 22.4375,18.8948 L 22.4375,18.8948 L 22.4375,18.5995 L 22.4375,18.5995 L 22.4375,18.5995 L 22.4375,18.5995 L 22.4375,18.5995 L 22.4375,18.5995 L 22.4375,18.5995 L 22.4375,18.5995 L 22.4375,18.5995 L 22.4375,18.5995 L 22.4375,18.5995 L 22.4375,18.5995 L 22.4375,18.5995 L 22.4375,18.5995 L 22.4375,18.8948 Z " fill="#141617" stroke-width="1px" stroke="#141617"/>
        <path d="M 17.7138,12.1045 L 17.7138,12.3997 L 17.7138,12.3997 L 18.009,12.3997 L 18.009,12.3997 L 18.3043,12.3997 L 18.3043,12.6949 L 18.3043,12.6949 L 18.5995,12.6949 L 18.5995,12.6949 L 18.5995,12.6949 L 18.5995,12.6949 L 18.8947,12.6949 L 18.8947,12.6949 L 18.8947,12.6949 L 19.19,12.6949 L 19.19,12.9901 L 19.19,12.9901 L 19.19,12.9901 L 19.4852,12.9901 L 19.4852,12.9901 L 19.4852,12.9901 L 19.4852,13.2854 L 19.7804,13.2854 L 19.7804,13.2854 L 19.7804,13.2854 L 19.7804,13.2854 L 20.0757,13.5805999999999 L 20.0757,13.5805999999999 L 20.0757,13.5805999999999 L 20.0757,13.5805999999999 L 20.0757,13.8758 L 20.3709,13.8758 L 20.3709,13.8758 L 20.3709,13.8758 L 20.3709,14.1711 L 20.3709,14.1711 L 20.6661,14.1711 L 20.6661,14.1711 L 20.6661,14.4663 L 20.6661,14.4663 L 20.6661,14.4663 L 20.6661,14.7615 L 20.9613,14.7615 L 20.9613,14.7615 L 20.9613,14.7615 L 20.9613,15.0568 L 20.9613,15.0568 L 20.9613,15.0568 L 21.2566,15.352 L 21.2566,15.352 L 21.2566,15.352 L 21.2566,15.6472 L 21.2566,15.6472 L 21.2566,15.6472 L 21.2566,15.9425 L 21.2566,15.9425 L 21.2566,15.9425 L 21.5518,16.2377 L 21.5518,16.5329 L 21.5518,16.5329 L 21.5518,16.8280999999999 L 21.5518,17.1233999999999 L 21.847,17.1233999999999 L 21.847,17.4186 L 21.847,17.7138 L 21.847,17.7138 L 21.847,17.4186 L 21.847,17.4186 L 21.847,17.7138 L 21.847,18.0091 L 21.847,18.0091 L 22.1423,18.3043 L 22.1423,18.3043 L 22.1423,18.5995 L 22.1423,18.5995 L 22.1423,18.8948 L 22.1423,19.19 L 22.1423,17.7138 L 22.1423,18.0091 L 22.1423,18.3043 L 22.1423,18.3043 L 22.1423,18.5995 L 22.1423,18.8948 L 22.4375,18.8948 L 22.4375,18.5995 L 22.4375,18.3043 L 22.4375,18.3043 L 22.4375,18.0091 L 22.4375,19.19 L 22.4375,18.8948 L 22.4375,18.8948 L 22.4375,18.5995 L 22.4375,18.5995 L 22.4375,18.3043 L 22.4375,18.3043 L 22.4375,18.0091 L 22.4375,17.7138 L 22.4375,17.7138 L 22.4375,17.4186 L 22.4375,18.0091 L 22.1423,17.7138 L 22.1423,17.4186 L 22.1423,17.4186 L 22.1423,17.1233999999999 L 22.1423,16.8280999999999 L 22.1423,16.8280999999999 L 22.1423,16.5329 L 21.847,16.2377 L 21.847,16.2377 L 21.847,15.9425 L 21.847,15.9425 L 21.847,15.6472 L 21.847,15.6472 L 21.5518,15.352 L 21.5518,15.352 L 21.5518,15.352 L 21.5518,15.0568 L 21.5518,15.0568 L 21.5518,15.0568 L 21.5518,14.7615 L 21.2566,14.7615 L 21.2566,14.7615 L 21.2566,14.4663 L 21.2566,14.4663 L 21.2566,14.4663 L 21.2566,14.4663 L 20.9613,14.1711 L 20.9613,14.1711 L 20.9613,14.1711 L 20.9613,13.8758 L 20.9613,13.8758 L 20.9613,13.8758 L 20.6661,13.5805999999999 L 20.6661,13.5805999999999 L 20.6661,13.5805999999999 L 20.6661,13.5805999999999 L 20.3709,13.2854 L 20.3709,13.2854 L 20.3709,13.2854 L 20.3709,13.2854 L 20.0757,12.9901 L 20.0757,12.9901 L 20.0757,12.9901 L 20.0757,12.9901 L 19.7804,12.6949 L 19.7804,12.6949 L 19.7804,12.6949 L 19.7804,12.6949 L 19.4852,12.6949 L 19.4852,12.3997 L 19.4852,12.3997 L 19.19,12.3997 L 19.19,12.3997 L 19.19,12.3997 L 18.8947,12.3997 L 18.8947,12.3997 L 18.8947,12.1045 L 18.5995,12.1045 L 18.5995,12.1045 L 18.5995,12.1045 L 18.3043,12.1045 L 18.3043,12.1045 L 18.009,12.1045 L 18.009,12.1045 L 18.009,12.1045 L 17.7138,12.1045 L 17.7138,12.3997 L 17.7138,12.1045 L 17.7138,12.1045 L 17.7138,12.1045 L 17.7138,12.1045 L 17.7138,12.1045 L 17.7138,12.1045 L 17.7138,12.1045 L 17.7138,12.1045 L 17.7138,12.1045 L 17.7138,12.1045 L 17.7138,12.1045 L 17.7138,12.1045 L 17.4186,12.1045 L 17.4186,12.1045 L 17.4186,12.1045 L 17.4186,12.1045 L 17.4186,12.1045 L 17.4186,12.3997 L 17.4186,12.3997 L 17.4186,12.3997 L 17.4186,12.3997 L 17.4186,12.3997 L 17.4186,12.3997 L 17.7138,12.3997 L 17.7138,12.3997 L 17.7138,12.3997 L 17.7138,12.3997 L 17.7138,12.3997 L 17.7138,12.3997 L 17.7138,12.3997 L 17.7138,12.3997 L 17.7138,12.3997 L 17.7138,12.3997 L 17.7138,12.1045 Z " fill="#141617" stroke-width="1px" stroke="#141617"/>
        <path d="M 14.171,41.0371 L 10.0378,41.0371 L 9.74260000000004,40.7418 L 9.44730000000004,40.7418 L 8.8569,40.4466 L 8.5616,40.4466 L 8.26640000000003,40.1514 L 7.97120000000001,39.8561 L 7.67600000000004,39.5608999999999 L 7.38070000000005,39.2657 L 7.08550000000002,38.9705 L 7.08550000000002,38.6752 L 6.7903,38.38 L 6.495,37.7895 L 6.495,37.4943 L 6.19980000000004,37.1991 L 6.19980000000004,36.6086 L 6.19980000000004,36.3133999999999 L 5.90460000000002,36.0180999999999 L 5.90460000000002,35.4277 L 5.90460000000002,35.1325 L 5.90460000000002,34.8372 L 5.60930000000002,34.2468 L 5.60930000000002,33.9515 L 5.60930000000002,36.0180999999999 L 5.60930000000002,35.7229 L 5.60930000000002,35.4277 L 5.60930000000002,35.1325 L 5.60930000000002,34.8372 L 5.60930000000002,34.8372 L 5.60930000000002,34.542 L 5.60930000000002,34.542 L 5.3141,34.542 L 2.06659999999999,34.542 L 7.67600000000004,28.9326 L 13.2853,34.542 L 9.74260000000004,34.542 L 9.74260000000004,34.542 L 9.74260000000004,34.8372 L 9.74260000000004,34.8372 L 9.74260000000004,35.1325 L 9.74260000000004,35.4277 L 9.74260000000004,35.7229 L 9.74260000000004,36.0180999999999 L 9.74260000000004,33.9515 L 9.74260000000004,34.2468 L 9.74260000000004,34.8372 L 10.0378,35.1325 L 10.0378,35.4277 L 10.0378,36.0180999999999 L 10.0378,36.3133999999999 L 10.333,36.9038 L 10.333,37.1991 L 10.6283,37.4943 L 10.6283,38.0848 L 10.9235,38.38 L 10.9235,38.6752 L 11.2187,38.9705 L 11.514,39.2657 L 11.8092,39.5608999999999 L 12.1044,39.8561 L 12.3996,40.1514 L 12.6949,40.4466 L 12.9901,40.7418 L 13.2853,40.7418 L 13.8758,40.7418 L 14.171,41.0371 L 14.171,41.0371 Z " fill="#FFFFFF" stroke="#231F20" stroke-width="0.44285" stroke-linecap="butt" stroke-linejoin="miter"/>
        <path d="M 16.5329,39.2657 C 15.9424,40.4466 14.171,41.0371 14.171,41.0371 C 13.2853,41.0371 12.3996,40.1514 12.3996,40.1514 C 13.2853,39.2657 13.2853,39.2657 13.2853,39.2657 Z " fill="#FFFFFF" stroke="none"/>
        <path d="M 16.5329,39.2657 C 15.9424,40.4466 14.171,41.0371 14.171,41.0371 C 13.2853,41.0371 12.3996,40.1514 12.3996,40.1514 C 13.2853,39.2657 13.2853,39.2657 13.2853,39.2657 Z " stroke="#231F20" stroke-width="0.44285" stroke-linecap="butt" stroke-linejoin="miter" fill="none"/>
      </g>
      <!--emf-blob end-->
    </g>
  </g>
</svg>

