<svg xmlns="http://www.w3.org/2000/svg" xmlns:xlink="http://www.w3.org/1999/xlink" version="1.1" viewBox="0 0 69 111" >
  <title><![CDATA[Meetingplace]]></title>
  <g transform=" scale(3.000000) ">
    <!--converted by libvisio2svg-->
    <g>
      <!--emf-blob start-->
      <g>
        <path d="M 19.4808,36.0099 L 19.4808,2.95159999999998 L 0.295200000000023,2.95159999999998 L 0.295200000000023,36.0099 L 19.4808,36.0099 Z " fill="#046897" stroke="#FFFFFF" stroke-width="0.8855" stroke-linecap="butt" stroke-linejoin="miter"/>
        <path d="M 0.295200000000023,2.95159999999998 L 3.8372,0 L 22.4325,0 L 19.4808,2.95159999999998 L 0.295200000000023,2.95159999999998 Z " fill="#046897" stroke="#FFFFFF" stroke-width="0.8855" stroke-linecap="butt" stroke-linejoin="miter"/>
        <path d="M 19.4808,36.0099 L 22.4325,32.468 L 22.4325,0 L 19.4808,2.95159999999998 L 19.4808,36.0099 Z " fill="#046897" stroke="#FFFFFF" stroke-width="0.8855" stroke-linecap="butt" stroke-linejoin="miter"/>
        <path d="M 0,33.6486 L 18.8905,33.6486 " stroke="#FFFFFF" stroke-width="0.8855" stroke-linecap="butt" stroke-linejoin="miter" fill="none"/>
        <path d="M 0,15.9388 L 18.8905,15.9388 " stroke="#FFFFFF" stroke-width="0.8855" stroke-linecap="butt" stroke-linejoin="miter" fill="none"/>
        <path d="M 8.5598,26.5647 L 8.5598,29.2212 L 7.37909999999999,29.2212 L 9.44529999999997,31.8776 L 11.8066,29.2212 L 10.6259,29.2212 L 10.6259,26.5647 L 8.5598,26.5647 Z " fill="#FFFFFF" stroke-width="1px" stroke="#FFFFFF"/>
        <path d="M 8.5598,24.4986 L 8.5598,21.5469 L 7.37909999999999,21.5469 L 9.44529999999997,18.8904 L 11.8066,21.5469 L 10.6259,21.5469 L 10.6259,24.4986 L 8.5598,24.4986 Z " fill="#FFFFFF" stroke-width="1px" stroke="#FFFFFF"/>
        <path d="M 2.95170000000002,24.4986 L 5.60809999999998,24.4986 L 5.60809999999998,23.3179 L 8.26459999999997,25.6792 L 5.60809999999998,27.7454 L 5.60809999999998,26.5647 L 2.95170000000002,26.5647 L 2.95170000000002,24.4986 Z " fill="#FFFFFF" stroke-width="1px" stroke="#FFFFFF"/>
        <path d="M 16.234,24.4986 L 13.2824,24.4986 L 13.2824,23.3179 L 10.6259,25.6792 L 13.2824,27.7454 L 13.2824,26.5647 L 16.234,26.5647 L 16.234,24.4986 Z " fill="#FFFFFF" stroke-width="1px" stroke="#FFFFFF"/>
        <path d="M 10.6259,8.85489999999999 L 10.6259,5.31290000000001 L 1.77100000000002,5.31290000000001 L 1.77100000000002,8.85489999999999 L 10.6259,8.85489999999999 Z " fill="#046897" stroke="#FFFFFF" stroke-width="0.8855" stroke-linecap="butt" stroke-linejoin="miter"/>
        <path d="M 2.65649999999999,7.08389999999997 L 10.0356,7.08389999999997 " stroke="#FFFFFF" stroke-width="0.8855" stroke-linecap="butt" stroke-linejoin="miter" fill="none"/>
      </g>
      <!--emf-blob end-->
    </g>
  </g>
</svg>

