<svg xmlns="http://www.w3.org/2000/svg" xmlns:xlink="http://www.w3.org/1999/xlink" version="1.1" viewBox="0 0 171 96" >
  <title><![CDATA[Mesh ap]]></title>
  <g transform=" scale(3.000000) ">
    <!--converted by libvisio2svg-->
    <g>
      <!--emf-blob start-->
      <g>
        <path d="M 0,13.8749 L 17.1223,0 L 56.3855,0 L 42.5105,13.8749 L 0,13.8749 Z " fill="#036E9D" stroke="#FFFFFF" stroke-width="0.88565" stroke-linecap="butt" stroke-linejoin="miter"/>
        <path d="M 42.5105,31.2924 L 56.3855,17.1223 L 56.3855,0 L 42.5105,13.8749 L 42.5105,31.2924 Z " fill="#036E9D" stroke="#FFFFFF" stroke-width="0.88565" stroke-linecap="butt" stroke-linejoin="miter"/>
        <path d="M 42.5105,31.2924 L 42.5105,13.8749 L 0.295200000000023,13.8749 L 0.295200000000023,31.2924 L 42.5105,31.2924 Z " fill="#036E9D" stroke="#FFFFFF" stroke-width="0.88565" stroke-linecap="butt" stroke-linejoin="miter"/>
        <path d="M 39.8536,23.0265 C 39.8536,23.0265 37.1967,30.4068 33.9494,23.0265 C 30.4068,15.9414 27.7499,23.0265 27.7499,23.0265 C 27.7499,23.0265 24.7977999999999,30.4068 21.5504999999999,23.0265 C 18.0079999999999,15.6462 15.351,23.0265 15.351,23.0265 C 15.351,23.0265 12.3989,30.4068 9.15160000000003,23.0265 C 5.60910000000001,15.9414 2.95219999999995,23.0265 2.95219999999995,23.0265 Z " stroke="#FFFFFF" stroke-width="0.88565" stroke-linecap="round" stroke-linejoin="miter" fill="none"/>
        <path d="M 2.95219999999995,23.0265 C 2.95219999999995,23.0265 5.60910000000001,30.4068 9.15160000000003,23.0265 C 12.3989,15.9414 15.351,23.0265 15.351,23.0265 C 15.351,23.0265 18.0079999999999,30.4068 21.5504999999999,23.0265 C 24.7977999999999,15.6462 27.7499,23.0265 27.7499,23.0265 C 27.7499,23.0265 30.4068,30.4068 33.9494,23.0265 C 37.1967,15.9414 39.8536,23.0265 39.8536,23.0265 Z " stroke="#FFFFFF" stroke-width="1.77125" stroke-linecap="round" stroke-linejoin="miter" fill="none"/>
        <path d="M 40.7393,23.0265 C 40.7393,23.0265 37.7871,30.4068 34.5398,23.0265 C 30.9973,15.9414 28.3403999999999,23.0265 28.3403999999999,23.0265 C 28.3403999999999,23.0265 25.3882,30.4068 22.1409,23.0265 C 18.5984,15.6462 15.9415,23.0265 15.9415,23.0265 C 15.9415,23.0265 12.9893999999999,30.4068 9.74199999999996,23.0265 C 6.49469999999997,15.9414 3.54259999999999,23.0265 3.54259999999999,23.0265 Z " stroke="#000000" stroke-width="0.88565" stroke-linecap="round" stroke-linejoin="miter" fill="none"/>
        <path d="M 3.54259999999999,23.0265 C 3.54259999999999,23.0265 6.49469999999997,30.4068 9.74199999999996,23.0265 C 12.9893999999999,15.9414 15.9415,23.0265 15.9415,23.0265 C 15.9415,23.0265 18.5984,30.4068 22.1409,23.0265 C 25.3882,15.6462 28.3403999999999,23.0265 28.3403999999999,23.0265 C 28.3403999999999,23.0265 30.9973,30.4068 34.5398,23.0265 C 37.7871,15.9414 40.7393,23.0265 40.7393,23.0265 Z " stroke="#000000" stroke-width="1.77125" stroke-linecap="round" stroke-linejoin="miter" fill="none"/>
        <path d="M 39.8536,23.0265 C 39.8536,23.0265 37.1967,30.4068 33.9494,23.0265 C 30.4068,15.9414 27.7499,23.0265 27.7499,23.0265 C 27.7499,23.0265 24.7977999999999,30.4068 21.5504999999999,23.0265 C 18.0079999999999,15.6462 15.351,23.0265 15.351,23.0265 C 15.351,23.0265 12.3989,30.4068 9.15160000000003,23.0265 C 5.60910000000001,15.9414 2.95219999999995,23.0265 2.95219999999995,23.0265 Z " stroke="#FFFFFF" stroke-width="0.88565" stroke-linecap="round" stroke-linejoin="miter" fill="none"/>
        <path d="M 2.95219999999995,23.0265 C 2.95219999999995,23.0265 5.60910000000001,30.4068 9.15160000000003,23.0265 C 12.3989,15.9414 15.351,23.0265 15.351,23.0265 C 15.351,23.0265 18.0079999999999,30.4068 21.5504999999999,23.0265 C 24.7977999999999,15.6462 27.7499,23.0265 27.7499,23.0265 C 27.7499,23.0265 30.4068,30.4068 33.9494,23.0265 C 37.1967,15.9414 39.8536,23.0265 39.8536,23.0265 Z " stroke="#FFFFFF" stroke-width="1.77125" stroke-linecap="round" stroke-linejoin="miter" fill="none"/>
        <path d="M 40.7393,23.0265 C 40.7393,23.0265 37.7871,30.4068 34.5398,23.0265 C 30.9973,15.9414 28.3403999999999,23.0265 28.3403999999999,23.0265 C 28.3403999999999,23.0265 25.3882,30.4068 22.1409,23.0265 C 18.5984,15.6462 15.9415,23.0265 15.9415,23.0265 C 15.9415,23.0265 12.9893999999999,30.4068 9.74199999999996,23.0265 C 6.49469999999997,15.9414 3.54259999999999,23.0265 3.54259999999999,23.0265 Z " stroke="#000000" stroke-width="0.88565" stroke-linecap="round" stroke-linejoin="miter" fill="none"/>
        <path d="M 3.54259999999999,23.0265 C 3.54259999999999,23.0265 6.49469999999997,30.4068 9.74199999999996,23.0265 C 12.9893999999999,15.9414 15.9415,23.0265 15.9415,23.0265 C 15.9415,23.0265 18.5984,30.4068 22.1409,23.0265 C 25.3882,15.6462 28.3403999999999,23.0265 28.3403999999999,23.0265 C 28.3403999999999,23.0265 30.9973,30.4068 34.5398,23.0265 C 37.7871,15.9414 40.7393,23.0265 40.7393,23.0265 Z " stroke="#000000" stroke-width="1.77125" stroke-linecap="round" stroke-linejoin="miter" fill="none"/>
        <path d="M 39.8536,23.0265 C 39.8536,23.0265 37.1967,30.4068 33.9494,23.0265 C 30.4068,15.9414 27.7499,23.0265 27.7499,23.0265 C 27.7499,23.0265 24.7977999999999,30.4068 21.5504999999999,23.0265 C 18.0079999999999,15.6462 15.351,23.0265 15.351,23.0265 C 15.351,23.0265 12.3989,30.4068 9.15160000000003,23.0265 C 5.60910000000001,15.9414 2.95219999999995,23.0265 2.95219999999995,23.0265 Z " stroke="#FFFFFF" stroke-width="0.88565" stroke-linecap="round" stroke-linejoin="miter" fill="none"/>
        <path d="M 2.95219999999995,23.0265 C 2.95219999999995,23.0265 5.60910000000001,30.4068 9.15160000000003,23.0265 C 12.3989,15.9414 15.351,23.0265 15.351,23.0265 C 15.351,23.0265 18.0079999999999,30.4068 21.5504999999999,23.0265 C 24.7977999999999,15.6462 27.7499,23.0265 27.7499,23.0265 C 27.7499,23.0265 30.4068,30.4068 33.9494,23.0265 C 37.1967,15.9414 39.8536,23.0265 39.8536,23.0265 Z " stroke="#FFFFFF" stroke-width="1.77125" stroke-linecap="round" stroke-linejoin="miter" fill="none"/>
        <path d="M 55.4997999999999,9.74199999999996 C 55.4997999999999,9.74199999999996 54.319,18.0078999999999 53.7286,11.8085 C 52.8429,5.31379999999996 51.6621,13.8749 51.6621,13.8749 C 51.6621,13.8749 50.4811999999999,22.1409 49.5956,15.9414 C 49.0051999999999,9.4468 47.8243,18.0078999999999 47.8243,18.0078999999999 C 47.8243,18.0078999999999 46.6435,26.2738 45.7578999999999,20.0744 C 45.1673999999999,13.5796999999999 43.9866,22.1409 43.9866,22.1409 Z " stroke="#000000" stroke-width="0.4428" stroke-linecap="round" stroke-linejoin="miter" fill="none"/>
        <path d="M 43.9866,22.1409 C 43.9866,22.1409 44.2818,28.6355 45.7578999999999,20.0744 C 47.2338999999999,11.218 47.8243,18.0078999999999 47.8243,18.0078999999999 C 47.8243,18.0078999999999 48.4148,24.5026 49.5956,15.6462 C 51.0717,7.08509999999995 51.6621,13.8749 51.6621,13.8749 C 51.6621,13.8749 52.2524999999999,20.3696 53.7286,11.8085 C 54.9094,2.95209999999997 55.4997999999999,9.74199999999996 55.4997999999999,9.74199999999996 Z " stroke="#000000" stroke-width="0.88565" stroke-linecap="round" stroke-linejoin="miter" fill="none"/>
        <path d="M 55.4997999999999,9.74199999999996 C 55.4997999999999,9.74199999999996 54.0237999999999,18.3031 53.4334,11.8085 C 52.5477,5.60899999999998 51.3669,13.8749 51.3669,13.8749 C 51.3669,13.8749 50.186,22.4361 49.5956,15.9414 C 48.71,9.74199999999996 47.5291,18.0078999999999 47.5291,18.0078999999999 C 47.5291,18.0078999999999 46.3483,26.569 45.4626,20.0744 C 44.8722,13.8749 43.6913999999999,22.1409 43.6913999999999,22.1409 Z " stroke="#FFFFFF" stroke-width="0.4428" stroke-linecap="round" stroke-linejoin="miter" fill="none"/>
        <path d="M 43.6913999999999,22.1409 C 43.6913999999999,22.1409 44.2818,28.6355 45.4626,20.0744 C 46.9386999999999,11.5132 47.5291,18.0078999999999 47.5291,18.0078999999999 C 47.5291,18.0078999999999 48.1195,24.5026 49.5956,15.9414 C 50.7764999999999,7.38029999999998 51.3669,13.8749 51.3669,13.8749 C 51.3669,13.8749 51.9573,20.6648 53.4334,11.8085 C 54.9094,3.2473 55.4997999999999,9.74199999999996 55.4997999999999,9.74199999999996 Z " stroke="#FFFFFF" stroke-width="0.88565" stroke-linecap="round" stroke-linejoin="miter" fill="none"/>
        <path d="M 30.7021,2.95209999999997 L 29.226,2.65689999999995 L 34.5398,1.476 L 36.6063,3.2473 L 35.1301999999999,2.95209999999997 L 34.835,2.95209999999997 L 31.8828999999999,5.01859999999999 L 28.0450999999999,5.01859999999999 L 30.9973,2.95209999999997 L 30.7021,2.95209999999997 Z " fill="#FFFFFF" stroke-width="1px" stroke="#FFFFFF"/>
        <path d="M 26.8643,10.6276 L 28.3403999999999,10.9228 L 23.0266,12.1036999999999 L 20.9601,10.3324 L 22.4361,10.6276 L 23.0266,10.6276 L 25.6835,8.56109999999995 L 29.5212,8.56109999999995 L 26.5690999999999,10.6276 L 26.8643,10.6276 Z " fill="#FFFFFF" stroke-width="1px" stroke="#FFFFFF"/>
        <path d="M 18.8936,6.78989999999999 L 12.6940999999999,6.78989999999999 L 14.7606,5.31379999999996 L 20.9601,5.31379999999996 L 21.5504999999999,4.42819999999995 L 24.5026,6.49459999999999 L 17.4175,8.56109999999995 L 18.8936,6.78989999999999 Z " fill="#FFFFFF" stroke-width="1px" stroke="#FFFFFF"/>
        <path d="M 38.3776,6.19939999999997 L 44.577,6.19939999999997 L 42.8057,7.6755 L 36.6063,7.6755 L 35.7207,8.56109999999995 L 32.7685,6.49459999999999 L 40.1487999999999,4.72339999999997 L 38.3776,6.19939999999997 Z " fill="#FFFFFF" stroke-width="1px" stroke="#FFFFFF"/>
      </g>
      <!--emf-blob end-->
    </g>
  </g>
</svg>

