<svg xmlns="http://www.w3.org/2000/svg" xmlns:xlink="http://www.w3.org/1999/xlink" version="1.1" viewBox="0 0 111 99" >
  <title><![CDATA[Metro 1500]]></title>
  <g transform=" scale(3.000000) ">
    <!--converted by libvisio2svg-->
    <g>
      <!--emf-blob start-->
      <g>
        <path d="M 0,32.4666 L 0,4.13210000000004 L 32.7617,4.13210000000004 L 32.7617,32.4666 L 0,32.4666 Z " fill="#036C9B" stroke="#FFFFFF" stroke-width="0.88545" stroke-linecap="butt" stroke-linejoin="miter"/>
        <path d="M 3.83690000000001,0 L 0,4.13210000000004 L 32.7617,4.13210000000004 L 36.5987,0 L 3.83690000000001,0 Z " fill="#036C9B" stroke="#FFFFFF" stroke-width="0.88545" stroke-linecap="butt" stroke-linejoin="miter"/>
        <path d="M 36.5987,28.6297 L 36.5987,0 L 32.7617,4.13210000000004 L 32.7617,32.4666 L 36.5987,28.6297 Z " fill="#036C9B" stroke="#FFFFFF" stroke-width="0.88545" stroke-linecap="butt" stroke-linejoin="miter"/>
        <path d="M 30.1054,6.49330000000003 L 3.2466,6.49330000000003 L 3.2466,30.4006 L 30.1054,30.4006 L 30.1054,6.49330000000003 Z " fill="#036C9B" stroke="#FFFFFF" stroke-width="0.88545" stroke-linecap="butt" stroke-linejoin="miter"/>
        <path d="M 13.8721,16.2333 L 4.42719999999997,19.48 " stroke="#FFFFFF" stroke-width="0.88545" stroke-linecap="butt" stroke-linejoin="miter" fill="none"/>
        <path d="M 18.2993,13.8721 L 30.1054,9.44490000000002 L 30.1054,12.1012 L 18.2993,13.8721 Z " fill="#036C9B" stroke="#FFFFFF" stroke-width="0.88545" stroke-linecap="butt" stroke-linejoin="miter"/>
        <path d="M 18.2993,13.8721 L 30.1054,12.3964 L 30.1054,14.7576 L 18.2993,13.8721 Z " fill="#036C9B" stroke-width="1px" stroke="#036C9B"/>
        <path d="M 18.2993,13.8721 L 30.1054,12.3964 L 30.1054,14.7576 L 18.2993,13.8721 " stroke="#FFFFFF" stroke-width="0.88545" stroke-linecap="butt" stroke-linejoin="miter" fill="none"/>
        <path d="M 18.2993,13.8721 L 30.1054,14.7576 L 30.1054,17.4139 L 18.2993,13.8721 Z " fill="#036C9B" stroke-width="1px" stroke="#036C9B"/>
        <path d="M 18.2993,13.8721 L 30.1054,14.7576 L 30.1054,17.4139 L 18.2993,13.8721 " stroke="#FFFFFF" stroke-width="0.88545" stroke-linecap="butt" stroke-linejoin="miter" fill="none"/>
        <path d="M 25.3829,26.5636 L 8.55930000000001,26.5636 L 16.8236,9.74000000000001 L 16.8236,9.74000000000001 L 25.3829,26.5636 Z " fill="#FFFFFF" stroke-width="1px" stroke="#FFFFFF"/>
      </g>
      <!--emf-blob end-->
    </g>
  </g>
</svg>

