<svg xmlns="http://www.w3.org/2000/svg" xmlns:xlink="http://www.w3.org/1999/xlink" version="1.1" viewBox="0 0 132 132" >
  <title><![CDATA[MGX 8000 multiservice switch]]></title>
  <g transform=" scale(3.000000) ">
    <!--converted by libvisio2svg-->
    <g>
      <!--emf-blob start-->
      <g>
        <path d="M 43.3917,8.56029999999998 C 43.3917,13.2832 33.6507,16.8253 21.8434,16.8253 C 9.74100000000004,16.8253 0,13.2832 0,8.56029999999998 C 0,35.4218 0,35.4218 0,35.4218 C 0,39.8495 9.74100000000004,43.6868 21.8434,43.6868 C 33.6507,43.6868 43.3917,39.8495 43.3917,35.4218 Z Z " fill="#046897" stroke="#FFFFFF" stroke-width="0.88555" stroke-linecap="butt" stroke-linejoin="miter"/>
        <path d="M 21.8434,16.8253 C 33.6507,16.8253 43.3917,13.2832 43.3917,8.56029999999998 C 43.3917,3.8374 33.6507,0 21.8434,0 C 9.74100000000004,0 0,3.8374 0,8.56029999999998 C 0,13.2832 9.74100000000004,16.8253 21.8434,16.8253 Z Z " fill="#046897" stroke="#FFFFFF" stroke-width="0.88555" stroke-linecap="butt" stroke-linejoin="miter"/>
        <path d="M 19.1868,7.9699 L 17.4157,5.31330000000003 L 16.5302,5.0181 L 15.3494,5.90359999999998 L 5.31330000000003,4.13249999999999 L 2.36150000000004,6.49400000000003 L 2.65660000000003,7.37950000000001 L 5.31330000000003,5.31330000000003 L 15.6446,7.08429999999998 L 16.8254,5.90359999999998 L 18.5964,8.85540000000003 L 19.1868,7.9699 Z " fill="#000000" stroke-width="1px" stroke="#000000"/>
        <path d="M 26.2712,11.8072 L 25.0904,8.85540000000003 L 31.2892,7.67470000000003 L 30.1085,8.56029999999998 L 40.4399,10.3313 L 37.7832,12.3976 L 27.7471,10.6265 Z Z " fill="none" stroke="none"/>
        <defs>
          <clipPath id="clip-1458777923">
            <path d="M 26.2712,11.8072 L 25.0904,8.85540000000003 L 31.2892,7.67470000000003 L 30.1085,8.56029999999998 L 40.4399,10.3313 L 37.7832,12.3976 L 27.7471,10.6265 Z"/>
          </clipPath>
        </defs>
        <path clip-path="url(#clip-1458777923)" d="M 25.0904,10.0362 L 31.2892,8.85540000000003 L 31.8796,7.67470000000003 L 30.9941,7.08429999999998 L 24.2049,8.85540000000003 L 25.0904,10.0362 Z " fill="#000000" stroke-width="1px" stroke="#000000"/>
        <path clip-path="url(#clip-1458777923)" d="M 40.735,10.0362 L 31.2892,8.26510000000002 L 30.1085,8.85540000000003 L 30.1085,9.74099999999999 L 40.4399,11.5121 L 40.735,10.0362 Z " fill="#000000" stroke-width="1px" stroke="#000000"/>
        <path d="M 23.0242,3.8374 L 29.8133,1.77109999999999 L 29.8133,4.72289999999998 L 28.0422,4.42770000000002 L 24.7952,7.37950000000001 L 21.5483,6.78919999999999 L 25.0904,4.13249999999999 Z Z " fill="none" stroke="none"/>
        <defs>
          <clipPath id="clip-2007237709">
            <path d="M 23.0242,3.8374 L 29.8133,1.77109999999999 L 29.8133,4.72289999999998 L 28.0422,4.42770000000002 L 24.7952,7.37950000000001 L 21.5483,6.78919999999999 L 25.0904,4.13249999999999 Z"/>
          </clipPath>
        </defs>
        <path clip-path="url(#clip-2007237709)" d="M 23.3193,4.42770000000002 L 30.1085,2.65660000000003 L 30.4037,2.06630000000001 L 30.1085,1.1807 L 22.1386,3.54219999999998 L 23.3193,4.42770000000002 Z " fill="#000000" stroke-width="1px" stroke="#000000"/>
        <path d="M 20.0723,14.1687 L 13.5784,15.3494 L 13.2832,12.3976 L 15.0543,12.988 L 18.5964,9.74099999999999 L 21.8434,10.3313 L 18.0061,13.5783 Z Z " fill="none" stroke="none"/>
        <defs>
          <clipPath id="clip-823564440">
            <path d="M 20.0723,14.1687 L 13.5784,15.3494 L 13.2832,12.3976 L 15.0543,12.988 L 18.5964,9.74099999999999 L 21.8434,10.3313 L 18.0061,13.5783 Z"/>
          </clipPath>
        </defs>
        <path clip-path="url(#clip-823564440)" d="M 12.6928,11.8072 L 12.6928,13.2832 L 15.0543,13.8735 L 18.5964,10.9217 L 21.8434,11.2169 L 22.729,10.0362 L 18.5964,9.1506 L 15.0543,12.3976 L 12.6928,11.8072 Z " fill="#000000" stroke-width="1px" stroke="#000000"/>
        <path clip-path="url(#clip-823564440)" d="M 20.0723,13.5783 L 18.0061,13.5783 L 18.0061,14.7591 L 20.0723,15.3494 L 21.2531,14.1687 L 20.0723,13.5783 Z " fill="#000000" stroke-width="1px" stroke="#000000"/>
        <path d="M 23.0242,3.8374 L 29.8133,1.77109999999999 L 29.8133,4.72289999999998 L 28.0422,4.42770000000002 L 24.7952,7.37950000000001 L 21.5483,6.78919999999999 L 25.0904,4.13249999999999 L 23.0242,3.8374 Z " fill="#FFFFFF" stroke-width="1px" stroke="#FFFFFF"/>
        <path d="M 26.2712,11.8072 L 25.0904,8.85540000000003 L 31.2892,7.67470000000003 L 30.1085,8.56029999999998 L 40.4399,10.3313 L 37.7832,12.3976 L 27.7471,10.6265 L 26.2712,11.8072 Z " fill="#FFFFFF" stroke-width="1px" stroke="#FFFFFF"/>
        <path d="M 20.0723,14.1687 L 13.5784,15.3494 L 13.2832,12.3976 L 15.0543,12.988 L 18.5964,9.74099999999999 L 21.8434,10.3313 L 18.0061,13.5783 L 20.0723,14.1687 Z " fill="#FFFFFF" stroke-width="1px" stroke="#FFFFFF"/>
        <path d="M 16.8254,5.31330000000003 L 18.5964,7.9699 L 11.8073,9.44580000000002 L 13.2832,8.26510000000002 L 2.65660000000003,6.49400000000003 L 5.31330000000003,4.42770000000002 L 15.6446,6.19880000000001 L 16.8254,5.31330000000003 Z " fill="#FFFFFF" stroke-width="1px" stroke="#FFFFFF"/>
        <path d="M 12.3976,37.1928 L 18.5964,37.1928 L 26.2712,21.253 L 31.2892,21.253 " stroke="#000000" stroke-width="2.65665" stroke-linecap="butt" stroke-linejoin="miter" fill="none"/>
        <path d="M 29.5181,18.3012 L 29.5181,23.9097 L 33.0603,21.253 L 29.5181,18.3012 Z " fill="#000000" stroke-width="1px" stroke="#000000"/>
        <path d="M 13.2832,40.1447 L 13.2832,34.241 L 10.0362,37.1928 L 13.2832,40.1447 Z " fill="#000000" stroke-width="1px" stroke="#000000"/>
        <path d="M 13.2832,40.4398 L 13.2832,34.8314 L 10.0362,37.488 L 13.2832,40.4398 Z " fill="#FFFFFF" stroke-width="1px" stroke="#FFFFFF"/>
        <path d="M 29.8133,18.5964 L 29.8133,24.2049 L 33.0603,21.5482 L 29.8133,18.5964 Z " fill="#FFFFFF" stroke-width="1px" stroke="#FFFFFF"/>
        <path d="M 13.2832,24.2049 L 13.2832,18.3012 L 10.0362,21.253 L 13.2832,24.2049 Z " fill="#000000" stroke-width="1px" stroke="#000000"/>
        <path d="M 13.2832,24.5 L 13.2832,18.8916 L 10.0362,21.5482 L 13.2832,24.5 Z " fill="#FFFFFF" stroke-width="1px" stroke="#FFFFFF"/>
        <path d="M 31.2892,37.1928 L 25.976,37.1928 L 18.0061,21.253 L 12.988,21.253 " stroke="#000000" stroke-width="2.65665" stroke-linecap="butt" stroke-linejoin="miter" fill="none"/>
        <path d="M 31.8796,37.488 L 26.2712,37.488 L 18.3013,21.5482 L 12.1024,21.5482 " stroke="#FFFFFF" stroke-width="2.65665" stroke-linecap="butt" stroke-linejoin="miter" fill="none"/>
        <path d="M 12.1024,37.488 L 17.7109,37.488 L 25.6808,21.5482 L 31.8796,21.5482 " stroke="#FFFFFF" stroke-width="2.65665" stroke-linecap="butt" stroke-linejoin="miter" fill="none"/>
        <path d="M 29.5181,34.241 L 29.5181,39.8495 L 33.0603,37.1928 L 29.5181,34.241 Z " fill="#000000" stroke-width="1px" stroke="#000000"/>
        <path d="M 29.8133,34.5362 L 29.8133,40.4398 L 33.0603,37.488 L 29.8133,34.5362 Z " fill="#FFFFFF" stroke-width="1px" stroke="#FFFFFF"/>
      </g>
      <!--emf-blob end-->
    </g>
  </g>
</svg>

