<svg xmlns="http://www.w3.org/2000/svg" xmlns:xlink="http://www.w3.org/1999/xlink" version="1.1" viewBox="0 0 135 162" >
  <title><![CDATA[Microphone]]></title>
  <g transform=" scale(3.000000) ">
    <!--converted by libvisio2svg-->
    <g>
      <!--emf-blob start-->
      <g>
        <path d="M 12.1063,7.67719999999997 C 21.8504,25.0984 21.8504,25.0984 21.8504,25.0984 C 23.0315,27.4606 22.1456,30.7087 19.7834,31.8898 C 19.7834,31.8898 19.7834,31.8898 19.7834,31.8898 C 17.4212,33.3661 14.4685,32.4803 12.9921,30.1181 C 3.54329999999999,12.9921 3.54329999999999,12.9921 3.54329999999999,12.9921 Z " fill="#0B719F" stroke="none"/>
        <path d="M 12.1063,7.67719999999997 C 21.8504,25.0984 21.8504,25.0984 21.8504,25.0984 C 23.0315,27.4606 22.1456,30.7087 19.7834,31.8898 C 19.7834,31.8898 19.7834,31.8898 19.7834,31.8898 C 17.4212,33.3661 14.4685,32.4803 12.9921,30.1181 C 3.54329999999999,12.9921 3.54329999999999,12.9921 3.54329999999999,12.9921 Z " stroke="#FFFFFF" stroke-width="0.88585" stroke-linecap="butt" stroke-linejoin="miter" fill="none"/>
        <path d="M 12.1063,7.67719999999997 C 21.8504,25.0984 21.8504,25.0984 21.8504,25.0984 C 23.0315,27.4606 22.1456,30.7087 19.7834,31.8898 C 19.7834,31.8898 19.7834,31.8898 19.7834,31.8898 C 17.4212,33.3661 14.4685,32.4803 12.9921,30.1181 C 3.54329999999999,12.9921 3.54329999999999,12.9921 3.54329999999999,12.9921 Z " fill="#0F73A0" stroke="none"/>
        <path d="M 12.1063,7.67719999999997 C 21.8504,25.0984 21.8504,25.0984 21.8504,25.0984 C 23.0315,27.4606 22.1456,30.7087 19.7834,31.8898 C 19.7834,31.8898 19.7834,31.8898 19.7834,31.8898 C 17.4212,33.3661 14.4685,32.4803 12.9921,30.1181 C 3.54329999999999,12.9921 3.54329999999999,12.9921 3.54329999999999,12.9921 Z " stroke="#FFFFFF" stroke-width="0.88585" stroke-linecap="butt" stroke-linejoin="miter" fill="none"/>
        <path d="M 15.059,53.1496 C 7.6771,53.1496 1.77159999999998,51.3779 1.77159999999998,49.0157 C 1.77159999999998,46.6535 7.6771,44.8819 15.059,44.8819 C 22.4409,44.8819 28.3464,46.6535 28.3464,49.0157 C 28.3464,51.3779 22.4409,53.1496 15.059,53.1496 Z Z " fill="#0F73A0" stroke="#FFFFFF" stroke-width="0.88585" stroke-linecap="butt" stroke-linejoin="miter"/>
        <path d="M 15.059,47.8346 C 11.5157,47.8346 8.56299999999999,46.9488 8.56299999999999,45.7677 C 8.56299999999999,44.5866 11.5157,43.7008 15.059,43.7008 C 18.8976,43.7008 21.8504,44.5866 21.8504,45.7677 C 21.8504,46.9488 18.8976,47.8346 15.059,47.8346 Z Z " fill="#0F73A0" stroke="#FFFFFF" stroke-width="0.88585" stroke-linecap="butt" stroke-linejoin="miter"/>
        <path d="M 12.1063,7.97239999999999 C 13.5826,10.3346 12.1063,12.4016 9.7441,13.5827 C 9.7441,13.5827 9.7441,13.5827 9.7441,13.5827 C 7.38189999999997,15.0591 4.7244,15.3543 3.54329999999999,12.9921 C 1.77159999999998,9.7441 1.77159999999998,9.7441 1.77159999999998,9.7441 C 1.47629999999998,9.15350000000001 1.47629999999998,9.15350000000001 1.47629999999998,9.15350000000001 C 0,6.79129999999998 0.590499999999963,2.65749999999997 2.95269999999999,1.47640000000001 C 2.95269999999999,1.47640000000001 2.95269999999999,1.47640000000001 2.95269999999999,1.47640000000001 C 5.31489999999997,0 8.56299999999999,1.47640000000001 10.0393,4.13389999999998 C 10.3346,4.42910000000001 10.3346,4.42910000000001 10.3346,4.42910000000001 Z Z " fill="#000000" stroke="#FFFFFF" stroke-width="0.88585" stroke-linecap="butt" stroke-linejoin="miter"/>
        <path d="M 12.1063,7.97239999999999 C 13.5826,10.3346 12.1063,12.4016 9.7441,13.5827 C 9.7441,13.5827 9.7441,13.5827 9.7441,13.5827 C 7.38189999999997,15.0591 4.7244,15.3543 3.54329999999999,12.9921 C 1.77159999999998,9.7441 1.77159999999998,9.7441 1.77159999999998,9.7441 C 1.47629999999998,9.15350000000001 1.47629999999998,9.15350000000001 1.47629999999998,9.15350000000001 C 0,6.79129999999998 0.590499999999963,2.65749999999997 2.95269999999999,1.47640000000001 C 2.95269999999999,1.47640000000001 2.95269999999999,1.47640000000001 2.95269999999999,1.47640000000001 C 5.31489999999997,0 8.56299999999999,1.47640000000001 10.0393,4.13389999999998 C 10.3346,4.42910000000001 10.3346,4.42910000000001 10.3346,4.42910000000001 Z Z " fill="#0F73A0" stroke="#FFFFFF" stroke-width="0.88585" stroke-linecap="butt" stroke-linejoin="miter"/>
        <path d="M 15.059,46.6535 C 14.1732,46.6535 13.5826,46.063 13.5826,45.1772 C 13.5826,21.5551 13.5826,21.5551 13.5826,21.5551 C 13.5826,20.6693 14.1732,20.0787 15.059,20.0787 C 15.059,20.0787 15.059,20.0787 15.059,20.0787 C 15.9449,20.0787 16.5354,20.6693 16.5354,21.5551 C 16.5354,45.1772 16.5354,45.1772 16.5354,45.1772 C 16.5354,46.063 15.9449,46.6535 15.059,46.6535 Z Z " fill="#0F73A0" stroke="#FFFFFF" stroke-width="0.88585" stroke-linecap="butt" stroke-linejoin="miter"/>
        <path d="M 15.3543,24.2126 C 16.2401,24.2126 17.126,23.622 17.126,22.7362 C 17.126,21.8504 16.2401,20.9646 15.3543,20.9646 C 14.4685,20.9646 13.8779,21.8504 13.8779,22.7362 C 13.8779,23.622 14.4685,24.2126 15.3543,24.2126 Z Z " fill="#0F73A0" stroke="#FFFFFF" stroke-width="0.88585" stroke-linecap="butt" stroke-linejoin="miter"/>
        <path d="M 12.4015,7.97239999999999 C 13.5826,10.6299 12.4015,12.4016 9.7441,13.878 C 9.7441,13.878 9.7441,13.878 9.7441,13.878 C 7.38189999999997,15.0591 5.0197,15.3543 3.54329999999999,12.9921 Z " stroke="#FFFFFF" stroke-width="0.88585" stroke-linecap="butt" stroke-linejoin="miter" fill="none"/>
        <path d="M 11.5157,6.79129999999998 C 12.9921,9.15350000000001 11.5157,11.2205 9.15350000000001,12.4016 C 9.15350000000001,12.4016 9.15350000000001,12.4016 9.15350000000001,12.4016 C 6.79129999999998,13.878 4.13380000000001,14.1732 2.95269999999999,11.811 Z " stroke="#FFFFFF" stroke-width="0.4429" stroke-linecap="butt" stroke-linejoin="miter" fill="none"/>
        <path d="M 10.9252,5.90549999999996 C 12.1063,8.26769999999999 10.6299,10.0394 8.56299999999999,11.5157 C 8.56299999999999,11.5157 8.56299999999999,11.5157 8.56299999999999,11.5157 C 6.20079999999996,12.6969 3.83859999999999,12.9921 2.36219999999997,10.6299 Z " stroke="#FFFFFF" stroke-width="0.4429" stroke-linecap="butt" stroke-linejoin="miter" fill="none"/>
        <path d="M 10.3346,5.0197 C 11.5157,7.08659999999998 10.0393,8.85829999999999 7.6771,10.3346 C 7.6771,10.3346 7.6771,10.3346 7.6771,10.3346 C 5.31489999999997,11.5157 2.95269999999999,11.811 1.77159999999998,9.44880000000001 Z " stroke="#FFFFFF" stroke-width="0.4429" stroke-linecap="butt" stroke-linejoin="miter" fill="none"/>
        <path d="M 9.7441,3.83859999999999 C 10.9252,5.90549999999996 9.44880000000001,7.67719999999997 7.08659999999998,9.15350000000001 C 7.08659999999998,9.15350000000001 7.08659999999998,9.15350000000001 7.08659999999998,9.15350000000001 C 4.7244,10.3346 2.36219999999997,10.6299 1.18109999999996,8.26769999999999 Z " stroke="#FFFFFF" stroke-width="0.4429" stroke-linecap="butt" stroke-linejoin="miter" fill="none"/>
        <path d="M 8.85819999999995,2.65749999999997 C 10.0393,5.0197 8.85819999999995,6.79129999999998 6.49599999999998,7.97239999999999 C 6.49599999999998,7.97239999999999 6.49599999999998,7.97239999999999 6.49599999999998,7.97239999999999 C 4.42910000000001,9.15350000000001 2.06689999999998,9.44880000000001 0.885799999999961,7.38189999999997 Z " stroke="#FFFFFF" stroke-width="0.4429" stroke-linecap="butt" stroke-linejoin="miter" fill="none"/>
        <path d="M 7.97239999999999,2.06689999999998 C 8.85819999999995,4.13389999999998 7.6771,5.61019999999996 5.90549999999996,6.49609999999996 C 5.90549999999996,6.49609999999996 5.90549999999996,6.49609999999996 5.90549999999996,6.49609999999996 C 3.83859999999999,7.67719999999997 2.06689999999998,7.97239999999999 0.885799999999961,5.90549999999996 Z " stroke="#FFFFFF" stroke-width="0.4429" stroke-linecap="butt" stroke-linejoin="miter" fill="none"/>
        <path d="M 6.79129999999998,1.47640000000001 C 7.6771,3.24799999999999 6.79129999999998,4.42910000000001 5.0197,5.315 C 5.0197,5.315 5.0197,5.315 5.0197,5.315 C 3.54329999999999,6.20079999999996 1.77159999999998,6.49609999999996 0.885799999999961,4.7244 Z " stroke="#FFFFFF" stroke-width="0.4429" stroke-linecap="butt" stroke-linejoin="miter" fill="none"/>
        <path d="M 20.0787,31.0039 C 20.9645,35.1378 20.9645,41.3386 25.3937,43.1102 C 26.5748,43.7008 28.0511,43.4055 29.5275,43.9961 C 32.4803,44.8819 33.6614,48.1299 36.3189,50.1968 C 38.6811,51.9685 41.6338,51.9685 44.2913,50.7874 Z " stroke="#0B719F" stroke-width="0.88585" stroke-linecap="butt" stroke-linejoin="miter" fill="none"/>
      </g>
      <!--emf-blob end-->
    </g>
  </g>
</svg>

