<svg xmlns="http://www.w3.org/2000/svg" xmlns:xlink="http://www.w3.org/1999/xlink" version="1.1" viewBox="0 0 132 87" >
  <title><![CDATA[Microwebserver]]></title>
  <g transform=" scale(3.000000) ">
    <!--converted by libvisio2svg-->
    <g>
      <!--emf-blob start-->
      <g>
        <path d="M 43.0899,8.2638 C 43.0899,12.986 33.3504,16.5276 21.545,16.5276 C 9.73950000000002,16.5276 0,12.986 0,8.2638 C 0,20.6595 0,20.6595 0,20.6595 C 0,25.0865 9.73950000000002,28.9233 21.545,28.9233 C 33.3504,28.9233 43.0899,25.0865 43.0899,20.6595 Z Z " fill="#0E6F9C" stroke="#FFFFFF" stroke-width="0.8854" stroke-linecap="butt" stroke-linejoin="miter"/>
        <path d="M 43.0899,8.2638 C 43.0899,12.986 33.3504,16.5276 21.545,16.5276 C 9.73950000000002,16.5276 0,12.986 0,8.2638 C 0,20.6595 0,20.6595 0,20.6595 C 0,25.0865 9.73950000000002,28.9233 21.545,28.9233 C 33.3504,28.9233 43.0899,25.0865 43.0899,20.6595 Z Z " fill="#0E6F9C" stroke="#FFFFFF" stroke-width="0.8854" stroke-linecap="butt" stroke-linejoin="miter"/>
        <path d="M 21.545,16.5276 C 33.3504,16.5276 43.0899,12.986 43.0899,8.2638 C 43.0899,3.83670000000001 33.3504,0 21.545,0 C 9.73950000000002,0 0,3.83670000000001 0,8.2638 C 0,12.986 9.73950000000002,16.5276 21.545,16.5276 Z Z " fill="#0E6F9C" stroke="#FFFFFF" stroke-width="0.8854" stroke-linecap="butt" stroke-linejoin="miter"/>
        <path d="M 31.2845,10.92 L 36.0066,12.6908 L 31.2845,14.7568 L 31.2845,13.2811 L 7.96870000000001,13.2811 L 7.96870000000001,11.5103 L 31.2845,11.5103 L 31.2845,10.92 Z " fill="#0C6D9C" stroke-width="1px" stroke="#0C6D9C"/>
        <path d="M 12.6909,5.90269999999998 C 13.5763,5.90269999999998 13.5763,5.90269999999998 13.5763,5.90269999999998 C 14.4617,8.55889999999999 14.4617,8.85399999999998 14.4617,9.4443 C 14.4617,9.4443 14.4617,9.4443 14.4617,9.4443 C 14.4617,9.14920000000001 14.7568,8.55889999999999 15.052,5.90269999999998 C 16.2325,5.90269999999998 16.2325,5.90269999999998 16.2325,5.90269999999998 C 16.8228,8.55889999999999 16.8228,8.85399999999998 16.8228,9.4443 C 16.8228,9.4443 16.8228,9.4443 16.8228,9.4443 C 17.1179,9.14920000000001 17.1179,8.55889999999999 17.7082,5.90269999999998 C 18.5936,5.90269999999998 18.5936,5.90269999999998 18.5936,5.90269999999998 C 17.4131,10.92 17.4131,10.92 17.4131,10.92 C 16.5277,10.92 16.5277,10.92 16.5277,10.92 C 15.9374,8.55889999999999 15.9374,7.96859999999998 15.6422,7.08320000000003 C 15.6422,7.08320000000003 15.6422,7.08320000000003 15.6422,7.08320000000003 C 15.6422,7.96859999999998 15.3471,8.2638 15.052,10.92 C 13.8714,10.92 13.8714,10.92 13.8714,10.92 Z Z " fill="#FFFFFF" stroke="none"/>
        <path d="M 18.8887,5.90269999999998 C 20.0693,5.90269999999998 20.0693,5.90269999999998 20.0693,5.90269999999998 C 20.6596,8.55889999999999 20.6596,8.85399999999998 20.6596,9.4443 C 20.6596,9.4443 20.6596,9.4443 20.6596,9.4443 C 20.9547,9.14920000000001 20.9547,8.55889999999999 21.545,5.90269999999998 C 22.4304,5.90269999999998 22.4304,5.90269999999998 22.4304,5.90269999999998 C 23.0207,8.55889999999999 23.0207,8.85399999999998 23.3158,9.4443 C 23.3158,9.4443 23.3158,9.4443 23.3158,9.4443 C 23.3158,9.14920000000001 23.3158,8.55889999999999 23.9061,5.90269999999998 C 25.0866,5.90269999999998 25.0866,5.90269999999998 25.0866,5.90269999999998 C 23.6109,10.92 23.6109,10.92 23.6109,10.92 C 22.7255,10.92 22.7255,10.92 22.7255,10.92 C 22.1352,8.55889999999999 22.1352,7.96859999999998 21.8401,7.08320000000003 C 21.8401,7.08320000000003 21.8401,7.08320000000003 21.8401,7.08320000000003 C 21.8401,7.96859999999998 21.8401,8.2638 21.2498,10.92 C 20.3644,10.92 20.3644,10.92 20.3644,10.92 Z Z " fill="#FFFFFF" stroke="none"/>
        <path d="M 25.0866,5.90269999999998 C 26.2672,5.90269999999998 26.2672,5.90269999999998 26.2672,5.90269999999998 C 26.8574,8.55889999999999 26.8574,8.85399999999998 27.1526,9.4443 C 27.1526,9.4443 27.1526,9.4443 27.1526,9.4443 C 27.1526,9.14920000000001 27.1526,8.55889999999999 27.7428,5.90269999999998 C 28.6282,5.90269999999998 28.6282,5.90269999999998 28.6282,5.90269999999998 C 29.2185,8.55889999999999 29.2185,8.85399999999998 29.5137,9.4443 C 29.5137,9.4443 29.5137,9.4443 29.5137,9.4443 C 29.5137,9.14920000000001 29.5137,8.55889999999999 30.3991,5.90269999999998 C 31.2845,5.90269999999998 31.2845,5.90269999999998 31.2845,5.90269999999998 C 29.8088,10.92 29.8088,10.92 29.8088,10.92 C 28.9234,10.92 28.9234,10.92 28.9234,10.92 C 28.3331,8.55889999999999 28.3331,7.96859999999998 28.3331,7.08320000000003 C 28.3331,7.08320000000003 28.3331,7.08320000000003 28.3331,7.08320000000003 C 28.038,7.96859999999998 28.038,8.2638 27.4477,10.92 C 26.5623,10.92 26.5623,10.92 26.5623,10.92 Z Z " fill="#FFFFFF" stroke="none"/>
      </g>
      <!--emf-blob end-->
    </g>
  </g>
</svg>

