<svg xmlns="http://www.w3.org/2000/svg" xmlns:xlink="http://www.w3.org/1999/xlink" version="1.1" viewBox="0 0 177 120" >
  <title><![CDATA[Mobile streamer]]></title>
  <g transform=" scale(3.000000) ">
    <!--converted by libvisio2svg-->
    <g>
      <!--emf-blob start-->
      <g>
        <path d="M 0,4.42750000000001 L 0,39.5527000000001 L 53.7209,39.5527000000001 L 53.7209,4.42750000000001 L 0,4.42750000000001 L 0,4.42750000000001 L 0,4.42750000000001 L 0,4.42750000000001 Z " fill="#0F73A0" stroke="#FFFFFF" stroke-width="0.44275" stroke-linecap="butt" stroke-linejoin="miter"/>
        <path d="M 0,4.42750000000001 L 0,39.5527000000001 L 53.7209,39.5527000000001 L 53.7209,4.42750000000001 L 0,4.42750000000001 L 0,4.42750000000001 L 0,4.42750000000001 L 0,4.42750000000001 Z " fill="#0F73A0" stroke="#FFFFFF" stroke-width="0.44275" stroke-linecap="butt" stroke-linejoin="miter"/>
        <path d="M 0,4.42750000000001 L 4.13240000000002,0 L 58.1484,0 L 53.7209,4.42750000000001 L 0,4.42750000000001 L 0,4.42750000000001 L 0,4.42750000000001 L 0,4.42750000000001 Z " fill="#0F73A0" stroke="#FFFFFF" stroke-width="0.44275" stroke-linecap="butt" stroke-linejoin="miter"/>
        <path d="M 0,4.42750000000001 L 4.13240000000002,0 L 58.1484,0 L 53.7209,4.42750000000001 L 0,4.42750000000001 L 0,4.42750000000001 L 0,4.42750000000001 L 0,4.42750000000001 Z " fill="#0F73A0" stroke="#FFFFFF" stroke-width="0.44275" stroke-linecap="butt" stroke-linejoin="miter"/>
        <path d="M 53.7209,4.42750000000001 L 58.1484,0 L 58.1484,35.1252000000001 L 53.7209,39.5527000000001 L 53.7209,4.42750000000001 L 53.7209,4.42750000000001 L 53.7209,4.42750000000001 L 53.7209,4.42750000000001 Z " fill="#0F73A0" stroke="#FFFFFF" stroke-width="0.44275" stroke-linecap="butt" stroke-linejoin="miter"/>
        <path d="M 53.7209,4.42750000000001 L 58.1484,0 L 58.1484,35.1252000000001 L 53.7209,39.5527000000001 L 53.7209,4.42750000000001 L 53.7209,4.42750000000001 L 53.7209,4.42750000000001 L 53.7209,4.42750000000001 Z " fill="#0F73A0" stroke="#FFFFFF" stroke-width="0.44275" stroke-linecap="butt" stroke-linejoin="miter"/>
        <path d="M 43.0948,12.102 L 43.0948,10.0358 L 48.1127,13.5778 L 43.0948,16.8247 L 43.0948,14.7585 L 36.6011,14.7585 L 36.6011,12.102 L 43.0948,12.102 L 43.0948,12.102 L 43.0948,12.102 L 43.0948,12.102 Z " fill="#060606" stroke-width="1px" stroke="#060606"/>
        <path d="M 16.2343,29.5170000000001 L 16.2343,27.4508000000001 L 20.9571,30.9928 L 16.2343,34.5348 L 16.2343,32.4687 L 3.5421,32.4687 L 3.5421,29.5170000000001 L 16.2343,29.5170000000001 L 16.2343,29.5170000000001 L 16.2343,29.5170000000001 L 16.2343,29.5170000000001 Z " fill="#060606" stroke-width="1px" stroke="#060606"/>
        <path d="M 43.0948,29.8121 L 43.0948,27.7459 L 48.1127,30.9928 L 43.0948,34.5348 L 43.0948,32.4687 L 36.6011,32.4687 L 36.6011,29.8121 L 43.0948,29.8121 L 43.0948,29.8121 L 43.0948,29.8121 L 43.0948,29.8121 Z " fill="#060606" stroke-width="1px" stroke="#060606"/>
        <path d="M 42.5044,11.5116 L 42.5044,9.44540000000006 L 47.5223,12.6923 L 42.5044,16.2343 L 42.5044,14.1681 L 36.0107,14.1681 L 36.0107,11.5116 L 42.5044,11.5116 L 42.5044,11.5116 L 42.5044,11.5116 L 42.5044,11.5116 Z " fill="#FFFFFF" stroke-width="1px" stroke="#FFFFFF"/>
        <path d="M 15.3488,28.9266 L 15.3488,26.8604 L 20.3667,30.4025 L 15.3488,33.6493 L 15.3488,31.5832 L 2.95170000000002,31.5832 L 2.95170000000002,28.9266 L 15.3488,28.9266 L 15.3488,28.9266 L 15.3488,28.9266 L 15.3488,28.9266 Z " fill="#FFFFFF" stroke-width="1px" stroke="#FFFFFF"/>
        <path d="M 47.5223,20.957 L 47.5223,18.8909 L 52.5402,22.1377 L 47.5223,25.6798 L 47.5223,23.6136 L 36.3059,23.6136 L 36.3059,20.957 L 47.5223,20.957 L 47.5223,20.957 L 47.5223,20.957 L 47.5223,20.957 Z " fill="#060606" stroke-width="1px" stroke="#060606"/>
        <path d="M 46.932,20.0715 L 46.932,18.0053 L 51.9499,21.5474 L 46.932,25.0894000000001 L 46.932,23.0232 L 35.7155,23.0232 L 35.7155,20.0715 L 46.932,20.0715 L 46.932,20.0715 L 46.932,20.0715 L 46.932,20.0715 Z " fill="#FFFFFF" stroke-width="1px" stroke="#FFFFFF"/>
        <path d="M 42.5044,28.9266 L 42.5044,26.8604 L 47.5223,30.4025 L 42.5044,33.9445000000001 L 42.5044,31.8783 L 36.0107,31.8783 L 36.0107,28.9266 L 42.5044,28.9266 L 42.5044,28.9266 L 42.5044,28.9266 L 42.5044,28.9266 Z " fill="#FFFFFF" stroke-width="1px" stroke="#FFFFFF"/>
        <path d="M 34.2397,7.37919999999997 L 34.2397,36.601 L 21.2522,36.601 L 21.2522,7.37919999999997 L 34.2397,7.37919999999997 L 34.2397,7.37919999999997 L 34.2397,7.37919999999997 Z " fill="#156287" stroke-width="1px" stroke="#156287"/>
        <path d="M 34.2397,7.37919999999997 L 34.2397,36.601 L 21.2522,36.601 L 21.2522,7.37919999999997 L 34.2397,7.37919999999997 L 34.2397,7.37919999999997 L 34.2397,7.37919999999997 Z " fill="#FFFFFF" stroke-width="1px" stroke="#FFFFFF"/>
        <path d="M 30.6977,29.8121 L 30.6977,33.9445000000001 L 25.0894,33.9445000000001 L 25.0894,29.8121 L 30.6977,29.8121 L 30.6977,29.8121 L 30.6977,29.8121 Z " fill="#FFFFFF" stroke-width="1px" stroke="#FFFFFF"/>
        <path d="M 30.6977,29.8121 L 30.6977,33.9445000000001 L 25.0894,33.9445000000001 L 25.0894,29.8121 L 30.6977,29.8121 L 30.6977,29.8121 L 30.6977,29.8121 Z " fill="none" stroke="#FFFFFF" stroke-width="0.44275" stroke-linecap="square" stroke-linejoin="miter"/>
        <path d="M 33.3542,33.9445000000001 L 33.3542,35.1252000000001 L 32.1735,35.1252000000001 L 32.1735,33.9445000000001 L 33.3542,33.9445000000001 L 33.3542,33.9445000000001 L 33.3542,33.9445000000001 Z " fill="#FFFFFF" stroke-width="1px" stroke="#FFFFFF"/>
        <path d="M 33.3542,33.9445000000001 L 33.3542,35.1252000000001 L 32.1735,35.1252000000001 L 32.1735,33.9445000000001 L 33.3542,33.9445000000001 L 33.3542,33.9445000000001 L 33.3542,33.9445000000001 Z " fill="none" stroke="#FFFFFF" stroke-width="0.44275" stroke-linecap="square" stroke-linejoin="miter"/>
        <path d="M 33.3542,31.5832 L 33.3542,32.7638000000001 L 32.1735,32.7638000000001 L 32.1735,31.5832 L 33.3542,31.5832 L 33.3542,31.5832 L 33.3542,31.5832 Z " fill="#FFFFFF" stroke-width="1px" stroke="#FFFFFF"/>
        <path d="M 33.3542,31.5832 L 33.3542,32.7638000000001 L 32.1735,32.7638000000001 L 32.1735,31.5832 L 33.3542,31.5832 L 33.3542,31.5832 L 33.3542,31.5832 Z " fill="none" stroke="#FFFFFF" stroke-width="0.44275" stroke-linecap="square" stroke-linejoin="miter"/>
        <path d="M 33.3542,28.9266 L 33.3542,30.1073 L 32.1735,30.1073 L 32.1735,28.9266 L 33.3542,28.9266 L 33.3542,28.9266 L 33.3542,28.9266 Z " fill="#FFFFFF" stroke-width="1px" stroke="#FFFFFF"/>
        <path d="M 33.3542,28.9266 L 33.3542,30.1073 L 32.1735,30.1073 L 32.1735,28.9266 L 33.3542,28.9266 L 33.3542,28.9266 L 33.3542,28.9266 Z " fill="none" stroke="#FFFFFF" stroke-width="0.44275" stroke-linecap="square" stroke-linejoin="miter"/>
        <path d="M 33.3542,26.8604 L 33.3542,27.7459 L 32.1735,27.7459 L 32.1735,26.8604 L 33.3542,26.8604 L 33.3542,26.8604 L 33.3542,26.8604 Z " fill="#FFFFFF" stroke-width="1px" stroke="#FFFFFF"/>
        <path d="M 33.3542,26.8604 L 33.3542,27.7459 L 32.1735,27.7459 L 32.1735,26.8604 L 33.3542,26.8604 L 33.3542,26.8604 L 33.3542,26.8604 Z " fill="none" stroke="#FFFFFF" stroke-width="0.44275" stroke-linecap="square" stroke-linejoin="miter"/>
        <path d="M 33.3542,24.2039 L 33.3542,25.3846 L 32.1735,25.3846 L 32.1735,24.2039 L 33.3542,24.2039 L 33.3542,24.2039 L 33.3542,24.2039 Z " fill="#FFFFFF" stroke-width="1px" stroke="#FFFFFF"/>
        <path d="M 33.3542,24.2039 L 33.3542,25.3846 L 32.1735,25.3846 L 32.1735,24.2039 L 33.3542,24.2039 L 33.3542,24.2039 L 33.3542,24.2039 Z " fill="none" stroke="#FFFFFF" stroke-width="0.44275" stroke-linecap="square" stroke-linejoin="miter"/>
        <path d="M 33.3542,21.8426000000001 L 33.3542,23.0232 L 32.1735,23.0232 L 32.1735,21.8426000000001 L 33.3542,21.8426000000001 L 33.3542,21.8426000000001 L 33.3542,21.8426000000001 Z " fill="#FFFFFF" stroke-width="1px" stroke="#FFFFFF"/>
        <path d="M 33.3542,21.8426000000001 L 33.3542,23.0232 L 32.1735,23.0232 L 32.1735,21.8426000000001 L 33.3542,21.8426000000001 L 33.3542,21.8426000000001 L 33.3542,21.8426000000001 Z " fill="none" stroke="#FFFFFF" stroke-width="0.44275" stroke-linecap="square" stroke-linejoin="miter"/>
        <path d="M 33.3542,19.4812000000001 L 33.3542,20.6619000000001 L 32.1735,20.6619000000001 L 32.1735,19.4812000000001 L 33.3542,19.4812000000001 L 33.3542,19.4812000000001 L 33.3542,19.4812000000001 Z " fill="#FFFFFF" stroke-width="1px" stroke="#FFFFFF"/>
        <path d="M 33.3542,19.4812000000001 L 33.3542,20.6619000000001 L 32.1735,20.6619000000001 L 32.1735,19.4812000000001 L 33.3542,19.4812000000001 L 33.3542,19.4812000000001 L 33.3542,19.4812000000001 Z " fill="none" stroke="#FFFFFF" stroke-width="0.44275" stroke-linecap="square" stroke-linejoin="miter"/>
        <path d="M 33.3542,17.1198000000001 L 33.3542,18.3005000000001 L 32.1735,18.3005000000001 L 32.1735,17.1198000000001 L 33.3542,17.1198000000001 L 33.3542,17.1198000000001 L 33.3542,17.1198000000001 Z " fill="#FFFFFF" stroke-width="1px" stroke="#FFFFFF"/>
        <path d="M 33.3542,17.1198000000001 L 33.3542,18.3005000000001 L 32.1735,18.3005000000001 L 32.1735,17.1198000000001 L 33.3542,17.1198000000001 L 33.3542,17.1198000000001 L 33.3542,17.1198000000001 Z " fill="none" stroke="#FFFFFF" stroke-width="0.44275" stroke-linecap="square" stroke-linejoin="miter"/>
        <path d="M 33.3542,14.7585 L 33.3542,15.9392 L 32.1735,15.9392 L 32.1735,14.7585 L 33.3542,14.7585 L 33.3542,14.7585 L 33.3542,14.7585 Z " fill="#FFFFFF" stroke-width="1px" stroke="#FFFFFF"/>
        <path d="M 33.3542,14.7585 L 33.3542,15.9392 L 32.1735,15.9392 L 32.1735,14.7585 L 33.3542,14.7585 L 33.3542,14.7585 L 33.3542,14.7585 Z " fill="none" stroke="#FFFFFF" stroke-width="0.44275" stroke-linecap="square" stroke-linejoin="miter"/>
        <path d="M 33.3542,12.3971 L 33.3542,13.5778 L 32.1735,13.5778 L 32.1735,12.3971 L 33.3542,12.3971 L 33.3542,12.3971 L 33.3542,12.3971 Z " fill="#FFFFFF" stroke-width="1px" stroke="#FFFFFF"/>
        <path d="M 33.3542,12.3971 L 33.3542,13.5778 L 32.1735,13.5778 L 32.1735,12.3971 L 33.3542,12.3971 L 33.3542,12.3971 L 33.3542,12.3971 Z " fill="none" stroke="#FFFFFF" stroke-width="0.44275" stroke-linecap="square" stroke-linejoin="miter"/>
        <path d="M 33.3542,10.0358 L 33.3542,10.9213 L 32.1735,11.2164 L 32.1735,10.0358 L 33.3542,10.0358 L 33.3542,10.0358 L 33.3542,10.0358 Z " fill="#FFFFFF" stroke-width="1px" stroke="#FFFFFF"/>
        <path d="M 33.3542,10.0358 L 33.3542,10.9213 L 32.1735,11.2164 L 32.1735,10.0358 L 33.3542,10.0358 L 33.3542,10.0358 L 33.3542,10.0358 Z " fill="none" stroke="#FFFFFF" stroke-width="0.44275" stroke-linecap="square" stroke-linejoin="miter"/>
        <path d="M 23.6136,33.9445000000001 L 23.6136,35.1252000000001 L 22.4329,35.1252000000001 L 22.4329,33.9445000000001 L 23.6136,33.9445000000001 L 23.6136,33.9445000000001 L 23.6136,33.9445000000001 Z " fill="#FFFFFF" stroke-width="1px" stroke="#FFFFFF"/>
        <path d="M 23.6136,33.9445000000001 L 23.6136,35.1252000000001 L 22.4329,35.1252000000001 L 22.4329,33.9445000000001 L 23.6136,33.9445000000001 L 23.6136,33.9445000000001 L 23.6136,33.9445000000001 Z " fill="none" stroke="#FFFFFF" stroke-width="0.44275" stroke-linecap="square" stroke-linejoin="miter"/>
        <path d="M 23.6136,31.5832 L 23.6136,32.7638000000001 L 22.4329,32.7638000000001 L 22.4329,31.5832 L 23.6136,31.5832 L 23.6136,31.5832 L 23.6136,31.5832 Z " fill="#FFFFFF" stroke-width="1px" stroke="#FFFFFF"/>
        <path d="M 23.6136,31.5832 L 23.6136,32.7638000000001 L 22.4329,32.7638000000001 L 22.4329,31.5832 L 23.6136,31.5832 L 23.6136,31.5832 L 23.6136,31.5832 Z " fill="none" stroke="#FFFFFF" stroke-width="0.44275" stroke-linecap="square" stroke-linejoin="miter"/>
        <path d="M 23.6136,28.9266 L 23.6136,30.1073 L 22.4329,30.1073 L 22.4329,28.9266 L 23.6136,28.9266 L 23.6136,28.9266 L 23.6136,28.9266 Z " fill="#FFFFFF" stroke-width="1px" stroke="#FFFFFF"/>
        <path d="M 23.6136,28.9266 L 23.6136,30.1073 L 22.4329,30.1073 L 22.4329,28.9266 L 23.6136,28.9266 L 23.6136,28.9266 L 23.6136,28.9266 Z " fill="none" stroke="#FFFFFF" stroke-width="0.44275" stroke-linecap="square" stroke-linejoin="miter"/>
        <path d="M 23.6136,26.8604 L 23.6136,27.7459 L 22.4329,27.7459 L 22.4329,26.8604 L 23.6136,26.8604 L 23.6136,26.8604 L 23.6136,26.8604 Z " fill="#FFFFFF" stroke-width="1px" stroke="#FFFFFF"/>
        <path d="M 23.6136,26.8604 L 23.6136,27.7459 L 22.4329,27.7459 L 22.4329,26.8604 L 23.6136,26.8604 L 23.6136,26.8604 L 23.6136,26.8604 Z " fill="none" stroke="#FFFFFF" stroke-width="0.44275" stroke-linecap="square" stroke-linejoin="miter"/>
        <path d="M 23.6136,24.2039 L 23.6136,25.3846 L 22.4329,25.3846 L 22.4329,24.2039 L 23.6136,24.2039 L 23.6136,24.2039 L 23.6136,24.2039 Z " fill="#FFFFFF" stroke-width="1px" stroke="#FFFFFF"/>
        <path d="M 23.6136,24.2039 L 23.6136,25.3846 L 22.4329,25.3846 L 22.4329,24.2039 L 23.6136,24.2039 L 23.6136,24.2039 L 23.6136,24.2039 Z " fill="none" stroke="#FFFFFF" stroke-width="0.44275" stroke-linecap="square" stroke-linejoin="miter"/>
        <path d="M 23.6136,21.8426000000001 L 23.6136,23.0232 L 22.4329,23.0232 L 22.4329,21.8426000000001 L 23.6136,21.8426000000001 L 23.6136,21.8426000000001 L 23.6136,21.8426000000001 Z " fill="#FFFFFF" stroke-width="1px" stroke="#FFFFFF"/>
        <path d="M 23.6136,21.8426000000001 L 23.6136,23.0232 L 22.4329,23.0232 L 22.4329,21.8426000000001 L 23.6136,21.8426000000001 L 23.6136,21.8426000000001 L 23.6136,21.8426000000001 Z " fill="none" stroke="#FFFFFF" stroke-width="0.44275" stroke-linecap="square" stroke-linejoin="miter"/>
        <path d="M 23.6136,19.4812000000001 L 23.6136,20.6619000000001 L 22.4329,20.6619000000001 L 22.4329,19.4812000000001 L 23.6136,19.4812000000001 L 23.6136,19.4812000000001 L 23.6136,19.4812000000001 Z " fill="#FFFFFF" stroke-width="1px" stroke="#FFFFFF"/>
        <path d="M 23.6136,19.4812000000001 L 23.6136,20.6619000000001 L 22.4329,20.6619000000001 L 22.4329,19.4812000000001 L 23.6136,19.4812000000001 L 23.6136,19.4812000000001 L 23.6136,19.4812000000001 Z " fill="none" stroke="#FFFFFF" stroke-width="0.44275" stroke-linecap="square" stroke-linejoin="miter"/>
        <path d="M 23.6136,17.1198000000001 L 23.6136,18.3005000000001 L 22.4329,18.3005000000001 L 22.4329,17.1198000000001 L 23.6136,17.1198000000001 L 23.6136,17.1198000000001 L 23.6136,17.1198000000001 Z " fill="#FFFFFF" stroke-width="1px" stroke="#FFFFFF"/>
        <path d="M 23.6136,17.1198000000001 L 23.6136,18.3005000000001 L 22.4329,18.3005000000001 L 22.4329,17.1198000000001 L 23.6136,17.1198000000001 L 23.6136,17.1198000000001 L 23.6136,17.1198000000001 Z " fill="none" stroke="#FFFFFF" stroke-width="0.44275" stroke-linecap="square" stroke-linejoin="miter"/>
        <path d="M 23.6136,14.7585 L 23.6136,15.9392 L 22.4329,15.9392 L 22.4329,14.7585 L 23.6136,14.7585 L 23.6136,14.7585 L 23.6136,14.7585 Z " fill="#FFFFFF" stroke-width="1px" stroke="#FFFFFF"/>
        <path d="M 23.6136,14.7585 L 23.6136,15.9392 L 22.4329,15.9392 L 22.4329,14.7585 L 23.6136,14.7585 L 23.6136,14.7585 L 23.6136,14.7585 Z " fill="none" stroke="#FFFFFF" stroke-width="0.44275" stroke-linecap="square" stroke-linejoin="miter"/>
        <path d="M 23.6136,12.3971 L 23.6136,13.5778 L 22.4329,13.5778 L 22.4329,12.3971 L 23.6136,12.3971 L 23.6136,12.3971 L 23.6136,12.3971 Z " fill="#FFFFFF" stroke-width="1px" stroke="#FFFFFF"/>
        <path d="M 23.6136,12.3971 L 23.6136,13.5778 L 22.4329,13.5778 L 22.4329,12.3971 L 23.6136,12.3971 L 23.6136,12.3971 L 23.6136,12.3971 Z " fill="none" stroke="#FFFFFF" stroke-width="0.44275" stroke-linecap="square" stroke-linejoin="miter"/>
        <path d="M 23.6136,10.0358 L 23.6136,11.2164 L 22.4329,11.2164 L 22.4329,10.0358 L 23.6136,10.0358 L 23.6136,10.0358 L 23.6136,10.0358 Z " fill="#FFFFFF" stroke-width="1px" stroke="#FFFFFF"/>
        <path d="M 23.6136,10.0358 L 23.6136,11.2164 L 22.4329,11.2164 L 22.4329,10.0358 L 23.6136,10.0358 L 23.6136,10.0358 L 23.6136,10.0358 Z " fill="none" stroke="#FFFFFF" stroke-width="0.44275" stroke-linecap="square" stroke-linejoin="miter"/>
        <path d="M 30.6977,23.6136 L 30.6977,27.4508000000001 L 25.0894,27.4508000000001 L 25.0894,23.6136 L 30.6977,23.6136 L 30.6977,23.6136 L 30.6977,23.6136 Z " fill="#FFFFFF" stroke-width="1px" stroke="#FFFFFF"/>
        <path d="M 30.6977,23.6136 L 30.6977,27.4508000000001 L 25.0894,27.4508000000001 L 25.0894,23.6136 L 30.6977,23.6136 L 30.6977,23.6136 L 30.6977,23.6136 Z " fill="none" stroke="#FFFFFF" stroke-width="0.44275" stroke-linecap="square" stroke-linejoin="miter"/>
        <path d="M 30.6977,17.1198000000001 L 30.6977,20.957 L 25.0894,20.957 L 25.0894,17.1198000000001 L 30.6977,17.1198000000001 L 30.6977,17.1198000000001 L 30.6977,17.1198000000001 Z " fill="#FFFFFF" stroke-width="1px" stroke="#FFFFFF"/>
        <path d="M 30.6977,17.1198000000001 L 30.6977,20.957 L 25.0894,20.957 L 25.0894,17.1198000000001 L 30.6977,17.1198000000001 L 30.6977,17.1198000000001 L 30.6977,17.1198000000001 Z " fill="none" stroke="#FFFFFF" stroke-width="0.44275" stroke-linecap="square" stroke-linejoin="miter"/>
        <path d="M 30.6977,10.9213 L 30.6977,14.7585 L 25.0894,14.7585 L 25.0894,10.9213 L 30.6977,10.9213 L 30.6977,10.9213 L 30.6977,10.9213 Z " fill="#FFFFFF" stroke-width="1px" stroke="#FFFFFF"/>
        <path d="M 30.6977,10.9213 L 30.6977,14.7585 L 25.0894,14.7585 L 25.0894,10.9213 L 30.6977,10.9213 L 30.6977,10.9213 L 30.6977,10.9213 Z " fill="none" stroke="#FFFFFF" stroke-width="0.44275" stroke-linecap="square" stroke-linejoin="miter"/>
        <path d="M 15.9392,15.0536 C 16.2343,14.4633 16.8247,11.5116 16.8247,10.9213 C 16.8247,10.6261000000001 16.8247,10.0358 16.5295,10.0358 C 16.5295,9.74059999999997 16.5295,9.74059999999997 16.5295,9.74059999999997 C 16.5295,9.74059999999997 16.5295,9.74059999999997 16.5295,9.74059999999997 C 16.5295,9.74059999999997 16.5295,9.74059999999997 16.5295,9.74059999999997 C 16.5295,9.74059999999997 16.5295,8.85509999999999 16.8247,8.55989999999997 C 16.8247,7.67439999999999 16.8247,7.08410000000003 16.8247,7.08410000000003 C 16.8247,7.08410000000003 16.8247,6.78890000000001 16.8247,6.78890000000001 C 16.2343,6.78890000000001 16.2343,6.78890000000001 16.2343,6.78890000000001 C 15.9392,6.78890000000001 15.9392,6.78890000000001 15.9392,6.78890000000001 C 15.9392,6.78890000000001 15.644,7.37919999999997 15.3488,8.26470000000006 C 15.3488,8.55989999999997 15.0537,9.15030000000002 15.0537,9.15030000000002 C 15.0537,9.15030000000002 15.0537,9.15030000000002 15.0537,9.15030000000002 C 14.7585,9.15030000000002 14.4633,9.15030000000002 14.1682,8.85509999999999 C 13.2827,8.55989999999997 12.3971,8.55989999999997 11.8068,8.26470000000006 C 11.8068,8.26470000000006 11.5116,8.55989999999997 11.5116,8.55989999999997 C 11.5116,8.55989999999997 11.5116,8.55989999999997 11.5116,8.55989999999997 C 11.2165,8.55989999999997 10.9213,8.85509999999999 10.6261,9.44540000000006 C 10.6261,9.74059999999997 9.44540000000001,12.6923 9.44540000000001,13.2826 C 9.15030000000002,13.873 8.85509999999999,15.644 8.85509999999999,16.2343 C 8.55990000000003,17.1198000000001 8.55990000000003,18.3005000000001 7.96960000000001,20.3667 C 7.67439999999999,21.2522 7.08409999999998,23.0232 7.08409999999998,23.6136 C 6.78890000000001,23.6136 6.49369999999999,24.4991 7.08409999999998,24.7942 C 7.96960000000001,25.0894000000001 8.85509999999999,25.6798 9.44540000000001,25.6798 C 10.0358,25.9749 11.2165,26.2701000000001 12.102,26.2701000000001 C 12.6923,26.2701000000001 12.6923,25.3846 12.9875,25.0894000000001 C 12.9875,24.4991 13.2827,23.0232 13.5778,21.8426000000001 C 14.1682,20.0715 14.7585,18.8909 15.0537,18.0053 C 15.3488,17.415 15.9392,15.644 15.9392,15.0536 Z Z " fill="#0C719F" stroke="none"/>
        <path d="M 15.9392,7.08410000000003 C 15.9392,7.08410000000003 15.9392,7.08410000000003 15.644,7.08410000000003 C 15.3488,7.08410000000003 15.0537,6.78890000000001 15.0537,6.78890000000001 Z " fill="#0C719F" stroke="none"/>
        <path d="M 15.0537,15.3488 C 15.3488,14.7585 15.9392,11.5116 16.2343,11.2164 C 16.2343,10.6261000000001 15.9392,10.0358 15.644,10.0358 C 15.644,10.0358 15.644,9.74059999999997 15.644,9.74059999999997 C 15.644,9.74059999999997 15.644,9.74059999999997 15.644,9.74059999999997 C 15.644,9.74059999999997 15.644,9.74059999999997 15.644,9.74059999999997 C 15.644,9.74059999999997 15.644,9.15030000000002 15.9392,8.55989999999997 C 15.9392,7.67439999999999 15.9392,7.08410000000003 15.9392,7.08410000000003 C 15.9392,7.08410000000003 15.9392,7.08410000000003 15.9392,7.08410000000003 C 15.3488,6.78890000000001 15.3488,6.78890000000001 15.3488,6.78890000000001 C 15.3488,6.78890000000001 15.0537,6.78890000000001 15.0537,7.08410000000003 C 15.0537,7.08410000000003 14.7585,7.37919999999997 14.4633,8.26470000000006 C 14.4633,8.85509999999999 14.1682,9.15030000000002 14.1682,9.15030000000002 C 14.1682,9.15030000000002 14.1682,9.15030000000002 14.1682,9.15030000000002 C 13.873,9.15030000000002 13.5778,9.15030000000002 13.2827,8.85509999999999 C 12.3971,8.85509999999999 11.8068,8.55989999999997 10.9213,8.55989999999997 C 10.9213,8.55989999999997 10.9213,8.55989999999997 10.6261,8.55989999999997 C 10.6261,8.55989999999997 10.6261,8.55989999999997 10.6261,8.55989999999997 C 10.6261,8.55989999999997 10.0358,9.15030000000002 10.0358,9.44540000000006 C 9.74060000000003,9.74059999999997 8.85509999999999,12.6923 8.55990000000003,13.2826 C 8.26479999999998,14.1681 7.96960000000001,15.644 7.96960000000001,16.2343 C 7.67439999999999,17.1198000000001 7.67439999999999,18.5957 7.08409999999998,20.3667 C 6.78890000000001,21.2522 6.49369999999999,23.0232 6.1986,23.6136 C 6.1986,23.9087000000001 5.60820000000001,24.7942 6.1986,25.0894000000001 C 7.08409999999998,25.3846 8.26479999999998,25.6798 8.85509999999999,25.6798 C 9.15030000000002,25.9749 10.331,26.2701000000001 11.2165,26.2701000000001 C 12.102,26.5653 12.102,25.3846 12.102,25.3846 C 12.102,24.4991 12.6923,23.0232 12.9875,21.8426000000001 C 13.2827,20.0715 13.873,18.8909 14.1682,18.0053 C 14.4633,17.415 15.0537,15.9392 15.0537,15.3488 Z Z " fill="#0C719F" stroke="none"/>
        <path d="M 9.44540000000001,19.4812000000001 C 9.15030000000002,19.7764 8.85509999999999,20.0715 8.55990000000003,20.0715 C 8.26479999999998,19.7764 8.26479999999998,19.4812000000001 8.26479999999998,19.186 C 8.26479999999998,18.8909 8.55990000000003,18.5957 8.85509999999999,18.8909 C 9.15030000000002,18.8909 9.44540000000001,19.186 9.44540000000001,19.4812000000001 Z Z " fill="#0C719F" stroke="none"/>
        <path d="M 10.9213,20.0715 C 10.9213,20.3667 10.331,20.6619000000001 10.0358,20.6619000000001 C 9.74060000000003,20.3667 9.74060000000003,20.0715 9.74060000000003,19.7764 C 9.74060000000003,19.4812000000001 10.0358,19.4812000000001 10.331,19.4812000000001 C 10.9213,19.4812000000001 10.9213,19.7764 10.9213,20.0715 Z Z " fill="#0C719F" stroke="none"/>
        <path d="M 12.3971,20.3667 C 12.3971,20.6619000000001 12.102,20.957 11.8068,20.957 C 11.5116,20.6619000000001 11.2165,20.3667 11.2165,20.0715 C 11.5116,19.7764 11.8068,19.4812000000001 12.102,19.7764 C 12.3971,19.7764 12.6923,20.0715 12.3971,20.3667 Z Z " fill="#0C719F" stroke="none"/>
        <path d="M 9.15030000000002,20.957 C 8.85509999999999,21.2522 8.55990000000003,21.2522 8.26479999999998,21.2522 C 7.96960000000001,21.2522 7.67439999999999,20.957 7.96960000000001,20.6619000000001 C 7.96960000000001,20.3667 8.26479999999998,20.0715 8.55990000000003,20.0715 C 8.85509999999999,20.0715 9.15030000000002,20.6619000000001 9.15030000000002,20.957 Z Z " fill="#0C719F" stroke="none"/>
        <path d="M 10.6261,21.5474 C 10.331,21.8426000000001 10.0358,21.8426000000001 9.74060000000003,21.8426000000001 C 9.44540000000001,21.8426000000001 9.15030000000002,21.5474 9.44540000000001,21.2522 C 9.44540000000001,20.957 9.74060000000003,20.6619000000001 10.0358,20.6619000000001 C 10.331,20.957 10.6261,21.2522 10.6261,21.5474 Z Z " fill="#0C719F" stroke="none"/>
        <path d="M 12.102,21.8426000000001 C 12.102,22.1377 11.8068,22.1377 11.5116,22.1377 C 11.2165,22.1377 10.9213,21.8426000000001 10.9213,21.2522 C 11.2165,20.957 11.5116,20.957 11.8068,20.957 C 12.102,20.957 12.102,21.2522 12.102,21.8426000000001 Z Z " fill="#0C719F" stroke="none"/>
        <path d="M 8.55990000000003,22.1377 C 8.55990000000003,22.4329 8.26479999999998,22.7281 7.96960000000001,22.4329 C 7.67439999999999,22.4329 7.3793,22.1377 7.3793,21.8426000000001 C 7.67439999999999,21.5474 7.96960000000001,21.2522 8.26479999999998,21.5474 C 8.55990000000003,21.5474 8.85509999999999,21.8426000000001 8.55990000000003,22.1377 Z Z " fill="#0C719F" stroke="none"/>
        <path d="M 10.0358,22.7281 C 10.0358,23.0232 9.74060000000003,23.3184 9.44540000000001,23.3184 C 9.15030000000002,23.0232 8.85509999999999,22.7281 9.15030000000002,22.4329 C 9.15030000000002,22.1377 9.44540000000001,21.8426000000001 9.74060000000003,22.1377 C 10.0358,22.1377 10.331,22.4329 10.0358,22.7281 Z Z " fill="#0C719F" stroke="none"/>
        <path d="M 11.8068,23.0232 C 11.8068,23.3184 11.2165,23.6136 10.9213,23.3184 C 10.6261,23.3184 10.6261,23.0232 10.6261,22.7281 C 10.6261,22.4329 10.9213,22.1377 11.2165,22.1377 C 11.8068,22.4329 11.8068,22.7281 11.8068,23.0232 Z Z " fill="#0C719F" stroke="none"/>
        <path d="M 8.26479999999998,23.3184 C 8.26479999999998,23.9087000000001 7.96960000000001,23.9087000000001 7.67439999999999,23.9087000000001 C 7.3793,23.9087000000001 7.08409999999998,23.3184 7.08409999999998,23.0232 C 7.3793,22.7281 7.67439999999999,22.7281 7.96960000000001,22.7281 C 8.26479999999998,22.7281 8.26479999999998,23.0232 8.26479999999998,23.3184 Z M 9.74060000000003,24.2039 C 9.74060000000003,24.4991 9.44540000000001,24.4991 9.15030000000002,24.4991 C 8.85509999999999,24.4991 8.55990000000003,24.2039 8.55990000000003,23.9087000000001 C 8.85509999999999,23.3184 9.15030000000002,23.3184 9.44540000000001,23.3184 C 9.74060000000003,23.3184 9.74060000000003,23.9087000000001 9.74060000000003,24.2039 Z Z " fill="#0C719F" stroke="none"/>
        <path d="M 11.5116,24.2039 C 11.2165,24.4991 10.9213,24.7942 10.6261,24.7942 C 10.331,24.4991 10.0358,24.2039 10.331,23.9087000000001 C 10.331,23.6136 10.6261,23.6136 10.9213,23.6136 C 11.2165,23.6136 11.5116,23.9087000000001 11.5116,24.2039 Z Z " fill="#0C719F" stroke="none"/>
        <path d="M 9.15030000000002,25.0894000000001 C 9.15030000000002,25.0894000000001 8.85509999999999,25.0894000000001 8.85509999999999,25.0894000000001 C 8.85509999999999,25.0894000000001 8.85509999999999,24.7942 8.85509999999999,24.7942 C 8.85509999999999,24.7942 8.85509999999999,24.7942 8.85509999999999,24.7942 C 9.15030000000002,24.7942 9.15030000000002,24.7942 9.15030000000002,25.0894000000001 Z M 8.85509999999999,24.7942 C 8.55990000000003,25.6798 8.55990000000003,25.6798 8.55990000000003,25.6798 M 8.85509999999999,25.0894000000001 C 8.55990000000003,25.6798 8.55990000000003,25.6798 8.55990000000003,25.6798 M 9.15030000000002,25.0894000000001 C 8.85509999999999,25.6798 8.85509999999999,25.6798 8.85509999999999,25.6798 M 8.85509999999999,25.0894000000001 C 8.85509999999999,25.6798 8.85509999999999,25.6798 8.85509999999999,25.6798 M 10.331,15.0536 C 10.0358,15.644 10.0358,15.644 10.0358,15.644 M 10.331,15.0536 C 10.0358,15.644 10.0358,15.644 10.0358,15.644 M 12.9875,15.9392 C 12.6923,16.2343 12.6923,16.2343 12.6923,16.2343 M 12.9875,15.9392 C 12.6923,16.2343 12.6923,16.2343 12.6923,16.2343 Z " fill="#0C719F" stroke="none"/>
        <path d="M 15.644,9.74059999999997 C 15.644,9.74059999999997 15.644,9.15030000000002 15.9392,8.55989999999997 C 15.9392,7.67439999999999 15.9392,7.08410000000003 15.9392,7.08410000000003 C 15.9392,7.08410000000003 15.9392,7.08410000000003 15.9392,7.08410000000003 C 15.3488,6.78890000000001 15.3488,6.78890000000001 15.3488,6.78890000000001 C 15.3488,6.78890000000001 15.0537,6.78890000000001 15.0537,7.08410000000003 C 15.0537,7.08410000000003 14.7585,7.37919999999997 14.4633,8.26470000000006 C 14.4633,8.85509999999999 14.1682,9.15030000000002 14.1682,9.15030000000002 M 14.1682,15.9392 C 14.1682,16.2343 13.873,16.2343 13.873,16.2343 C 9.15030000000002,15.0536 9.15030000000002,15.0536 9.15030000000002,15.0536 C 9.15030000000002,14.7585 9.15030000000002,14.7585 9.15030000000002,14.7585 C 10.0358,11.8068000000001 10.0358,11.8068000000001 10.0358,11.8068000000001 C 10.0358,11.5116 10.0358,11.5116 10.0358,11.5116 C 14.7585,12.9875000000001 14.7585,12.9875000000001 14.7585,12.9875000000001 C 14.7585,12.9875000000001 15.0537,12.9875000000001 14.7585,12.9875000000001 Z M 15.644,9.44540000000006 C 15.3488,9.44540000000006 14.7585,9.15030000000002 14.4633,9.15030000000002 M 10.9213,8.55989999999997 C 10.9213,8.55989999999997 9.74060000000003,10.6261000000001 9.15030000000002,12.9875000000001 C 8.55990000000003,15.644 8.26479999999998,16.5295 8.55990000000003,17.7102 C 8.55990000000003,18.0053 8.85509999999999,18.3005000000001 9.15030000000002,18.3005000000001 C 9.15030000000002,18.5957 9.44540000000001,18.5957 9.44540000000001,18.5957 C 9.44540000000001,18.5957 9.74060000000003,18.5957 9.74060000000003,18.5957 C 10.0358,18.8909 10.0358,18.8909 10.0358,18.8909 C 10.331,18.8909 10.331,19.186 10.6261,19.186 C 10.9213,19.186 10.9213,19.186 10.9213,19.186 C 11.2165,19.186 11.2165,19.186 11.5116,19.186 C 11.5116,19.186 11.8068,19.186 11.8068,19.186 C 11.8068,19.186 12.102,19.186 12.102,19.186 C 12.3971,19.4812000000001 12.6923,19.186 12.9875,18.8909 C 13.5778,18.0053 14.1682,17.1198000000001 14.7585,14.4633 C 15.3488,12.102 15.644,9.74059999999997 15.644,9.74059999999997 M 10.331,9.74059999999997 C 11.2165,9.74059999999997 12.102,10.0358 12.9875,10.0358 C 13.873,10.3309 14.7585,10.6261000000001 15.644,10.9213 Z " fill="#0C719F" stroke="none"/>
        <path d="M 12.3971,17.7102 C 12.102,18.5957 11.2165,18.8909 10.6261,18.5957 C 10.0358,18.5957 9.44540000000001,17.7102 9.74060000000003,17.1198000000001 C 10.0358,16.5295 10.6261,15.9392 11.2165,16.2343 C 12.102,16.2343 12.3971,17.1198000000001 12.3971,17.7102 Z M 9.74060000000003,15.644 C 10.0358,15.644 10.0358,15.644 10.331,15.9392 C 10.331,15.9392 10.331,15.9392 10.331,15.9392 C 10.331,15.9392 10.0358,15.9392 10.0358,16.2343 C 10.0358,16.2343 10.0358,16.2343 9.74060000000003,16.2343 C 9.74060000000003,15.9392 9.15030000000002,15.644 9.15030000000002,15.644 C 9.15030000000002,15.644 9.15030000000002,15.644 9.15030000000002,15.644 C 9.44540000000001,15.644 9.74060000000003,15.644 9.74060000000003,15.644 Z M 8.85509999999999,17.1198000000001 C 9.15030000000002,17.1198000000001 9.15030000000002,17.1198000000001 9.44540000000001,17.1198000000001 C 9.44540000000001,17.415 9.44540000000001,17.415 9.44540000000001,17.415 C 9.44540000000001,17.7102 9.44540000000001,18.0053 9.44540000000001,18.0053 C 9.74060000000003,18.3005000000001 9.74060000000003,18.3005000000001 9.44540000000001,18.3005000000001 C 9.44540000000001,18.3005000000001 9.15030000000002,18.3005000000001 9.15030000000002,18.0053 C 8.85509999999999,18.0053 8.85509999999999,18.0053 8.85509999999999,18.0053 C 8.85509999999999,17.7102 8.85509999999999,17.415 8.85509999999999,17.1198000000001 C 8.85509999999999,17.1198000000001 8.85509999999999,17.1198000000001 8.85509999999999,17.1198000000001 Z Z " fill="#0C719F" stroke="none"/>
        <path d="M 12.9875,16.5295 C 12.6923,16.5295 12.6923,16.5295 12.3971,16.5295 C 12.3971,16.5295 12.3971,16.5295 12.3971,16.5295 C 12.3971,16.5295 12.3971,16.8247 12.3971,16.8247 C 12.6923,16.8247 12.6923,16.8247 12.6923,16.8247 C 12.9875,16.8247 13.2827,16.8247 13.5778,16.8247 C 13.5778,16.8247 13.5778,16.8247 13.5778,16.8247 C 13.2827,16.5295 12.9875,16.5295 12.9875,16.5295 Z M 12.9875,18.3005000000001 C 12.9875,18.0053 12.6923,18.0053 12.6923,18.0053 C 12.3971,18.0053 12.3971,18.3005000000001 12.3971,18.3005000000001 C 12.102,18.3005000000001 12.102,18.5957 11.8068,18.8909 C 11.8068,18.8909 11.8068,18.8909 11.8068,18.8909 C 12.102,18.8909 12.102,18.8909 12.3971,18.8909 C 12.3971,18.8909 12.3971,18.8909 12.6923,18.8909 C 12.6923,18.8909 12.9875,18.5957 12.9875,18.3005000000001 C 12.9875,18.3005000000001 12.9875,18.3005000000001 12.9875,18.3005000000001 Z Z " fill="#0C719F" stroke="none"/>
        <path d="M 12.6923,10.6261000000001 L 13.2827,8.85509999999999 Z " fill="#0C719F" stroke-width="1px" stroke="#0C719F"/>
        <path d="M 12.6923,10.6261000000001 L 13.2827,8.85509999999999 " stroke="none" stroke-width="0" fill="none"/>
        <path d="M 12.9875,10.6261000000001 L 13.2827,9.15030000000002 Z " fill="#0C719F" stroke-width="1px" stroke="#0C719F"/>
        <path d="M 12.9875,10.6261000000001 L 13.2827,9.15030000000002 " stroke="none" stroke-width="0" fill="none"/>
        <path d="M 15.9392,15.0536 C 16.2343,14.4633 16.8247,11.5116 16.8247,10.9213 C 16.8247,10.6261000000001 16.8247,10.0358 16.5295,10.0358 C 16.5295,9.74059999999997 16.5295,9.74059999999997 16.5295,9.74059999999997 C 16.5295,9.74059999999997 16.5295,9.74059999999997 16.5295,9.74059999999997 C 16.5295,9.74059999999997 16.5295,9.74059999999997 16.5295,9.74059999999997 C 16.5295,9.74059999999997 16.5295,8.85509999999999 16.8247,8.55989999999997 C 16.8247,7.67439999999999 16.8247,7.08410000000003 16.8247,7.08410000000003 C 16.8247,7.08410000000003 16.8247,6.78890000000001 16.8247,6.78890000000001 C 16.2343,6.78890000000001 16.2343,6.78890000000001 16.2343,6.78890000000001 C 15.9392,6.78890000000001 15.9392,6.78890000000001 15.9392,6.78890000000001 C 15.9392,6.78890000000001 15.644,7.37919999999997 15.3488,8.26470000000006 C 15.3488,8.55989999999997 15.0537,9.15030000000002 15.0537,9.15030000000002 C 15.0537,9.15030000000002 15.0537,9.15030000000002 15.0537,9.15030000000002 C 14.7585,9.15030000000002 14.4633,9.15030000000002 14.1682,8.85509999999999 C 13.2827,8.55989999999997 12.3971,8.55989999999997 11.8068,8.26470000000006 C 11.8068,8.26470000000006 11.5116,8.55989999999997 11.5116,8.55989999999997 C 11.5116,8.55989999999997 11.5116,8.55989999999997 11.5116,8.55989999999997 C 11.2165,8.55989999999997 10.9213,8.85509999999999 10.6261,9.44540000000006 C 10.6261,9.74059999999997 9.44540000000001,12.6923 9.44540000000001,13.2826 C 9.15030000000002,13.873 8.85509999999999,15.644 8.85509999999999,16.2343 C 8.55990000000003,17.1198000000001 8.55990000000003,18.3005000000001 7.96960000000001,20.3667 C 7.67439999999999,21.2522 7.08409999999998,23.0232 7.08409999999998,23.6136 C 6.78890000000001,23.6136 6.49369999999999,24.4991 7.08409999999998,24.7942 C 7.96960000000001,25.0894000000001 8.85509999999999,25.6798 9.44540000000001,25.6798 C 10.0358,25.9749 11.2165,26.2701000000001 12.102,26.2701000000001 C 12.6923,26.2701000000001 12.6923,25.3846 12.9875,25.0894000000001 C 12.9875,24.4991 13.2827,23.0232 13.5778,21.8426000000001 C 14.1682,20.0715 14.7585,18.8909 15.0537,18.0053 C 15.3488,17.415 15.9392,15.644 15.9392,15.0536 Z Z " fill="#0C719F" stroke="none"/>
        <path d="M 15.9392,7.08410000000003 C 15.9392,7.08410000000003 15.9392,7.08410000000003 15.644,7.08410000000003 C 15.3488,7.08410000000003 15.0537,6.78890000000001 15.0537,6.78890000000001 Z " fill="#0C719F" stroke="none"/>
        <path d="M 15.9392,7.08410000000003 C 15.9392,7.08410000000003 15.9392,7.08410000000003 15.644,7.08410000000003 C 15.3488,7.08410000000003 15.0537,6.78890000000001 15.0537,6.78890000000001 Z " stroke="#FFFFFF" stroke-width="0.44275" stroke-linecap="butt" stroke-linejoin="miter" fill="none"/>
        <path d="M 15.0537,15.3488 C 15.3488,14.7585 15.9392,11.5116 16.2343,11.2164 C 16.2343,10.6261000000001 15.9392,10.0358 15.644,10.0358 C 15.644,10.0358 15.644,9.74059999999997 15.644,9.74059999999997 C 15.644,9.74059999999997 15.644,9.74059999999997 15.644,9.74059999999997 C 15.644,9.74059999999997 15.644,9.74059999999997 15.644,9.74059999999997 C 15.644,9.74059999999997 15.644,9.15030000000002 15.9392,8.55989999999997 C 15.9392,7.67439999999999 15.9392,7.08410000000003 15.9392,7.08410000000003 C 15.9392,7.08410000000003 15.9392,7.08410000000003 15.9392,7.08410000000003 C 15.3488,6.78890000000001 15.3488,6.78890000000001 15.3488,6.78890000000001 C 15.3488,6.78890000000001 15.0537,6.78890000000001 15.0537,7.08410000000003 C 15.0537,7.08410000000003 14.7585,7.37919999999997 14.4633,8.26470000000006 C 14.4633,8.85509999999999 14.1682,9.15030000000002 14.1682,9.15030000000002 C 14.1682,9.15030000000002 14.1682,9.15030000000002 14.1682,9.15030000000002 C 13.873,9.15030000000002 13.5778,9.15030000000002 13.2827,8.85509999999999 C 12.3971,8.85509999999999 11.8068,8.55989999999997 10.9213,8.55989999999997 C 10.9213,8.55989999999997 10.9213,8.55989999999997 10.6261,8.55989999999997 C 10.6261,8.55989999999997 10.6261,8.55989999999997 10.6261,8.55989999999997 C 10.6261,8.55989999999997 10.0358,9.15030000000002 10.0358,9.44540000000006 C 9.74060000000003,9.74059999999997 8.85509999999999,12.6923 8.55990000000003,13.2826 C 8.26479999999998,14.1681 7.96960000000001,15.644 7.96960000000001,16.2343 C 7.67439999999999,17.1198000000001 7.67439999999999,18.5957 7.08409999999998,20.3667 C 6.78890000000001,21.2522 6.49369999999999,23.0232 6.1986,23.6136 C 6.1986,23.9087000000001 5.60820000000001,24.7942 6.1986,25.0894000000001 C 7.08409999999998,25.3846 8.26479999999998,25.6798 8.85509999999999,25.6798 C 9.15030000000002,25.9749 10.331,26.2701000000001 11.2165,26.2701000000001 C 12.102,26.5653 12.102,25.3846 12.102,25.3846 C 12.102,24.4991 12.6923,23.0232 12.9875,21.8426000000001 C 13.2827,20.0715 13.873,18.8909 14.1682,18.0053 C 14.4633,17.415 15.0537,15.9392 15.0537,15.3488 Z Z " fill="#0C719F" stroke="#FFFFFF" stroke-width="0.44275" stroke-linecap="butt" stroke-linejoin="miter"/>
        <path d="M 9.44540000000001,19.4812000000001 C 9.15030000000002,19.7764 8.85509999999999,20.0715 8.55990000000003,20.0715 C 8.26479999999998,19.7764 8.26479999999998,19.4812000000001 8.26479999999998,19.186 C 8.26479999999998,18.8909 8.55990000000003,18.5957 8.85509999999999,18.8909 C 9.15030000000002,18.8909 9.44540000000001,19.186 9.44540000000001,19.4812000000001 Z Z " fill="#0C719F" stroke="#FFFFFF" stroke-width="0.44275" stroke-linecap="butt" stroke-linejoin="miter"/>
        <path d="M 10.9213,20.0715 C 10.9213,20.3667 10.331,20.6619000000001 10.0358,20.6619000000001 C 9.74060000000003,20.3667 9.74060000000003,20.0715 9.74060000000003,19.7764 C 9.74060000000003,19.4812000000001 10.0358,19.4812000000001 10.331,19.4812000000001 C 10.9213,19.4812000000001 10.9213,19.7764 10.9213,20.0715 Z Z " fill="#0C719F" stroke="#FFFFFF" stroke-width="0.44275" stroke-linecap="butt" stroke-linejoin="miter"/>
        <path d="M 12.3971,20.3667 C 12.3971,20.6619000000001 12.102,20.957 11.8068,20.957 C 11.5116,20.6619000000001 11.2165,20.3667 11.2165,20.0715 C 11.5116,19.7764 11.8068,19.4812000000001 12.102,19.7764 C 12.3971,19.7764 12.6923,20.0715 12.3971,20.3667 Z Z " fill="#0C719F" stroke="#FFFFFF" stroke-width="0.44275" stroke-linecap="butt" stroke-linejoin="miter"/>
        <path d="M 9.15030000000002,20.957 C 8.85509999999999,21.2522 8.55990000000003,21.2522 8.26479999999998,21.2522 C 7.96960000000001,21.2522 7.67439999999999,20.957 7.96960000000001,20.6619000000001 C 7.96960000000001,20.3667 8.26479999999998,20.0715 8.55990000000003,20.0715 C 8.85509999999999,20.0715 9.15030000000002,20.6619000000001 9.15030000000002,20.957 Z Z " fill="#0C719F" stroke="#FFFFFF" stroke-width="0.44275" stroke-linecap="butt" stroke-linejoin="miter"/>
        <path d="M 10.6261,21.5474 C 10.331,21.8426000000001 10.0358,21.8426000000001 9.74060000000003,21.8426000000001 C 9.44540000000001,21.8426000000001 9.15030000000002,21.5474 9.44540000000001,21.2522 C 9.44540000000001,20.957 9.74060000000003,20.6619000000001 10.0358,20.6619000000001 C 10.331,20.957 10.6261,21.2522 10.6261,21.5474 Z Z " fill="#0C719F" stroke="#FFFFFF" stroke-width="0.44275" stroke-linecap="butt" stroke-linejoin="miter"/>
        <path d="M 12.102,21.8426000000001 C 12.102,22.1377 11.8068,22.1377 11.5116,22.1377 C 11.2165,22.1377 10.9213,21.8426000000001 10.9213,21.2522 C 11.2165,20.957 11.5116,20.957 11.8068,20.957 C 12.102,20.957 12.102,21.2522 12.102,21.8426000000001 Z Z " fill="#0C719F" stroke="#FFFFFF" stroke-width="0.44275" stroke-linecap="butt" stroke-linejoin="miter"/>
        <path d="M 8.55990000000003,22.1377 C 8.55990000000003,22.4329 8.26479999999998,22.7281 7.96960000000001,22.4329 C 7.67439999999999,22.4329 7.3793,22.1377 7.3793,21.8426000000001 C 7.67439999999999,21.5474 7.96960000000001,21.2522 8.26479999999998,21.5474 C 8.55990000000003,21.5474 8.85509999999999,21.8426000000001 8.55990000000003,22.1377 Z Z " fill="#0C719F" stroke="#FFFFFF" stroke-width="0.44275" stroke-linecap="butt" stroke-linejoin="miter"/>
        <path d="M 10.0358,22.7281 C 10.0358,23.0232 9.74060000000003,23.3184 9.44540000000001,23.3184 C 9.15030000000002,23.0232 8.85509999999999,22.7281 9.15030000000002,22.4329 C 9.15030000000002,22.1377 9.44540000000001,21.8426000000001 9.74060000000003,22.1377 C 10.0358,22.1377 10.331,22.4329 10.0358,22.7281 Z Z " fill="#0C719F" stroke="#FFFFFF" stroke-width="0.44275" stroke-linecap="butt" stroke-linejoin="miter"/>
        <path d="M 11.8068,23.0232 C 11.8068,23.3184 11.2165,23.6136 10.9213,23.3184 C 10.6261,23.3184 10.6261,23.0232 10.6261,22.7281 C 10.6261,22.4329 10.9213,22.1377 11.2165,22.1377 C 11.8068,22.4329 11.8068,22.7281 11.8068,23.0232 Z Z " fill="#0C719F" stroke="#FFFFFF" stroke-width="0.44275" stroke-linecap="butt" stroke-linejoin="miter"/>
        <path d="M 8.26479999999998,23.3184 C 8.26479999999998,23.9087000000001 7.96960000000001,23.9087000000001 7.67439999999999,23.9087000000001 C 7.3793,23.9087000000001 7.08409999999998,23.3184 7.08409999999998,23.0232 C 7.3793,22.7281 7.67439999999999,22.7281 7.96960000000001,22.7281 C 8.26479999999998,22.7281 8.26479999999998,23.0232 8.26479999999998,23.3184 Z M 9.74060000000003,24.2039 C 9.74060000000003,24.4991 9.44540000000001,24.4991 9.15030000000002,24.4991 C 8.85509999999999,24.4991 8.55990000000003,24.2039 8.55990000000003,23.9087000000001 C 8.85509999999999,23.3184 9.15030000000002,23.3184 9.44540000000001,23.3184 C 9.74060000000003,23.3184 9.74060000000003,23.9087000000001 9.74060000000003,24.2039 Z Z " fill="#0C719F" stroke="#FFFFFF" stroke-width="0.44275" stroke-linecap="butt" stroke-linejoin="miter"/>
        <path d="M 11.5116,24.2039 C 11.2165,24.4991 10.9213,24.7942 10.6261,24.7942 C 10.331,24.4991 10.0358,24.2039 10.331,23.9087000000001 C 10.331,23.6136 10.6261,23.6136 10.9213,23.6136 C 11.2165,23.6136 11.5116,23.9087000000001 11.5116,24.2039 Z Z " fill="#0C719F" stroke="#FFFFFF" stroke-width="0.44275" stroke-linecap="butt" stroke-linejoin="miter"/>
        <path d="M 9.15030000000002,25.0894000000001 C 9.15030000000002,25.0894000000001 8.85509999999999,25.0894000000001 8.85509999999999,25.0894000000001 C 8.85509999999999,25.0894000000001 8.85509999999999,24.7942 8.85509999999999,24.7942 C 8.85509999999999,24.7942 8.85509999999999,24.7942 8.85509999999999,24.7942 C 9.15030000000002,24.7942 9.15030000000002,24.7942 9.15030000000002,25.0894000000001 Z M 8.85509999999999,24.7942 C 8.55990000000003,25.6798 8.55990000000003,25.6798 8.55990000000003,25.6798 M 8.85509999999999,25.0894000000001 C 8.55990000000003,25.6798 8.55990000000003,25.6798 8.55990000000003,25.6798 M 9.15030000000002,25.0894000000001 C 8.85509999999999,25.6798 8.85509999999999,25.6798 8.85509999999999,25.6798 M 8.85509999999999,25.0894000000001 C 8.85509999999999,25.6798 8.85509999999999,25.6798 8.85509999999999,25.6798 M 10.331,15.0536 C 10.0358,15.644 10.0358,15.644 10.0358,15.644 M 10.331,15.0536 C 10.0358,15.644 10.0358,15.644 10.0358,15.644 M 12.9875,15.9392 C 12.6923,16.2343 12.6923,16.2343 12.6923,16.2343 M 12.9875,15.9392 C 12.6923,16.2343 12.6923,16.2343 12.6923,16.2343 Z " fill="#0C719F" stroke="none"/>
        <path d="M 9.15030000000002,25.0894000000001 C 9.15030000000002,25.0894000000001 8.85509999999999,25.0894000000001 8.85509999999999,25.0894000000001 C 8.85509999999999,25.0894000000001 8.85509999999999,24.7942 8.85509999999999,24.7942 C 8.85509999999999,24.7942 8.85509999999999,24.7942 8.85509999999999,24.7942 C 9.15030000000002,24.7942 9.15030000000002,24.7942 9.15030000000002,25.0894000000001 Z M 8.85509999999999,24.7942 C 8.55990000000003,25.6798 8.55990000000003,25.6798 8.55990000000003,25.6798 M 8.85509999999999,25.0894000000001 C 8.55990000000003,25.6798 8.55990000000003,25.6798 8.55990000000003,25.6798 M 9.15030000000002,25.0894000000001 C 8.85509999999999,25.6798 8.85509999999999,25.6798 8.85509999999999,25.6798 M 8.85509999999999,25.0894000000001 C 8.85509999999999,25.6798 8.85509999999999,25.6798 8.85509999999999,25.6798 M 10.331,15.0536 C 10.0358,15.644 10.0358,15.644 10.0358,15.644 M 10.331,15.0536 C 10.0358,15.644 10.0358,15.644 10.0358,15.644 M 12.9875,15.9392 C 12.6923,16.2343 12.6923,16.2343 12.6923,16.2343 M 12.9875,15.9392 C 12.6923,16.2343 12.6923,16.2343 12.6923,16.2343 Z " stroke="#FFFFFF" stroke-width="0.44275" stroke-linecap="butt" stroke-linejoin="miter" fill="none"/>
        <path d="M 15.644,9.74059999999997 C 15.644,9.74059999999997 15.644,9.15030000000002 15.9392,8.55989999999997 C 15.9392,7.67439999999999 15.9392,7.08410000000003 15.9392,7.08410000000003 C 15.9392,7.08410000000003 15.9392,7.08410000000003 15.9392,7.08410000000003 C 15.3488,6.78890000000001 15.3488,6.78890000000001 15.3488,6.78890000000001 C 15.3488,6.78890000000001 15.0537,6.78890000000001 15.0537,7.08410000000003 C 15.0537,7.08410000000003 14.7585,7.37919999999997 14.4633,8.26470000000006 C 14.4633,8.85509999999999 14.1682,9.15030000000002 14.1682,9.15030000000002 M 14.1682,15.9392 C 14.1682,16.2343 13.873,16.2343 13.873,16.2343 C 9.15030000000002,15.0536 9.15030000000002,15.0536 9.15030000000002,15.0536 C 9.15030000000002,14.7585 9.15030000000002,14.7585 9.15030000000002,14.7585 C 10.0358,11.8068000000001 10.0358,11.8068000000001 10.0358,11.8068000000001 C 10.0358,11.5116 10.0358,11.5116 10.0358,11.5116 C 14.7585,12.9875000000001 14.7585,12.9875000000001 14.7585,12.9875000000001 C 14.7585,12.9875000000001 15.0537,12.9875000000001 14.7585,12.9875000000001 Z M 15.644,9.44540000000006 C 15.3488,9.44540000000006 14.7585,9.15030000000002 14.4633,9.15030000000002 M 10.9213,8.55989999999997 C 10.9213,8.55989999999997 9.74060000000003,10.6261000000001 9.15030000000002,12.9875000000001 C 8.55990000000003,15.644 8.26479999999998,16.5295 8.55990000000003,17.7102 C 8.55990000000003,18.0053 8.85509999999999,18.3005000000001 9.15030000000002,18.3005000000001 C 9.15030000000002,18.5957 9.44540000000001,18.5957 9.44540000000001,18.5957 C 9.44540000000001,18.5957 9.74060000000003,18.5957 9.74060000000003,18.5957 C 10.0358,18.8909 10.0358,18.8909 10.0358,18.8909 C 10.331,18.8909 10.331,19.186 10.6261,19.186 C 10.9213,19.186 10.9213,19.186 10.9213,19.186 C 11.2165,19.186 11.2165,19.186 11.5116,19.186 C 11.5116,19.186 11.8068,19.186 11.8068,19.186 C 11.8068,19.186 12.102,19.186 12.102,19.186 C 12.3971,19.4812000000001 12.6923,19.186 12.9875,18.8909 C 13.5778,18.0053 14.1682,17.1198000000001 14.7585,14.4633 C 15.3488,12.102 15.644,9.74059999999997 15.644,9.74059999999997 M 10.331,9.74059999999997 C 11.2165,9.74059999999997 12.102,10.0358 12.9875,10.0358 C 13.873,10.3309 14.7585,10.6261000000001 15.644,10.9213 Z " fill="#0C719F" stroke="none"/>
        <path d="M 12.3971,17.7102 C 12.102,18.5957 11.2165,18.8909 10.6261,18.5957 C 10.0358,18.5957 9.44540000000001,17.7102 9.74060000000003,17.1198000000001 C 10.0358,16.5295 10.6261,15.9392 11.2165,16.2343 C 12.102,16.2343 12.3971,17.1198000000001 12.3971,17.7102 Z M 9.74060000000003,15.644 C 10.0358,15.644 10.0358,15.644 10.331,15.9392 C 10.331,15.9392 10.331,15.9392 10.331,15.9392 C 10.331,15.9392 10.0358,15.9392 10.0358,16.2343 C 10.0358,16.2343 10.0358,16.2343 9.74060000000003,16.2343 C 9.74060000000003,15.9392 9.15030000000002,15.644 9.15030000000002,15.644 C 9.15030000000002,15.644 9.15030000000002,15.644 9.15030000000002,15.644 C 9.44540000000001,15.644 9.74060000000003,15.644 9.74060000000003,15.644 Z M 8.85509999999999,17.1198000000001 C 9.15030000000002,17.1198000000001 9.15030000000002,17.1198000000001 9.44540000000001,17.1198000000001 C 9.44540000000001,17.415 9.44540000000001,17.415 9.44540000000001,17.415 C 9.44540000000001,17.7102 9.44540000000001,18.0053 9.44540000000001,18.0053 C 9.74060000000003,18.3005000000001 9.74060000000003,18.3005000000001 9.44540000000001,18.3005000000001 C 9.44540000000001,18.3005000000001 9.15030000000002,18.3005000000001 9.15030000000002,18.0053 C 8.85509999999999,18.0053 8.85509999999999,18.0053 8.85509999999999,18.0053 C 8.85509999999999,17.7102 8.85509999999999,17.415 8.85509999999999,17.1198000000001 C 8.85509999999999,17.1198000000001 8.85509999999999,17.1198000000001 8.85509999999999,17.1198000000001 Z Z " fill="#0C719F" stroke="#FFFFFF" stroke-width="0.44275" stroke-linecap="butt" stroke-linejoin="miter"/>
        <path d="M 12.9875,16.5295 C 12.6923,16.5295 12.6923,16.5295 12.3971,16.5295 C 12.3971,16.5295 12.3971,16.5295 12.3971,16.5295 C 12.3971,16.5295 12.3971,16.8247 12.3971,16.8247 C 12.6923,16.8247 12.6923,16.8247 12.6923,16.8247 C 12.9875,16.8247 13.2827,16.8247 13.5778,16.8247 C 13.5778,16.8247 13.5778,16.8247 13.5778,16.8247 C 13.2827,16.5295 12.9875,16.5295 12.9875,16.5295 Z M 12.9875,18.3005000000001 C 12.9875,18.0053 12.6923,18.0053 12.6923,18.0053 C 12.3971,18.0053 12.3971,18.3005000000001 12.3971,18.3005000000001 C 12.102,18.3005000000001 12.102,18.5957 11.8068,18.8909 C 11.8068,18.8909 11.8068,18.8909 11.8068,18.8909 C 12.102,18.8909 12.102,18.8909 12.3971,18.8909 C 12.3971,18.8909 12.3971,18.8909 12.6923,18.8909 C 12.6923,18.8909 12.9875,18.5957 12.9875,18.3005000000001 C 12.9875,18.3005000000001 12.9875,18.3005000000001 12.9875,18.3005000000001 Z Z " fill="#0C719F" stroke="#FFFFFF" stroke-width="0.44275" stroke-linecap="butt" stroke-linejoin="miter"/>
        <path d="M 12.6923,10.6261000000001 L 13.2827,8.85509999999999 Z " fill="#0C719F" stroke-width="1px" stroke="#0C719F"/>
        <path d="M 12.6923,10.6261000000001 L 13.2827,8.85509999999999 " stroke="#FFFFFF" stroke-width="0.44275" stroke-linecap="butt" stroke-linejoin="miter" fill="none"/>
        <path d="M 12.9875,10.6261000000001 L 13.2827,9.15030000000002 Z " fill="#0C719F" stroke-width="1px" stroke="#0C719F"/>
        <path d="M 12.9875,10.6261000000001 L 13.2827,9.15030000000002 " stroke="#FFFFFF" stroke-width="0.44275" stroke-linecap="butt" stroke-linejoin="miter" fill="none"/>
        <path d="M 15.9392,15.0536 C 16.2343,14.4633 16.8247,11.5116 16.8247,10.9213 C 16.8247,10.6261000000001 16.8247,10.0358 16.5295,10.0358 C 16.5295,9.74059999999997 16.5295,9.74059999999997 16.5295,9.74059999999997 C 16.5295,9.74059999999997 16.5295,9.74059999999997 16.5295,9.74059999999997 C 16.5295,9.74059999999997 16.5295,9.74059999999997 16.5295,9.74059999999997 C 16.5295,9.74059999999997 16.5295,8.85509999999999 16.8247,8.55989999999997 C 16.8247,7.67439999999999 16.8247,7.08410000000003 16.8247,7.08410000000003 C 16.8247,7.08410000000003 16.8247,6.78890000000001 16.8247,6.78890000000001 C 16.2343,6.78890000000001 16.2343,6.78890000000001 16.2343,6.78890000000001 C 15.9392,6.78890000000001 15.9392,6.78890000000001 15.9392,6.78890000000001 C 15.9392,6.78890000000001 15.644,7.37919999999997 15.3488,8.26470000000006 C 15.3488,8.55989999999997 15.0537,9.15030000000002 15.0537,9.15030000000002 C 15.0537,9.15030000000002 15.0537,9.15030000000002 15.0537,9.15030000000002 C 14.7585,9.15030000000002 14.4633,9.15030000000002 14.1682,8.85509999999999 C 13.2827,8.55989999999997 12.3971,8.55989999999997 11.8068,8.26470000000006 C 11.8068,8.26470000000006 11.5116,8.55989999999997 11.5116,8.55989999999997 C 11.5116,8.55989999999997 11.5116,8.55989999999997 11.5116,8.55989999999997 C 11.2165,8.55989999999997 10.9213,8.85509999999999 10.6261,9.44540000000006 C 10.6261,9.74059999999997 9.44540000000001,12.6923 9.44540000000001,13.2826 C 9.15030000000002,13.873 8.85509999999999,15.644 8.85509999999999,16.2343 C 8.55990000000003,17.1198000000001 8.55990000000003,18.3005000000001 7.96960000000001,20.3667 C 7.67439999999999,21.2522 7.08409999999998,23.0232 7.08409999999998,23.6136 C 6.78890000000001,23.6136 6.49369999999999,24.4991 7.08409999999998,24.7942 C 7.96960000000001,25.0894000000001 8.85509999999999,25.6798 9.44540000000001,25.6798 C 10.0358,25.9749 11.2165,26.2701000000001 12.102,26.2701000000001 C 12.6923,26.2701000000001 12.6923,25.3846 12.9875,25.0894000000001 C 12.9875,24.4991 13.2827,23.0232 13.5778,21.8426000000001 C 14.1682,20.0715 14.7585,18.8909 15.0537,18.0053 C 15.3488,17.415 15.9392,15.644 15.9392,15.0536 Z Z " stroke="#FFFFFF" stroke-width="0.44275" stroke-linecap="butt" stroke-linejoin="miter" fill="none"/>
        <path d="M 15.9392,7.08410000000003 C 15.9392,7.08410000000003 15.9392,7.08410000000003 15.644,7.08410000000003 C 15.3488,7.08410000000003 15.0537,6.78890000000001 15.0537,6.78890000000001 Z " stroke="#FFFFFF" stroke-width="0.44275" stroke-linecap="butt" stroke-linejoin="miter" fill="none"/>
        <path d="M 15.0537,15.3488 C 15.3488,14.7585 15.9392,11.5116 16.2343,11.2164 C 16.2343,10.6261000000001 15.9392,10.0358 15.644,10.0358 C 15.644,10.0358 15.644,9.74059999999997 15.644,9.74059999999997 C 15.644,9.74059999999997 15.644,9.74059999999997 15.644,9.74059999999997 C 15.644,9.74059999999997 15.644,9.74059999999997 15.644,9.74059999999997 C 15.644,9.74059999999997 15.644,9.15030000000002 15.9392,8.55989999999997 C 15.9392,7.67439999999999 15.9392,7.08410000000003 15.9392,7.08410000000003 C 15.9392,7.08410000000003 15.9392,7.08410000000003 15.9392,7.08410000000003 C 15.3488,6.78890000000001 15.3488,6.78890000000001 15.3488,6.78890000000001 C 15.3488,6.78890000000001 15.0537,6.78890000000001 15.0537,7.08410000000003 C 15.0537,7.08410000000003 14.7585,7.37919999999997 14.4633,8.26470000000006 C 14.4633,8.85509999999999 14.1682,9.15030000000002 14.1682,9.15030000000002 C 14.1682,9.15030000000002 14.1682,9.15030000000002 14.1682,9.15030000000002 C 13.873,9.15030000000002 13.5778,9.15030000000002 13.2827,8.85509999999999 C 12.3971,8.85509999999999 11.8068,8.55989999999997 10.9213,8.55989999999997 C 10.9213,8.55989999999997 10.9213,8.55989999999997 10.6261,8.55989999999997 C 10.6261,8.55989999999997 10.6261,8.55989999999997 10.6261,8.55989999999997 C 10.6261,8.55989999999997 10.0358,9.15030000000002 10.0358,9.44540000000006 C 9.74060000000003,9.74059999999997 8.85509999999999,12.6923 8.55990000000003,13.2826 C 8.26479999999998,14.1681 7.96960000000001,15.644 7.96960000000001,16.2343 C 7.67439999999999,17.1198000000001 7.67439999999999,18.5957 7.08409999999998,20.3667 C 6.78890000000001,21.2522 6.49369999999999,23.0232 6.1986,23.6136 C 6.1986,23.9087000000001 5.60820000000001,24.7942 6.1986,25.0894000000001 C 7.08409999999998,25.3846 8.26479999999998,25.6798 8.85509999999999,25.6798 C 9.15030000000002,25.9749 10.331,26.2701000000001 11.2165,26.2701000000001 C 12.102,26.5653 12.102,25.3846 12.102,25.3846 C 12.102,24.4991 12.6923,23.0232 12.9875,21.8426000000001 C 13.2827,20.0715 13.873,18.8909 14.1682,18.0053 C 14.4633,17.415 15.0537,15.9392 15.0537,15.3488 Z Z " stroke="#FFFFFF" stroke-width="0.44275" stroke-linecap="butt" stroke-linejoin="miter" fill="none"/>
        <path d="M 9.44540000000001,19.4812000000001 C 9.15030000000002,19.7764 8.85509999999999,20.0715 8.55990000000003,20.0715 C 8.26479999999998,19.7764 8.26479999999998,19.4812000000001 8.26479999999998,19.186 C 8.26479999999998,18.8909 8.55990000000003,18.5957 8.85509999999999,18.8909 C 9.15030000000002,18.8909 9.44540000000001,19.186 9.44540000000001,19.4812000000001 Z Z " stroke="#FFFFFF" stroke-width="0.44275" stroke-linecap="butt" stroke-linejoin="miter" fill="none"/>
        <path d="M 10.9213,20.0715 C 10.9213,20.3667 10.331,20.6619000000001 10.0358,20.6619000000001 C 9.74060000000003,20.3667 9.74060000000003,20.0715 9.74060000000003,19.7764 C 9.74060000000003,19.4812000000001 10.0358,19.4812000000001 10.331,19.4812000000001 C 10.9213,19.4812000000001 10.9213,19.7764 10.9213,20.0715 Z Z " stroke="#FFFFFF" stroke-width="0.44275" stroke-linecap="butt" stroke-linejoin="miter" fill="none"/>
        <path d="M 12.3971,20.3667 C 12.3971,20.6619000000001 12.102,20.957 11.8068,20.957 C 11.5116,20.6619000000001 11.2165,20.3667 11.2165,20.0715 C 11.5116,19.7764 11.8068,19.4812000000001 12.102,19.7764 C 12.3971,19.7764 12.6923,20.0715 12.3971,20.3667 Z Z " stroke="#FFFFFF" stroke-width="0.44275" stroke-linecap="butt" stroke-linejoin="miter" fill="none"/>
        <path d="M 9.15030000000002,20.957 C 8.85509999999999,21.2522 8.55990000000003,21.2522 8.26479999999998,21.2522 C 7.96960000000001,21.2522 7.67439999999999,20.957 7.96960000000001,20.6619000000001 C 7.96960000000001,20.3667 8.26479999999998,20.0715 8.55990000000003,20.0715 C 8.85509999999999,20.0715 9.15030000000002,20.6619000000001 9.15030000000002,20.957 Z Z " stroke="#FFFFFF" stroke-width="0.44275" stroke-linecap="butt" stroke-linejoin="miter" fill="none"/>
        <path d="M 10.6261,21.5474 C 10.331,21.8426000000001 10.0358,21.8426000000001 9.74060000000003,21.8426000000001 C 9.44540000000001,21.8426000000001 9.15030000000002,21.5474 9.44540000000001,21.2522 C 9.44540000000001,20.957 9.74060000000003,20.6619000000001 10.0358,20.6619000000001 C 10.331,20.957 10.6261,21.2522 10.6261,21.5474 Z Z " stroke="#FFFFFF" stroke-width="0.44275" stroke-linecap="butt" stroke-linejoin="miter" fill="none"/>
        <path d="M 12.102,21.8426000000001 C 12.102,22.1377 11.8068,22.1377 11.5116,22.1377 C 11.2165,22.1377 10.9213,21.8426000000001 10.9213,21.2522 C 11.2165,20.957 11.5116,20.957 11.8068,20.957 C 12.102,20.957 12.102,21.2522 12.102,21.8426000000001 Z Z " stroke="#FFFFFF" stroke-width="0.44275" stroke-linecap="butt" stroke-linejoin="miter" fill="none"/>
        <path d="M 8.55990000000003,22.1377 C 8.55990000000003,22.4329 8.26479999999998,22.7281 7.96960000000001,22.4329 C 7.67439999999999,22.4329 7.3793,22.1377 7.3793,21.8426000000001 C 7.67439999999999,21.5474 7.96960000000001,21.2522 8.26479999999998,21.5474 C 8.55990000000003,21.5474 8.85509999999999,21.8426000000001 8.55990000000003,22.1377 Z Z " stroke="#FFFFFF" stroke-width="0.44275" stroke-linecap="butt" stroke-linejoin="miter" fill="none"/>
        <path d="M 10.0358,22.7281 C 10.0358,23.0232 9.74060000000003,23.3184 9.44540000000001,23.3184 C 9.15030000000002,23.0232 8.85509999999999,22.7281 9.15030000000002,22.4329 C 9.15030000000002,22.1377 9.44540000000001,21.8426000000001 9.74060000000003,22.1377 C 10.0358,22.1377 10.331,22.4329 10.0358,22.7281 Z Z " stroke="#FFFFFF" stroke-width="0.44275" stroke-linecap="butt" stroke-linejoin="miter" fill="none"/>
        <path d="M 11.8068,23.0232 C 11.8068,23.3184 11.2165,23.6136 10.9213,23.3184 C 10.6261,23.3184 10.6261,23.0232 10.6261,22.7281 C 10.6261,22.4329 10.9213,22.1377 11.2165,22.1377 C 11.8068,22.4329 11.8068,22.7281 11.8068,23.0232 Z Z " stroke="#FFFFFF" stroke-width="0.44275" stroke-linecap="butt" stroke-linejoin="miter" fill="none"/>
        <path d="M 8.26479999999998,23.3184 C 8.26479999999998,23.9087000000001 7.96960000000001,23.9087000000001 7.67439999999999,23.9087000000001 C 7.3793,23.9087000000001 7.08409999999998,23.3184 7.08409999999998,23.0232 C 7.3793,22.7281 7.67439999999999,22.7281 7.96960000000001,22.7281 C 8.26479999999998,22.7281 8.26479999999998,23.0232 8.26479999999998,23.3184 Z M 9.74060000000003,24.2039 C 9.74060000000003,24.4991 9.44540000000001,24.4991 9.15030000000002,24.4991 C 8.85509999999999,24.4991 8.55990000000003,24.2039 8.55990000000003,23.9087000000001 C 8.85509999999999,23.3184 9.15030000000002,23.3184 9.44540000000001,23.3184 C 9.74060000000003,23.3184 9.74060000000003,23.9087000000001 9.74060000000003,24.2039 Z Z " stroke="#FFFFFF" stroke-width="0.44275" stroke-linecap="butt" stroke-linejoin="miter" fill="none"/>
        <path d="M 11.5116,24.2039 C 11.2165,24.4991 10.9213,24.7942 10.6261,24.7942 C 10.331,24.4991 10.0358,24.2039 10.331,23.9087000000001 C 10.331,23.6136 10.6261,23.6136 10.9213,23.6136 C 11.2165,23.6136 11.5116,23.9087000000001 11.5116,24.2039 Z Z " stroke="#FFFFFF" stroke-width="0.44275" stroke-linecap="butt" stroke-linejoin="miter" fill="none"/>
        <path d="M 9.15030000000002,25.0894000000001 C 9.15030000000002,25.0894000000001 8.85509999999999,25.0894000000001 8.85509999999999,25.0894000000001 C 8.85509999999999,25.0894000000001 8.85509999999999,24.7942 8.85509999999999,24.7942 C 8.85509999999999,24.7942 8.85509999999999,24.7942 8.85509999999999,24.7942 C 9.15030000000002,24.7942 9.15030000000002,24.7942 9.15030000000002,25.0894000000001 Z M 8.85509999999999,24.7942 C 8.55990000000003,25.6798 8.55990000000003,25.6798 8.55990000000003,25.6798 M 8.85509999999999,25.0894000000001 C 8.55990000000003,25.6798 8.55990000000003,25.6798 8.55990000000003,25.6798 M 9.15030000000002,25.0894000000001 C 8.85509999999999,25.6798 8.85509999999999,25.6798 8.85509999999999,25.6798 M 8.85509999999999,25.0894000000001 C 8.85509999999999,25.6798 8.85509999999999,25.6798 8.85509999999999,25.6798 M 10.331,15.0536 C 10.0358,15.644 10.0358,15.644 10.0358,15.644 M 10.331,15.0536 C 10.0358,15.644 10.0358,15.644 10.0358,15.644 M 12.9875,15.9392 C 12.6923,16.2343 12.6923,16.2343 12.6923,16.2343 M 12.9875,15.9392 C 12.6923,16.2343 12.6923,16.2343 12.6923,16.2343 Z " stroke="#FFFFFF" stroke-width="0.44275" stroke-linecap="butt" stroke-linejoin="miter" fill="none"/>
        <path d="M 15.644,9.74059999999997 C 15.644,9.74059999999997 15.644,9.15030000000002 15.9392,8.55989999999997 C 15.9392,7.67439999999999 15.9392,7.08410000000003 15.9392,7.08410000000003 C 15.9392,7.08410000000003 15.9392,7.08410000000003 15.9392,7.08410000000003 C 15.3488,6.78890000000001 15.3488,6.78890000000001 15.3488,6.78890000000001 C 15.3488,6.78890000000001 15.0537,6.78890000000001 15.0537,7.08410000000003 C 15.0537,7.08410000000003 14.7585,7.37919999999997 14.4633,8.26470000000006 C 14.4633,8.85509999999999 14.1682,9.15030000000002 14.1682,9.15030000000002 M 14.1682,15.9392 C 14.1682,16.2343 13.873,16.2343 13.873,16.2343 C 9.15030000000002,15.0536 9.15030000000002,15.0536 9.15030000000002,15.0536 C 9.15030000000002,14.7585 9.15030000000002,14.7585 9.15030000000002,14.7585 C 10.0358,11.8068000000001 10.0358,11.8068000000001 10.0358,11.8068000000001 C 10.0358,11.5116 10.0358,11.5116 10.0358,11.5116 C 14.7585,12.9875000000001 14.7585,12.9875000000001 14.7585,12.9875000000001 C 14.7585,12.9875000000001 15.0537,12.9875000000001 14.7585,12.9875000000001 Z M 15.644,9.44540000000006 C 15.3488,9.44540000000006 14.7585,9.15030000000002 14.4633,9.15030000000002 M 10.9213,8.55989999999997 C 10.9213,8.55989999999997 9.74060000000003,10.6261000000001 9.15030000000002,12.9875000000001 C 8.55990000000003,15.644 8.26479999999998,16.5295 8.55990000000003,17.7102 C 8.55990000000003,18.0053 8.85509999999999,18.3005000000001 9.15030000000002,18.3005000000001 C 9.15030000000002,18.5957 9.44540000000001,18.5957 9.44540000000001,18.5957 C 9.44540000000001,18.5957 9.74060000000003,18.5957 9.74060000000003,18.5957 C 10.0358,18.8909 10.0358,18.8909 10.0358,18.8909 C 10.331,18.8909 10.331,19.186 10.6261,19.186 C 10.9213,19.186 10.9213,19.186 10.9213,19.186 C 11.2165,19.186 11.2165,19.186 11.5116,19.186 C 11.5116,19.186 11.8068,19.186 11.8068,19.186 C 11.8068,19.186 12.102,19.186 12.102,19.186 C 12.3971,19.4812000000001 12.6923,19.186 12.9875,18.8909 C 13.5778,18.0053 14.1682,17.1198000000001 14.7585,14.4633 C 15.3488,12.102 15.644,9.74059999999997 15.644,9.74059999999997 M 10.331,9.74059999999997 C 11.2165,9.74059999999997 12.102,10.0358 12.9875,10.0358 C 13.873,10.3309 14.7585,10.6261000000001 15.644,10.9213 Z " stroke="#FFFFFF" stroke-width="0.44275" stroke-linecap="butt" stroke-linejoin="miter" fill="none"/>
        <path d="M 12.3971,17.7102 C 12.102,18.5957 11.2165,18.8909 10.6261,18.5957 C 10.0358,18.5957 9.44540000000001,17.7102 9.74060000000003,17.1198000000001 C 10.0358,16.5295 10.6261,15.9392 11.2165,16.2343 C 12.102,16.2343 12.3971,17.1198000000001 12.3971,17.7102 Z M 9.74060000000003,15.644 C 10.0358,15.644 10.0358,15.644 10.331,15.9392 C 10.331,15.9392 10.331,15.9392 10.331,15.9392 C 10.331,15.9392 10.0358,15.9392 10.0358,16.2343 C 10.0358,16.2343 10.0358,16.2343 9.74060000000003,16.2343 C 9.74060000000003,15.9392 9.15030000000002,15.644 9.15030000000002,15.644 C 9.15030000000002,15.644 9.15030000000002,15.644 9.15030000000002,15.644 C 9.44540000000001,15.644 9.74060000000003,15.644 9.74060000000003,15.644 Z M 8.85509999999999,17.1198000000001 C 9.15030000000002,17.1198000000001 9.15030000000002,17.1198000000001 9.44540000000001,17.1198000000001 C 9.44540000000001,17.415 9.44540000000001,17.415 9.44540000000001,17.415 C 9.44540000000001,17.7102 9.44540000000001,18.0053 9.44540000000001,18.0053 C 9.74060000000003,18.3005000000001 9.74060000000003,18.3005000000001 9.44540000000001,18.3005000000001 C 9.44540000000001,18.3005000000001 9.15030000000002,18.3005000000001 9.15030000000002,18.0053 C 8.85509999999999,18.0053 8.85509999999999,18.0053 8.85509999999999,18.0053 C 8.85509999999999,17.7102 8.85509999999999,17.415 8.85509999999999,17.1198000000001 C 8.85509999999999,17.1198000000001 8.85509999999999,17.1198000000001 8.85509999999999,17.1198000000001 Z Z " stroke="#FFFFFF" stroke-width="0.44275" stroke-linecap="butt" stroke-linejoin="miter" fill="none"/>
        <path d="M 12.9875,16.5295 C 12.6923,16.5295 12.6923,16.5295 12.3971,16.5295 C 12.3971,16.5295 12.3971,16.5295 12.3971,16.5295 C 12.3971,16.5295 12.3971,16.8247 12.3971,16.8247 C 12.6923,16.8247 12.6923,16.8247 12.6923,16.8247 C 12.9875,16.8247 13.2827,16.8247 13.5778,16.8247 C 13.5778,16.8247 13.5778,16.8247 13.5778,16.8247 C 13.2827,16.5295 12.9875,16.5295 12.9875,16.5295 Z M 12.9875,18.3005000000001 C 12.9875,18.0053 12.6923,18.0053 12.6923,18.0053 C 12.3971,18.0053 12.3971,18.3005000000001 12.3971,18.3005000000001 C 12.102,18.3005000000001 12.102,18.5957 11.8068,18.8909 C 11.8068,18.8909 11.8068,18.8909 11.8068,18.8909 C 12.102,18.8909 12.102,18.8909 12.3971,18.8909 C 12.3971,18.8909 12.3971,18.8909 12.6923,18.8909 C 12.6923,18.8909 12.9875,18.5957 12.9875,18.3005000000001 C 12.9875,18.3005000000001 12.9875,18.3005000000001 12.9875,18.3005000000001 Z Z " stroke="#FFFFFF" stroke-width="0.44275" stroke-linecap="butt" stroke-linejoin="miter" fill="none"/>
        <path d="M 12.6923,10.6261000000001 L 13.2827,8.85509999999999 " stroke="#FFFFFF" stroke-width="0.44275" stroke-linecap="butt" stroke-linejoin="miter" fill="none"/>
        <path d="M 12.9875,10.6261000000001 L 13.2827,9.15030000000002 " stroke="#FFFFFF" stroke-width="0.44275" stroke-linecap="butt" stroke-linejoin="miter" fill="none"/>
      </g>
      <!--emf-blob end-->
    </g>
  </g>
</svg>

