<svg xmlns="http://www.w3.org/2000/svg" xmlns:xlink="http://www.w3.org/1999/xlink" version="1.1" viewBox="0 0 165 99" >
  <title><![CDATA[Mobile access router]]></title>
  <g transform=" scale(3.000000) ">
    <!--converted by libvisio2svg-->
    <g>
      <!--emf-blob start-->
      <g>
        <path d="M 45.4551,32.4679 L 12.9872,32.4679 L 22.1372,26.8598 L 54.9003,26.8598 L 45.4551,32.4679 Z " fill="#FFFFFF" stroke="#0D6E9C" stroke-width="1.32825" stroke-linecap="round" stroke-linejoin="round"/>
        <path d="M 22.1372,26.8598 L 12.9872,32.4679 L 12.9872,5.31290000000001 L 22.1372,0 L 22.1372,26.8598 Z " fill="none" stroke="#0D6E9C" stroke-width="1.32825" stroke-linecap="round" stroke-linejoin="round"/>
        <path d="M 0,19.7759 L 15.3485,19.7759 Z " fill="#FFFFFF" stroke-width="1px" stroke="#FFFFFF"/>
        <path d="M 0,19.7759 L 15.3485,19.7759 " stroke="#0D6E9C" stroke-width="1.32825" stroke-linecap="round" stroke-linejoin="miter" fill="none"/>
        <path d="M 15.3485,16.8243 L 1.1807,16.8243 Z " fill="#FFFFFF" stroke-width="1px" stroke="#FFFFFF"/>
        <path d="M 15.3485,16.8243 L 1.1807,16.8243 " stroke="#0D6E9C" stroke-width="1.32825" stroke-linecap="round" stroke-linejoin="miter" fill="none"/>
        <path d="M 17.7098,22.7275 L 4.13230000000004,22.7275 Z " fill="#FFFFFF" stroke-width="1px" stroke="#FFFFFF"/>
        <path d="M 17.7098,22.7275 L 4.13230000000004,22.7275 " stroke="#0D6E9C" stroke-width="1.32825" stroke-linecap="round" stroke-linejoin="miter" fill="none"/>
        <path d="M 16.234,14.463 L 6.19839999999999,14.463 Z " fill="#FFFFFF" stroke-width="1px" stroke="#FFFFFF"/>
        <path d="M 16.234,14.463 L 6.19839999999999,14.463 " stroke="#0D6E9C" stroke-width="1.32825" stroke-linecap="round" stroke-linejoin="miter" fill="none"/>
        <path d="M 49.8826,12.3968 C 49.8826,15.9388 42.5035,18.8904 33.3534,18.8904 C 23.9082,18.8904 16.5292,15.9388 16.5292,12.3968 C 16.5292,22.1372 16.5292,22.1372 16.5292,22.1372 C 16.5292,25.6791 23.9082,28.6308 33.3534,28.6308 C 42.5035,28.6308 49.8826,25.6791 49.8826,22.1372 Z Z " fill="#0D6E9C" stroke="#FFFFFF" stroke-width="0.44275" stroke-linecap="butt" stroke-linejoin="miter"/>
        <path d="M 33.3534,18.8904 C 42.5035,18.8904 49.8826,15.9388 49.8826,12.3968 C 49.8826,8.85489999999999 42.5035,5.90320000000003 33.3534,5.90320000000003 C 23.9082,5.90320000000003 16.5292,8.85489999999999 16.5292,12.3968 C 16.5292,15.9388 23.9082,18.8904 33.3534,18.8904 Z Z " fill="#0D6E9C" stroke="#FFFFFF" stroke-width="0.44275" stroke-linecap="butt" stroke-linejoin="miter"/>
        <path d="M 29.5163,10.0355 L 30.697,12.1016 L 25.6792,13.2823 L 26.8599,12.3968 L 18.5953,10.921 L 20.6614,9.4452 L 28.6308,10.6258 L 29.5163,10.0355 Z " fill="#FFFFFF" stroke-width="1px" stroke="#FFFFFF"/>
        <path d="M 36.8954,15.0533 L 35.7147,12.692 L 40.4374,11.8065 L 39.847,12.692 L 47.5213,13.8726 L 45.7503,15.3484 L 37.7809,13.8726 L 36.8954,15.0533 Z " fill="#FFFFFF" stroke-width="1px" stroke="#FFFFFF"/>
        <path d="M 34.2389,8.85489999999999 L 39.5519,7.37900000000002 L 39.5519,9.74029999999999 L 38.3712,9.4452 L 35.7147,11.5113 L 33.0583,11.2162 L 35.7147,9.14999999999998 L 34.2389,8.85489999999999 Z " fill="#FFFFFF" stroke-width="1px" stroke="#FFFFFF"/>
        <path d="M 31.8776,16.8243 L 26.8599,17.7097 L 26.8599,15.6436 L 28.0405,15.9388 L 30.9921,13.5775 L 33.3534,13.8726 L 30.4018,16.5291 L 31.8776,16.8243 Z " fill="#FFFFFF" stroke-width="1px" stroke="#FFFFFF"/>
        <path d="M 54.9003,26.8598 L 45.4551,32.4679 L 45.4551,5.31290000000001 L 54.9003,0 L 54.9003,26.8598 Z " fill="none" stroke="#0D6E9C" stroke-width="1.32825" stroke-linecap="round" stroke-linejoin="round"/>
        <path d="M 45.4551,5.31290000000001 L 12.9872,5.31290000000001 L 22.1372,0 L 54.9003,0 L 45.4551,5.31290000000001 Z " fill="none" stroke="#0D6E9C" stroke-width="1.32825" stroke-linecap="round" stroke-linejoin="round"/>
        <g transform=" scale(3.000000) ">
          <text font-family="Helvetica" fill="#FFFFFF" style="white-space:pre;" font-weight="700" text-anchor="start" x="0.0000" y="0.0000" font-size="7.0839"><![CDATA[8]]></text>
        </g>
        <g transform=" scale(3.000000) ">
</g>
        <g transform=" scale(3.000000) ">
          <text font-family="Helvetica" fill="#FFFFFF" style="white-space:pre;" font-weight="700" text-anchor="start" x="0.0000" y="0.0000" font-size="7.0839"><![CDATA[0]]></text>
        </g>
        <g transform=" scale(3.000000) ">
</g>
        <g transform=" scale(3.000000) ">
          <text font-family="Helvetica" fill="#FFFFFF" style="white-space:pre;" font-weight="700" text-anchor="start" x="0.0000" y="0.0000" font-size="7.0839"><![CDATA[2.]]></text>
        </g>
        <g transform=" scale(3.000000) ">
</g>
        <g transform=" scale(3.000000) ">
          <text font-family="Helvetica" fill="#FFFFFF" style="white-space:pre;" font-weight="700" text-anchor="start" x="0.0000" y="0.0000" font-size="7.0839"><![CDATA[1]]></text>
        </g>
        <g transform=" scale(3.000000) ">
</g>
        <g transform=" scale(3.000000) ">
          <text font-family="Helvetica" fill="#FFFFFF" style="white-space:pre;" font-weight="700" text-anchor="start" x="0.0000" y="0.0000" font-size="7.0839"><![CDATA[1]]></text>
        </g>
        <g transform=" scale(3.000000) ">
          <path d="M 45.4551,32.4679 L 12.9872,32.4679 L 12.9872,5.31290000000001 L 45.4551,5.31290000000001 L 45.4551,32.4679 Z " fill="none" stroke="#FFFFFF" stroke-width="2.65645" stroke-linecap="round" stroke-linejoin="round"/>
          <path d="M 45.4551,32.4679 L 12.9872,32.4679 L 12.9872,5.31290000000001 L 45.4551,5.31290000000001 L 45.4551,32.4679 Z " fill="none" stroke="#0D6E9C" stroke-width="1.32825" stroke-linecap="round" stroke-linejoin="round"/>
        </g>
      </g>
      <!--emf-blob end-->
    </g>
  </g>
</svg>

