<svg xmlns="http://www.w3.org/2000/svg" xmlns:xlink="http://www.w3.org/1999/xlink" version="1.1" viewBox="0 0 150 135" >
  <title><![CDATA[Mobile access IP phone]]></title>
  <g transform=" scale(3.000000) ">
    <!--converted by libvisio2svg-->
    <g>
      <!--emf-blob start-->
      <g>
        <path d="M 0,25.3901 L 15.3522,25.3901 " stroke="#0C719F" stroke-width="1.32855" stroke-linecap="round" stroke-linejoin="round" fill="none"/>
        <path d="M 4.72380000000004,29.8186 L 15.0569,29.8186 " stroke="#0C719F" stroke-width="1.32855" stroke-linecap="round" stroke-linejoin="round" fill="none"/>
        <path d="M 15.3522,19.1902 L 6.79040000000003,19.1902 " stroke="#0C719F" stroke-width="1.32855" stroke-linecap="round" stroke-linejoin="round" fill="none"/>
        <path d="M 2.95240000000001,23.0282 L 15.0569,23.0282 " stroke="#0C719F" stroke-width="1.32855" stroke-linecap="round" stroke-linejoin="round" fill="none"/>
        <path d="M 39.5614,44.5803 L 16.5331,44.5803 L 26.5711,38.3804 L 49.8946,38.3804 L 39.5614,44.5803 Z " fill="none" stroke="#0C719F" stroke-width="1.32855" stroke-linecap="round" stroke-linejoin="round"/>
        <path d="M 26.5711,38.3804 L 16.5331,44.5803 L 16.5331,5.90469999999999 L 26.5711,0.295200000000023 L 26.5711,38.3804 Z " fill="none" stroke="#0C719F" stroke-width="1.32855" stroke-linecap="round" stroke-linejoin="round"/>
        <path d="M 39.2661000000001,5.90469999999999 L 16.5331,5.90469999999999 L 26.5711,0.295200000000023 L 49.8946,0 L 39.2661000000001,5.90469999999999 Z " fill="none" stroke="#0C719F" stroke-width="1.32855" stroke-linecap="round" stroke-linejoin="round"/>
        <path d="M 39.5614,44.5803 L 16.5331,44.5803 L 16.5331,5.90469999999999 L 39.2661000000001,5.90469999999999 L 39.5614,44.5803 Z " fill="none" stroke="#0C719F" stroke-width="1.32855" stroke-linecap="round" stroke-linejoin="round"/>
        <path d="M 49.8946,38.3804 L 39.5614,44.5803 L 39.2661000000001,5.90469999999999 L 49.8946,0 L 49.8946,38.3804 Z " fill="none" stroke="#000000" stroke-width="1.7714" stroke-linecap="round" stroke-linejoin="round"/>
        <path d="M 49.8946,38.3804 L 39.5614,44.5803 L 39.2661000000001,5.90469999999999 L 49.8946,0 L 49.8946,38.3804 Z " fill="none" stroke="#0C719F" stroke-width="1.32855" stroke-linecap="round" stroke-linejoin="round"/>
        <path d="M 49.8946,38.3804 L 39.5614,44.5803 L 39.2661000000001,5.90469999999999 L 49.8946,0 L 49.8946,38.3804 Z " fill="none" stroke="#0C719F" stroke-width="1.32855" stroke-linecap="round" stroke-linejoin="round"/>
        <path d="M 37.1995,7.97129999999999 C 37.1995,7.97129999999999 36.609,7.97129999999999 36.3138,7.97129999999999 C 36.0186,7.67610000000002 35.4281,7.67610000000002 35.4281,7.67610000000002 Z " stroke="#FFFFFF" stroke-width="0.44285" stroke-linecap="butt" stroke-linejoin="round" fill="none"/>
        <path d="M 36.9043,22.733 C 37.4947,21.5521 38.6757,15.9426 38.6757,15.0569 C 38.6757,14.1712 38.3804,13.2855 38.0852,12.9903 C 38.0852,12.695 38.0852,12.695 38.0852,12.695 C 38.0852,12.3998 37.79,12.3998 37.79,12.3998 C 37.79,12.3998 37.79,12.3998 37.79,12.3998 C 37.79,12.3998 38.0852,11.2189 38.3804,10.3332 C 38.6757,8.56180000000001 38.6757,7.97129999999999 38.6757,7.97129999999999 C 38.6757,7.67610000000002 38.6757,7.67610000000002 38.3804,7.67610000000002 C 37.4947,7.38080000000002 37.4947,7.38080000000002 37.4947,7.38080000000002 C 37.1995,7.0856 37.1995,7.38080000000002 36.9043,7.67610000000002 C 36.9043,7.67610000000002 36.609,8.26650000000001 36.0186,10.0379 C 35.7233000000001,10.9236 35.4281,11.5141 35.4281,11.5141 C 35.4281,11.5141 35.4281,11.5141 35.4281,11.5141 C 34.8376,11.5141 34.2472,11.2189 33.6567,10.9236 C 32.1805000000001,10.6284 30.4091,10.3332 28.9329,10.0379 C 28.9329,10.0379 28.9329,10.0379 28.6377000000001,10.3332 C 28.6377000000001,10.3332 28.6377000000001,10.3332 28.6377000000001,10.3332 C 28.3425,10.3332 27.4568,11.2189 27.1615,11.8093 C 26.8663,12.3998 25.0949000000001,18.3045 24.7997,19.1902 C 24.2092,20.3711 23.6187,23.3235 23.3235,24.7996 C 23.3235,26.2758 23.0283,28.9329 22.1426,32.1805 C 21.5521,34.2471 20.6664,37.1995 20.0759,38.3804 C 20.0759,38.6756 18.895,40.447 20.3712,41.0375 C 21.8473,41.628 23.914,42.2184 24.7997,42.5137 C 25.9806,42.8089 28.0472,43.3994 29.5234,43.3994 C 30.9996,43.6946 30.9996,41.9232 30.9996,41.628 C 31.2948,40.1518 32.1805000000001,37.1995 32.771,35.1328 C 33.6567,31.8853 34.8376,29.5234 35.1329,28.0472 C 35.7233000000001,26.571 36.609,23.9139 36.9043,22.733 Z Z " fill="#0C719F" stroke="none"/>
        <path d="M 35.4281,23.0282 C 35.7233000000001,21.8473 37.1995,15.9426 37.1995,15.0569 C 37.1995,14.4665 36.9043,13.2855 36.609,13.2855 C 36.609,12.9903 36.609,12.695 36.609,12.695 C 36.3138,12.695 36.3138,12.695 36.3138,12.695 C 36.3138,12.695 36.3138,12.695 36.3138,12.695 C 36.3138,12.695 36.609,11.2189 36.609,10.3332 C 37.1995,8.85700000000003 37.1995,8.26650000000001 37.1995,8.26650000000001 C 37.1995,7.97129999999999 37.1995,7.67610000000002 36.9043,7.67610000000002 C 36.0186,7.38080000000002 36.0186,7.38080000000002 36.0186,7.38080000000002 C 35.7233000000001,7.38080000000002 35.4281,7.38080000000002 35.4281,7.67610000000002 C 35.4281,7.67610000000002 35.1329,8.56180000000001 34.5424,10.0379 C 34.2472,10.9236 33.9519,11.8093 33.9519,11.8093 C 33.9519,11.8093 33.9519,11.8093 33.9519,11.8093 C 33.3615,11.5141 32.771,11.2189 32.1805000000001,11.2189 C 30.4091,10.6284 28.9329,10.3332 27.4568,10.3332 C 27.4568,10.3332 27.4568,10.3332 27.1615,10.6284 C 27.1615,10.6284 27.1615,10.6284 27.1615,10.6284 C 26.8663,10.6284 25.9806,11.2189 25.6854,12.1046 C 25.0949000000001,12.695 23.3235,18.3045 23.0283,19.4854 C 22.733,20.6664 22.1426,23.6187 21.8473,25.0949 C 21.5521,26.571 21.2569,28.9329 20.3712,32.4757 C 19.7807,34.5424 18.895,37.4947 18.5998,38.6756 C 18.3045,38.9709 17.4188,40.447 18.895,41.0375 C 20.3712,41.628 22.4378,42.2184 23.3235,42.5137 C 24.5044,42.8089 26.5711,43.3994 28.0472,43.6946 C 29.5234,43.9898 29.5234,41.9232 29.5234,41.628 C 29.8186,40.447 30.7043,37.1995 30.9996,35.4281 C 32.1805000000001,31.8853 33.0662,29.5234 33.6567,28.3424 C 34.2472,26.8663 35.1329,23.9139 35.4281,23.0282 Z Z " fill="#0C719F" stroke="#FFFFFF" stroke-width="0.44285" stroke-linecap="butt" stroke-linejoin="miter"/>
        <path d="M 28.3425,43.6946 C 29.8186,43.9898 29.8186,41.9232 29.8186,41.628 C 30.1139,40.447 30.7043,37.1995 31.2948,35.4281 C 32.1805000000001,31.8853 33.3615,29.5234 33.9519,28.3424 C 34.2472,26.8663 35.4281,23.9139 35.7233000000001,23.0282 C 36.0186,21.8473 37.1995,15.9426 37.4947,15.0569 C 37.4947,14.4665 37.1995,13.2855 36.609,13.2855 C 36.609,12.9903 36.609,12.695 36.609,12.695 C 36.609,12.695 36.609,12.695 36.3138,12.695 C 36.609,12.695 36.609,12.695 36.609,12.695 C 36.609,12.695 36.9043,11.2189 36.9043,10.3332 C 37.1995,8.85700000000003 37.4947,8.26650000000001 37.4947,8.26650000000001 C 37.4947,7.97129999999999 37.1995,7.67610000000002 37.1995,7.67610000000002 C 36.0186,7.38080000000002 36.0186,7.38080000000002 36.0186,7.38080000000002 Z " stroke="#FFFFFF" stroke-width="0.44285" stroke-linecap="butt" stroke-linejoin="round" fill="none"/>
        <path d="M 23.914,41.0375 C 23.914,41.0375 23.914,41.0375 23.914,41.0375 C 23.6187,41.0375 23.6187,41.0375 23.6187,41.0375 C 23.6187,41.0375 23.6187,41.0375 23.914,41.0375 C 23.914,41.0375 23.914,41.0375 23.914,41.0375 Z M 23.6187,41.0375 C 23.3235,42.2184 23.3235,42.2184 23.3235,42.2184 M 23.6187,41.0375 C 23.3235,42.2184 23.3235,42.2184 23.3235,42.2184 M 23.914,41.0375 C 23.6187,42.2184 23.6187,42.2184 23.6187,42.2184 M 23.914,41.0375 C 23.6187,42.2184 23.6187,42.2184 23.6187,42.2184 M 26.2758,22.733 C 25.9806,23.6187 25.9806,23.6187 25.9806,23.6187 M 26.2758,22.733 C 25.9806,23.6187 25.9806,23.6187 25.9806,23.6187 M 31.2948,24.2092 C 30.9996,25.0949 30.9996,25.0949 30.9996,25.0949 M 30.9996,24.2092 C 30.9996,25.0949 30.9996,25.0949 30.9996,25.0949 Z " fill="#000000" stroke="none"/>
        <path d="M 23.914,41.0375 C 23.914,41.0375 23.914,41.0375 23.914,41.0375 C 23.6187,41.0375 23.6187,41.0375 23.6187,41.0375 C 23.6187,41.0375 23.6187,41.0375 23.914,41.0375 C 23.914,41.0375 23.914,41.0375 23.914,41.0375 Z M 23.6187,41.0375 C 23.3235,42.2184 23.3235,42.2184 23.3235,42.2184 M 23.6187,41.0375 C 23.3235,42.2184 23.3235,42.2184 23.3235,42.2184 M 23.914,41.0375 C 23.6187,42.2184 23.6187,42.2184 23.6187,42.2184 M 23.914,41.0375 C 23.6187,42.2184 23.6187,42.2184 23.6187,42.2184 M 26.2758,22.733 C 25.9806,23.6187 25.9806,23.6187 25.9806,23.6187 M 26.2758,22.733 C 25.9806,23.6187 25.9806,23.6187 25.9806,23.6187 M 31.2948,24.2092 C 30.9996,25.0949 30.9996,25.0949 30.9996,25.0949 M 30.9996,24.2092 C 30.9996,25.0949 30.9996,25.0949 30.9996,25.0949 Z " stroke="#FFFFFF" stroke-width="0.44285" stroke-linecap="butt" stroke-linejoin="round" fill="none"/>
        <path d="M 36.3138,12.695 C 36.3138,12.695 36.609,11.2189 36.609,10.3332 C 37.1995,8.85700000000003 37.1995,8.26650000000001 37.1995,8.26650000000001 C 37.1995,7.97129999999999 37.1995,7.67610000000002 36.9043,7.67610000000002 C 36.0186,7.38080000000002 36.0186,7.38080000000002 36.0186,7.38080000000002 C 35.7233000000001,7.38080000000002 35.4281,7.38080000000002 35.4281,7.67610000000002 C 35.4281,7.67610000000002 35.1329,8.56180000000001 34.5424,10.0379 C 34.2472,10.9236 33.9519,11.8093 33.9519,11.8093 M 36.3138,12.1046 C 35.7233000000001,11.8093 34.8376,11.5141 33.9519,11.2189 M 27.4568,10.3332 C 27.4568,10.3332 25.6854,14.4665 24.5044,18.5997 C 23.0283,23.6187 22.733,25.3901 23.0283,27.752 C 23.0283,28.0472 23.6187,28.6377 24.2092,28.9329 C 24.2092,28.9329 24.5044,28.9329 24.5044,28.9329 C 24.7997,28.9329 25.0949000000001,29.2281 25.3901,29.5234 C 25.6854,29.5234 25.9806,29.8186 25.9806,29.8186 C 26.2758,29.8186 26.2758,30.1139 26.8663,30.1139 C 27.4568,30.4091 27.4568,30.1139 27.752,30.1139 C 27.752,30.4091 28.0472,30.1139 28.3425,30.1139 C 28.9329,30.1139 29.2282,30.4091 29.2282,30.4091 C 29.5234,30.4091 29.5234,30.4091 29.8186,30.4091 C 30.4091,30.7043 30.9996,30.4091 31.2948,29.8186 C 32.771,28.0472 33.3615,26.571 34.8376,21.5521 C 36.0186,17.1236 36.3138,12.695 36.3138,12.695 M 26.2758,12.3998 C 28.0472,12.695 29.8186,12.9903 31.59,13.2855 C 33.0662,13.876 34.8376,14.4665 36.3138,15.0569 Z " fill="#0C719F" stroke="none"/>
        <path d="M 30.1139,26.8663 C 29.8186,28.3424 28.6377000000001,28.9329 27.1615,28.6377 C 25.9806,28.3424 25.0949000000001,26.8663 25.3901,25.6853 C 25.9806,24.5044 27.1615,23.6187 28.6377000000001,23.9139 C 29.8186,24.2092 30.7043,25.6853 30.1139,26.8663 Z Z " fill="#0C719F" stroke="#FFFFFF" stroke-width="0.44285" stroke-linecap="butt" stroke-linejoin="miter"/>
        <path d="M 30.9996,14.1712 L 31.8853,11.2189 Z " fill="#000000" stroke-width="1px" stroke="#000000"/>
        <path d="M 30.9996,14.1712 L 31.8853,11.2189 " stroke="#FFFFFF" stroke-width="0.44285" stroke-linecap="butt" stroke-linejoin="round" fill="none"/>
        <path d="M 31.2948,14.1712 L 32.1805000000001,11.2189 Z " fill="#000000" stroke-width="1px" stroke="#000000"/>
        <path d="M 31.2948,14.1712 L 32.1805000000001,11.2189 " stroke="#FFFFFF" stroke-width="0.44285" stroke-linecap="butt" stroke-linejoin="round" fill="none"/>
        <path d="M 33.6567,23.3235 C 33.6567,23.6187 33.6567,23.6187 33.3615,23.6187 C 24.7997,21.2568 24.7997,21.2568 24.7997,21.2568 C 24.5044,21.2568 24.5044,20.9616 24.5044,20.6664 C 25.9806,15.3522 25.9806,15.3522 25.9806,15.3522 C 25.9806,15.0569 26.2758,15.0569 26.5711,15.0569 C 35.1329,17.4188 35.1329,17.4188 35.1329,17.4188 C 35.1329,17.4188 35.4281,17.714 35.4281,18.0093 Z Z " fill="#000000" stroke="#FFFFFF" stroke-width="0.44285" stroke-linecap="butt" stroke-linejoin="round"/>
        <path d="M 24.2092,30.9996 C 23.914,31.2948 23.6187,31.59 23.0283,31.59 C 22.4378,31.2948 22.1426,30.9996 22.4378,30.4091 C 22.4378,29.8186 23.0283,29.5234 23.6187,29.8186 C 23.914,29.8186 24.2092,30.4091 24.2092,30.9996 Z Z " fill="#FFFFFF" stroke="none"/>
        <path d="M 22.4378,36.609 C 22.4378,37.1995 21.8473,37.4947 21.2569,37.1995 C 20.9616,37.1995 20.6664,36.609 20.6664,36.0185 C 20.6664,35.7233 21.2569,35.4281 21.8473,35.4281 C 22.4378,35.7233 22.733,36.0185 22.4378,36.609 Z Z " fill="#FFFFFF" stroke="none"/>
        <path d="M 30.4091,32.771 C 30.4091,33.0662 29.8186,33.3614 29.2282,33.3614 C 28.6377000000001,33.0662 28.3425,32.771 28.6377000000001,32.1805 C 28.6377000000001,31.59 29.2282,31.2948 29.8186,31.59 C 30.4091,31.59 30.7043,32.1805 30.4091,32.771 Z Z " fill="#FFFFFF" stroke="none"/>
        <path d="M 28.6377000000001,38.3804 C 28.6377000000001,38.9709 28.0472,39.2661 27.4568,38.9709 C 27.1615,38.9709 26.8663,38.3804 26.8663,38.0852 C 27.1615,37.4947 27.4568,37.1995 28.0472,37.1995 C 28.6377000000001,37.4947 28.9329,38.0852 28.6377000000001,38.3804 Z Z " fill="#FFFFFF" stroke="none"/>
        <path d="M 27.1615,32.4757 C 26.8663,33.0662 26.5711,33.3614 25.9806,33.0662 C 25.3901,33.0662 25.0949000000001,32.4757 25.3901,31.8853 C 25.3901,31.59 25.9806,31.2948 26.5711,31.2948 C 26.8663,31.59 27.1615,31.8853 27.1615,32.4757 Z Z " fill="#FFFFFF" stroke="none"/>
        <path d="M 23.3235,33.6567 C 23.3235,34.2471 22.733,34.5424 22.1426,34.5424 C 21.5521,34.2471 21.2569,33.6567 21.5521,33.3614 C 21.5521,32.771 22.1426,32.4757 22.733,32.771 C 23.3235,32.771 23.6187,33.3614 23.3235,33.6567 Z Z " fill="#FFFFFF" stroke="none"/>
        <path d="M 29.5234,35.7233 C 29.5234,36.0185 28.9329,36.3138 28.3425,36.3138 C 28.0472,36.0185 27.752,35.7233 27.752,35.1328 C 28.0472,34.5424 28.3425,34.2471 28.9329,34.5424 C 29.5234,34.5424 29.8186,35.1328 29.5234,35.7233 Z Z " fill="#FFFFFF" stroke="none"/>
        <path d="M 26.2758,35.4281 C 26.2758,36.0185 25.6854,36.0185 25.0949000000001,36.0185 C 24.5044,36.0185 24.2092,35.4281 24.5044,34.8376 C 24.5044,34.2471 25.0949000000001,33.9519 25.6854,34.2471 C 26.2758,34.2471 26.5711,34.8376 26.2758,35.4281 Z Z " fill="#FFFFFF" stroke="none"/>
        <path d="M 25.3901,38.3804 C 25.3901,38.6756 24.7997,38.9709 24.2092,38.9709 C 23.914,38.6756 23.6187,38.3804 23.6187,37.7899 C 23.6187,37.1995 24.2092,36.9042 24.7997,37.1995 C 25.3901,37.1995 25.6854,37.7899 25.3901,38.3804 Z Z " fill="#FFFFFF" stroke="none"/>
      </g>
      <!--emf-blob end-->
    </g>
  </g>
</svg>

