<svg xmlns="http://www.w3.org/2000/svg" xmlns:xlink="http://www.w3.org/1999/xlink" version="1.1" viewBox="0 0 129 48" >
  <title><![CDATA[Modem]]></title>
  <g transform=" scale(3.000000) ">
    <!--converted by libvisio2svg-->
    <g>
      <!--emf-blob start-->
      <g>
        <path d="M 0,15.3518 L 0,6.495 L 35.1321,6.495 L 35.1321,15.3518 L 0,15.3518 Z " fill="#0F73A0" stroke="#FFFFFF" stroke-width="0.8857" stroke-linecap="butt" stroke-linejoin="miter"/>
        <path d="M 35.1321,15.3518 L 35.1321,6.495 L 0,6.495 L 8.85680000000002,0 L 40.1509,0 L 42.5127000000001,0 L 42.5127000000001,7.38069999999999 L 35.1321,15.3518 Z " fill="#0F73A0" stroke="#FFFFFF" stroke-width="0.8857" stroke-linecap="butt" stroke-linejoin="miter"/>
        <path d="M 35.7225,6.495 L 41.9223,0 Z " fill="#0F73A0" stroke-width="1px" stroke="#0F73A0"/>
        <path d="M 35.7225,6.495 L 41.9223,0 " stroke="#FFFFFF" stroke-width="0.8857" stroke-linecap="butt" stroke-linejoin="miter" fill="none"/>
        <path d="M 6.19980000000004,12.3995 C 6.79020000000003,12.3995 7.38070000000005,11.8091 7.38070000000005,11.2186 C 7.38070000000005,10.6282 6.79020000000003,10.0377 6.19980000000004,10.0377 C 5.60930000000002,10.0377 5.01890000000003,10.6282 5.01890000000003,11.2186 C 5.01890000000003,11.8091 5.60930000000002,12.3995 6.19980000000004,12.3995 Z Z " fill="#FFFFFF" stroke="none"/>
        <path d="M 11.8091,12.3995 C 12.3996,12.3995 12.99,11.8091 12.99,11.2186 C 12.99,10.6282 12.3996,10.0377 11.8091,10.0377 C 11.2187,10.0377 10.6282,10.6282 10.6282,11.2186 C 10.6282,11.8091 11.2187,12.3995 11.8091,12.3995 Z Z " fill="#FFFFFF" stroke="none"/>
        <path d="M 17.4184,12.3995 C 18.0089,12.3995 18.5993,11.8091 18.5993,11.2186 C 18.5993,10.6282 18.0089,10.0377 17.4184,10.0377 C 16.828,10.0377 16.2375,10.6282 16.2375,11.2186 C 16.2375,11.8091 16.828,12.3995 17.4184,12.3995 Z Z " fill="#FFFFFF" stroke="none"/>
        <path d="M 23.0277,12.3995 C 23.6182,12.3995 24.2087,11.8091 24.2087,11.2186 C 24.2087,10.6282 23.6182,10.0377 23.0277,10.0377 C 22.4373000000001,10.0377 21.8468,10.6282 21.8468,11.2186 C 21.8468,11.8091 22.4373000000001,12.3995 23.0277,12.3995 Z Z " fill="#FFFFFF" stroke="none"/>
        <path d="M 28.6371,12.3995 C 29.2275,12.3995 29.818,11.8091 29.818,11.2186 C 29.818,10.6282 29.2275,10.0377 28.6371,10.0377 C 28.0466,10.0377 27.4561,10.6282 27.4561,11.2186 C 27.4561,11.8091 28.0466,12.3995 28.6371,12.3995 Z Z " fill="#FFFFFF" stroke="none"/>
      </g>
      <!--emf-blob end-->
    </g>
  </g>
</svg>

