<svg xmlns="http://www.w3.org/2000/svg" xmlns:xlink="http://www.w3.org/1999/xlink" version="1.1" viewBox="0 0 75 105" >
  <title><![CDATA[MOH server]]></title>
  <g transform=" scale(3.000000) ">
    <!--converted by libvisio2svg-->
    <g>
      <!--emf-blob start-->
      <g>
        <path d="M 18.302,5.90389999999996 L 0,5.90389999999996 L 0,34.8329 L 18.302,34.8329 Z " fill="#0F73A0" stroke-width="1px" stroke="#0F73A0"/>
        <path d="M 18.302,5.90389999999996 L 0,5.90389999999996 L 0,34.8329 L 18.302,34.8329 " stroke="#FFFFFF" stroke-width="0.8856" stroke-linecap="butt" stroke-linejoin="miter" fill="none"/>
        <path d="M 24.2059,0 L 5.90380000000005,0 L 0,5.90389999999996 L 18.302,5.90389999999996 L 24.2059,0 Z " fill="#0F73A0" stroke="#FFFFFF" stroke-width="0.8856" stroke-linecap="butt" stroke-linejoin="miter"/>
        <path d="M 18.302,5.90389999999996 L 18.302,34.8329 L 24.2059,28.929 L 24.2059,0 L 18.302,5.90389999999996 Z " fill="#0F73A0" stroke="#FFFFFF" stroke-width="0.8856" stroke-linecap="butt" stroke-linejoin="miter"/>
        <path d="M 18.302,5.90389999999996 L 24.2059,0 Z " fill="#0F73A0" stroke-width="1px" stroke="#0F73A0"/>
        <path d="M 18.302,5.90389999999996 L 24.2059,0 " stroke="#FFFFFF" stroke-width="0.8856" stroke-linecap="butt" stroke-linejoin="miter" fill="none"/>
        <path d="M 0.295100000000048,17.1213 L 18.0068,17.1213 " stroke="#FFFFFF" stroke-width="0.8856" stroke-linecap="butt" stroke-linejoin="miter" fill="none"/>
        <path d="M 0.295100000000048,30.405 L 18.0068,30.405 " stroke="#FFFFFF" stroke-width="0.8856" stroke-linecap="butt" stroke-linejoin="miter" fill="none"/>
        <path d="M 4.42790000000002,10.3318 L 9.7414,10.3318 " stroke="#FFFFFF" stroke-width="0.8856" stroke-linecap="butt" stroke-linejoin="miter" fill="none"/>
        <path d="M 11.5125,12.103 L 11.5125,8.56059999999997 L 2.36150000000004,8.56059999999997 L 2.36150000000004,12.103 L 11.5125,12.103 Z " fill="none" stroke="#FFFFFF" stroke-width="0.8856" stroke-linecap="butt" stroke-linejoin="miter"/>
        <path d="M 6.19900000000001,29.8146 L 5.90380000000005,16.2357 L 15.6453,12.6934 L 15.6453,27.7483 L 15.0549,27.7483 L 14.4645,19.1876 L 6.7894,21.8444 L 6.7894,29.5194 L 6.19900000000001,29.8146 Z " fill="#FFFFFF" stroke-width="1px" stroke="#FFFFFF"/>
        <path d="M 15.6453,28.0435 C 15.6453,28.929 14.7597,29.8146 13.2837,30.1098 C 11.8077,30.1098 10.6269,29.2242 10.3318,28.3387 C 10.3318,27.4531 11.5125,26.5675 12.9885,26.5675 C 14.4645,26.5675 15.6453,27.1579 15.6453,28.0435 Z Z " fill="#FFFFFF" stroke="none"/>
        <path d="M 6.7894,30.1098 C 6.7894,30.9954 5.60860000000002,31.881 4.1327,31.881 C 2.6567,32.1762 1.47590000000002,31.2906 1.47590000000002,30.405 C 1.1807,29.5194 2.36150000000004,28.6339 3.83750000000003,28.6339 C 5.31350000000003,28.6339 6.49420000000003,29.2242 6.7894,30.1098 Z Z " fill="#FFFFFF" stroke="none"/>
        <path d="M 14.4645,17.7117 L 6.7894,20.3684 L 6.7894,18.8924 L 14.4645,16.2357 L 14.4645,17.7117 Z " fill="#808080" stroke-width="1px" stroke="#808080"/>
      </g>
      <!--emf-blob end-->
    </g>
  </g>
</svg>

