<svg xmlns="http://www.w3.org/2000/svg" xmlns:xlink="http://www.w3.org/1999/xlink" version="1.1" viewBox="0 0 165 93" >
  <title><![CDATA[MSE]]></title>
  <g transform=" scale(3.000000) ">
    <!--converted by libvisio2svg-->
    <g>
      <!--emf-blob start-->
      <g>
        <path d="M 0,13.2891 L 16.5375,0 L 54.6328999999999,0 L 41.0485,13.2891 L 0,13.2891 Z " fill="#007EBA" stroke="#FFFFFF" stroke-width="0.88595" stroke-linecap="butt" stroke-linejoin="miter"/>
        <path d="M 41.0485,30.4173 L 54.6328999999999,16.2422 L 54.6328999999999,0 L 41.0485,13.2891 L 41.0485,30.4173 Z " fill="#007EBA" stroke="#FFFFFF" stroke-width="0.88595" stroke-linecap="butt" stroke-linejoin="miter"/>
        <path d="M 41.0485,30.4173 L 41.0485,13.2891 L 0,13.2891 L 0,30.4173 L 41.0485,30.4173 Z " fill="#007EBA" stroke="#FFFFFF" stroke-width="0.88595" stroke-linecap="butt" stroke-linejoin="miter"/>
        <path d="M 25.1016,10.9266 C 27.4641,8.85939999999999 30.7125,7.97339999999997 30.7125,7.97339999999997 C 34.2563,6.79219999999998 35.7329,5.02030000000002 35.7329,5.02030000000002 C 39.2766,1.18119999999999 32.4844,1.18119999999999 32.4844,1.18119999999999 C 32.4844,1.18119999999999 25.3969,1.18119999999999 21.8531,4.72499999999997 C 21.8531,4.72499999999997 20.0813,6.49689999999998 21.2625,7.97339999999997 C 21.2625,7.97339999999997 22.4438,8.85939999999999 20.9672,10.9266 Z " stroke="#FFFFFF" stroke-width="1.3289" stroke-linecap="butt" stroke-linejoin="miter" fill="none"/>
        <path d="M 25.1016,10.9266 C 25.1016,10.9266 24.8063,11.2219 24.511,11.2219 C 20.9672,10.9266 20.9672,10.9266 20.9672,10.9266 C 20.6719,10.9266 20.6719,10.9266 20.9672,10.9266 C 20.9672,10.9266 20.9672,10.9266 20.9672,10.9266 C 20.9672,10.6313 21.2625,10.6313 21.2625,10.6313 C 24.8063,10.6313 24.8063,10.6313 24.8063,10.6313 C 25.1016,10.6313 25.1016,10.9266 25.1016,10.9266 Z Z " stroke="#FFFFFF" stroke-width="0.44295" stroke-linecap="butt" stroke-linejoin="miter" fill="none"/>
        <path d="M 24.511,11.5172 C 24.511,11.5172 24.2157,11.5172 24.2157,11.5172 C 20.6719,11.5172 20.6719,11.5172 20.6719,11.5172 C 20.3766,11.5172 20.3766,11.5172 20.3766,11.2219 C 20.3766,11.2219 20.3766,11.2219 20.3766,11.2219 C 20.3766,11.2219 20.6719,11.2219 20.9672,11.2219 C 24.511,11.2219 24.511,11.2219 24.511,11.2219 C 24.511,11.2219 24.8063,11.2219 24.511,11.5172 Z Z " stroke="#FFFFFF" stroke-width="0.44295" stroke-linecap="butt" stroke-linejoin="miter" fill="none"/>
        <path d="M 24.2157,11.8125 C 23.9203,12.1078 23.9203,12.1078 23.625,12.1078 C 20.0813,12.1078 20.0813,12.1078 20.0813,12.1078 C 19.786,12.1078 19.786,11.8125 20.0813,11.8125 C 20.0813,11.8125 20.0813,11.8125 20.0813,11.8125 C 20.0813,11.8125 20.3766,11.5172 20.3766,11.5172 C 23.9203,11.8125 23.9203,11.8125 23.9203,11.8125 C 24.2157,11.8125 24.2157,11.8125 24.2157,11.8125 Z Z " stroke="#FFFFFF" stroke-width="0.44295" stroke-linecap="butt" stroke-linejoin="miter" fill="none"/>
        <path d="M 35.1422,8.85939999999999 L 36.6188,12.4031 L 31.5985,10.336 Z " fill="#FFFFFF" stroke-width="1px" stroke="#FFFFFF"/>
        <path d="M 35.1422,8.85939999999999 L 36.6188,12.4031 L 31.5985,10.336 " stroke="none" stroke-width="0" fill="none"/>
        <path d="M 34.5516,10.336 L 32.1891,8.85939999999999 " stroke="#FFFFFF" stroke-width="0.88595" stroke-linecap="round" stroke-linejoin="miter" fill="none"/>
        <path d="M 22.1485,1.77190000000002 L 16.8328,0.885899999999992 L 18.6047,3.5437 Z " fill="#FFFFFF" stroke-width="1px" stroke="#FFFFFF"/>
        <path d="M 22.1485,1.77190000000002 L 16.8328,0.885899999999992 L 18.6047,3.5437 " stroke="none" stroke-width="0" fill="none"/>
        <path d="M 21.8531,3.2484 L 19.1953,2.06720000000001 " stroke="#FFFFFF" stroke-width="0.88595" stroke-linecap="round" stroke-linejoin="miter" fill="none"/>
        <path d="M 18.6047,10.336 L 10.9266,10.9266 L 15.9469,8.2688 Z " fill="#FFFFFF" stroke-width="1px" stroke="#FFFFFF"/>
        <path d="M 18.6047,10.336 L 10.9266,10.9266 L 15.9469,8.2688 " stroke="none" stroke-width="0" fill="none"/>
        <path d="M 15.9469,9.74529999999999 L 19.1953,8.85939999999999 " stroke="#FFFFFF" stroke-width="0.88595" stroke-linecap="round" stroke-linejoin="miter" fill="none"/>
        <path d="M 39.2766,1.77190000000002 L 45.4782,2.36250000000001 L 39.8673,4.13439999999997 Z " fill="#FFFFFF" stroke-width="1px" stroke="#FFFFFF"/>
        <path d="M 39.2766,1.77190000000002 L 45.4782,2.36250000000001 L 39.8673,4.13439999999997 " stroke="none" stroke-width="0" fill="none"/>
        <path d="M 41.3438,2.95310000000001 L 38.0954,3.5437 " stroke="#FFFFFF" stroke-width="0.88595" stroke-linecap="round" stroke-linejoin="miter" fill="none"/>
        <path d="M 13.5844,7.08749999999998 L 19.786,5.61090000000002 L 15.3563,4.72499999999997 Z " fill="#FFFFFF" stroke-width="1px" stroke="#FFFFFF"/>
        <path d="M 13.5844,7.08749999999998 L 19.786,5.61090000000002 L 15.3563,4.72499999999997 " stroke="none" stroke-width="0" fill="none"/>
        <path d="M 11.5172,5.90629999999999 L 15.0609,5.90629999999999 " stroke="#FFFFFF" stroke-width="0.88595" stroke-linecap="round" stroke-linejoin="miter" fill="none"/>
        <path d="M 39.8673,7.08749999999998 L 43.411,7.08749999999998 " stroke="#FFFFFF" stroke-width="0.88595" stroke-linecap="round" stroke-linejoin="miter" fill="none"/>
        <path d="M 41.3438,5.61090000000002 L 35.7329,6.79219999999998 L 41.0485,8.5641 Z " fill="#FFFFFF" stroke-width="1px" stroke="#FFFFFF"/>
        <path d="M 41.3438,5.61090000000002 L 35.7329,6.79219999999998 L 41.0485,8.5641 " stroke="none" stroke-width="0" fill="none"/>
        <path d="M 20.6719,12.4031 C 21.5578,12.9938 22.7391,12.4031 22.7391,12.4031 Z " stroke="#FFFFFF" stroke-width="0.44295" stroke-linecap="butt" stroke-linejoin="miter" fill="none"/>
        <g transform=" scale(3.000000) ">
          <text font-family="Helvetica" fill="#FFFFFF" style="white-space:pre;" font-weight="700" text-anchor="start" x="0.0000" y="0.0000" font-size="9.4500"><![CDATA[M]]></text>
        </g>
        <g transform=" scale(3.000000) ">
</g>
        <g transform=" scale(3.000000) ">
          <text font-family="Helvetica" fill="#FFFFFF" style="white-space:pre;" font-weight="700" text-anchor="start" x="0.0000" y="0.0000" font-size="9.4500"><![CDATA[S]]></text>
        </g>
        <g transform=" scale(3.000000) ">
</g>
        <g transform=" scale(3.000000) ">
          <text font-family="Helvetica" fill="#FFFFFF" style="white-space:pre;" font-weight="700" text-anchor="start" x="0.0000" y="0.0000" font-size="9.4500"><![CDATA[E]]></text>
        </g>
        <g transform=" scale(3.000000) ">
</g>
      </g>
      <!--emf-blob end-->
    </g>
  </g>
</svg>

