<svg xmlns="http://www.w3.org/2000/svg" xmlns:xlink="http://www.w3.org/1999/xlink" version="1.1" viewBox="0 0 147 111" >
  <title><![CDATA[NAC appliance]]></title>
  <g transform=" scale(3.000000) ">
    <!--converted by libvisio2svg-->
    <g>
      <!--emf-blob start-->
      <g>
        <path d="M 44.5617,36.0036 L 12.6897,36.0036 L 12.6897,4.42669999999998 L 44.5617,4.42669999999998 L 44.5617,36.0036 Z " fill="#046897" stroke="#FFFFFF" stroke-width="0.88535" stroke-linecap="butt" stroke-linejoin="miter"/>
        <path d="M 16.5262,0.295200000000023 L 48.1031,0.295200000000023 L 44.2666,4.13159999999999 L 12.3946,4.13159999999999 L 16.5262,0.295200000000023 Z " fill="#046897" stroke="#FFFFFF" stroke-width="0.88535" stroke-linecap="butt" stroke-linejoin="miter"/>
        <path d="M 48.3982,30.9867 L 44.2666,36.8889 L 44.2666,4.13159999999999 L 48.3982,0 L 48.3982,30.9867 Z " fill="#046897" stroke="#FFFFFF" stroke-width="0.88535" stroke-linecap="butt" stroke-linejoin="miter"/>
        <path d="M 12.6897,36.0036 L 0,36.0036 L 0,4.42669999999998 L 12.6897,4.42669999999998 L 12.6897,36.0036 Z " fill="#046897" stroke="#FFFFFF" stroke-width="0.88535" stroke-linecap="butt" stroke-linejoin="miter"/>
        <path d="M 4.13150000000002,0.295200000000023 L 17.1164,0.295200000000023 L 12.9849,4.13159999999999 L 0.295099999999991,4.13159999999999 L 4.13150000000002,0.295200000000023 Z " fill="#046897" stroke="#FFFFFF" stroke-width="0.88535" stroke-linecap="butt" stroke-linejoin="miter"/>
        <path d="M 12.6897,4.42669999999998 L 12.6897,36.0036 Z " fill="#000000" stroke-width="1px" stroke="#000000"/>
        <path d="M 12.6897,4.42669999999998 L 12.6897,36.0036 " stroke="#FFFFFF" stroke-width="0.88535" stroke-linecap="butt" stroke-linejoin="miter" fill="none"/>
        <path d="M 12.9849,4.13159999999999 L 16.8213,0.295200000000023 Z " fill="#B2B2B2" stroke-width="1px" stroke="#B2B2B2"/>
        <path d="M 12.9849,4.13159999999999 L 16.8213,0.295200000000023 " stroke="#FFFFFF" stroke-width="0.88535" stroke-linecap="butt" stroke-linejoin="miter" fill="none"/>
        <path d="M 5.90219999999999,12.9849 C 5.90219999999999,13.28 5.90219999999999,13.28 5.90219999999999,13.28 C 5.01690000000002,14.4605 4.42660000000001,15.0507 3.83640000000003,15.0507 C 3.24619999999999,15.0507 2.65600000000001,14.7556 2.06580000000002,13.5751 C 2.36090000000002,13.5751 2.36090000000002,13.5751 2.36090000000002,13.5751 C 2.9511,13.5751 3.83640000000003,13.28 4.72180000000003,12.0996 C 4.72180000000003,11.8045 4.72180000000003,11.8045 4.72180000000003,11.8045 C 4.42660000000001,11.5094 4.42660000000001,11.5094 4.42660000000001,11.5094 C 3.83640000000003,10.9191 3.24619999999999,10.0338 3.24619999999999,9.4436 C 3.24619999999999,9.14850000000001 3.83640000000003,8.55830000000003 4.72180000000003,7.96800000000002 C 4.72180000000003,8.85340000000002 5.01690000000002,9.4436 5.6071,10.3289 C 5.90219999999999,10.624 5.90219999999999,10.624 5.90219999999999,10.624 C 6.19729999999998,10.3289 6.19729999999998,10.3289 6.19729999999998,10.3289 C 7.08260000000001,9.14850000000001 7.67290000000003,8.55830000000003 8.26310000000001,8.55830000000003 C 8.85329999999999,8.55830000000003 9.44350000000003,9.14850000000001 9.73860000000002,10.0338 C 9.44350000000003,10.0338 9.44350000000003,10.0338 9.44350000000003,10.0338 C 9.14839999999998,10.0338 8.85329999999999,10.0338 8.5582,10.3289 C 7.96800000000002,10.624 7.67290000000003,11.2143 7.37780000000004,11.5094 C 7.08260000000001,11.8045 7.08260000000001,11.8045 7.08260000000001,11.8045 C 7.37780000000004,12.0996 7.37780000000004,12.0996 7.37780000000004,12.0996 C 8.26310000000001,12.6898 8.85329999999999,13.28 9.73860000000002,13.28 C 9.44350000000003,14.1654 8.85329999999999,14.7556 8.26310000000001,14.7556 C 7.96800000000002,14.7556 7.08260000000001,14.1654 6.19729999999998,13.5751 Z Z " fill="#FFFFFF" stroke="none"/>
        <path d="M 9.73860000000002,25.0845 C 8.85329999999999,25.9698 7.96800000000002,26.8551 7.08260000000001,28.3307 C 6.19729999999998,29.5111 5.6071,30.6916 5.01690000000002,31.5769 C 4.42660000000001,32.1671 4.42660000000001,32.1671 4.42660000000001,32.1671 C 4.13150000000002,32.4622 3.54130000000004,32.7574 3.54130000000004,32.7574 C 3.54130000000004,32.4622 3.24619999999999,32.1671 2.9511,31.5769 C 2.9511,30.9867 2.9511,30.9867 2.9511,30.9867 C 2.65600000000001,30.3965 2.36090000000002,29.8062 2.06580000000002,29.5111 C 1.7706,29.216 1.47550000000001,28.9209 1.18040000000002,28.9209 C 1.7706,28.3307 2.06580000000002,28.0356 2.65600000000001,28.0356 C 2.9511,28.0356 3.54130000000004,28.6258 3.83640000000003,29.5111 C 4.13150000000002,30.1014 4.13150000000002,30.1014 4.13150000000002,30.1014 C 5.01690000000002,28.6258 6.49240000000003,26.8551 8.26310000000001,25.0845 C 8.85329999999999,24.4942 8.85329999999999,24.4942 8.85329999999999,24.4942 C 10.3289,23.3138 10.3289,23.3138 10.3289,23.3138 C 10.624,23.0187 10.9191,23.0187 11.5093,22.7236 C 11.5093,23.0187 11.5093,23.0187 11.5093,23.0187 C 11.5093,23.3138 11.2142,23.6089 10.624,23.904 Z Z " fill="#FFFFFF" stroke="none"/>
        <path d="M 12.6897,19.4774 L 0,19.4774 Z " fill="#046897" stroke-width="1px" stroke="#046897"/>
        <path d="M 12.6897,19.4774 L 0,19.4774 " stroke="#FFFFFF" stroke-width="0.88535" stroke-linecap="butt" stroke-linejoin="miter" fill="none"/>
        <path d="M 44.2666,27.1502 L 12.6897,27.1502 " stroke="#FFFFFF" stroke-width="0.88535" stroke-linecap="round" stroke-linejoin="round" fill="none"/>
        <path d="M 44.2666,31.5769 L 12.6897,31.5769 " stroke="#FFFFFF" stroke-width="0.88535" stroke-linecap="round" stroke-linejoin="round" fill="none"/>
        <path d="M 47.8079,26.2649 L 44.5617,31.5769 " stroke="#FFFFFF" stroke-width="0.88535" stroke-linecap="round" stroke-linejoin="round" fill="none"/>
        <path d="M 22.1333,31.5769 L 22.1333,35.7085 " stroke="#FFFFFF" stroke-width="0.88535" stroke-linecap="round" stroke-linejoin="round" fill="none"/>
        <path d="M 34.2328,31.5769 L 34.2328,35.7085 " stroke="#FFFFFF" stroke-width="0.88535" stroke-linecap="round" stroke-linejoin="round" fill="none"/>
        <path d="M 28.3306,27.4454 L 28.3306,31.2818 " stroke="#FFFFFF" stroke-width="0.88535" stroke-linecap="round" stroke-linejoin="round" fill="none"/>
        <path d="M 16.2311,27.4454 L 16.2311,31.2818 " stroke="#FFFFFF" stroke-width="0.88535" stroke-linecap="round" stroke-linejoin="round" fill="none"/>
        <path d="M 40.4302,27.4454 L 40.4302,31.2818 " stroke="#FFFFFF" stroke-width="0.88535" stroke-linecap="round" stroke-linejoin="round" fill="none"/>
        <path d="M 44.2666,27.1502 L 48.1031,21.5431 Z " fill="#000000" stroke-width="1px" stroke="#000000"/>
        <path d="M 44.2666,27.1502 L 48.1031,21.5431 " stroke="#FFFFFF" stroke-width="0.88535" stroke-linecap="butt" stroke-linejoin="miter" fill="none"/>
        <path d="M 46.0373,29.5111 L 46.0373,34.2329 " stroke="#FFFFFF" stroke-width="0.88535" stroke-linecap="round" stroke-linejoin="round" fill="none"/>
        <path d="M 46.9226,23.6089 L 46.9226,28.3307 " stroke="#FFFFFF" stroke-width="0.88535" stroke-linecap="round" stroke-linejoin="round" fill="none"/>
        <path d="M 23.6089,32.4622 L 23.6089,32.4622 Z " fill="#000000" stroke-width="1px" stroke="#000000"/>
        <path d="M 23.6089,32.4622 L 23.6089,32.4622 " stroke="#FFFFFF" stroke-width="0.88535" stroke-linecap="butt" stroke-linejoin="miter" fill="none"/>
        <path d="M 21.5431,25.6747 C 22.1333,25.6747 22.7235,25.3796 22.7235,24.7894 C 22.7235,24.1991 22.1333,23.6089 21.5431,23.6089 C 20.9529,23.6089 20.6577,24.1991 20.6577,24.7894 C 20.6577,25.3796 20.9529,25.6747 21.5431,25.6747 Z Z " fill="#FFFFFF" stroke="#000000" stroke-width="0.88535" stroke-linecap="butt" stroke-linejoin="miter"/>
        <path d="M 20.6577,23.6089 L 22.7235,25.6747 L 28.3306,19.7725 L 26.2648,18.0018 L 20.6577,23.6089 Z " fill="#FFFFFF" stroke="#000000" stroke-width="0.88535" stroke-linecap="butt" stroke-linejoin="miter"/>
        <path d="M 25.6746,13.5751 C 25.6746,18.0018 28.9208,21.248 33.3475,21.248 C 37.4791,21.248 40.7253,18.0018 40.7253,13.5751 C 40.7253,9.4436 37.4791,5.90230000000003 33.3475,5.90230000000003 C 28.9208,5.90230000000003 25.6746,9.4436 25.6746,13.5751 Z M 26.56,13.5751 C 26.56,10.0338 29.5111,7.08269999999999 33.3475,7.08269999999999 C 36.8888,7.08269999999999 39.8399,10.0338 39.8399,13.5751 C 39.8399,17.4116 36.8888,20.0676 33.3475,20.0676 C 29.5111,20.0676 26.56,17.4116 26.56,13.5751 Z Z " fill="#FFFFFF" stroke="#000000" stroke-width="0.88535" stroke-linecap="butt" stroke-linejoin="miter"/>
        <path d="M 24.7893,14.1654 C 24.7893,18.2969 28.0355,21.8383 32.1671,21.8383 C 36.5937,21.8383 39.8399,18.2969 39.8399,14.1654 C 39.8399,10.0338 36.5937,6.49250000000001 32.1671,6.49250000000001 C 28.0355,6.49250000000001 24.7893,10.0338 24.7893,14.1654 Z M 25.6746,14.1654 C 25.6746,10.624 28.6257,7.67290000000003 32.1671,7.67290000000003 C 36.0035,7.67290000000003 38.9546,10.624 38.9546,14.1654 C 38.9546,17.7067 36.0035,20.6578 32.1671,20.6578 C 28.6257,20.6578 25.6746,17.7067 25.6746,14.1654 Z Z " fill="#FFFFFF" stroke="#000000" stroke-width="0.88535" stroke-linecap="butt" stroke-linejoin="miter"/>
        <path d="M 21.5431,24.7894 L 21.5431,24.7894 Z " fill="#000000" stroke-width="1px" stroke="#000000"/>
        <path d="M 21.5431,24.7894 L 21.5431,24.7894 " stroke="none" stroke-width="0" fill="none"/>
      </g>
      <!--emf-blob end-->
    </g>
  </g>
</svg>

