<svg xmlns="http://www.w3.org/2000/svg" xmlns:xlink="http://www.w3.org/1999/xlink" version="1.1" viewBox="0 0 153 108" >
  <title><![CDATA[NCE]]></title>
  <g transform=" scale(3.000000) ">
    <!--converted by libvisio2svg-->
    <g>
      <!--emf-blob start-->
      <g>
        <path d="M 0,35.7185 L 44.8695,35.7185 L 44.8695,6.19909999999999 L 0,6.19909999999999 L 0,35.7185 Z " fill="#026C9B" stroke="#FFFFFF" stroke-width="0.8856" stroke-linecap="butt" stroke-linejoin="miter"/>
        <path d="M 50.183,28.0435 L 44.8695,35.7185 L 44.8695,6.19909999999999 L 50.183,0 L 50.183,28.0435 Z " fill="#026C9B" stroke="#FFFFFF" stroke-width="0.8856" stroke-linecap="butt" stroke-linejoin="miter"/>
        <path d="M 7.67500000000001,0 L 50.183,0 L 44.8695,6.19909999999999 L 0,6.19909999999999 L 7.67500000000001,0 Z " fill="#026C9B" stroke="#FFFFFF" stroke-width="0.8856" stroke-linecap="butt" stroke-linejoin="miter"/>
        <path d="M 7.67500000000001,14.7598 L 7.67500000000001,16.5309 L 3.24709999999999,14.1694 L 7.67500000000001,11.5126 L 7.67500000000001,13.579 L 7.67500000000001,13.2838 L 15.3501,13.2838 L 15.3501,11.5126 L 19.778,13.8742 L 15.3501,16.5309 L 15.3501,14.4646 L 7.67500000000001,14.4646 L 7.67500000000001,14.7598 Z " fill="#FFFFFF" stroke-width="1px" stroke="#FFFFFF"/>
        <path d="M 7.67500000000001,28.3387 L 7.67500000000001,30.405 L 3.24709999999999,27.7483 L 7.67500000000001,25.3867 L 7.67500000000001,27.1579 L 7.67500000000001,27.1579 L 15.3501,27.1579 L 15.3501,25.0916 L 19.778,27.7483 L 15.3501,30.1099 L 15.3501,28.3387 L 7.67500000000001,28.3387 L 7.67500000000001,28.3387 Z " fill="#FFFFFF" stroke-width="1px" stroke="#FFFFFF"/>
        <path d="M 7.67500000000001,21.5492 L 7.67500000000001,23.6156 L 3.24709999999999,20.9588 L 7.67500000000001,18.5973 L 7.67500000000001,20.3684 L 7.67500000000001,20.3684 L 12.9885,20.3684 L 12.9885,18.5973 L 17.4165,20.9588 L 12.9885,23.6156 L 12.9885,21.5492 L 7.67500000000001,21.5492 L 7.67500000000001,21.5492 Z " fill="#FFFFFF" stroke-width="1px" stroke="#FFFFFF"/>
        <path d="M 41.9176,26.5675 C 41.032,26.5675 40.4416,24.206 40.7368,21.5492 C 40.7368,18.8925 41.3272,16.8261 41.9176,16.8261 C 36.3089,16.8261 36.3089,16.8261 36.3089,16.8261 C 35.7185,16.8261 35.1281,18.8925 35.1281,21.5492 C 35.1281,24.206 35.4233,26.2723 36.3089,26.2723 Z Z " fill="#FFFFFF" stroke="none"/>
        <path d="M 40.7368,21.5492 C 40.4416,24.206 41.032,26.2723 41.9176,26.2723 C 42.8032,26.2723 43.3935,24.206 43.3935,21.5492 C 43.3935,19.1877 42.8032,17.1213 41.9176,17.1213 C 41.3272,17.1213 40.7368,19.1877 40.7368,21.5492 Z Z " fill="#026C9B" stroke="#FFFFFF" stroke-width="0.8856" stroke-linecap="butt" stroke-linejoin="miter"/>
        <path d="M 37.4897,21.254 C 37.4897,26.5675 33.3569,30.7002 28.0434,30.7002 C 22.7299,30.7002 18.5972,26.2723 18.5972,21.254 C 18.5972,15.9405 23.0251,11.8078 28.3386,11.8078 C 33.3569,11.8078 37.7849,15.9405 37.4897,21.254 Z Z " fill="#FFFFFF" stroke="none"/>
        <path d="M 32.7666,21.5492 C 32.7666,23.9108 30.7002,25.9771 28.0434,25.9771 C 25.6819,25.9771 23.6155,23.9108 23.6155,21.254 C 23.6155,18.8925 25.6819,16.8261 28.3386,16.8261 C 30.7002,16.8261 32.7666,18.8925 32.7666,21.5492 Z Z " fill="#026C9B" stroke="none"/>
      </g>
      <!--emf-blob end-->
    </g>
  </g>
</svg>

