<svg xmlns="http://www.w3.org/2000/svg" xmlns:xlink="http://www.w3.org/1999/xlink" version="1.1" viewBox="0 0 132 90" >
  <title><![CDATA[NCE router]]></title>
  <g transform=" scale(3.000000) ">
    <!--converted by libvisio2svg-->
    <g>
      <!--emf-blob start-->
      <g>
        <path d="M 43.6802,8.55889999999999 C 43.6802,13.2811 33.9407,17.1179 21.8401,17.1179 C 9.73950000000002,17.1179 0,13.2811 0,8.55889999999999 C 0,20.9547 0,20.9547 0,20.9547 C 0,25.6768 9.73950000000002,29.5136 21.8401,29.5136 C 33.9407,29.5136 43.6802,25.6768 43.6802,20.9547 Z Z " fill="#026C9B" stroke="#FFFFFF" stroke-width="0.8854" stroke-linecap="butt" stroke-linejoin="miter"/>
        <path d="M 21.8401,17.1179 C 33.9407,17.1179 43.6802,13.2811 43.6802,8.55889999999999 C 43.6802,3.83680000000004 33.9407,0 21.8401,0 C 9.73950000000002,0 0,3.83680000000004 0,8.55889999999999 C 0,13.2811 9.73950000000002,17.1179 21.8401,17.1179 Z Z " fill="#026C9B" stroke="#FFFFFF" stroke-width="0.8854" stroke-linecap="butt" stroke-linejoin="miter"/>
        <path d="M 16.8228,5.31240000000003 L 18.5936,7.96870000000001 L 11.8055,9.44440000000003 L 13.2811,8.2638 L 2.95139999999998,6.49299999999999 L 5.60759999999999,4.42700000000002 L 15.6422,6.1979 L 16.8228,5.31240000000003 Z " fill="#FFFFFF" stroke-width="1px" stroke="#FFFFFF"/>
        <path d="M 26.5623,11.8054 L 25.0866,9.14920000000001 L 31.2845,7.67350000000005 L 30.3991,8.85410000000002 L 40.4337,10.6249 L 38.0726,12.3957 L 27.7428,10.6249 L 26.5623,11.8054 Z " fill="#FFFFFF" stroke-width="1px" stroke="#FFFFFF"/>
        <path d="M 23.0206,3.83680000000004 L 29.8088,2.0659 L 30.1039,4.72220000000004 L 28.3331,4.42700000000002 L 25.0866,7.3784 L 21.8401,6.78810000000004 L 25.0866,4.13190000000003 L 23.0206,3.83680000000004 Z " fill="#FFFFFF" stroke-width="1px" stroke="#FFFFFF"/>
        <path d="M 20.0693,14.4617 L 13.5763,15.6422 L 13.2811,12.3957 L 15.3471,12.986 L 18.8887,9.73950000000002 L 22.1352,10.3298 L 18.2985,13.8714 L 20.0693,14.4617 Z " fill="#FFFFFF" stroke-width="1px" stroke="#FFFFFF"/>
        <path d="M 13.5763,19.1838 L 13.5763,20.3644 L 11.2152,18.8887 L 13.5763,17.413 L 13.5763,18.5936 L 13.5763,18.5936 L 17.7082,18.5936 L 17.7082,17.413 L 20.0693,18.8887 L 17.7082,20.3644 L 17.7082,19.1838 L 13.5763,19.1838 L 13.5763,19.1838 Z " fill="#FFFFFF" stroke-width="1px" stroke="#FFFFFF"/>
        <path d="M 13.5763,26.8574 L 13.5763,28.0379 L 11.2152,26.5623 L 13.5763,25.0866 L 13.5763,26.2671 L 13.5763,26.2671 L 17.7082,26.2671 L 17.7082,25.0866 L 20.0693,26.5623 L 17.7082,28.0379 L 17.7082,26.8574 L 13.5763,26.8574 L 13.5763,26.8574 Z " fill="#FFFFFF" stroke-width="1px" stroke="#FFFFFF"/>
        <path d="M 13.5763,23.3158 L 13.5763,24.2012 L 11.2152,22.7255 L 13.5763,21.5449 L 13.5763,22.4303 L 13.5763,22.4303 L 16.5276,22.4303 L 16.5276,21.5449 L 18.8887,22.7255 L 16.5276,24.2012 L 16.5276,23.0206 L 13.5763,23.0206 L 13.5763,23.3158 Z " fill="#FFFFFF" stroke-width="1px" stroke="#FFFFFF"/>
        <path d="M 32.465,25.972 C 32.1699,25.6768 31.8747,24.4963 31.8747,23.0206 C 31.8747,21.8401 32.1699,20.3644 32.465,20.3644 C 29.5136,20.3644 29.5136,20.3644 29.5136,20.3644 C 28.9234,20.3644 28.6282,21.5449 28.6282,23.0206 C 28.6282,24.4963 28.9234,25.6768 29.5136,25.6768 Z Z " fill="#FFFFFF" stroke="none"/>
        <path d="M 31.8747,23.0206 C 31.8747,24.4963 32.1699,25.6768 32.465,25.6768 C 33.0553,25.6768 33.3504,24.4963 33.3504,23.3158 C 33.3504,21.8401 33.0553,20.6595 32.465,20.6595 C 32.1699,20.6595 31.8747,21.8401 31.8747,23.0206 Z Z " fill="#026C9B" stroke="#FFFFFF" stroke-width="0.8854" stroke-linecap="butt" stroke-linejoin="miter"/>
        <path d="M 30.1039,23.0206 C 30.1039,25.972 27.7428,28.3331 24.7915,28.3331 C 21.8401,28.0379 19.479,25.6768 19.7741,23.0206 C 19.7741,20.0693 22.1352,17.7082 24.7915,17.7082 C 27.7428,17.7082 30.1039,20.0693 30.1039,23.0206 Z Z " fill="#FFFFFF" stroke="none"/>
        <path d="M 27.4477,23.0206 C 27.4477,24.4963 26.2671,25.6768 24.7915,25.6768 C 23.6109,25.6768 22.4304,24.4963 22.4304,23.0206 C 22.4304,21.5449 23.6109,20.3644 25.0866,20.3644 C 26.2671,20.3644 27.4477,21.5449 27.4477,23.0206 Z Z " fill="#026C9B" stroke="none"/>
      </g>
      <!--emf-blob end-->
    </g>
  </g>
</svg>

