<svg xmlns="http://www.w3.org/2000/svg" xmlns:xlink="http://www.w3.org/1999/xlink" version="1.1" viewBox="0 0 129 87" >
  <title><![CDATA[Netflow router]]></title>
  <g transform=" scale(3.000000) ">
    <!--converted by libvisio2svg-->
    <g>
      <!--emf-blob start-->
      <g>
        <path d="M 21.2599,16.5354 C 33.0709000000001,16.5354 42.5198,12.6968 42.5198,8.26769999999999 C 42.5198,3.54329999999999 33.0709000000001,0 21.2599,0 C 9.44880000000001,0 0,3.54329999999999 0,8.26769999999999 C 0,12.6968 9.44880000000001,16.5354 21.2599,16.5354 Z Z " fill="#0E6F9C" stroke="#FFFFFF" stroke-width="0.88585" stroke-linecap="butt" stroke-linejoin="miter"/>
        <path d="M 41.9292,6.49599999999998 C 35.7284,4.7244 33.6615,8.26769999999999 30.1182,8.26769999999999 C 25.0985,8.26769999999999 26.8701,5.90549999999996 21.2599,5.90549999999996 C 14.4685,5.90549999999996 17.126,8.26769999999999 12.4016,8.26769999999999 C 8.85830000000004,8.26769999999999 7.38190000000003,5.31489999999997 0.295300000000054,6.49599999999998 C 0,7.08659999999998 0,7.6771 0,8.85820000000001 C 6.49610000000001,7.08659999999998 8.56300000000005,10.6299 12.4016,10.3346 C 18.0118000000001,10.3346 15.0591,7.97239999999999 21.2599,8.26769999999999 C 27.1654,8.56299999999999 24.2126,10.6299 30.1182,10.6299 C 35.1379,10.6299 35.7284,7.08659999999998 42.5198,8.56299999999999 C 42.5198,8.56299999999999 42.8150000000001,7.6771 41.9292,6.49599999999998 Z Z " fill="#0C6D9C" stroke="#FFFFFF" stroke-width="0.4429" stroke-linecap="butt" stroke-linejoin="miter"/>
        <path d="M 36.6142,2.36219999999997 C 33.0709000000001,1.77159999999998 33.9567,4.13380000000001 30.1182,4.13380000000001 C 25.0985,4.13380000000001 27.1654,1.77159999999998 21.5552,1.77159999999998 C 14.7638,1.77159999999998 16.8307,4.13380000000001 12.1063,4.13380000000001 C 8.85830000000004,4.42910000000001 7.97250000000003,2.6574 5.0197,2.6574 C 4.13390000000004,3.24799999999999 2.65750000000003,4.13380000000001 1.77170000000001,4.7244 C 6.79140000000001,3.54329999999999 8.85830000000004,6.20069999999998 12.1063,6.20069999999998 C 17.7166,6.20069999999998 15.0591,3.83850000000001 21.2599,4.13380000000001 C 27.1654,4.13380000000001 24.2126,6.20069999999998 30.1182,6.20069999999998 C 33.9567,6.20069999999998 34.252,2.95269999999999 39.8623,4.13380000000001 C 39.8623,4.13380000000001 38.3859,3.24799999999999 36.6142,2.36219999999997 Z Z " fill="#0C6D9C" stroke="#FFFFFF" stroke-width="0.4429" stroke-linecap="butt" stroke-linejoin="miter"/>
        <path d="M 41.6339,10.6299 C 35.1379,8.85820000000001 35.1379,12.4015 30.4134,12.4015 C 25.689,12.4015 27.4607,10.0393 21.8504,10.0393 C 15.3544,10.0393 17.7166,12.1063 12.6969,12.4015 C 9.44880000000001,12.4015 5.61020000000002,9.15350000000001 0.885800000000017,10.6299 C 1.47640000000001,11.5157 3.83860000000004,12.9921 3.83860000000004,12.9921 C 6.49610000000001,12.1063 8.56300000000005,14.4685 12.6969,14.4685 C 18.3071,14.4685 15.6496,12.1063 21.8504,12.4015 C 27.756,12.4015 24.5079,14.4685 30.4134,14.4685 C 34.8426,14.7638 35.7284,11.5157 39.567,12.4015 C 39.567,12.4015 40.7481,11.5157 41.6339,10.6299 Z Z " fill="#0C6D9C" stroke="#FFFFFF" stroke-width="0.4429" stroke-linecap="butt" stroke-linejoin="miter"/>
        <path d="M 16.5355,14.4685 L 9.15360000000004,14.7638 L 10.0394,11.2204 L 11.5158,11.811 L 18.8977,8.26769999999999 L 22.1457,10.0393 L 14.7638,13.5826 L 16.5355,14.4685 Z " fill="#FFFFFF" stroke-width="1px" stroke="#FFFFFF"/>
        <path d="M 26.8701,2.36219999999997 L 34.5473,2.36219999999997 L 33.3662,5.90549999999996 L 31.8898,5.01959999999997 L 24.5079,8.56299999999999 L 21.5552,6.79129999999998 L 28.6418,3.24799999999999 Z Z " fill="none" stroke="none"/>
        <defs>
          <clipPath id="clip-16531729">
            <path d="M 26.8701,2.36219999999997 L 34.5473,2.36219999999997 L 33.3662,5.90549999999996 L 31.8898,5.01959999999997 L 24.5079,8.56299999999999 L 21.5552,6.79129999999998 L 28.6418,3.24799999999999 Z"/>
          </clipPath>
        </defs>
        <path clip-path="url(#clip-16531729)" d="M 26.8701,2.06689999999998 L 34.5473,2.06689999999998 L 33.3662,5.61019999999996 L 31.8898,4.7244 L 24.8032,8.26769999999999 L 21.5552,6.20069999999998 L 28.6418,2.95269999999999 L 26.8701,2.06689999999998 Z " fill="#FFFFFF" stroke-width="1px" stroke="#FFFFFF"/>
        <path d="M 18.3071,4.7244 L 20.3741,7.38189999999997 L 10.6299,7.97239999999999 L 12.6969,7.08659999999998 L 5.61020000000002,4.13380000000001 L 9.15360000000004,2.06689999999998 L 16.5355,5.31489999999997 L 18.3071,4.7244 Z " fill="#FFFFFF" stroke-width="1px" stroke="#FFFFFF"/>
        <path d="M 23.9174,12.6968 L 23.0315000000001,9.15350000000001 L 30.7087,9.44880000000001 L 28.9371,10.0393 L 36.319,13.2874 L 33.0709000000001,14.7638 L 25.689,11.811 Z Z " fill="none" stroke="none"/>
        <defs>
          <clipPath id="clip-823378840">
            <path d="M 23.9174,12.6968 L 23.0315000000001,9.15350000000001 L 30.7087,9.44880000000001 L 28.9371,10.0393 L 36.319,13.2874 L 33.0709000000001,14.7638 L 25.689,11.811 Z"/>
          </clipPath>
        </defs>
        <path clip-path="url(#clip-823378840)" d="M 23.9174,12.6968 L 23.0315000000001,9.15350000000001 L 31.004,9.44880000000001 L 28.9371,10.0393 L 36.6142,13.2874 L 33.0709000000001,14.7638 L 25.689,11.811 L 23.9174,12.6968 Z " fill="#FFFFFF" stroke-width="1px" stroke="#FFFFFF"/>
        <path clip-path="url(#clip-823378840)" d="M 17.4213,14.4685 L 9.7441,14.7638 L 10.9252,11.2204 L 12.4016,11.811 L 19.7835,8.26769999999999 L 22.7363,10.0393 L 15.6496,13.5826 L 17.4213,14.4685 Z " fill="#FFFFFF" stroke-width="1px" stroke="#FFFFFF"/>
        <path d="M 42.5198,7.6771 C 42.5198,12.1063 33.0709000000001,15.9449 21.2599,15.9449 C 9.44880000000001,15.9449 0,12.1063 0,7.6771 C 0,19.7834 0,19.7834 0,19.7834 C 0,24.2126 9.44880000000001,28.0512 21.2599,28.0512 C 33.0709000000001,28.0512 42.5198,24.2126 42.5198,19.7834 Z Z " fill="#0E6F9C" stroke="none"/>
        <path d="M 42.5198,7.6771 C 42.5198,12.1063 33.0709000000001,15.9449 21.2599,15.9449 C 9.44880000000001,15.9449 0,12.1063 0,7.6771 C 0,19.7834 0,19.7834 0,19.7834 C 0,24.2126 9.44880000000001,28.0512 21.2599,28.0512 C 33.0709000000001,28.0512 42.5198,24.2126 42.5198,19.7834 Z Z " stroke="#FFFFFF" stroke-width="0.88585" stroke-linecap="butt" stroke-linejoin="miter" fill="none"/>
      </g>
      <!--emf-blob end-->
    </g>
  </g>
</svg>

