<svg xmlns="http://www.w3.org/2000/svg" xmlns:xlink="http://www.w3.org/1999/xlink" version="1.1" viewBox="0 0 126 87" >
  <title><![CDATA[Netranger]]></title>
  <g transform=" scale(3.000000) ">
    <!--converted by libvisio2svg-->
    <g>
      <!--emf-blob start-->
      <g>
        <path d="M 0,5.90270000000004 L 7.08320000000003,0 L 41.9093,0 L 36.3017,5.90270000000004 L 0,5.90270000000004 Z " fill="#0E6F9C" stroke="#FFFFFF" stroke-width="0.8854" stroke-linecap="butt" stroke-linejoin="miter"/>
        <path d="M 41.9093,0 L 36.3017,5.90270000000004 L 36.3017,28.3331 L 41.9093,20.6595 L 41.9093,0 Z " fill="#0E6F9C" stroke="#FFFFFF" stroke-width="0.8854" stroke-linecap="butt" stroke-linejoin="miter"/>
        <path d="M 0,5.90270000000004 L 36.3017,5.90270000000004 L 36.3017,28.3331 L 0,28.3331 L 0,5.90270000000004 Z " fill="#0E6F9C" stroke="#FFFFFF" stroke-width="0.8854" stroke-linecap="butt" stroke-linejoin="miter"/>
        <path d="M 17.7082,26.5623 C 23.0206,26.5623 27.4477,22.4304 27.4477,17.1179 C 27.4477,11.8054 23.0206,7.67349999999999 17.7082,7.67349999999999 C 12.6908,7.67349999999999 8.2638,11.8054 8.2638,17.1179 C 8.2638,22.4304 12.6908,26.5623 17.7082,26.5623 Z Z " stroke="#FFFFFF" stroke-width="1.7708" stroke-linecap="butt" stroke-linejoin="miter" fill="none"/>
        <path d="M 2.9513,12.1006 L 29.8087,12.1006 L 29.8087,10.92 L 32.1698,12.6909 L 29.8087,14.4617 L 29.8087,13.2811 L 2.9513,13.2811 Z " fill="#FFFFFF" stroke-width="1px" stroke="#FFFFFF"/>
        <path d="M 2.9513,12.1006 L 29.8087,12.1006 L 29.8087,10.92 L 32.1698,12.6909 L 29.8087,14.4617 L 29.8087,13.2811 L 2.9513,13.2811 " stroke="none" stroke-width="0" fill="none"/>
        <path d="M 31.8747,22.4304 L 5.01730000000003,22.4304 L 5.01730000000003,23.6109 L 2.65620000000001,21.8401 L 5.01730000000003,20.0693 L 5.01730000000003,21.2498 L 31.8747,21.2498 Z " fill="#FFFFFF" stroke-width="1px" stroke="#FFFFFF"/>
        <path d="M 31.8747,22.4304 L 5.01730000000003,22.4304 L 5.01730000000003,23.6109 L 2.65620000000001,21.8401 L 5.01730000000003,20.0693 L 5.01730000000003,21.2498 L 31.8747,21.2498 " stroke="none" stroke-width="0" fill="none"/>
      </g>
      <!--emf-blob end-->
    </g>
  </g>
</svg>

