<svg xmlns="http://www.w3.org/2000/svg" xmlns:xlink="http://www.w3.org/1999/xlink" version="1.1" viewBox="0 0 111 75" >
  <title><![CDATA[Netsonar]]></title>
  <g transform=" scale(3.000000) ">
    <!--converted by libvisio2svg-->
    <g>
      <!--emf-blob start-->
      <g>
        <path d="M 36.8993,7.08460000000002 C 36.8993,11.2174000000001 28.6339,14.4645 18.3021,14.4645 C 8.26550000000003,14.4645 0,11.2174000000001 0,7.08460000000002 C 0,17.7116 0,17.7116 0,17.7116 C 0,21.5492 8.26550000000003,24.7963 18.3021,24.7963 C 28.6339,24.7963 36.8993,21.5492 36.8993,17.7116 Z Z " fill="#0E6F9C" stroke="#FFFFFF" stroke-width="0.8856" stroke-linecap="butt" stroke-linejoin="miter"/>
        <path d="M 18.3021,14.4645 C 28.6339,14.4645 36.8993,11.2174000000001 36.8993,7.08460000000002 C 36.8993,3.24710000000005 28.6339,0 18.3021,0 C 8.26550000000003,0 0,3.24710000000005 0,7.08460000000002 C 0,11.2174000000001 8.26550000000003,14.4645 18.3021,14.4645 Z Z " fill="#0E6F9C" stroke="#FFFFFF" stroke-width="0.8856" stroke-linecap="butt" stroke-linejoin="miter"/>
        <path d="M 18.5973,5.6087 L 15.9405,1.77110000000005 L 17.1213,1.47590000000002 L 14.7597,0.590400000000045 L 13.8741,2.06630000000001 L 15.0549,1.77110000000005 L 17.4165,5.90390000000002 L 18.5973,5.6087 Z " fill="#FFFFFF" stroke-width="1px" stroke="#FFFFFF"/>
        <path d="M 17.1213,6.19910000000004 L 8.26550000000003,3.83750000000003 L 8.85580000000004,3.54230000000001 L 5.6087,3.54230000000001 L 7.0847,5.01830000000001 L 7.67510000000004,4.42790000000002 L 16.5309,6.7894 L 17.1213,6.19910000000004 Z " fill="#FFFFFF" stroke-width="1px" stroke="#FFFFFF"/>
        <path d="M 16.5309,7.08460000000002 L 6.49430000000001,8.2654 L 6.19910000000004,7.97020000000003 L 4.1327,9.15100000000001 L 7.0847,9.44620000000003 L 6.78950000000003,8.85580000000004 L 17.1213,7.67500000000001 L 16.5309,7.08460000000002 Z " fill="#FFFFFF" stroke-width="1px" stroke="#FFFFFF"/>
        <path d="M 17.1213,7.97020000000003 L 11.8078,11.8077 L 10.9222,11.5126 L 10.9222,12.9885 L 13.8741,12.3981 L 12.9886,12.1029 L 18.0069,8.2654 L 17.1213,7.97020000000003 Z " fill="#FFFFFF" stroke-width="1px" stroke="#FFFFFF"/>
        <path d="M 19.4828,5.90390000000002 L 23.9107,2.06630000000001 L 23.0252,2.06630000000001 L 25.6819,1.18080000000003 L 25.9771,2.6567 L 25.0915,2.36150000000004 L 20.6636,6.19910000000004 L 19.4828,5.90390000000002 Z " fill="#FFFFFF" stroke-width="1px" stroke="#FFFFFF"/>
        <path d="M 18.8924,8.2654 L 21.5492,12.6933 L 20.3684,12.6933 L 22.73,13.8741 L 23.9107,12.3981 L 22.73,12.3981 L 20.0732,8.2654 L 18.8924,8.2654 Z " fill="#FFFFFF" stroke-width="1px" stroke="#FFFFFF"/>
        <path d="M 20.6636,7.97020000000003 L 29.5194,10.0366 L 28.929,10.627 L 32.1762,10.627 L 30.7002,9.15100000000001 L 30.1098,9.44620000000003 L 21.254,7.37980000000005 L 20.6636,7.97020000000003 Z " fill="#FFFFFF" stroke-width="1px" stroke="#FFFFFF"/>
        <path d="M 20.9588,7.37980000000005 L 30.9954,5.90390000000002 L 31.2906,6.49420000000003 L 33.357,5.6087 L 30.405,5.01830000000001 L 30.7002,5.31350000000003 L 20.6636,6.7894 L 20.9588,7.37980000000005 Z " fill="#FFFFFF" stroke-width="1px" stroke="#FFFFFF"/>
        <path d="M 18.5973,8.56060000000002 C 20.3684,8.56060000000002 21.8444,7.97020000000003 21.8444,7.08460000000002 C 21.8444,6.49420000000003 20.3684,5.6087 18.8924,5.6087 C 17.1213,5.6087 15.6453,6.19910000000004 15.6453,7.08460000000002 C 15.6453,7.67500000000001 17.1213,8.2654 18.5973,8.56060000000002 Z Z " fill="#0E6F9C" stroke="#FFFFFF" stroke-width="0.8856" stroke-linecap="butt" stroke-linejoin="miter"/>
      </g>
      <!--emf-blob end-->
    </g>
  </g>
</svg>

