<svg xmlns="http://www.w3.org/2000/svg" xmlns:xlink="http://www.w3.org/1999/xlink" version="1.1" viewBox="0 0 99 93" >
  <title><![CDATA[Network management]]></title>
  <g transform=" scale(3.000000) ">
    <!--converted by libvisio2svg-->
    <g>
      <!--emf-blob start-->
      <g>
        <path d="M 25.9683,30.0995 L 25.9683,5.31169999999997 L 0,5.31169999999997 L 0,30.0995 L 25.9683,30.0995 Z " fill="#0E6F9C" stroke="#FFFFFF" stroke-width="0.44265" stroke-linecap="butt" stroke-linejoin="miter"/>
        <path d="M 25.9683,5.31169999999997 L 32.7554,0 L 9.14789999999999,0 L 0,5.31169999999997 L 25.9683,5.31169999999997 Z " fill="#0E6F9C" stroke="#FFFFFF" stroke-width="0.44265" stroke-linecap="butt" stroke-linejoin="miter"/>
        <path d="M 32.7554,24.4928 L 32.7554,0 L 25.9683,5.31169999999997 L 25.9683,30.0995 L 32.7554,24.4928 Z " fill="#0E6F9C" stroke="#FFFFFF" stroke-width="0.44265" stroke-linecap="butt" stroke-linejoin="miter"/>
        <path d="M 2.65590000000003,28.9192 C 3.24599999999998,28.9192 3.83620000000002,28.329 3.83620000000002,27.7388 C 3.83620000000002,27.1486 3.24599999999998,26.5584 2.65590000000003,26.5584 C 2.06569999999999,26.5584 1.47550000000001,27.1486 1.47550000000001,27.7388 C 1.47550000000001,28.329 2.06569999999999,28.9192 2.65590000000003,28.9192 Z Z " fill="#FFFFFF" stroke="#000000" stroke-width="0.44265" stroke-linecap="butt" stroke-linejoin="miter"/>
        <path d="M 1.7706,26.5584 L 3.83620000000002,28.9192 L 10.0332,22.4271 L 7.96750000000003,20.3614 L 1.7706,26.5584 Z " fill="#FFFFFF" stroke="#000000" stroke-width="0.44265" stroke-linecap="butt" stroke-linejoin="miter"/>
        <path d="M 7.08230000000003,15.6399 C 7.08230000000003,20.3614 10.9185,23.9026 15.3449,23.9026 C 20.0664,23.9026 23.9026,20.3614 23.9026,15.6399 C 23.9026,10.9184 20.0664,7.0822 15.3449,7.0822 C 10.9185,7.0822 7.08230000000003,10.9184 7.08230000000003,15.6399 M 8.26260000000002,15.6399 C 8.26260000000002,11.5086 11.5087,8.26259999999996 15.3449,8.26259999999996 C 19.4762,8.26259999999996 22.7222,11.5086 22.7222,15.6399 C 22.7222,19.4762 19.4762,22.7222 15.3449,22.7222 C 11.5087,22.7222 8.26260000000002,19.4762 8.26260000000002,15.6399 Z Z " fill="#FFFFFF" stroke="#000000" stroke-width="0.44265" stroke-linecap="butt" stroke-linejoin="miter"/>
        <path d="M 5.90190000000001,15.935 C 5.90190000000001,20.6565 9.73810000000003,24.4928 14.4596,24.4928 C 19.1811,24.4928 23.0173,20.6565 23.0173,15.935 C 23.0173,11.5086 19.1811,7.67239999999998 14.4596,7.67239999999998 C 9.73810000000003,7.67239999999998 5.90190000000001,11.5086 5.90190000000001,15.935 M 7.08230000000003,15.935 C 7.08230000000003,12.0988 10.3283,8.8528 14.4596,8.8528 C 18.5909,8.8528 21.837,12.0988 21.837,15.935 C 21.837,20.0664 18.5909,23.3124 14.4596,23.3124 C 10.3283,23.3124 7.08230000000003,20.0664 7.08230000000003,15.935 Z Z " fill="#FFFFFF" stroke="#000000" stroke-width="0.44265" stroke-linecap="butt" stroke-linejoin="miter"/>
        <path d="M 18.0007,18.886 L 18.0007,12.689 L 11.5087,12.689 L 11.5087,18.886 L 18.0007,18.886 Z " fill="none" stroke="#FFFFFF" stroke-width="2.2132" stroke-linecap="butt" stroke-linejoin="miter"/>
      </g>
      <!--emf-blob end-->
    </g>
  </g>
</svg>

