<svg xmlns="http://www.w3.org/2000/svg" xmlns:xlink="http://www.w3.org/1999/xlink" version="1.1" viewBox="0 0 87 117" >
  <title><![CDATA[Nexus 7000]]></title>
  <g transform=" scale(3.000000) ">
    <!--converted by libvisio2svg-->
    <g>
      <!--emf-blob start-->
      <g>
        <path d="M 28.6348,10.9225 L 23.6164,15.6458 L 0,15.6458 L 6.19929999999999,10.9225 L 28.6348,10.9225 Z " fill="#000000" stroke="#FFFFFF" stroke-width="0.8856" stroke-linecap="round" stroke-linejoin="round"/>
        <path d="M 23.6164,38.6717 L 23.6164,15.6458 L 0,15.6458 L 0,38.6717 L 23.6164,38.6717 Z " fill="#007EBA" stroke="#FFFFFF" stroke-width="0.8856" stroke-linecap="butt" stroke-linejoin="miter"/>
        <path d="M 28.0444,34.5388 L 28.0444,11.2177 L 23.6164,15.6458 L 23.6164,38.6717 L 28.0444,34.5388 Z " fill="#007EBA" stroke="#FFFFFF" stroke-width="0.8856" stroke-linecap="butt" stroke-linejoin="miter"/>
        <path d="M 8.56099999999998,26.5683 L 3.54250000000002,26.5683 L 3.54250000000002,25.0923 L 1.47609999999997,27.1587 L 3.54250000000002,29.2252 L 3.54250000000002,27.7491000000001 L 8.56099999999998,27.7491000000001 L 8.56099999999998,26.5683 Z " fill="#FFFFFF" stroke-width="1px" stroke="#FFFFFF"/>
        <path d="M 11.2178,30.7012 L 11.2178,35.7197 L 10.037,35.7197 L 11.8082,37.4909 L 13.8746,35.7197 L 12.6938,35.7197 L 12.6938,30.7012 L 11.2178,30.7012 Z " fill="#FFFFFF" stroke-width="1px" stroke="#FFFFFF"/>
        <path d="M 11.2178,23.9115 L 11.2178,18.893 L 10.037,18.893 L 11.8082,16.8266 L 13.8746,18.893 L 12.6938,18.893 L 12.6938,23.9115 L 11.2178,23.9115 Z " fill="#FFFFFF" stroke-width="1px" stroke="#FFFFFF"/>
        <path d="M 15.3507,27.7491000000001 L 20.3691,27.7491000000001 L 20.3691,29.2252 L 22.4356,27.1587 L 20.3691,25.0923 L 20.3691,26.5683 L 15.3507,26.5683 L 15.3507,27.7491000000001 Z " fill="#FFFFFF" stroke-width="1px" stroke="#FFFFFF"/>
        <path d="M 20.0739,35.4245 C 19.1883,36.3101 14.7602,33.6532 10.3322,29.2252 C 5.90409999999997,24.7971 2.95209999999997,20.369 4.13290000000001,19.4834 C 5.01850000000002,18.3026 9.44659999999999,20.9595 13.8746,25.3875 C 18.3027,29.8156 20.9595,34.2436 20.0739,35.4245 Z Z " stroke="#FFFFFF" stroke-width="0.8856" stroke-linecap="butt" stroke-linejoin="miter" fill="none"/>
        <path d="M 19.7787,19.1882000000001 C 20.9595,20.0738 18.0075,24.5019 13.5794,28.93 C 9.15140000000002,33.358 5.01850000000002,36.3101 3.83769999999998,35.4245 C 2.95209999999997,34.2436 5.60890000000001,30.1108 10.037,25.6827 C 14.465,21.2547 18.8931,18.3026 19.7787,19.1882000000001 Z Z " stroke="#FFFFFF" stroke-width="0.8856" stroke-linecap="butt" stroke-linejoin="miter" fill="none"/>
        <path d="M 14.1698,30.1108 C 15.6459,28.93 16.2363,26.5683 15.0555,25.0923 C 13.8746,23.3211 11.513,23.0259 9.74180000000001,23.9115 C 8.26580000000001,25.0923 7.67540000000002,27.4539 8.8562,29.2252 C 10.037,30.9964000000001 12.3986,31.2916 14.1698,30.1108 Z Z " fill="#B5B5B5" stroke="none"/>
        <path d="M 28.6348,0 L 23.6164,4.42800000000005 L 0,4.42800000000005 L 6.19929999999999,0 L 28.6348,0 Z " fill="#007EBA" stroke="#FFFFFF" stroke-width="0.8856" stroke-linecap="butt" stroke-linejoin="miter"/>
        <path d="M 23.6164,15.6458 L 23.6164,4.42800000000005 L 0,4.42800000000005 L 0,15.6458 L 23.6164,15.6458 Z " fill="#007EBA" stroke="#FFFFFF" stroke-width="0.8856" stroke-linecap="butt" stroke-linejoin="miter"/>
        <path d="M 28.0444,11.2177 L 28.0444,0.295200000000023 L 23.6164,4.42800000000005 L 23.6164,15.6458 L 28.0444,11.2177 Z " fill="#007EBA" stroke="#FFFFFF" stroke-width="0.8856" stroke-linecap="butt" stroke-linejoin="miter"/>
        <path d="M 6.78969999999998,8.5609 L 6.78969999999998,6.19930000000005 L 2.36169999999998,6.19930000000005 L 2.36169999999998,8.5609 L 6.78969999999998,8.5609 Z " fill="#FFFFFF" stroke-width="1px" stroke="#FFFFFF"/>
        <path d="M 17.4171,8.5609 L 17.4171,6.19930000000005 L 21.8451,6.19930000000005 L 21.8451,8.5609 L 17.4171,8.5609 Z " fill="#FFFFFF" stroke-width="1px" stroke="#FFFFFF"/>
        <path d="M 6.78969999999998,14.7602000000001 L 6.78969999999998,12.1033 L 2.36169999999998,12.1033 L 2.36169999999998,14.7602000000001 L 6.78969999999998,14.7602000000001 Z " fill="#FFFFFF" stroke-width="1px" stroke="#FFFFFF"/>
        <path d="M 17.4171,14.7602000000001 L 17.4171,12.1033 L 21.8451,12.1033 L 21.8451,14.7602000000001 L 17.4171,14.7602000000001 Z " fill="#FFFFFF" stroke-width="1px" stroke="#FFFFFF"/>
        <path d="M 5.31369999999998,7.38010000000003 L 19.4835,7.38010000000003 Z " fill="#000000" stroke-width="1px" stroke="#000000"/>
        <path d="M 5.31369999999998,7.38010000000003 L 19.4835,7.38010000000003 " stroke="#FFFFFF" stroke-width="0.8856" stroke-linecap="butt" stroke-linejoin="miter" fill="none"/>
        <path d="M 5.31369999999998,13.5794 L 19.4835,13.5794 Z " fill="#000000" stroke-width="1px" stroke="#000000"/>
        <path d="M 5.31369999999998,13.5794 L 19.4835,13.5794 " stroke="#FFFFFF" stroke-width="0.8856" stroke-linecap="butt" stroke-linejoin="miter" fill="none"/>
        <path d="M 4.42809999999997,13.5794 L 19.4835,7.38010000000003 Z " fill="#000000" stroke-width="1px" stroke="#000000"/>
        <path d="M 4.42809999999997,13.5794 L 19.4835,7.38010000000003 " stroke="#FFFFFF" stroke-width="0.8856" stroke-linecap="butt" stroke-linejoin="miter" fill="none"/>
        <path d="M 4.42809999999997,7.38010000000003 L 19.4835,13.5794 Z " fill="#000000" stroke-width="1px" stroke="#000000"/>
        <path d="M 4.42809999999997,7.38010000000003 L 19.4835,13.5794 " stroke="#FFFFFF" stroke-width="0.8856" stroke-linecap="butt" stroke-linejoin="miter" fill="none"/>
      </g>
      <!--emf-blob end-->
    </g>
  </g>
</svg>

