<svg xmlns="http://www.w3.org/2000/svg" xmlns:xlink="http://www.w3.org/1999/xlink" version="1.1" viewBox="0 0 153 111" >
  <title><![CDATA[Nexus 1000]]></title>
  <g transform=" scale(3.000000) ">
    <!--converted by libvisio2svg-->
    <g>
      <!--emf-blob start-->
      <g>
        <path d="M 0,36.0137 L 44.8695,36.0137 L 44.8695,6.19900000000001 L 0,6.19900000000001 L 0,36.0137 Z " fill="#007EBA" stroke="#FFFFFF" stroke-width="0.8856" stroke-linecap="butt" stroke-linejoin="miter"/>
        <path d="M 50.183,28.3386 L 44.8695,36.0137 L 44.8695,6.19900000000001 L 50.183,0 L 50.183,28.3386 Z " fill="#007EBA" stroke="#FFFFFF" stroke-width="0.8856" stroke-linecap="butt" stroke-linejoin="miter"/>
        <path d="M 7.67509999999999,0 L 50.183,0 L 44.8695,6.19900000000001 L 0,6.19900000000001 L 7.67509999999999,0 Z " fill="#007EBA" stroke="#FFFFFF" stroke-width="0.8856" stroke-linecap="butt" stroke-linejoin="miter"/>
        <path d="M 21.5492,30.1098 L 21.5492,26.2722 L 22.73,26.2722 L 22.73,30.1098 L 24.7963,30.1098 L 22.1396,34.5377 L 19.778,30.1098 L 21.5492,30.1098 Z " fill="#FFFFFF" stroke-width="1px" stroke="#FFFFFF"/>
        <path d="M 7.67509999999999,29.2242 L 10.627,23.6155 L 9.44620000000003,23.0251 L 6.49430000000001,28.3386 L 4.42790000000002,27.1578 L 4.42790000000002,33.3569 L 9.44620000000003,30.405 L 7.67509999999999,29.2242 Z " fill="#FFFFFF" stroke-width="1px" stroke="#FFFFFF"/>
        <path d="M 37.1945,29.2242 L 33.9473,23.6155 L 35.4233,23.0251 L 38.3753,28.3386 L 40.4416,27.1578 L 40.4416,33.3569 L 35.1281,30.405 L 37.1945,29.2242 Z " fill="#FFFFFF" stroke-width="1px" stroke="#FFFFFF"/>
        <path d="M 29.5194,29.8146 L 28.3387,25.6819 L 29.5194,25.3867 L 30.7002,29.5194 L 32.4714,28.929 L 30.9954,33.6521 L 27.7483,30.1098 L 29.5194,29.8146 Z " fill="#FFFFFF" stroke-width="1px" stroke="#FFFFFF"/>
        <path d="M 15.0549,29.8146 L 16.2357,25.6819 L 15.0549,25.3867 L 14.1693,29.5194 L 12.103,28.929 L 13.5789,33.6521 L 17.1213,30.1098 L 15.0549,29.8146 Z " fill="#FFFFFF" stroke-width="1px" stroke="#FFFFFF"/>
        <path d="M 12.3982,13.5789 L 12.3982,19.778 L 10.9222,19.778 L 10.9222,13.5789 L 8.85579999999999,13.5789 L 11.8078,8.2654 L 14.7597,13.5789 L 12.3982,13.5789 Z " fill="#FFFFFF" stroke-width="1px" stroke="#FFFFFF"/>
        <path d="M 33.0618,13.5789 L 33.0618,19.778 L 31.5858,19.778 L 31.5858,13.5789 L 29.2242,13.5789 L 32.1762,8.2654 L 35.1281,13.5789 L 33.0618,13.5789 Z " fill="#FFFFFF" stroke-width="1px" stroke="#FFFFFF"/>
        <path d="M 27.7483,19.778 C 27.7483,22.7299 25.0915,25.0915 22.1396,25.0915 C 19.1876,25.0915 16.8261,22.7299 16.8261,19.778 C 16.8261,16.5308 19.1876,14.1693 22.1396,14.1693 C 25.0915,14.1693 27.7483,16.5308 27.7483,19.778 Z Z " fill="#007EBA" stroke="#FFFFFF" stroke-width="1.32835" stroke-linecap="butt" stroke-linejoin="miter"/>
      </g>
      <!--emf-blob end-->
    </g>
  </g>
</svg>

