<svg xmlns="http://www.w3.org/2000/svg" xmlns:xlink="http://www.w3.org/1999/xlink" version="1.1" viewBox="0 0 171 87" >
  <title><![CDATA[Nexus 2000 Fabric Extender]]></title>
  <g transform=" scale(3.000000) ">
    <!--converted by libvisio2svg-->
    <g>
      <!--emf-blob start-->
      <g>
        <path d="M 42.2141,27.454 L 42.2141,13.8746 L 0,13.8746 L 0,27.454 L 42.2141,27.454 Z " fill="#007EBA" stroke="#FFFFFF" stroke-width="0.8856" stroke-linecap="butt" stroke-linejoin="miter"/>
        <path d="M 0,13.8746 L 16.8266,0 L 56.3839,0 L 42.2141,13.8746 L 0,13.8746 Z " fill="#007EBA" stroke="#FFFFFF" stroke-width="0.8856" stroke-linecap="butt" stroke-linejoin="miter"/>
        <path d="M 42.2141,28.0444 L 56.0887,12.6938 L 56.0887,0.295199999999966 L 42.2141,13.8746 L 42.2141,28.0444 Z " fill="#007EBA" stroke="#FFFFFF" stroke-width="0.8856" stroke-linecap="butt" stroke-linejoin="miter"/>
        <path d="M 12.1033,12.1034 L 25.3875,1.47609999999997 Z " fill="#007EBA" stroke-width="1px" stroke="#007EBA"/>
        <path d="M 12.1033,12.1034 L 25.3875,1.47609999999997 " stroke="#FFFFFF" stroke-width="0.8856" stroke-linecap="butt" stroke-linejoin="miter" fill="none"/>
        <path d="M 22.7307,12.1034 L 35.7197,1.47609999999997 Z " fill="#007EBA" stroke-width="1px" stroke="#007EBA"/>
        <path d="M 22.7307,12.1034 L 35.7197,1.47609999999997 " stroke="#FFFFFF" stroke-width="0.8856" stroke-linecap="butt" stroke-linejoin="miter" fill="none"/>
        <path d="M 33.0628,12.1034 L 46.347,1.47609999999997 Z " fill="#007EBA" stroke-width="1px" stroke="#007EBA"/>
        <path d="M 33.0628,12.1034 L 46.347,1.47609999999997 " stroke="#FFFFFF" stroke-width="0.8856" stroke-linecap="butt" stroke-linejoin="miter" fill="none"/>
        <path d="M 17.417,3.54249999999996 L 48.7086,3.54249999999996 Z " fill="#007EBA" stroke-width="1px" stroke="#007EBA"/>
        <path d="M 17.417,3.54249999999996 L 48.7086,3.54249999999996 " stroke="#FFFFFF" stroke-width="0.8856" stroke-linecap="butt" stroke-linejoin="miter" fill="none"/>
        <path d="M 15.941,20.3691 L 8.26570000000004,20.3691 L 8.26570000000004,19.4835 L 5.31360000000001,20.6643 L 8.26570000000004,21.8451 L 8.26570000000004,20.9595 L 15.941,20.9595 L 15.941,20.3691 Z " fill="#FFFFFF" stroke-width="1px" stroke="#FFFFFF"/>
        <path d="M 20.6642000000001,22.7307 L 20.6642000000001,25.3876 L 18.5978,25.3876 L 21.5499,26.5684 L 24.5019,25.3876 L 22.4355,25.3876 L 22.4355,22.7307 L 20.6642000000001,22.7307 Z " fill="#FFFFFF" stroke-width="1px" stroke="#FFFFFF"/>
        <path d="M 20.6642000000001,18.8931 L 20.6642000000001,15.9411 L 18.5978,15.9411 L 21.5499,15.0554 L 24.5019,15.9411 L 22.4355,15.9411 L 22.4355,18.8931 L 20.6642000000001,18.8931 Z " fill="#FFFFFF" stroke-width="1px" stroke="#FFFFFF"/>
        <path d="M 26.8635,20.9595 L 34.834,20.9595 L 34.834,21.8451 L 37.7861,20.6643 L 34.834,19.4835 L 34.834,20.3691 L 26.8635,20.3691 L 26.8635,20.9595 Z " fill="#FFFFFF" stroke-width="1px" stroke="#FFFFFF"/>
        <path d="M 34.2436,25.0924 C 32.7676,25.6828 25.9779,24.2068 18.893,21.8451 C 12.1033,19.4835 7.67530000000005,16.8267 9.15130000000005,16.2363 C 10.6273,15.9411 17.417,17.4171 24.5019,19.7787 C 31.2916,22.1403 35.7197,24.502 34.2436,25.0924 Z Z " stroke="#FFFFFF" stroke-width="0.8856" stroke-linecap="butt" stroke-linejoin="miter" fill="none"/>
        <path d="M 33.9484,16.2363 C 35.4244,16.8267 30.9964000000001,19.1883 24.2067,21.8451 C 17.417,24.2068 10.6273,25.6828 8.85610000000003,25.0924 C 7.38010000000003,24.7972 11.8081,22.1403 18.5978,19.7787 C 25.3875,17.4171 32.1772,15.9411 33.9484,16.2363 Z Z " stroke="#FFFFFF" stroke-width="0.8856" stroke-linecap="butt" stroke-linejoin="miter" fill="none"/>
        <path d="M 24.7971,22.4355 C 27.4539,21.5499 28.0443,20.3691 26.2731,19.4835 C 24.2067,18.5979 20.6642000000001,18.3027 18.0074,18.8931 C 15.6458,19.4835 14.7602,20.9595 16.8266,21.8451 C 18.5978,22.7307 22.1403,23.026 24.7971,22.4355 Z Z " fill="#B5B5B5" stroke="none"/>
        <path d="M 45.7566,3.2473 L 45.7566,3.2473 " stroke="#FFFFFF" stroke-width="0" stroke-linecap="round" stroke-linejoin="round" fill="none"/>
        <path d="M 43.6902,0.885600000000011 L 43.6902,0.885600000000011 " stroke="#FFFFFF" stroke-width="0" stroke-linecap="round" stroke-linejoin="round" fill="none"/>
        <path d="M 33.0628,13.2842 L 33.0628,13.2842 " stroke="#FFFFFF" stroke-width="0" stroke-linecap="round" stroke-linejoin="round" fill="none"/>
        <path d="M 25.3875,3.54249999999996 C 25.0923,4.42809999999997 20.6642000000001,4.42809999999997 20.6642000000001,3.54249999999996 C 20.6642000000001,2.65690000000001 25.0923,2.36169999999998 25.3875,3.54249999999996 Z " fill="#FFFFFF" stroke="none"/>
        <path d="M 35.7197,3.54249999999996 C 35.4244,4.42809999999997 31.2916,4.42809999999997 31.2916,3.54249999999996 C 31.2916,2.65690000000001 35.7197,2.36169999999998 35.7197,3.54249999999996 Z " fill="#FFFFFF" stroke="none"/>
        <path d="M 46.347,3.54249999999996 C 46.0518,4.42809999999997 41.6237,4.42809999999997 41.6237,3.54249999999996 C 41.6237,2.65690000000001 46.0518,2.36169999999998 46.347,3.54249999999996 Z " fill="#FFFFFF" stroke="none"/>
        <path d="M 13.5794,6.78969999999998 L 44.5758,6.78969999999998 Z " fill="#007EBA" stroke-width="1px" stroke="#007EBA"/>
        <path d="M 13.5794,6.78969999999998 L 44.5758,6.78969999999998 " stroke="#FFFFFF" stroke-width="0.8856" stroke-linecap="butt" stroke-linejoin="miter" fill="none"/>
        <path d="M 21.2547,6.78969999999998 C 20.9595,7.67529999999999 16.8266,7.97049999999996 16.8266,6.78969999999998 C 16.8266,5.90409999999997 21.2547,5.90409999999997 21.2547,6.78969999999998 Z " fill="#FFFFFF" stroke="none"/>
        <path d="M 31.882,6.78969999999998 C 31.5868,7.67529999999999 27.1587,7.97049999999996 27.1587,6.78969999999998 C 27.1587,5.90409999999997 31.5868,5.90409999999997 31.882,6.78969999999998 Z " fill="#FFFFFF" stroke="none"/>
        <path d="M 42.2141,6.78969999999998 C 41.9189,7.67529999999999 37.7861,7.97049999999996 37.7861,6.78969999999998 C 37.7861,5.90409999999997 42.2141,5.90409999999997 42.2141,6.78969999999998 Z " fill="#FFFFFF" stroke="none"/>
        <path d="M 9.44650000000001,10.3322 L 40.7381,10.3322 Z " fill="#007EBA" stroke-width="1px" stroke="#007EBA"/>
        <path d="M 9.44650000000001,10.3322 L 40.7381,10.3322 " stroke="#FFFFFF" stroke-width="0.8856" stroke-linecap="butt" stroke-linejoin="miter" fill="none"/>
        <path d="M 16.8266,10.3322 C 16.5314,11.2178 12.1033,11.513 12.1033,10.3322 C 12.1033,9.44659999999999 16.5314,9.44659999999999 16.8266,10.3322 Z " fill="#FFFFFF" stroke="none"/>
        <path d="M 27.1587,10.3322 C 26.8635,11.2178 22.7307,11.513 22.7307,10.3322 C 22.7307,9.44659999999999 27.1587,9.44659999999999 27.1587,10.3322 Z " fill="#FFFFFF" stroke="none"/>
        <path d="M 37.7861,10.3322 C 37.4909,11.2178 33.0628,11.513 33.0628,10.3322 C 33.0628,9.44659999999999 37.4909,9.44659999999999 37.7861,10.3322 Z " fill="#FFFFFF" stroke="none"/>
      </g>
      <!--emf-blob end-->
    </g>
  </g>
</svg>

