<svg xmlns="http://www.w3.org/2000/svg" xmlns:xlink="http://www.w3.org/1999/xlink" version="1.1" viewBox="0 0 171 84" >
  <title><![CDATA[Nexus 5000]]></title>
  <g transform=" scale(3.000000) ">
    <!--converted by libvisio2svg-->
    <g>
      <!--emf-blob start-->
      <g>
        <path d="M 0,13.8761999999999 L 17.1239,0 L 56.3908,0 L 42.2193,13.8761999999999 L 0,13.8761999999999 Z " fill="#046897" stroke="#FFFFFF" stroke-width="0.44285" stroke-linecap="butt" stroke-linejoin="miter"/>
        <path d="M 38.6764,7.38099999999997 L 39.8574,6.19999999999993 L 43.105,7.67619999999999 L 37.2002,9.44759999999997 L 38.6764,7.67619999999999 L 28.0478,7.67619999999999 L 28.6383,7.38099999999997 L 38.6764,7.38099999999997 Z " fill="#000000" stroke-width="1px" stroke="#000000"/>
        <path d="M 32.4764,3.83809999999994 L 32.1811,4.13329999999996 L 21.2573,4.13329999999996 L 19.7811,5.3143 L 17.1239,4.13329999999996 L 23.3239,2.36189999999999 L 21.8477,3.83809999999994 L 32.4764,3.83809999999994 Z " fill="#000000" stroke-width="1px" stroke="#000000"/>
        <path d="M 26.5716,9.74289999999996 L 26.2763,10.0381 L 15.3525,10.0381 L 13.8763,11.2190999999999 L 10.9239,10.0381 L 17.4192,8.2666999999999 L 15.943,9.74289999999996 L 26.5716,9.74289999999996 Z " fill="#000000" stroke-width="1px" stroke="#000000"/>
        <path d="M 44.8764,2.36189999999999 L 45.7621,1.18089999999995 L 49.0098,2.6570999999999 L 43.4002,4.42859999999996 L 44.5812,2.6570999999999 L 33.9526,2.6570999999999 L 34.543,2.36189999999999 L 44.8764,2.36189999999999 Z " fill="#000000" stroke-width="1px" stroke="#000000"/>
        <path d="M 38.6764,7.67619999999999 L 39.8574,6.49519999999995 L 42.8097,7.9713999999999 L 36.905,9.44759999999997 L 38.3812,7.9713999999999 L 27.7525,7.9713999999999 L 28.343,7.67619999999999 L 38.6764,7.67619999999999 Z " fill="#FFFFFF" stroke-width="1px" stroke="#FFFFFF"/>
        <path d="M 32.1811,4.13329999999996 L 31.5906,4.42859999999996 L 21.2573,4.42859999999996 L 20.0763,5.60949999999991 L 17.1239,4.42859999999996 L 23.0287,2.6570999999999 L 21.5525,4.13329999999996 L 32.1811,4.13329999999996 Z " fill="#FFFFFF" stroke-width="1px" stroke="#FFFFFF"/>
        <path d="M 42.2193,27.1619999999999 L 56.3908,12.9905 L 56.3908,0 L 42.2193,13.8761999999999 L 42.2193,27.1619999999999 Z " fill="#046897" stroke="#FFFFFF" stroke-width="0.44285" stroke-linecap="butt" stroke-linejoin="miter"/>
        <path d="M 25.9811,10.0381 L 25.6859,10.3334 L 15.3525,10.3334 L 14.1715,11.5142999999999 L 11.2191,10.3334 L 17.1239,8.56189999999992 L 15.6477,10.0381 L 25.9811,10.0381 Z " fill="#FFFFFF" stroke-width="1px" stroke="#FFFFFF"/>
        <path d="M 44.8764,2.6570999999999 L 45.7621,1.77139999999997 L 48.7145,2.9523999999999 L 42.8097,4.42859999999996 L 44.2859,2.9523999999999 L 33.9526,2.9523999999999 L 34.2478,2.6570999999999 L 44.8764,2.6570999999999 Z " fill="#FFFFFF" stroke-width="1px" stroke="#FFFFFF"/>
        <path d="M 43.9907,3.24759999999992 L 42.8097,4.42859999999996 " stroke="#000000" stroke-width="0.44285" stroke-linecap="round" stroke-linejoin="round" fill="none"/>
        <path d="M 38.0859,8.2666999999999 L 36.6097,9.44759999999997 " stroke="#000000" stroke-width="0.44285" stroke-linecap="round" stroke-linejoin="round" fill="none"/>
        <path d="M 28.343,7.38099999999997 L 27.7525,7.9713999999999 " stroke="#000000" stroke-width="0.44285" stroke-linecap="round" stroke-linejoin="round" fill="none"/>
        <path d="M 34.543,2.36189999999999 L 33.9526,2.9523999999999 " stroke="#000000" stroke-width="0.44285" stroke-linecap="round" stroke-linejoin="round" fill="none"/>
        <path d="M 42.2193,27.4571999999999 L 42.2193,13.8761999999999 L 0,13.8761999999999 L 0,27.4571999999999 L 42.2193,27.4571999999999 Z " fill="#046897" stroke="#FFFFFF" stroke-width="0.44285" stroke-linecap="butt" stroke-linejoin="miter"/>
        <path d="M 15.6477,20.6667 L 7.97150000000002,20.6667 L 7.97150000000002,20.0762999999999 L 4.72390000000001,20.962 L 7.97150000000002,22.1428999999999 L 7.97150000000002,21.5525 L 15.6477,21.5525 L 15.6477,20.6667 Z " fill="#FFFFFF" stroke-width="1px" stroke="#FFFFFF"/>
        <path d="M 20.0763,23.0287 L 20.0763,25.6858 L 18.0096,25.6858 L 21.2573,26.8667999999999 L 24.2097,25.6858 L 22.143,25.6858 L 22.143,23.0287 L 20.0763,23.0287 Z " fill="#FFFFFF" stroke-width="1px" stroke="#FFFFFF"/>
        <path d="M 20.0763,19.1904999999999 L 20.0763,16.5333999999999 L 18.0096,16.5333999999999 L 21.2573,15.3524 L 24.2097,16.5333999999999 L 22.143,16.5333999999999 L 22.143,19.1904999999999 L 20.0763,19.1904999999999 Z " fill="#FFFFFF" stroke-width="1px" stroke="#FFFFFF"/>
        <path d="M 26.5716,21.5525 L 34.543,21.5525 L 34.543,22.1428999999999 L 37.4954,20.962 L 34.543,20.0762999999999 L 34.543,20.6667 L 26.5716,20.6667 L 26.5716,21.5525 Z " fill="#FFFFFF" stroke-width="1px" stroke="#FFFFFF"/>
        <path d="M 33.9526,25.6858 C 32.4764,26.2763 25.6859,24.5048999999999 18.6001,22.1428999999999 C 11.8096,19.7809999999999 7.381,17.4191 8.85720000000001,16.8285999999999 C 10.3334,16.2380999999999 17.1239,17.7143 23.9144,20.0762999999999 C 31.0002,22.7334 35.4288,25.0953 33.9526,25.6858 Z Z " stroke="#FFFFFF" stroke-width="0.44285" stroke-linecap="butt" stroke-linejoin="miter" fill="none"/>
        <path d="M 33.3621,16.8285999999999 C 35.1335,17.1238999999999 30.7049,19.7809999999999 23.9144,22.1428999999999 C 17.1239,24.5048999999999 10.0382,25.9811 8.56200000000001,25.6858 C 7.08580000000001,25.0953 11.2191,22.7334 18.3049,20.0762999999999 C 25.0954,17.7143 31.8859,16.2380999999999 33.3621,16.8285999999999 Z Z " stroke="#FFFFFF" stroke-width="0.44285" stroke-linecap="butt" stroke-linejoin="miter" fill="none"/>
        <path d="M 24.5049,22.7334 C 26.8668,22.1428999999999 27.7525,20.6667 25.6859,19.7809999999999 C 23.9144,18.8952999999999 20.3715,18.6001 17.7144,19.4857999999999 C 15.0572,20.0762999999999 14.4668,21.2571999999999 16.2382,22.1428999999999 C 18.3049,23.0287 21.8477,23.3239 24.5049,22.7334 Z Z " fill="#B5B5B5" stroke="none"/>
      </g>
      <!--emf-blob end-->
    </g>
  </g>
</svg>

