<svg xmlns="http://www.w3.org/2000/svg" xmlns:xlink="http://www.w3.org/1999/xlink" version="1.1" viewBox="0 0 129 132" >
  <title><![CDATA[Optical transport]]></title>
  <g transform=" scale(3.000000) ">
    <!--converted by libvisio2svg-->
    <g>
      <!--emf-blob start-->
      <g>
        <path d="M 42.808,8.26639999999998 C 42.808,12.99 33.0655,16.5327 21.2564,16.5327 C 9.44729999999998,16.5327 0,12.99 0,8.26639999999998 C 0,34.8368 0,34.8368 0,34.8368 C 0,39.5605 9.44729999999998,43.1032 21.2564,43.1032 C 33.0655,43.1032 42.808,39.5605 42.808,34.8368 Z Z " fill="#0E6F9C" stroke="#FFFFFF" stroke-width="0.8857" stroke-linecap="butt" stroke-linejoin="miter"/>
        <path d="M 21.2564,16.828 C 33.0655,16.828 42.808,12.99 42.808,8.26639999999998 C 42.808,3.83799999999997 33.0655,0 21.2564,0 C 9.44729999999998,0 0,3.83799999999997 0,8.26639999999998 C 0,12.99 9.44729999999998,16.828 21.2564,16.828 Z Z " fill="#0E6F9C" stroke="#FFFFFF" stroke-width="0.8857" stroke-linecap="butt" stroke-linejoin="miter"/>
        <path d="M 16.2375,3.54269999999997 L 25.0943,2.65709999999996 L 23.323,5.3141 L 21.2564,5.01889999999997 L 7.97109999999998,10.0377 L 5.60929999999996,9.15209999999996 L 18.5993,4.42839999999995 L 16.2375,3.54269999999997 Z " fill="#FFFFFF" stroke-width="1px" stroke="#FFFFFF"/>
        <path d="M 26.5705,6.49499999999995 L 35.132,5.60929999999996 L 33.6559,8.5616 L 31.2941,7.97109999999998 L 18.3041,12.99 L 15.9423,12.3996 L 28.6371,7.38069999999999 L 26.5705,6.49499999999995 Z " fill="#FFFFFF" stroke-width="1px" stroke="#FFFFFF"/>
        <path d="M 12.6948,40.1509 L 12.6948,34.5416 L 9.15209999999996,37.1986 L 12.6948,40.1509 Z " fill="#FFFFFF" stroke-width="1px" stroke="#FFFFFF"/>
        <path d="M 28.9323,18.3040999999999 L 28.9323,23.9134 L 32.475,21.2564 L 28.9323,18.3040999999999 Z " fill="#FFFFFF" stroke-width="1px" stroke="#FFFFFF"/>
        <path d="M 12.6948,24.2086 L 12.6948,18.5993 L 9.15209999999996,21.2564 L 12.6948,24.2086 Z " fill="#FFFFFF" stroke-width="1px" stroke="#FFFFFF"/>
        <path d="M 31.2941,37.1986 L 25.3896,37.1986 L 17.4184,21.2564 L 11.2186,21.2564 " stroke="#FFFFFF" stroke-width="2.65705" stroke-linecap="butt" stroke-linejoin="miter" fill="none"/>
        <path d="M 11.5139,37.1986 L 17.1232,37.1986 L 24.7991,21.2564 L 30.9989,21.2564 " stroke="#FFFFFF" stroke-width="2.65705" stroke-linecap="butt" stroke-linejoin="miter" fill="none"/>
        <path d="M 28.9323,34.2464 L 28.9323,40.1509 L 32.475,37.1986 L 28.9323,34.2464 Z " fill="#FFFFFF" stroke-width="1px" stroke="#FFFFFF"/>
      </g>
      <!--emf-blob end-->
    </g>
  </g>
</svg>

