<svg xmlns="http://www.w3.org/2000/svg" xmlns:xlink="http://www.w3.org/1999/xlink" version="1.1" viewBox="0 0 123 108" >
  <title><![CDATA[Optical services router]]></title>
  <g transform=" scale(3.000000) ">
    <!--converted by libvisio2svg-->
    <g>
      <!--emf-blob start-->
      <g>
        <path d="M 40.7273,7.67320000000001 L 40.7273,27.7417 L 30.9881999999999,35.7101 L 10.3294,35.7101 L 0,27.7417 L 0,7.67320000000001 Z " fill="#0E6F9C" stroke-width="1px" stroke="#0E6F9C"/>
        <path d="M 40.7273,7.67320000000001 L 40.7273,27.7417 L 30.9881999999999,35.7101 L 10.3294,35.7101 L 0,27.7417 L 0,7.67320000000001 " stroke="#FFFFFF" stroke-width="0.88535" stroke-linecap="butt" stroke-linejoin="miter" fill="none"/>
        <path d="M 30.693,0 L 10.6245,0 L 0,7.67320000000001 L 10.3294,15.6416 L 30.9881999999999,15.6416 L 40.7273,7.67320000000001 L 30.693,0 Z " fill="#0E6F9C" stroke="#FFFFFF" stroke-width="0.88535" stroke-linecap="butt" stroke-linejoin="miter"/>
        <path d="M 10.0343,35.4149 L 10.0343,15.6416 " stroke="#FFFFFF" stroke-width="0.88535" stroke-linecap="butt" stroke-linejoin="miter" fill="none"/>
        <path d="M 30.9881999999999,35.4149 L 30.9881999999999,15.6416 " stroke="#FFFFFF" stroke-width="0.88535" stroke-linecap="butt" stroke-linejoin="miter" fill="none"/>
        <path d="M 20.6588,2.06579999999997 L 20.6588,13.5757 " stroke="#FFFFFF" stroke-width="0.88535" stroke-linecap="butt" stroke-linejoin="miter" fill="none"/>
        <path d="M 31.5784,7.67320000000001 L 10.6245,7.67320000000001 " stroke="#FFFFFF" stroke-width="0.88535" stroke-linecap="butt" stroke-linejoin="miter" fill="none"/>
        <path d="M 10.6245,2.65609999999998 L 15.6417,2.65609999999998 L 26.5613,13.5757 L 30.9881999999999,13.5757 " stroke="#FFFFFF" stroke-width="0.88535" stroke-linecap="butt" stroke-linejoin="miter" fill="none"/>
        <path d="M 30.9881999999999,2.65609999999998 L 26.5613,2.65609999999998 L 15.6417,13.5757 L 10.6245,13.5757 " stroke="#FFFFFF" stroke-width="0.88535" stroke-linecap="butt" stroke-linejoin="miter" fill="none"/>
        <path d="M 31.5784,7.67320000000001 L 10.6245,7.67320000000001 " stroke="#FFFFFF" stroke-width="0.88535" stroke-linecap="butt" stroke-linejoin="miter" fill="none"/>
        <path d="M 10.6245,2.65609999999998 L 15.6417,2.65609999999998 L 26.5613,13.5757 L 30.9881999999999,13.5757 " stroke="#FFFFFF" stroke-width="0.88535" stroke-linecap="butt" stroke-linejoin="miter" fill="none"/>
        <path d="M 30.9881999999999,2.65609999999998 L 26.5613,2.65609999999998 L 15.6417,13.5757 L 10.6245,13.5757 " stroke="#FFFFFF" stroke-width="0.88535" stroke-linecap="butt" stroke-linejoin="miter" fill="none"/>
        <path d="M 20.6588,2.06579999999997 L 20.6588,14.1659 " stroke="#FFFFFF" stroke-width="0.88535" stroke-linecap="butt" stroke-linejoin="miter" fill="none"/>
        <path d="M 20.6588,2.06579999999997 L 20.6588,13.5757 " stroke="#FFFFFF" stroke-width="0.88535" stroke-linecap="butt" stroke-linejoin="miter" fill="none"/>
        <path d="M 31.5784,7.67320000000001 L 10.6245,7.67320000000001 " stroke="#FFFFFF" stroke-width="0.88535" stroke-linecap="butt" stroke-linejoin="miter" fill="none"/>
        <path d="M 10.6245,2.65609999999998 L 15.6417,2.65609999999998 L 26.5613,13.5757 L 30.9881999999999,13.5757 " stroke="#FFFFFF" stroke-width="0.88535" stroke-linecap="butt" stroke-linejoin="miter" fill="none"/>
        <path d="M 30.9881999999999,2.65609999999998 L 26.5613,2.65609999999998 L 15.6417,13.5757 L 10.6245,13.5757 " stroke="#FFFFFF" stroke-width="0.88535" stroke-linecap="butt" stroke-linejoin="miter" fill="none"/>
        <path d="M 10.6245,2.65609999999998 L 15.6417,2.65609999999998 L 26.5613,13.5757 L 30.9881999999999,13.5757 " stroke="#FFFFFF" stroke-width="0.88535" stroke-linecap="butt" stroke-linejoin="miter" fill="none"/>
        <path d="M 30.9881999999999,2.65609999999998 L 26.5613,2.65609999999998 L 15.6417,13.5757 L 10.6245,13.5757 " stroke="#FFFFFF" stroke-width="0.88535" stroke-linecap="butt" stroke-linejoin="miter" fill="none"/>
        <path d="M 31.5784,7.67320000000001 L 10.6245,7.67320000000001 " stroke="#FFFFFF" stroke-width="0.88535" stroke-linecap="butt" stroke-linejoin="miter" fill="none"/>
        <path d="M 10.6245,2.65609999999998 L 15.6417,2.65609999999998 L 26.5613,13.5757 L 30.9881999999999,13.5757 " stroke="#FFFFFF" stroke-width="0.88535" stroke-linecap="butt" stroke-linejoin="miter" fill="none"/>
        <path d="M 30.9881999999999,2.65609999999998 L 26.5613,2.65609999999998 L 15.6417,13.5757 L 10.6245,13.5757 " stroke="#FFFFFF" stroke-width="0.88535" stroke-linecap="butt" stroke-linejoin="miter" fill="none"/>
        <path d="M 10.6245,2.65609999999998 L 15.6417,2.65609999999998 L 26.5613,13.5757 L 30.9881999999999,13.5757 " stroke="#FFFFFF" stroke-width="0.88535" stroke-linecap="butt" stroke-linejoin="miter" fill="none"/>
        <path d="M 30.9881999999999,2.65609999999998 L 26.5613,2.65609999999998 L 15.6417,13.5757 L 10.6245,13.5757 " stroke="#FFFFFF" stroke-width="0.88535" stroke-linecap="butt" stroke-linejoin="miter" fill="none"/>
        <path d="M 20.6588,2.06579999999997 L 20.6588,14.1659 " stroke="#FFFFFF" stroke-width="0.88535" stroke-linecap="butt" stroke-linejoin="miter" fill="none"/>
        <path d="M 22.1344,27.1514 L 18.2978,27.1514 L 18.2978,23.6099 L 22.1344,23.6099 L 22.1344,27.1514 Z " fill="#FFFFFF" stroke-width="1px" stroke="#FFFFFF"/>
        <path d="M 26.5613,25.0856 L 21.249,25.0856 " stroke="#FFFFFF" stroke-width="1.77075" stroke-linecap="butt" stroke-linejoin="miter" fill="none"/>
        <path d="M 29.5125,25.0856 L 24.4954,27.1514 L 25.6759,25.0856 L 24.4954,23.0197 L 29.5125,25.0856 Z " fill="#FFFFFF" stroke-width="1px" stroke="#FFFFFF"/>
        <path d="M 14.166,25.0856 L 18.5929,25.0856 " stroke="#FFFFFF" stroke-width="1.77075" stroke-linecap="butt" stroke-linejoin="miter" fill="none"/>
        <path d="M 16.2319,23.0197 L 15.0514,25.0856 L 16.2319,27.1514 L 11.2148,25.0856 L 16.2319,23.0197 Z " fill="#FFFFFF" stroke-width="1px" stroke="#FFFFFF"/>
        <path d="M 20.3637,19.4782 L 20.3637,24.7904 " stroke="#FFFFFF" stroke-width="1.77075" stroke-linecap="butt" stroke-linejoin="miter" fill="none"/>
        <path d="M 20.3637,16.8221 L 22.4295,21.8392 L 20.3637,20.6587 L 18.2978,21.8392 L 20.3637,16.8221 Z " fill="#FFFFFF" stroke-width="1px" stroke="#FFFFFF"/>
        <path d="M 20.3637,31.5783 L 20.3637,26.5612 " stroke="#FFFFFF" stroke-width="1.77075" stroke-linecap="butt" stroke-linejoin="miter" fill="none"/>
        <path d="M 18.2978,29.5124 L 20.3637,30.6929 L 22.1344,29.5124 L 20.3637,34.5296 L 18.2978,29.5124 Z " fill="#FFFFFF" stroke-width="1px" stroke="#FFFFFF"/>
      </g>
      <!--emf-blob end-->
    </g>
  </g>
</svg>

