<svg xmlns="http://www.w3.org/2000/svg" xmlns:xlink="http://www.w3.org/1999/xlink" version="1.1" viewBox="0 0 150 120" >
  <title><![CDATA[PAD x.28]]></title>
  <g transform=" scale(3.000000) ">
    <!--converted by libvisio2svg-->
    <g>
      <!--emf-blob start-->
      <g>
        <path d="M 49.0157,18.8977 L 15.9448,0 L 12.9921,2.06700000000001 L 15.9448,37.7953 L 49.0157,18.8977 Z " fill="#0F73A0" stroke="#FFFFFF" stroke-width="0.88585" stroke-linecap="butt" stroke-linejoin="miter"/>
        <path d="M 14.4685,8.56299999999999 L 14.4685,10.63 L 0,10.63 L 0,8.56299999999999 L 14.4685,8.56299999999999 Z " fill="#0F73A0" stroke-width="1px" stroke="#0F73A0"/>
        <path d="M 13.5826,10.3347 L 16.2401,7.67719999999997 Z " fill="#000000" stroke-width="1px" stroke="#000000"/>
        <path d="M 13.5826,10.3347 L 16.2401,7.67719999999997 " stroke="#FFFFFF" stroke-width="0.88585" stroke-linecap="butt" stroke-linejoin="miter" fill="none"/>
        <path d="M 14.4685,15.0591 L 14.4685,17.126 L 0,17.126 L 0,15.0591 L 14.4685,15.0591 Z " fill="#0F73A0" stroke-width="1px" stroke="#0F73A0"/>
        <path d="M 13.5826,16.8308 L 16.2401,14.1733 Z " fill="#000000" stroke-width="1px" stroke="#000000"/>
        <path d="M 13.5826,16.8308 L 16.2401,14.1733 " stroke="#FFFFFF" stroke-width="0.88585" stroke-linecap="butt" stroke-linejoin="miter" fill="none"/>
        <path d="M 14.4685,21.5552 L 14.4685,23.6221 L 0,23.6221 L 0,21.5552 L 14.4685,21.5552 Z " fill="#0F73A0" stroke-width="1px" stroke="#0F73A0"/>
        <path d="M 13.5826,23.3268 L 16.2401,20.6693 Z " fill="#000000" stroke-width="1px" stroke="#000000"/>
        <path d="M 13.5826,23.3268 L 16.2401,20.6693 " stroke="#FFFFFF" stroke-width="0.88585" stroke-linecap="butt" stroke-linejoin="miter" fill="none"/>
        <path d="M 14.4685,28.0512 L 14.4685,30.1182 L 0,30.1182 L 0,28.0512 L 14.4685,28.0512 Z " fill="#0F73A0" stroke-width="1px" stroke="#0F73A0"/>
        <path d="M 13.5826,29.8229 L 16.2401,27.1654 Z " fill="#000000" stroke-width="1px" stroke="#000000"/>
        <path d="M 13.5826,29.8229 L 16.2401,27.1654 " stroke="#FFFFFF" stroke-width="0.88585" stroke-linecap="butt" stroke-linejoin="miter" fill="none"/>
        <path d="M 45.4724,20.6693 L 12.4015,1.77170000000001 L 12.4015,39.567 L 45.4724,20.6693 Z " fill="#0F73A0" stroke="#FFFFFF" stroke-width="0.88585" stroke-linecap="butt" stroke-linejoin="miter"/>
        <g transform=" scale(3.000000) ">
          <text font-family="Helvetica" fill="#FFFFFF" style="white-space:pre;" font-weight="700" text-anchor="start" x="0.0000" y="0.0000" font-size="9.4488"><![CDATA[P]]></text>
        </g>
        <g transform=" scale(3.000000) ">
</g>
        <g transform=" scale(3.000000) ">
          <text font-family="Helvetica" fill="#FFFFFF" style="white-space:pre;" font-weight="700" text-anchor="start" x="0.0000" y="0.0000" font-size="9.4488"><![CDATA[AD]]></text>
        </g>
        <g transform=" scale(3.000000) ">
</g>
      </g>
      <!--emf-blob end-->
    </g>
  </g>
</svg>

