<svg xmlns="http://www.w3.org/2000/svg" xmlns:xlink="http://www.w3.org/1999/xlink" version="1.1" viewBox="0 0 99 99" >
  <title><![CDATA[PBX]]></title>
  <g transform=" scale(3.000000) ">
    <!--converted by libvisio2svg-->
    <g>
      <!--emf-blob start-->
      <g>
        <path d="M 26.8814,32.494 L 26.8814,5.31720000000001 L 0,5.31720000000001 L 0,32.494 L 26.8814,32.494 Z " fill="#0F73A0" stroke="#FFFFFF" stroke-width="0.4431" stroke-linecap="butt" stroke-linejoin="miter"/>
        <path d="M 22.4504,15.0654 L 22.4504,20.9734 L 25.9952,18.0194 L 22.4504,15.0654 Z " fill="#000000" stroke-width="1px" stroke="#000000"/>
        <path d="M 11.5206,10.0436 L 17.4286,10.0436 L 14.4746,6.49880000000002 L 11.5206,10.0436 Z " fill="#000000" stroke-width="1px" stroke="#000000"/>
        <path d="M 17.4286,27.1768 L 11.5206,27.1768 L 14.4746,30.7216 L 17.4286,27.1768 Z " fill="#000000" stroke-width="1px" stroke="#000000"/>
        <path d="M 5.61259999999999,21.5642 L 5.61259999999999,15.6562 L 2.06779999999998,18.6102 L 5.61259999999999,21.5642 Z " fill="#000000" stroke-width="1px" stroke="#000000"/>
        <path d="M 21.8596,15.6562 L 21.8596,21.5642 L 25.4044,18.6102 L 21.8596,15.6562 Z " fill="#FFFFFF" stroke="#FFFFFF" stroke-width="0.4431" stroke-linecap="butt" stroke-linejoin="miter"/>
        <path d="M 10.9298,10.6344 L 16.8378,10.6344 L 13.8838,7.08960000000002 L 10.9298,10.6344 Z " fill="#FFFFFF" stroke="#FFFFFF" stroke-width="0.4431" stroke-linecap="butt" stroke-linejoin="miter"/>
        <path d="M 16.8378,27.7676 L 10.9298,27.7676 L 13.8838,31.6078 L 16.8378,27.7676 Z " fill="#FFFFFF" stroke="#FFFFFF" stroke-width="0.4431" stroke-linecap="butt" stroke-linejoin="miter"/>
        <path d="M 5.02179999999998,22.155 L 5.02179999999998,16.247 L 1.47699999999998,19.201 L 5.02179999999998,22.155 Z " fill="#FFFFFF" stroke="#FFFFFF" stroke-width="0.4431" stroke-linecap="butt" stroke-linejoin="miter"/>
        <path d="M 26.8814,5.31720000000001 L 0.295399999999972,5.31720000000001 L 6.79419999999999,0 L 32.494,0 L 32.494,0 L 32.494,0 L 26.8814,5.31720000000001 L 26.8814,5.31720000000001 L 26.8814,5.31720000000001 Z " fill="#0F73A0" stroke="#FFFFFF" stroke-width="0.4431" stroke-linecap="butt" stroke-linejoin="miter"/>
        <path d="M 32.494,27.1768 L 32.494,0 L 26.8814,5.31720000000001 L 26.8814,32.494 L 32.494,27.1768 Z " fill="#0F73A0" stroke="#FFFFFF" stroke-width="0.4431" stroke-linecap="butt" stroke-linejoin="miter"/>
        <path d="M 18.0194,15.0654 C 18.0194,17.4286 18.0194,17.4286 18.0194,17.4286 C 20.9734,17.4286 20.9734,17.4286 20.9734,17.4286 C 20.9734,15.9516 20.9734,15.9516 20.9734,15.9516 C 20.9734,13.293 17.724,12.1114 13.8838,12.1114 C 13.8838,12.1114 13.8838,12.1114 13.8838,12.1114 C 10.0436,12.1114 6.79419999999999,13.293 6.79419999999999,15.9516 C 6.79419999999999,17.4286 6.79419999999999,17.4286 6.79419999999999,17.4286 C 9.7482,17.4286 9.7482,17.4286 9.7482,17.4286 C 9.7482,15.0654 9.7482,15.0654 9.7482,15.0654 C 13.5884,10.0436 18.0194,15.0654 18.0194,15.0654 Z Z " fill="#000000" stroke="none"/>
        <path d="M 14.4746,14.4746 L 16.8378,14.4746 L 16.8378,17.1332 L 19.7918,19.4964 L 19.7918,25.109 L 14.4746,25.109 L 13.293,25.109 L 7.97579999999999,25.109 L 7.97579999999999,19.4964 L 10.9298,17.1332 L 10.9298,14.4746 L 13.293,14.4746 L 14.4746,14.4746 Z " fill="#000000" stroke-width="1px" stroke="#000000"/>
        <path d="M 18.0194,15.9516 C 18.0194,18.0194 18.0194,18.0194 18.0194,18.0194 C 20.9734,18.0194 20.9734,18.0194 20.9734,18.0194 C 20.9734,16.5424 20.9734,16.5424 20.9734,16.5424 C 20.9734,13.8838 17.724,12.7022 13.8838,12.7022 C 13.8838,12.7022 13.8838,12.7022 13.8838,12.7022 C 10.0436,12.7022 6.79419999999999,13.8838 6.79419999999999,16.5424 C 6.79419999999999,18.0194 6.79419999999999,18.0194 6.79419999999999,18.0194 C 9.7482,18.0194 9.7482,18.0194 9.7482,18.0194 C 9.7482,15.9516 9.7482,15.9516 9.7482,15.9516 C 13.5884,10.9298 18.0194,15.9516 18.0194,15.9516 Z Z " fill="#FFFFFF" stroke="none"/>
        <path d="M 14.4746,15.0654 L 16.8378,15.0654 L 16.8378,18.0194 L 19.7918,20.3826 L 19.7918,25.6998 L 14.4746,25.6998 L 13.293,25.6998 L 7.97579999999999,25.6998 L 7.97579999999999,20.3826 L 10.9298,18.0194 L 10.9298,15.0654 L 13.293,15.0654 L 14.4746,15.0654 Z " fill="#FFFFFF" stroke-width="1px" stroke="#FFFFFF"/>
      </g>
      <!--emf-blob end-->
    </g>
  </g>
</svg>

