<svg xmlns="http://www.w3.org/2000/svg" xmlns:xlink="http://www.w3.org/1999/xlink" version="1.1" viewBox="0 0 99 90" >
  <title><![CDATA[PBX switch]]></title>
  <g transform=" scale(3.000000) ">
    <!--converted by libvisio2svg-->
    <g>
      <!--emf-blob start-->
      <g>
        <path d="M 26.8574,29.5136 L 32.465,23.6109 L 32.465,0 L 5.90269999999998,0 L 0,5.90269999999998 L 26.8574,5.90269999999998 L 26.8574,29.5136 Z " fill="#0F73A0" stroke="#FFFFFF" stroke-width="0.8854" stroke-linecap="butt" stroke-linejoin="miter"/>
        <path d="M 26.8574,5.90269999999998 L 32.465,0 Z " fill="#0F73A0" stroke-width="1px" stroke="#0F73A0"/>
        <path d="M 26.8574,5.90269999999998 L 32.465,0 " stroke="#FFFFFF" stroke-width="0.8854" stroke-linecap="butt" stroke-linejoin="miter" fill="none"/>
        <path d="M 26.8574,29.5136 L 26.8574,5.90269999999998 L 0,5.90269999999998 L 0,29.5136 L 26.8574,29.5136 Z " fill="#0F73A0" stroke="#FFFFFF" stroke-width="0.8854" stroke-linecap="butt" stroke-linejoin="miter"/>
        <path d="M 26.8574,17.7081 L 0,17.7081 " stroke="#FFFFFF" stroke-width="0.8854" stroke-linecap="butt" stroke-linejoin="miter" fill="none"/>
        <path d="M 2.65619999999996,20.6595 L 9.14920000000001,20.6595 Z " fill="#000000" stroke-width="1px" stroke="#000000"/>
        <path d="M 2.65619999999996,20.6595 L 9.14920000000001,20.6595 " stroke="#FFFFFF" stroke-width="0.8854" stroke-linecap="butt" stroke-linejoin="miter" fill="none"/>
        <path d="M 2.65619999999996,22.1352 L 9.14920000000001,22.1352 Z " fill="#000000" stroke-width="1px" stroke="#000000"/>
        <path d="M 2.65619999999996,22.1352 L 9.14920000000001,22.1352 " stroke="#FFFFFF" stroke-width="0.8854" stroke-linecap="butt" stroke-linejoin="miter" fill="none"/>
        <path d="M 2.65619999999996,23.6109 L 9.14920000000001,23.6109 Z " fill="#000000" stroke-width="1px" stroke="#000000"/>
        <path d="M 2.65619999999996,23.6109 L 9.14920000000001,23.6109 " stroke="#FFFFFF" stroke-width="0.8854" stroke-linecap="butt" stroke-linejoin="miter" fill="none"/>
        <path d="M 2.65619999999996,25.0865 L 9.14920000000001,25.0865 Z " fill="#000000" stroke-width="1px" stroke="#000000"/>
        <path d="M 2.65619999999996,25.0865 L 9.14920000000001,25.0865 " stroke="#FFFFFF" stroke-width="0.8854" stroke-linecap="butt" stroke-linejoin="miter" fill="none"/>
        <path d="M 2.65619999999996,26.2671 L 9.14920000000001,26.2671 Z " fill="#000000" stroke-width="1px" stroke="#000000"/>
        <path d="M 2.65619999999996,26.2671 L 9.14920000000001,26.2671 " stroke="#FFFFFF" stroke-width="0.8854" stroke-linecap="butt" stroke-linejoin="miter" fill="none"/>
      </g>
      <!--emf-blob end-->
    </g>
  </g>
</svg>

