<svg xmlns="http://www.w3.org/2000/svg" xmlns:xlink="http://www.w3.org/1999/xlink" version="1.1" viewBox="0 0 132 117" >
  <title><![CDATA[PC]]></title>
  <g transform=" scale(3.000000) ">
    <!--converted by libvisio2svg-->
    <g>
      <!--emf-blob start-->
      <g>
        <path d="M 37.1981,33.3602 L 37.1981,26.2748 L 0,26.2748 L 0,33.3602 L 37.1981,33.3602 Z " fill="#0F73A0" stroke="#FFFFFF" stroke-width="0.88565" stroke-linecap="butt" stroke-linejoin="miter"/>
        <path d="M 25.6844,30.1127 L 35.1316,30.1127 Z " fill="#0B719F" stroke-width="1px" stroke="#0B719F"/>
        <path d="M 25.6844,30.1127 L 35.1316,30.1127 " stroke="#FFFFFF" stroke-width="0.88565" stroke-linecap="butt" stroke-linejoin="miter" fill="none"/>
        <path d="M 25.6844,29.8175 L 35.1316,29.8175 Z " fill="#0B719F" stroke-width="1px" stroke="#0B719F"/>
        <path d="M 25.6844,29.8175 L 35.1316,29.8175 " stroke="#FFFFFF" stroke-width="0.88565" stroke-linecap="butt" stroke-linejoin="miter" fill="none"/>
        <path d="M 43.3978,26.5701 L 43.3978,20.3704 L 37.1981,26.2748 L 37.1981,33.3602 L 43.3978,26.5701 Z " fill="#0F73A0" stroke="#FFFFFF" stroke-width="0.88565" stroke-linecap="butt" stroke-linejoin="miter"/>
        <path d="M 30.7032,38.9694 L 30.7032,37.4933 L 33.9507,32.7697 L 33.9507,35.722 L 30.7032,38.9694 Z " fill="#0F73A0" stroke="#FFFFFF" stroke-width="0.88565" stroke-linecap="butt" stroke-linejoin="miter"/>
        <path d="M 30.7032,37.4933 L 30.7032,38.9694 L 0.885699999999986,38.9694 L 0.885699999999986,37.4933 L 30.7032,37.4933 Z " fill="#0F73A0" stroke="#FFFFFF" stroke-width="0.88565" stroke-linecap="butt" stroke-linejoin="miter"/>
        <path d="M 30.7032,37.4933 L 0.885699999999986,37.4933 L 4.13309999999996,32.7697 L 33.9507,32.7697 L 30.7032,37.4933 Z " fill="#0F73A0" stroke="#FFFFFF" stroke-width="0.88565" stroke-linecap="butt" stroke-linejoin="miter"/>
        <path d="M 43.3978,20.3704 L 6.19970000000001,20.3704 L 0,26.2748 L 37.1981,26.2748 L 43.3978,20.3704 Z " fill="#0F73A0" stroke="#FFFFFF" stroke-width="0.88565" stroke-linecap="butt" stroke-linejoin="miter"/>
        <path d="M 32.1793,22.7322 L 32.1793,4.13310000000001 L 6.79019999999997,4.13310000000001 L 6.79019999999997,22.7322 L 32.1793,22.7322 Z " fill="#0F73A0" stroke="#FFFFFF" stroke-width="0.88565" stroke-linecap="butt" stroke-linejoin="miter"/>
        <path d="M 8.85669999999999,8.26620000000003 C 8.85669999999999,6.19970000000001 10.628,5.90450000000004 10.628,5.90450000000004 C 10.628,5.90450000000004 25.9796,5.90450000000004 27.751,5.90450000000004 C 30.1128,5.90450000000004 30.1128,8.26620000000003 30.1128,8.26620000000003 C 30.1128,8.26620000000003 30.1128,17.4182 30.1128,18.8943 C 30.1128,20.0752 28.0462,20.6656 28.0462,20.6656 C 28.0462,20.6656 12.6946,20.6656 10.9233,20.6656 C 9.44720000000001,20.6656 8.85669999999999,18.8943 8.85669999999999,18.8943 Z Z " fill="#0F73A0" stroke="#FFFFFF" stroke-width="0.88565" stroke-linecap="butt" stroke-linejoin="miter"/>
        <path d="M 36.6077,0 L 10.9233,0 L 6.79019999999997,4.13310000000001 L 32.1793,4.13310000000001 L 36.6077,0 Z " fill="#0F73A0" stroke="#FFFFFF" stroke-width="0.88565" stroke-linecap="butt" stroke-linejoin="miter"/>
        <path d="M 36.6077,18.8943 L 36.6077,0 L 32.1793,4.13310000000001 L 32.1793,22.7322 L 36.6077,18.8943 Z " fill="#0B719F" stroke="#FFFFFF" stroke-width="0.88565" stroke-linecap="butt" stroke-linejoin="miter"/>
      </g>
      <!--emf-blob end-->
    </g>
  </g>
</svg>

