<svg xmlns="http://www.w3.org/2000/svg" xmlns:xlink="http://www.w3.org/1999/xlink" version="1.1" viewBox="0 0 108 144" >
  <title><![CDATA[PC adapter card]]></title>
  <g transform=" scale(3.000000) ">
    <!--converted by libvisio2svg-->
    <g>
      <!--emf-blob start-->
      <g>
        <path d="M 16.8234,45.1574 L 16.8234,32.171 L 13.8719,35.1224 L 13.8719,47.8137 L 16.8234,45.1574 Z " fill="#000000" stroke="#FFFFFF" stroke-width="0.88545" stroke-linecap="butt" stroke-linejoin="miter"/>
        <path d="M 13.8719,47.8137 L 13.8719,35.1224 L 0,35.1224 L 0,47.8137 L 13.8719,47.8137 Z " fill="#0E6F9C" stroke="#FFFFFF" stroke-width="0.88545" stroke-linecap="butt" stroke-linejoin="miter"/>
        <path d="M 29.2196,47.8137 L 29.2196,35.1224 L 15.0525,35.1224 L 15.0525,47.8137 L 29.2196,47.8137 Z " fill="#0E6F9C" stroke="#FFFFFF" stroke-width="0.88545" stroke-linecap="butt" stroke-linejoin="miter"/>
        <path d="M 35.4176,28.9243 L 35.4176,0 L 29.2196,5.6078 L 29.2196,34.8273 L 35.4176,28.9243 Z " fill="#0E6F9C" stroke="#FFFFFF" stroke-width="0.88545" stroke-linecap="butt" stroke-linejoin="miter"/>
        <path d="M 35.4176,42.2059 L 35.4176,29.2195 L 29.2196,35.1224 L 29.2196,47.8137 L 35.4176,42.2059 Z " fill="#0E6F9C" stroke="#FFFFFF" stroke-width="0.88545" stroke-linecap="butt" stroke-linejoin="miter"/>
        <path d="M 35.4176,0 L 29.2196,5.6078 L 0,5.6078 L 7.37870000000004,0 L 35.4176,0 Z " fill="#0E6F9C" stroke="#FFFFFF" stroke-width="0.88545" stroke-linecap="butt" stroke-linejoin="miter"/>
        <path d="M 29.2196,34.8273 L 29.2196,5.6078 L 0,5.6078 L 0,34.8273 L 29.2196,34.8273 Z " fill="#0E6F9C" stroke="#FFFFFF" stroke-width="0.88545" stroke-linecap="butt" stroke-linejoin="miter"/>
        <path d="M 11.8059,16.8233 L 7.37870000000004,12.3961 L 8.26420000000002,11.5107 L 5.31270000000001,10.9204 L 5.90300000000002,13.8719 L 6.78840000000002,12.9864 L 11.2156,17.4136 L 11.8059,16.8233 Z " fill="#FFFFFF" stroke-width="1px" stroke="#FFFFFF"/>
        <path d="M 10.3302,19.7748 L 4.13210000000004,19.7748 L 4.13210000000004,18.5942 L 1.47579999999999,20.0699 L 4.13210000000004,21.8408 L 4.13210000000004,20.6602 L 10.3302,20.6602 L 10.3302,19.7748 Z " fill="#FFFFFF" stroke-width="1px" stroke="#FFFFFF"/>
        <path d="M 11.2156,23.0214 L 6.78840000000002,27.4486 L 5.90300000000002,26.5632 L 5.31270000000001,29.5146 L 8.26420000000002,28.9243 L 7.37870000000004,28.0389 L 11.8059,23.6117 L 11.2156,23.0214 Z " fill="#FFFFFF" stroke-width="1px" stroke="#FFFFFF"/>
        <path d="M 14.1671,24.4971 L 14.1671,30.9904 L 12.9865,30.9904 L 14.7574,33.3515 L 16.2331,30.9904 L 15.0525,30.9904 L 15.0525,24.4971 L 14.1671,24.4971 Z " fill="#FFFFFF" stroke-width="1px" stroke="#FFFFFF"/>
        <path d="M 14.1671,15.9379 L 14.1671,9.7398 L 12.9865,9.7398 L 14.7574,7.37860000000001 L 16.2331,9.7398 L 15.0525,9.7398 L 15.0525,15.9379 L 14.1671,15.9379 Z " fill="#FFFFFF" stroke-width="1px" stroke="#FFFFFF"/>
        <path d="M 17.4137,23.6117 L 21.8409,28.0389 L 20.9555,28.9243 L 23.9069,29.5146 L 23.3166,26.5632 L 22.4312,27.4486 L 18.004,23.0214 L 17.4137,23.6117 Z " fill="#FFFFFF" stroke-width="1px" stroke="#FFFFFF"/>
        <path d="M 18.8894,20.6602 L 25.3827,20.6602 L 25.3827,21.8408 L 27.7438,20.0699 L 25.3827,18.5942 L 25.3827,19.7748 L 18.8894,19.7748 L 18.8894,20.6602 Z " fill="#FFFFFF" stroke-width="1px" stroke="#FFFFFF"/>
        <path d="M 18.004,17.4136 L 22.4312,12.9864 L 23.3166,13.8719 L 23.9069,10.9204 L 20.9555,11.5107 L 21.8409,12.3961 L 17.4137,16.8233 L 18.004,17.4136 Z " fill="#FFFFFF" stroke-width="1px" stroke="#FFFFFF"/>
        <path d="M 2.65640000000002,38.369 L 3.54180000000002,38.369 L 2.06610000000001,36.303 L 0.885500000000036,38.369 L 1.77090000000004,38.369 L 1.77090000000004,44.8623 L 0.885500000000036,44.8623 L 2.06610000000001,46.9283 L 3.54180000000002,44.8623 L 2.65640000000002,44.8623 L 2.65640000000002,38.369 Z " fill="#FFFFFF" stroke-width="1px" stroke="#FFFFFF"/>
        <path d="M 5.90300000000002,38.369 L 6.78840000000002,38.369 L 5.31270000000001,36.303 L 4.13210000000004,38.369 L 5.01750000000004,38.369 L 5.01750000000004,44.8623 L 4.13210000000004,44.8623 L 5.31270000000001,46.9283 L 6.78840000000002,44.8623 L 5.90300000000002,44.8623 L 5.90300000000002,38.369 Z " fill="#FFFFFF" stroke-width="1px" stroke="#FFFFFF"/>
        <path d="M 8.8544,38.369 L 10.035,38.369 L 8.55930000000001,36.303 L 7.08360000000005,38.369 L 8.26420000000002,38.369 L 8.26420000000002,44.8623 L 7.08360000000005,44.8623 L 8.55930000000001,46.9283 L 9.73990000000003,44.8623 L 8.8544,44.8623 L 8.8544,38.369 Z " fill="#FFFFFF" stroke-width="1px" stroke="#FFFFFF"/>
        <path d="M 12.1011,38.369 L 12.9865,38.369 L 11.8059,36.303 L 10.3302,38.369 L 11.2156,38.369 L 11.2156,44.8623 L 10.3302,44.8623 L 11.8059,46.9283 L 12.9865,44.8623 L 12.1011,44.8623 L 12.1011,38.369 Z " fill="#FFFFFF" stroke-width="1px" stroke="#FFFFFF"/>
        <path d="M 17.7088,38.369 L 18.5943,38.369 L 17.4137,36.303 L 15.938,38.369 L 16.8234,38.369 L 16.8234,44.8623 L 15.938,44.8623 L 17.4137,46.9283 L 18.5943,44.8623 L 17.7088,44.8623 L 17.7088,38.369 Z " fill="#FFFFFF" stroke-width="1px" stroke="#FFFFFF"/>
        <path d="M 20.9555,38.369 L 21.8409,38.369 L 20.6603,36.303 L 19.1846,38.369 L 20.07,38.369 L 20.07,44.8623 L 19.1846,44.8623 L 20.6603,46.9283 L 21.8409,44.8623 L 20.9555,44.8623 L 20.9555,38.369 Z " fill="#FFFFFF" stroke-width="1px" stroke="#FFFFFF"/>
        <path d="M 24.2021,38.369 L 25.0875,38.369 L 23.9069,36.303 L 22.4312,38.369 L 23.3166,38.369 L 23.3166,44.8623 L 22.4312,44.8623 L 23.9069,46.9283 L 25.0875,44.8623 L 24.2021,44.8623 L 24.2021,38.369 Z " fill="#FFFFFF" stroke-width="1px" stroke="#FFFFFF"/>
        <path d="M 27.4487,38.369 L 28.3341,38.369 L 27.1535,36.303 L 25.6778,38.369 L 26.5632,38.369 L 26.5632,44.8623 L 25.6778,44.8623 L 27.1535,46.9283 L 28.3341,44.8623 L 27.4487,44.8623 L 27.4487,38.369 Z " fill="#FFFFFF" stroke-width="1px" stroke="#FFFFFF"/>
      </g>
      <!--emf-blob end-->
    </g>
  </g>
</svg>

