<svg xmlns="http://www.w3.org/2000/svg" xmlns:xlink="http://www.w3.org/1999/xlink" version="1.1" viewBox="0 0 174 249" >
  <title><![CDATA[PC man]]></title>
  <g transform=" scale(3.000000) ">
    <!--converted by libvisio2svg-->
    <g>
      <!--emf-blob start-->
      <g>
        <path d="M 55.8072,29.8229000000001 C 57.8741,27.1654 52.8544,25.689 52.8544,25.689 Z " fill="#0F73A0" stroke="none"/>
        <path d="M 55.8072,29.8229000000001 C 57.8741,27.1654 52.8544,25.689 52.8544,25.689 Z " stroke="#FFFFFF" stroke-width="0.88585" stroke-linecap="butt" stroke-linejoin="miter" fill="none"/>
        <path d="M 52.8544,6.49610000000001 L 50.1969,8.56300000000005 L 30.4134,8.56300000000005 L 33.0709,6.49610000000001 L 52.8544,6.49610000000001 Z " fill="#0F73A0" stroke="#FFFFFF" stroke-width="0.88585" stroke-linecap="butt" stroke-linejoin="miter"/>
        <path d="M 50.1969,24.5079000000001 L 50.1969,8.85830000000004 L 30.1182,8.85830000000004 L 30.1182,24.5079000000001 L 50.1969,24.5079000000001 Z " fill="#0F73A0" stroke="#FFFFFF" stroke-width="0.88585" stroke-linecap="butt" stroke-linejoin="miter"/>
        <path d="M 52.8544,22.7363 L 52.8544,6.49610000000001 L 50.1969,8.85830000000004 L 50.1969,24.8032000000001 L 52.8544,22.7363 Z " fill="#0F73A0" stroke="#FFFFFF" stroke-width="0.88585" stroke-linecap="butt" stroke-linejoin="miter"/>
        <path d="M 23.6221,5.01970000000006 C 23.6221,6.79140000000001 22.441,7.97250000000003 24.5079,10.6300000000001 C 24.8032,10.9252 24.2127,11.8111 23.9174,12.1063 C 23.6221,12.4016 23.6221,13.2874 23.6221,13.5827 C 23.6221,13.5827 23.3268,14.1733 23.3268,14.4685000000001 C 23.0316,15.3544000000001 23.6221,15.9449 23.0316,16.2402 C 22.1457,16.5355 20.9646,16.5355 20.3741,17.126 C 19.4882,17.7166 18.8977,18.6024 18.6024,19.4882000000001 C 18.3071,19.4882000000001 18.0119,19.4882000000001 17.7166,19.4882000000001 C 16.2402,18.0119 14.1733,14.4685000000001 12.1063,13.878 C 11.2205,11.5158 12.6969,9.74410000000006 13.878,7.67720000000003 C 15.0591,5.61030000000005 17.4213,4.13390000000004 19.7835,3.83860000000004 Z " fill="#0F73A0" stroke="none"/>
        <path d="M 23.6221,5.01970000000006 C 23.6221,6.79140000000001 22.441,7.97250000000003 24.5079,10.6300000000001 C 24.8032,10.9252 24.2127,11.8111 23.9174,12.1063 C 23.6221,12.4016 23.6221,13.2874 23.6221,13.5827 C 23.6221,13.5827 23.3268,14.1733 23.3268,14.4685000000001 C 23.0316,15.3544000000001 23.6221,15.9449 23.0316,16.2402 C 22.1457,16.5355 20.9646,16.5355 20.3741,17.126 C 19.4882,17.7166 18.8977,18.6024 18.6024,19.4882000000001 C 18.3071,19.4882000000001 18.0119,19.4882000000001 17.7166,19.4882000000001 C 16.2402,18.0119 14.1733,14.4685000000001 12.1063,13.878 C 11.2205,11.5158 12.6969,9.74410000000006 13.878,7.67720000000003 C 15.0591,5.61030000000005 17.4213,4.13390000000004 19.7835,3.83860000000004 Z " stroke="#FFFFFF" stroke-width="0.88585" stroke-linecap="butt" stroke-linejoin="miter" fill="none"/>
        <path d="M 11.5158,13.5827 C 11.8111,13.878 12.4016,13.5827 12.9922,13.5827 C 13.878,14.1733 15.0591,14.1733 15.6497,13.5827 C 16.5355,13.2874 16.8308,12.1063 17.4213,11.2205 C 17.4213,10.9252 17.4213,10.6300000000001 17.7166,10.6300000000001 C 18.6024,10.6300000000001 20.0788,10.9252 20.3741,10.3347000000001 C 21.2599,9.15360000000004 20.0788,7.08670000000006 21.5552,6.20080000000002 C 22.7363,5.61030000000005 24.8032,5.31500000000005 24.5079,3.54330000000004 C 21.2599,1.77170000000001 17.4213,0 13.878,0.885899999999992 C 12.6969,1.18110000000001 11.8111,2.65750000000003 10.9252,3.54330000000004 C 10.63,3.83860000000004 10.3347,4.13390000000004 10.3347,4.42920000000004 C 10.3347,6.79140000000001 10.0394,8.85830000000004 10.63,11.2205 C 10.63,11.8111 10.9252,13.2874 11.5158,13.5827 Z Z " fill="#0F73A0" stroke="#FFFFFF" stroke-width="0.88585" stroke-linecap="butt" stroke-linejoin="miter"/>
        <path d="M 30.1182,56.1024 C 30.1182,57.5788000000001 30.1182,58.7599 30.1182,60.2363 C 28.9371,61.1221 29.2323,62.5985000000001 29.2323,63.7796 C 30.4134,64.6654 32.1851,64.3701 33.6615,64.3701 C 33.6615,64.0749 33.6615,63.7796 33.6615,63.7796 C 35.1379,63.4843 36.6142,63.4843 38.0906,63.189 C 38.3859,62.3032000000001 38.3859,61.1221 38.3859,60.2363 C 37.2048,59.3505 35.4331,59.6457 34.8426,58.1694000000001 C 34.252,56.693 34.252,55.2166 34.252,53.7402 Z " fill="#0F73A0" stroke="none"/>
        <path d="M 30.1182,56.1024 C 30.1182,57.5788000000001 30.1182,58.7599 30.1182,60.2363 C 28.9371,61.1221 29.2323,62.5985000000001 29.2323,63.7796 C 30.4134,64.6654 32.1851,64.3701 33.6615,64.3701 C 33.6615,64.0749 33.6615,63.7796 33.6615,63.7796 C 35.1379,63.4843 36.6142,63.4843 38.0906,63.189 C 38.3859,62.3032000000001 38.3859,61.1221 38.3859,60.2363 C 37.2048,59.3505 35.4331,59.6457 34.8426,58.1694000000001 C 34.252,56.693 34.252,55.2166 34.252,53.7402 Z " stroke="#FFFFFF" stroke-width="0.88585" stroke-linecap="butt" stroke-linejoin="miter" fill="none"/>
        <path d="M 25.0985,54.0355 C 28.3465,54.626 31.004,52.8544000000001 34.252,51.378 C 34.8426,51.0827 36.0237,51.378 37.2048,51.378 C 37.2048,54.9213 36.9095,58.1694000000001 36.9095,61.4174 C 38.6812,61.4174 40.1575,61.7127 41.9292,61.4174 C 42.815,61.4174 43.7009,60.8268 44.5867,60.5316 C 44.5867,55.8071 44.882,51.0827 44.2914,46.3583 C 44.2914,45.7678 43.7009,45.1772 43.4056,44.5867000000001 C 43.4056,44.2914 42.815,44.2914 42.5197,43.9961 C 38.6812,43.1103000000001 38.0906,43.7008 33.9568,43.1103000000001 C 33.6615,43.1103000000001 34.8426,41.0434 34.5473,40.7481 C 33.9568,39.8623000000001 24.8032,40.4528 23.6221,40.4528 Z " fill="#0F73A0" stroke="none"/>
        <path d="M 25.0985,54.0355 C 28.3465,54.626 31.004,52.8544000000001 34.252,51.378 C 34.8426,51.0827 36.0237,51.378 37.2048,51.378 C 37.2048,54.9213 36.9095,58.1694000000001 36.9095,61.4174 C 38.6812,61.4174 40.1575,61.7127 41.9292,61.4174 C 42.815,61.4174 43.7009,60.8268 44.5867,60.5316 C 44.5867,55.8071 44.882,51.0827 44.2914,46.3583 C 44.2914,45.7678 43.7009,45.1772 43.4056,44.5867000000001 C 43.4056,44.2914 42.815,44.2914 42.5197,43.9961 C 38.6812,43.1103000000001 38.0906,43.7008 33.9568,43.1103000000001 C 33.6615,43.1103000000001 34.8426,41.0434 34.5473,40.7481 C 33.9568,39.8623000000001 24.8032,40.4528 23.6221,40.4528 Z " stroke="#FFFFFF" stroke-width="0.88585" stroke-linecap="butt" stroke-linejoin="miter" fill="none"/>
        <path d="M 41.6339,61.4174 C 41.6339,62.0079000000001 41.3386,62.5985000000001 41.6339,63.189 C 41.6339,63.4843 42.2245,63.4843 42.5197,63.7796 C 42.815,63.7796 43.1103,64.3701 43.4056,64.3701 C 43.9961,64.6654 44.5867,64.6654 45.1772,64.9607 C 46.0631,64.9607 46.9489,64.6654 47.8347,64.9607 C 47.8347,65.256 48.13,65.256 48.4253,65.256 C 48.7205,65.8465 49.0158,66.7323000000001 48.7205,67.3229000000001 C 47.8347,68.2087 46.9489,69.0946 45.7678,69.3898 C 43.9961,69.6851 42.5197,69.3898 40.7481,69.6851 C 40.4528,69.6851 40.7481,69.6851 40.4528,69.9804 C 40.4528,69.9804 40.7481,70.8662 40.4528,70.8662 C 38.9764,70.8662 36.9095,71.1615 35.7284,69.6851 C 35.4331,69.0946 35.4331,68.2087 35.4331,67.6182000000001 C 36.0237,67.0276000000001 36.0237,66.1418 36.319,65.5512000000001 C 36.6142,64.6654 36.319,64.6654 36.6142,64.0749 C 37.2048,63.189 36.9095,62.3032000000001 36.9095,61.4174 Z " fill="#0F73A0" stroke="none"/>
        <path d="M 41.6339,61.4174 C 41.6339,62.0079000000001 41.3386,62.5985000000001 41.6339,63.189 C 41.6339,63.4843 42.2245,63.4843 42.5197,63.7796 C 42.815,63.7796 43.1103,64.3701 43.4056,64.3701 C 43.9961,64.6654 44.5867,64.6654 45.1772,64.9607 C 46.0631,64.9607 46.9489,64.6654 47.8347,64.9607 C 47.8347,65.256 48.13,65.256 48.4253,65.256 C 48.7205,65.8465 49.0158,66.7323000000001 48.7205,67.3229000000001 C 47.8347,68.2087 46.9489,69.0946 45.7678,69.3898 C 43.9961,69.6851 42.5197,69.3898 40.7481,69.6851 C 40.4528,69.6851 40.7481,69.6851 40.4528,69.9804 C 40.4528,69.9804 40.7481,70.8662 40.4528,70.8662 C 38.9764,70.8662 36.9095,71.1615 35.7284,69.6851 C 35.4331,69.0946 35.4331,68.2087 35.4331,67.6182000000001 C 36.0237,67.0276000000001 36.0237,66.1418 36.319,65.5512000000001 C 36.6142,64.6654 36.319,64.6654 36.6142,64.0749 C 37.2048,63.189 36.9095,62.3032000000001 36.9095,61.4174 Z " stroke="#FFFFFF" stroke-width="0.88585" stroke-linecap="butt" stroke-linejoin="miter" fill="none"/>
        <path d="M 20.6693,62.3032000000001 C 20.6693,66.7323000000001 20.6693,66.7323000000001 20.6693,66.7323000000001 C 29.2323,63.189 29.2323,63.189 29.2323,63.189 C 30.7087,62.8938000000001 31.004,64.6654 31.004,64.6654 C 31.004,65.8465 31.004,65.8465 31.004,65.8465 C 30.1182,65.8465 30.1182,65.8465 30.1182,65.8465 C 30.1182,67.0276000000001 30.1182,67.0276000000001 30.1182,67.0276000000001 C 29.5276,68.2087 28.3465,67.0276000000001 28.3465,67.0276000000001 C 28.3465,65.5512000000001 28.3465,65.5512000000001 28.3465,65.5512000000001 C 21.5552,68.7993 21.5552,68.7993 21.5552,68.7993 C 29.5276,75.2953000000001 29.5276,75.2953000000001 29.5276,75.2953000000001 C 30.7087,77.3623000000001 29.8229,79.1339 29.8229,79.1339 C 30.7087,80.6103000000001 28.9371,81.7914 28.9371,81.7914 C 26.8701,82.9725 26.8701,80.3150000000001 26.8701,80.3150000000001 C 26.5749,78.8387 28.3465,78.8387 28.3465,78.8387 C 28.6418,77.9528 28.6418,77.9528 28.6418,77.9528 C 19.193,69.3898 19.193,69.3898 19.193,69.3898 C 7.08670000000001,76.4764 7.08670000000001,76.4764 7.08670000000001,76.4764 C 6.49610000000001,77.6576000000001 6.49610000000001,77.6576000000001 6.49610000000001,77.6576000000001 C 7.67720000000003,79.7245 5.90559999999999,80.3150000000001 5.90559999999999,80.3150000000001 C 3.24810000000002,80.9056 4.42920000000004,78.5434 4.42920000000004,78.5434 C 4.13390000000004,77.3623000000001 5.315,77.3623000000001 5.315,77.3623000000001 C 5.90559999999999,76.4764 5.90559999999999,76.4764 5.90559999999999,76.4764 C 5.90559999999999,76.4764 6.49610000000001,76.7717 5.90559999999999,76.1812 C 5.0197,75.5906000000001 5.6103,73.819 5.6103,73.819 C 17.126,68.2087 17.126,68.2087 17.126,68.2087 C 13.2875,64.6654 13.2875,64.6654 13.2875,64.6654 C 12.1063,65.256 12.1063,65.256 12.1063,65.256 C 12.1063,67.3229000000001 10.63,66.7323000000001 10.63,66.7323000000001 C 9.15360000000004,66.7323000000001 10.0394,65.256 10.0394,65.256 C 10.63,64.6654 11.2205,64.3701 11.2205,64.3701 C 12.1063,62.5985000000001 12.1063,62.5985000000001 12.1063,62.5985000000001 C 15.0591,64.0749 15.0591,64.0749 15.0591,64.0749 C 18.6024,66.7323000000001 18.6024,66.7323000000001 18.6024,66.7323000000001 C 18.6024,62.8938000000001 18.6024,62.8938000000001 18.6024,62.8938000000001 Z " fill="#0F73A0" stroke="none"/>
        <path d="M 25.689,57.8741000000001 C 35.7284,53.1497000000001 35.7284,53.1497000000001 35.7284,53.1497000000001 C 36.319,52.2638000000001 35.4331,51.0827 35.4331,51.0827 C 25.9843,54.626 25.9843,54.626 25.9843,54.626 Z " fill="#0F73A0" stroke="none"/>
        <path d="M 25.689,57.8741000000001 C 35.7284,53.1497000000001 35.7284,53.1497000000001 35.7284,53.1497000000001 C 36.319,52.2638000000001 35.4331,51.0827 35.4331,51.0827 C 25.9843,54.626 25.9843,54.626 25.9843,54.626 Z " stroke="#FFFFFF" stroke-width="0.88585" stroke-linecap="butt" stroke-linejoin="miter" fill="none"/>
        <path d="M 48.7205,22.7363 L 48.7205,10.9252 L 31.8898,10.9252 L 31.8898,22.7363 L 48.7205,22.7363 Z " fill="#0F73A0" stroke="#FFFFFF" stroke-width="0.88585" stroke-linecap="butt" stroke-linejoin="miter"/>
        <path d="M 50.4922,28.3465 L 50.4922,25.3937 L 30.4134,25.3937 L 30.4134,28.3465 L 50.4922,28.3465 Z " fill="#0F73A0" stroke="#FFFFFF" stroke-width="0.88585" stroke-linecap="butt" stroke-linejoin="miter"/>
        <path d="M 48.13,33.3662 L 48.13,32.1851 L 25.689,32.1851 L 25.689,33.3662 L 48.13,33.3662 Z " fill="#0F73A0" stroke="#FFFFFF" stroke-width="0.88585" stroke-linecap="butt" stroke-linejoin="miter"/>
        <path d="M 55.8072,32.7756000000001 L 55.8072,32.1851 L 52.5591,32.1851 L 52.5591,32.7756000000001 L 55.8072,32.7756000000001 Z " fill="#0F73A0" stroke="#FFFFFF" stroke-width="0.88585" stroke-linecap="butt" stroke-linejoin="miter"/>
        <path d="M 55.8072,31.8898 L 57.2835,29.5276000000001 L 54.0355,29.5276000000001 L 52.5591,31.8898 L 55.8072,31.8898 Z " fill="#0F73A0" stroke="#FFFFFF" stroke-width="0.88585" stroke-linecap="butt" stroke-linejoin="miter"/>
        <path d="M 57.2835,31.5945 L 57.2835,29.5276000000001 L 55.8072,32.1851 L 55.8072,32.7756000000001 L 57.2835,31.5945 Z " fill="#0F73A0" stroke="#FFFFFF" stroke-width="0.88585" stroke-linecap="butt" stroke-linejoin="miter"/>
        <path d="M 51.378,30.1182000000001 L 51.378,28.3465 L 48.13,32.1851 L 48.13,33.3662 L 51.378,30.1182000000001 Z " fill="#0F73A0" stroke="#FFFFFF" stroke-width="0.88585" stroke-linecap="butt" stroke-linejoin="miter"/>
        <path d="M 53.1497,26.5749 L 53.1497,23.0315000000001 L 50.4922,25.3937 L 50.4922,29.2323000000001 L 53.1497,26.5749 Z " fill="#0F73A0" stroke="#FFFFFF" stroke-width="0.88585" stroke-linecap="butt" stroke-linejoin="miter"/>
        <path d="M 50.4922,25.3937 L 50.4922,24.8032000000001 L 31.004,24.8032000000001 L 31.004,25.3937 L 50.4922,25.3937 Z " fill="#0B719F" stroke="#FFFFFF" stroke-width="0.88585" stroke-linecap="butt" stroke-linejoin="miter"/>
        <path d="M 52.8544,23.3268 L 52.8544,23.0315000000001 L 50.1969,24.8032000000001 L 50.1969,25.3937 L 52.8544,23.3268 Z " fill="#0B719F" stroke="#FFFFFF" stroke-width="0.88585" stroke-linecap="butt" stroke-linejoin="miter"/>
        <path d="M 51.0827,28.3465 L 48.13,32.4804 L 25.9843,32.4804 L 29.5276,28.3465 L 51.0827,28.3465 Z " fill="#0F73A0" stroke="#FFFFFF" stroke-width="0.88585" stroke-linecap="butt" stroke-linejoin="miter"/>
        <path d="M 43.4056,26.8701 L 48.7205,26.8701 Z " fill="#0B719F" stroke-width="1px" stroke="#0B719F"/>
        <path d="M 43.4056,26.8701 L 48.7205,26.8701 " stroke="#FFFFFF" stroke-width="0.88585" stroke-linecap="butt" stroke-linejoin="miter" fill="none"/>
        <path d="M 23.0316,8.56300000000005 L 22.441,9.74410000000006 L 23.3268,9.44890000000004 Z " fill="#0F73A0" stroke-width="1px" stroke="#0F73A0"/>
        <path d="M 23.0316,8.56300000000005 L 22.441,9.74410000000006 L 23.3268,9.44890000000004 " stroke="#FFFFFF" stroke-width="0.88585" stroke-linecap="butt" stroke-linejoin="miter" fill="none"/>
        <path d="M 33.3662,29.8229000000001 L 34.5473,29.8229000000001 Z " fill="#0B719F" stroke-width="1px" stroke="#0B719F"/>
        <path d="M 33.3662,29.8229000000001 L 34.5473,29.8229000000001 " stroke="#FFFFFF" stroke-width="0.88585" stroke-linecap="butt" stroke-linejoin="miter" fill="none"/>
        <path d="M 35.1379,29.8229000000001 L 36.319,29.8229000000001 Z " fill="#0B719F" stroke-width="1px" stroke="#0B719F"/>
        <path d="M 35.1379,29.8229000000001 L 36.319,29.8229000000001 " stroke="#FFFFFF" stroke-width="0.88585" stroke-linecap="butt" stroke-linejoin="miter" fill="none"/>
        <path d="M 30.1182,29.8229000000001 L 31.2993,29.8229000000001 Z " fill="#0B719F" stroke-width="1px" stroke="#0B719F"/>
        <path d="M 30.1182,29.8229000000001 L 31.2993,29.8229000000001 " stroke="#FFFFFF" stroke-width="0.88585" stroke-linecap="butt" stroke-linejoin="miter" fill="none"/>
        <path d="M 31.5945,29.8229000000001 L 32.7757,29.8229000000001 Z " fill="#0B719F" stroke-width="1px" stroke="#0B719F"/>
        <path d="M 31.5945,29.8229000000001 L 32.7757,29.8229000000001 " stroke="#FFFFFF" stroke-width="0.88585" stroke-linecap="butt" stroke-linejoin="miter" fill="none"/>
        <path d="M 36.9095,29.8229000000001 L 38.0906,29.8229000000001 Z " fill="#0B719F" stroke-width="1px" stroke="#0B719F"/>
        <path d="M 36.9095,29.8229000000001 L 38.0906,29.8229000000001 " stroke="#FFFFFF" stroke-width="0.88585" stroke-linecap="butt" stroke-linejoin="miter" fill="none"/>
        <path d="M 38.3859,29.8229000000001 L 39.567,29.8229000000001 Z " fill="#0B719F" stroke-width="1px" stroke="#0B719F"/>
        <path d="M 38.3859,29.8229000000001 L 39.567,29.8229000000001 " stroke="#FFFFFF" stroke-width="0.88585" stroke-linecap="butt" stroke-linejoin="miter" fill="none"/>
        <path d="M 40.1575,29.8229000000001 L 41.3386,29.8229000000001 Z " fill="#0B719F" stroke-width="1px" stroke="#0B719F"/>
        <path d="M 40.1575,29.8229000000001 L 41.3386,29.8229000000001 " stroke="#FFFFFF" stroke-width="0.88585" stroke-linecap="butt" stroke-linejoin="miter" fill="none"/>
        <path d="M 41.6339,29.8229000000001 L 42.815,29.8229000000001 Z " fill="#0B719F" stroke-width="1px" stroke="#0B719F"/>
        <path d="M 41.6339,29.8229000000001 L 42.815,29.8229000000001 " stroke="#FFFFFF" stroke-width="0.88585" stroke-linecap="butt" stroke-linejoin="miter" fill="none"/>
        <path d="M 43.4056,29.8229000000001 L 44.5867,29.8229000000001 Z " fill="#0B719F" stroke-width="1px" stroke="#0B719F"/>
        <path d="M 43.4056,29.8229000000001 L 44.5867,29.8229000000001 " stroke="#FFFFFF" stroke-width="0.88585" stroke-linecap="butt" stroke-linejoin="miter" fill="none"/>
        <path d="M 45.1772,29.8229000000001 L 46.3583,29.8229000000001 Z " fill="#0B719F" stroke-width="1px" stroke="#0B719F"/>
        <path d="M 45.1772,29.8229000000001 L 46.3583,29.8229000000001 " stroke="#FFFFFF" stroke-width="0.88585" stroke-linecap="butt" stroke-linejoin="miter" fill="none"/>
        <path d="M 46.6536,29.8229000000001 L 47.8347,29.8229000000001 Z " fill="#0B719F" stroke-width="1px" stroke="#0B719F"/>
        <path d="M 46.6536,29.8229000000001 L 47.8347,29.8229000000001 " stroke="#FFFFFF" stroke-width="0.88585" stroke-linecap="butt" stroke-linejoin="miter" fill="none"/>
        <path d="M 32.7757,30.7087 L 33.9568,30.7087 Z " fill="#0B719F" stroke-width="1px" stroke="#0B719F"/>
        <path d="M 32.7757,30.7087 L 33.9568,30.7087 " stroke="#FFFFFF" stroke-width="0.88585" stroke-linecap="butt" stroke-linejoin="miter" fill="none"/>
        <path d="M 34.5473,30.7087 L 35.7284,30.7087 Z " fill="#0B719F" stroke-width="1px" stroke="#0B719F"/>
        <path d="M 34.5473,30.7087 L 35.7284,30.7087 " stroke="#FFFFFF" stroke-width="0.88585" stroke-linecap="butt" stroke-linejoin="miter" fill="none"/>
        <path d="M 29.5276,30.7087 L 30.7087,30.7087 Z " fill="#0B719F" stroke-width="1px" stroke="#0B719F"/>
        <path d="M 29.5276,30.7087 L 30.7087,30.7087 " stroke="#FFFFFF" stroke-width="0.88585" stroke-linecap="butt" stroke-linejoin="miter" fill="none"/>
        <path d="M 31.004,30.7087 L 32.1851,30.7087 Z " fill="#0B719F" stroke-width="1px" stroke="#0B719F"/>
        <path d="M 31.004,30.7087 L 32.1851,30.7087 " stroke="#FFFFFF" stroke-width="0.88585" stroke-linecap="butt" stroke-linejoin="miter" fill="none"/>
        <path d="M 36.319,30.7087 L 37.5001,30.7087 Z " fill="#0B719F" stroke-width="1px" stroke="#0B719F"/>
        <path d="M 36.319,30.7087 L 37.5001,30.7087 " stroke="#FFFFFF" stroke-width="0.88585" stroke-linecap="butt" stroke-linejoin="miter" fill="none"/>
        <path d="M 37.7953,30.7087 L 38.9764,30.7087 Z " fill="#0B719F" stroke-width="1px" stroke="#0B719F"/>
        <path d="M 37.7953,30.7087 L 38.9764,30.7087 " stroke="#FFFFFF" stroke-width="0.88585" stroke-linecap="butt" stroke-linejoin="miter" fill="none"/>
        <path d="M 39.567,30.7087 L 40.7481,30.7087 Z " fill="#0B719F" stroke-width="1px" stroke="#0B719F"/>
        <path d="M 39.567,30.7087 L 40.7481,30.7087 " stroke="#FFFFFF" stroke-width="0.88585" stroke-linecap="butt" stroke-linejoin="miter" fill="none"/>
        <path d="M 41.0434,30.7087 L 42.2245,30.7087 Z " fill="#0B719F" stroke-width="1px" stroke="#0B719F"/>
        <path d="M 41.0434,30.7087 L 42.2245,30.7087 " stroke="#FFFFFF" stroke-width="0.88585" stroke-linecap="butt" stroke-linejoin="miter" fill="none"/>
        <path d="M 42.815,30.7087 L 43.9961,30.7087 Z " fill="#0B719F" stroke-width="1px" stroke="#0B719F"/>
        <path d="M 42.815,30.7087 L 43.9961,30.7087 " stroke="#FFFFFF" stroke-width="0.88585" stroke-linecap="butt" stroke-linejoin="miter" fill="none"/>
        <path d="M 44.5867,30.7087 L 45.7678,30.7087 Z " fill="#0B719F" stroke-width="1px" stroke="#0B719F"/>
        <path d="M 44.5867,30.7087 L 45.7678,30.7087 " stroke="#FFFFFF" stroke-width="0.88585" stroke-linecap="butt" stroke-linejoin="miter" fill="none"/>
        <path d="M 46.0631,30.7087 L 47.2442,30.7087 Z " fill="#0B719F" stroke-width="1px" stroke="#0B719F"/>
        <path d="M 46.0631,30.7087 L 47.2442,30.7087 " stroke="#FFFFFF" stroke-width="0.88585" stroke-linecap="butt" stroke-linejoin="miter" fill="none"/>
        <path d="M 32.1851,31.5945 L 33.3662,31.5945 Z " fill="#0B719F" stroke-width="1px" stroke="#0B719F"/>
        <path d="M 32.1851,31.5945 L 33.3662,31.5945 " stroke="#FFFFFF" stroke-width="0.88585" stroke-linecap="butt" stroke-linejoin="miter" fill="none"/>
        <path d="M 33.9568,31.5945 L 35.1379,31.5945 Z " fill="#0B719F" stroke-width="1px" stroke="#0B719F"/>
        <path d="M 33.9568,31.5945 L 35.1379,31.5945 " stroke="#FFFFFF" stroke-width="0.88585" stroke-linecap="butt" stroke-linejoin="miter" fill="none"/>
        <path d="M 28.9371,31.5945 L 30.1182,31.5945 Z " fill="#0B719F" stroke-width="1px" stroke="#0B719F"/>
        <path d="M 28.9371,31.5945 L 30.1182,31.5945 " stroke="#FFFFFF" stroke-width="0.88585" stroke-linecap="butt" stroke-linejoin="miter" fill="none"/>
        <path d="M 30.4134,31.5945 L 31.5945,31.5945 Z " fill="#0B719F" stroke-width="1px" stroke="#0B719F"/>
        <path d="M 30.4134,31.5945 L 31.5945,31.5945 " stroke="#FFFFFF" stroke-width="0.88585" stroke-linecap="butt" stroke-linejoin="miter" fill="none"/>
        <path d="M 35.7284,31.5945 L 36.9095,31.5945 Z " fill="#0B719F" stroke-width="1px" stroke="#0B719F"/>
        <path d="M 35.7284,31.5945 L 36.9095,31.5945 " stroke="#FFFFFF" stroke-width="0.88585" stroke-linecap="butt" stroke-linejoin="miter" fill="none"/>
        <path d="M 37.2048,31.5945 L 38.3859,31.5945 Z " fill="#0B719F" stroke-width="1px" stroke="#0B719F"/>
        <path d="M 37.2048,31.5945 L 38.3859,31.5945 " stroke="#FFFFFF" stroke-width="0.88585" stroke-linecap="butt" stroke-linejoin="miter" fill="none"/>
        <path d="M 38.9764,31.5945 L 40.1575,31.5945 Z " fill="#0B719F" stroke-width="1px" stroke="#0B719F"/>
        <path d="M 38.9764,31.5945 L 40.1575,31.5945 " stroke="#FFFFFF" stroke-width="0.88585" stroke-linecap="butt" stroke-linejoin="miter" fill="none"/>
        <path d="M 40.4528,31.5945 L 41.6339,31.5945 Z " fill="#0B719F" stroke-width="1px" stroke="#0B719F"/>
        <path d="M 40.4528,31.5945 L 41.6339,31.5945 " stroke="#FFFFFF" stroke-width="0.88585" stroke-linecap="butt" stroke-linejoin="miter" fill="none"/>
        <path d="M 42.2245,31.5945 L 43.4056,31.5945 Z " fill="#0B719F" stroke-width="1px" stroke="#0B719F"/>
        <path d="M 42.2245,31.5945 L 43.4056,31.5945 " stroke="#FFFFFF" stroke-width="0.88585" stroke-linecap="butt" stroke-linejoin="miter" fill="none"/>
        <path d="M 43.9961,31.5945 L 45.1772,31.5945 Z " fill="#0B719F" stroke-width="1px" stroke="#0B719F"/>
        <path d="M 43.9961,31.5945 L 45.1772,31.5945 " stroke="#FFFFFF" stroke-width="0.88585" stroke-linecap="butt" stroke-linejoin="miter" fill="none"/>
        <path d="M 45.4725,31.5945 L 46.6536,31.5945 Z " fill="#0B719F" stroke-width="1px" stroke="#0B719F"/>
        <path d="M 45.4725,31.5945 L 46.6536,31.5945 " stroke="#FFFFFF" stroke-width="0.88585" stroke-linecap="butt" stroke-linejoin="miter" fill="none"/>
        <path d="M 26.2796,27.756 C 27.1654,27.756 28.0512,27.756 28.9371,27.4607 C 29.5276,27.4607 29.8229,26.8701 30.1182,26.5749 C 31.004,26.5749 31.5945,26.2796 32.1851,26.5749 C 32.1851,26.8701 32.4804,26.8701 32.4804,27.1654 C 33.3662,27.1654 34.252,27.1654 34.8426,27.756 C 35.1379,28.3465 34.8426,28.9371 34.8426,29.5276000000001 C 34.8426,29.5276000000001 34.5473,29.8229000000001 34.5473,29.5276000000001 C 34.252,29.2323000000001 34.252,28.6418 33.6615,28.3465 C 33.3662,28.3465 32.7757,28.0512000000001 32.1851,28.3465 C 31.8898,28.3465 32.1851,28.9371 32.4804,28.9371 C 32.7757,28.9371 33.6615,29.2323000000001 33.0709,29.5276000000001 C 31.8898,30.7087 30.1182,30.4134 28.6418,30.1182000000001 C 28.0512,30.1182000000001 27.4607,29.8229000000001 26.8701,29.8229000000001 Z " fill="#0F73A0" stroke="none"/>
        <path d="M 26.2796,27.756 C 27.1654,27.756 28.0512,27.756 28.9371,27.4607 C 29.5276,27.4607 29.8229,26.8701 30.1182,26.5749 C 31.004,26.5749 31.5945,26.2796 32.1851,26.5749 C 32.1851,26.8701 32.4804,26.8701 32.4804,27.1654 C 33.3662,27.1654 34.252,27.1654 34.8426,27.756 C 35.1379,28.3465 34.8426,28.9371 34.8426,29.5276000000001 C 34.8426,29.5276000000001 34.5473,29.8229000000001 34.5473,29.5276000000001 C 34.252,29.2323000000001 34.252,28.6418 33.6615,28.3465 C 33.3662,28.3465 32.7757,28.0512000000001 32.1851,28.3465 C 31.8898,28.3465 32.1851,28.9371 32.4804,28.9371 C 32.7757,28.9371 33.6615,29.2323000000001 33.0709,29.5276000000001 C 31.8898,30.7087 30.1182,30.4134 28.6418,30.1182000000001 C 28.0512,30.1182000000001 27.4607,29.8229000000001 26.8701,29.8229000000001 Z " stroke="#FFFFFF" stroke-width="0.88585" stroke-linecap="butt" stroke-linejoin="miter" fill="none"/>
        <path d="M 39.567,36.6142 C 39.8623,36.6142 40.1575,36.319 40.7481,36.319 C 41.0434,36.0237 41.3386,36.319 41.6339,36.0237 C 42.5197,35.7284 43.1103,35.4331 43.7009,35.1378 C 43.9961,33.9567 43.9961,32.7756000000001 44.2914,31.5945 C 44.2914,31.5945 45.7678,31.2993 45.7678,31.2993 C 45.7678,31.004 45.7678,30.4134 45.7678,30.4134 C 44.5867,30.1182000000001 42.5197,30.4134 41.3386,30.7087 C 41.3386,30.7087 41.3386,30.4134 41.3386,30.4134 C 40.7481,30.4134 39.8623,30.4134 39.567,30.7087 C 38.6812,31.004 38.9764,31.8898 38.9764,32.7756000000001 C 38.9764,33.3662 38.3859,33.6615 38.0906,33.6615 C 37.7953,33.9567 37.2048,33.9567 37.2048,34.252 Z " fill="#0F73A0" stroke="none"/>
        <path d="M 39.567,36.6142 C 39.8623,36.6142 40.1575,36.319 40.7481,36.319 C 41.0434,36.0237 41.3386,36.319 41.6339,36.0237 C 42.5197,35.7284 43.1103,35.4331 43.7009,35.1378 C 43.9961,33.9567 43.9961,32.7756000000001 44.2914,31.5945 C 44.2914,31.5945 45.7678,31.2993 45.7678,31.2993 C 45.7678,31.004 45.7678,30.4134 45.7678,30.4134 C 44.5867,30.1182000000001 42.5197,30.4134 41.3386,30.7087 C 41.3386,30.7087 41.3386,30.4134 41.3386,30.4134 C 40.7481,30.4134 39.8623,30.4134 39.567,30.7087 C 38.6812,31.004 38.9764,31.8898 38.9764,32.7756000000001 C 38.9764,33.3662 38.3859,33.6615 38.0906,33.6615 C 37.7953,33.9567 37.2048,33.9567 37.2048,34.252 Z " stroke="#FFFFFF" stroke-width="0.88585" stroke-linecap="butt" stroke-linejoin="miter" fill="none"/>
        <path d="M 22.1457,27.4607 C 23.3268,27.4607 25.3938,27.1654 26.2796,27.756 C 26.5749,28.3465 27.1654,30.1182000000001 26.5749,30.7087 C 26.5749,31.004 25.0985,31.004 24.5079,31.004 Z " fill="#0F73A0" stroke="none"/>
        <path d="M 22.1457,27.4607 C 23.3268,27.4607 25.3938,27.1654 26.2796,27.756 C 26.5749,28.3465 27.1654,30.1182000000001 26.5749,30.7087 C 26.5749,31.004 25.0985,31.004 24.5079,31.004 Z " stroke="#FFFFFF" stroke-width="0.88585" stroke-linecap="butt" stroke-linejoin="miter" fill="none"/>
        <path d="M 11.2205,14.1733 C 11.8111,14.1733 12.9922,13.878 13.2875,14.1733 C 15.0591,15.6496 16.8308,17.4213 18.3071,19.4882000000001 C 19.193,20.9646 20.3741,21.8504 20.9646,23.3268 C 21.2599,24.8032000000001 21.5552,26.2796 22.1457,27.4607 C 23.6221,30.1182000000001 24.8032,32.1851 26.5749,34.5473000000001 C 26.8701,34.8426000000001 27.756,34.8426000000001 28.3465,35.1378 C 28.6418,35.4331 28.9371,35.7284 28.9371,35.7284 C 30.1182,35.7284 31.004,36.0237 31.8898,35.7284 C 33.6615,34.8426000000001 35.4331,34.5473000000001 36.9095,33.9567 C 37.7953,35.7284 39.8623,36.319 39.8623,38.0906000000001 C 38.0906,39.2717 36.0237,40.1575 34.252,41.0434 C 32.7757,41.6339 31.5945,42.8150000000001 30.1182,42.8150000000001 C 29.2323,42.8150000000001 25.3938,41.0434 25.0985,41.6339 C 24.5079,43.7008 28.0512,47.5394000000001 27.4607,49.9016 C 26.8701,52.5591000000001 26.5749,54.9213 25.9843,57.5788000000001 C 25.689,58.4646 25.3938,59.0552 25.3938,59.941 C 25.0985,60.5316 24.8032,61.1221 24.5079,61.4174 C 23.6221,62.0079000000001 23.0316,62.8938000000001 22.1457,62.8938000000001 C 21.2599,63.189 20.3741,62.8938000000001 19.4882,63.4843 C 18.8977,63.4843 18.3071,63.7796 17.7166,63.7796 C 16.8308,64.3701 15.6497,64.0749 15.6497,63.4843 C 14.7638,61.1221 15.3544,58.1694000000001 14.4686,55.8071 C 12.6969,50.7875 11.2205,46.3583 7.97250000000003,40.7481 C 7.08670000000001,39.5670000000001 4.72450000000003,40.1575 3.83859999999999,38.6812 C 1.18110000000001,34.252 3.24810000000002,26.8701 5.0197,20.6693 C 5.315,18.8977 6.79140000000001,16.8308 8.26780000000002,16.2402 C 8.85829999999999,15.9449 9.15360000000004,15.6496 9.7441,15.3544000000001 C 10.3347,14.7638000000001 10.3347,14.1733 11.2205,14.1733 Z Z " fill="#0F73A0" stroke="#FFFFFF" stroke-width="0.88585" stroke-linecap="butt" stroke-linejoin="miter"/>
        <path d="M 7.97250000000003,60.8268 C 16.2402,63.7796 16.2402,63.7796 16.2402,63.7796 C 16.2402,56.693 16.2402,56.693 16.2402,56.693 C 10.0394,41.0434 9.15360000000004,41.0434 9.15360000000004,41.0434 C 7.08670000000001,39.8623000000001 6.49610000000001,39.8623000000001 6.49610000000001,39.8623000000001 C 3.54340000000002,39.8623000000001 2.06700000000001,36.6142 2.06700000000001,36.6142 C 0.885899999999992,35.7284 0,36.9095 0,36.9095 Z Z " fill="#0F73A0" stroke="#FFFFFF" stroke-width="0.88585" stroke-linecap="butt" stroke-linejoin="miter"/>
      </g>
      <!--emf-blob end-->
    </g>
  </g>
</svg>

