<svg xmlns="http://www.w3.org/2000/svg" xmlns:xlink="http://www.w3.org/1999/xlink" version="1.1" viewBox="0 0 153 147" >
  <title><![CDATA[PC sosftware]]></title>
  <g transform=" scale(3.000000) ">
    <!--converted by libvisio2svg-->
    <g>
      <!--emf-blob start-->
      <g>
        <path d="M 44.5927,42.5254 L 44.5927,35.4379 L 7.38290000000001,35.4379 L 7.38290000000001,42.5254 L 44.5927,42.5254 Z " fill="#0F73A0" stroke="#FFFFFF" stroke-width="0.88595" stroke-linecap="butt" stroke-linejoin="miter"/>
        <path d="M 33.0754,39.277 L 42.5255,39.277 Z " fill="#0B719F" stroke-width="1px" stroke="#0B719F"/>
        <path d="M 33.0754,39.277 L 42.5255,39.277 " stroke="#FFFFFF" stroke-width="0.88595" stroke-linecap="butt" stroke-linejoin="miter" fill="none"/>
        <path d="M 33.0754,38.9817 L 42.5255,38.9817 Z " fill="#0B719F" stroke-width="1px" stroke="#0B719F"/>
        <path d="M 33.0754,38.9817 L 42.5255,38.9817 " stroke="#FFFFFF" stroke-width="0.88595" stroke-linecap="butt" stroke-linejoin="miter" fill="none"/>
        <path d="M 50.7943,35.7332 L 50.7943,29.5315 L 44.5927,35.4379 L 44.5927,42.5254 L 50.7943,35.7332 Z " fill="#0F73A0" stroke="#FFFFFF" stroke-width="0.88595" stroke-linecap="butt" stroke-linejoin="miter"/>
        <path d="M 38.0958,48.1364 L 38.0958,46.6599 L 41.3442,41.9348 L 41.3442,44.5927 L 38.0958,48.1364 Z " fill="#0F73A0" stroke="#FFFFFF" stroke-width="0.88595" stroke-linecap="butt" stroke-linejoin="miter"/>
        <path d="M 38.0958,46.6599 L 38.0958,48.1364 L 8.26890000000003,48.1364 L 8.26890000000003,46.6599 L 38.0958,46.6599 Z " fill="#0F73A0" stroke="#FFFFFF" stroke-width="0.88595" stroke-linecap="butt" stroke-linejoin="miter"/>
        <path d="M 38.0958,46.6599 L 8.26890000000003,46.6599 L 11.5173,41.9348 L 41.3442,41.9348 L 38.0958,46.6599 Z " fill="#0F73A0" stroke="#FFFFFF" stroke-width="0.88595" stroke-linecap="butt" stroke-linejoin="miter"/>
        <path d="M 50.7943,29.5315 L 13.5845,29.5315 L 7.38290000000001,35.4379 L 44.5927,35.4379 L 50.7943,29.5315 Z " fill="#0F73A0" stroke="#FFFFFF" stroke-width="0.88595" stroke-linecap="butt" stroke-linejoin="miter"/>
        <path d="M 43.7068,29.5315 L 18.9002,29.5315 L 14.7658,33.3707 L 39.5723,33.3707 L 43.7068,29.5315 Z " fill="#0F73A0" stroke="#FFFFFF" stroke-width="0.88595" stroke-linecap="butt" stroke-linejoin="miter"/>
        <path d="M 39.5723,31.8941 L 39.5723,13.2892 L 14.1752,13.2892 L 14.1752,31.8941 L 39.5723,31.8941 Z " fill="#0F73A0" stroke="#FFFFFF" stroke-width="0.88595" stroke-linecap="butt" stroke-linejoin="miter"/>
        <path d="M 16.2424,17.4236 C 16.2424,15.3564 18.0143,15.0611 18.0143,15.0611 C 18.0143,15.0611 33.3707,15.0611 35.1426,15.0611 C 37.5051,15.0611 37.5051,17.4236 37.5051,17.4236 C 37.5051,17.4236 37.5051,26.5784 37.5051,28.055 C 37.5051,29.2362 35.4379,29.8269 35.4379,29.8269 C 35.4379,29.8269 32.7801,29.8269 29.2363,29.8269 C 24.8065,29.8269 19.4909,29.8269 18.3096,29.8269 C 16.833,29.8269 16.2424,28.055 16.2424,28.055 Z Z " fill="#0F73A0" stroke="#FFFFFF" stroke-width="0.88595" stroke-linecap="butt" stroke-linejoin="miter"/>
        <path d="M 44.0021,9.15480000000002 L 18.3096,9.15480000000002 L 14.1752,13.2892 L 39.5723,13.2892 L 44.0021,9.15480000000002 Z " fill="#0F73A0" stroke="#FFFFFF" stroke-width="0.88595" stroke-linecap="butt" stroke-linejoin="miter"/>
        <path d="M 44.0021,28.055 L 44.0021,9.15480000000002 L 39.5723,12.9939 L 39.5723,31.8941 L 44.0021,28.055 Z " fill="#0F73A0" stroke="#FFFFFF" stroke-width="0.88595" stroke-linecap="butt" stroke-linejoin="miter"/>
        <path d="M 23.6253,0 L 23.0346,0.295299999999997 L 0,0.295299999999997 L 0.590599999999995,0 L 23.6253,0 Z " fill="#000000" stroke-width="1px" stroke="#000000"/>
        <path d="M 23.6253,22.7393 L 23.6253,0 L 23.0346,0.590599999999995 L 23.0346,23.3299 L 23.6253,22.7393 Z " fill="#0F73A0" stroke="#FFFFFF" stroke-width="0.88595" stroke-linecap="butt" stroke-linejoin="miter"/>
        <path d="M 0.886000000000024,23.3299 L 23.0346,23.3299 L 23.0346,0.295299999999997 L 0,0.295299999999997 L 0,22.444 L 0.886000000000024,23.3299 Z " fill="#0F73A0" stroke="#FFFFFF" stroke-width="0.88595" stroke-linecap="butt" stroke-linejoin="miter"/>
        <path d="M 21.2628,0.295299999999997 C 21.2628,13.5845 21.2628,13.5845 21.2628,13.5845 C 21.2628,14.7658 20.3768,14.4704 20.3768,14.4704 C 2.36250000000001,14.4704 2.36250000000001,14.4704 2.36250000000001,14.4704 C 2.36250000000001,14.4704 1.77190000000002,14.4704 1.77190000000002,13.8798 C 1.77190000000002,0.295299999999997 1.77190000000002,0.295299999999997 1.77190000000002,0.295299999999997 Z " fill="#0F73A0" stroke="none"/>
        <path d="M 21.2628,0.295299999999997 C 21.2628,13.5845 21.2628,13.5845 21.2628,13.5845 C 21.2628,14.7658 20.3768,14.4704 20.3768,14.4704 C 2.36250000000001,14.4704 2.36250000000001,14.4704 2.36250000000001,14.4704 C 2.36250000000001,14.4704 1.77190000000002,14.4704 1.77190000000002,13.8798 C 1.77190000000002,0.295299999999997 1.77190000000002,0.295299999999997 1.77190000000002,0.295299999999997 Z " stroke="#FFFFFF" stroke-width="0.88595" stroke-linecap="butt" stroke-linejoin="miter" fill="none"/>
        <path d="M 1.18130000000002,2.65780000000001 L 1.18130000000002,1.77190000000002 L 0.295299999999997,1.77190000000002 L 0.295299999999997,2.65780000000001 L 1.18130000000002,2.65780000000001 Z " fill="none" stroke="#FFFFFF" stroke-width="0.88595" stroke-linecap="butt" stroke-linejoin="miter"/>
        <path d="M 22.444,2.65780000000001 L 22.444,1.77190000000002 L 21.5581,1.77190000000002 L 21.5581,2.65780000000001 L 22.444,2.65780000000001 Z " fill="none" stroke="#FFFFFF" stroke-width="0.88595" stroke-linecap="butt" stroke-linejoin="miter"/>
        <path d="M 17.4236,16.833 C 17.4236,23.0346 17.4236,23.0346 17.4236,23.0346 C 3.83910000000003,23.0346 3.83910000000003,23.0346 3.83910000000003,23.0346 C 3.83910000000003,16.5377 3.83910000000003,16.5377 3.83910000000003,16.5377 C 3.83910000000003,15.947 4.4298,15.947 4.4298,15.947 C 16.833,15.947 16.833,15.947 16.833,15.947 C 17.4236,15.947 17.4236,16.833 17.4236,16.833 Z Z " fill="#FFFFFF" stroke="#000000" stroke-width="0.88595" stroke-linecap="butt" stroke-linejoin="miter"/>
        <path d="M 21.2628,23.3299 C 21.2628,16.833 21.2628,16.833 21.2628,16.833 C 21.2628,16.833 21.2628,15.947 20.3768,15.947 C 4.4298,15.947 4.4298,15.947 4.4298,15.947 C 4.4298,15.947 3.83910000000003,15.947 3.83910000000003,16.5377 C 3.83910000000003,23.0346 3.83910000000003,23.0346 3.83910000000003,23.0346 Z " stroke="#FFFFFF" stroke-width="0.88595" stroke-linecap="butt" stroke-linejoin="miter" fill="none"/>
        <path d="M 9.15480000000002,22.7393 L 9.15480000000002,16.5377 L 6.49700000000001,16.5377 L 6.49700000000001,22.7393 L 9.15480000000002,22.7393 Z " fill="#000000" stroke-width="1px" stroke="#000000"/>
        <path d="M 23.0346,0.590599999999995 L 23.6253,0 " stroke="#FFFFFF" stroke-width="0.88595" stroke-linecap="butt" stroke-linejoin="miter" fill="none"/>
      </g>
      <!--emf-blob end-->
    </g>
  </g>
</svg>

