<svg xmlns="http://www.w3.org/2000/svg" xmlns:xlink="http://www.w3.org/1999/xlink" version="1.1" viewBox="0 0 102 90" >
  <title><![CDATA[PC video]]></title>
  <g transform=" scale(3.000000) ">
    <!--converted by libvisio2svg-->
    <g>
      <!--emf-blob start-->
      <g>
        <path d="M 17.1154,23.3125 C 23.3124,23.3125 28.6241000000001,18.2959 28.6241000000001,11.8038 C 28.6241000000001,5.31169999999997 23.3124,0 17.1154,0 C 10.6234,0 5.31170000000003,5.31169999999997 5.31170000000003,11.8038 C 5.31170000000003,18.2959 10.6234,23.3125 17.1154,23.3125 Z Z " fill="#0F73A0" stroke="#FFFFFF" stroke-width="0.8853" stroke-linecap="butt" stroke-linejoin="miter"/>
        <path d="M 0,29.5094 C 2.95090000000005,11.5087 2.95090000000005,11.5087 2.95090000000005,11.5087 C 2.95090000000005,19.1812 9.44300000000004,25.3781 17.1154,25.3781 C 24.7879,25.3781 31.28,19.1812 31.28,11.5087 C 33.9358,29.5094 33.9358,29.5094 33.9358,29.5094 Z Z " fill="#0F73A0" stroke="#FFFFFF" stroke-width="0.8853" stroke-linecap="butt" stroke-linejoin="miter"/>
        <path d="M 24.7879,14.7547 L 24.7879,9.44299999999998 L 8.8528,9.44299999999998 L 8.8528,14.7547 L 24.7879,14.7547 Z " fill="#0F73A0" stroke="#FFFFFF" stroke-width="0.8853" stroke-linecap="butt" stroke-linejoin="miter"/>
      </g>
      <!--emf-blob end-->
    </g>
  </g>
</svg>

