<svg xmlns="http://www.w3.org/2000/svg" xmlns:xlink="http://www.w3.org/1999/xlink" version="1.1" viewBox="0 0 123 171" >
  <title><![CDATA[PDA]]></title>
  <g transform=" scale(3.000000) ">
    <!--converted by libvisio2svg-->
    <g>
      <!--emf-blob start-->
      <g>
        <path d="M 31.2911,5.904 C 32.1767,4.72320000000002 32.1767,4.72320000000002 32.4719,4.428 C 35.4239,0 38.3759,2.06640000000004 36.3095,6.19920000000002 C 34.5383,9.74160000000001 34.5383,10.0368 33.6527,10.9224 C 32.7671,12.9888 31.5863,15.3504 30.7007,16.8264 Z " stroke="#000000" stroke-width="0.4428" stroke-linecap="butt" stroke-linejoin="miter" fill="none"/>
        <path d="M 34.2431,10.3320000000001 C 37.1951,5.904 40.1471,7.97040000000004 38.3759,12.1032 C 36.6047,15.3504 36.3095,15.6456 35.7191,16.8264 C 34.5383,19.188 35.1287,18.5976 34.2431,20.3688 Z " stroke="#000000" stroke-width="0.4428" stroke-linecap="butt" stroke-linejoin="miter" fill="none"/>
        <path d="M 28.3391,11.2176 C 28.9295,10.3320000000001 28.9295,10.0368 30.9959,6.78960000000001 C 33.3575,2.36160000000001 30.1103,0.295200000000023 26.8631,4.72320000000002 C 23.6159,9.44640000000004 23.0255,10.6272 21.2543,12.6936 C 19.4831,14.76 15.9407,22.7304 13.8744,25.092 C 12.6936,26.568 14.4647,20.664 14.4647,19.188 C 13.8744,15.6456 13.8744,15.9408 13.5792,14.76 C 12.9888,13.284 10.6272,11.2176 10.0368,12.9888 C 9.74160000000001,14.1696 9.74160000000001,14.1696 10.0368,15.3504 C 10.0368,15.9408 9.74160000000001,15.6456 9.74160000000001,18.5976 C 10.0368,20.0736 7.38,24.7968 6.49439999999998,26.8632 C 5.01839999999999,31.5863000000001 6.78960000000001,31.5863000000001 6.19920000000002,35.4239 C 5.31360000000001,39.5567 6.19920000000002,38.6711 5.60880000000003,40.4423 C 4.72320000000002,42.2135 0.590399999999988,48.7079 0,49.8887 Z " stroke="#000000" stroke-width="0.4428" stroke-linecap="butt" stroke-linejoin="miter" fill="none"/>
        <path d="M 15.3503,26.8632 C 17.7119,28.3391 15.3503,36.0143 15.3503,36.0143 Z " stroke="#000000" stroke-width="0.4428" stroke-linecap="butt" stroke-linejoin="miter" fill="none"/>
        <path d="M 14.1696,26.568 C 13.5792,25.6824 13.5792,25.092 13.5792,25.092 Z " stroke="#000000" stroke-width="0.4428" stroke-linecap="butt" stroke-linejoin="miter" fill="none"/>
        <path d="M 6.78960000000001,32.4719 L 25.3871,32.4719 L 37.4903,10.3320000000001 L 19.4831,10.3320000000001 L 6.78960000000001,32.4719 L 6.78960000000001,32.4719 Z " fill="#036B9A" stroke="#FFFFFF" stroke-width="0.4428" stroke-linecap="round" stroke-linejoin="round"/>
        <path d="M 6.78960000000001,32.4719 L 6.78960000000001,36.0143 L 25.3871,36.0143 L 25.3871,32.4719 L 6.78960000000001,32.4719 L 6.78960000000001,32.4719 Z " fill="#036B9A" stroke="#FFFFFF" stroke-width="0.4428" stroke-linecap="round" stroke-linejoin="round"/>
        <path d="M 37.4903,10.3320000000001 L 37.4903,13.8744 L 25.3871,36.0143 L 25.3871,32.4719 L 37.4903,10.3320000000001 L 37.4903,10.3320000000001 Z " fill="#036B9A" stroke="#FFFFFF" stroke-width="0.4428" stroke-linecap="round" stroke-linejoin="round"/>
        <path d="M 34.2431,12.6936 L 26.2727,27.4536000000001 L 11.808,27.4536000000001 L 20.3687,12.6936 L 34.2431,12.6936 Z " fill="#FFFFFF" stroke="#FFFFFF" stroke-width="0.4428" stroke-linecap="round" stroke-linejoin="round"/>
        <path d="M 12.3984,29.2247 L 11.5128,30.9959 L 10.0368,30.9959 L 10.9224,29.2247 L 12.3984,29.2247 Z " fill="#FFFFFF" stroke="#FFFFFF" stroke-width="0.4428" stroke-linecap="round" stroke-linejoin="round"/>
        <path d="M 25.3871,29.2247 L 24.5015,30.9959 L 23.0255,30.9959 L 23.9111,29.2247 L 25.3871,29.2247 Z " fill="#FFFFFF" stroke="#FFFFFF" stroke-width="0.4428" stroke-linecap="round" stroke-linejoin="round"/>
        <path d="M 22.1399,29.2247 L 21.2543,30.9959 L 19.7783,30.9959 L 20.6639,29.2247 L 22.1399,29.2247 Z " fill="#FFFFFF" stroke="#FFFFFF" stroke-width="0.4428" stroke-linecap="round" stroke-linejoin="round"/>
        <path d="M 18.8927,29.2247 L 18.0071,30.9959 L 16.2359,30.9959 L 17.1215,29.2247 L 18.8927,29.2247 Z " fill="#FFFFFF" stroke="#FFFFFF" stroke-width="0.4428" stroke-linecap="round" stroke-linejoin="round"/>
        <path d="M 15.6455,29.2247 L 14.7599,30.9959 L 12.9888,30.9959 L 13.8744,29.2247 L 15.6455,29.2247 Z " fill="#FFFFFF" stroke="#FFFFFF" stroke-width="0.4428" stroke-linecap="round" stroke-linejoin="round"/>
        <path d="M 12.9888,56.0879 C 14.1696,54.6119 19.1879,46.9367 19.7783,46.9367 C 25.0919,45.4607 30.9959,33.6527 33.6527,30.4055 C 34.5383,29.5199 34.8335,28.044 35.1287,27.4536000000001 C 35.4239,27.1584 36.6047,24.5016 37.1951,23.3208 C 38.3759,18.5976 38.3759,18.5976 38.3759,18.5976 C 38.3759,14.4648 38.3759,14.4648 38.3759,14.4648 C 38.3759,14.4648 36.6047,10.3320000000001 35.7191,15.6456 C 35.1287,18.8928 35.1287,18.8928 35.1287,18.8928 C 34.8335,19.4832 33.6527,20.9592 33.3575,21.8448 C 33.0623,22.4352 31.2911,24.7968 31.2911,25.9776 Z " fill="#FFFFFF" stroke="none"/>
        <path d="M 12.9888,56.0879 C 14.1696,54.6119 19.1879,46.9367 19.7783,46.9367 C 25.0919,45.4607 30.9959,33.6527 33.6527,30.4055 C 34.5383,29.5199 34.8335,28.044 35.1287,27.4536000000001 C 35.4239,27.1584 36.6047,24.5016 37.1951,23.3208 C 38.3759,18.5976 38.3759,18.5976 38.3759,18.5976 C 38.3759,14.4648 38.3759,14.4648 38.3759,14.4648 C 38.3759,14.4648 36.6047,10.3320000000001 35.7191,15.6456 C 35.1287,18.8928 35.1287,18.8928 35.1287,18.8928 C 34.8335,19.4832 33.6527,20.9592 33.3575,21.8448 C 33.0623,22.4352 31.2911,24.7968 31.2911,25.9776 Z " stroke="#000000" stroke-width="0.4428" stroke-linecap="butt" stroke-linejoin="miter" fill="none"/>
      </g>
      <!--emf-blob end-->
    </g>
  </g>
</svg>

