<svg xmlns="http://www.w3.org/2000/svg" xmlns:xlink="http://www.w3.org/1999/xlink" version="1.1" viewBox="0 0 180 81" >
  <title><![CDATA[Phone-fax]]></title>
  <g transform=" scale(3.000000) ">
    <!--converted by libvisio2svg-->
    <g>
      <!--emf-blob start-->
      <g>
        <path d="M 0,26.2655 L 0,20.3632 L 48.3993,20.3632 L 48.3993,26.2655 L 0,26.2655 Z " fill="#0F73A0" stroke="#FFFFFF" stroke-width="0.88535" stroke-linecap="butt" stroke-linejoin="miter"/>
        <path d="M 48.3993,20.3632 L 0,20.3632 L 11.8047,3.24630000000002 L 59.0235,3.24630000000002 L 48.3993,20.3632 Z " fill="#0F73A0" stroke="#FFFFFF" stroke-width="0.88535" stroke-linecap="butt" stroke-linejoin="miter"/>
        <path d="M 59.0235,3.24630000000002 L 59.0235,14.1657 L 48.3993,26.2655 L 48.3993,20.3632 L 59.0235,3.24630000000002 Z " fill="#0F73A0" stroke="#FFFFFF" stroke-width="0.88535" stroke-linecap="butt" stroke-linejoin="miter"/>
        <path d="M 3.24630000000002,18.5925 L 6.78769999999997,13.5755 L 31.8727,13.5755 L 28.3313,18.5925 L 3.24630000000002,18.5925 Z " fill="#0F73A0" stroke="#FFFFFF" stroke-width="0.88535" stroke-linecap="butt" stroke-linejoin="miter"/>
        <path d="M 6.78769999999997,13.5755 L 10.034,8.55850000000004 Z " fill="#0B719F" stroke-width="1px" stroke="#0B719F"/>
        <path d="M 6.78769999999997,13.5755 L 10.034,8.55850000000004 " stroke="#FFFFFF" stroke-width="0.88535" stroke-linecap="butt" stroke-linejoin="miter" fill="none"/>
        <path d="M 31.8727,13.5755 L 35.4141,8.55850000000004 Z " fill="#0F73A0" stroke-width="1px" stroke="#0F73A0"/>
        <path d="M 31.8727,13.5755 L 35.4141,8.55850000000004 " stroke="#FFFFFF" stroke-width="0.88535" stroke-linecap="butt" stroke-linejoin="miter" fill="none"/>
        <path d="M 48.3993,20.3632 L 59.0235,3.24630000000002 Z " fill="#0B719F" stroke-width="1px" stroke="#0B719F"/>
        <path d="M 48.3993,20.3632 L 59.0235,3.24630000000002 " stroke="#FFFFFF" stroke-width="0.88535" stroke-linecap="butt" stroke-linejoin="miter" fill="none"/>
        <path d="M 43.3823,6.49260000000004 C 41.9067,8.26330000000002 39.8409,10.3292 38.6604,12.0999 C 38.6604,13.5755 38.6604,13.5755 38.6604,13.5755 C 35.119,19.1827 35.119,19.1827 35.119,19.1827 C 34.5287,15.6413 34.5287,15.6413 34.5287,15.6413 C 35.4141,12.6901 44.2676,1.47560000000004 46.3335,0 C 46.6286,3.83660000000003 46.6286,3.83660000000003 46.6286,3.83660000000003 C 43.3823,7.67310000000003 43.3823,7.67310000000003 43.3823,7.67310000000003 Z Z " fill="#0F73A0" stroke="#FFFFFF" stroke-width="0.88535" stroke-linecap="butt" stroke-linejoin="miter"/>
        <path d="M 30.102,15.6413 L 29.8069,19.1827 L 35.119,19.1827 L 34.5287,15.6413 L 30.102,15.6413 Z " fill="#0F73A0" stroke="#FFFFFF" stroke-width="0.88535" stroke-linecap="butt" stroke-linejoin="miter"/>
        <path d="M 46.3335,0 C 44.2676,1.47560000000004 35.4141,12.6901 34.5287,15.6413 C 30.102,15.6413 30.102,15.6413 30.102,15.6413 C 30.9873,12.6901 39.8409,1.47560000000004 41.9067,0 Z Z " fill="#0F73A0" stroke="#FFFFFF" stroke-width="0.88535" stroke-linecap="butt" stroke-linejoin="miter"/>
        <path d="M 38.6604,18.5925 L 43.6774,10.9194 L 51.6456,10.9194 L 46.9237,18.5925 L 38.6604,18.5925 Z " fill="#0F73A0" stroke="#FFFFFF" stroke-width="0.88535" stroke-linecap="butt" stroke-linejoin="miter"/>
        <path d="M 44.2676,18.5925 L 48.9895,10.9194 Z " fill="#0B719F" stroke-width="1px" stroke="#0B719F"/>
        <path d="M 44.2676,18.5925 L 48.9895,10.9194 " stroke="#FFFFFF" stroke-width="0.88535" stroke-linecap="butt" stroke-linejoin="miter" fill="none"/>
        <path d="M 41.3165,18.5925 L 46.3335,10.9194 Z " fill="#0B719F" stroke-width="1px" stroke="#0B719F"/>
        <path d="M 41.3165,18.5925 L 46.3335,10.9194 " stroke="#FFFFFF" stroke-width="0.88535" stroke-linecap="butt" stroke-linejoin="miter" fill="none"/>
        <path d="M 48.1042,16.5266 L 39.8409,16.5266 Z " fill="#0B719F" stroke-width="1px" stroke="#0B719F"/>
        <path d="M 48.1042,16.5266 L 39.8409,16.5266 " stroke="#FFFFFF" stroke-width="0.88535" stroke-linecap="butt" stroke-linejoin="miter" fill="none"/>
        <path d="M 49.2846,14.7559 L 41.3165,14.7559 Z " fill="#0B719F" stroke-width="1px" stroke="#0B719F"/>
        <path d="M 49.2846,14.7559 L 41.3165,14.7559 " stroke="#FFFFFF" stroke-width="0.88535" stroke-linecap="butt" stroke-linejoin="miter" fill="none"/>
        <path d="M 50.4651,12.9852 L 42.4969,12.9852 Z " fill="#0B719F" stroke-width="1px" stroke="#0B719F"/>
        <path d="M 50.4651,12.9852 L 42.4969,12.9852 " stroke="#FFFFFF" stroke-width="0.88535" stroke-linecap="butt" stroke-linejoin="miter" fill="none"/>
      </g>
      <!--emf-blob end-->
    </g>
  </g>
</svg>

