<svg xmlns="http://www.w3.org/2000/svg" xmlns:xlink="http://www.w3.org/1999/xlink" version="1.1" viewBox="0 0 108 81" >
  <title><![CDATA[Phone]]></title>
  <g transform=" scale(3.000000) ">
    <!--converted by libvisio2svg-->
    <g>
      <!--emf-blob start-->
      <g>
        <path d="M 0.295099999999991,26.2655 L 0.295099999999991,20.3632 L 25.085,20.3632 L 25.085,26.2655 L 0.295099999999991,26.2655 Z " fill="#0F73A0" stroke="#FFFFFF" stroke-width="0.88535" stroke-linecap="butt" stroke-linejoin="miter"/>
        <path d="M 25.085,20.3632 L 0,20.3632 L 11.8047,3.24630000000002 L 35.7092,3.24630000000002 L 25.085,20.3632 Z " fill="#0F73A0" stroke="#FFFFFF" stroke-width="0.88535" stroke-linecap="butt" stroke-linejoin="miter"/>
        <path d="M 35.7092,3.24630000000002 L 35.7092,14.1657 L 25.085,26.2655 L 25.085,20.3632 L 35.7092,3.24630000000002 Z " fill="#0F73A0" stroke="#FFFFFF" stroke-width="0.88535" stroke-linecap="butt" stroke-linejoin="miter"/>
        <path d="M 25.085,20.3632 L 35.7092,3.24630000000002 Z " fill="#0B719F" stroke-width="1px" stroke="#0B719F"/>
        <path d="M 25.085,20.3632 L 35.7092,3.24630000000002 " stroke="#FFFFFF" stroke-width="0.88535" stroke-linecap="butt" stroke-linejoin="miter" fill="none"/>
        <path d="M 19.7729,6.49260000000004 C 18.2973,8.26330000000002 16.2314,10.3292 15.051,12.0999 C 15.3461,13.5755 15.3461,13.5755 15.3461,13.5755 C 11.5096,19.1827 11.5096,19.1827 11.5096,19.1827 C 11.2144,15.6413 11.2144,15.6413 11.2144,15.6413 C 11.8047,12.6901 20.6582,1.47560000000004 22.724,0 C 23.0191,3.83660000000003 23.0191,3.83660000000003 23.0191,3.83660000000003 C 19.7729,7.67310000000003 19.7729,7.67310000000003 19.7729,7.67310000000003 Z Z " fill="#0F73A0" stroke="#FFFFFF" stroke-width="0.88535" stroke-linecap="butt" stroke-linejoin="miter"/>
        <path d="M 6.49260000000004,15.6413 L 6.19740000000002,19.1827 L 11.5096,19.1827 L 11.2144,15.6413 L 6.49260000000004,15.6413 Z " fill="#0F73A0" stroke="#FFFFFF" stroke-width="0.88535" stroke-linecap="butt" stroke-linejoin="miter"/>
        <path d="M 22.724,0 C 20.6582,1.47560000000004 11.8047,12.6901 11.2144,15.6413 C 6.49260000000004,15.6413 6.49260000000004,15.6413 6.49260000000004,15.6413 C 7.37790000000001,12.6901 16.2314,1.47560000000004 18.2973,0 Z Z " fill="#0F73A0" stroke="#FFFFFF" stroke-width="0.88535" stroke-linecap="butt" stroke-linejoin="miter"/>
        <path d="M 15.051,18.5925 L 20.3631,10.9194 L 28.0361,10.9194 L 23.6094,18.5925 L 15.051,18.5925 Z " fill="#0F73A0" stroke="#FFFFFF" stroke-width="0.88535" stroke-linecap="butt" stroke-linejoin="miter"/>
        <path d="M 20.6582,18.5925 L 25.3801,10.9194 Z " fill="#0B719F" stroke-width="1px" stroke="#0B719F"/>
        <path d="M 20.6582,18.5925 L 25.3801,10.9194 " stroke="#FFFFFF" stroke-width="0.88535" stroke-linecap="butt" stroke-linejoin="miter" fill="none"/>
        <path d="M 17.707,18.5925 L 23.0191,10.9194 Z " fill="#0B719F" stroke-width="1px" stroke="#0B719F"/>
        <path d="M 17.707,18.5925 L 23.0191,10.9194 " stroke="#FFFFFF" stroke-width="0.88535" stroke-linecap="butt" stroke-linejoin="miter" fill="none"/>
        <path d="M 24.4947,16.5266 L 16.2314,16.5266 Z " fill="#0B719F" stroke-width="1px" stroke="#0B719F"/>
        <path d="M 24.4947,16.5266 L 16.2314,16.5266 " stroke="#FFFFFF" stroke-width="0.88535" stroke-linecap="butt" stroke-linejoin="miter" fill="none"/>
        <path d="M 25.6752,14.7559 L 17.707,14.7559 Z " fill="#0B719F" stroke-width="1px" stroke="#0B719F"/>
        <path d="M 25.6752,14.7559 L 17.707,14.7559 " stroke="#FFFFFF" stroke-width="0.88535" stroke-linecap="butt" stroke-linejoin="miter" fill="none"/>
        <path d="M 26.8557,12.9852 L 18.8875,12.9852 Z " fill="#0B719F" stroke-width="1px" stroke="#0B719F"/>
        <path d="M 26.8557,12.9852 L 18.8875,12.9852 " stroke="#FFFFFF" stroke-width="0.88535" stroke-linecap="butt" stroke-linejoin="miter" fill="none"/>
      </g>
      <!--emf-blob end-->
    </g>
  </g>
</svg>

