<svg xmlns="http://www.w3.org/2000/svg" xmlns:xlink="http://www.w3.org/1999/xlink" version="1.1" viewBox="0 0 129 87" >
  <title><![CDATA[PIX firewall]]></title>
  <g transform=" scale(3.000000) ">
    <!--converted by libvisio2svg-->
    <g>
      <!--emf-blob start-->
      <g>
        <path d="M 42.5127,8.26640000000003 C 42.5127,12.99 33.0654,16.5327 21.2564,16.5327 C 9.44729999999998,16.5327 0,12.99 0,8.26640000000003 C 0,20.3707 0,20.3707 0,20.3707 C 0,25.0943 9.44729999999998,28.9323 21.2564,28.9323 C 33.0654,28.9323 42.5127,25.0943 42.5127,20.3707 Z Z " fill="#0E6F9C" stroke="#FFFFFF" stroke-width="0.8857" stroke-linecap="butt" stroke-linejoin="miter"/>
        <path d="M 42.5127,8.26640000000003 C 42.5127,12.99 33.0654,16.5327 21.2564,16.5327 C 9.44729999999998,16.5327 0,12.99 0,8.26640000000003 C 0,20.3707 0,20.3707 0,20.3707 C 0,25.0943 9.44729999999998,28.9323 21.2564,28.9323 C 33.0654,28.9323 42.5127,25.0943 42.5127,20.3707 Z Z " fill="#0E6F9C" stroke="#FFFFFF" stroke-width="0.8857" stroke-linecap="butt" stroke-linejoin="miter"/>
        <path d="M 21.2564,16.5327 C 33.0654,16.5327 42.5127,12.99 42.5127,8.26640000000003 C 42.5127,3.83800000000002 33.0654,0 21.2564,0 C 9.44729999999998,0 0,3.83800000000002 0,8.26640000000003 C 0,12.99 9.44729999999998,16.5327 21.2564,16.5327 Z Z " fill="#0E6F9C" stroke="#FFFFFF" stroke-width="0.8857" stroke-linecap="butt" stroke-linejoin="miter"/>
        <path d="M 15.0566,12.99 L 15.0566,2.06659999999999 L 25.0943,7.38070000000005 L 15.0566,12.99 Z " fill="#FFFFFF" stroke-width="1px" stroke="#FFFFFF"/>
        <path d="M 28.637,12.3996 L 28.637,2.65710000000001 L 25.3895,2.65710000000001 L 25.3895,12.3996 L 28.637,12.3996 Z " fill="#FFFFFF" stroke-width="1px" stroke="#FFFFFF"/>
      </g>
      <!--emf-blob end-->
    </g>
  </g>
</svg>

