<svg xmlns="http://www.w3.org/2000/svg" xmlns:xlink="http://www.w3.org/1999/xlink" version="1.1" viewBox="0 0 204 129" >
  <title><![CDATA[PMC]]></title>
  <g transform=" scale(3.000000) ">
    <!--converted by libvisio2svg-->
    <g>
      <!--emf-blob start-->
      <g>
        <path d="M 61.7025,27.1609 L 65.8357,5.60930000000002 L 34.5416,5.60930000000002 L 29.818,27.1609 L 61.7025,27.1609 Z " fill="#036C9B" stroke="#FFFFFF" stroke-width="0.44285" stroke-linecap="butt" stroke-linejoin="miter"/>
        <path d="M 65.8357,5.60930000000002 L 67.3118,7.08539999999999 L 63.4739,28.3418 L 61.7025,27.1609 L 65.8357,5.60930000000002 Z " fill="#036C9B" stroke="#FFFFFF" stroke-width="0.44285" stroke-linecap="butt" stroke-linejoin="miter"/>
        <path d="M 29.818,27.1609 L 31.2941,28.3418 L 63.4739,28.3418 L 61.7025,27.1609 L 29.818,27.1609 Z " fill="#036C9B" stroke="#FFFFFF" stroke-width="0.44285" stroke-linecap="butt" stroke-linejoin="miter"/>
        <path d="M 61.9977,28.637 C 61.9977,31.8845 61.9977,31.8845 61.9977,31.8845 C 61.4073,32.7702 61.4073,32.7702 61.4073,32.7702 C 61.4073,32.7702 59.3407,33.3606 59.6359,34.5415 C 51.0743,42.5127 51.0743,42.5127 51.0743,42.5127 C 51.0743,38.97 51.0743,38.97 51.0743,38.97 Z Z " fill="#036C9B" stroke="#FFFFFF" stroke-width="0.44285" stroke-linecap="butt" stroke-linejoin="miter"/>
        <path d="M 16.5327,38.97 L 16.5327,42.5127 L 51.0743,42.5127 L 51.0743,38.97 L 16.5327,38.97 Z " fill="#036C9B" stroke-width="1px" stroke="#036C9B"/>
        <path d="M 16.5327,38.97 L 16.5327,42.5127 L 51.0743,42.5127 L 51.0743,38.97 L 16.5327,38.97 " stroke="#FFFFFF" stroke-width="0.44285" stroke-linecap="butt" stroke-linejoin="miter" fill="none"/>
        <path d="M 30.1132,28.9322 L 61.9977,28.637 L 51.0743,38.97 L 16.5327,38.97 L 30.1132,28.9322 Z " fill="#036C9B" stroke="#FFFFFF" stroke-width="0.44285" stroke-linecap="butt" stroke-linejoin="miter"/>
        <path d="M 59.0454,25.0943 L 62.5882,8.2663 L 36.9034,8.2663 L 33.6559,25.0943 L 59.0454,25.0943 Z " fill="#036C9B" stroke="#FFFFFF" stroke-width="0.44285" stroke-linecap="butt" stroke-linejoin="miter"/>
        <path d="M 30.9989,29.2275 L 23.0277,35.7225 " stroke="#FFFFFF" stroke-width="0" stroke-linecap="butt" stroke-linejoin="round" fill="none"/>
        <path d="M 33.6559,29.2275 L 25.3895,35.7225 " stroke="#FFFFFF" stroke-width="0" stroke-linecap="butt" stroke-linejoin="round" fill="none"/>
        <path d="M 36.0177,29.2275 L 28.0466,35.7225 " stroke="#FFFFFF" stroke-width="0" stroke-linecap="butt" stroke-linejoin="round" fill="none"/>
        <path d="M 38.6748,29.2275 L 30.7036,35.7225 " stroke="#FFFFFF" stroke-width="0" stroke-linecap="butt" stroke-linejoin="round" fill="none"/>
        <path d="M 41.3318,29.2275 L 33.3607,35.7225 " stroke="#FFFFFF" stroke-width="0" stroke-linecap="butt" stroke-linejoin="round" fill="none"/>
        <path d="M 43.9889,29.2275 L 35.7225,35.7225 " stroke="#FFFFFF" stroke-width="0" stroke-linecap="butt" stroke-linejoin="round" fill="none"/>
        <path d="M 46.3507,29.2275 L 38.3795,35.7225 " stroke="#FFFFFF" stroke-width="0" stroke-linecap="butt" stroke-linejoin="round" fill="none"/>
        <path d="M 49.0077,29.2275 L 41.0366,35.7225 " stroke="#FFFFFF" stroke-width="0" stroke-linecap="butt" stroke-linejoin="round" fill="none"/>
        <path d="M 51.6648,29.2275 L 43.6936,35.7225 " stroke="#FFFFFF" stroke-width="0" stroke-linecap="butt" stroke-linejoin="round" fill="none"/>
        <path d="M 54.3218,29.2275 L 46.0554,35.7225 " stroke="#FFFFFF" stroke-width="0" stroke-linecap="butt" stroke-linejoin="round" fill="none"/>
        <path d="M 56.6836,29.2275 L 48.7125,35.7225 " stroke="#FFFFFF" stroke-width="0" stroke-linecap="butt" stroke-linejoin="round" fill="none"/>
        <path d="M 59.3407,29.2275 L 51.3695,35.7225 " stroke="#FFFFFF" stroke-width="0" stroke-linecap="butt" stroke-linejoin="round" fill="none"/>
        <path d="M 23.9134,35.132 L 52.5504,35.132 " stroke="#FFFFFF" stroke-width="0" stroke-linecap="butt" stroke-linejoin="round" fill="none"/>
        <path d="M 25.6848,33.6559 L 54.0266,33.6559 " stroke="#FFFFFF" stroke-width="0" stroke-linecap="butt" stroke-linejoin="round" fill="none"/>
        <path d="M 27.7514,32.1797 L 55.7979,32.1797 " stroke="#FFFFFF" stroke-width="0" stroke-linecap="butt" stroke-linejoin="round" fill="none"/>
        <path d="M 29.5227,30.7036 L 57.8645,30.7036 " stroke="#FFFFFF" stroke-width="0" stroke-linecap="butt" stroke-linejoin="round" fill="none"/>
        <path d="M 49.8934,12.3995 C 51.96,14.1709 54.3218,17.1231 54.617,18.8945 C 54.617,20.3706 53.7314,20.9611 53.1409,21.5516 C 52.2552,22.142 50.7791,22.142 50.7791,22.142 C 49.0077,20.0754 49.0077,20.0754 49.0077,20.0754 C 49.0077,20.0754 52.5504,19.7802 51.96,17.7136 C 51.3695,15.9422 47.8268,10.6281 49.8934,12.3995 Z " fill="#FFFFFF" stroke="none"/>
        <path d="M 50.4839,17.7136 L 51.96,23.9134 L 48.122,21.8468 L 50.4839,17.7136 Z M 50.4839,17.7136 L 50.4839,17.7136 Z " fill="#FFFFFF" stroke-width="1px" stroke="#FFFFFF"/>
        <path d="M 50.4839,17.7136 L 51.96,23.9134 L 48.122,21.8468 L 50.4839,17.7136 M 50.4839,17.7136 L 50.4839,17.7136 " stroke="none" stroke-width="0" fill="none"/>
        <path d="M 46.0554,22.142 C 43.6936,20.3706 41.3318,17.4184 41.3318,15.647 C 41.0366,14.1709 41.9223,13.5804 42.8079,12.99 C 43.3984,12.3995 44.8745,12.3995 44.8745,12.3995 C 46.6459,14.4661 46.6459,14.4661 46.6459,14.4661 C 46.6459,14.4661 43.3984,14.7613 43.6936,16.8279 C 44.2841,18.5993 48.122,23.9134 46.0554,22.142 Z " fill="#FFFFFF" stroke="none"/>
        <path d="M 45.465,16.8279 L 43.6936,10.6281 L 47.8268,12.99 L 45.465,16.8279 Z M 45.465,16.8279 L 45.465,16.8279 Z " fill="#FFFFFF" stroke-width="1px" stroke="#FFFFFF"/>
        <path d="M 45.465,16.8279 L 43.6936,10.6281 L 47.8268,12.99 L 45.465,16.8279 M 45.465,16.8279 L 45.465,16.8279 " stroke="none" stroke-width="0" fill="none"/>
        <path d="M 49.0077,5.0188 C 50.4839,5.0188 51.6648,3.83789999999999 51.6648,2.65699999999998 C 51.6648,1.18090000000001 50.4839,0 49.0077,0 C 47.8268,0 46.6459,1.18090000000001 46.6459,2.65699999999998 C 46.6459,3.83789999999999 47.8268,5.0188 49.0077,5.0188 Z Z " fill="#036C9B" stroke="#FFFFFF" stroke-width="0.44285" stroke-linecap="butt" stroke-linejoin="miter"/>
        <path d="M 45.465,6.495 C 46.0554,2.36180000000002 46.0554,2.36180000000002 46.0554,2.36180000000002 C 46.0554,4.13310000000001 47.5316,5.60930000000002 49.3029,5.60930000000002 C 50.7791,5.60930000000002 52.2552,4.13310000000001 52.2552,2.36180000000002 C 52.8457,6.495 52.8457,6.495 52.8457,6.495 Z Z " fill="#036C9B" stroke="none"/>
        <path d="M 50.7791,3.2475 L 50.7791,2.06659999999999 L 47.5316,2.06659999999999 L 47.5316,3.2475 L 50.7791,3.2475 Z " fill="#FFFFFF" stroke-width="1px" stroke="#FFFFFF"/>
        <path d="M 2.95229999999998,34.5415 C 3.2475,35.132 2.95229999999998,36.0177 2.06659999999999,36.3129 C 1.47609999999997,36.6081 0.59050000000002,36.3129 0.295199999999966,35.7225 C 0,34.8368 0.295199999999966,34.2463 1.18090000000001,33.9511 C 1.77139999999997,33.6559 2.65699999999998,33.9511 2.95229999999998,34.5415 Z Z " fill="#000000" stroke="#FFFFFF" stroke-width="3.54275" stroke-linecap="butt" stroke-linejoin="miter"/>
        <path d="M 24.7991,27.1609 C 21.8468,30.1131 15.0566,33.3606 9.15199999999999,34.8368 C 5.3141,36.0177 2.65699999999998,36.0177 1.47609999999997,35.132 Z " stroke="#FFFFFF" stroke-width="3.54275" stroke-linecap="butt" stroke-linejoin="round" fill="none"/>
        <path d="M 7.97109999999998,27.4561 C 7.97109999999998,25.0943 8.5616,22.4372 9.74250000000001,19.7802 C 12.99,13.2852 19.485,9.44720000000001 24.2086,10.9234 C 28.637,12.6947 29.818,19.1897 26.5705,25.3895 C 25.98,26.2752 25.6848,26.8656 25.3895,27.1609 Z " stroke="#FFFFFF" stroke-width="3.54275" stroke-linecap="butt" stroke-linejoin="round" fill="none"/>
        <path d="M 27.4561,26.2752 C 28.0466,27.4561 27.4561,28.9322 26.2752,29.5227 C 25.0943,29.8179 23.9134,29.2275 23.323,28.3418 C 22.7325,27.1609 23.323,25.6847 24.5039,25.0943 C 25.6848,24.7991 26.8657,25.3895 27.4561,26.2752 Z Z " fill="#000000" stroke="#FFFFFF" stroke-width="3.54275" stroke-linecap="butt" stroke-linejoin="miter"/>
        <path d="M 9.15199999999999,26.8656 C 9.44729999999998,27.4561 9.15199999999999,28.3418 8.5616,28.637 C 7.67590000000001,28.9322 7.08549999999997,28.637 6.79019999999997,27.7513 C 6.495,27.1609 6.79019999999997,26.5704 7.38069999999999,26.2752 C 7.97109999999998,25.98 8.85680000000002,26.2752 9.15199999999999,26.8656 Z Z " fill="#000000" stroke="#FFFFFF" stroke-width="3.54275" stroke-linecap="butt" stroke-linejoin="miter"/>
        <path d="M 2.95229999999998,34.5415 C 3.2475,35.132 2.95229999999998,36.0177 2.06659999999999,36.3129 C 1.47609999999997,36.6081 0.59050000000002,36.3129 0.295199999999966,35.7225 C 0,34.8368 0.295199999999966,34.2463 1.18090000000001,33.9511 C 1.77139999999997,33.6559 2.65699999999998,33.9511 2.95229999999998,34.5415 Z Z " fill="#000000" stroke="none"/>
        <path d="M 24.7991,27.1609 C 21.8468,30.1131 15.0566,33.3606 9.15199999999999,34.8368 C 5.3141,36.0177 2.65699999999998,36.0177 1.47609999999997,35.132 Z " stroke="#000000" stroke-width="0.44285" stroke-linecap="butt" stroke-linejoin="round" fill="none"/>
        <path d="M 7.97109999999998,27.4561 C 7.97109999999998,25.0943 8.5616,22.4372 9.74250000000001,19.7802 C 12.99,13.2852 19.485,9.44720000000001 24.2086,10.9234 C 28.637,12.6947 29.818,19.1897 26.5705,25.3895 C 25.98,26.2752 25.6848,26.8656 25.3895,27.1609 Z " stroke="#000000" stroke-width="1.77135" stroke-linecap="butt" stroke-linejoin="round" fill="none"/>
        <path d="M 27.4561,26.2752 C 28.0466,27.4561 27.4561,28.9322 26.2752,29.5227 C 25.0943,29.8179 23.9134,29.2275 23.323,28.3418 C 22.7325,27.1609 23.323,25.6847 24.5039,25.0943 C 25.6848,24.7991 26.8657,25.3895 27.4561,26.2752 Z Z " fill="#000000" stroke="#FFFFFF" stroke-width="0.44285" stroke-linecap="butt" stroke-linejoin="miter"/>
        <path d="M 9.15199999999999,26.8656 C 9.44729999999998,27.4561 9.15199999999999,28.3418 8.5616,28.637 C 7.67590000000001,28.9322 7.08549999999997,28.637 6.79019999999997,27.7513 C 6.495,27.1609 6.79019999999997,26.5704 7.38069999999999,26.2752 C 7.97109999999998,25.98 8.85680000000002,26.2752 9.15199999999999,26.8656 Z Z " fill="#000000" stroke="none"/>
      </g>
      <!--emf-blob end-->
    </g>
  </g>
</svg>

