<svg xmlns="http://www.w3.org/2000/svg" xmlns:xlink="http://www.w3.org/1999/xlink" version="1.1" viewBox="0 0 153 60" >
  <title><![CDATA[Printer]]></title>
  <g transform=" scale(3.000000) ">
    <!--converted by libvisio2svg-->
    <g>
      <!--emf-blob start-->
      <g>
        <path d="M 0,19.1789 L 0,4.13079999999997 L 32.7517,4.13079999999997 L 32.7517,19.1789 L 0,19.1789 Z " fill="#0F73A0" stroke="#FFFFFF" stroke-width="0.8852" stroke-linecap="butt" stroke-linejoin="miter"/>
        <path d="M 32.7517,19.1789 L 32.7517,4.13079999999997 L 0,4.13079999999997 L 4.1309,0 L 33.0468,0 L 36.8826,0 L 36.8826,14.753 L 32.7517,19.1789 Z " fill="#0F73A0" stroke="#FFFFFF" stroke-width="0.8852" stroke-linecap="butt" stroke-linejoin="miter"/>
        <path d="M 32.7517,4.13079999999997 L 36.8826,0 Z " fill="#0F73A0" stroke-width="1px" stroke="#0F73A0"/>
        <path d="M 32.7517,4.13079999999997 L 36.8826,0 " stroke="#FFFFFF" stroke-width="0.8852" stroke-linecap="butt" stroke-linejoin="miter" fill="none"/>
        <path d="M 32.7517,15.048 L 0,15.048 Z " fill="#0F73A0" stroke-width="1px" stroke="#0F73A0"/>
        <path d="M 32.7517,15.048 L 0,15.048 " stroke="#FFFFFF" stroke-width="0.8852" stroke-linecap="butt" stroke-linejoin="miter" fill="none"/>
        <path d="M 36.8826,10.9172 L 32.7517,15.048 Z " fill="#0F73A0" stroke-width="1px" stroke="#0F73A0"/>
        <path d="M 36.8826,10.9172 L 32.7517,15.048 " stroke="#FFFFFF" stroke-width="0.8852" stroke-linecap="butt" stroke-linejoin="miter" fill="none"/>
        <path d="M 50.4554,2.95060000000001 L 46.3245,7.37649999999996 L 32.7517,12.0974 L 36.8826,7.67149999999998 L 50.4554,2.95060000000001 Z " fill="#0F73A0" stroke="#FFFFFF" stroke-width="0.8852" stroke-linecap="butt" stroke-linejoin="miter"/>
      </g>
      <!--emf-blob end-->
    </g>
  </g>
</svg>

