<svg xmlns="http://www.w3.org/2000/svg" xmlns:xlink="http://www.w3.org/1999/xlink" version="1.1" viewBox="0 0 93 96" >
  <title><![CDATA[Programmable switch]]></title>
  <g transform=" scale(3.000000) ">
    <!--converted by libvisio2svg-->
    <g>
      <!--emf-blob start-->
      <g>
        <path d="M 25.3938,31.2992 L 25.3938,5.31490000000002 L 0,5.31490000000002 L 0,31.2992 L 25.3938,31.2992 Z " fill="#0E6F9C" stroke="#FFFFFF" stroke-width="0.88585" stroke-linecap="butt" stroke-linejoin="miter"/>
        <path d="M 12.6969,13.5826 L 20.6694,13.5826 " stroke="#FFFFFF" stroke-width="2.21455" stroke-linecap="butt" stroke-linejoin="miter" fill="none"/>
        <path d="M 20.9646,11.2204 L 20.9646,15.9449 L 23.6221,13.5826 L 20.9646,11.2204 Z " fill="#FFFFFF" stroke="#FFFFFF" stroke-width="0.4429" stroke-linecap="butt" stroke-linejoin="miter"/>
        <path d="M 12.6969,22.7362 L 20.6694,22.7362 " stroke="#FFFFFF" stroke-width="2.21455" stroke-linecap="butt" stroke-linejoin="miter" fill="none"/>
        <path d="M 20.9646,20.374 L 20.9646,24.8031 L 23.6221,22.7362 L 20.9646,20.374 Z " fill="#FFFFFF" stroke="#FFFFFF" stroke-width="0.4429" stroke-linecap="butt" stroke-linejoin="miter"/>
        <path d="M 8.26780000000002,18.3071 L 8.26780000000002,10.3346 " stroke="#FFFFFF" stroke-width="2.21455" stroke-linecap="butt" stroke-linejoin="miter" fill="none"/>
        <path d="M 5.90559999999999,10.0393 L 10.3347,10.0393 L 8.26780000000002,7.38190000000003 L 5.90559999999999,10.0393 Z " fill="#FFFFFF" stroke="#FFFFFF" stroke-width="0.4429" stroke-linecap="butt" stroke-linejoin="miter"/>
        <path d="M 17.126,18.3071 L 17.126,10.3346 " stroke="#FFFFFF" stroke-width="2.21455" stroke-linecap="butt" stroke-linejoin="miter" fill="none"/>
        <path d="M 14.7638,10.0393 L 19.4883,10.0393 L 17.126,7.38190000000003 L 14.7638,10.0393 Z " fill="#FFFFFF" stroke="#FFFFFF" stroke-width="0.4429" stroke-linecap="butt" stroke-linejoin="miter"/>
        <path d="M 17.126,18.3071 L 17.126,25.9842 " stroke="#FFFFFF" stroke-width="2.21455" stroke-linecap="butt" stroke-linejoin="miter" fill="none"/>
        <path d="M 19.4883,26.2795 L 15.0591,26.2795 L 17.126,28.937 L 19.4883,26.2795 Z " fill="#FFFFFF" stroke="#FFFFFF" stroke-width="0.4429" stroke-linecap="butt" stroke-linejoin="miter"/>
        <path d="M 8.26780000000002,18.3071 L 8.26780000000002,25.9842 " stroke="#FFFFFF" stroke-width="2.21455" stroke-linecap="butt" stroke-linejoin="miter" fill="none"/>
        <path d="M 10.63,26.2795 L 6.20080000000002,26.2795 L 8.26780000000002,28.937 L 10.63,26.2795 Z " fill="#FFFFFF" stroke="#FFFFFF" stroke-width="0.4429" stroke-linecap="butt" stroke-linejoin="miter"/>
        <path d="M 12.6969,22.7362 L 5.0197,22.7362 " stroke="#FFFFFF" stroke-width="2.21455" stroke-linecap="butt" stroke-linejoin="miter" fill="none"/>
        <path d="M 4.72450000000003,25.0984 L 4.72450000000003,20.6693 L 2.06700000000001,22.7362 L 4.72450000000003,25.0984 Z " fill="#FFFFFF" stroke="#FFFFFF" stroke-width="0.4429" stroke-linecap="butt" stroke-linejoin="miter"/>
        <path d="M 12.6969,13.5826 L 5.0197,13.5826 " stroke="#FFFFFF" stroke-width="2.21455" stroke-linecap="butt" stroke-linejoin="miter" fill="none"/>
        <path d="M 4.72450000000003,15.9449 L 4.72450000000003,11.5157 L 2.06700000000001,13.5826 L 4.72450000000003,15.9449 Z " fill="#FFFFFF" stroke="#FFFFFF" stroke-width="0.4429" stroke-linecap="butt" stroke-linejoin="miter"/>
        <path d="M 25.3938,5.31490000000002 L 0,5.31490000000002 L 6.49610000000001,0 L 30.7087,0 L 30.7087,0.295200000000023 L 30.7087,25.9842 L 25.3938,31.2992 L 25.3938,5.31490000000002 L 25.3938,5.31490000000002 Z " fill="#0E6F9C" stroke="#FFFFFF" stroke-width="0.88585" stroke-linecap="butt" stroke-linejoin="miter"/>
        <path d="M 25.3938,5.31490000000002 L 30.7087,0 Z " fill="#0E6F9C" stroke-width="1px" stroke="#0E6F9C"/>
        <path d="M 25.3938,5.31490000000002 L 30.7087,0 " stroke="#FFFFFF" stroke-width="0.88585" stroke-linecap="butt" stroke-linejoin="miter" fill="none"/>
        <path d="M 12.6969,23.622 C 15.6497,23.622 18.0119,21.2598 18.0119,18.3071 C 18.0119,15.3543 15.6497,12.6968 12.6969,12.6968 C 9.7441,12.6968 7.38190000000003,15.3543 7.38190000000003,18.3071 C 7.38190000000003,21.2598 9.7441,23.622 12.6969,23.622 Z Z " fill="#0E6F9C" stroke="#FFFFFF" stroke-width="0.88585" stroke-linecap="butt" stroke-linejoin="miter"/>
      </g>
      <!--emf-blob end-->
    </g>
  </g>
</svg>

