<svg xmlns="http://www.w3.org/2000/svg" xmlns:xlink="http://www.w3.org/1999/xlink" version="1.1" viewBox="0 0 84 126" >
  <title><![CDATA[Protocol translator]]></title>
  <g transform=" scale(3.000000) ">
    <!--converted by libvisio2svg-->
    <g>
      <!--emf-blob start-->
      <g>
        <path d="M 0,41.919 L 0,4.428 L 21.8451,4.428 L 21.8451,41.919 L 0,41.919 Z " fill="#0E6F9C" stroke="#FFFFFF" stroke-width="0.8856" stroke-linecap="butt" stroke-linejoin="miter"/>
        <path d="M 6.49450000000002,0 L 0,4.428 L 21.8451,4.428 L 27.1588,0 L 6.49450000000002,0 Z " fill="#0E6F9C" stroke="#FFFFFF" stroke-width="0.8856" stroke-linecap="butt" stroke-linejoin="miter"/>
        <path d="M 27.1588,35.1293 L 27.1588,0 L 21.8451,4.428 L 21.8451,41.919 L 27.1588,35.1293 Z " fill="#0E6F9C" stroke="#FFFFFF" stroke-width="0.8856" stroke-linecap="butt" stroke-linejoin="miter"/>
        <path d="M 16.5315000000001,12.989 L 16.5315000000001,25.9779 L 15.6458,25.9779 L 15.6458,12.989 L 13.8746,12.989 L 15.941,10.3321 L 18.0075000000001,12.989 L 16.5315000000001,12.989 Z " fill="#FFFFFF" stroke-width="1px" stroke="#FFFFFF"/>
        <path d="M 5.60890000000001,23.3211 L 5.60890000000001,10.3321 L 4.72330000000005,10.3321 L 4.72330000000005,23.3211 L 3.24730000000005,23.3211 L 5.31370000000004,25.9779 L 7.0849,23.3211 L 5.60890000000001,23.3211 Z " fill="#FFFFFF" stroke-width="1px" stroke="#FFFFFF"/>
        <path d="M 15.0554,33.9484 C 13.5794,33.9484 13.5794,33.9484 13.5794,33.9484 C 15.6458,31.2916 15.6458,31.2916 15.6458,31.2916 C 17.7123,33.9484 17.7123,33.9484 17.7123,33.9484 C 16.2362000000001,33.9484 16.2362000000001,33.9484 16.2362000000001,33.9484 C 15.6458,36.3101 12.989,38.0813 10.6274,38.0813 C 7.97050000000002,38.0813 5.01850000000002,35.7197 5.01850000000002,32.4724 C 5.90410000000003,32.4724 5.90410000000003,32.4724 5.90410000000003,32.4724 C 5.90410000000003,35.1293 8.26570000000004,36.9005 10.6274,36.9005 C 12.3986,36.9005 14.465,35.7197 15.0554,33.9484 Z Z " fill="#FFFFFF" stroke="none"/>
      </g>
      <!--emf-blob end-->
    </g>
  </g>
</svg>

