<svg xmlns="http://www.w3.org/2000/svg" xmlns:xlink="http://www.w3.org/1999/xlink" version="1.1" viewBox="0 0 63 171" >
  <title><![CDATA[Radio tower]]></title>
  <g transform=" scale(3.000000) ">
    <!--converted by libvisio2svg-->
    <g>
      <!--emf-blob start-->
      <g>
        <path d="M 12.4016,29.8228 L 5.0197,29.8228 L 5.0197,3.24799999999999 L 12.4016,3.24799999999999 L 12.4016,29.8228 Z " fill="#FFFFFF" stroke="#0F73A0" stroke-width="1.32875" stroke-linecap="butt" stroke-linejoin="miter"/>
        <path d="M 0.295299999999997,56.1022 L 5.0197,29.5275 L 12.4016,29.5275 L 16.8307,56.1022 Z " fill="#FFFFFF" stroke-width="1px" stroke="#FFFFFF"/>
        <path d="M 0.295299999999997,56.1022 L 5.0197,29.5275 L 12.4016,29.5275 L 16.8307,56.1022 " stroke="#0F73A0" stroke-width="1.32875" stroke-linecap="butt" stroke-linejoin="miter" fill="none"/>
        <path d="M 0,56.1022 L 15.3543,48.4251 L 2.95280000000002,41.3385 L 13.2874,34.8424 L 5.6103,29.8228 L 12.4016,20.6692 L 5.315,15.059 L 12.4016,8.56299999999999 L 5.0197,3.54329999999999 " stroke="#0F73A0" stroke-width="1.32875" stroke-linecap="butt" stroke-linejoin="miter" fill="none"/>
        <path d="M 17.126,56.1022 L 2.36219999999997,48.4251 L 14.7638,41.3385 L 4.42910000000001,34.8424 L 12.1063,29.8228 L 5.315,20.6692 L 12.1063,15.059 L 5.0197,8.56299999999999 L 12.4016,3.54329999999999 " stroke="#0F73A0" stroke-width="1.32875" stroke-linecap="butt" stroke-linejoin="miter" fill="none"/>
        <path d="M 12.1063,3.24799999999999 L 5.315,3.24799999999999 L 7.08659999999998,0 L 10.3346,0 L 12.1063,3.24799999999999 Z " fill="none" stroke="#0F73A0" stroke-width="1.32875" stroke-linecap="butt" stroke-linejoin="miter"/>
        <path d="M 15.3543,4.13380000000001 C 15.9449,3.24799999999999 15.9449,3.24799999999999 15.9449,3.24799999999999 C 16.2401,3.24799999999999 16.2401,3.24799999999999 16.2401,3.24799999999999 C 16.2401,7.08660000000003 16.2401,7.08660000000003 16.2401,7.08660000000003 C 18.8976,7.08660000000003 18.8976,7.08660000000003 18.8976,7.08660000000003 C 19.1929,7.38190000000003 19.1929,7.38190000000003 19.1929,7.38190000000003 C 19.4882,7.38190000000003 19.4882,7.38190000000003 19.4882,7.38190000000003 C 19.7835,7.08660000000003 19.7835,7.08660000000003 19.7835,7.08660000000003 C 20.0787,6.79130000000004 20.374,7.6771 20.374,7.6771 C 20.374,7.97239999999999 20.374,7.97239999999999 20.374,7.97239999999999 C 20.374,7.97239999999999 20.0787,8.56299999999999 19.7835,8.56299999999999 C 19.4882,7.97239999999999 19.4882,7.97239999999999 19.4882,7.97239999999999 C 19.1929,7.97239999999999 19.1929,7.97239999999999 19.1929,7.97239999999999 C 18.8976,8.26769999999999 18.8976,8.26769999999999 18.8976,8.26769999999999 C 16.2401,8.26769999999999 16.2401,8.26769999999999 16.2401,8.26769999999999 C 16.2401,12.4015 16.2401,12.4015 16.2401,12.4015 C 15.9449,12.4015 15.9449,12.4015 15.9449,12.4015 C 15.3543,11.5157 15.3543,11.5157 15.3543,11.5157 Z Z " fill="#0B719F" stroke="#000000" stroke-width="1.32875" stroke-linecap="butt" stroke-linejoin="miter"/>
        <path d="M 15.3543,11.5157 C 13.8779,11.5157 13.8779,11.5157 13.8779,11.5157 C 13.2874,10.6299 13.2874,9.15350000000001 13.2874,9.15350000000001 C 12.1063,9.15350000000001 12.1063,9.15350000000001 12.1063,9.15350000000001 C 12.1063,7.97239999999999 12.1063,7.97239999999999 12.1063,7.97239999999999 C 12.1063,7.6771 12.1063,7.6771 12.1063,7.6771 C 12.1063,6.49599999999998 12.1063,6.49599999999998 12.1063,6.49599999999998 C 13.2874,6.49599999999998 13.2874,6.49599999999998 13.2874,6.49599999999998 C 13.2874,6.49599999999998 13.2874,4.7244 13.8779,4.13380000000001 C 15.3543,4.13380000000001 15.3543,4.13380000000001 15.3543,4.13380000000001 Z Z " fill="#0B719F" stroke="#000000" stroke-width="1.32875" stroke-linecap="butt" stroke-linejoin="miter"/>
        <path d="M 15.3543,4.13380000000001 C 15.9449,3.24799999999999 15.9449,3.24799999999999 15.9449,3.24799999999999 C 16.2401,3.24799999999999 16.2401,3.24799999999999 16.2401,3.24799999999999 C 16.2401,7.08660000000003 16.2401,7.08660000000003 16.2401,7.08660000000003 C 18.8976,7.08660000000003 18.8976,7.08660000000003 18.8976,7.08660000000003 C 19.1929,7.38190000000003 19.1929,7.38190000000003 19.1929,7.38190000000003 C 19.4882,7.38190000000003 19.4882,7.38190000000003 19.4882,7.38190000000003 C 19.7835,7.08660000000003 19.7835,7.08660000000003 19.7835,7.08660000000003 C 20.0787,6.79130000000004 20.374,7.6771 20.374,7.6771 C 20.374,7.97239999999999 20.374,7.97239999999999 20.374,7.97239999999999 C 20.374,7.97239999999999 20.0787,8.56299999999999 19.7835,8.56299999999999 C 19.4882,7.97239999999999 19.4882,7.97239999999999 19.4882,7.97239999999999 C 19.1929,7.97239999999999 19.1929,7.97239999999999 19.1929,7.97239999999999 C 18.8976,8.26769999999999 18.8976,8.26769999999999 18.8976,8.26769999999999 C 16.2401,8.26769999999999 16.2401,8.26769999999999 16.2401,8.26769999999999 C 16.2401,12.4015 16.2401,12.4015 16.2401,12.4015 C 15.9449,12.4015 15.9449,12.4015 15.9449,12.4015 C 15.3543,11.5157 15.3543,11.5157 15.3543,11.5157 Z Z " fill="#0F73A0" stroke="#0B719F" stroke-width="1.32875" stroke-linecap="butt" stroke-linejoin="miter"/>
        <path d="M 15.3543,11.5157 C 13.8779,11.5157 13.8779,11.5157 13.8779,11.5157 C 13.2874,10.6299 13.2874,9.15350000000001 13.2874,9.15350000000001 C 12.1063,9.15350000000001 12.1063,9.15350000000001 12.1063,9.15350000000001 C 12.1063,7.97239999999999 12.1063,7.97239999999999 12.1063,7.97239999999999 C 12.1063,7.6771 12.1063,7.6771 12.1063,7.6771 C 12.1063,6.49599999999998 12.1063,6.49599999999998 12.1063,6.49599999999998 C 13.2874,6.49599999999998 13.2874,6.49599999999998 13.2874,6.49599999999998 C 13.2874,6.49599999999998 13.2874,4.7244 13.8779,4.13380000000001 C 15.3543,4.13380000000001 15.3543,4.13380000000001 15.3543,4.13380000000001 Z Z " fill="#0B719F" stroke="#0F73A0" stroke-width="1.32875" stroke-linecap="butt" stroke-linejoin="miter"/>
        <path d="M 15.3543,16.2401 C 15.9449,15.3543 15.9449,15.3543 15.9449,15.3543 C 16.2401,15.3543 16.2401,15.3543 16.2401,15.3543 C 16.2401,19.4881 16.2401,19.4881 16.2401,19.4881 C 18.8976,19.4881 18.8976,19.4881 18.8976,19.4881 C 19.1929,19.4881 19.1929,19.4881 19.1929,19.4881 C 19.4882,19.4881 19.4882,19.4881 19.4882,19.4881 C 19.7835,19.1929 19.7835,19.1929 19.7835,19.1929 C 20.0787,19.1929 20.374,19.7834 20.374,19.7834 C 20.374,20.0787 20.374,20.0787 20.374,20.0787 C 20.374,20.0787 20.0787,20.9645 19.7835,20.6692 C 19.4882,20.374 19.4882,20.374 19.4882,20.374 C 19.1929,20.374 19.1929,20.374 19.1929,20.374 C 18.8976,20.6692 18.8976,20.6692 18.8976,20.6692 C 16.2401,20.6692 16.2401,20.6692 16.2401,20.6692 C 16.2401,24.5078 16.2401,24.5078 16.2401,24.5078 C 15.9449,24.5078 15.9449,24.5078 15.9449,24.5078 C 15.3543,23.622 15.3543,23.622 15.3543,23.622 Z Z " fill="#0B719F" stroke="#000000" stroke-width="1.32875" stroke-linecap="butt" stroke-linejoin="miter"/>
        <path d="M 15.3543,23.622 C 13.8779,23.622 13.8779,23.622 13.8779,23.622 C 13.2874,23.0314 13.2874,21.2598 13.2874,21.2598 C 12.1063,21.2598 12.1063,21.2598 12.1063,21.2598 C 12.1063,20.0787 12.1063,20.0787 12.1063,20.0787 C 12.1063,19.7834 12.1063,19.7834 12.1063,19.7834 C 12.1063,18.6023 12.1063,18.6023 12.1063,18.6023 C 13.2874,18.6023 13.2874,18.6023 13.2874,18.6023 C 13.2874,18.6023 13.2874,17.1259 13.8779,16.2401 C 15.3543,16.2401 15.3543,16.2401 15.3543,16.2401 Z Z " fill="#0B719F" stroke="#000000" stroke-width="1.32875" stroke-linecap="butt" stroke-linejoin="miter"/>
        <path d="M 15.3543,16.2401 C 15.9449,15.3543 15.9449,15.3543 15.9449,15.3543 C 16.2401,15.3543 16.2401,15.3543 16.2401,15.3543 C 16.2401,19.4881 16.2401,19.4881 16.2401,19.4881 C 18.8976,19.4881 18.8976,19.4881 18.8976,19.4881 C 19.1929,19.4881 19.1929,19.4881 19.1929,19.4881 C 19.4882,19.4881 19.4882,19.4881 19.4882,19.4881 C 19.7835,19.1929 19.7835,19.1929 19.7835,19.1929 C 20.0787,19.1929 20.374,19.7834 20.374,19.7834 C 20.374,20.0787 20.374,20.0787 20.374,20.0787 C 20.374,20.0787 20.0787,20.9645 19.7835,20.6692 C 19.4882,20.374 19.4882,20.374 19.4882,20.374 C 19.1929,20.374 19.1929,20.374 19.1929,20.374 C 18.8976,20.6692 18.8976,20.6692 18.8976,20.6692 C 16.2401,20.6692 16.2401,20.6692 16.2401,20.6692 C 16.2401,24.5078 16.2401,24.5078 16.2401,24.5078 C 15.9449,24.5078 15.9449,24.5078 15.9449,24.5078 C 15.3543,23.622 15.3543,23.622 15.3543,23.622 Z Z " fill="#0F73A0" stroke="#0B719F" stroke-width="1.32875" stroke-linecap="butt" stroke-linejoin="miter"/>
        <path d="M 15.3543,23.622 C 13.8779,23.622 13.8779,23.622 13.8779,23.622 C 13.2874,23.0314 13.2874,21.2598 13.2874,21.2598 C 12.1063,21.2598 12.1063,21.2598 12.1063,21.2598 C 12.1063,20.0787 12.1063,20.0787 12.1063,20.0787 C 12.1063,19.7834 12.1063,19.7834 12.1063,19.7834 C 12.1063,18.6023 12.1063,18.6023 12.1063,18.6023 C 13.2874,18.6023 13.2874,18.6023 13.2874,18.6023 C 13.2874,18.6023 13.2874,17.1259 13.8779,16.2401 C 15.3543,16.2401 15.3543,16.2401 15.3543,16.2401 Z Z " fill="#0B719F" stroke="#0F73A0" stroke-width="1.32875" stroke-linecap="butt" stroke-linejoin="miter"/>
      </g>
      <!--emf-blob end-->
    </g>
  </g>
</svg>

