<svg xmlns="http://www.w3.org/2000/svg" xmlns:xlink="http://www.w3.org/1999/xlink" version="1.1" viewBox="0 0 138 72" >
  <title><![CDATA[RF modem]]></title>
  <g transform=" scale(3.000000) ">
    <!--converted by libvisio2svg-->
    <g>
      <!--emf-blob start-->
      <g>
        <path d="M 0,15.3567 L 0,6.79239999999999 L 35.1434,6.79239999999999 L 35.1434,15.3567 L 0,15.3567 Z " fill="#036998" stroke="#FFFFFF" stroke-width="0.88595" stroke-linecap="butt" stroke-linejoin="miter"/>
        <path d="M 35.1434,15.3567 L 35.1434,6.79239999999999 L 0,6.79239999999999 L 8.85969999999998,0 L 40.1638,0 L 42.5264,0 L 42.5264,7.38299999999998 L 35.1434,15.3567 Z " fill="#036998" stroke="#FFFFFF" stroke-width="0.88595" stroke-linecap="butt" stroke-linejoin="miter"/>
        <path d="M 35.734,6.49709999999999 L 41.9358,0.295299999999997 Z " fill="#036998" stroke-width="1px" stroke="#036998"/>
        <path d="M 35.734,6.49709999999999 L 41.9358,0.295299999999997 " stroke="#FFFFFF" stroke-width="0.88595" stroke-linecap="butt" stroke-linejoin="miter" fill="none"/>
        <path d="M 9.15499999999997,12.1082 L 3.54390000000001,12.1082 L 3.54390000000001,10.3363 L 9.15499999999997,10.3363 L 9.15499999999997,12.1082 Z " fill="#FFFFFF" stroke-width="1px" stroke="#FFFFFF"/>
        <path d="M 16.5381,12.1082 L 10.9269,12.1082 L 10.9269,10.3363 L 16.5381,10.3363 L 16.5381,12.1082 Z " fill="#FFFFFF" stroke-width="1px" stroke="#FFFFFF"/>
        <path d="M 23.9211,12.1082 L 18.31,12.1082 L 18.31,10.3363 L 23.9211,10.3363 L 23.9211,12.1082 Z " fill="#FFFFFF" stroke-width="1px" stroke="#FFFFFF"/>
        <path d="M 31.3042,12.1082 L 25.6931,12.1082 L 25.6931,10.3363 L 31.3042,10.3363 L 31.3042,12.1082 Z " fill="#FFFFFF" stroke-width="1px" stroke="#FFFFFF"/>
        <path d="M 44.889,15.3567 C 45.1843,17.1287 44.5937,19.1959 42.8217,20.9679 C 41.3451,22.7398 39.2779,23.3304 37.2106,23.3304 Z " stroke="#036998" stroke-width="0.88595" stroke-linecap="round" stroke-linejoin="round" fill="none"/>
        <path d="M 44.003,15.0614 C 44.2984,16.8333 43.7077,18.6053 42.2311,20.3772 C 40.7545,21.8538 38.6872,22.7398 36.9153,22.4445 Z " stroke="#036998" stroke-width="0.88595" stroke-linecap="round" stroke-linejoin="round" fill="none"/>
        <path d="M 43.1171,14.7661 C 43.4124,16.538 42.8217,18.31 41.6405,19.7866 C 40.1638,21.2632 38.3919,21.8538 36.62,21.8538 Z " stroke="#036998" stroke-width="0.88595" stroke-linecap="round" stroke-linejoin="round" fill="none"/>
        <path d="M 42.5264,14.7661 C 42.5264,16.2427 42.2311,17.7193 41.0498,19.1959 C 39.5732,20.3772 37.8013,21.2632 36.3247,20.9679 Z " stroke="#036998" stroke-width="0.88595" stroke-linecap="round" stroke-linejoin="round" fill="none"/>
        <path d="M 41.6405,14.4708 C 41.9358,15.6521 41.3451,17.424 40.1638,18.6053 C 38.9826,19.7866 37.5059,20.3772 36.0293,20.0819 Z " stroke="#036998" stroke-width="0.88595" stroke-linecap="round" stroke-linejoin="round" fill="none"/>
        <path d="M 40.7545,14.1754 C 41.0498,15.3567 40.4592,16.8333 39.5732,18.0146 C 38.3919,19.1959 37.2106,19.4912 35.734,19.4912 Z " stroke="#036998" stroke-width="0.88595" stroke-linecap="round" stroke-linejoin="round" fill="none"/>
        <path d="M 39.8685,14.1754 C 40.1638,15.0614 39.8685,16.2427 38.9826,17.424 C 38.0966,18.31 36.62,18.9006 35.4387,18.6053 Z " stroke="#036998" stroke-width="0.88595" stroke-linecap="round" stroke-linejoin="round" fill="none"/>
        <path d="M 39.2779,13.8801 C 39.2779,14.7661 38.9826,15.9474 38.0966,16.8333 C 37.5059,17.7193 36.3247,18.0146 35.4387,18.0146 Z " stroke="#036998" stroke-width="0.88595" stroke-linecap="round" stroke-linejoin="round" fill="none"/>
      </g>
      <!--emf-blob end-->
    </g>
  </g>
</svg>

