<svg xmlns="http://www.w3.org/2000/svg" xmlns:xlink="http://www.w3.org/1999/xlink" version="1.1" viewBox="0 0 132 105" >
  <title><![CDATA[Router_firewall]]></title>
  <g transform=" scale(3.000000) ">
    <!--converted by libvisio2svg-->
    <g>
      <!--emf-blob start-->
      <g>
        <path d="M 43.6935999999999,13.8757 C 43.6935999999999,18.5993 33.9511,22.4372 21.8468,22.4372 C 9.74249999999995,22.4372 0,18.5993 0,13.8757 C 0,26.2752 0,26.2752 0,26.2752 C 0,30.9988 9.74249999999995,34.8368 21.8468,34.8368 C 33.9511,34.8368 43.6935999999999,30.9988 43.6935999999999,26.2752 Z Z " fill="#0E6F9C" stroke="#FFFFFF" stroke-width="0.44285" stroke-linecap="butt" stroke-linejoin="miter"/>
        <path d="M 21.8468,22.4372 C 33.9511,22.4372 43.6935999999999,18.5993 43.6935999999999,13.8757 C 43.6935999999999,9.44720000000001 33.9511,5.60930000000002 21.8468,5.60930000000002 C 9.74249999999995,5.60930000000002 0,9.44720000000001 0,13.8757 C 0,18.5993 9.74249999999995,22.4372 21.8468,22.4372 Z Z " fill="#0E6F9C" stroke="#FFFFFF" stroke-width="0.44285" stroke-linecap="butt" stroke-linejoin="miter"/>
        <path d="M 21.8468,16.8279 C 33.6559,16.8279 43.3984,12.99 43.3984,8.5616 C 43.3984,3.83789999999999 33.6559,0 21.8468,0 C 10.0377,0 0.295199999999966,3.83789999999999 0.295199999999966,8.5616 C 0.295199999999966,12.99 10.0377,16.8279 21.8468,16.8279 Z Z " fill="#0E6F9C" stroke="#FFFFFF" stroke-width="0.44285" stroke-linecap="butt" stroke-linejoin="miter"/>
        <path d="M 43.3984,8.5616 C 43.3984,12.99 33.6559,16.8279 21.8468,16.8279 C 10.0377,16.8279 0.295199999999966,12.99 0.295199999999966,8.5616 C 0.295199999999966,14.4661 0.295199999999966,14.4661 0.295199999999966,14.4661 C 0.295199999999966,19.1897 10.0377,22.7325 21.8468,22.7325 C 33.6559,22.7325 43.3984,19.1897 43.3984,14.4661 Z Z " fill="#0E6F9C" stroke="#FFFFFF" stroke-width="0.44285" stroke-linecap="butt" stroke-linejoin="miter"/>
        <path d="M 16.828,4.72359999999998 L 18.5993,7.38069999999999 L 11.8091,9.15199999999999 L 13.2852,7.67590000000001 L 2.95229999999998,5.90449999999998 L 5.60929999999996,4.13319999999999 L 15.6471,5.60930000000002 L 16.828,4.72359999999998 Z " fill="#FFFFFF" stroke-width="1px" stroke="#FFFFFF"/>
        <path d="M 26.5705,11.2186 L 25.0943,8.5616 L 31.2941,7.38069999999999 L 30.4084,8.2663 L 40.4461,10.0377 L 38.0843,12.1043 L 27.7514,10.0377 L 26.5705,11.2186 Z " fill="#FFFFFF" stroke-width="1px" stroke="#FFFFFF"/>
        <path d="M 23.0277,3.2475 L 29.818,1.47609999999997 L 30.1131999999999,4.42840000000001 L 28.3418,4.13319999999999 L 25.0943,6.79020000000003 L 21.8468,6.495 L 25.0943,3.54270000000002 L 23.0277,3.2475 Z " fill="#FFFFFF" stroke-width="1px" stroke="#FFFFFF"/>
        <path d="M 20.0755,13.8757 L 13.5805,15.0566 L 13.2852,12.1043 L 15.3518,12.3995 L 18.8946,9.44720000000001 L 22.1421,10.0377 L 18.3040999999999,13.2852 L 20.0755,13.8757 Z " fill="#FFFFFF" stroke-width="1px" stroke="#FFFFFF"/>
        <path d="M 16.828,8.85680000000002 L 22.7325,9.15199999999999 " stroke="#FFFFFF" stroke-width="0.44285" stroke-linecap="butt" stroke-linejoin="miter" fill="none"/>
        <path d="M 4.72369999999995,7.97109999999998 L 10.6282,8.5616 " stroke="#FFFFFF" stroke-width="0.44285" stroke-linecap="butt" stroke-linejoin="miter" fill="none"/>
        <path d="M 2.06659999999999,5.3141 L 6.79019999999997,5.90449999999998 " stroke="#FFFFFF" stroke-width="0.44285" stroke-linecap="butt" stroke-linejoin="miter" fill="none"/>
        <path d="M 7.38069999999999,5.60930000000002 L 1.47619999999995,10.6282 " stroke="#FFFFFF" stroke-width="0.44285" stroke-linecap="butt" stroke-linejoin="miter" fill="none"/>
        <path d="M 13.2852,6.19970000000001 L 5.01889999999997,13.2852 " stroke="#FFFFFF" stroke-width="0.44285" stroke-linecap="butt" stroke-linejoin="miter" fill="none"/>
        <path d="M 19.7802,6.495 L 9.74249999999995,15.0566 " stroke="#FFFFFF" stroke-width="0.44285" stroke-linecap="butt" stroke-linejoin="miter" fill="none"/>
        <path d="M 7.38069999999999,11.2186 L 13.5805,11.5138 " stroke="#FFFFFF" stroke-width="0.44285" stroke-linecap="butt" stroke-linejoin="miter" fill="none"/>
        <path d="M 33.6559,11.8091 L 39.5605,12.1043 " stroke="#FFFFFF" stroke-width="0.44285" stroke-linecap="butt" stroke-linejoin="miter" fill="none"/>
        <path d="M 21.5516,11.2186 L 27.4562,11.5138 " stroke="#FFFFFF" stroke-width="0.44285" stroke-linecap="butt" stroke-linejoin="miter" fill="none"/>
        <path d="M 24.2087,8.5616 L 15.0565999999999,16.2375 " stroke="#FFFFFF" stroke-width="0.44285" stroke-linecap="butt" stroke-linejoin="miter" fill="none"/>
        <path d="M 30.7037,8.85680000000002 L 21.5516,16.5327 " stroke="#FFFFFF" stroke-width="0.44285" stroke-linecap="butt" stroke-linejoin="miter" fill="none"/>
        <path d="M 36.6082,9.44720000000001 L 28.3418,16.5327 " stroke="#FFFFFF" stroke-width="0.44285" stroke-linecap="butt" stroke-linejoin="miter" fill="none"/>
        <path d="M 43.3984,8.5616 L 37.7891,14.1709 " stroke="#FFFFFF" stroke-width="0.44285" stroke-linecap="butt" stroke-linejoin="miter" fill="none"/>
        <path d="M 12.1043,13.2852 L 18.0089,13.8757 " stroke="#FFFFFF" stroke-width="0.44285" stroke-linecap="butt" stroke-linejoin="miter" fill="none"/>
        <path d="M 24.5039,14.1709 L 30.4084,14.4661 " stroke="#FFFFFF" stroke-width="0.44285" stroke-linecap="butt" stroke-linejoin="miter" fill="none"/>
        <path d="M 12.6948,0.885699999999986 L 7.08549999999997,5.90449999999998 " stroke="#FFFFFF" stroke-width="0.44285" stroke-linecap="butt" stroke-linejoin="miter" fill="none"/>
        <path d="M 20.6659,0 L 13.2852,6.495 " stroke="#FFFFFF" stroke-width="0.44285" stroke-linecap="butt" stroke-linejoin="miter" fill="none"/>
        <path d="M 36.313,3.83789999999999 L 40.4461,4.42840000000001 " stroke="#FFFFFF" stroke-width="0.44285" stroke-linecap="butt" stroke-linejoin="miter" fill="none"/>
        <path d="M 27.4562,0.295200000000023 L 17.4184,8.85680000000002 " stroke="#FFFFFF" stroke-width="0.44285" stroke-linecap="butt" stroke-linejoin="miter" fill="none"/>
        <path d="M 33.0655,1.18090000000001 L 23.323,9.15199999999999 " stroke="#FFFFFF" stroke-width="0.44285" stroke-linecap="butt" stroke-linejoin="miter" fill="none"/>
        <path d="M 37.4939,2.9522 L 29.818,9.44720000000001 " stroke="#FFFFFF" stroke-width="0.44285" stroke-linecap="butt" stroke-linejoin="miter" fill="none"/>
        <path d="M 41.6271,5.3141 L 36.313,10.0377 " stroke="#FFFFFF" stroke-width="0.44285" stroke-linecap="butt" stroke-linejoin="miter" fill="none"/>
        <path d="M 14.7614,5.60930000000002 L 20.9612,5.90449999999998 " stroke="#FFFFFF" stroke-width="0.44285" stroke-linecap="butt" stroke-linejoin="miter" fill="none"/>
        <path d="M 27.1609,6.19970000000001 L 33.0655,6.79020000000003 " stroke="#FFFFFF" stroke-width="0.44285" stroke-linecap="butt" stroke-linejoin="miter" fill="none"/>
        <path d="M 39.2652,7.08539999999999 L 42.808,7.38069999999999 " stroke="#FFFFFF" stroke-width="0.44285" stroke-linecap="butt" stroke-linejoin="miter" fill="none"/>
      </g>
      <!--emf-blob end-->
    </g>
  </g>
</svg>

