<svg xmlns="http://www.w3.org/2000/svg" xmlns:xlink="http://www.w3.org/1999/xlink" version="1.1" viewBox="0 0 132 90" >
  <title><![CDATA[Router]]></title>
  <g transform=" scale(3.000000) ">
    <!--converted by libvisio2svg-->
    <g>
      <!--emf-blob start-->
      <g>
        <path d="M 43.6802,8.55899999999997 C 43.6802,13.2812 33.9407,17.1179 21.8401,17.1179 C 9.73949999999996,17.1179 0,13.2812 0,8.55899999999997 C 0,20.9546999999999 0,20.9546999999999 0,20.9546999999999 C 0,25.6769 9.73949999999996,29.5136 21.8401,29.5136 C 33.9407,29.5136 43.6802,25.6769 43.6802,20.9546999999999 Z Z " fill="#0E6F9C" stroke="#FFFFFF" stroke-width="0.8854" stroke-linecap="butt" stroke-linejoin="miter"/>
        <path d="M 21.8401,17.1179 C 33.9407,17.1179 43.6802,13.2812 43.6802,8.55899999999997 C 43.6802,3.83679999999998 33.9407,0 21.8401,0 C 9.73949999999996,0 0,3.83679999999998 0,8.55899999999997 C 0,13.2812 9.73949999999996,17.1179 21.8401,17.1179 Z Z " fill="#0E6F9C" stroke="#FFFFFF" stroke-width="0.8854" stroke-linecap="butt" stroke-linejoin="miter"/>
        <path d="M 16.8228,5.3125 L 18.5936,7.96869999999996 L 11.8054,9.44439999999997 L 13.2811,8.26379999999995 L 2.95139999999998,6.49299999999999 L 5.60759999999999,4.4271 L 15.6422,6.19789999999995 L 16.8228,5.3125 Z " fill="#FFFFFF" stroke-width="1px" stroke="#FFFFFF"/>
        <path d="M 26.5623,11.8055 L 25.0866,9.14919999999995 L 31.2844,7.67359999999996 L 30.399,8.85409999999996 L 40.4337,10.6249 L 38.0726,12.3957 L 27.7428,10.6249 L 26.5623,11.8055 Z " fill="#FFFFFF" stroke-width="1px" stroke="#FFFFFF"/>
        <path d="M 23.0206,3.83679999999998 L 29.8088,2.06599999999997 L 30.1039,4.72219999999999 L 28.3331,4.4271 L 25.0866,7.3784 L 21.8401,6.78819999999996 L 25.0866,4.13189999999997 L 23.0206,3.83679999999998 Z " fill="#FFFFFF" stroke-width="1px" stroke="#FFFFFF"/>
        <path d="M 20.0693,14.4617 L 13.5763,15.6421999999999 L 13.2811,12.3957 L 15.3471,12.986 L 18.8887,9.73949999999996 L 22.1352,10.3298 L 18.2984,13.8714 L 20.0693,14.4617 Z " fill="#FFFFFF" stroke-width="1px" stroke="#FFFFFF"/>
      </g>
      <!--emf-blob end-->
    </g>
  </g>
</svg>

