<svg xmlns="http://www.w3.org/2000/svg" xmlns:xlink="http://www.w3.org/1999/xlink" version="1.1" viewBox="0 0 141 156" >
  <title><![CDATA[Running man]]></title>
  <g transform=" scale(3.000000) ">
    <!--converted by libvisio2svg-->
    <g>
      <!--emf-blob start-->
      <g>
        <path d="M 35.1378,3.24799999999999 L 32.185,2.06689999999998 L 28.3465,5.0197 L 30.7087,7.38189999999997 L 31.0039,7.08659999999998 L 31.5945,7.6771 L 32.185,7.6771 L 32.4803,7.08659999999998 L 32.7756,7.08659999999998 L 32.7756,6.49599999999998 L 33.0709,6.79129999999998 L 33.3661,6.20079999999996 L 33.9567,6.49599999999998 L 34.252,6.20079999999996 L 34.252,4.72439999999995 L 34.8425,4.42909999999995 L 35.1378,3.24799999999999 Z " fill="#126D99" stroke-width="1px" stroke="#126D99"/>
        <path d="M 35.1378,3.24799999999999 L 32.185,2.06689999999998 L 28.3465,5.0197 L 30.7087,7.38189999999997 L 31.0039,7.08659999999998 L 31.5945,7.6771 L 32.185,7.6771 L 32.4803,7.08659999999998 L 32.7756,7.08659999999998 L 32.7756,6.49599999999998 L 33.0709,6.79129999999998 L 33.3661,6.20079999999996 L 33.9567,6.49599999999998 L 34.252,6.20079999999996 L 34.252,4.72439999999995 L 34.8425,4.42909999999995 L 35.1378,3.24799999999999 " stroke="none" stroke-width="0" fill="none"/>
        <path d="M 35.4331,25.0984 L 36.6142,23.622 L 37.2047,23.9173 L 39.2717,24.5078 L 39.8622,26.2795 L 38.9764,26.2795 L 38.6811,27.1653 L 38.0906,26.8701 L 37.5,27.7559 L 37.2047,26.8701 L 36.6142,26.8701 L 36.0236,25.3937 L 35.4331,25.0984 Z " fill="#126D99" stroke-width="1px" stroke="#126D99"/>
        <path d="M 9.7441,17.4212 L 8.56300000000005,18.0118 L 8.26770000000005,18.6023 L 6.49610000000001,20.0787 L 6.79130000000004,20.374 L 8.26770000000005,19.4881999999999 L 6.79130000000004,20.9645 L 7.08660000000003,21.2598 L 8.56300000000005,20.374 L 7.38190000000003,22.1456 L 7.67720000000003,22.4409 L 8.85830000000004,20.9645 L 8.56300000000005,22.4409 L 9.15350000000001,22.4409 L 10.0394,20.374 L 10.3346,20.374 L 10.9252,21.5551 L 11.5157,21.5551 L 10.9252,19.7834 L 11.2205,18.3071 L 9.7441,17.4212 Z " fill="#126D99" stroke-width="1px" stroke="#126D99"/>
        <path d="M 36.6142,27.1653 L 36.9094,27.1653 L 36.9094,27.7559 L 36.6142,28.937 L 36.0236,28.3464 L 36.0236,27.7559 L 36.6142,27.1653 Z " fill="#126D99" stroke-width="1px" stroke="#126D99"/>
        <path d="M 39.8622,25.3937 L 40.748,25.9842 L 40.748,26.8701 L 40.1575,27.1653 L 40.1575,26.2795 L 39.8622,25.3937 Z " fill="#126D99" stroke-width="1px" stroke="#126D99"/>
        <path d="M 43.4055,26.2795 L 32.7756,29.8228 L 34.8425,37.2046999999999 L 36.6142,38.6811 L 46.3583,34.8425 L 45.1772,27.1653 L 43.4055,26.2795 Z " fill="#126D99" stroke-width="1px" stroke="#126D99"/>
        <path d="M 36.0236,48.1299 L 34.8425,49.311 L 33.0709,49.0157 L 32.7756,50.4921 L 33.0709,51.6732 L 35.4331,51.6732 L 36.0236,51.3779 L 37.5,51.6732 L 40.4528,51.6732 L 41.3386,51.3779 L 41.0433,50.4921 L 38.0906,49.9016 L 36.6142,48.7204 L 36.0236,48.1299 Z " fill="#126D99" stroke-width="1px" stroke="#126D99"/>
        <path d="M 4.7244,42.2243999999999 L 3.83860000000004,40.748 L 4.42910000000001,38.9764 L 3.24800000000005,38.3858 L 1.77160000000003,38.3858 L 1.18110000000001,40.748 L 1.47640000000001,41.3386 L 0.59050000000002,42.5197 L 0,45.4724 L 0.295299999999997,46.6535 L 1.18110000000001,46.3582 L 2.36220000000003,43.7008 L 3.83860000000004,42.2243999999999 L 4.7244,42.2243999999999 Z " fill="#126D99" stroke-width="1px" stroke="#126D99"/>
        <path d="M 16.2402,25.3937 L 14.7638,24.2126 L 17.7165,19.1929 L 18.8976,11.811 L 15.9449,13.5826 L 13.2874,18.3071 L 10.0394,16.5354 L 13.2874,10.0393 L 20.9646,5.31489999999997 L 27.1654,5.61019999999996 L 30.7087,8.26769999999999 L 33.6614,12.4015 L 32.4803,13.5826 L 32.185,19.1929 L 36.6142,23.0315 L 33.6614,25.3937 L 28.6417,20.9645 L 28.6417,26.5748 Z " fill="#126D99" stroke-width="1px" stroke="#126D99"/>
        <path d="M 16.2402,25.3937 L 14.7638,24.2126 L 17.7165,19.1929 L 18.8976,11.811 L 15.9449,13.5826 L 13.2874,18.3071 L 10.0394,16.5354 L 13.2874,10.0393 L 20.9646,5.31489999999997 L 27.1654,5.61019999999996 L 30.7087,8.26769999999999 L 33.6614,12.4015 L 32.4803,13.5826 L 32.185,19.1929 L 36.6142,23.0315 L 33.6614,25.3937 L 28.6417,20.9645 L 28.6417,26.5748 " stroke="none" stroke-width="0" fill="none"/>
        <path d="M 28.6417,26.5748 L 33.3661,34.5472 L 37.5,46.3582 L 32.4803,47.8346 L 28.6417,37.2046999999999 L 22.7362,28.6417 L 19.4882,37.7952 L 7.38190000000003,42.8149 L 5.315,38.6811 L 14.4685,35.1378 L 14.7638,33.9567 L 15.6496,33.9567 L 16.8307,27.4606 L 16.2402,25.3937 L 28.6417,26.5748 Z " fill="#126D99" stroke-width="1px" stroke="#126D99"/>
        <path d="M 15.9449,25.0984 L 24.2126,27.7559 L 28.0512,25.9842 Z " fill="#126D99" stroke-width="1px" stroke="#126D99"/>
        <path d="M 15.9449,25.0984 L 24.2126,27.7559 L 28.0512,25.9842 " stroke="none" stroke-width="0" fill="none"/>
        <path d="M 35.1378,3.24799999999999 L 36.0236,3.24799999999999 L 35.4331,1.77159999999998 L 32.7756,0 L 31.0039,0 L 29.5276,0.885799999999961 L 28.3465,5.0197 L 29.5276,3.83859999999999 L 31.0039,3.24799999999999 L 31.2992,3.54329999999999 L 32.185,4.13379999999995 L 32.7756,2.6574 L 35.1378,3.24799999999999 Z " fill="#126D99" stroke-width="1px" stroke="#126D99"/>
        <path d="M 35.1378,3.24799999999999 L 36.0236,3.24799999999999 L 35.4331,1.77159999999998 L 32.7756,0 L 31.0039,0 L 29.5276,0.885799999999961 L 28.3465,5.0197 L 29.5276,3.83859999999999 L 31.0039,3.24799999999999 L 31.2992,3.54329999999999 L 32.185,4.13379999999995 L 32.7756,2.6574 L 35.1378,3.24799999999999 " stroke="none" stroke-width="0" fill="none"/>
      </g>
      <!--emf-blob end-->
    </g>
  </g>
</svg>

