<svg xmlns="http://www.w3.org/2000/svg" xmlns:xlink="http://www.w3.org/1999/xlink" version="1.1" viewBox="0 0 168 126" >
  <title><![CDATA[Sattelite dish]]></title>
  <g transform=" scale(3.000000) ">
    <!--converted by libvisio2svg-->
    <g>
      <!--emf-blob start-->
      <g>
        <path d="M 27.7453,20.6614 C 42.7986,20.6614 55.1955,18.3001 55.1955,15.3485 C 55.1955,12.692 42.7986,10.3307 27.7453,10.3307 C 12.3969,10.3307 0,12.692 0,15.3485 C 0,18.3001 12.3969,20.6614 27.7453,20.6614 Z Z " fill="#FFFFFF" stroke="#000000" stroke-width="0.44275" stroke-linecap="butt" stroke-linejoin="miter"/>
        <path d="M 27.7453,29.8114 C 43.0938,29.8114 55.1955,18.3001 55.1955,15.3485 C 55.1955,12.692 42.7986,10.3307 27.7453,10.3307 C 12.3969,10.3307 0,12.692 0,15.3485 C 0,18.3001 12.692,29.8114 27.7453,29.8114 Z Z " fill="#126D99" stroke="none"/>
        <path d="M 27.7453,20.6614 C 42.7986,20.6614 55.1955,18.3001 55.1955,15.3485 C 55.1955,12.692 42.7986,10.3307 27.7453,10.3307 C 12.3969,10.3307 0,12.692 0,15.3485 C 0,18.3001 12.3969,20.6614 27.7453,20.6614 Z Z " fill="#FFFFFF" stroke="#126D99" stroke-width="0.8855" stroke-linecap="butt" stroke-linejoin="miter"/>
        <path d="M 20.3663,11.5112999999999 C 16.234,11.8065 12.3969,12.3968 9.15010000000001,12.9872 Z " stroke="#0E6A98" stroke-width="0.8855" stroke-linecap="butt" stroke-linejoin="miter" fill="none"/>
        <path d="M 20.6614,12.692 C 16.5291,12.9872 12.9872,13.5775 10.0355,14.1678 Z " stroke="#0E6A98" stroke-width="0.8855" stroke-linecap="butt" stroke-linejoin="miter" fill="none"/>
        <path d="M 20.9566,13.8726 C 16.8243,14.1678 13.2823,14.7581 10.921,15.6436 Z " stroke="#0E6A98" stroke-width="0.8855" stroke-linecap="butt" stroke-linejoin="miter" fill="none"/>
        <path d="M 21.5469,15.3485 C 17.7098,15.6436 14.1678,16.2338999999999 11.8065,17.1194 Z " stroke="#0E6A98" stroke-width="0.8855" stroke-linecap="butt" stroke-linejoin="miter" fill="none"/>
        <path d="M 21.8421,16.5291 C 18.0049,16.8243 15.0533,17.7098 12.692,18.5952 Z " stroke="#0E6A98" stroke-width="0.8855" stroke-linecap="butt" stroke-linejoin="miter" fill="none"/>
        <path d="M 22.4324,18.0049 C 19.4808,18.3001 16.8243,18.8904 15.0533,19.7759 Z " stroke="#0E6A98" stroke-width="0.8855" stroke-linecap="butt" stroke-linejoin="miter" fill="none"/>
        <path d="M 22.7276,19.4807 C 21.5469,19.4807 20.3663,19.7759 19.1856,20.0711 Z " stroke="#0E6A98" stroke-width="0.8855" stroke-linecap="butt" stroke-linejoin="miter" fill="none"/>
        <path d="M 0,15.9388 L 27.7453,2.06609999999995 L 55.1955,15.3485 " stroke="#126D99" stroke-width="0.8855" stroke-linecap="butt" stroke-linejoin="miter" fill="none"/>
        <path d="M 28.0405,5.60809999999998 C 28.926,5.60809999999998 29.8115,5.31289999999996 29.8115,4.7226 C 29.8115,4.13229999999999 28.926,3.83709999999996 28.0405,3.83709999999996 C 26.8598,3.83709999999996 25.9743,4.13229999999999 25.9743,4.7226 C 25.9743,5.31289999999996 26.8598,5.60809999999998 28.0405,5.60809999999998 Z Z " fill="#0E6A98" stroke="none"/>
        <path d="M 28.0405,0 L 27.4502,19.4807 L 28.6308,19.4807 L 28.0405,0 Z " fill="#126D99" stroke-width="1px" stroke="#126D99"/>
        <path d="M 35.1244,33.0582 L 35.1244,30.1066 L 21.8421,30.1066 L 21.8421,33.0582 L 35.1244,33.0582 Z " fill="#126D99" stroke-width="1px" stroke="#126D99"/>
        <path d="M 24.4985,32.7631 C 32.7631,32.7631 32.7631,32.7631 32.7631,32.7631 C 32.7631,38.3712 32.7631,38.3712 32.7631,38.3712 C 32.7631,38.3712 24.2034,41.0275999999999 24.4985,41.0275999999999 C 24.4985,41.0275999999999 24.4985,32.7631 24.4985,32.7631 Z Z " fill="#126D99" stroke="none"/>
      </g>
      <!--emf-blob end-->
    </g>
  </g>
</svg>

