<svg xmlns="http://www.w3.org/2000/svg" xmlns:xlink="http://www.w3.org/1999/xlink" version="1.1" viewBox="0 0 225 78" >
  <title><![CDATA[Sattelite]]></title>
  <g transform=" scale(3.000000) ">
    <!--converted by libvisio2svg-->
    <g>
      <!--emf-blob start-->
      <g>
        <path d="M 74.9793,2.06629999999996 L 74.9793,3.54229999999995 L 59.0388,9.44619999999998 L 51.9542,8.2654 L 47.5263,7.37979999999999 L 44.5743,6.7894 L 44.5743,4.72309999999999 Z " fill="#126D99" stroke-width="1px" stroke="#126D99"/>
        <path d="M 74.9793,2.06629999999996 L 74.9793,3.54229999999995 L 59.0388,9.44619999999998 L 51.9542,8.2654 L 47.5263,7.37979999999999 L 44.5743,6.7894 L 44.5743,4.72309999999999 " stroke="#FFFFFF" stroke-width="0.8856" stroke-linecap="butt" stroke-linejoin="miter" fill="none"/>
        <path d="M 37.7848,25.0915 C 39.8512,25.0915 41.6224,24.5011 41.6224,23.6155 C 41.6224,22.7299 39.8512,21.8443 37.7848,21.8443 C 35.7185,21.8443 34.2425,22.7299 34.2425,23.6155 C 34.2425,24.5011 35.7185,25.0915 37.7848,25.0915 Z Z " fill="#126D99" stroke="#FFFFFF" stroke-width="0.8856" stroke-linecap="butt" stroke-linejoin="miter"/>
        <path d="M 52.2494,6.19899999999996 L 59.0388,7.37979999999999 L 74.9793,2.06629999999996 L 61.1052,0 L 44.5743,4.72309999999999 L 49.2974,5.6087 Z " fill="#126D99" stroke-width="1px" stroke="#126D99"/>
        <path d="M 52.2494,6.19899999999996 L 59.0388,7.37979999999999 L 74.9793,2.06629999999996 L 61.1052,0 L 44.5743,4.72309999999999 L 49.2974,5.6087 " stroke="#FFFFFF" stroke-width="0.8856" stroke-linecap="butt" stroke-linejoin="miter" fill="none"/>
        <path d="M 51.0686,6.49419999999998 C 56.0869,5.31349999999998 56.9725,4.1327 56.9725,4.1327 C 55.4965,3.24709999999999 49.5926,5.6087 49.5926,5.6087 C 48.4118,5.90379999999999 48.4118,5.90379999999999 48.4118,5.90379999999999 Z Z " fill="#126D99" stroke="#FFFFFF" stroke-width="0.8856" stroke-linecap="butt" stroke-linejoin="miter"/>
        <path d="M 49.2974,5.6087 C 44.5743,4.72309999999999 44.5743,4.72309999999999 44.5743,4.72309999999999 C 61.1052,0 61.1052,0 61.1052,0 C 74.9793,2.06629999999996 74.9793,2.06629999999996 74.9793,2.06629999999996 C 59.0388,7.37979999999999 59.0388,7.37979999999999 59.0388,7.37979999999999 C 52.2494,6.49419999999998 52.2494,6.49419999999998 52.2494,6.49419999999998 C 56.0869,5.31349999999998 56.9725,4.1327 56.9725,4.1327 C 55.4965,3.24709999999999 50.183,5.31349999999998 50.183,5.31349999999998 C 50.183,5.31349999999998 50.183,5.31349999999998 50.183,5.31349999999998 C 45.4599,6.7894 45.4599,6.7894 45.4599,6.7894 C 45.4599,9.44619999999998 45.4599,9.44619999999998 45.4599,9.44619999999998 C 51.659,7.37979999999999 51.659,7.37979999999999 51.659,7.37979999999999 C 51.659,7.37979999999999 51.659,7.37979999999999 51.659,7.37979999999999 C 51.659,7.37979999999999 51.9542,6.49419999999998 51.9542,6.49419999999998 Z " fill="#126D99" stroke="none"/>
        <path d="M 49.2974,5.6087 C 44.5743,4.72309999999999 44.5743,4.72309999999999 44.5743,4.72309999999999 C 61.1052,0 61.1052,0 61.1052,0 C 74.9793,2.06629999999996 74.9793,2.06629999999996 74.9793,2.06629999999996 C 59.0388,7.37979999999999 59.0388,7.37979999999999 59.0388,7.37979999999999 C 52.2494,6.49419999999998 52.2494,6.49419999999998 52.2494,6.49419999999998 C 56.0869,5.31349999999998 56.9725,4.1327 56.9725,4.1327 C 55.4965,3.24709999999999 50.183,5.31349999999998 50.183,5.31349999999998 C 50.183,5.31349999999998 50.183,5.31349999999998 50.183,5.31349999999998 C 45.4599,6.7894 45.4599,6.7894 45.4599,6.7894 C 45.4599,9.44619999999998 45.4599,9.44619999999998 45.4599,9.44619999999998 C 51.659,7.37979999999999 51.659,7.37979999999999 51.659,7.37979999999999 C 51.659,7.37979999999999 51.659,7.37979999999999 51.659,7.37979999999999 C 51.659,7.37979999999999 51.9542,6.49419999999998 51.9542,6.49419999999998 Z " stroke="#FFFFFF" stroke-width="0.8856" stroke-linecap="butt" stroke-linejoin="miter" fill="none"/>
        <path d="M 51.659,6.19899999999996 C 51.659,6.49419999999998 51.659,6.19899999999996 51.659,6.19899999999996 C 51.659,6.19899999999996 51.659,6.19899999999996 51.659,6.19899999999996 C 51.659,5.90379999999999 51.659,6.19899999999996 51.659,6.19899999999996 C 51.659,6.19899999999996 51.659,6.19899999999996 51.659,6.19899999999996 Z Z " fill="#126D99" stroke="#FFFFFF" stroke-width="0.8856" stroke-linecap="butt" stroke-linejoin="miter"/>
        <path d="M 30.405,0.295199999999966 C 30.405,20.0732 30.405,20.0732 30.405,20.0732 C 30.405,21.8443 33.6521,23.3203 37.7848,23.3203 C 41.9176,23.3203 45.4599,21.8443 45.4599,20.0732 C 45.4599,0 45.4599,0 45.4599,0 Z " fill="#126D99" stroke="none"/>
        <path d="M 30.405,0.295199999999966 C 30.405,20.0732 30.405,20.0732 30.405,20.0732 C 30.405,21.8443 33.6521,23.3203 37.7848,23.3203 C 41.9176,23.3203 45.4599,21.8443 45.4599,20.0732 C 45.4599,0 45.4599,0 45.4599,0 Z " stroke="#FFFFFF" stroke-width="0.8856" stroke-linecap="butt" stroke-linejoin="miter" fill="none"/>
        <path d="M 31.2906,15.9405 L 31.2906,17.7116 L 14.7597,23.6155 L 0,20.0732 L 0,18.0068 Z " fill="#126D99" stroke-width="1px" stroke="#126D99"/>
        <path d="M 31.2906,15.9405 L 31.2906,17.7116 L 14.7597,23.6155 L 0,20.0732 L 0,18.0068 " stroke="#FFFFFF" stroke-width="0.8856" stroke-linecap="butt" stroke-linejoin="miter" fill="none"/>
        <path d="M 25.9771,15.0549 L 31.2906,15.9405 L 14.7597,21.2539 L 0,18.0068 L 17.4164,12.9885 L 21.254,13.8741 Z " fill="#126D99" stroke-width="1px" stroke="#126D99"/>
        <path d="M 25.9771,15.0549 L 31.2906,15.9405 L 14.7597,21.2539 L 0,18.0068 L 17.4164,12.9885 L 21.254,13.8741 " stroke="#FFFFFF" stroke-width="0.8856" stroke-linecap="butt" stroke-linejoin="miter" fill="none"/>
        <path d="M 21.254,13.5789 C 17.7116,14.7597 16.2357,16.5308 16.2357,16.5308 C 21.8444,16.5308 25.6819,15.0549 25.6819,15.0549 Z " fill="#126D99" stroke="none"/>
        <path d="M 21.254,13.5789 C 17.7116,14.7597 16.2357,16.5308 16.2357,16.5308 C 21.8444,16.5308 25.6819,15.0549 25.6819,15.0549 Z " stroke="#FFFFFF" stroke-width="0.8856" stroke-linecap="butt" stroke-linejoin="miter" fill="none"/>
        <path d="M 20.9588,13.8741 C 33.0617,10.3318 33.0617,10.3318 33.0617,10.3318 C 34.8329,10.3318 34.8329,11.8077 34.8329,11.8077 C 34.8329,12.6933 33.3569,12.9885 33.3569,12.9885 C 25.3867,15.0549 25.3867,15.0549 25.3867,15.0549 Z " fill="#126D99" stroke="none"/>
        <path d="M 20.9588,13.8741 C 33.0617,10.3318 33.0617,10.3318 33.0617,10.3318 C 34.8329,10.3318 34.8329,11.8077 34.8329,11.8077 C 34.8329,12.6933 33.3569,12.9885 33.3569,12.9885 C 25.3867,15.0549 25.3867,15.0549 25.3867,15.0549 Z " stroke="#FFFFFF" stroke-width="0.8856" stroke-linecap="butt" stroke-linejoin="miter" fill="none"/>
        <path d="M 25.3867,15.0549 C 25.3867,15.0549 25.3867,15.0549 25.3867,15.0549 C 25.3867,15.0549 25.3867,15.0549 25.3867,15.0549 C 25.0915,15.0549 25.0915,15.0549 25.0915,15.0549 C 25.0915,15.0549 25.0915,15.0549 25.3867,15.0549 Z Z " fill="#126D99" stroke="#FFFFFF" stroke-width="0.8856" stroke-linecap="butt" stroke-linejoin="miter"/>
      </g>
      <!--emf-blob end-->
    </g>
  </g>
</svg>

