<svg xmlns="http://www.w3.org/2000/svg" xmlns:xlink="http://www.w3.org/1999/xlink" version="1.1" viewBox="0 0 135 126" >
  <title><![CDATA[Scanner]]></title>
  <g transform=" scale(3.000000) ">
    <!--converted by libvisio2svg-->
    <g>
      <!--emf-blob start-->
      <g>
        <path d="M 14.4661,16.5327 L 38.6747,16.5327 L 42.2174,0 L 19.1897,0 L 14.4661,16.5327 L 14.4661,16.5327 Z " fill="#126D99" stroke="#FFFFFF" stroke-width="0.8857" stroke-linecap="butt" stroke-linejoin="miter"/>
        <path d="M 14.4661,16.5327 L 17.1231,21.2564 L 41.3318,21.2564 L 38.6747,16.5327 L 14.4661,16.5327 L 14.4661,16.5327 Z " fill="#126D99" stroke="#FFFFFF" stroke-width="0.8857" stroke-linecap="butt" stroke-linejoin="miter"/>
        <path d="M 42.2174,0 L 44.5793,4.42840000000001 L 41.3318,21.2564 L 38.6747,16.5327 L 42.2174,0 L 42.2174,0 Z " fill="#126D99" stroke="#FFFFFF" stroke-width="0.8857" stroke-linecap="butt" stroke-linejoin="miter"/>
        <path d="M 0,37.1986 L 18.5993,37.1986 L 36.0177,16.828 L 18.5993,16.828 L 0,37.1986 L 0,37.1986 Z " fill="#126D99" stroke="#FFFFFF" stroke-width="0.8857" stroke-linecap="butt" stroke-linejoin="miter"/>
        <path d="M 0,37.1986 L 2.36180000000002,41.9223 L 20.9611,41.9223 L 18.5993,37.1986 L 0,37.1986 L 0,37.1986 Z " fill="#126D99" stroke="#FFFFFF" stroke-width="0.8857" stroke-linecap="butt" stroke-linejoin="miter"/>
        <path d="M 36.0177,16.828 L 38.3795,21.5516 L 20.9611,41.9223 L 18.5993,37.1986 L 36.0177,16.828 L 36.0177,16.828 Z " fill="#126D99" stroke="#FFFFFF" stroke-width="0.8857" stroke-linecap="butt" stroke-linejoin="miter"/>
        <path d="M 18.0088,18.8946 L 19.7802,18.8946 L 18.5993,20.0755 L 16.8279,20.0755 L 18.0088,18.8946 L 18.0088,18.8946 Z " fill="#FFFFFF" stroke-width="1px" stroke="#FFFFFF"/>
        <path d="M 15.0565,23.323 L 17.4184,22.7325 L 15.9422,24.2086 L 14.7613,23.323 Z " fill="#FFFFFF" stroke-width="1px" stroke="#FFFFFF"/>
        <path d="M 15.0565,23.323 L 17.4184,22.7325 L 15.9422,24.2086 L 14.7613,23.323 " stroke="none" stroke-width="0" fill="none"/>
        <path d="M 21.2563,18.8946 L 23.3229,18.8946 L 21.8468,20.0755 L 20.0754,20.0755 L 21.2563,18.8946 L 21.2563,18.8946 Z " fill="#FFFFFF" stroke-width="1px" stroke="#FFFFFF"/>
        <path d="M 24.5038,18.8946 L 26.5704,18.8946 L 25.3895,20.0755 L 23.3229,20.0755 L 24.5038,18.8946 L 24.5038,18.8946 Z " fill="#FFFFFF" stroke-width="1px" stroke="#FFFFFF"/>
        <path d="M 28.0465,18.8946 L 29.8179,18.8946 L 28.9322,20.0755 L 26.8656,20.0755 L 28.0465,18.8946 L 28.0465,18.8946 Z " fill="#FFFFFF" stroke-width="1px" stroke="#FFFFFF"/>
        <path d="M 14.1709,26.8657 L 16.2375,26.8657 L 14.7613,28.3418 L 12.99,28.3418 L 14.1709,26.8657 L 14.1709,26.8657 Z " fill="#FFFFFF" stroke-width="1px" stroke="#FFFFFF"/>
        <path d="M 17.7136,26.8657 L 19.485,26.8657 L 18.304,28.3418 L 16.2375,28.3418 L 17.7136,26.8657 L 17.7136,26.8657 Z " fill="#FFFFFF" stroke-width="1px" stroke="#FFFFFF"/>
        <path d="M 20.9611,26.8657 L 22.7324,26.8657 L 21.8468,28.3418 L 19.7802,28.3418 L 20.9611,26.8657 L 20.9611,26.8657 Z " fill="#FFFFFF" stroke-width="1px" stroke="#FFFFFF"/>
        <path d="M 10.6281,30.7036000000001 L 12.3995,30.7036000000001 L 11.2186,32.1798 L 9.44720000000001,32.1798 L 10.6281,30.7036000000001 L 10.6281,30.7036000000001 Z " fill="#FFFFFF" stroke-width="1px" stroke="#FFFFFF"/>
        <path d="M 13.8756,30.7036000000001 L 15.647,30.7036000000001 L 14.7613,32.1798 L 12.6947,32.1798 L 13.8756,30.7036000000001 L 13.8756,30.7036000000001 Z " fill="#FFFFFF" stroke-width="1px" stroke="#FFFFFF"/>
        <path d="M 17.1231,30.7036000000001 L 19.1897,30.7036000000001 L 18.0088,32.1798 L 16.2375,32.1798 L 17.1231,30.7036000000001 L 17.1231,30.7036000000001 Z " fill="#FFFFFF" stroke-width="1px" stroke="#FFFFFF"/>
        <path d="M 31.5893,18.8946 L 33.3606,18.8946 L 32.1797,20.0755 L 30.1131,20.0755 L 31.5893,18.8946 L 31.5893,18.8946 Z " fill="#FFFFFF" stroke-width="1px" stroke="#FFFFFF"/>
        <path d="M 26.8656,23.0277 L 28.0465,23.6182 L 28.0465,23.6182 L 25.6847,24.2086 L 26.8656,23.0277 L 26.8656,23.0277 Z " fill="#FFFFFF" stroke-width="1px" stroke="#FFFFFF"/>
        <path d="M 23.6181,23.323 C 23.3229,23.9134 21.8468,24.5039 20.3706,24.5039 C 19.1897,24.5039 18.304,23.9134 18.5993,23.323 C 18.8945,22.7325 20.3706,22.1421 21.8468,22.1421 C 23.3229,22.1421 23.9134,22.7325 23.6181,23.323 Z Z " fill="#FFFFFF" stroke="none"/>
        <path d="M 35.132,12.99 C 34.8368,13.5805 33.9511,14.1709 33.3606,14.1709 C 20.6659,14.1709 20.6659,14.1709 20.6659,14.1709 C 19.7802,14.1709 19.485,13.5805 19.485,12.99 C 22.142,3.54270000000002 22.142,3.54270000000002 22.142,3.54270000000002 C 22.142,2.95230000000004 23.0277,2.36180000000002 23.9134,2.36180000000002 C 36.6081,2.36180000000002 36.6081,2.36180000000002 36.6081,2.36180000000002 C 37.1986,2.36180000000002 37.789,2.95230000000004 37.4938,3.54270000000002 Z Z " fill="#126D99" stroke="#FFFFFF" stroke-width="0.8857" stroke-linecap="butt" stroke-linejoin="miter"/>
      </g>
      <!--emf-blob end-->
    </g>
  </g>
</svg>

