<svg xmlns="http://www.w3.org/2000/svg" xmlns:xlink="http://www.w3.org/1999/xlink" version="1.1" viewBox="0 0 66 111" >
  <title><![CDATA[Server with router]]></title>
  <g transform=" scale(3.000000) ">
    <!--converted by libvisio2svg-->
    <g>
      <!--emf-blob start-->
      <g>
        <path d="M 18.886,36.0014 L 18.886,2.95099999999996 L 0,2.95099999999996 L 0,36.0014 L 18.886,36.0014 Z " fill="#0E6F9C" stroke="#FFFFFF" stroke-width="0.44265" stroke-linecap="butt" stroke-linejoin="miter"/>
        <path d="M 0,2.95099999999996 L 3.54109999999997,0 L 21.8369,0 L 18.886,2.95099999999996 L 0,2.95099999999996 Z " fill="#0E6F9C" stroke="#FFFFFF" stroke-width="0.44265" stroke-linecap="butt" stroke-linejoin="miter"/>
        <path d="M 18.886,36.0014 L 21.8369,32.4603 L 21.8369,0 L 18.886,2.95099999999996 L 18.886,36.0014 Z " fill="#0E6F9C" stroke="#FFFFFF" stroke-width="0.44265" stroke-linecap="butt" stroke-linejoin="miter"/>
        <path d="M 0,15.9351 L 18.886,15.9351 Z " fill="#0C6D9C" stroke-width="1px" stroke="#0C6D9C"/>
        <path d="M 0,15.9351 L 18.886,15.9351 " stroke="#FFFFFF" stroke-width="0.44265" stroke-linecap="butt" stroke-linejoin="miter" fill="none"/>
        <path d="M 0,33.9358 L 18.886,33.9358 " stroke="#FFFFFF" stroke-width="0.44265" stroke-linecap="butt" stroke-linejoin="miter" fill="none"/>
        <path d="M 7.96749999999997,26.5585 L 7.96749999999997,29.2143 L 6.78719999999998,29.2143 L 9.14789999999999,31.8701 L 11.2136,29.2143 L 10.3283,29.2143 L 10.3283,26.5585 L 7.96749999999997,26.5585 Z " fill="#FFFFFF" stroke-width="1px" stroke="#FFFFFF"/>
        <path d="M 7.96749999999997,24.1977 L 7.96749999999997,21.5419 L 6.78719999999998,21.5419 L 9.14789999999999,18.886 L 11.2136,21.5419 L 10.3283,21.5419 L 10.3283,24.1977 L 7.96749999999997,24.1977 Z " fill="#FFFFFF" stroke-width="1px" stroke="#FFFFFF"/>
        <path d="M 2.36079999999998,24.4928 L 5.01659999999998,24.4928 L 5.01659999999998,23.3124 L 7.96749999999997,25.6732 L 5.01659999999998,27.7388 L 5.01659999999998,26.5585 L 2.36079999999998,26.5585 L 2.36079999999998,24.4928 Z " fill="#FFFFFF" stroke-width="1px" stroke="#FFFFFF"/>
        <path d="M 15.64,24.4928 L 12.9841,24.4928 L 12.9841,23.3124 L 10.3283,25.6732 L 12.9841,27.7388 L 12.9841,26.5585 L 15.64,26.5585 L 15.64,24.4928 Z " fill="#FFFFFF" stroke-width="1px" stroke="#FFFFFF"/>
        <path d="M 10.3283,8.8528 L 10.3283,5.31169999999997 L 1.47550000000001,5.31169999999997 L 1.47550000000001,8.8528 L 10.3283,8.8528 Z " fill="#0E6F9C" stroke="#FFFFFF" stroke-width="0.44265" stroke-linecap="butt" stroke-linejoin="miter"/>
        <path d="M 2.36079999999998,7.08229999999998 L 9.44299999999998,7.08229999999998 " stroke="#FFFFFF" stroke-width="0.44265" stroke-linecap="butt" stroke-linejoin="miter" fill="none"/>
      </g>
      <!--emf-blob end-->
    </g>
  </g>
</svg>

