<svg xmlns="http://www.w3.org/2000/svg" xmlns:xlink="http://www.w3.org/1999/xlink" version="1.1" viewBox="0 0 87 111" >
  <title><![CDATA[Service Module]]></title>
  <g transform=" scale(3.000000) ">
    <!--converted by libvisio2svg-->
    <g>
      <!--emf-blob start-->
      <g>
        <path d="M 28.9233,0 L 25.6768,3.83679999999998 L 0,3.83679999999998 L 4.13189999999997,0 L 28.9233,0 Z " fill="#007EBA" stroke="#FFFFFF" stroke-width="0.8854" stroke-linecap="butt" stroke-linejoin="miter"/>
        <path d="M 25.6768,3.83679999999998 L 25.6768,16.5276 L 28.9233,12.986 L 28.9233,0.295099999999991 L 25.6768,3.83679999999998 Z " fill="#007EBA" stroke="#FFFFFF" stroke-width="0.8854" stroke-linecap="butt" stroke-linejoin="miter"/>
        <path d="M 25.6768,36.5969 L 25.6768,16.2325 L 0,16.2325 L 0,36.5969 Z " fill="#007EBA" stroke-width="1px" stroke="#007EBA"/>
        <path d="M 25.6768,36.5969 L 25.6768,16.2325 L 0,16.2325 L 0,36.5969 " stroke="#FFFFFF" stroke-width="0.8854" stroke-linecap="butt" stroke-linejoin="miter" fill="none"/>
        <path d="M 0,3.83679999999998 L 0,16.2325 L 25.6768,16.2325 L 25.6768,3.83679999999998 L 0,3.83679999999998 Z " fill="#007EBA" stroke="#FFFFFF" stroke-width="0.8854" stroke-linecap="butt" stroke-linejoin="miter"/>
        <path d="M 28.9233,33.3504 L 28.9233,12.986 L 25.6768,16.5276 L 25.6768,36.5969 L 28.9233,33.3504 Z " fill="#007EBA" stroke="#FFFFFF" stroke-width="0.8854" stroke-linecap="butt" stroke-linejoin="miter"/>
        <path d="M 13.2811,28.9234 L 13.2811,33.3504 L 13.8714,33.3504 L 12.6908,34.8261 L 11.8054,33.3504 L 12.3957,33.3504 L 12.3957,28.9234 L 13.2811,28.9234 Z " fill="#FFFFFF" stroke-width="1px" stroke="#FFFFFF"/>
        <path d="M 10.92,28.3331 L 7.67349999999999,31.2845 L 8.2638,31.8747 L 6.19779999999997,32.1699 L 6.78809999999999,30.399 L 7.08330000000001,30.6942 L 10.3298,27.7428 L 10.92,28.3331 Z " fill="#FFFFFF" stroke-width="1px" stroke="#FFFFFF"/>
        <path d="M 9.73949999999996,26.2671 L 5.31239999999997,26.2671 L 5.31239999999997,26.8574 L 3.54159999999996,25.6769 L 5.31239999999997,24.7915 L 5.31239999999997,25.3817 L 9.73949999999996,25.3817 L 9.73949999999996,26.2671 Z " fill="#FFFFFF" stroke-width="1px" stroke="#FFFFFF"/>
        <path d="M 10.3298,23.906 L 7.08330000000001,20.6596 L 6.78809999999999,21.2498 L 6.19779999999997,19.1839 L 8.2638,19.7741 L 7.67349999999999,20.3644 L 10.92,23.3158 L 10.3298,23.906 Z " fill="#FFFFFF" stroke-width="1px" stroke="#FFFFFF"/>
        <path d="M 12.3957,24.2012 L 12.3957,15.6422 L 11.8054,15.6422 L 12.6908,14.1666 L 13.8714,15.6422 L 13.2811,15.6422 L 13.2811,24.2012 L 12.3957,24.2012 Z " fill="#FFFFFF" stroke-width="1px" stroke="#FFFFFF"/>
        <path d="M 14.7568,23.3158 L 17.7082,20.3644 L 17.413,19.7741 L 19.1838,19.1839 L 18.8887,21.2498 L 18.2984,20.6596 L 15.0519,23.906 L 14.7568,23.3158 Z " fill="#FFFFFF" stroke-width="1px" stroke="#FFFFFF"/>
        <path d="M 15.9373,25.3817 L 20.3644,25.3817 L 20.3644,24.7915 L 21.8401,25.6769 L 20.3644,26.8574 L 20.3644,26.2671 L 15.9373,26.2671 L 15.9373,25.3817 Z " fill="#FFFFFF" stroke-width="1px" stroke="#FFFFFF"/>
        <path d="M 15.0519,27.7428 L 18.2984,30.6942 L 18.8887,30.399 L 19.1838,32.1699 L 17.413,31.8747 L 17.7082,31.2845 L 14.7568,28.3331 L 15.0519,27.7428 Z " fill="#FFFFFF" stroke-width="1px" stroke="#FFFFFF"/>
        <path d="M 15.3471,22.1352 C 17.7082,23.6109 18.0033,26.2671 16.5276,28.3331 C 15.0519,30.6942 12.3957,30.9893 10.3298,29.5136 C 8.2638,28.038 7.67349999999999,25.3817 9.14920000000001,23.3158 C 10.6249,21.2498 13.2811,20.6596 15.3471,22.1352 Z Z " fill="#FFFFFF" stroke="none"/>
        <path d="M 12.3957,7.96870000000001 L 19.1838,7.96870000000001 L 19.1838,7.08330000000001 L 21.5449,8.55900000000003 L 19.1838,9.73950000000002 L 19.1838,9.14920000000001 L 12.3957,9.14920000000001 L 12.3957,7.96870000000001 Z " fill="#FFFFFF" stroke-width="1px" stroke="#FFFFFF"/>
        <path d="M 12.3957,12.1006 L 19.1838,12.1006 L 19.1838,11.2152 L 21.5449,12.6909 L 19.1838,14.1666 L 19.1838,13.2811 L 12.3957,13.2811 L 12.3957,12.1006 Z " fill="#FFFFFF" stroke-width="1px" stroke="#FFFFFF"/>
        <path d="M 12.6908,5.90269999999998 L 5.90269999999998,5.90269999999998 L 5.90269999999998,5.01730000000003 L 3.83679999999998,6.49299999999999 L 5.90269999999998,7.96870000000001 L 5.90269999999998,7.08330000000001 L 12.6908,7.08330000000001 L 12.6908,5.90269999999998 Z " fill="#FFFFFF" stroke-width="1px" stroke="#FFFFFF"/>
        <path d="M 12.6908,10.0346 L 5.90269999999998,10.0346 L 5.90269999999998,9.44440000000003 L 3.83679999999998,10.6249 L 5.90269999999998,12.1006 L 5.90269999999998,11.5103 L 12.6908,11.5103 L 12.6908,10.0346 Z " fill="#FFFFFF" stroke-width="1px" stroke="#FFFFFF"/>
        <path d="M 25.3817,36.5969 L 0,36.5969 " stroke="#FFFFFF" stroke-width="0.8854" stroke-linecap="round" stroke-linejoin="round" fill="none"/>
        <path d="M 28.9233,0.295099999999991 L 25.6768,3.83679999999998 " stroke="#FFFFFF" stroke-width="0.8854" stroke-linecap="round" stroke-linejoin="round" fill="none"/>
        <path d="M 25.3817,16.2325 L 0,16.2325 " stroke="#FFFFFF" stroke-width="0.8854" stroke-linecap="round" stroke-linejoin="round" fill="none"/>
        <path d="M 28.6282,13.2811 L 25.6768,16.2325 " stroke="#FFFFFF" stroke-width="0.8854" stroke-linecap="round" stroke-linejoin="round" fill="none"/>
      </g>
      <!--emf-blob end-->
    </g>
  </g>
</svg>

