<svg xmlns="http://www.w3.org/2000/svg" xmlns:xlink="http://www.w3.org/1999/xlink" version="1.1" viewBox="0 0 96 93" >
  <title><![CDATA[Services]]></title>
  <g transform=" scale(3.000000) ">
    <!--converted by libvisio2svg-->
    <g>
      <!--emf-blob start-->
      <g>
        <path d="M 27.4607,2.65750000000003 L 0,2.65750000000003 L 3.24799999999999,0 L 30.7087,0 L 27.4607,2.65750000000003 Z " fill="#00B4FF" stroke-width="1px" stroke="#00B4FF"/>
        <path d="M 31.004,27.7559000000001 L 27.4607,30.4134 L 27.4607,2.65750000000003 L 31.004,0 L 31.004,27.7559000000001 Z " fill="#00476D" stroke="#FFFFFF" stroke-width="0.88585" stroke-linecap="butt" stroke-linejoin="miter"/>
        <path d="M 27.4607,30.4134 L 0,30.4134 L 0,2.65750000000003 L 27.4607,2.65750000000003 L 27.4607,30.4134 Z " fill="#0096D5" stroke="#FFFFFF" stroke-width="0.88585" stroke-linecap="butt" stroke-linejoin="miter"/>
        <path d="M 13.878,15.9449 C 13.878,15.9449 13.5827,16.2402 13.5827,16.2402 C 9.7441,16.2402 9.7441,16.2402 9.7441,16.2402 C 9.7441,16.2402 9.44880000000001,15.9449 9.44880000000001,15.9449 C 9.44880000000001,12.1063 9.44880000000001,12.1063 9.44880000000001,12.1063 C 9.44880000000001,11.811 9.7441,11.811 9.7441,11.811 C 13.5827,11.811 13.5827,11.811 13.5827,11.811 C 13.5827,11.811 13.878,11.811 13.878,12.1063 Z Z " fill="#000000" stroke="none"/>
        <path d="M 18.8976,15.9449 C 18.8976,15.9449 18.8976,15.9449 18.6024,15.9449 C 15.9449,15.9449 15.9449,15.9449 15.9449,15.9449 C 15.6496,15.9449 15.6496,15.9449 15.6496,15.9449 C 15.6496,12.9921000000001 15.6496,12.9921000000001 15.6496,12.9921000000001 C 15.6496,12.9921000000001 15.6496,12.9921000000001 15.9449,12.9921000000001 C 18.6024,12.9921000000001 18.6024,12.9921000000001 18.6024,12.9921000000001 C 18.8976,12.9921000000001 18.8976,12.9921000000001 18.8976,12.9921000000001 Z Z " fill="#000000" stroke="none"/>
        <path d="M 12.6969,20.374 C 12.6969,20.374 12.6969,20.6693 12.6969,20.6693 C 9.7441,20.6693 9.7441,20.6693 9.7441,20.6693 C 9.7441,20.6693 9.7441,20.374 9.7441,20.374 C 9.7441,17.7165000000001 9.7441,17.7165000000001 9.7441,17.7165000000001 C 9.7441,17.4213 9.7441,17.4213 9.7441,17.4213 C 12.6969,17.4213 12.6969,17.4213 12.6969,17.4213 C 12.6969,17.4213 12.6969,17.4213 12.6969,17.7165000000001 Z Z " fill="#000000" stroke="none"/>
        <path d="M 18.3071,21.2598 C 18.3071,21.2598 18.3071,21.2598 18.3071,21.2598 C 14.7638,21.2598 14.7638,21.2598 14.7638,21.2598 C 14.7638,21.2598 14.7638,21.2598 14.7638,21.2598 C 14.7638,17.7165000000001 14.7638,17.7165000000001 14.7638,17.7165000000001 C 14.7638,17.7165000000001 14.7638,17.4213 14.7638,17.4213 C 18.3071,17.4213 18.3071,17.4213 18.3071,17.4213 C 18.3071,17.4213 18.3071,17.7165000000001 18.3071,17.7165000000001 Z Z " fill="#000000" stroke="none"/>
        <path d="M 10.3346,7.67710000000005 L 5.0197,7.67710000000005 L 5.0197,19.7835 L 7.67720000000003,19.7835 L 7.67720000000003,10.3346 L 10.3346,10.3346 L 10.3346,7.67710000000005 Z " fill="#000000" stroke-width="1px" stroke="#000000"/>
        <path d="M 14.1732,7.67710000000005 L 14.1732,10.3346 L 20.6693,10.3346 L 20.6693,17.4213 L 23.3268,17.4213 L 23.3268,7.67710000000005 L 14.1732,7.67710000000005 Z " fill="#000000" stroke-width="1px" stroke="#000000"/>
        <path d="M 20.6693,20.9646 L 20.6693,23.3268 L 5.0197,23.3268 L 5.0197,25.9843 L 23.3268,25.9843 L 23.3268,20.9646 L 20.6693,20.9646 Z " fill="#000000" stroke-width="1px" stroke="#000000"/>
        <path d="M 13.2874,15.6496 C 13.2874,15.6496 13.2874,15.6496 13.2874,15.6496 C 9.44880000000001,15.6496 9.44880000000001,15.6496 9.44880000000001,15.6496 C 9.15350000000001,15.6496 9.15350000000001,15.6496 9.15350000000001,15.6496 C 9.15350000000001,11.5157 9.15350000000001,11.5157 9.15350000000001,11.5157 C 9.15350000000001,11.5157 9.15350000000001,11.5157 9.44880000000001,11.5157 C 13.2874,11.5157 13.2874,11.5157 13.2874,11.5157 C 13.2874,11.5157 13.2874,11.5157 13.2874,11.5157 Z Z " fill="#FFFFFF" stroke="none"/>
        <path d="M 18.3071,15.6496 C 18.3071,15.6496 18.3071,15.6496 18.3071,15.6496 C 15.3543,15.6496 15.3543,15.6496 15.3543,15.6496 C 15.3543,15.6496 15.3543,15.6496 15.3543,15.6496 C 15.3543,12.6968000000001 15.3543,12.6968000000001 15.3543,12.6968000000001 C 15.3543,12.6968000000001 15.3543,12.6968000000001 15.3543,12.6968000000001 C 18.3071,12.6968000000001 18.3071,12.6968000000001 18.3071,12.6968000000001 C 18.3071,12.6968000000001 18.3071,12.6968000000001 18.3071,12.6968000000001 Z Z " fill="#FFFFFF" stroke="none"/>
        <path d="M 12.4016,20.0787 C 12.4016,20.0787 12.4016,20.0787 12.4016,20.0787 C 9.44880000000001,20.0787 9.44880000000001,20.0787 9.44880000000001,20.0787 C 9.44880000000001,20.0787 9.44880000000001,20.0787 9.44880000000001,20.0787 C 9.44880000000001,17.126 9.44880000000001,17.126 9.44880000000001,17.126 C 9.44880000000001,17.126 9.44880000000001,17.126 9.44880000000001,17.126 C 12.4016,17.126 12.4016,17.126 12.4016,17.126 C 12.4016,17.126 12.4016,17.126 12.4016,17.126 Z Z " fill="#FFFFFF" stroke="none"/>
        <path d="M 18.0118,20.6693 C 18.0118,20.9646 18.0118,20.9646 18.0118,20.9646 C 14.4685,20.9646 14.4685,20.9646 14.4685,20.9646 C 14.4685,20.9646 14.1732,20.9646 14.1732,20.6693 C 14.1732,17.4213 14.1732,17.4213 14.1732,17.4213 C 14.1732,17.126 14.4685,17.126 14.4685,17.126 C 18.0118,17.126 18.0118,17.126 18.0118,17.126 C 18.0118,17.126 18.0118,17.126 18.0118,17.4213 Z Z " fill="#FFFFFF" stroke="none"/>
        <path d="M 16.5354,18.6024 C 16.5354,18.8976 16.5354,18.8976 16.5354,18.8976 C 12.1063,18.8976 12.1063,18.8976 12.1063,18.8976 C 12.1063,18.8976 11.811,18.8976 11.811,18.6024 C 11.811,14.4685 11.811,14.4685 11.811,14.4685 C 11.811,14.4685 12.1063,14.1732 12.1063,14.1732 C 16.5354,14.1732 16.5354,14.1732 16.5354,14.1732 C 16.5354,14.1732 16.5354,14.4685 16.5354,14.4685 Z Z " fill="#000000" stroke="none"/>
        <path d="M 16.2402,18.3071 C 16.2402,18.3071 16.2402,18.6024 15.9449,18.6024 C 11.811,18.6024 11.811,18.6024 11.811,18.6024 C 11.5158,18.6024 11.5158,18.3071 11.5158,18.3071 C 11.5158,14.1732 11.5158,14.1732 11.5158,14.1732 C 11.5158,13.8779 11.5158,13.8779 11.811,13.8779 C 15.9449,13.8779 15.9449,13.8779 15.9449,13.8779 C 16.2402,13.8779 16.2402,13.8779 16.2402,14.1732 Z Z " fill="#FFFFFF" stroke="#000000" stroke-width="0.4429" stroke-linecap="butt" stroke-linejoin="miter"/>
        <path d="M 10.0394,7.38190000000003 L 4.7244,7.38190000000003 L 4.7244,19.4882 L 7.08660000000003,19.4882 L 7.08660000000003,9.7441 L 10.0394,9.7441 L 10.0394,7.38190000000003 Z " fill="#FFFFFF" stroke-width="1px" stroke="#FFFFFF"/>
        <path d="M 13.5827,7.38190000000003 L 13.5827,9.7441 L 20.374,9.7441 L 20.374,17.126 L 23.0315,17.126 L 23.0315,7.38190000000003 L 13.5827,7.38190000000003 Z " fill="#FFFFFF" stroke-width="1px" stroke="#FFFFFF"/>
        <path d="M 20.374,20.6693 L 20.374,23.0315000000001 L 4.7244,23.0315000000001 L 4.7244,25.3937 L 23.0315,25.3937 L 23.0315,20.6693 L 20.374,20.6693 Z " fill="#FFFFFF" stroke-width="1px" stroke="#FFFFFF"/>
      </g>
      <!--emf-blob end-->
    </g>
  </g>
</svg>

