<svg xmlns="http://www.w3.org/2000/svg" xmlns:xlink="http://www.w3.org/1999/xlink" version="1.1" viewBox="0 0 96 96" >
  <title><![CDATA[Server switch]]></title>
  <g transform=" scale(3.000000) ">
    <!--converted by libvisio2svg-->
    <g>
      <!--emf-blob start-->
      <g>
        <path d="M 25.689,31.004 L 25.689,5.0197 L 0,5.0197 L 0,31.004 L 25.689,31.004 Z " fill="#126A98" stroke="#FFFFFF" stroke-width="0.88585" stroke-linecap="butt" stroke-linejoin="miter"/>
        <path d="M 25.689,5.0197 L 0.295299999999997,5.0197 L 6.49609999999996,0 L 31.004,0 L 31.004,0 L 31.004,25.689 L 25.689,31.004 L 25.689,5.0197 L 25.689,5.0197 Z " fill="#126A98" stroke="#FFFFFF" stroke-width="0.88585" stroke-linecap="butt" stroke-linejoin="miter"/>
        <path d="M 25.689,5.0197 L 31.004,0 Z " fill="#126A98" stroke-width="1px" stroke="#126A98"/>
        <path d="M 25.689,5.0197 L 31.004,0 " stroke="#FFFFFF" stroke-width="0.88585" stroke-linecap="butt" stroke-linejoin="miter" fill="none"/>
        <path d="M 3.54329999999999,11.811 L 24.2126,11.811 Z " fill="#0F6998" stroke-width="1px" stroke="#0F6998"/>
        <path d="M 3.54329999999999,11.811 L 24.2126,11.811 " stroke="#FFFFFF" stroke-width="0.88585" stroke-linecap="butt" stroke-linejoin="miter" fill="none"/>
        <path d="M 2.65749999999997,18.0118 L 23.3268,18.0118 Z " fill="#0F6998" stroke-width="1px" stroke="#0F6998"/>
        <path d="M 2.65749999999997,18.0118 L 23.3268,18.0118 " stroke="#FFFFFF" stroke-width="0.88585" stroke-linecap="butt" stroke-linejoin="miter" fill="none"/>
        <path d="M 1.77159999999998,24.2126 L 22.441,24.2126 Z " fill="#0F6998" stroke-width="1px" stroke="#0F6998"/>
        <path d="M 1.77159999999998,24.2126 L 22.441,24.2126 " stroke="#FFFFFF" stroke-width="0.88585" stroke-linecap="butt" stroke-linejoin="miter" fill="none"/>
        <path d="M 4.7244,27.4606 L 8.85829999999999,7.97239999999999 Z " fill="#0F6998" stroke-width="1px" stroke="#0F6998"/>
        <path d="M 4.7244,27.4606 L 8.85829999999999,7.97239999999999 " stroke="#FFFFFF" stroke-width="0.88585" stroke-linecap="butt" stroke-linejoin="miter" fill="none"/>
        <path d="M 17.7165,27.4606 L 22.1457,7.97239999999999 Z " fill="#0F6998" stroke-width="1px" stroke="#0F6998"/>
        <path d="M 17.7165,27.4606 L 22.1457,7.97239999999999 " stroke="#FFFFFF" stroke-width="0.88585" stroke-linecap="butt" stroke-linejoin="miter" fill="none"/>
        <path d="M 11.2205,27.4606 L 15.3543,7.97239999999999 Z " fill="#0F6998" stroke-width="1px" stroke="#0F6998"/>
        <path d="M 11.2205,27.4606 L 15.3543,7.97239999999999 " stroke="#FFFFFF" stroke-width="0.88585" stroke-linecap="butt" stroke-linejoin="miter" fill="none"/>
        <path d="M 9.7441,11.811 C 9.7441,12.4016 8.85829999999999,12.6969 7.97239999999999,12.6969 C 7.08659999999998,12.6969 6.49609999999996,12.4016 6.49609999999996,11.811 C 6.49609999999996,11.2205 7.08659999999998,10.6299 7.97239999999999,10.6299 C 8.85829999999999,10.6299 9.7441,11.2205 9.7441,11.811 Z Z " fill="#FFFFFF" stroke="none"/>
        <path d="M 16.2402,11.5157 C 16.2402,12.1063 15.6496,12.6969 14.7638,12.6969 C 13.878,12.6969 12.9921,12.1063 12.9921,11.5157 C 12.9921,10.9252 13.878,10.3346 14.7638,10.3346 C 15.6496,10.3346 16.2402,10.9252 16.2402,11.5157 Z Z " fill="#FFFFFF" stroke="none"/>
        <path d="M 23.0315,12.1063 C 23.0315,12.6969 22.1457,12.9921 21.2599,12.9921 C 20.374,12.9921 19.7835,12.6969 19.7835,12.1063 C 19.7835,11.5157 20.374,10.9252 21.2599,10.9252 C 22.1457,10.9252 23.0315,11.5157 23.0315,12.1063 Z Z " fill="#FFFFFF" stroke="none"/>
        <path d="M 7.97239999999999,18.0118 C 7.97239999999999,18.6024 7.38189999999997,19.1929 6.49609999999996,19.1929 C 5.61019999999996,19.1929 5.0197,18.6024 5.0197,18.0118 C 5.0197,17.4213 5.61019999999996,17.126 6.49609999999996,17.126 C 7.38189999999997,17.126 7.97239999999999,17.4213 7.97239999999999,18.0118 Z Z " fill="#FFFFFF" stroke="none"/>
        <path d="M 14.7638,18.3071 C 14.7638,18.8976 14.1732,19.4882 13.2874,19.4882 C 12.4016,19.4882 11.5157,18.8976 11.5157,18.3071 C 11.5157,17.7165 12.4016,17.126 13.2874,17.126 C 14.1732,17.126 14.7638,17.7165 14.7638,18.3071 Z Z " fill="#FFFFFF" stroke="none"/>
        <path d="M 21.5551,18.0118 C 21.5551,18.6024 20.6693,19.1929 19.7835,19.1929 C 18.8976,19.1929 18.3071,18.6024 18.3071,18.0118 C 18.3071,17.4213 18.8976,16.8307 19.7835,16.8307 C 20.6693,16.8307 21.5551,17.4213 21.5551,18.0118 Z Z " fill="#FFFFFF" stroke="none"/>
        <path d="M 6.79129999999998,24.2126 C 6.79129999999998,24.8032 5.90549999999996,25.3937 5.0197,25.3937 C 4.13389999999998,25.3937 3.54329999999999,24.8032 3.54329999999999,24.2126 C 3.54329999999999,23.6221 4.13389999999998,23.0315 5.0197,23.0315 C 5.90549999999996,23.0315 6.79129999999998,23.6221 6.79129999999998,24.2126 Z Z " fill="#FFFFFF" stroke="none"/>
        <path d="M 13.5827,24.2126 C 13.5827,24.8032 12.6969,25.3937 11.811,25.3937 C 10.9252,25.3937 10.3346,24.8032 10.3346,24.2126 C 10.3346,23.6221 10.9252,23.0315 11.811,23.0315 C 12.6969,23.0315 13.5827,23.6221 13.5827,24.2126 Z Z " fill="#FFFFFF" stroke="none"/>
        <path d="M 20.0788,24.2126 C 20.0788,24.8032 19.4882,25.3937 18.6024,25.3937 C 17.7165,25.3937 16.8307,24.8032 16.8307,24.2126 C 16.8307,23.6221 17.7165,23.0315 18.6024,23.0315 C 19.4882,23.0315 20.0788,23.6221 20.0788,24.2126 Z Z " fill="#FFFFFF" stroke="none"/>
      </g>
      <!--emf-blob end-->
    </g>
  </g>
</svg>

