<svg xmlns="http://www.w3.org/2000/svg" xmlns:xlink="http://www.w3.org/1999/xlink" version="1.1" viewBox="0 0 123 84" >
  <title><![CDATA[Service control]]></title>
  <g transform=" scale(3.000000) ">
    <!--converted by libvisio2svg-->
    <g>
      <!--emf-blob start-->
      <g>
        <path d="M 36.0297,27.1699 L 36.0297,4.72519999999997 L 0,4.72519999999997 L 0,27.1699 L 36.0297,27.1699 Z " fill="#046897" stroke="#FFFFFF" stroke-width="0.886" stroke-linecap="butt" stroke-linejoin="miter"/>
        <path d="M 36.0297,4.72519999999997 L 0,4.72519999999997 L 5.6112,0 L 40.7549,0 L 40.7549,0 L 40.7549,22.4447 L 36.0297,26.8746 L 36.0297,4.72519999999997 L 36.0297,4.72519999999997 Z " fill="#046897" stroke="#FFFFFF" stroke-width="0.886" stroke-linecap="butt" stroke-linejoin="miter"/>
        <path d="M 36.0297,4.42989999999998 L 40.7549,0 Z " fill="#000000" stroke-width="1px" stroke="#000000"/>
        <path d="M 36.0297,4.42989999999998 L 40.7549,0 " stroke="#FFFFFF" stroke-width="0.886" stroke-linecap="butt" stroke-linejoin="miter" fill="none"/>
        <path d="M 9.1551,14.4709 L 9.1551,17.1289 Z " fill="#FFFFFF" stroke-width="1px" stroke="#FFFFFF"/>
        <path d="M 9.1551,14.4709 L 9.1551,17.1289 " stroke="none" stroke-width="0" fill="none"/>
        <path d="M 5.31579999999997,25.1027 L 9.4504,25.1027 L 14.1756,20.0821 L 18.6054999999999,20.0821 L 23.3307,24.8073 L 31.3045,24.8073 L 31.3045,21.5587 L 25.1026,21.5587 L 20.3774,16.8335 L 14.1756,16.8335 L 9.7457,12.1083 L 5.31579999999997,12.1083 L 5.31579999999997,11.5177 L 3.24849999999998,13.2896 L 5.02049999999997,15.0616 L 5.02049999999997,14.4709 L 8.85969999999998,14.4709 L 8.85969999999998,17.4242 L 5.31579999999997,17.4242 L 5.31579999999997,16.8335 L 3.54389999999995,18.6055 L 5.31579999999997,20.3774 L 5.31579999999997,19.7868 L 8.85969999999998,19.7868 L 8.85969999999998,22.7401 L 5.31579999999997,22.7401 L 5.31579999999997,22.1494 L 3.54389999999995,23.9214 L 5.31579999999997,25.6933 L 5.31579999999997,25.1027 Z " fill="#FFFFFF" stroke-width="1px" stroke="#FFFFFF"/>
        <path d="M 5.31579999999997,25.1027 L 9.4504,25.1027 L 14.1756,20.0821 L 18.6054999999999,20.0821 L 23.3307,24.8073 L 31.3045,24.8073 L 31.3045,21.5587 L 25.1026,21.5587 L 20.3774,16.8335 L 14.1756,16.8335 L 9.7457,12.1083 L 5.31579999999997,12.1083 L 5.31579999999997,11.5177 L 3.24849999999998,13.2896 L 5.02049999999997,15.0616 L 5.02049999999997,14.4709 L 8.85969999999998,14.4709 L 8.85969999999998,17.4242 L 5.31579999999997,17.4242 L 5.31579999999997,16.8335 L 3.54389999999995,18.6055 L 5.31579999999997,20.3774 L 5.31579999999997,19.7868 L 8.85969999999998,19.7868 L 8.85969999999998,22.7401 L 5.31579999999997,22.7401 L 5.31579999999997,22.1494 L 3.54389999999995,23.9214 L 5.31579999999997,25.6933 L 5.31579999999997,25.1027 " stroke="none" stroke-width="0" fill="none"/>
        <path d="M 30.4185,6.49709999999999 L 26.2839,6.49709999999999 L 21.5587,11.2224 L 17.1288,11.2224 L 12.699,6.49709999999999 L 4.4298,6.49709999999999 L 4.4298,9.7457 L 10.6317,9.7457 L 15.3569,14.4709 L 21.5587,14.4709 L 26.2839,19.1961 L 30.7138,19.1961 L 30.7138,19.7868 L 32.4858,18.0148 L 30.7138,16.2429 L 30.7138,16.8335 L 26.8746,16.8335 L 27.1699,13.8803 L 30.4185,13.8803 L 30.4185,14.4709 L 32.4858,12.699 L 30.7138,10.927 L 30.7138,11.5177 L 27.1699,11.5177 L 27.1699,8.56439999999998 L 30.4185,8.56439999999998 L 30.4185,9.1551 L 32.4858,7.38310000000001 L 30.7138,5.6112 L 30.7138,6.49709999999999 Z " fill="#FFFFFF" stroke-width="1px" stroke="#FFFFFF"/>
        <path d="M 30.4185,6.49709999999999 L 26.2839,6.49709999999999 L 21.5587,11.2224 L 17.1288,11.2224 L 12.699,6.49709999999999 L 4.4298,6.49709999999999 L 4.4298,9.7457 L 10.6317,9.7457 L 15.3569,14.4709 L 21.5587,14.4709 L 26.2839,19.1961 L 30.7138,19.1961 L 30.7138,19.7868 L 32.4858,18.0148 L 30.7138,16.2429 L 30.7138,16.8335 L 26.8746,16.8335 L 27.1699,13.8803 L 30.4185,13.8803 L 30.4185,14.4709 L 32.4858,12.699 L 30.7138,10.927 L 30.7138,11.5177 L 27.1699,11.5177 L 27.1699,8.56439999999998 L 30.4185,8.56439999999998 L 30.4185,9.1551 L 32.4858,7.38310000000001 L 30.7138,5.6112 L 30.7138,6.49709999999999 " stroke="none" stroke-width="0" fill="none"/>
      </g>
      <!--emf-blob end-->
    </g>
  </g>
</svg>

