<svg xmlns="http://www.w3.org/2000/svg" xmlns:xlink="http://www.w3.org/1999/xlink" version="1.1" viewBox="0 0 192 72" >
  <title><![CDATA[Set top box]]></title>
  <g transform=" scale(3.000000) ">
    <!--converted by libvisio2svg-->
    <g>
      <!--emf-blob start-->
      <g>
        <path d="M 49.3004,22.7313 L 49.3004,13.5797 L 0,13.5797 L 0,22.7313 L 49.3004,22.7313 Z " fill="#0084C0" stroke-width="1px" stroke="#0084C0"/>
        <path d="M 48.1195,22.4361 L 48.1195,15.0558 L 0.885600000000011,15.0558 L 0.885600000000011,22.4361 L 48.1195,22.4361 Z " fill="#0084C0" stroke="#FFFFFF" stroke-width="0.88565" stroke-linecap="butt" stroke-linejoin="miter"/>
        <path d="M 0,13.875 L 16.8271,0 L 63.4705,0 L 49.3004,13.875 L 0,13.875 Z " fill="#0084C0" stroke="#FFFFFF" stroke-width="0.88565" stroke-linecap="butt" stroke-linejoin="miter"/>
        <path d="M 49.3004,23.3217 L 63.4705,9.15159999999997 L 63.4705,0 L 49.3004,13.5797 L 49.3004,23.3217 Z " fill="#0084C0" stroke="#FFFFFF" stroke-width="0.88565" stroke-linecap="butt" stroke-linejoin="miter"/>
        <path d="M 5.9042,19.7792 L 2.95209999999997,19.7792 L 2.95209999999997,17.4175 L 5.9042,17.4175 L 5.9042,19.7792 Z " fill="#FFFFFF" stroke-width="1px" stroke="#FFFFFF"/>
        <path d="M 24.7978,19.7792 L 21.8457,19.7792 L 21.8457,17.4175 L 24.7978,17.4175 L 24.7978,19.7792 Z " fill="#FFFFFF" stroke-width="1px" stroke="#FFFFFF"/>
        <path d="M 46.9387,19.7792 L 43.9865,19.7792 L 43.9865,17.4175 L 46.9387,17.4175 L 46.9387,19.7792 Z " fill="#FFFFFF" stroke-width="1px" stroke="#FFFFFF"/>
        <path d="M 36.9015,14.7606 C 38.6727,15.6462 39.8536,16.8271 39.8536,18.3031 C 39.8536,20.6648 36.9015,22.7313 33.3589,22.7313 C 29.8164,22.7313 27.1595,20.6648 27.1595,18.3031 C 27.1595,15.9414 29.8164,14.1702 33.3589,14.1702 C 34.835,14.1702 36.0158,14.4654 36.9015,14.7606 Z " fill="#0084C0" stroke="none"/>
        <path d="M 36.9015,14.7606 C 38.6727,15.6462 39.8536,16.8271 39.8536,18.3031 C 39.8536,20.6648 36.9015,22.7313 33.3589,22.7313 C 29.8164,22.7313 27.1595,20.6648 27.1595,18.3031 C 27.1595,15.9414 29.8164,14.1702 33.3589,14.1702 C 34.835,14.1702 36.0158,14.4654 36.9015,14.7606 Z " stroke="#FFFFFF" stroke-width="0.4428" stroke-linecap="butt" stroke-linejoin="miter" fill="none"/>
        <path d="M 38.3775,18.3031 C 38.3775,20.0744 36.0158,21.5505 33.6541,21.5505 C 30.9972,21.5505 28.6355,20.0744 28.6355,18.3031 C 28.6355,16.5319 30.9972,15.0558 33.6541,15.0558 C 36.0158,15.0558 38.3775,16.5319 38.3775,18.3031 Z Z " fill="#FFFFFF" stroke="#FFFFFF" stroke-width="0.4428" stroke-linecap="butt" stroke-linejoin="miter"/>
      </g>
      <!--emf-blob end-->
    </g>
  </g>
</svg>

