<svg xmlns="http://www.w3.org/2000/svg" xmlns:xlink="http://www.w3.org/1999/xlink" version="1.1" viewBox="0 0 75 120" >
  <title><![CDATA[SIP proxy server]]></title>
  <g transform=" scale(3.000000) ">
    <!--converted by libvisio2svg-->
    <g>
      <!--emf-blob start-->
      <g>
        <path d="M 18.8924,5.90390000000002 L 0,5.90390000000002 L 0,39.2609 L 18.8924,39.2609 Z " fill="#0E6F9C" stroke-width="1px" stroke="#0E6F9C"/>
        <path d="M 18.8924,5.90390000000002 L 0,5.90390000000002 L 0,39.2609 L 18.8924,39.2609 " stroke="#FFFFFF" stroke-width="0.8856" stroke-linecap="butt" stroke-linejoin="miter" fill="none"/>
        <path d="M 18.8924,39.2609 L 24.7963,33.357 L 24.7963,0 L 5.90390000000002,0 L 0,5.90390000000002 L 18.8924,5.90390000000002 L 18.8924,39.2609 Z " fill="#0E6F9C" stroke="#FFFFFF" stroke-width="0.8856" stroke-linecap="butt" stroke-linejoin="miter"/>
        <path d="M 18.8924,5.90390000000002 L 24.7963,0 Z " fill="#0E6F9C" stroke-width="1px" stroke="#0E6F9C"/>
        <path d="M 18.8924,5.90390000000002 L 24.7963,0 " stroke="#FFFFFF" stroke-width="0.8856" stroke-linecap="butt" stroke-linejoin="miter" fill="none"/>
        <path d="M 0.295200000000023,17.1213 L 18.8924,17.1213 Z " fill="#0C6D9C" stroke-width="1px" stroke="#0C6D9C"/>
        <path d="M 0.295200000000023,17.1213 L 18.8924,17.1213 " stroke="#FFFFFF" stroke-width="0.8856" stroke-linecap="butt" stroke-linejoin="miter" fill="none"/>
        <path d="M 0.295200000000023,34.8329 L 18.8924,34.8329 Z " fill="#0C6D9C" stroke-width="1px" stroke="#0C6D9C"/>
        <path d="M 0.295200000000023,34.8329 L 18.8924,34.8329 " stroke="#FFFFFF" stroke-width="0.8856" stroke-linecap="butt" stroke-linejoin="miter" fill="none"/>
        <path d="M 5.31350000000003,10.3318 L 10.3318,10.3318 Z " fill="#0C6D9C" stroke-width="1px" stroke="#0C6D9C"/>
        <path d="M 5.31350000000003,10.3318 L 10.3318,10.3318 " stroke="#FFFFFF" stroke-width="0.8856" stroke-linecap="butt" stroke-linejoin="miter" fill="none"/>
        <path d="M 12.3981,12.103 L 12.3981,8.5607 L 3.24709999999999,8.5607 L 3.24709999999999,12.103 L 12.3981,12.103 Z " fill="#0E6F9C" stroke="#FFFFFF" stroke-width="0.8856" stroke-linecap="butt" stroke-linejoin="miter"/>
        <g transform=" scale(3.000000) ">
          <text font-family="Helvetica" fill="#FFFFFF" style="white-space:pre;" font-weight="700" text-anchor="start" x="0.0000" y="0.0000" font-size="9.4462"><![CDATA[IP]]></text>
        </g>
        <g transform=" scale(3.000000) ">
          <path d="M 16.826,20.9588 C 4.1327,20.9588 4.1327,20.9588 4.1327,20.9588 C 2.6567,20.9588 1.47590000000002,22.1396 1.47590000000002,23.3204 C 1.47590000000002,24.7963 2.95190000000002,25.9771 4.1327,25.9771 C 6.49420000000003,25.9771 6.49420000000003,25.9771 6.49420000000003,25.9771 C 7.97020000000003,25.9771 8.85579999999999,27.1579 8.85579999999999,28.6339 C 8.85579999999999,30.1098 7.67500000000001,31.2906 6.19900000000001,31.2906 C 2.36150000000004,31.2906 2.36150000000004,31.2906 2.36150000000004,31.2906 Z " fill="#0C6D9C" stroke="none"/>
          <path d="M 16.826,20.9588 C 4.1327,20.9588 4.1327,20.9588 4.1327,20.9588 C 2.6567,20.9588 1.47590000000002,22.1396 1.47590000000002,23.3204 C 1.47590000000002,24.7963 2.95190000000002,25.9771 4.1327,25.9771 C 6.49420000000003,25.9771 6.49420000000003,25.9771 6.49420000000003,25.9771 C 7.97020000000003,25.9771 8.85579999999999,27.1579 8.85579999999999,28.6339 C 8.85579999999999,30.1098 7.67500000000001,31.2906 6.19900000000001,31.2906 C 2.36150000000004,31.2906 2.36150000000004,31.2906 2.36150000000004,31.2906 Z " stroke="#FFFFFF" stroke-width="2.21395" stroke-linecap="butt" stroke-linejoin="miter" fill="none"/>
          <path d="M 16.2357,19.1876 L 16.2357,22.4348 L 18.302,20.9588 L 16.2357,19.1876 Z " fill="#FFFFFF" stroke="#FFFFFF" stroke-width="0" stroke-linecap="butt" stroke-linejoin="miter"/>
          <path d="M 2.36150000000004,33.0618 L 2.36150000000004,29.8146 L 0.590399999999988,31.2906 L 2.36150000000004,33.0618 Z " fill="#FFFFFF" stroke="#FFFFFF" stroke-width="0" stroke-linecap="butt" stroke-linejoin="miter"/>
        </g>
      </g>
      <!--emf-blob end-->
    </g>
  </g>
</svg>

