<svg xmlns="http://www.w3.org/2000/svg" xmlns:xlink="http://www.w3.org/1999/xlink" version="1.1" viewBox="0 0 96 150" >
  <title><![CDATA[Sitting woman]]></title>
  <g transform=" scale(3.000000) ">
    <!--converted by libvisio2svg-->
    <g>
      <!--emf-blob start-->
      <g>
        <path d="M 8.26410000000004,5.6078 L 0.295200000000023,5.31270000000001 L 0,5.90300000000002 L 2.06600000000003,12.6913 L 10.6253,12.3962 L 10.9204,11.8059 L 8.26410000000004,5.6078 Z " fill="#126D99" stroke-width="1px" stroke="#126D99"/>
        <path d="M 18.5943,0 L 21.8409,2.36120000000005 L 21.2506,3.2466 L 21.5457,4.72240000000005 L 22.136,5.90300000000002 L 25.0875,7.37870000000004 L 25.6778,5.6078 L 24.7923,5.01750000000004 L 25.0875,3.83690000000001 L 23.3166,0.295200000000023 L 18.5943,0 Z " fill="#126D99" stroke-width="1px" stroke="#126D99"/>
        <path d="M 18.8894,1.18060000000003 L 18.004,2.65640000000002 L 17.7088,4.13210000000004 L 16.8234,2.06610000000001 L 18.8894,1.18060000000003 Z " fill="#126D99" stroke-width="1px" stroke="#126D99"/>
        <path d="M 18.2991,2.06610000000001 L 18.5943,2.36120000000005 L 18.8894,2.65640000000002 L 18.8894,2.06610000000001 L 18.8894,1.77090000000004 L 19.1846,2.06610000000001 L 19.4797,2.65640000000002 L 20.07,2.95150000000001 L 20.07,2.36120000000005 L 20.3651,2.06610000000001 L 20.6603,2.36120000000005 L 21.2506,2.65640000000002 L 21.2506,2.36120000000005 L 21.8409,2.36120000000005 L 19.4797,0.295200000000023 L 18.004,0.295200000000023 L 17.7088,0.885500000000036 L 18.2991,2.06610000000001 Z " fill="#126D99" stroke-width="1px" stroke="#126D99"/>
        <path d="M 18.5943,6.78840000000002 L 20.07,6.78840000000002 Z " fill="#126D99" stroke-width="1px" stroke="#126D99"/>
        <path d="M 18.5943,6.78840000000002 L 20.07,6.78840000000002 " stroke="none" stroke-width="0" fill="none"/>
        <path d="M 17.7088,3.83690000000001 L 17.7088,4.42720000000003 L 17.7088,6.19810000000001 L 17.1185,6.19810000000001 L 16.5282,5.6078 L 16.8234,5.01750000000004 L 17.1185,4.42720000000003 L 17.4137,3.2466 L 17.7088,3.83690000000001 Z " fill="#126D99" stroke-width="1px" stroke="#126D99"/>
        <path d="M 11.2156,12.3962 L 2.65630000000004,13.2816 L 2.06600000000003,13.5768 L 2.3612,14.7574 L 6.19810000000001,16.2331 L 14.7574,15.3477 L 15.0525,14.1671 L 11.2156,12.3962 Z " fill="#126D99" stroke-width="1px" stroke="#126D99"/>
        <path d="M 10.035,11.2156000000001 L 3.2466,11.5108 L 1.47580000000005,6.19810000000001 L 7.96899999999999,6.19810000000001 L 10.035,11.2156000000001 Z " fill="#126D99" stroke-width="1px" stroke="#126D99"/>
        <path d="M 9.73990000000003,16.2331 L 9.14960000000002,14.7574 L 7.96899999999999,13.8719 L 7.96899999999999,14.1671 L 6.4932,13.5768 L 6.4932,14.1671 L 5.6078,13.8719 L 5.90300000000002,14.4622000000001 L 5.31270000000001,14.1671 L 5.90300000000002,15.3477 L 6.78840000000002,15.938 L 8.55930000000001,16.8234 L 9.73990000000003,16.2331 Z " fill="#126D99" stroke-width="1px" stroke="#126D99"/>
        <path d="M 11.8059,24.4972 L 8.26410000000004,25.3826 L 7.67380000000003,26.5632000000001 L 7.67380000000003,28.6293 L 9.44470000000001,36.8934 L 9.44470000000001,40.14 L 8.26410000000004,41.9109 L 10.9204,41.9109 L 12.3962,41.0254 L 12.9865,40.7303 L 12.9865,39.2545 L 12.101,37.4837 L 11.8059,36.0079 L 12.101,32.171 L 11.8059,29.8098000000001 L 11.8059,24.4972 Z " fill="#126D99" stroke-width="1px" stroke="#126D99"/>
        <path d="M 12.6913,38.6642000000001 L 12.101,38.6642000000001 L 11.2156,39.5497 L 10.035,41.0254 L 8.8544,41.3206 L 9.44470000000001,40.7303 L 8.26410000000004,41.6157 L 6.4932,42.5012 L 6.4932,42.7963 L 8.55930000000001,43.0914 L 10.035,43.3866 L 10.9204,42.7963 L 11.8059,41.3206 L 12.101,43.3866 L 12.3962,43.3866 L 13.2816,41.0254 L 13.2816,39.5497 L 12.6913,38.6642000000001 Z " fill="#126D99" stroke-width="1px" stroke="#126D99"/>
        <path d="M 16.2331,24.4972 L 12.101,25.0875 L 11.5107,26.2681 L 11.2156,27.4487 L 14.1671,35.7128 L 14.1671,38.9594 L 12.9865,40.7303 L 15.6428,40.7303 L 17.1185,39.8448 L 17.7088,39.5497 L 17.7088,38.074 L 16.8234,36.3031 L 16.5282,34.8273 L 16.5282,30.9904 L 16.2331,28.6293 L 16.2331,24.4972 Z " fill="#126D99" stroke-width="1px" stroke="#126D99"/>
        <path d="M 17.4137,37.4837 L 16.8234,37.4837 L 15.9379,38.3691 L 14.7574,39.8448 L 13.5768,40.14 L 13.8719,39.5497 L 12.9865,40.4351 L 11.2156,41.3206 L 11.2156,41.6157 L 12.9865,41.9109 L 14.7574,42.206 L 15.6428,41.6157 L 16.2331,40.4351 L 16.8234,42.206 L 17.1185,42.206 L 18.004,39.8448 L 18.004,38.3691 L 17.4137,37.4837 Z " fill="#126D99" stroke-width="1px" stroke="#126D99"/>
        <path d="M 22.7263,7.96900000000005 L 19.4797,8.8544 L 16.5282,9.14960000000002 L 14.1671,10.035 L 13.2816,10.9205 L 14.1671,15.0525 L 13.2816,16.5282 L 12.3962,16.5282 L 12.101,17.1185 L 10.6253,15.938 L 9.44470000000001,15.938 L 8.26410000000004,16.8234 L 8.55930000000001,18.5943 L 12.101,20.9554 L 14.7574,21.2506 L 15.9379,20.3652 L 14.4622,23.9069 L 11.8059,24.7924 L 10.6253,27.1535 L 11.8059,30.4001 L 17.7088,31.5807 L 20.9554,31.8759 L 23.9069,31.5807 L 25.6778,30.105 L 25.9729,28.6293 L 26.2681,27.4487 L 26.8584,26.5632000000001 L 25.9729,23.9069 L 25.6778,20.9554 L 26.5632,20.9554 L 28.039,20.3652 L 29.2195,11.2156000000001 L 28.3341,9.73990000000003 L 25.6778,8.55930000000001 L 22.7263,7.96900000000005 Z " fill="#126D99" stroke-width="1px" stroke="#126D99"/>
        <path d="M 18.004,1.77090000000004 L 19.4797,1.47580000000005 L 22.136,2.36120000000005 L 22.7263,6.49330000000003 L 22.4312,8.26410000000004 L 19.1846,9.14960000000002 L 17.7088,7.37870000000004 L 17.4137,5.01750000000004 L 18.004,1.77090000000004 Z " fill="#126D99" stroke-width="1px" stroke="#126D99"/>
        <path d="M 26.2681,27.7438 L 25.0875,27.1535 L 23.9069,28.3341 L 20.6603,28.9244 L 17.1185,27.4487 L 14.4622,23.9069 L 11.8059,24.7924 L 10.6253,27.1535 L 11.8059,30.4001 L 19.7748,31.8759 L 23.9069,31.5807 L 25.6778,30.105 L 26.2681,27.7438 Z " fill="#126D99" stroke-width="1px" stroke="#126D99"/>
        <path d="M 17.7088,6.19810000000001 L 18.5943,7.67380000000003 L 19.1846,8.26410000000004 L 19.7748,8.26410000000004 L 19.7748,9.73990000000003 L 18.5943,10.3302 L 18.2991,10.3302 L 16.5282,10.6253 L 15.6428,10.3302 L 15.0525,9.44470000000001 L 15.6428,9.73990000000003 L 15.9379,9.44470000000001 L 15.3476,9.14960000000002 L 15.0525,8.55930000000001 L 15.0525,7.96900000000005 L 15.6428,8.26410000000004 L 16.2331,8.26410000000004 L 15.9379,7.96900000000005 L 15.9379,7.67380000000003 L 16.5282,7.37870000000004 L 16.8234,7.08360000000005 L 16.8234,6.49330000000003 L 17.1185,5.6078 L 17.7088,6.19810000000001 Z " fill="#126D99" stroke-width="1px" stroke="#126D99"/>
        <path d="M 22.4312,6.19810000000001 L 22.4312,6.78840000000002 L 22.136,7.08360000000005 L 21.5457,7.08360000000005 L 21.8409,7.37870000000004 L 22.4312,7.37870000000004 L 22.4312,7.96900000000005 L 21.8409,8.26410000000004 L 21.2506,7.96900000000005 L 21.5457,8.55930000000001 L 22.136,8.55930000000001 L 22.7263,8.55930000000001 L 22.7263,8.8544 L 22.4312,9.44470000000001 L 21.8409,9.73990000000003 L 22.4312,10.035 L 23.0215,10.035 L 22.7263,10.3302 L 22.7263,11.2156000000001 L 23.3166,10.9205 L 23.6118,10.3302 L 23.9069,10.9205 L 24.4972,11.2156000000001 L 25.6778,11.5108 L 26.5632,11.5108 L 27.4487,11.2156000000001 L 27.4487,10.6253 L 27.1535,10.6253 L 26.5632,10.6253 L 26.8584,10.3302 L 27.1535,10.035 L 27.4487,9.14960000000002 L 27.1535,8.8544 L 26.8584,9.14960000000002 L 26.5632,9.44470000000001 L 26.5632,8.8544 L 26.5632,8.55930000000001 L 26.2681,8.55930000000001 L 25.6778,8.55930000000001 L 25.9729,7.96900000000005 L 25.9729,7.37870000000004 L 25.9729,6.78840000000002 L 25.6778,7.08360000000005 L 25.3826,7.37870000000004 L 24.7923,7.08360000000005 L 25.0875,6.78840000000002 L 25.0875,6.19810000000001 L 24.7923,5.90300000000002 L 24.7923,6.19810000000001 L 24.202,6.19810000000001 L 24.202,5.6078 L 23.0215,5.6078 L 22.4312,6.19810000000001 Z " fill="#126D99" stroke-width="1px" stroke="#126D99"/>
        <path d="M 22.4312,10.3302 C 21.5457,11.5108 21.5457,11.5108 21.5457,11.5108 C 20.6603,10.3302 20.6603,10.3302 20.6603,10.3302 C 20.6603,10.3302 20.07,11.8059 19.7748,11.2156000000001 C 19.4797,10.3302 19.4797,10.3302 19.4797,10.3302 C 18.8894,10.9205 18.8894,10.9205 18.8894,10.9205 C 18.8894,10.9205 17.4137,11.2156000000001 17.7088,10.9205 C 18.004,10.6253 18.004,10.035 18.004,10.035 C 20.3651,7.67380000000003 20.3651,7.67380000000003 20.3651,7.67380000000003 C 23.3166,7.67380000000003 23.3166,7.67380000000003 23.3166,7.67380000000003 Z Z " fill="#126D99" stroke="none"/>
        <path d="M 20.3651,32.4662 C 20.07,37.7788 20.07,37.7788 20.07,37.7788 C 12.9865,39.5497 12.9865,39.5497 12.9865,39.5497 C 11.8059,39.2545 11.5107,40.7303 11.5107,40.7303 C 11.5107,41.6157 11.5107,41.6157 11.5107,41.6157 C 12.101,41.6157 12.101,41.6157 12.101,41.6157 C 11.8059,42.5012 11.8059,42.5012 11.8059,42.5012 C 12.3962,43.6817 13.2816,42.7963 13.2816,42.7963 C 13.5768,41.6157 13.5768,41.6157 13.5768,41.6157 C 19.1846,39.5497 19.1846,39.5497 19.1846,39.5497 C 14.1671,43.3866 14.1671,43.3866 14.1671,43.3866 C 13.2816,44.8623 13.8719,46.3381 13.8719,46.3381 C 13.2816,47.5186 14.4622,48.6992 14.4622,48.6992 C 15.9379,49.5847 15.9379,47.5186 15.9379,47.5186 C 16.2331,46.3381 15.0525,46.3381 15.0525,46.3381 C 14.7574,45.4526 14.7574,45.4526 14.7574,45.4526 C 20.9554,40.14 20.9554,40.14 20.9554,40.14 C 28.3341,45.1575 28.3341,45.1575 28.3341,45.1575 C 28.6292,46.0429 28.6292,46.0429 28.6292,46.0429 C 27.7438,47.5186 29.2195,48.1089 29.2195,48.1089 C 31.2856,48.6992 30.4001,46.9284 30.4001,46.9284 C 30.6953,46.0429 29.8098,45.7478 29.8098,45.7478 C 29.2195,45.1575 29.2195,45.1575 29.2195,45.1575 C 29.2195,45.1575 28.9244,45.4526 29.5147,44.8623 C 30.105,44.5672 29.5147,43.0914 29.5147,43.0914 C 22.7263,39.2545 22.7263,39.2545 22.7263,39.2545 C 27.7438,40.4351 27.7438,40.4351 27.7438,40.4351 C 28.6292,41.3206 28.6292,41.3206 28.6292,41.3206 C 28.6292,42.7963 29.8098,42.5012 29.8098,42.5012 C 30.9904,42.5012 30.4001,41.0254 30.4001,41.0254 C 29.8098,40.7303 29.5147,40.4351 29.5147,40.4351 C 28.9244,39.5497 28.9244,39.5497 28.9244,39.5497 C 25.9729,38.6642000000001 25.9729,38.6642000000001 25.9729,38.6642000000001 C 21.8409,37.7788 21.8409,37.7788 21.8409,37.7788 C 21.8409,33.0565 21.8409,33.0565 21.8409,33.0565 Z " fill="#126D99" stroke="none"/>
        <path d="M 18.5943,33.9419 C 9.14960000000002,30.6953 9.14960000000002,30.6953 9.14960000000002,30.6953 C 8.55930000000001,30.105 9.14960000000002,28.9244 9.14960000000002,28.9244 C 18.5943,31.8759 18.5943,31.8759 18.5943,31.8759 Z " fill="#126D99" stroke="none"/>
        <path d="M 25.3826,31.5807 C 18.8894,34.237 18.8894,34.237 18.8894,34.237 C 18.8894,28.6293 18.8894,28.6293 18.8894,28.6293 C 23.6118,15.938 24.4972,15.938 24.4972,15.938 C 26.2681,15.0525 26.5632,15.0525 26.5632,15.0525 C 28.9244,15.0525 29.8098,14.1671 29.8098,14.1671 C 30.4001,13.5768 31.2856,14.4622000000001 31.2856,14.4622000000001 Z Z " fill="#126D99" stroke="none"/>
      </g>
      <!--emf-blob end-->
    </g>
  </g>
</svg>

