<svg xmlns="http://www.w3.org/2000/svg" xmlns:xlink="http://www.w3.org/1999/xlink" version="1.1" viewBox="0 0 150 75" >
  <title><![CDATA[Small hub]]></title>
  <g transform=" scale(3.000000) ">
    <!--converted by libvisio2svg-->
    <g>
      <!--emf-blob start-->
      <g>
        <path d="M 43.9959,11.811 L 49.9015,0 L 9.15350000000001,0 L 0,11.811 L 43.9959,11.811 Z " fill="#0E6F9C" stroke="#FFFFFF" stroke-width="0.8858" stroke-linecap="butt" stroke-linejoin="miter"/>
        <path d="M 49.9015,10.9251 L 49.9015,0 L 43.9959,11.811 L 43.9959,24.803 L 49.9015,10.9251 Z " fill="#0E6F9C" stroke="#FFFFFF" stroke-width="0.8858" stroke-linecap="butt" stroke-linejoin="miter"/>
        <path d="M 43.9959,24.803 L 43.9959,11.811 L 0,11.811 L 0,24.803 L 43.9959,24.803 Z " fill="#0E6F9C" stroke="#FFFFFF" stroke-width="0.8858" stroke-linecap="butt" stroke-linejoin="miter"/>
        <path d="M 7.3818,23.0314 L 7.3818,20.3739 L 4.7244,20.3739 L 4.7244,23.0314 L 7.3818,23.0314 Z " fill="#0E6F9C" stroke="#FFFFFF" stroke-width="0.8858" stroke-linecap="butt" stroke-linejoin="miter"/>
        <path d="M 11.2204,23.0314 L 11.2204,20.3739 L 8.56299999999999,20.3739 L 8.56299999999999,23.0314 L 11.2204,23.0314 Z " fill="#0E6F9C" stroke="#FFFFFF" stroke-width="0.8858" stroke-linecap="butt" stroke-linejoin="miter"/>
        <path d="M 15.059,23.0314 L 15.059,20.3739 L 12.4015,20.3739 L 12.4015,23.0314 L 15.059,23.0314 Z " fill="#0E6F9C" stroke="#FFFFFF" stroke-width="0.8858" stroke-linecap="butt" stroke-linejoin="miter"/>
        <path d="M 18.8976,23.0314 L 18.8976,20.3739 L 16.2401,20.3739 L 16.2401,23.0314 L 18.8976,23.0314 Z " fill="#0E6F9C" stroke="#FFFFFF" stroke-width="0.8858" stroke-linecap="butt" stroke-linejoin="miter"/>
        <path d="M 22.7361,23.0314 L 22.7361,20.3739 L 20.0787,20.3739 L 20.0787,23.0314 L 22.7361,23.0314 Z " fill="#0E6F9C" stroke="#FFFFFF" stroke-width="0.8858" stroke-linecap="butt" stroke-linejoin="miter"/>
        <path d="M 26.5747,23.0314 L 26.5747,20.3739 L 23.9172,20.3739 L 23.9172,23.0314 L 26.5747,23.0314 Z " fill="#0E6F9C" stroke="#FFFFFF" stroke-width="0.8858" stroke-linecap="butt" stroke-linejoin="miter"/>
        <path d="M 30.4133,23.0314 L 30.4133,20.3739 L 27.7558,20.3739 L 27.7558,23.0314 L 30.4133,23.0314 Z " fill="#0E6F9C" stroke="#FFFFFF" stroke-width="0.8858" stroke-linecap="butt" stroke-linejoin="miter"/>
        <path d="M 34.2519,23.0314 L 34.2519,20.3739 L 31.5944,20.3739 L 31.5944,23.0314 L 34.2519,23.0314 Z " fill="#0E6F9C" stroke="#FFFFFF" stroke-width="0.8858" stroke-linecap="butt" stroke-linejoin="miter"/>
        <path d="M 38.0904,23.0314 L 38.0904,20.3739 L 35.433,20.3739 L 35.433,23.0314 L 38.0904,23.0314 Z " fill="#0E6F9C" stroke="#FFFFFF" stroke-width="0.8858" stroke-linecap="butt" stroke-linejoin="miter"/>
        <path d="M 36.9093,5.31489999999997 L 38.3857,3.83850000000001 L 41.3385,5.61019999999996 L 35.433,7.0865 L 36.6141,5.90550000000002 L 25.0983,5.90550000000002 L 25.3936,5.31489999999997 L 36.9093,5.31489999999997 Z " fill="#FFFFFF" stroke-width="1px" stroke="#FFFFFF"/>
        <path d="M 25.9842,5.31489999999997 L 25.6889,5.90550000000002 L 14.1732,5.90550000000002 L 12.9921,7.0865 L 9.74400000000003,5.61019999999996 L 16.2401,3.54329999999999 L 14.4684,5.31489999999997 L 25.9842,5.31489999999997 Z " fill="#FFFFFF" stroke-width="1px" stroke="#FFFFFF"/>
      </g>
      <!--emf-blob end-->
    </g>
  </g>
</svg>

