<svg xmlns="http://www.w3.org/2000/svg" xmlns:xlink="http://www.w3.org/1999/xlink" version="1.1" viewBox="0 0 162 93" >
  <title><![CDATA[Small business]]></title>
  <g transform=" scale(3.000000) ">
    <!--converted by libvisio2svg-->
    <g>
      <!--emf-blob start-->
      <g>
        <path d="M 52.228,27.4419 L 52.228,0 L 2.06560000000002,0 L 2.06560000000002,27.4419 L 52.228,27.4419 Z " fill="#126D99" stroke="#FFFFFF" stroke-width="0.8852" stroke-linecap="butt" stroke-linejoin="miter"/>
        <path d="M 27.1468,26.8517 L 27.1468,10.6227 L 22.1305,10.6227 L 22.1305,26.8517 L 27.1468,26.8517 Z " fill="#126D99" stroke="#FFFFFF" stroke-width="0.8852" stroke-linecap="butt" stroke-linejoin="miter"/>
        <path d="M 31.868,26.8517 L 31.868,10.6227 L 27.1468,10.6227 L 27.1468,26.8517 L 31.868,26.8517 Z " fill="#126D99" stroke="#FFFFFF" stroke-width="0.8852" stroke-linecap="butt" stroke-linejoin="miter"/>
        <path d="M 33.3433,28.032 L 33.3433,26.8517 L 20.6552,26.8517 L 20.6552,28.032 L 33.3433,28.032 Z " fill="#126D99" stroke="#FFFFFF" stroke-width="0.8852" stroke-linecap="butt" stroke-linejoin="miter"/>
        <path d="M 34.2286,29.2123 L 34.2286,28.032 L 20.065,28.032 L 20.065,29.2123 L 34.2286,29.2123 Z " fill="#126D99" stroke="#FFFFFF" stroke-width="0.8852" stroke-linecap="butt" stroke-linejoin="miter"/>
        <path d="M 34.8187,30.3926 L 34.8187,29.2123 L 19.4749,29.2123 L 19.4749,30.3926 L 34.8187,30.3926 Z " fill="#126D99" stroke="#FFFFFF" stroke-width="0.8852" stroke-linecap="butt" stroke-linejoin="miter"/>
        <path d="M 24.4911,17.7044 L 25.9665,17.7044 Z " fill="#126D99" stroke-width="1px" stroke="#126D99"/>
        <path d="M 24.4911,17.7044 L 25.9665,17.7044 " stroke="#FFFFFF" stroke-width="0.8852" stroke-linecap="butt" stroke-linejoin="miter" fill="none"/>
        <path d="M 29.5074,17.7044 L 28.3271,17.7044 Z " fill="#126D99" stroke-width="1px" stroke="#126D99"/>
        <path d="M 29.5074,17.7044 L 28.3271,17.7044 " stroke="#FFFFFF" stroke-width="0.8852" stroke-linecap="butt" stroke-linejoin="miter" fill="none"/>
        <path d="M 52.8182,2.36059999999998 L 53.9985,5.0163 L 0,5.0163 L 1.18029999999999,2.36059999999998 L 52.8182,2.36059999999998 Z " fill="#126D99" stroke="#FFFFFF" stroke-width="0.8852" stroke-linecap="butt" stroke-linejoin="miter"/>
        <path d="M 16.8192,20.9503 L 16.8192,7.37689999999998 L 7.08179999999999,7.37689999999998 L 7.08179999999999,20.9503 L 16.8192,20.9503 Z " fill="#126D99" stroke="#FFFFFF" stroke-width="0.8852" stroke-linecap="butt" stroke-linejoin="miter"/>
        <path d="M 46.9167,20.9503 L 46.9167,7.37689999999998 L 37.1793,7.37689999999998 L 37.1793,20.9503 L 46.9167,20.9503 Z " fill="#126D99" stroke="#FFFFFF" stroke-width="0.8852" stroke-linecap="butt" stroke-linejoin="miter"/>
      </g>
      <!--emf-blob end-->
    </g>
  </g>
</svg>

