<svg xmlns="http://www.w3.org/2000/svg" xmlns:xlink="http://www.w3.org/1999/xlink" version="1.1" viewBox="0 0 114 132" >
  <title><![CDATA[Software based server]]></title>
  <g transform=" scale(3.000000) ">
    <!--converted by libvisio2svg-->
    <g>
      <!--emf-blob start-->
      <g>
        <path d="M 18.3001,14.1679 L 0,14.1679 L 0,43.0939 L 18.3001,43.0939 Z " fill="#126D99" stroke-width="1px" stroke="#126D99"/>
        <path d="M 18.3001,14.1679 L 0,14.1679 L 0,43.0939 L 18.3001,43.0939 " stroke="#FFFFFF" stroke-width="0.8855" stroke-linecap="butt" stroke-linejoin="miter" fill="none"/>
        <path d="M 18.3001,43.0939 L 23.9083,37.1906 L 23.9083,8.26459999999997 L 5.9033,8.26459999999997 L 0,14.1679 L 18.3001,14.1679 L 18.3001,43.0939 Z " fill="#126D99" stroke="#FFFFFF" stroke-width="0.8855" stroke-linecap="butt" stroke-linejoin="miter"/>
        <path d="M 18.3001,14.1679 L 23.9083,8.26459999999997 Z " fill="#000000" stroke-width="1px" stroke="#000000"/>
        <path d="M 18.3001,14.1679 L 23.9083,8.26459999999997 " stroke="#FFFFFF" stroke-width="0.8855" stroke-linecap="butt" stroke-linejoin="miter" fill="none"/>
        <path d="M 0.295199999999966,25.3841 L 18.005,25.3841 Z " fill="#0E6A98" stroke-width="1px" stroke="#0E6A98"/>
        <path d="M 0.295199999999966,25.3841 L 18.005,25.3841 " stroke="#FFFFFF" stroke-width="0.8855" stroke-linecap="butt" stroke-linejoin="miter" fill="none"/>
        <path d="M 0.295199999999966,38.6665 L 18.005,38.6665 Z " fill="#0E6A98" stroke-width="1px" stroke="#0E6A98"/>
        <path d="M 0.295199999999966,38.6665 L 18.005,38.6665 " stroke="#FFFFFF" stroke-width="0.8855" stroke-linecap="butt" stroke-linejoin="miter" fill="none"/>
        <path d="M 4.42750000000001,18.5953 L 9.74039999999997,18.5953 Z " fill="#0E6A98" stroke-width="1px" stroke="#0E6A98"/>
        <path d="M 4.42750000000001,18.5953 L 9.74039999999997,18.5953 " stroke="#FFFFFF" stroke-width="0.8855" stroke-linecap="butt" stroke-linejoin="miter" fill="none"/>
        <path d="M 11.5114,20.3663 L 11.5114,16.5292 L 2.36129999999997,16.5292 L 2.36129999999997,20.3663 L 11.5114,20.3663 Z " fill="#126D99" stroke="#FFFFFF" stroke-width="0.8855" stroke-linecap="butt" stroke-linejoin="miter"/>
        <path d="M 37.1906,0 L 36.6003,0.295199999999966 L 13.5775,0.295199999999966 L 14.1679,0 L 37.1906,0 Z " fill="#0E6A98" stroke-width="1px" stroke="#0E6A98"/>
        <path d="M 37.1906,22.7276 L 37.1906,0 L 36.6003,0.590399999999988 L 36.6003,23.318 L 37.1906,22.7276 Z " fill="#0E6A98" stroke-width="1px" stroke="#0E6A98"/>
        <path d="M 14.463,23.318 L 36.6003,23.318 L 36.6003,0.295199999999966 L 13.5775,0.295199999999966 L 13.5775,22.4325 L 14.463,23.318 Z " fill="#126D99" stroke="#FFFFFF" stroke-width="0.8855" stroke-linecap="butt" stroke-linejoin="miter"/>
        <path d="M 34.8293,0.295199999999966 C 34.8293,13.5776 34.8293,13.5776 34.8293,13.5776 C 34.8293,14.7582 33.9438,14.463 33.9438,14.463 C 15.9388,14.463 15.9388,14.463 15.9388,14.463 C 15.9388,14.463 15.3485,14.463 15.3485,13.8727 C 15.3485,0.295199999999966 15.3485,0.295199999999966 15.3485,0.295199999999966 Z " stroke="#FFFFFF" stroke-width="0.8855" stroke-linecap="butt" stroke-linejoin="miter" fill="none"/>
        <path d="M 15.0533,2.65649999999999 L 15.0533,1.77099999999996 L 13.8727,1.77099999999996 L 13.8727,2.65649999999999 L 15.0533,2.65649999999999 Z " fill="none" stroke="#FFFFFF" stroke-width="0.8855" stroke-linecap="butt" stroke-linejoin="miter"/>
        <path d="M 36.3051,2.65649999999999 L 36.3051,1.77099999999996 L 35.1245,1.77099999999996 L 35.1245,2.65649999999999 L 36.3051,2.65649999999999 Z " fill="none" stroke="#FFFFFF" stroke-width="0.8855" stroke-linecap="butt" stroke-linejoin="miter"/>
        <path d="M 30.9922,16.8244 C 30.9922,23.318 30.9922,23.318 30.9922,23.318 C 17.4147,23.318 17.4147,23.318 17.4147,23.318 C 17.4147,16.5292 17.4147,16.5292 17.4147,16.5292 C 17.4147,15.9389 18.3001,15.9389 18.3001,15.9389 C 30.4019,15.9389 30.4019,15.9389 30.4019,15.9389 C 31.2873,15.9389 30.9922,16.8244 30.9922,16.8244 Z Z " fill="#FFFFFF" stroke="#0E6A98" stroke-width="0.8855" stroke-linecap="butt" stroke-linejoin="miter"/>
        <path d="M 34.8293,23.318 C 34.8293,16.8244 34.8293,16.8244 34.8293,16.8244 C 34.8293,16.8244 34.8293,15.9389 33.9438,15.9389 C 18.3001,15.9389 18.3001,15.9389 18.3001,15.9389 C 18.3001,15.9389 17.4147,15.9389 17.4147,16.5292 C 17.4147,23.0228 17.4147,23.0228 17.4147,23.0228 Z " stroke="#FFFFFF" stroke-width="0.8855" stroke-linecap="butt" stroke-linejoin="miter" fill="none"/>
        <path d="M 22.7276,22.7276 L 22.7276,16.5292 L 20.0711,16.5292 L 20.0711,22.7276 L 22.7276,22.7276 Z " fill="#126D99" stroke="#FFFFFF" stroke-width="0.8855" stroke-linecap="butt" stroke-linejoin="miter"/>
        <path d="M 29.5164,12.1017 C 31.8777,9.44529999999997 31.8777,5.60809999999998 29.5164,2.95169999999996 C 27.1551,0.590399999999988 23.0228,0.590399999999988 20.6615,2.95169999999996 C 18.3001,5.60809999999998 18.3001,9.44529999999997 20.6615,12.1017 C 23.0228,14.463 27.1551,14.463 29.5164,12.1017 Z Z " fill="#FFFFFF" stroke="none"/>
        <path d="M 36.6003,0.590399999999988 L 37.1906,0 " stroke="#FFFFFF" stroke-width="0.8855" stroke-linecap="butt" stroke-linejoin="miter" fill="none"/>
        <path d="M 24.2034,6.49359999999996 L 21.2518,3.54199999999997 " stroke="#126D99" stroke-width="0.8855" stroke-linecap="butt" stroke-linejoin="miter" fill="none"/>
        <path d="M 25.6792,10.0356 L 27.4502,7.96949999999998 L 25.3841,7.67429999999996 L 25.6792,10.0356 Z " fill="#126D99" stroke-width="1px" stroke="#126D99"/>
        <path d="M 22.7276,6.78879999999998 L 24.4986,5.01779999999997 L 24.7937,7.084 L 22.7276,6.78879999999998 Z " fill="#126D99" stroke-width="1px" stroke="#126D99"/>
        <path d="M 29.2212,11.5114 L 26.2696,8.5598 " stroke="#126D99" stroke-width="0.8855" stroke-linecap="butt" stroke-linejoin="miter" fill="none"/>
        <path d="M 25.6792,6.78879999999998 L 27.7454,4.72269999999997 " stroke="#126D99" stroke-width="0.8855" stroke-linecap="butt" stroke-linejoin="miter" fill="none"/>
        <path d="M 26.8599,3.8372 L 28.6309,5.60809999999998 L 28.926,3.54199999999997 L 26.8599,3.8372 Z " fill="#126D99" stroke-width="1px" stroke="#126D99"/>
        <path d="M 21.2518,9.15010000000001 L 23.3179,11.2163 L 21.2518,11.5114 L 21.2518,9.15010000000001 Z " fill="#126D99" stroke-width="1px" stroke="#126D99"/>
        <path d="M 22.1373,10.3308 L 24.4986,7.96949999999998 " stroke="#126D99" stroke-width="0.8855" stroke-linecap="butt" stroke-linejoin="miter" fill="none"/>
      </g>
      <!--emf-blob end-->
    </g>
  </g>
</svg>

