<svg xmlns="http://www.w3.org/2000/svg" xmlns:xlink="http://www.w3.org/1999/xlink" version="1.1" viewBox="0 0 96 111" >
  <title><![CDATA[Softswitch PGW MGC]]></title>
  <g transform=" scale(3.000000) ">
    <!--converted by libvisio2svg-->
    <g>
      <!--emf-blob start-->
      <g>
        <path d="M 5.60809999999998,27.155 C 4.7226,27.155 4.7226,27.155 4.7226,27.155 C 0.590300000000013,27.155 0,23.3179 0,23.3179 C 0,27.155 0,27.155 0,27.155 C 0,27.155 0.590300000000013,30.9921000000001 4.7226,30.9921000000001 C 5.60809999999998,30.9921000000001 5.60809999999998,30.9921000000001 5.60809999999998,30.9921000000001 Z " fill="#FFFFFF" stroke="none"/>
        <path d="M 5.60809999999998,27.155 C 4.7226,27.155 4.7226,27.155 4.7226,27.155 C 0.590300000000013,27.155 0,23.3179 0,23.3179 C 0,27.155 0,27.155 0,27.155 C 0,27.155 0.590300000000013,30.9921000000001 4.7226,30.9921000000001 C 5.60809999999998,30.9921000000001 5.60809999999998,30.9921000000001 5.60809999999998,30.9921000000001 Z " stroke="#0C6D9C" stroke-width="0.8855" stroke-linecap="butt" stroke-linejoin="miter" fill="none"/>
        <path d="M 23.9082,36.0099 L 23.9082,2.95160000000004 L 4.7226,2.95160000000004 L 4.7226,36.0099 L 23.9082,36.0099 Z " fill="#0E6F9C" stroke-width="1px" stroke="#0E6F9C"/>
        <path d="M 4.7226,2.95160000000004 L 8.2645,0 L 26.8598,0 L 23.9082,2.95160000000004 L 4.7226,2.95160000000004 Z " fill="#0E6F9C" stroke-width="1px" stroke="#0E6F9C"/>
        <path d="M 23.9082,36.0099 L 26.8598,32.468 L 26.8598,0 L 23.9082,2.95160000000004 L 23.9082,36.0099 Z " fill="#0E6F9C" stroke-width="1px" stroke="#0E6F9C"/>
        <path d="M 23.9082,36.0099 L 23.9082,2.95160000000004 L 4.7226,2.95160000000004 L 4.7226,36.0099 L 23.9082,36.0099 Z " fill="#0C6D9C" stroke="#FFFFFF" stroke-width="0.8855" stroke-linecap="butt" stroke-linejoin="miter"/>
        <path d="M 4.7226,2.95160000000004 L 8.2645,0 L 26.8598,0 L 23.9082,2.95160000000004 L 4.7226,2.95160000000004 Z " fill="#0C6D9C" stroke="#FFFFFF" stroke-width="0.8855" stroke-linecap="butt" stroke-linejoin="miter"/>
        <path d="M 23.9082,36.0099 L 26.8598,32.468 L 26.8598,0 L 23.9082,2.95160000000004 L 23.9082,36.0099 Z " fill="#0C6D9C" stroke="#FFFFFF" stroke-width="0.8855" stroke-linecap="butt" stroke-linejoin="miter"/>
        <path d="M 23.9082,36.0099 L 23.9082,2.95160000000004 L 4.7226,2.95160000000004 L 4.7226,36.0099 L 23.9082,36.0099 Z " fill="none" stroke="#FFFFFF" stroke-width="0.8855" stroke-linecap="butt" stroke-linejoin="miter"/>
        <path d="M 4.7226,2.95160000000004 L 8.2645,0 L 26.8598,0 L 23.9082,2.95160000000004 L 4.7226,2.95160000000004 Z " fill="none" stroke="#FFFFFF" stroke-width="0.8855" stroke-linecap="butt" stroke-linejoin="miter"/>
        <path d="M 23.9082,36.0099 L 26.8598,32.468 L 26.8598,0 L 23.9082,2.95160000000004 L 23.9082,36.0099 Z " fill="none" stroke="#FFFFFF" stroke-width="0.8855" stroke-linecap="butt" stroke-linejoin="miter"/>
        <path d="M 26.5647,30.9921000000001 L 30.697,30.9921000000001 L 30.697,26.8599 L 26.5647,26.8599 Z " fill="#FFFFFF" stroke-width="1px" stroke="#FFFFFF"/>
        <path d="M 26.5647,30.9921000000001 L 30.697,30.9921000000001 L 30.697,26.8599 L 26.5647,26.8599 " stroke="#0C6D9C" stroke-width="0.8855" stroke-linecap="butt" stroke-linejoin="miter" fill="none"/>
        <path d="M 5.60809999999998,8.55970000000002 L 5.01769999999999,8.55970000000002 L 0.590300000000013,8.55970000000002 L 0.590300000000013,12.3968 L 5.01769999999999,12.3968 L 5.31290000000001,12.3968 Z " fill="#FFFFFF" stroke-width="1px" stroke="#FFFFFF"/>
        <path d="M 5.60809999999998,8.55970000000002 L 5.01769999999999,8.55970000000002 L 0.590300000000013,8.55970000000002 L 0.590300000000013,12.3968 L 5.01769999999999,12.3968 L 5.31290000000001,12.3968 " stroke="#0C6D9C" stroke-width="0.8855" stroke-linecap="butt" stroke-linejoin="miter" fill="none"/>
        <path d="M 25.9744,12.3968 C 26.5647,12.3968 26.5647,12.3968 26.5647,12.3968 C 30.9921,12.3968 31.5825,16.234 31.5825,16.234 C 31.5825,12.3968 31.5825,12.3968 31.5825,12.3968 C 31.5825,12.3968 30.9921,8.55970000000002 26.5647,8.55970000000002 C 25.6792,8.55970000000002 25.6792,8.55970000000002 25.6792,8.55970000000002 Z " fill="#FFFFFF" stroke="none"/>
        <path d="M 25.9744,12.3968 C 26.5647,12.3968 26.5647,12.3968 26.5647,12.3968 C 30.9921,12.3968 31.5825,16.234 31.5825,16.234 C 31.5825,12.3968 31.5825,12.3968 31.5825,12.3968 C 31.5825,12.3968 30.9921,8.55970000000002 26.5647,8.55970000000002 C 25.6792,8.55970000000002 25.6792,8.55970000000002 25.6792,8.55970000000002 Z " stroke="#0C6D9C" stroke-width="0.8855" stroke-linecap="butt" stroke-linejoin="miter" fill="none"/>
        <path d="M 31.5825,12.1017000000001 C 31.5825,16.8243000000001 31.5825,16.8243000000001 31.5825,16.8243000000001 C 30.9921,22.4324 21.2517,22.1372 21.2517,22.1372 C 21.2517,22.4324 21.2517,22.4324 21.2517,22.4324 C 21.2517,26.2695000000001 21.2517,26.2695000000001 21.2517,26.2695000000001 C 14.7581,19.7759 14.7581,19.7759 14.7581,19.7759 C 21.2517,13.2823 21.2517,13.2823 21.2517,13.2823 C 21.2517,17.4146 21.2517,17.4146 21.2517,17.4146 C 21.2517,17.4146 31.2873,17.7098 31.5825,12.1017000000001 Z " fill="#FFFFFF" stroke="none"/>
        <path d="M 31.5825,12.1017000000001 C 31.5825,16.8243000000001 31.5825,16.8243000000001 31.5825,16.8243000000001 C 30.9921,22.4324 21.2517,22.1372 21.2517,22.1372 C 21.2517,22.4324 21.2517,22.4324 21.2517,22.4324 C 21.2517,26.2695000000001 21.2517,26.2695000000001 21.2517,26.2695000000001 C 14.7581,19.7759 14.7581,19.7759 14.7581,19.7759 C 21.2517,13.2823 21.2517,13.2823 21.2517,13.2823 C 21.2517,17.4146 21.2517,17.4146 21.2517,17.4146 C 21.2517,17.4146 31.2873,17.7098 31.5825,12.1017000000001 Z " stroke="#0C6D9C" stroke-width="0.8855" stroke-linecap="butt" stroke-linejoin="miter" fill="none"/>
        <path d="M 0,27.4502000000001 C 0,22.7276000000001 0,22.7276000000001 0,22.7276000000001 C 0.295099999999991,17.1195 7.08389999999997,17.4146 7.08389999999997,17.4146 C 7.08389999999997,17.1195 7.08389999999997,17.1195 7.08389999999997,17.1195 C 7.08389999999997,13.2823 7.08389999999997,13.2823 7.08389999999997,13.2823 C 13.5775,19.7759 13.5775,19.7759 13.5775,19.7759 C 7.08389999999997,26.2695000000001 7.08389999999997,26.2695000000001 7.08389999999997,26.2695000000001 C 7.08389999999997,22.1372 7.08389999999997,22.1372 7.08389999999997,22.1372 C 7.08389999999997,22.1372 0.295099999999991,21.8421 0,27.4502000000001 Z " fill="#FFFFFF" stroke="none"/>
        <path d="M 0,27.4502000000001 C 0,22.7276000000001 0,22.7276000000001 0,22.7276000000001 C 0.295099999999991,17.1195 7.08389999999997,17.4146 7.08389999999997,17.4146 C 7.08389999999997,17.1195 7.08389999999997,17.1195 7.08389999999997,17.1195 C 7.08389999999997,13.2823 7.08389999999997,13.2823 7.08389999999997,13.2823 C 13.5775,19.7759 13.5775,19.7759 13.5775,19.7759 C 7.08389999999997,26.2695000000001 7.08389999999997,26.2695000000001 7.08389999999997,26.2695000000001 C 7.08389999999997,22.1372 7.08389999999997,22.1372 7.08389999999997,22.1372 C 7.08389999999997,22.1372 0.295099999999991,21.8421 0,27.4502000000001 Z " stroke="#0C6D9C" stroke-width="0.8855" stroke-linecap="butt" stroke-linejoin="miter" fill="none"/>
      </g>
      <!--emf-blob end-->
    </g>
  </g>
</svg>

