<svg xmlns="http://www.w3.org/2000/svg" xmlns:xlink="http://www.w3.org/1999/xlink" version="1.1" viewBox="0 0 225 120" >
  <title><![CDATA[Space router]]></title>
  <g transform=" scale(3.000000) ">
    <!--converted by libvisio2svg-->
    <g>
      <!--emf-blob start-->
      <g>
        <path d="M 51.9593,31.5889 C 52.2545,33.3602 51.3688,35.4268 49.5975,36.9029 C 47.8261,38.6742 45.4644,39.2647 43.693,38.9695 Z " stroke="#036998" stroke-width="0.88565" stroke-linecap="round" stroke-linejoin="round" fill="none"/>
        <path d="M 51.0736,31.2937 C 51.3688,33.065 50.4831,34.8363 49.007,36.3124 C 47.2357,37.7886 45.1691,38.379 43.3978,38.0838 Z " stroke="#036998" stroke-width="0.88565" stroke-linecap="round" stroke-linejoin="round" fill="none"/>
        <path d="M 50.4831,30.9984 C 50.4831,32.7698 49.8927,34.5411 48.4166,35.722 C 46.9405,37.1981 44.8739,37.7886 43.3978,37.1981 Z " stroke="#036998" stroke-width="0.88565" stroke-linecap="round" stroke-linejoin="round" fill="none"/>
        <path d="M 49.5975,30.7032 C 49.5975,32.1793 49.007,33.9507 47.8261,35.1316 C 46.35,36.3124 44.5787,36.9029 43.1026,36.6077 Z " stroke="#036998" stroke-width="0.88565" stroke-linecap="round" stroke-linejoin="round" fill="none"/>
        <path d="M 48.7118,30.408 C 49.007,31.8841 48.4166,33.3602 47.2357,34.5411 C 45.7596,35.722 44.2835,36.0172 42.8073,35.722 Z " stroke="#036998" stroke-width="0.88565" stroke-linecap="round" stroke-linejoin="round" fill="none"/>
        <path d="M 48.1214,30.408 C 48.1214,31.5889 47.5309,32.7698 46.35,33.6554 C 45.4644,34.8363 43.9882,35.1316 42.5121,34.8363 Z " stroke="#036998" stroke-width="0.88565" stroke-linecap="round" stroke-linejoin="round" fill="none"/>
        <path d="M 47.2357,30.1128 C 47.2357,30.9984 46.9405,32.1793 45.7596,33.065 C 44.8739,33.9507 43.3978,34.5411 42.5121,34.2459 Z " stroke="#036998" stroke-width="0.88565" stroke-linecap="round" stroke-linejoin="round" fill="none"/>
        <path d="M 46.35,29.8175 C 46.6452,30.7032 46.0548,31.5889 45.1691,32.4745 C 44.2835,33.3602 43.1026,33.6554 42.2169,33.3602 Z " stroke="#036998" stroke-width="0.88565" stroke-linecap="round" stroke-linejoin="round" fill="none"/>
        <path d="M 0,23.0274 L 0,21.2561 L 15.9421,15.6468 L 23.0274,16.8277 L 27.4558,17.7134 L 30.408,18.3038 L 30.408,20.3704 Z " fill="#036998" stroke-width="1px" stroke="#036998"/>
        <path d="M 0,23.0274 L 0,21.2561 L 15.9421,15.6468 L 23.0274,16.8277 L 27.4558,17.7134 L 30.408,18.3038 L 30.408,20.3704 " stroke="#FFFFFF" stroke-width="0.88565" stroke-linecap="butt" stroke-linejoin="miter" fill="none"/>
        <path d="M 37.1981,0 C 35.1315,0 33.3602,0.59050000000002 33.3602,1.47610000000003 C 33.3602,2.36180000000002 35.1315,3.2475 37.1981,3.2475 C 38.9694,3.2475 40.7408,2.36180000000002 40.7408,1.47610000000003 C 40.7408,0.59050000000002 38.9694,0 37.1981,0 Z Z " fill="#036998" stroke="#FFFFFF" stroke-width="0.88565" stroke-linecap="butt" stroke-linejoin="miter"/>
        <path d="M 22.7322,18.5991 L 15.9421,17.7134 L 0,23.0274 L 13.8755,25.094 L 30.408,20.3704 L 25.6844,19.4847 Z " fill="#036998" stroke-width="1px" stroke="#036998"/>
        <path d="M 22.7322,18.5991 L 15.9421,17.7134 L 0,23.0274 L 13.8755,25.094 L 30.408,20.3704 L 25.6844,19.4847 " stroke="#FFFFFF" stroke-width="0.88565" stroke-linecap="butt" stroke-linejoin="miter" fill="none"/>
        <path d="M 23.9131,18.3038 C 18.8943,19.78 18.0086,20.9609 18.0086,20.9609 C 19.4847,21.8465 25.3892,19.4847 25.3892,19.4847 C 26.5701,19.1895 26.5701,19.1895 26.5701,19.1895 Z Z " fill="#036998" stroke="#FFFFFF" stroke-width="0.88565" stroke-linecap="butt" stroke-linejoin="miter"/>
        <path d="M 25.6844,19.4847 C 30.408,20.3704 30.408,20.3704 30.408,20.3704 C 13.8755,25.094 13.8755,25.094 13.8755,25.094 C 0,23.0274 0,23.0274 0,23.0274 C 15.9421,17.7134 15.9421,17.7134 15.9421,17.7134 C 22.7322,18.5991 22.7322,18.5991 22.7322,18.5991 C 18.8943,19.78 18.0086,20.9609 18.0086,20.9609 C 19.4847,21.8465 24.7987,19.78 24.7987,19.78 C 24.7987,19.78 24.7987,19.78 24.7987,19.78 C 29.5223,18.3038 29.5223,18.3038 29.5223,18.3038 C 29.5223,15.6468 29.5223,15.6468 29.5223,15.6468 C 23.3226,17.7134 23.3226,17.7134 23.3226,17.7134 C 23.3226,17.7134 23.3226,17.7134 23.3226,17.7134 C 23.3226,17.7134 23.0274,18.5991 23.0274,18.5991 Z " fill="#036998" stroke="none"/>
        <path d="M 25.6844,19.4847 C 30.408,20.3704 30.408,20.3704 30.408,20.3704 C 13.8755,25.094 13.8755,25.094 13.8755,25.094 C 0,23.0274 0,23.0274 0,23.0274 C 15.9421,17.7134 15.9421,17.7134 15.9421,17.7134 C 22.7322,18.5991 22.7322,18.5991 22.7322,18.5991 C 18.8943,19.78 18.0086,20.9609 18.0086,20.9609 C 19.4847,21.8465 24.7987,19.78 24.7987,19.78 C 24.7987,19.78 24.7987,19.78 24.7987,19.78 C 29.5223,18.3038 29.5223,18.3038 29.5223,18.3038 C 29.5223,15.6468 29.5223,15.6468 29.5223,15.6468 C 23.3226,17.7134 23.3226,17.7134 23.3226,17.7134 C 23.3226,17.7134 23.3226,17.7134 23.3226,17.7134 C 23.3226,17.7134 23.0274,18.5991 23.0274,18.5991 Z " stroke="#FFFFFF" stroke-width="0.88565" stroke-linecap="butt" stroke-linejoin="miter" fill="none"/>
        <path d="M 23.3226,18.5991 C 23.3226,18.5991 23.3226,18.8943 23.3226,18.8943 C 23.3226,18.8943 23.3226,18.8943 23.3226,18.8943 C 23.3226,18.8943 23.3226,18.8943 23.3226,18.8943 C 23.3226,18.8943 23.3226,18.5991 23.3226,18.5991 Z Z " fill="#036998" stroke="#FFFFFF" stroke-width="0.88565" stroke-linecap="butt" stroke-linejoin="miter"/>
        <path d="M 44.5787,24.7987 C 44.5787,5.0188 44.5787,5.0188 44.5787,5.0188 C 44.5787,3.2475 41.3312,1.77140000000003 37.1981,1.77140000000003 C 33.065,1.77140000000003 29.5223,3.2475 29.5223,5.0188 C 29.5223,24.7987 29.5223,24.7987 29.5223,24.7987 Z " fill="#036998" stroke="none"/>
        <path d="M 44.5787,24.7987 C 44.5787,5.0188 44.5787,5.0188 44.5787,5.0188 C 44.5787,3.2475 41.3312,1.77140000000003 37.1981,1.77140000000003 C 33.065,1.77140000000003 29.5223,3.2475 29.5223,5.0188 C 29.5223,24.7987 29.5223,24.7987 29.5223,24.7987 Z " stroke="#FFFFFF" stroke-width="0.88565" stroke-linecap="butt" stroke-linejoin="miter" fill="none"/>
        <path d="M 43.693,9.15190000000001 L 43.693,7.38060000000002 L 60.2255,1.47610000000003 L 74.9866,5.0188 L 74.9866,7.08539999999999 Z " fill="#036998" stroke-width="1px" stroke="#036998"/>
        <path d="M 43.693,9.15190000000001 L 43.693,7.38060000000002 L 60.2255,1.47610000000003 L 74.9866,5.0188 L 74.9866,7.08539999999999 " stroke="#FFFFFF" stroke-width="0.88565" stroke-linecap="butt" stroke-linejoin="miter" fill="none"/>
        <path d="M 49.007,10.0376 L 43.693,9.15190000000001 L 60.2255,3.83789999999999 L 74.9866,7.08539999999999 L 57.5685,12.1042 L 53.4354,11.2185 Z " fill="#036998" stroke-width="1px" stroke="#036998"/>
        <path d="M 49.007,10.0376 L 43.693,9.15190000000001 L 60.2255,3.83789999999999 L 74.9866,7.08539999999999 L 57.5685,12.1042 L 53.4354,11.2185 " stroke="#FFFFFF" stroke-width="0.88565" stroke-linecap="butt" stroke-linejoin="miter" fill="none"/>
        <path d="M 53.7306,11.2185 C 57.2733,10.3328 58.7494,8.56150000000002 58.7494,8.56150000000002 C 53.1401,8.56150000000002 49.3023,10.0376 49.3023,10.0376 Z " fill="#036998" stroke="none"/>
        <path d="M 53.7306,11.2185 C 57.2733,10.3328 58.7494,8.56150000000002 58.7494,8.56150000000002 C 53.1401,8.56150000000002 49.3023,10.0376 49.3023,10.0376 Z " stroke="#FFFFFF" stroke-width="0.88565" stroke-linecap="butt" stroke-linejoin="miter" fill="none"/>
        <path d="M 54.0258,11.2185 C 41.6265,14.7612 41.6265,14.7612 41.6265,14.7612 C 40.1503,14.7612 40.1503,13.2851 40.1503,13.2851 C 40.1503,12.3994 41.6265,12.1042 41.6265,12.1042 C 49.5975,10.0376 49.5975,10.0376 49.5975,10.0376 Z " fill="#036998" stroke="none"/>
        <path d="M 54.0258,11.2185 C 41.6265,14.7612 41.6265,14.7612 41.6265,14.7612 C 40.1503,14.7612 40.1503,13.2851 40.1503,13.2851 C 40.1503,12.3994 41.6265,12.1042 41.6265,12.1042 C 49.5975,10.0376 49.5975,10.0376 49.5975,10.0376 Z " stroke="#FFFFFF" stroke-width="0.88565" stroke-linecap="butt" stroke-linejoin="miter" fill="none"/>
        <path d="M 49.5975,10.0376 C 49.5975,10.0376 49.5975,10.0376 49.5975,10.0376 C 49.5975,10.0376 49.5975,10.0376 49.5975,10.0376 C 49.8927,10.0376 49.8927,10.0376 49.8927,10.0376 C 49.8927,10.0376 49.8927,10.0376 49.5975,10.0376 Z Z " fill="#036998" stroke="#FFFFFF" stroke-width="0.88565" stroke-linecap="butt" stroke-linejoin="miter"/>
        <path d="M 28.6366,30.1128 C 28.6366,28.3414 32.4745,26.8653 37.1981,26.8653 C 41.9217,26.8653 45.7596,28.3414 45.7596,30.1128 C 45.7596,25.3892 45.7596,25.3892 45.7596,25.3892 C 45.7596,23.3226 41.9217,21.8465 37.1981,21.8465 C 32.4745,21.8465 28.6366,23.3226 28.6366,25.3892 Z Z " fill="#036998" stroke="#FFFFFF" stroke-width="0.88565" stroke-linecap="butt" stroke-linejoin="miter"/>
        <path d="M 37.1981,26.8653 C 32.4745,26.8653 28.6366,28.3414 28.6366,30.1128 C 28.6366,31.8841 32.4745,33.6554 37.1981,33.6554 C 41.9217,33.6554 45.7596,31.8841 45.7596,30.1128 C 45.7596,28.3414 41.9217,26.8653 37.1981,26.8653 Z Z " fill="#036998" stroke="#FFFFFF" stroke-width="0.88565" stroke-linecap="butt" stroke-linejoin="miter"/>
        <path d="M 39.2647,31.5889 L 38.379,30.408 L 41.036,29.8175 L 40.4456,30.408 L 44.5787,30.9984 L 43.693,31.8841 L 39.5599,30.9984 L 39.2647,31.5889 Z " fill="#FFFFFF" stroke-width="1px" stroke="#FFFFFF"/>
        <path d="M 35.4268,28.9319 L 35.722,30.1128 L 33.3602,30.408 L 33.9507,30.1128 L 29.8175,29.5223 L 30.7032,28.6366 L 34.8363,29.5223 L 35.4268,28.9319 Z " fill="#FFFFFF" stroke-width="1px" stroke="#FFFFFF"/>
        <path d="M 36.6077,32.1793 L 33.9507,32.7698 L 33.9507,31.5889 L 34.5411,31.8841 L 36.0172,30.7032 L 37.1981,30.9984 L 35.722,31.8841 L 36.6077,32.1793 Z " fill="#FFFFFF" stroke-width="1px" stroke="#FFFFFF"/>
        <path d="M 37.7886,28.0462 L 40.4456,27.4558 L 40.4456,28.6366 L 39.8551,28.3414 L 38.379,29.5223 L 37.1981,29.5223 L 38.6742,28.0462 L 37.7886,28.0462 Z " fill="#FFFFFF" stroke-width="1px" stroke="#FFFFFF"/>
      </g>
      <!--emf-blob end-->
    </g>
  </g>
</svg>

