<svg xmlns="http://www.w3.org/2000/svg" xmlns:xlink="http://www.w3.org/1999/xlink" version="1.1" viewBox="0 0 90 159" >
  <title><![CDATA[Speaker]]></title>
  <g transform=" scale(3.000000) ">
    <!--converted by libvisio2svg-->
    <g>
      <!--emf-blob start-->
      <g>
        <path d="M 7.96870000000001,21.5449 C 5.60759999999999,22.1352 0,24.2011 0,27.1525 C 0,27.1525 0,27.1525 0,27.1525 C 0,30.1039 5.90280000000001,32.4649 8.26389999999998,33.0552 Z " fill="#126D99" stroke="none"/>
        <path d="M 7.96870000000001,21.5449 C 5.60759999999999,22.1352 0,24.2011 0,27.1525 C 0,27.1525 0,27.1525 0,27.1525 C 0,30.1039 5.90280000000001,32.4649 8.26389999999998,33.0552 Z " stroke="#FFFFFF" stroke-width="0.8854" stroke-linecap="butt" stroke-linejoin="miter" fill="none"/>
        <path d="M 20.9547,0.590199999999982 C 18.8888,0.590199999999982 10.9201,7.96859999999998 8.85409999999996,16.2324 C 7.67359999999996,20.0692 8.26389999999998,24.4963 8.26389999999998,28.0379 C 8.26389999999998,30.9893 7.67359999999996,34.2358 8.85409999999996,37.7774 C 10.9201,45.4509 19.1839,52.2391 21.545,52.2391 Z " fill="#126D99" stroke="none"/>
        <path d="M 20.9547,0.590199999999982 C 18.8888,0.590199999999982 10.9201,7.96859999999998 8.85409999999996,16.2324 C 7.67359999999996,20.0692 8.26389999999998,24.4963 8.26389999999998,28.0379 C 8.26389999999998,30.9893 7.67359999999996,34.2358 8.85409999999996,37.7774 C 10.9201,45.4509 19.1839,52.2391 21.545,52.2391 Z " stroke="#FFFFFF" stroke-width="0.8854" stroke-linecap="butt" stroke-linejoin="miter" fill="none"/>
        <path d="M 22.1353,52.5342 C 26.2672,52.5342 29.5137,40.7288 29.5137,26.2671 C 29.5137,11.8054 26.2672,0 22.1353,0 C 18.0034,0 14.7569,11.8054 14.7569,26.2671 C 14.7569,40.7288 18.0034,52.5342 22.1353,52.5342 Z Z " fill="#126D99" stroke="#FFFFFF" stroke-width="0.8854" stroke-linecap="butt" stroke-linejoin="miter"/>
        <path d="M 28.3331,22.7254 C 28.3331,21.5449 26.8574,20.9546 25.3818,20.9546 C 25.3818,20.9546 25.3818,20.9546 25.3818,20.9546 C 23.6109,20.9546 22.4304,19.7741 22.4304,21.5449 C 22.4304,32.1698 22.4304,32.1698 22.4304,32.1698 C 22.4304,33.9406 23.9061,32.4649 25.3818,32.4649 C 25.3818,32.4649 25.3818,32.4649 25.3818,32.4649 C 27.1526,32.4649 28.3331,31.5795 28.3331,30.6941 Z Z " fill="#126D99" stroke="#FFFFFF" stroke-width="0.8854" stroke-linecap="butt" stroke-linejoin="miter"/>
        <path d="M 17.4131,44.8607 C 22.1353,36.892 22.1353,36.892 22.1353,36.892 C 23.0207,35.4163 23.6109,37.1871 25.0866,38.0725 C 25.0866,38.0725 25.0866,38.0725 25.0866,38.0725 C 26.8574,38.9579 27.4477,40.4336 26.8574,41.6142 C 23.0207,48.1072 23.0207,48.1072 23.0207,48.1072 C 22.4304,48.9926 20.6596,48.9926 19.1839,48.1072 C 19.1839,48.1072 19.1839,48.1072 19.1839,48.1072 C 18.8888,48.1072 18.5936,47.812 18.2985,47.812 Z " fill="#126D99" stroke="none"/>
        <path d="M 17.4131,44.8607 C 22.1353,36.892 22.1353,36.892 22.1353,36.892 C 23.0207,35.4163 23.6109,37.1871 25.0866,38.0725 C 25.0866,38.0725 25.0866,38.0725 25.0866,38.0725 C 26.8574,38.9579 27.4477,40.4336 26.8574,41.6142 C 23.0207,48.1072 23.0207,48.1072 23.0207,48.1072 C 22.4304,48.9926 20.6596,48.9926 19.1839,48.1072 C 19.1839,48.1072 19.1839,48.1072 19.1839,48.1072 C 18.8888,48.1072 18.5936,47.812 18.2985,47.812 Z " stroke="#FFFFFF" stroke-width="0.8854" stroke-linecap="butt" stroke-linejoin="miter" fill="none"/>
        <path d="M 15.6423,37.4823 C 16.2325,38.3677 16.5277,38.9579 17.4131,38.9579 C 19.479,38.9579 21.545,33.6455 21.545,27.1525 C 21.545,20.6595 19.479,15.347 17.4131,15.347 C 16.5277,15.347 15.9374,16.2324 15.052,17.7081 Z " fill="#126D99" stroke="none"/>
        <path d="M 15.6423,37.4823 C 16.2325,38.3677 16.5277,38.9579 17.4131,38.9579 C 19.479,38.9579 21.545,33.6455 21.545,27.1525 C 21.545,20.6595 19.479,15.347 17.4131,15.347 C 16.5277,15.347 15.9374,16.2324 15.052,17.7081 Z " stroke="#FFFFFF" stroke-width="0.8854" stroke-linecap="butt" stroke-linejoin="miter" fill="none"/>
        <path d="M 15.052,33.0552 C 16.8228,33.0552 16.8228,33.0552 16.8228,33.0552 C 20.0693,33.0552 20.0693,30.399 20.0693,27.1525 C 20.0693,27.1525 20.0693,27.1525 20.0693,27.1525 C 20.0693,23.9059999999999 20.0693,21.2498 16.8228,21.2498 C 15.052,21.2498 15.052,21.2498 15.052,21.2498 Z " fill="#126D99" stroke="none"/>
        <path d="M 15.052,33.0552 C 16.8228,33.0552 16.8228,33.0552 16.8228,33.0552 C 20.0693,33.0552 20.0693,30.399 20.0693,27.1525 C 20.0693,27.1525 20.0693,27.1525 20.0693,27.1525 C 20.0693,23.9059999999999 20.0693,21.2498 16.8228,21.2498 C 15.052,21.2498 15.052,21.2498 15.052,21.2498 Z " stroke="#FFFFFF" stroke-width="0.8854" stroke-linecap="butt" stroke-linejoin="miter" fill="none"/>
        <path d="M 17.7082,6.78809999999999 C 22.1353,14.4616 22.1353,14.4616 22.1353,14.4616 C 23.0207,15.9373 23.6109,14.1665 25.0866,12.9859 C 25.0866,12.9859 25.0866,12.9859 25.0866,12.9859 C 26.8574,12.1005 27.4477,10.6249 26.8574,9.73939999999999 C 23.0207,2.9513 23.0207,2.9513 23.0207,2.9513 C 22.4304,2.0659 20.9547,2.0659 19.479,2.9513 Z " fill="#126D99" stroke="none"/>
        <path d="M 17.7082,6.78809999999999 C 22.1353,14.4616 22.1353,14.4616 22.1353,14.4616 C 23.0207,15.9373 23.6109,14.1665 25.0866,12.9859 C 25.0866,12.9859 25.0866,12.9859 25.0866,12.9859 C 26.8574,12.1005 27.4477,10.6249 26.8574,9.73939999999999 C 23.0207,2.9513 23.0207,2.9513 23.0207,2.9513 C 22.4304,2.0659 20.9547,2.0659 19.479,2.9513 Z " stroke="#FFFFFF" stroke-width="0.8854" stroke-linecap="butt" stroke-linejoin="miter" fill="none"/>
      </g>
      <!--emf-blob end-->
    </g>
  </g>
</svg>

