<svg xmlns="http://www.w3.org/2000/svg" xmlns:xlink="http://www.w3.org/1999/xlink" version="1.1" viewBox="0 0 156 114" >
  <title><![CDATA[SSC]]></title>
  <g transform=" scale(3.000000) ">
    <!--converted by libvisio2svg-->
    <g>
      <!--emf-blob start-->
      <g>
        <path d="M 49.9084,0 L 51.0897,1.77189999999996 L 46.9553,22.7393 L 45.4787,21.8534 L 49.9084,0 Z " fill="#0C719F" stroke="#FFFFFF" stroke-width="0.88595" stroke-linecap="butt" stroke-linejoin="miter"/>
        <path d="M 45.774,23.3299000000001 C 45.774,26.5784 45.774,26.5784 45.774,26.5784 C 44.8881,27.4644 44.8881,27.4644 44.8881,27.4644 C 44.8881,27.4644 42.8208,28.0550000000001 43.4115,28.9409000000001 C 34.552,37.2098 34.552,37.2098 34.552,37.2098 C 34.552,33.6660000000001 34.552,33.6660000000001 34.552,33.6660000000001 Z Z " fill="#0C719F" stroke="#FFFFFF" stroke-width="0.88595" stroke-linecap="butt" stroke-linejoin="miter"/>
        <path d="M 0,33.6660000000001 L 0,37.2098 L 34.552,37.2098 L 34.552,33.6660000000001 L 0,33.6660000000001 Z " fill="#0C719F" stroke-width="1px" stroke="#0C719F"/>
        <path d="M 0,33.6660000000001 L 0,37.2098 L 34.552,37.2098 L 34.552,33.6660000000001 L 0,33.6660000000001 " stroke="#FFFFFF" stroke-width="0.88595" stroke-linecap="butt" stroke-linejoin="miter" fill="none"/>
        <path d="M 13.8799,23.6253 L 45.774,23.3299000000001 L 34.552,33.6660000000001 L 0,33.6660000000001 L 13.8799,23.6253 Z " fill="#0C719F" stroke="#FFFFFF" stroke-width="0.88595" stroke-linecap="butt" stroke-linejoin="miter"/>
        <path d="M 45.4787,21.8534 L 49.9084,0 L 18.6049,0 L 13.5846,21.8534 L 45.4787,21.8534 Z " fill="#0C719F" stroke="#FFFFFF" stroke-width="0.88595" stroke-linecap="butt" stroke-linejoin="miter"/>
        <path d="M 42.8208,19.7862 L 46.3646,2.65780000000007 L 20.9675,2.65780000000007 L 17.1284,19.7862 L 42.8208,19.7862 Z " fill="#FFFFFF" stroke="#FFFFFF" stroke-width="0.88595" stroke-linecap="butt" stroke-linejoin="miter"/>
        <path d="M 14.4705,23.9206 L 6.49699999999996,30.4175 " stroke="#FFFFFF" stroke-width="0" stroke-linecap="butt" stroke-linejoin="round" fill="none"/>
        <path d="M 17.1284,23.9206 L 9.15479999999997,30.4175 " stroke="#FFFFFF" stroke-width="0" stroke-linecap="butt" stroke-linejoin="round" fill="none"/>
        <path d="M 19.7862,23.9206 L 11.8126999999999,30.4175 " stroke="#FFFFFF" stroke-width="0" stroke-linecap="butt" stroke-linejoin="round" fill="none"/>
        <path d="M 22.4441,23.9206 L 14.1752,30.4175 " stroke="#FFFFFF" stroke-width="0" stroke-linecap="butt" stroke-linejoin="round" fill="none"/>
        <path d="M 24.8066,23.9206 L 16.8331,30.4175 " stroke="#FFFFFF" stroke-width="0" stroke-linecap="butt" stroke-linejoin="round" fill="none"/>
        <path d="M 27.4644,23.9206 L 19.4909,30.4175 " stroke="#FFFFFF" stroke-width="0" stroke-linecap="butt" stroke-linejoin="round" fill="none"/>
        <path d="M 30.1223,23.9206 L 22.1487,30.4175 " stroke="#FFFFFF" stroke-width="0" stroke-linecap="butt" stroke-linejoin="round" fill="none"/>
        <path d="M 32.7801,23.9206 L 24.5113,30.4175 " stroke="#FFFFFF" stroke-width="0" stroke-linecap="butt" stroke-linejoin="round" fill="none"/>
        <path d="M 35.1426,23.9206 L 27.1691,30.4175 " stroke="#FFFFFF" stroke-width="0" stroke-linecap="butt" stroke-linejoin="round" fill="none"/>
        <path d="M 37.8005,23.9206 L 29.8269,30.4175 " stroke="#FFFFFF" stroke-width="0" stroke-linecap="butt" stroke-linejoin="round" fill="none"/>
        <path d="M 40.4583,23.9206 L 32.4848,30.4175 " stroke="#FFFFFF" stroke-width="0" stroke-linecap="butt" stroke-linejoin="round" fill="none"/>
        <path d="M 43.1162,23.9206 L 34.8473,30.4175 " stroke="#FFFFFF" stroke-width="0" stroke-linecap="butt" stroke-linejoin="round" fill="none"/>
        <path d="M 7.38289999999995,29.5316 L 36.0286,29.5316 " stroke="#FFFFFF" stroke-width="0" stroke-linecap="butt" stroke-linejoin="round" fill="none"/>
        <path d="M 9.4502,28.0550000000001 L 37.5052,28.0550000000001 " stroke="#FFFFFF" stroke-width="0" stroke-linecap="butt" stroke-linejoin="round" fill="none"/>
        <path d="M 11.2221,26.5784 L 39.5724,26.5784 " stroke="#FFFFFF" stroke-width="0" stroke-linecap="butt" stroke-linejoin="round" fill="none"/>
        <path d="M 12.9939,25.1018 L 41.3443,25.1018 " stroke="#FFFFFF" stroke-width="0" stroke-linecap="butt" stroke-linejoin="round" fill="none"/>
        <g transform=" scale(3.000000) ">
          <text font-family="Helvetica" fill="#000000" style="white-space:pre;" font-weight="700" text-anchor="start" x="0.0000" y="0.0000" font-size="7.0876"><![CDATA[SSC]]></text>
        </g>
        <g transform=" scale(3.000000) ">
</g>
      </g>
      <!--emf-blob end-->
    </g>
  </g>
</svg>

