<svg xmlns="http://www.w3.org/2000/svg" xmlns:xlink="http://www.w3.org/1999/xlink" version="1.1" viewBox="0 0 75 105" >
  <title><![CDATA[Standard host]]></title>
  <g transform=" scale(3.000000) ">
    <!--converted by libvisio2svg-->
    <g>
      <!--emf-blob start-->
      <g>
        <path d="M 18.5973,5.6087 L 0,5.6087 L 0,34.8329 L 18.5973,34.8329 Z " fill="#0E6F9C" stroke-width="1px" stroke="#0E6F9C"/>
        <path d="M 18.5973,5.6087 L 0,5.6087 L 0,34.8329 L 18.5973,34.8329 " stroke="#FFFFFF" stroke-width="0.8856" stroke-linecap="butt" stroke-linejoin="miter" fill="none"/>
        <path d="M 18.5973,34.8329 L 24.5012,28.929 L 24.5012,0 L 7.37989999999996,0 L 0,5.6087 L 18.5973,5.6087 L 18.5973,34.8329 Z " fill="#0E6F9C" stroke="#FFFFFF" stroke-width="0.8856" stroke-linecap="butt" stroke-linejoin="miter"/>
        <path d="M 18.5973,5.6087 L 24.5012,0 Z " fill="#0E6F9C" stroke-width="1px" stroke="#0E6F9C"/>
        <path d="M 18.5973,5.6087 L 24.5012,0 " stroke="#FFFFFF" stroke-width="0.8856" stroke-linecap="butt" stroke-linejoin="miter" fill="none"/>
        <path d="M 9.15109999999999,5.6087 L 9.15109999999999,34.8329 Z " fill="#0E6F9C" stroke-width="1px" stroke="#0E6F9C"/>
        <path d="M 9.15109999999999,5.6087 L 9.15109999999999,34.8329 " stroke="#FFFFFF" stroke-width="0.8856" stroke-linecap="butt" stroke-linejoin="miter" fill="none"/>
        <path d="M 9.44629999999995,5.6087 L 15.9405,0 Z " fill="#0E6F9C" stroke-width="1px" stroke="#0E6F9C"/>
        <path d="M 9.44629999999995,5.6087 L 15.9405,0 " stroke="#FFFFFF" stroke-width="0.8856" stroke-linecap="butt" stroke-linejoin="miter" fill="none"/>
        <path d="M 7.97029999999995,12.1029 L 7.97029999999995,8.2654 L 1.476,8.2654 L 1.476,12.1029 L 7.97029999999995,12.1029 Z " fill="#0E6F9C" stroke="#FFFFFF" stroke-width="0.8856" stroke-linecap="butt" stroke-linejoin="miter"/>
        <path d="M 16.8261,12.1029 L 16.8261,8.2654 L 10.627,8.2654 L 10.627,12.1029 L 16.8261,12.1029 Z " fill="#0E6F9C" stroke="#FFFFFF" stroke-width="0.8856" stroke-linecap="butt" stroke-linejoin="miter"/>
        <path d="M 7.97029999999995,26.2723 L 7.97029999999995,22.4347 L 1.476,22.4347 L 1.476,26.2723 L 7.97029999999995,26.2723 Z " fill="#0E6F9C" stroke="#FFFFFF" stroke-width="0.8856" stroke-linecap="butt" stroke-linejoin="miter"/>
        <path d="M 16.8261,26.2723 L 16.8261,22.4347 L 10.627,22.4347 L 10.627,26.2723 L 16.8261,26.2723 Z " fill="#0E6F9C" stroke="#FFFFFF" stroke-width="0.8856" stroke-linecap="butt" stroke-linejoin="miter"/>
        <path d="M 7.97029999999995,32.4713 L 7.97029999999995,28.6338 L 1.476,28.6338 L 1.476,32.4713 L 7.97029999999995,32.4713 Z " fill="#0E6F9C" stroke="#FFFFFF" stroke-width="0.8856" stroke-linecap="butt" stroke-linejoin="miter"/>
        <path d="M 16.8261,32.4713 L 16.8261,28.6338 L 10.627,28.6338 L 10.627,32.4713 L 16.8261,32.4713 Z " fill="#0E6F9C" stroke="#FFFFFF" stroke-width="0.8856" stroke-linecap="butt" stroke-linejoin="miter"/>
      </g>
      <!--emf-blob end-->
    </g>
  </g>
</svg>

