<svg xmlns="http://www.w3.org/2000/svg" xmlns:xlink="http://www.w3.org/1999/xlink" version="1.1" viewBox="0 0 39 108" >
  <title><![CDATA[Standing woman]]></title>
  <g transform=" scale(3.000000) ">
    <!--converted by libvisio2svg-->
    <g>
      <!--emf-blob start-->
      <g>
        <path d="M 0,18.8673 C 2.94799999999998,18.8673 2.94799999999998,18.8673 2.94799999999998,18.8673 C 0.884399999999971,26.827 0.884399999999971,26.827 0.884399999999971,26.827 C 3.24279999999999,26.827 3.24279999999999,26.827 3.24279999999999,26.827 C 2.94799999999998,35.0814 2.94799999999998,35.0814 2.94799999999998,35.0814 C 4.12720000000002,35.0814 4.12720000000002,35.0814 4.12720000000002,35.0814 C 5.89600000000002,26.827 5.89600000000002,26.827 5.89600000000002,26.827 C 7.0752,26.827 7.0752,26.827 7.0752,26.827 C 9.13889999999998,35.0814 9.13889999999998,35.0814 9.13889999999998,35.0814 C 10.3181,35.0814 10.3181,35.0814 10.3181,35.0814 C 10.0233,26.827 10.0233,26.827 10.0233,26.827 C 12.0869,26.827 12.0869,26.827 12.0869,26.827 C 10.0233,18.8673 10.0233,18.8673 10.0233,18.8673 C 10.6129,18.8673 12.3817,18.8673 12.9713,18.8673 C 12.3817,14.7401 12.3817,14.7401 12.3817,14.7401 C 12.3817,13.8557 11.7921,10.318 11.4973,9.43360000000001 C 11.2025,8.84399999999999 9.7285,7.66480000000001 8.84399999999999,7.37 C 8.25439999999998,7.0752 6.78039999999999,7.0752 5.89600000000002,7.0752 C 5.01159999999999,7.0752 4.12720000000002,7.37 3.24279999999999,7.66480000000001 C 2.65319999999997,7.66480000000001 1.7688,8.84399999999999 1.47399999999999,9.43360000000001 C 1.47399999999999,10.318 0.884399999999971,12.3816 0.884399999999971,13.2661 Z Z " fill="#036A99" stroke="none"/>
        <path d="M 8.25439999999998,7.0752 C 7.66480000000001,7.0752 7.37,7.0752 6.78039999999999,7.0752 C 6.48559999999998,7.0752 5.60120000000001,7.0752 5.3064,7.0752 C 5.01159999999999,7.37 4.12720000000002,7.37 4.12720000000002,7.37 C 4.12720000000002,7.37 3.83240000000001,7.37 3.83240000000001,7.37 C 6.48559999999998,11.792 6.48559999999998,11.792 6.48559999999998,11.792 C 8.84399999999999,7.37 8.84399999999999,7.37 8.84399999999999,7.37 C 8.84399999999999,7.0752 8.54919999999998,7.37 8.54919999999998,7.0752 Z " fill="#FFFFFF" stroke="none"/>
        <path d="M 8.25439999999998,7.0752 C 7.66480000000001,7.0752 7.37,7.0752 6.78039999999999,7.0752 C 6.48559999999998,7.0752 5.60120000000001,7.0752 5.3064,7.0752 C 5.01159999999999,7.37 4.12720000000002,7.37 4.12720000000002,7.37 C 4.12720000000002,7.37 3.83240000000001,7.37 3.83240000000001,7.37 C 6.48559999999998,11.792 6.48559999999998,11.792 6.48559999999998,11.792 C 8.84399999999999,7.37 8.84399999999999,7.37 8.84399999999999,7.37 C 8.84399999999999,7.0752 8.54919999999998,7.37 8.54919999999998,7.0752 Z " stroke="#FFFFFF" stroke-width="0" stroke-linecap="butt" stroke-linejoin="miter" fill="none"/>
        <path d="M 6.48559999999998,7.0752 C 8.25439999999998,7.0752 9.7285,5.3064 9.7285,3.5376 C 9.7285,1.47399999999999 8.25439999999998,0 6.48559999999998,0 C 4.42199999999997,0 2.94799999999998,1.47399999999999 2.94799999999998,3.5376 C 2.94799999999998,5.3064 4.42199999999997,7.0752 6.48559999999998,7.0752 Z Z " stroke="#036A99" stroke-width="0.8844" stroke-linecap="butt" stroke-linejoin="miter" fill="none"/>
        <path d="M 3.83240000000001,5.89599999999996 L 3.83240000000001,5.89599999999996 Z " fill="#036A99" stroke-width="1px" stroke="#036A99"/>
        <path d="M 3.83240000000001,5.89599999999996 L 3.83240000000001,5.89599999999996 " stroke="#036A99" stroke-width="0.8844" stroke-linecap="round" stroke-linejoin="round" fill="none"/>
        <path d="M 2.94799999999998,2.94799999999998 C 2.94799999999998,2.94799999999998 2.06360000000001,5.60120000000001 0.884399999999971,5.3064 C 0.884399999999971,5.3064 2.35840000000002,6.48559999999998 3.83240000000001,5.89599999999996 Z " fill="#036A99" stroke="none"/>
        <path d="M 2.94799999999998,2.94799999999998 C 2.94799999999998,2.94799999999998 2.06360000000001,5.60120000000001 0.884399999999971,5.3064 C 0.884399999999971,5.3064 2.35840000000002,6.48559999999998 3.83240000000001,5.89599999999996 Z " stroke="#036A99" stroke-width="0.8844" stroke-linecap="round" stroke-linejoin="round" fill="none"/>
        <path d="M 10.0233,2.94799999999998 C 10.0233,2.94799999999998 10.6129,5.60120000000001 12.0869,5.3064 C 12.0869,5.3064 10.3181,6.48559999999998 8.84399999999999,5.89599999999996 Z " fill="#036A99" stroke="none"/>
        <path d="M 10.0233,2.94799999999998 C 10.0233,2.94799999999998 10.6129,5.60120000000001 12.0869,5.3064 C 12.0869,5.3064 10.3181,6.48559999999998 8.84399999999999,5.89599999999996 Z " stroke="#036A99" stroke-width="0.8844" stroke-linecap="round" stroke-linejoin="round" fill="none"/>
        <path d="M 8.84399999999999,1.17919999999998 C 8.25439999999998,1.7688 7.37,2.06360000000001 6.19080000000002,2.06360000000001 C 5.3064,2.06360000000001 4.42199999999997,1.7688 3.83240000000001,1.17919999999998 Z " fill="#036A99" stroke="none"/>
        <path d="M 8.84399999999999,1.17919999999998 C 8.25439999999998,1.7688 7.37,2.06360000000001 6.19080000000002,2.06360000000001 C 5.3064,2.06360000000001 4.42199999999997,1.7688 3.83240000000001,1.17919999999998 Z " stroke="#036A99" stroke-width="0.8844" stroke-linecap="round" stroke-linejoin="round" fill="none"/>
        <path d="M 8.84399999999999,1.17919999999998 C 8.25439999999998,0.589599999999962 7.37,0 6.48559999999998,0 C 5.3064,0 4.42199999999997,0.589599999999962 3.83240000000001,1.17919999999998 C 4.42199999999997,1.7688 5.3064,2.06360000000001 6.19080000000002,2.06360000000001 C 7.37,2.06360000000001 8.25439999999998,1.7688 8.84399999999999,1.17919999999998 Z Z " fill="#036A99" stroke="#036A99" stroke-width="0.8844" stroke-linecap="round" stroke-linejoin="round"/>
      </g>
      <!--emf-blob end-->
    </g>
  </g>
</svg>

