<svg xmlns="http://www.w3.org/2000/svg" xmlns:xlink="http://www.w3.org/1999/xlink" version="1.1" viewBox="0 0 39 108" >
  <title><![CDATA[Standing man]]></title>
  <g transform=" scale(3.000000) ">
    <!--converted by libvisio2svg-->
    <g>
      <!--emf-blob start-->
      <g>
        <path d="M 0,19.7518 C 2.94799999999998,19.7518 2.94799999999998,19.7518 2.94799999999998,19.7518 C 0,35.0815 0,35.0815 0,35.0815 C 4.12720000000002,35.0815 4.12720000000002,35.0815 4.12720000000002,35.0815 C 6.48559999999998,23.879 6.48559999999998,23.879 6.48559999999998,23.879 C 6.48559999999998,23.879 7.95959999999997,32.7231 8.54919999999998,35.0815 C 9.1388,35.0815 11.4972,35.0815 12.6765,35.0815 C 12.3816,33.9023 10.318,20.931 10.0232,19.7518 C 10.6128,19.7518 12.3816,19.7518 12.9713,19.7518 C 12.9713,19.1622 12.3816,15.6245 12.3816,14.7401 C 12.3816,13.8557 11.792,10.3181 11.4972,9.43369999999999 C 11.2024,8.54930000000002 9.72840000000002,7.66489999999999 9.1388,7.37010000000004 C 8.25439999999998,7.07530000000003 6.78039999999999,7.07530000000003 5.89600000000002,7.07530000000003 C 5.01159999999999,7.07530000000003 4.12720000000002,7.37010000000004 3.24279999999999,7.66489999999999 C 2.65319999999997,7.66489999999999 1.7688,8.84410000000003 1.47399999999999,9.43369999999999 C 1.47399999999999,10.0233 1.17919999999998,12.0869 0.884399999999971,13.2661 C 0.589600000000019,14.1505 0.589600000000019,17.983 0.294800000000009,18.5726 C 0,19.1622 0,19.7518 0,19.7518 Z Z " fill="#126D99" stroke="none"/>
        <path d="M 8.25439999999998,7.07530000000003 C 7.95959999999997,7.07530000000003 7.37,7.07530000000003 6.78039999999999,7.07530000000003 C 6.48559999999998,7.07530000000003 5.60120000000001,7.07530000000003 5.3064,7.07530000000003 C 5.01159999999999,7.07530000000003 4.12720000000002,7.37010000000004 4.12720000000002,7.37010000000004 C 4.12720000000002,7.37010000000004 3.83240000000001,7.37010000000004 3.83240000000001,7.37010000000004 C 5.89600000000002,14.4453 5.89600000000002,14.4453 5.89600000000002,14.4453 C 8.84399999999999,7.37010000000004 8.84399999999999,7.37010000000004 8.84399999999999,7.37010000000004 C 8.84399999999999,7.07530000000003 8.54919999999998,7.37010000000004 8.54919999999998,7.07530000000003 Z " fill="#FFFFFF" stroke="none"/>
        <path d="M 8.25439999999998,7.07530000000003 C 7.95959999999997,7.07530000000003 7.37,7.07530000000003 6.78039999999999,7.07530000000003 C 6.48559999999998,7.07530000000003 5.60120000000001,7.07530000000003 5.3064,7.07530000000003 C 5.01159999999999,7.07530000000003 4.12720000000002,7.37010000000004 4.12720000000002,7.37010000000004 C 4.12720000000002,7.37010000000004 3.83240000000001,7.37010000000004 3.83240000000001,7.37010000000004 C 5.89600000000002,14.4453 5.89600000000002,14.4453 5.89600000000002,14.4453 C 8.84399999999999,7.37010000000004 8.84399999999999,7.37010000000004 8.84399999999999,7.37010000000004 C 8.84399999999999,7.07530000000003 8.54919999999998,7.37010000000004 8.54919999999998,7.07530000000003 Z " stroke="#FFFFFF" stroke-width="0.4422" stroke-linecap="butt" stroke-linejoin="miter" fill="none"/>
        <path d="M 6.48559999999998,7.07530000000003 C 8.25439999999998,7.07530000000003 10.0232,5.30650000000003 10.0232,3.5376 C 10.0232,1.47399999999999 8.25439999999998,0 6.48559999999998,0 C 4.42199999999997,0 2.94799999999998,1.47399999999999 2.94799999999998,3.5376 C 2.94799999999998,5.30650000000003 4.42199999999997,7.07530000000003 6.48559999999998,7.07530000000003 Z Z " fill="#FFFFFF" stroke="#126D99" stroke-width="0.8844" stroke-linecap="butt" stroke-linejoin="miter"/>
      </g>
      <!--emf-blob end-->
    </g>
  </g>
</svg>

