<svg xmlns="http://www.w3.org/2000/svg" xmlns:xlink="http://www.w3.org/1999/xlink" version="1.1" viewBox="0 0 147 63" >
  <title><![CDATA[STB]]></title>
  <g transform=" scale(3.000000) ">
    <!--converted by libvisio2svg-->
    <g>
      <!--emf-blob start-->
      <g>
        <path d="M 41.3385,20.374 C 48.4251,10.6299 48.4251,10.6299 48.4251,10.6299 C 48.4251,3.54329999999999 48.4251,3.54329999999999 48.4251,3.54329999999999 C 48.4251,1.77169999999995 46.9487,0 44.8818,0 C 9.15350000000001,0 9.15350000000001,0 9.15350000000001,0 C 7.3818,0 6.79130000000004,1.47639999999996 5.61020000000002,2.65749999999997 C 0.295200000000023,8.26769999999999 0.295200000000023,8.26769999999999 0.295200000000023,8.26769999999999 Z " fill="#126D99" stroke="none"/>
        <path d="M 41.3385,20.374 C 48.4251,10.6299 48.4251,10.6299 48.4251,10.6299 C 48.4251,3.54329999999999 48.4251,3.54329999999999 48.4251,3.54329999999999 C 48.4251,1.77169999999995 46.9487,0 44.8818,0 C 9.15350000000001,0 9.15350000000001,0 9.15350000000001,0 C 7.3818,0 6.79130000000004,1.47639999999996 5.61020000000002,2.65749999999997 C 0.295200000000023,8.26769999999999 0.295200000000023,8.26769999999999 0.295200000000023,8.26769999999999 Z " stroke="#FFFFFF" stroke-width="0.8858" stroke-linecap="butt" stroke-linejoin="miter" fill="none"/>
        <path d="M 42.5196,17.7165 C 42.5196,19.4882 41.0432,20.9646 38.9763,20.9646 C 3.24799999999999,20.9646 3.24799999999999,20.9646 3.24799999999999,20.9646 C 1.47630000000004,20.9646 0,19.4882 0,17.7165 C 0,10.6299 0,10.6299 0,10.6299 C 0,8.85829999999999 1.47630000000004,7.08659999999998 3.24799999999999,7.08659999999998 C 38.9763,7.08659999999998 38.9763,7.08659999999998 38.9763,7.08659999999998 C 41.0432,7.08659999999998 42.5196,8.85829999999999 42.5196,10.6299 Z Z " fill="#126D99" stroke="#FFFFFF" stroke-width="0.8858" stroke-linecap="butt" stroke-linejoin="miter"/>
        <path d="M 30.7086,14.1732 L 12.6968,14.1732 L 12.6968,8.26769999999999 L 30.7086,8.26769999999999 L 30.7086,14.1732 Z " fill="#126D99" stroke="#FFFFFF" stroke-width="0.8858" stroke-linecap="butt" stroke-linejoin="miter"/>
        <path d="M 34.8424,10.6299 C 34.8424,11.2205 34.2519,11.811 33.6613,11.811 C 33.0708,11.811 32.7755,11.2205 32.7755,10.6299 C 32.7755,10.0394 33.0708,9.44880000000001 33.6613,9.44880000000001 C 34.2519,9.44880000000001 34.8424,10.0394 34.8424,10.6299 Z Z " fill="#0E6A98" stroke="#FFFFFF" stroke-width="0.8858" stroke-linecap="butt" stroke-linejoin="miter"/>
        <path d="M 34.8424,13.5827 C 34.8424,14.1732 34.2519,14.7638 33.6613,14.7638 C 33.0708,14.7638 32.7755,14.1732 32.7755,13.5827 C 32.7755,12.9921 33.0708,12.6969 33.6613,12.6969 C 34.2519,12.6969 34.8424,12.9921 34.8424,13.5827 Z Z " fill="#0E6A98" stroke="#FFFFFF" stroke-width="0.8858" stroke-linecap="butt" stroke-linejoin="miter"/>
        <path d="M 34.8424,16.8307 C 34.8424,17.4213 34.2519,18.0118 33.6613,18.0118 C 33.0708,18.0118 32.7755,17.4213 32.7755,16.8307 C 32.7755,16.2402 33.0708,15.6496 33.6613,15.6496 C 34.2519,15.6496 34.8424,16.2402 34.8424,16.8307 Z Z " fill="#0E6A98" stroke="#FFFFFF" stroke-width="0.8858" stroke-linecap="butt" stroke-linejoin="miter"/>
        <path d="M 27.4605,17.7165 C 27.4605,18.6024 25.0983,19.4882 22.1456,19.4882 C 19.4881,19.4882 17.1259,18.6024 17.1259,17.7165 C 17.1259,17.126 19.4881,16.2402 22.1456,16.2402 C 25.0983,16.2402 27.4605,17.126 27.4605,17.7165 Z Z " fill="#126D99" stroke="#FFFFFF" stroke-width="0.8858" stroke-linecap="butt" stroke-linejoin="miter"/>
      </g>
      <!--emf-blob end-->
    </g>
  </g>
</svg>

