<svg xmlns="http://www.w3.org/2000/svg" xmlns:xlink="http://www.w3.org/1999/xlink" version="1.1" viewBox="0 0 117 87" >
  <title><![CDATA[Storage router]]></title>
  <g transform=" scale(3.000000) ">
    <!--converted by libvisio2svg-->
    <g>
      <!--emf-blob start-->
      <g>
        <path d="M 28.9233,18.5936 L 28.9233,9.44439999999997 L 0,9.44439999999997 L 0,18.5936 L 28.9233,18.5936 Z " fill="#0E6F9C" stroke-width="1px" stroke="#0E6F9C"/>
        <path d="M 0,9.44439999999997 L 11.5103,0 L 38.3677,0 L 28.9233,9.44439999999997 L 0,9.44439999999997 Z " fill="#0E6F9C" stroke-width="1px" stroke="#0E6F9C"/>
        <path d="M 28.9233,18.8887 L 38.3677,9.14920000000001 L 38.3677,0 L 28.9233,9.44439999999997 L 28.9233,18.8887 Z " fill="#0E6F9C" stroke-width="1px" stroke="#0E6F9C"/>
        <path d="M 28.9233,28.6282 L 28.9233,18.5936 L 0,18.5936 L 0,28.6282 L 28.9233,28.6282 Z " fill="#0E6F9C" stroke-width="1px" stroke="#0E6F9C"/>
        <path d="M 28.9233,28.9234 L 38.3677,19.1839 L 38.3677,9.14920000000001 L 28.9233,18.5936 L 28.9233,28.9234 Z " fill="#0E6F9C" stroke-width="1px" stroke="#0E6F9C"/>
        <path d="M 28.9233,18.5936 L 28.9233,9.44439999999997 L 0,9.44439999999997 L 0,18.5936 L 28.9233,18.5936 Z " fill="#0E6F9C" stroke="#FFFFFF" stroke-width="0.4427" stroke-linecap="butt" stroke-linejoin="miter"/>
        <path d="M 0,9.44439999999997 L 11.5103,0 L 38.3677,0 L 28.9233,9.44439999999997 L 0,9.44439999999997 Z " fill="#0E6F9C" stroke="#FFFFFF" stroke-width="0.4427" stroke-linecap="butt" stroke-linejoin="miter"/>
        <path d="M 28.9233,18.8887 L 38.3677,9.14920000000001 L 38.3677,0 L 28.9233,9.44439999999997 L 28.9233,18.8887 Z " fill="#0E6F9C" stroke="#FFFFFF" stroke-width="0.4427" stroke-linecap="butt" stroke-linejoin="miter"/>
        <path d="M 28.9233,28.6282 L 28.9233,18.5936 L 0,18.5936 L 0,28.6282 L 28.9233,28.6282 Z " fill="#0E6F9C" stroke="#FFFFFF" stroke-width="0.4427" stroke-linecap="butt" stroke-linejoin="miter"/>
        <path d="M 28.9233,28.9234 L 38.3677,19.1839 L 38.3677,9.14920000000001 L 28.9233,18.5936 L 28.9233,28.9234 Z " fill="#0E6F9C" stroke="#FFFFFF" stroke-width="0.4427" stroke-linecap="butt" stroke-linejoin="miter"/>
        <path d="M 28.9233,18.5936 L 28.9233,9.44439999999997 L 0,9.44439999999997 L 0,18.5936 L 28.9233,18.5936 Z " fill="none" stroke="#FFFFFF" stroke-width="0.4427" stroke-linecap="butt" stroke-linejoin="miter"/>
        <path d="M 0,9.44439999999997 L 11.5103,0 L 38.3677,0 L 28.9233,9.44439999999997 L 0,9.44439999999997 Z " fill="none" stroke="#FFFFFF" stroke-width="0.4427" stroke-linecap="butt" stroke-linejoin="miter"/>
        <path d="M 28.9233,18.8887 L 38.3677,9.14920000000001 L 38.3677,0 L 28.9233,9.44439999999997 L 28.9233,18.8887 Z " fill="none" stroke="#FFFFFF" stroke-width="0.4427" stroke-linecap="butt" stroke-linejoin="miter"/>
        <path d="M 28.9233,28.6282 L 28.9233,18.5936 L 0,18.5936 L 0,28.6282 L 28.9233,28.6282 Z " fill="none" stroke="#FFFFFF" stroke-width="0.4427" stroke-linecap="butt" stroke-linejoin="miter"/>
        <path d="M 28.9233,28.9234 L 38.3677,19.1839 L 38.3677,9.14920000000001 L 28.9233,18.5936 L 28.9233,28.9234 Z " fill="none" stroke="#FFFFFF" stroke-width="0.4427" stroke-linecap="butt" stroke-linejoin="miter"/>
        <path d="M 28.9233,18.5936 L 28.9233,9.44439999999997 L 0,9.44439999999997 L 0,18.5936 L 28.9233,18.5936 Z " fill="#0E6F9C" stroke-width="1px" stroke="#0E6F9C"/>
        <path d="M 0,9.44439999999997 L 11.5103,0 L 38.3677,0 L 28.9233,9.44439999999997 L 0,9.44439999999997 Z " fill="#0E6F9C" stroke-width="1px" stroke="#0E6F9C"/>
        <path d="M 28.9233,18.8887 L 38.3677,9.14920000000001 L 38.3677,0 L 28.9233,9.44439999999997 L 28.9233,18.8887 Z " fill="#0E6F9C" stroke-width="1px" stroke="#0E6F9C"/>
        <path d="M 28.9233,28.6282 L 28.9233,18.5936 L 0,18.5936 L 0,28.6282 L 28.9233,28.6282 Z " fill="#0E6F9C" stroke-width="1px" stroke="#0E6F9C"/>
        <path d="M 28.9233,28.9234 L 38.3677,19.1839 L 38.3677,9.14920000000001 L 28.9233,18.5936 L 28.9233,28.9234 Z " fill="#0E6F9C" stroke-width="1px" stroke="#0E6F9C"/>
        <path d="M 28.9233,18.5936 L 28.9233,9.44439999999997 L 0,9.44439999999997 L 0,18.5936 L 28.9233,18.5936 Z " fill="#0E6F9C" stroke="#FFFFFF" stroke-width="0.4427" stroke-linecap="butt" stroke-linejoin="miter"/>
        <path d="M 0,9.44439999999997 L 11.5103,0 L 38.3677,0 L 28.9233,9.44439999999997 L 0,9.44439999999997 Z " fill="#0E6F9C" stroke="#FFFFFF" stroke-width="0.4427" stroke-linecap="butt" stroke-linejoin="miter"/>
        <path d="M 28.9233,18.8887 L 38.3677,9.14920000000001 L 38.3677,0 L 28.9233,9.44439999999997 L 28.9233,18.8887 Z " fill="#0E6F9C" stroke="#FFFFFF" stroke-width="0.4427" stroke-linecap="butt" stroke-linejoin="miter"/>
        <path d="M 28.9233,28.6282 L 28.9233,18.5936 L 0,18.5936 L 0,28.6282 L 28.9233,28.6282 Z " fill="#0E6F9C" stroke="#FFFFFF" stroke-width="0.4427" stroke-linecap="butt" stroke-linejoin="miter"/>
        <path d="M 28.9233,28.9234 L 38.3677,19.1839 L 38.3677,9.14920000000001 L 28.9233,18.5936 L 28.9233,28.9234 Z " fill="#0E6F9C" stroke="#FFFFFF" stroke-width="0.4427" stroke-linecap="butt" stroke-linejoin="miter"/>
        <path d="M 28.9233,18.5936 L 28.9233,9.44439999999997 L 0,9.44439999999997 L 0,18.5936 L 28.9233,18.5936 Z " fill="none" stroke="#FFFFFF" stroke-width="0.4427" stroke-linecap="butt" stroke-linejoin="miter"/>
        <path d="M 0,9.44439999999997 L 11.5103,0 L 38.3677,0 L 28.9233,9.44439999999997 L 0,9.44439999999997 Z " fill="none" stroke="#FFFFFF" stroke-width="0.4427" stroke-linecap="butt" stroke-linejoin="miter"/>
        <path d="M 28.9233,18.8887 L 38.3677,9.14920000000001 L 38.3677,0 L 28.9233,9.44439999999997 L 28.9233,18.8887 Z " fill="none" stroke="#FFFFFF" stroke-width="0.4427" stroke-linecap="butt" stroke-linejoin="miter"/>
        <path d="M 28.9233,28.6282 L 28.9233,18.5936 L 0,18.5936 L 0,28.6282 L 28.9233,28.6282 Z " fill="none" stroke="#FFFFFF" stroke-width="0.4427" stroke-linecap="butt" stroke-linejoin="miter"/>
        <path d="M 28.9233,28.9234 L 38.3677,19.1839 L 38.3677,9.14920000000001 L 28.9233,18.5936 L 28.9233,28.9234 Z " fill="none" stroke="#FFFFFF" stroke-width="0.4427" stroke-linecap="butt" stroke-linejoin="miter"/>
        <path d="M 20.6595,4.13189999999997 L 22.4303,4.42699999999996 L 27.4476,3.24649999999997 L 29.2184,3.54160000000002 L 28.333,2.36109999999996 L 22.4303,2.36109999999996 L 25.0865,2.65620000000001 L 20.6595,4.13189999999997 L 20.6595,4.13189999999997 Z " fill="#FFFFFF" stroke-width="1px" stroke="#FFFFFF"/>
        <path d="M 10.6249,2.65620000000001 L 12.3957,2.36109999999996 L 17.1179,3.54160000000002 L 18.8887,3.24649999999997 L 18.0033,4.42699999999996 L 12.3957,4.42699999999996 L 15.0519,4.13189999999997 L 10.6249,2.65620000000001 L 10.6249,2.65620000000001 Z " fill="#FFFFFF" stroke-width="1px" stroke="#FFFFFF"/>
        <path d="M 28.6282,7.08330000000001 L 26.8574,7.67349999999999 L 22.4303,6.1979 L 20.3644,6.78809999999999 L 21.2498,5.3125 L 26.8574,5.3125 L 24.7914,5.90269999999998 L 28.6282,7.08330000000001 L 28.6282,7.08330000000001 Z " fill="#FFFFFF" stroke-width="1px" stroke="#FFFFFF"/>
        <path d="M 18.5935,5.90269999999998 L 16.8227,5.3125 L 12.3957,6.78809999999999 L 10.0346,6.1979 L 10.92,7.67349999999999 L 16.8227,7.67349999999999 L 14.1665,7.08330000000001 L 18.5935,5.90269999999998 L 18.5935,5.90269999999998 Z " fill="#FFFFFF" stroke-width="1px" stroke="#FFFFFF"/>
        <path d="M 14.4616,17.413 C 16.5276,17.413 18.0033,16.8228 18.0033,16.2325 C 18.0033,15.6422 16.5276,15.3471 14.4616,15.3471 C 12.6908,15.3471 10.92,15.6422 10.92,16.2325 C 10.92,16.8228 12.6908,17.413 14.4616,17.413 Z Z " fill="#FFFFFF" stroke="#000000" stroke-width="0.4427" stroke-linecap="round" stroke-linejoin="round"/>
        <path d="M 18.0033,11.5103 C 18.0033,12.1006 16.5276,12.3957 14.4616,12.3957 C 12.6908,12.3957 10.92,12.1006 10.92,11.5103 C 10.92,15.9374 10.92,15.9374 10.92,15.9374 C 10.92,16.5276 12.6908,16.8228 14.4616,16.8228 C 16.5276,16.8228 18.0033,16.5276 18.0033,15.9374 Z Z " fill="#FFFFFF" stroke="#000000" stroke-width="0.4427" stroke-linecap="round" stroke-linejoin="round"/>
        <path d="M 14.4616,12.3957 C 16.5276,12.3957 18.0033,12.1006 18.0033,11.5103 C 18.0033,10.92 16.5276,10.3298 14.4616,10.3298 C 12.6908,10.3298 10.92,10.92 10.92,11.5103 C 10.92,12.1006 12.6908,12.3957 14.4616,12.3957 Z Z " fill="#FFFFFF" stroke="#000000" stroke-width="0.4427" stroke-linecap="round" stroke-linejoin="round"/>
        <path d="M 0,18.5936 L 28.9233,18.5936 " stroke="#FFFFFF" stroke-width="0.4427" stroke-linecap="round" stroke-linejoin="round" fill="none"/>
        <path d="M 11.2151,23.3158 L 5.90269999999998,23.3158 L 5.90269999999998,23.0206 L 3.83670000000001,23.6109 L 5.90269999999998,24.2012 L 5.90269999999998,23.906 L 11.2151,23.906 L 11.2151,23.3158 Z " fill="#FFFFFF" stroke-width="1px" stroke="#FFFFFF"/>
        <path d="M 14.1665,24.7914 L 14.1665,26.8574 L 12.6908,26.8574 L 14.7568,27.4477 L 16.8227,26.8574 L 15.347,26.8574 L 15.347,24.7914 L 14.1665,24.7914 Z " fill="#FFFFFF" stroke-width="1px" stroke="#FFFFFF"/>
        <path d="M 14.1665,22.4304 L 14.1665,20.3644 L 12.6908,20.3644 L 14.7568,19.7741 L 16.8227,20.3644 L 15.347,20.3644 L 15.347,22.4304 L 14.1665,22.4304 Z " fill="#FFFFFF" stroke-width="1px" stroke="#FFFFFF"/>
        <path d="M 18.5935,23.906 L 23.906,23.906 L 23.906,24.2012 L 25.9719,23.6109 L 23.906,23.0206 L 23.906,23.3158 L 18.5935,23.3158 L 18.5935,23.906 Z " fill="#FFFFFF" stroke-width="1px" stroke="#FFFFFF"/>
        <path d="M 23.3157,26.5623 C 22.4303,27.1525 17.7081,25.972 12.9859,24.4963 C 8.55889999999999,22.7255 5.31240000000003,20.9547 6.49290000000002,20.6595 C 7.3784,20.3644 12.1005,21.2498 16.8227,23.0206 C 21.5449,24.7914 24.4963,26.2671 23.3157,26.5623 Z Z " stroke="#FFFFFF" stroke-width="0.4427" stroke-linecap="butt" stroke-linejoin="miter" fill="none"/>
        <path d="M 23.3157,20.6595 C 24.2011,20.9547 21.2498,22.7255 16.5276,24.2012 C 12.1005,25.972 7.3784,27.1525 6.19780000000003,26.5623 C 5.31240000000003,26.2671 8.2638,24.7914 12.6908,23.0206 C 17.413,21.2498 22.1352,20.3644 23.3157,20.6595 Z Z " stroke="#FFFFFF" stroke-width="0.4427" stroke-linecap="butt" stroke-linejoin="miter" fill="none"/>
        <path d="M 17.1179,24.7914 C 18.8887,24.2012 19.1838,23.3158 18.0033,22.7255 C 16.8227,22.1352 14.1665,22.1352 12.3957,22.4304 C 10.6249,23.0206 10.3297,23.6109 11.5103,24.4963 C 12.6908,25.0866 15.347,25.0866 17.1179,24.7914 Z Z " fill="#82B1C7" stroke="#FFFFFF" stroke-width="0.4427" stroke-linecap="butt" stroke-linejoin="miter"/>
      </g>
      <!--emf-blob end-->
    </g>
  </g>
</svg>

