<svg xmlns="http://www.w3.org/2000/svg" xmlns:xlink="http://www.w3.org/1999/xlink" version="1.1" viewBox="0 0 93 141" >
  <title><![CDATA[Storge server]]></title>
  <g transform=" scale(3.000000) ">
    <!--converted by libvisio2svg-->
    <g>
      <!--emf-blob start-->
      <g>
        <path d="M 24.7994,5.90460000000002 L 6.7903,5.90460000000002 L 6.7903,46.3512 L 24.7994,46.3512 Z " fill="#0C6D9C" stroke-width="1px" stroke="#0C6D9C"/>
        <path d="M 24.7994,5.90460000000002 L 6.7903,5.90460000000002 L 6.7903,46.3512 L 24.7994,46.3512 " stroke="#FFFFFF" stroke-width="0.8857" stroke-linecap="butt" stroke-linejoin="miter" fill="none"/>
        <path d="M 24.7994,46.3512 L 30.704,40.4466 L 30.704,0 L 12.3997,0 L 6.7903,5.90460000000002 L 24.7994,5.90460000000002 L 24.7994,46.3512 Z " fill="#0C6D9C" stroke="#FFFFFF" stroke-width="0.8857" stroke-linecap="butt" stroke-linejoin="miter"/>
        <path d="M 24.7994,5.90460000000002 L 30.704,0 Z " fill="#0C6D9C" stroke-width="1px" stroke="#0C6D9C"/>
        <path d="M 24.7994,5.90460000000002 L 30.704,0 " stroke="#FFFFFF" stroke-width="0.8857" stroke-linecap="butt" stroke-linejoin="miter" fill="none"/>
        <path d="M 17.4186,24.5042 L 17.4186,23.028 L 8.26640000000003,23.028 L 8.26640000000003,24.5042 L 17.4186,24.5042 Z " fill="#0C6D9C" stroke="#FFFFFF" stroke-width="0.8857" stroke-linecap="butt" stroke-linejoin="miter"/>
        <path d="M 17.4186,27.1612 L 17.4186,25.6851 L 8.26640000000003,25.6851 L 8.26640000000003,27.1612 L 17.4186,27.1612 Z " fill="#0C6D9C" stroke="#FFFFFF" stroke-width="0.8857" stroke-linecap="butt" stroke-linejoin="miter"/>
        <path d="M 17.4186,29.8183 L 17.4186,28.6374 L 8.26640000000003,28.6374 L 8.26640000000003,29.8183 L 17.4186,29.8183 Z " fill="#0C6D9C" stroke="#FFFFFF" stroke-width="0.8857" stroke-linecap="butt" stroke-linejoin="miter"/>
        <path d="M 17.4186,32.7706 L 17.4186,31.2945 L 8.26640000000003,31.2945 L 8.26640000000003,32.7706 L 17.4186,32.7706 Z " fill="#0C6D9C" stroke="#FFFFFF" stroke-width="0.8857" stroke-linecap="butt" stroke-linejoin="miter"/>
        <path d="M 17.4186,35.4277 L 17.4186,33.9515 L 8.26640000000003,33.9515 L 8.26640000000003,35.4277 L 17.4186,35.4277 Z " fill="#0C6D9C" stroke="#FFFFFF" stroke-width="0.8857" stroke-linecap="butt" stroke-linejoin="miter"/>
        <path d="M 17.4186,38.0848 L 17.4186,36.9038 L 8.26640000000003,36.9038 L 8.26640000000003,38.0848 L 17.4186,38.0848 Z " fill="#0C6D9C" stroke="#FFFFFF" stroke-width="0.8857" stroke-linecap="butt" stroke-linejoin="miter"/>
        <path d="M 17.4186,41.0371 L 17.4186,39.5609 L 8.26640000000003,39.5609 L 8.26640000000003,41.0371 L 17.4186,41.0371 Z " fill="#0C6D9C" stroke="#FFFFFF" stroke-width="0.8857" stroke-linecap="butt" stroke-linejoin="miter"/>
        <path d="M 17.4186,43.6942 L 17.4186,42.218 L 8.26640000000003,42.218 L 8.26640000000003,43.6942 L 17.4186,43.6942 Z " fill="#0C6D9C" stroke="#FFFFFF" stroke-width="0.8857" stroke-linecap="butt" stroke-linejoin="miter"/>
        <path d="M 18.5995,10.6283 C 18.5995,12.3997000000001 14.4663,14.1711 9.15210000000002,14.1711 C 4.13320000000004,14.1711 0,12.3997000000001 0,10.6283 C 0,18.5995 0,18.5995 0,18.5995 C 0,20.3709 4.13320000000004,21.8471 9.15210000000002,21.8471 C 14.4663,21.8471 18.5995,20.3709 18.5995,18.5995 Z Z " fill="#0C6D9C" stroke="#FFFFFF" stroke-width="0.8857" stroke-linecap="butt" stroke-linejoin="miter"/>
        <path d="M 9.15210000000002,14.1711 C 14.4663,14.1711 18.5995,12.3997000000001 18.5995,10.6283 C 18.5995,8.85690000000005 14.4663,7.08550000000002 9.15210000000002,7.08550000000002 C 4.13320000000004,7.08550000000002 0,8.85690000000005 0,10.6283 C 0,12.3997000000001 4.13320000000004,14.1711 9.15210000000002,14.1711 Z Z " fill="#0C6D9C" stroke="#FFFFFF" stroke-width="0.8857" stroke-linecap="butt" stroke-linejoin="miter"/>
        <path d="M 28.3421,17.7138 C 28.3421,19.4852 24.2089,21.2566 19.19,21.2566 C 14.171,21.2566 10.0378,19.4852 10.0378,17.7138 C 10.0378,25.6851 10.0378,25.6851 10.0378,25.6851 C 10.0378,27.4565 14.171,28.9326 19.19,28.9326 C 24.2089,28.9326 28.3421,27.4565 28.3421,25.6851 Z Z " fill="#0C6D9C" stroke="#FFFFFF" stroke-width="0.8857" stroke-linecap="butt" stroke-linejoin="miter"/>
        <path d="M 19.19,21.2566 C 24.2089,21.2566 28.3421,19.4852 28.3421,17.7138 C 28.3421,15.9425000000001 24.2089,14.1711 19.19,14.1711 C 14.171,14.1711 10.0378,15.9425000000001 10.0378,17.7138 C 10.0378,19.4852 14.171,21.2566 19.19,21.2566 Z Z " fill="#0C6D9C" stroke="#FFFFFF" stroke-width="0.8857" stroke-linecap="butt" stroke-linejoin="miter"/>
      </g>
      <!--emf-blob end-->
    </g>
  </g>
</svg>

