<svg xmlns="http://www.w3.org/2000/svg" xmlns:xlink="http://www.w3.org/1999/xlink" version="1.1" viewBox="0 0 156 111" >
  <title><![CDATA[Streamer]]></title>
  <g transform=" scale(3.000000) ">
    <!--converted by libvisio2svg-->
    <g>
      <!--emf-blob start-->
      <g>
        <path d="M 0,36.0099 L 45.16,36.0099 L 45.16,6.19839999999999 L 0,6.19839999999999 L 0,36.0099 Z " fill="#0D6E9C" stroke="#FFFFFF" stroke-width="0.44275" stroke-linecap="butt" stroke-linejoin="miter"/>
        <path d="M 51.6536,30.1066 L 45.16,36.0099 L 45.16,6.19839999999999 L 51.6536,0 L 51.6536,30.1066 Z " fill="#0D6E9C" stroke="#FFFFFF" stroke-width="0.44275" stroke-linecap="butt" stroke-linejoin="miter"/>
        <path d="M 7.96940000000001,0 L 51.6536,0 L 45.16,6.19839999999999 L 0,6.19839999999999 L 7.96940000000001,0 Z " fill="#0D6E9C" stroke="#FFFFFF" stroke-width="0.44275" stroke-linecap="butt" stroke-linejoin="miter"/>
        <path d="M 9.15010000000001,22.4324 L 2.65649999999999,22.4324 L 2.65649999999999,21.2517 L 9.15010000000001,21.2517 L 9.15010000000001,19.4807999999999 L 13.5775,21.8421 L 9.15010000000001,24.2034 L 9.15010000000001,22.4324 Z " fill="#FFFFFF" stroke-width="1px" stroke="#FFFFFF"/>
        <path d="M 35.7148,14.1677999999999 L 31.2873,14.1677999999999 L 31.2873,12.9872 L 35.7148,12.9872 L 35.7148,10.9209999999999 L 40.1422,13.5775 L 35.7148,15.9388 L 35.7148,14.1677999999999 Z " fill="#FFFFFF" stroke-width="1px" stroke="#FFFFFF"/>
        <path d="M 39.2567,21.5468999999999 L 31.2873,21.5468999999999 L 31.2873,20.3663 L 39.2567,20.3663 L 39.2567,18.5953 L 43.6842,20.9566 L 39.2567,23.3179 L 39.2567,21.5468999999999 Z " fill="#FFFFFF" stroke-width="1px" stroke="#FFFFFF"/>
        <path d="M 35.7148,28.9259999999999 L 31.2873,28.9259999999999 L 31.2873,27.7452999999999 L 35.7148,27.7452999999999 L 35.7148,25.9743999999999 L 40.1422,28.3357 L 35.7148,30.9920999999999 L 35.7148,28.9259999999999 Z " fill="#FFFFFF" stroke-width="1px" stroke="#FFFFFF"/>
        <path d="M 27.7454,32.468 L 16.234,32.468 L 16.234,10.0355 L 27.7454,10.0355 L 27.7454,32.468 Z " fill="#000000" stroke="#FFFFFF" stroke-width="1.32825" stroke-linecap="butt" stroke-linejoin="miter"/>
        <path d="M 27.7454,8.55970000000002 L 27.7454,33.6486 L 16.234,33.6486 L 16.234,8.55970000000002 L 27.7454,8.55970000000002 Z " fill="#000000" stroke="#FFFFFF" stroke-width="0.44275" stroke-linecap="butt" stroke-linejoin="miter"/>
        <path d="M 24.2034,27.7452999999999 L 24.2034,30.9920999999999 L 19.1856,30.9920999999999 L 19.1856,27.7452999999999 L 24.2034,27.7452999999999 Z " fill="#FFFFFF" stroke="#FFFFFF" stroke-width="0" stroke-linecap="butt" stroke-linejoin="miter"/>
        <path d="M 26.8599,31.2873 L 26.8599,32.1727999999999 L 25.9744,32.1727999999999 L 25.9744,31.2873 L 26.8599,31.2873 Z " fill="#FFFFFF" stroke="#FFFFFF" stroke-width="0" stroke-linecap="butt" stroke-linejoin="miter"/>
        <path d="M 26.8599,29.2212 L 26.8599,30.1066 L 25.9744,30.1066 L 25.9744,29.2212 L 26.8599,29.2212 Z " fill="#FFFFFF" stroke="#FFFFFF" stroke-width="0" stroke-linecap="butt" stroke-linejoin="miter"/>
        <path d="M 26.8599,27.155 L 26.8599,28.0405 L 25.9744,28.0405 L 25.9744,27.155 L 26.8599,27.155 Z " fill="#FFFFFF" stroke="#FFFFFF" stroke-width="0" stroke-linecap="butt" stroke-linejoin="miter"/>
        <path d="M 26.8599,25.0889 L 26.8599,25.9743999999999 L 25.9744,25.9743999999999 L 25.9744,25.0889 L 26.8599,25.0889 Z " fill="#FFFFFF" stroke="#FFFFFF" stroke-width="0" stroke-linecap="butt" stroke-linejoin="miter"/>
        <path d="M 26.8599,23.0227 L 26.8599,23.9082 L 25.9744,23.9082 L 25.9744,23.0227 L 26.8599,23.0227 Z " fill="#FFFFFF" stroke="#FFFFFF" stroke-width="0" stroke-linecap="butt" stroke-linejoin="miter"/>
        <path d="M 26.8599,20.9566 L 26.8599,21.8421 L 25.9744,21.8421 L 25.9744,20.9566 L 26.8599,20.9566 Z " fill="#FFFFFF" stroke="#FFFFFF" stroke-width="0" stroke-linecap="butt" stroke-linejoin="miter"/>
        <path d="M 26.8599,18.8904 L 26.8599,19.7759 L 25.9744,19.7759 L 25.9744,18.8904 L 26.8599,18.8904 Z " fill="#FFFFFF" stroke="#FFFFFF" stroke-width="0" stroke-linecap="butt" stroke-linejoin="miter"/>
        <path d="M 26.8599,16.8243 L 26.8599,18.0049 L 25.9744,18.0049 L 25.9744,16.8243 L 26.8599,16.8243 Z " fill="#FFFFFF" stroke="#FFFFFF" stroke-width="0" stroke-linecap="butt" stroke-linejoin="miter"/>
        <path d="M 26.8599,14.7581 L 26.8599,15.9388 L 25.9744,15.9388 L 25.9744,14.7581 L 26.8599,14.7581 Z " fill="#FFFFFF" stroke="#FFFFFF" stroke-width="0" stroke-linecap="butt" stroke-linejoin="miter"/>
        <path d="M 26.8599,12.692 L 26.8599,13.8727 L 25.9744,13.8727 L 25.9744,12.692 L 26.8599,12.692 Z " fill="#FFFFFF" stroke="#FFFFFF" stroke-width="0" stroke-linecap="butt" stroke-linejoin="miter"/>
        <path d="M 26.8599,10.6259 L 26.8599,11.8065 L 25.9744,11.8065 L 25.9744,10.6259 L 26.8599,10.6259 Z " fill="#FFFFFF" stroke="#FFFFFF" stroke-width="0" stroke-linecap="butt" stroke-linejoin="miter"/>
        <path d="M 17.7098,31.2873 L 17.7098,32.1727999999999 L 16.8243,32.1727999999999 L 16.8243,31.2873 L 17.7098,31.2873 Z " fill="#FFFFFF" stroke="#FFFFFF" stroke-width="0" stroke-linecap="butt" stroke-linejoin="miter"/>
        <path d="M 17.7098,29.2212 L 17.7098,30.1066 L 16.8243,30.1066 L 16.8243,29.2212 L 17.7098,29.2212 Z " fill="#FFFFFF" stroke="#FFFFFF" stroke-width="0" stroke-linecap="butt" stroke-linejoin="miter"/>
        <path d="M 17.7098,27.155 L 17.7098,28.0405 L 16.8243,28.0405 L 16.8243,27.155 L 17.7098,27.155 Z " fill="#FFFFFF" stroke="#FFFFFF" stroke-width="0" stroke-linecap="butt" stroke-linejoin="miter"/>
        <path d="M 17.7098,25.0889 L 17.7098,25.9743999999999 L 16.8243,25.9743999999999 L 16.8243,25.0889 L 17.7098,25.0889 Z " fill="#FFFFFF" stroke="#FFFFFF" stroke-width="0" stroke-linecap="butt" stroke-linejoin="miter"/>
        <path d="M 17.7098,23.0227 L 17.7098,23.9082 L 16.8243,23.9082 L 16.8243,23.0227 L 17.7098,23.0227 Z " fill="#FFFFFF" stroke="#FFFFFF" stroke-width="0" stroke-linecap="butt" stroke-linejoin="miter"/>
        <path d="M 17.7098,20.9566 L 17.7098,21.8421 L 16.8243,21.8421 L 16.8243,20.9566 L 17.7098,20.9566 Z " fill="#FFFFFF" stroke="#FFFFFF" stroke-width="0" stroke-linecap="butt" stroke-linejoin="miter"/>
        <path d="M 17.7098,18.8904 L 17.7098,19.7759 L 16.8243,19.7759 L 16.8243,18.8904 L 17.7098,18.8904 Z " fill="#FFFFFF" stroke="#FFFFFF" stroke-width="0" stroke-linecap="butt" stroke-linejoin="miter"/>
        <path d="M 17.7098,16.8243 L 17.7098,17.7098 L 16.8243,17.7098 L 16.8243,16.8243 L 17.7098,16.8243 Z " fill="#FFFFFF" stroke="#FFFFFF" stroke-width="0" stroke-linecap="butt" stroke-linejoin="miter"/>
        <path d="M 17.7098,14.7581 L 17.7098,15.6436 L 16.8243,15.6436 L 16.8243,14.7581 L 17.7098,14.7581 Z " fill="#FFFFFF" stroke="#FFFFFF" stroke-width="0" stroke-linecap="butt" stroke-linejoin="miter"/>
        <path d="M 17.7098,12.692 L 17.7098,13.5775 L 16.8243,13.5775 L 16.8243,12.692 L 17.7098,12.692 Z " fill="#FFFFFF" stroke="#FFFFFF" stroke-width="0" stroke-linecap="butt" stroke-linejoin="miter"/>
        <path d="M 17.7098,10.6259 L 17.7098,11.8065 L 16.8243,11.8065 L 16.8243,10.6259 L 17.7098,10.6259 Z " fill="#FFFFFF" stroke="#FFFFFF" stroke-width="0" stroke-linecap="butt" stroke-linejoin="miter"/>
        <path d="M 24.2034,22.4324 L 24.2034,25.6791999999999 L 19.1856,25.6791999999999 L 19.1856,22.4324 L 24.2034,22.4324 Z " fill="#FFFFFF" stroke="#FFFFFF" stroke-width="0" stroke-linecap="butt" stroke-linejoin="miter"/>
        <path d="M 24.2034,16.8243 L 24.2034,20.0711 L 19.1856,20.0711 L 19.1856,16.8243 L 24.2034,16.8243 Z " fill="#FFFFFF" stroke="#FFFFFF" stroke-width="0" stroke-linecap="butt" stroke-linejoin="miter"/>
        <path d="M 24.2034,11.5113 L 24.2034,14.7581 L 19.1856,14.7581 L 19.1856,11.5113 L 24.2034,11.5113 Z " fill="#FFFFFF" stroke="#FFFFFF" stroke-width="0" stroke-linecap="butt" stroke-linejoin="miter"/>
      </g>
      <!--emf-blob end-->
    </g>
  </g>
</svg>

