<svg xmlns="http://www.w3.org/2000/svg" xmlns:xlink="http://www.w3.org/1999/xlink" version="1.1" viewBox="0 0 141 114" >
  <title><![CDATA[Sun workstation]]></title>
  <g transform=" scale(3.000000) ">
    <!--converted by libvisio2svg-->
    <g>
      <!--emf-blob start-->
      <g>
        <path d="M 5.3134,30.1093 L 5.3134,25.0911 L 32.4708,25.0911 L 32.4708,30.1093 L 5.3134,30.1093 Z " fill="#126D99" stroke="#FFFFFF" stroke-width="0.88555" stroke-linecap="butt" stroke-linejoin="miter"/>
        <path d="M 36.8986,20.368 L 36.8986,25.6814 L 32.4708,30.1093 L 32.4708,25.0911 L 5.3134,25.0911 Z " fill="#126D99" stroke-width="1px" stroke="#126D99"/>
        <path d="M 36.8986,20.368 L 36.8986,25.6814 L 32.4708,30.1093 L 32.4708,25.0911 L 5.3134,25.0911 " stroke="#FFFFFF" stroke-width="0.88555" stroke-linecap="butt" stroke-linejoin="miter" fill="none"/>
        <path d="M 5.60859999999997,20.368 L 36.8986,20.368 Z " fill="#126D99" stroke-width="1px" stroke="#126D99"/>
        <path d="M 5.60859999999997,20.368 L 36.8986,20.368 " stroke="#FFFFFF" stroke-width="0.88555" stroke-linecap="butt" stroke-linejoin="miter" fill="none"/>
        <path d="M 32.4708,25.0911 L 36.8986,20.368 Z " fill="#126D99" stroke-width="1px" stroke="#126D99"/>
        <path d="M 32.4708,25.0911 L 36.8986,20.368 " stroke="#FFFFFF" stroke-width="0.88555" stroke-linecap="butt" stroke-linejoin="miter" fill="none"/>
        <path d="M 30.9948,33.9467 L 30.9948,30.9948 L 0,30.9948 L 3.54229999999995,27.4526 L 34.5371,27.4526 L 34.5371,30.4044 L 30.9948,33.9467 Z " fill="#126D99" stroke="#FFFFFF" stroke-width="0.88555" stroke-linecap="butt" stroke-linejoin="miter"/>
        <path d="M 30.9948,30.9948 L 30.9948,33.9467 L 0,33.9467 L 0,30.9948 L 30.9948,30.9948 Z " fill="#126D99" stroke="#FFFFFF" stroke-width="0.88555" stroke-linecap="butt" stroke-linejoin="miter"/>
        <path d="M 30.9948,30.9948 L 34.5371,27.4526 Z " fill="#126D99" stroke-width="1px" stroke="#126D99"/>
        <path d="M 30.9948,30.9948 L 34.5371,27.4526 " stroke="#FFFFFF" stroke-width="0.88555" stroke-linecap="butt" stroke-linejoin="miter" fill="none"/>
        <path d="M 32.1756,25.0911 L 32.1756,4.72309999999999 L 5.3134,4.72309999999999 L 5.3134,25.0911 L 32.1756,25.0911 Z " fill="#126D99" stroke="#FFFFFF" stroke-width="0.88555" stroke-linecap="butt" stroke-linejoin="miter"/>
        <path d="M 32.1756,25.0911 L 36.8986,20.368 L 36.8986,0 L 10.0364,0 L 5.3134,4.72309999999999 L 32.1756,4.72309999999999 L 32.1756,25.0911 Z " fill="#126D99" stroke="#FFFFFF" stroke-width="0.88555" stroke-linecap="butt" stroke-linejoin="miter"/>
        <path d="M 29.8141,22.7295 L 29.8141,7.08459999999997 L 7.67489999999998,7.08459999999997 L 7.67489999999998,22.7295 L 29.8141,22.7295 Z " fill="#126D99" stroke="#FFFFFF" stroke-width="0.88555" stroke-linecap="butt" stroke-linejoin="miter"/>
        <path d="M 32.1756,4.72309999999999 L 36.8986,0 Z " fill="#126D99" stroke-width="1px" stroke="#126D99"/>
        <path d="M 32.1756,4.72309999999999 L 36.8986,0 " stroke="#FFFFFF" stroke-width="0.88555" stroke-linecap="butt" stroke-linejoin="miter" fill="none"/>
        <path d="M 46.935,34.8323 L 42.212,28.3381 L 37.7841,31.29 L 42.5072,37.7841 L 46.935,34.8323 Z " fill="#126D99" stroke="#FFFFFF" stroke-width="0.88555" stroke-linecap="butt" stroke-linejoin="miter"/>
        <path d="M 40.1457,29.8141 C 39.2601,28.3381 38.0793,29.2237 38.3745,27.1574 C 38.6697,24.7959 36.8986,23.3199 34.2419,24.5007 Z " stroke="#0E6A98" stroke-width="0.88555" stroke-linecap="butt" stroke-linejoin="miter" fill="none"/>
      </g>
      <!--emf-blob end-->
    </g>
  </g>
</svg>

