<svg xmlns="http://www.w3.org/2000/svg" xmlns:xlink="http://www.w3.org/1999/xlink" version="1.1" viewBox="0 0 141 168" >
  <title><![CDATA[Supercomputer]]></title>
  <g transform=" scale(3.000000) ">
    <!--converted by libvisio2svg-->
    <g>
      <!--emf-blob start-->
      <g>
        <path d="M 23.3298,39.572 C 36.0282,39.572 46.3642,36.6188 46.3642,33.0751 C 46.3642,29.5313 36.0282,26.5782 23.3298,26.5782 C 10.6313,26.5782 0.295299999999997,29.5313 0.295299999999997,33.0751 C 0.295299999999997,36.6188 10.6313,39.572 23.3298,39.572 Z Z " fill="#126D99" stroke="#FFFFFF" stroke-width="0.88595" stroke-linecap="butt" stroke-linejoin="miter"/>
        <path d="M 23.0345,9.15469999999999 C 31.8939,9.15469999999999 38.9814,7.08750000000003 38.9814,4.42970000000003 C 38.9814,2.06720000000001 31.8939,0 23.0345,0 C 14.1751,0 6.79219999999998,2.06720000000001 6.79219999999998,4.42970000000003 C 6.79219999999998,7.08750000000003 14.1751,9.15469999999999 23.0345,9.15469999999999 Z Z " fill="#126D99" stroke="#FFFFFF" stroke-width="0.88595" stroke-linecap="butt" stroke-linejoin="miter"/>
        <path d="M 23.0345,29.5313 C 23.0345,34.5516 23.0345,34.5516 23.0345,34.5516 C 14.1751,34.5516 6.79219999999998,32.4844 6.79219999999998,30.1219 C 6.79219999999998,4.42970000000003 6.79219999999998,4.42970000000003 6.79219999999998,4.42970000000003 C 6.79219999999998,7.08750000000003 14.1751,9.15469999999999 23.0345,9.15469999999999 C 31.8939,9.15469999999999 38.9814,7.08750000000003 38.9814,4.42970000000003 C 38.9814,30.1219 38.9814,30.1219 38.9814,30.1219 C 38.9814,31.5985 35.7329,33.0751 31.3032,33.961 Z " fill="#126D99" stroke="none"/>
        <path d="M 23.0345,29.5313 C 23.0345,34.5516 23.0345,34.5516 23.0345,34.5516 C 14.1751,34.5516 6.79219999999998,32.4844 6.79219999999998,30.1219 C 6.79219999999998,4.42970000000003 6.79219999999998,4.42970000000003 6.79219999999998,4.42970000000003 C 6.79219999999998,7.08750000000003 14.1751,9.15469999999999 23.0345,9.15469999999999 C 31.8939,9.15469999999999 38.9814,7.08750000000003 38.9814,4.42970000000003 C 38.9814,30.1219 38.9814,30.1219 38.9814,30.1219 C 38.9814,31.5985 35.7329,33.0751 31.3032,33.961 Z " stroke="#FFFFFF" stroke-width="0.88595" stroke-linecap="butt" stroke-linejoin="miter" fill="none"/>
        <path d="M 42.8205,48.4314 L 42.8205,36.6188 L 36.6189,32.4844 L 36.6189,7.08750000000003 " stroke="#FFFFFF" stroke-width="0.88595" stroke-linecap="butt" stroke-linejoin="miter" fill="none"/>
        <path d="M 10.6313,50.4986 L 10.6313,38.9813 L 14.1751,33.961 L 14.1751,8.5641 " stroke="#FFFFFF" stroke-width="0.88595" stroke-linecap="butt" stroke-linejoin="miter" fill="none"/>
        <path d="M 3.24849999999998,48.136 L 3.24849999999998,36.6188 L 9.15469999999999,32.1891 L 9.15469999999999,6.79220000000004 " stroke="#FFFFFF" stroke-width="0.88595" stroke-linecap="butt" stroke-linejoin="miter" fill="none"/>
        <path d="M 23.0345,9.15469999999999 L 23.0345,34.5516 " stroke="#FFFFFF" stroke-width="0.88595" stroke-linecap="butt" stroke-linejoin="miter" fill="none"/>
        <path d="M 31.0079,33.961 L 31.0079,8.5641 Z " fill="#000000" stroke-width="1px" stroke="#000000"/>
        <path d="M 31.0079,33.961 L 31.0079,8.5641 " stroke="#FFFFFF" stroke-width="0.88595" stroke-linecap="butt" stroke-linejoin="miter" fill="none"/>
        <path d="M 46.3642,44.8876 C 46.0689,47.2501 41.9345,49.3173 35.4376,50.4986 C 35.4376,38.686 35.4376,38.686 35.4376,38.686 C 41.9345,37.5048 46.0689,35.4376 46.3642,33.0751 Z Z " fill="#126D99" stroke="#FFFFFF" stroke-width="0.88595" stroke-linecap="butt" stroke-linejoin="miter"/>
        <path d="M 0,44.5923 C 0,48.7267 10.9266,51.3845 23.6251,51.3845 C 23.6251,39.572 23.6251,39.572 23.6251,39.572 C 10.6313,39.8673 0,36.9141 0,32.7798 Z Z " fill="#126D99" stroke="#FFFFFF" stroke-width="0.88595" stroke-linecap="butt" stroke-linejoin="miter"/>
        <path d="M 23.0345,9.15469999999999 C 23.0345,5.90630000000004 23.0345,5.90630000000004 23.0345,5.90630000000004 C 23.9204,5.90630000000004 24.8063,5.90630000000004 25.6923,5.90630000000004 C 31.0079,8.5641 31.0079,8.5641 31.0079,8.5641 C 31.0079,33.961 31.0079,33.961 31.0079,33.961 C 35.4376,38.686 35.4376,38.686 35.4376,38.686 C 35.4376,50.4986 35.4376,50.4986 35.4376,50.4986 C 25.397,46.0689 25.397,46.0689 25.397,46.0689 C 25.1017,46.0689 23.6251,46.3642 23.6251,46.3642 C 23.6251,39.572 23.6251,39.572 23.6251,39.572 C 23.0345,34.5516 23.0345,34.5516 23.0345,34.5516 Z Z " fill="#126D99" stroke="#FFFFFF" stroke-width="0.88595" stroke-linecap="butt" stroke-linejoin="miter"/>
        <path d="M 25.397,5.90630000000004 L 25.397,46.0689 " stroke="#FFFFFF" stroke-width="0.88595" stroke-linecap="butt" stroke-linejoin="miter" fill="none"/>
        <path d="M 0.295299999999997,32.7798 L 6.79219999999998,30.4173 Z " fill="#000000" stroke-width="1px" stroke="#000000"/>
        <path d="M 0.295299999999997,32.7798 L 6.79219999999998,30.4173 " stroke="#FFFFFF" stroke-width="0.88595" stroke-linecap="butt" stroke-linejoin="miter" fill="none"/>
        <path d="M 46.0689,32.4844 L 38.9814,30.4173 Z " fill="#000000" stroke-width="1px" stroke="#000000"/>
        <path d="M 46.0689,32.4844 L 38.9814,30.4173 " stroke="#FFFFFF" stroke-width="0.88595" stroke-linecap="butt" stroke-linejoin="bevel" fill="none"/>
        <path d="M 26.8735,10.0406 C 29.5314,9.74530000000004 29.5314,9.74530000000004 29.5314,9.74530000000004 C 35.1423,12.1078 35.1423,12.1078 35.1423,12.1078 C 33.0751,12.6985 28.0548,13.2891 27.1688,12.9938 Z Z " fill="#126D99" stroke="#FFFFFF" stroke-width="0.88595" stroke-linecap="butt" stroke-linejoin="miter"/>
        <path d="M 26.8735,10.0406 L 27.1688,12.9938 L 27.1688,38.3907 L 27.7595,43.7063 L 27.7595,55.2236 L 26.8735,50.4986 L 26.8735,10.0406 Z " fill="#126D99" stroke="#FFFFFF" stroke-width="0.88595" stroke-linecap="butt" stroke-linejoin="miter"/>
        <path d="M 27.1688,12.9938 C 28.6454,12.9938 33.9611,12.4031 35.1423,12.1078 C 35.1423,37.5048 35.1423,37.5048 35.1423,37.5048 C 33.0751,37.8001 28.9407,38.3907 27.1688,38.3907 Z Z " fill="#126D99" stroke="#FFFFFF" stroke-width="0.88595" stroke-linecap="butt" stroke-linejoin="miter"/>
        <path d="M 35.1423,37.5048 C 39.572,41.9345 39.572,41.9345 39.572,41.9345 C 37.2095,42.5251 29.236,43.411 27.7595,43.411 C 27.1688,38.3907 27.1688,38.3907 27.1688,38.3907 C 28.0548,38.3907 34.847,37.8001 35.1423,37.5048 Z Z " fill="#126D99" stroke="#FFFFFF" stroke-width="0.88595" stroke-linecap="butt" stroke-linejoin="miter"/>
        <path d="M 39.572,41.9345 C 39.572,53.747 39.572,53.747 39.572,53.747 C 37.8001,54.3376 29.8267,55.2236 27.7595,55.2236 C 27.7595,43.7063 27.7595,43.7063 27.7595,43.7063 C 29.236,43.7063 36.6189,42.8204 39.572,41.9345 Z Z " fill="#126D99" stroke="#FFFFFF" stroke-width="0.88595" stroke-linecap="butt" stroke-linejoin="miter"/>
      </g>
      <!--emf-blob end-->
    </g>
  </g>
</svg>

