<svg xmlns="http://www.w3.org/2000/svg" xmlns:xlink="http://www.w3.org/1999/xlink" version="1.1" viewBox="0 0 93 96" >
  <title><![CDATA[SVX]]></title>
  <g transform=" scale(3.000000) ">
    <!--converted by libvisio2svg-->
    <g>
      <!--emf-blob start-->
      <g>
        <path d="M 25.3882,31.2925 L 25.3882,5.31380000000001 L 0,5.31380000000001 L 0,31.2925 L 25.3882,31.2925 Z " fill="#126D99" stroke="#FFFFFF" stroke-width="0.88565" stroke-linecap="butt" stroke-linejoin="miter"/>
        <path d="M 13.2845,13.875 L 21.2551999999999,13.875 Z " fill="#000000" stroke-width="1px" stroke="#000000"/>
        <path d="M 13.2845,13.875 L 21.2551999999999,13.875 " stroke="#FFFFFF" stroke-width="0.88565" stroke-linecap="butt" stroke-linejoin="miter" fill="none"/>
        <path d="M 13.2845,23.0266 L 21.2551999999999,23.0266 Z " fill="#000000" stroke-width="1px" stroke="#000000"/>
        <path d="M 13.2845,23.0266 L 21.2551999999999,23.0266 " stroke="#FFFFFF" stroke-width="0.88565" stroke-linecap="butt" stroke-linejoin="miter" fill="none"/>
        <path d="M 10.9228,18.5984 L 10.9228,10.6277 Z " fill="#000000" stroke-width="1px" stroke="#000000"/>
        <path d="M 10.9228,18.5984 L 10.9228,10.6277 " stroke="#FFFFFF" stroke-width="0.88565" stroke-linecap="butt" stroke-linejoin="miter" fill="none"/>
        <path d="M 17.7127,18.3032 L 17.7127,26.2739 " stroke="#FFFFFF" stroke-width="1.77125" stroke-linecap="butt" stroke-linejoin="miter" fill="none"/>
        <path d="M 8.85629999999998,18.3032 L 8.85629999999998,26.2739 Z " fill="#000000" stroke-width="1px" stroke="#000000"/>
        <path d="M 8.85629999999998,18.3032 L 8.85629999999998,26.2739 " stroke="#FFFFFF" stroke-width="0.88565" stroke-linecap="butt" stroke-linejoin="miter" fill="none"/>
        <path d="M 13.5796999999999,13.875 L 5.60899999999998,13.875 Z " fill="#000000" stroke-width="1px" stroke="#000000"/>
        <path d="M 13.5796999999999,13.875 L 5.60899999999998,13.875 " stroke="#FFFFFF" stroke-width="0.88565" stroke-linecap="butt" stroke-linejoin="miter" fill="none"/>
        <path d="M 30.702,0 L 30.702,0 L 30.702,25.9787 L 25.3882,31.2925 L 25.3882,5.31380000000001 L 30.702,0 Z " fill="#126D99" stroke="#FFFFFF" stroke-width="0.88565" stroke-linecap="butt" stroke-linejoin="miter"/>
        <path d="M 25.3882,5.31380000000001 L 25.3882,5.31380000000001 L 0,5.31380000000001 L 6.49469999999997,0 L 30.702,0 L 25.3882,5.31380000000001 Z " fill="#126D99" stroke="#FFFFFF" stroke-width="0.88565" stroke-linecap="butt" stroke-linejoin="miter"/>
        <path d="M 12.9893,13.5798 L 21.2551999999999,13.5798 " stroke="#FFFFFF" stroke-width="1.77125" stroke-linecap="butt" stroke-linejoin="miter" fill="none"/>
        <path d="M 20.96,11.2181 L 20.96,15.9415 L 23.9121,13.5798 L 20.96,11.2181 Z " fill="#FFFFFF" stroke="#FFFFFF" stroke-width="0.88565" stroke-linecap="butt" stroke-linejoin="miter"/>
        <path d="M 12.9893,22.7313 L 21.8457,22.7313 " stroke="#FFFFFF" stroke-width="1.77125" stroke-linecap="butt" stroke-linejoin="miter" fill="none"/>
        <path d="M 20.96,20.3696 L 20.96,24.7978 L 23.9121,22.7313 L 20.96,20.3696 Z " fill="#FFFFFF" stroke="#FFFFFF" stroke-width="0.88565" stroke-linecap="butt" stroke-linejoin="miter"/>
        <path d="M 10.6276,18.3032 L 10.6276,10.9229 " stroke="#FFFFFF" stroke-width="1.77125" stroke-linecap="butt" stroke-linejoin="miter" fill="none"/>
        <path d="M 15.351,18.5984 L 15.351,10.6277 " stroke="#FFFFFF" stroke-width="1.77125" stroke-linecap="butt" stroke-linejoin="miter" fill="none"/>
        <path d="M 15.0558,18.3032 L 15.0558,10.9229 Z " fill="#000000" stroke-width="1px" stroke="#000000"/>
        <path d="M 15.0558,18.3032 L 15.0558,10.9229 " stroke="#FFFFFF" stroke-width="0.88565" stroke-linecap="butt" stroke-linejoin="miter" fill="none"/>
        <path d="M 17.4175,18.3032 L 17.4175,26.5691 Z " fill="#000000" stroke-width="1px" stroke="#000000"/>
        <path d="M 17.4175,18.3032 L 17.4175,26.5691 " stroke="#FFFFFF" stroke-width="0.88565" stroke-linecap="butt" stroke-linejoin="miter" fill="none"/>
        <path d="M 19.7791999999999,26.2739 L 15.351,26.2739 L 17.4175,28.9308 L 19.7791999999999,26.2739 Z " fill="#FFFFFF" stroke="#FFFFFF" stroke-width="0.88565" stroke-linecap="butt" stroke-linejoin="miter"/>
        <path d="M 8.56109999999995,18.3032 L 8.56109999999995,26.5691 " stroke="#FFFFFF" stroke-width="1.77125" stroke-linecap="butt" stroke-linejoin="miter" fill="none"/>
        <path d="M 10.9228,26.2739 L 6.19939999999997,26.2739 L 8.56109999999995,28.9308 L 10.9228,26.2739 Z " fill="#FFFFFF" stroke="#FFFFFF" stroke-width="0.88565" stroke-linecap="butt" stroke-linejoin="miter"/>
        <path d="M 12.9893,22.7313 L 4.72339999999997,22.7313 " stroke="#FFFFFF" stroke-width="1.77125" stroke-linecap="butt" stroke-linejoin="miter" fill="none"/>
        <path d="M 5.01859999999999,25.093 L 5.01859999999999,20.6649 L 2.06649999999996,22.7313 L 5.01859999999999,25.093 Z " fill="#FFFFFF" stroke="#FFFFFF" stroke-width="0.88565" stroke-linecap="butt" stroke-linejoin="miter"/>
        <path d="M 12.9893,13.5798 L 4.72339999999997,13.5798 " stroke="#FFFFFF" stroke-width="1.77125" stroke-linecap="butt" stroke-linejoin="miter" fill="none"/>
        <path d="M 5.01859999999999,15.9415 L 5.01859999999999,11.5133 L 2.06649999999996,13.5798 L 5.01859999999999,15.9415 Z " fill="#FFFFFF" stroke="#FFFFFF" stroke-width="0.88565" stroke-linecap="butt" stroke-linejoin="miter"/>
        <path d="M 12.9893,23.617 C 15.9414,23.617 18.3031,21.2553 18.3031,18.3032 C 18.3031,15.351 15.9414,12.6941 12.9893,12.6941 C 10.0372,12.6941 7.6755,15.351 7.6755,18.3032 C 7.6755,21.2553 10.0372,23.617 12.9893,23.617 Z Z " fill="#0E6A98" stroke="#FFFFFF" stroke-width="0.88565" stroke-linecap="butt" stroke-linejoin="miter"/>
        <path d="M 20.3696,10.6277 C 20.6648,10.6277 20.6648,10.6277 20.6648,10.3324 C 20.6648,7.6755 20.6648,7.6755 20.6648,7.6755 C 20.6648,7.38029999999998 20.6648,7.38029999999998 20.3696,7.38029999999998 C 5.90419999999995,7.38029999999998 5.90419999999995,7.38029999999998 5.90419999999995,7.38029999999998 C 5.60899999999998,7.38029999999998 5.60899999999998,7.38029999999998 5.60899999999998,7.6755 C 5.60899999999998,10.3324 5.60899999999998,10.3324 5.60899999999998,10.3324 C 5.60899999999998,10.6277 5.60899999999998,10.6277 5.90419999999995,10.6277 C 8.56109999999995,10.6277 8.56109999999995,10.6277 8.56109999999995,10.6277 C 8.56109999999995,9.74200000000002 8.56109999999995,9.74200000000002 8.56109999999995,9.74200000000002 C 17.1223,9.74200000000002 17.1223,9.74200000000002 17.1223,9.74200000000002 C 17.1223,10.6277 17.1223,10.6277 17.1223,10.6277 Z Z " fill="#FFFFFF" stroke="#FFFFFF" stroke-width="0.88565" stroke-linecap="butt" stroke-linejoin="miter"/>
        <path d="M 11.218,16.5319 L 10.3324,16.5319 L 10.3324,15.6463 L 11.218,15.6463 L 11.218,16.5319 Z " fill="#000000" stroke="#FFFFFF" stroke-width="0.88565" stroke-linecap="butt" stroke-linejoin="miter"/>
        <path d="M 11.218,18.008 L 10.3324,18.008 L 10.3324,17.1223 L 11.218,17.1223 L 11.218,18.008 Z " fill="#000000" stroke="#FFFFFF" stroke-width="0.88565" stroke-linecap="butt" stroke-linejoin="miter"/>
        <path d="M 11.218,19.484 L 10.3324,19.484 L 10.3324,18.5984 L 11.218,18.5984 L 11.218,19.484 Z " fill="#000000" stroke="#FFFFFF" stroke-width="0.88565" stroke-linecap="butt" stroke-linejoin="miter"/>
        <path d="M 11.218,20.9601 L 10.3324,20.9601 L 10.3324,20.0744 L 11.218,20.0744 L 11.218,20.9601 Z " fill="#000000" stroke="#FFFFFF" stroke-width="0.88565" stroke-linecap="butt" stroke-linejoin="miter"/>
        <path d="M 12.6941,16.5319 L 11.8085,16.5319 L 11.8085,15.6463 L 12.6941,15.6463 L 12.6941,16.5319 Z " fill="#000000" stroke="#FFFFFF" stroke-width="0.88565" stroke-linecap="butt" stroke-linejoin="miter"/>
        <path d="M 12.6941,18.008 L 11.8085,18.008 L 11.8085,17.1223 L 12.6941,17.1223 L 12.6941,18.008 Z " fill="#000000" stroke="#FFFFFF" stroke-width="0.88565" stroke-linecap="butt" stroke-linejoin="miter"/>
        <path d="M 12.6941,19.484 L 11.8085,19.484 L 11.8085,18.5984 L 12.6941,18.5984 L 12.6941,19.484 Z " fill="#000000" stroke="#FFFFFF" stroke-width="0.88565" stroke-linecap="butt" stroke-linejoin="miter"/>
        <path d="M 12.6941,20.9601 L 11.8085,20.9601 L 11.8085,20.0744 L 12.6941,20.0744 L 12.6941,20.9601 Z " fill="#000000" stroke="#FFFFFF" stroke-width="0.88565" stroke-linecap="butt" stroke-linejoin="miter"/>
        <path d="M 14.1702,16.5319 L 13.2845,16.5319 L 13.2845,15.6463 L 14.1702,15.6463 L 14.1702,16.5319 Z " fill="#000000" stroke="#FFFFFF" stroke-width="0.88565" stroke-linecap="butt" stroke-linejoin="miter"/>
        <path d="M 14.1702,18.008 L 13.2845,18.008 L 13.2845,17.1223 L 14.1702,17.1223 L 14.1702,18.008 Z " fill="#000000" stroke="#FFFFFF" stroke-width="0.88565" stroke-linecap="butt" stroke-linejoin="miter"/>
        <path d="M 14.1702,19.484 L 13.2845,19.484 L 13.2845,18.5984 L 14.1702,18.5984 L 14.1702,19.484 Z " fill="#000000" stroke="#FFFFFF" stroke-width="0.88565" stroke-linecap="butt" stroke-linejoin="miter"/>
        <path d="M 14.1702,20.9601 L 13.2845,20.9601 L 13.2845,20.0744 L 14.1702,20.0744 L 14.1702,20.9601 Z " fill="#000000" stroke="#FFFFFF" stroke-width="0.88565" stroke-linecap="butt" stroke-linejoin="miter"/>
        <path d="M 15.6462,16.5319 L 14.7606,16.5319 L 14.7606,15.6463 L 15.6462,15.6463 L 15.6462,16.5319 Z " fill="#000000" stroke="#FFFFFF" stroke-width="0.88565" stroke-linecap="butt" stroke-linejoin="miter"/>
        <path d="M 15.6462,18.008 L 14.7606,18.008 L 14.7606,17.1223 L 15.6462,17.1223 L 15.6462,18.008 Z " fill="#000000" stroke="#FFFFFF" stroke-width="0.88565" stroke-linecap="butt" stroke-linejoin="miter"/>
        <path d="M 15.6462,19.484 L 14.7606,19.484 L 14.7606,18.5984 L 15.6462,18.5984 L 15.6462,19.484 Z " fill="#000000" stroke="#FFFFFF" stroke-width="0.88565" stroke-linecap="butt" stroke-linejoin="miter"/>
        <path d="M 15.6462,20.9601 L 14.7606,20.9601 L 14.7606,20.0744 L 15.6462,20.0744 L 15.6462,20.9601 Z " fill="#000000" stroke="#FFFFFF" stroke-width="0.88565" stroke-linecap="butt" stroke-linejoin="miter"/>
      </g>
      <!--emf-blob end-->
    </g>
  </g>
</svg>

