<svg xmlns="http://www.w3.org/2000/svg" xmlns:xlink="http://www.w3.org/1999/xlink" version="1.1" viewBox="0 0 153 84" >
  <title><![CDATA[Tablet]]></title>
  <g transform=" scale(3.000000) ">
    <!--converted by libvisio2svg-->
    <g>
      <!--emf-blob start-->
      <g>
        <path d="M 46.0631,0 L 47.2442,1.77160000000003 L 42.815,27.7559 L 41.0434,26.5748 L 46.0631,0 Z " fill="#126D99" stroke="#FFFFFF" stroke-width="0.88585" stroke-linecap="butt" stroke-linejoin="miter"/>
        <path d="M 0,26.5748 L 1.47640000000001,27.7559 L 42.815,27.7559 L 41.0434,26.5748 L 0,26.5748 Z " fill="#126D99" stroke="#FFFFFF" stroke-width="0.88585" stroke-linecap="butt" stroke-linejoin="miter"/>
        <path d="M 41.0434,26.5748 L 46.0631,0 L 5.315,0 L 0,26.5748 L 41.0434,26.5748 Z " fill="#126D99" stroke="#FFFFFF" stroke-width="0.88585" stroke-linecap="butt" stroke-linejoin="miter"/>
        <path d="M 38.0906,21.8504 L 41.0434,5.31490000000002 L 18.3071,5.31490000000002 L 15.3544,21.8504 L 38.0906,21.8504 Z " fill="#126D99" stroke="#FFFFFF" stroke-width="0.88585" stroke-linecap="butt" stroke-linejoin="miter"/>
        <path d="M 14.7638,0 L 9.44889999999998,26.5748 Z " fill="#126D99" stroke-width="1px" stroke="#126D99"/>
        <path d="M 14.7638,0 L 9.44889999999998,26.5748 " stroke="#FFFFFF" stroke-width="0.88585" stroke-linecap="butt" stroke-linejoin="miter" fill="none"/>
        <path d="M 3.83859999999999,21.2598 C 6.49610000000001,21.8504 9.44889999999998,18.0118 10.9252,12.9921 C 12.1063,7.6771 10.9252,2.95269999999999 8.56299999999999,2.36220000000003 Z Z " fill="#126D99" stroke="#FFFFFF" stroke-width="0.88585" stroke-linecap="butt" stroke-linejoin="miter"/>
        <path d="M 26.2796,2.95269999999999 L 18.8977,2.95269999999999 L 18.8977,2.06690000000003 L 26.2796,2.06690000000003 L 26.2796,2.95269999999999 Z " fill="#0E6A98" stroke="#FFFFFF" stroke-width="0.88585" stroke-linecap="butt" stroke-linejoin="miter"/>
        <path d="M 41.0434,2.95269999999999 L 33.6615,2.95269999999999 L 33.6615,2.06690000000003 L 41.0434,2.06690000000003 L 41.0434,2.95269999999999 Z " fill="#0E6A98" stroke="#FFFFFF" stroke-width="0.88585" stroke-linecap="butt" stroke-linejoin="miter"/>
        <path d="M 47.8347,22.4409 C 47.8347,22.7362 47.5395,23.0315 47.2442,23.0315 C 47.2442,23.0315 47.2442,23.0315 47.2442,23.0315 C 46.9489,22.7362 46.6536,22.4409 46.6536,22.1457 C 49.3111,1.18110000000001 49.3111,1.18110000000001 49.3111,1.18110000000001 C 49.3111,0.885800000000017 49.6064,0.59050000000002 49.9017,0.59050000000002 C 49.9017,0.59050000000002 49.9017,0.59050000000002 49.9017,0.59050000000002 C 50.1969,0.59050000000002 50.4922,0.885800000000017 50.4922,1.18110000000001 Z Z " fill="#126D99" stroke="none"/>
      </g>
      <!--emf-blob end-->
    </g>
  </g>
</svg>

