<svg xmlns="http://www.w3.org/2000/svg" xmlns:xlink="http://www.w3.org/1999/xlink" version="1.1" viewBox="0 0 72 105" >
  <title><![CDATA[Tape array]]></title>
  <g transform=" scale(3.000000) ">
    <!--converted by libvisio2svg-->
    <g>
      <!--emf-blob start-->
      <g>
        <path d="M 18.307,5.61019999999996 L 0,5.61019999999996 L 0,34.8424 L 18.307,34.8424 Z " fill="#0C6D9C" stroke-width="1px" stroke="#0C6D9C"/>
        <path d="M 18.307,5.61019999999996 L 0,5.61019999999996 L 0,34.8424 L 18.307,34.8424 " stroke="none" stroke-width="0" fill="none"/>
        <path d="M 18.307,34.8424 L 23.9172,28.9369 L 23.9172,0 L 5.90550000000002,0 L 0,5.61019999999996 L 18.307,5.61019999999996 L 18.307,34.8424 Z " fill="#0C6D9C" stroke-width="1px" stroke="#0C6D9C"/>
        <path d="M 18.307,5.61019999999996 L 23.9172,0 Z " fill="#0C6D9C" stroke-width="1px" stroke="#0C6D9C"/>
        <path d="M 18.307,5.61019999999996 L 23.9172,0 " stroke="none" stroke-width="0" fill="none"/>
        <path d="M 18.307,5.61019999999996 L 0,5.61019999999996 L 0,34.8424 L 18.307,34.8424 Z " fill="#0E6F9C" stroke-width="1px" stroke="#0E6F9C"/>
        <path d="M 18.307,5.61019999999996 L 0,5.61019999999996 L 0,34.8424 L 18.307,34.8424 " stroke="#FFFFFF" stroke-width="0.8858" stroke-linecap="butt" stroke-linejoin="miter" fill="none"/>
        <path d="M 18.307,34.8424 L 23.9172,28.9369 L 23.9172,0 L 5.90550000000002,0 L 0,5.61019999999996 L 18.307,5.61019999999996 L 18.307,34.8424 Z " fill="#0E6F9C" stroke="#FFFFFF" stroke-width="0.8858" stroke-linecap="butt" stroke-linejoin="miter"/>
        <path d="M 18.307,5.61019999999996 L 23.9172,0 Z " fill="#FFFFFF" stroke-width="1px" stroke="#FFFFFF"/>
        <path d="M 18.307,5.61019999999996 L 23.9172,0 " stroke="none" stroke-width="0" fill="none"/>
        <path d="M 18.307,5.61019999999996 L 0,5.61019999999996 L 0,34.8424 L 18.307,34.8424 " stroke="#FFFFFF" stroke-width="0.8858" stroke-linecap="butt" stroke-linejoin="miter" fill="none"/>
        <path d="M 18.307,34.8424 L 23.9172,28.9369 L 23.9172,0 L 5.90550000000002,0 L 0,5.61019999999996 L 18.307,5.61019999999996 L 18.307,34.8424 Z " fill="none" stroke="#FFFFFF" stroke-width="0.8858" stroke-linecap="butt" stroke-linejoin="miter"/>
        <path d="M 18.307,5.61019999999996 L 23.9172,0 " stroke="#FFFFFF" stroke-width="0.8858" stroke-linecap="butt" stroke-linejoin="miter" fill="none"/>
        <path d="M 18.307,5.61019999999996 L 0,5.61019999999996 L 0,34.8424 L 18.307,34.8424 Z " fill="#0C6D9C" stroke-width="1px" stroke="#0C6D9C"/>
        <path d="M 18.307,5.61019999999996 L 0,5.61019999999996 L 0,34.8424 L 18.307,34.8424 " stroke="none" stroke-width="0" fill="none"/>
        <path d="M 18.307,34.8424 L 23.9172,28.9369 L 23.9172,0 L 5.90550000000002,0 L 0,5.61019999999996 L 18.307,5.61019999999996 L 18.307,34.8424 Z " fill="#0C6D9C" stroke-width="1px" stroke="#0C6D9C"/>
        <path d="M 18.307,5.61019999999996 L 23.9172,0 Z " fill="#0C6D9C" stroke-width="1px" stroke="#0C6D9C"/>
        <path d="M 18.307,5.61019999999996 L 23.9172,0 " stroke="none" stroke-width="0" fill="none"/>
        <path d="M 18.307,5.61019999999996 L 0,5.61019999999996 L 0,34.8424 L 18.307,34.8424 Z " fill="#0E6F9C" stroke-width="1px" stroke="#0E6F9C"/>
        <path d="M 18.307,5.61019999999996 L 0,5.61019999999996 L 0,34.8424 L 18.307,34.8424 " stroke="#FFFFFF" stroke-width="0.8858" stroke-linecap="butt" stroke-linejoin="miter" fill="none"/>
        <path d="M 18.307,34.8424 L 23.9172,28.9369 L 23.9172,0 L 5.90550000000002,0 L 0,5.61019999999996 L 18.307,5.61019999999996 L 18.307,34.8424 Z " fill="#0E6F9C" stroke="#FFFFFF" stroke-width="0.8858" stroke-linecap="butt" stroke-linejoin="miter"/>
        <path d="M 18.307,5.61019999999996 L 23.9172,0 Z " fill="#FFFFFF" stroke-width="1px" stroke="#FFFFFF"/>
        <path d="M 18.307,5.61019999999996 L 23.9172,0 " stroke="none" stroke-width="0" fill="none"/>
        <path d="M 18.307,5.61019999999996 L 0,5.61019999999996 L 0,34.8424 L 18.307,34.8424 " stroke="#FFFFFF" stroke-width="0.8858" stroke-linecap="butt" stroke-linejoin="miter" fill="none"/>
        <path d="M 18.307,34.8424 L 23.9172,28.9369 L 23.9172,0 L 5.90550000000002,0 L 0,5.61019999999996 L 18.307,5.61019999999996 L 18.307,34.8424 Z " fill="none" stroke="#FFFFFF" stroke-width="0.8858" stroke-linecap="butt" stroke-linejoin="miter"/>
        <path d="M 18.307,5.61019999999996 L 23.9172,0 " stroke="#FFFFFF" stroke-width="0.8858" stroke-linecap="butt" stroke-linejoin="miter" fill="none"/>
        <path d="M 15.6495,14.1732 L 15.6495,9.15349999999995 L 3.24799999999999,9.15349999999995 L 3.24799999999999,14.1732 L 15.6495,14.1732 Z " fill="none" stroke="#FFFFFF" stroke-width="0.8858" stroke-linecap="round" stroke-linejoin="round"/>
        <path d="M 7.6771,11.5157 C 7.6771,12.4015 7.08660000000003,12.9921 6.49599999999998,12.9921 C 5.61020000000002,12.9921 5.0197,12.4015 5.0197,11.5157 C 5.0197,10.9251 5.61020000000002,10.3346 6.49599999999998,10.3346 C 7.08660000000003,10.3346 7.6771,10.9251 7.6771,11.5157 Z Z " fill="#000000" stroke="#FFFFFF" stroke-width="0.8858" stroke-linecap="round" stroke-linejoin="round"/>
        <path d="M 13.2873,11.5157 C 13.2873,12.4015 12.6968,12.9921 12.1062,12.9921 C 11.5157,12.9921 10.9251,12.4015 10.9251,11.5157 C 10.9251,10.9251 11.5157,10.3346 12.1062,10.3346 C 12.6968,10.3346 13.2873,10.9251 13.2873,11.5157 Z Z " fill="#000000" stroke="#FFFFFF" stroke-width="0.8858" stroke-linecap="round" stroke-linejoin="round"/>
        <path d="M 15.6495,23.0314 L 15.6495,18.0117 L 3.24799999999999,18.0117 L 3.24799999999999,23.0314 L 15.6495,23.0314 Z " fill="none" stroke="#FFFFFF" stroke-width="0.8858" stroke-linecap="round" stroke-linejoin="round"/>
        <path d="M 7.6771,20.3739 C 7.6771,21.2598 7.08660000000003,21.8502999999999 6.49599999999998,21.8502999999999 C 5.61020000000002,21.8502999999999 5.0197,21.2598 5.0197,20.3739 C 5.0197,19.7834 5.61020000000002,19.1928 6.49599999999998,19.1928 C 7.08660000000003,19.1928 7.6771,19.7834 7.6771,20.3739 Z Z " fill="#000000" stroke="#FFFFFF" stroke-width="0.8858" stroke-linecap="round" stroke-linejoin="round"/>
        <path d="M 13.2873,20.3739 C 13.2873,21.2598 12.6968,21.8502999999999 12.1062,21.8502999999999 C 11.5157,21.8502999999999 10.9251,21.2598 10.9251,20.3739 C 10.9251,19.7834 11.5157,19.1928 12.1062,19.1928 C 12.6968,19.1928 13.2873,19.7834 13.2873,20.3739 Z Z " fill="#000000" stroke="#FFFFFF" stroke-width="0.8858" stroke-linecap="round" stroke-linejoin="round"/>
        <path d="M 15.6495,31.8896999999999 L 15.6495,26.8699999999999 L 3.24799999999999,26.8699999999999 L 3.24799999999999,31.8896999999999 L 15.6495,31.8896999999999 Z " fill="none" stroke="#FFFFFF" stroke-width="0.8858" stroke-linecap="round" stroke-linejoin="round"/>
        <path d="M 7.6771,29.2322 C 7.6771,30.118 7.08660000000003,30.7086 6.49599999999998,30.7086 C 5.61020000000002,30.7086 5.0197,30.118 5.0197,29.2322 C 5.0197,28.6416 5.61020000000002,28.0511 6.49599999999998,28.0511 C 7.08660000000003,28.0511 7.6771,28.6416 7.6771,29.2322 Z Z " fill="#000000" stroke="#FFFFFF" stroke-width="0.8858" stroke-linecap="round" stroke-linejoin="round"/>
        <path d="M 13.2873,29.2322 C 13.2873,30.118 12.6968,30.7086 12.1062,30.7086 C 11.5157,30.7086 10.9251,30.118 10.9251,29.2322 C 10.9251,28.6416 11.5157,28.0511 12.1062,28.0511 C 12.6968,28.0511 13.2873,28.6416 13.2873,29.2322 Z Z " fill="#000000" stroke="#FFFFFF" stroke-width="0.8858" stroke-linecap="round" stroke-linejoin="round"/>
        <path d="M 6.49599999999998,10.3346 L 12.1062,10.3346 " stroke="#FFFFFF" stroke-width="0.8858" stroke-linecap="round" stroke-linejoin="round" fill="none"/>
        <path d="M 6.49599999999998,19.1928 L 12.1062,19.1928 " stroke="#FFFFFF" stroke-width="0.8858" stroke-linecap="round" stroke-linejoin="round" fill="none"/>
        <path d="M 6.49599999999998,28.0511 L 12.1062,28.0511 " stroke="#FFFFFF" stroke-width="0.8858" stroke-linecap="round" stroke-linejoin="round" fill="none"/>
      </g>
      <!--emf-blob end-->
    </g>
  </g>
</svg>

