<svg xmlns="http://www.w3.org/2000/svg" xmlns:xlink="http://www.w3.org/1999/xlink" version="1.1" viewBox="0 0 132 90" >
  <title><![CDATA[TDM router]]></title>
  <g transform=" scale(3.000000) ">
    <!--converted by libvisio2svg-->
    <g>
      <!--emf-blob start-->
      <g>
        <path d="M 43.395,8.26570000000004 C 43.395,12.9889 33.6532,16.8266 21.5499,16.8266 C 9.74169999999998,16.8266 0,12.9889 0,8.26570000000004 C 0,20.6642 0,20.6642 0,20.6642 C 0,25.3875 9.74169999999998,29.2252 21.5499,29.2252 C 33.6532,29.2252 43.395,25.3875 43.395,20.6642 Z Z " fill="#0E6F9C" stroke="#FFFFFF" stroke-width="0.8856" stroke-linecap="butt" stroke-linejoin="miter"/>
        <path d="M 21.5499,16.8266 C 33.6532,16.8266 43.395,12.9889 43.395,8.26570000000004 C 43.395,3.83760000000001 33.6532,0 21.5499,0 C 9.74169999999998,0 0,3.83760000000001 0,8.26570000000004 C 0,12.9889 9.74169999999998,16.8266 21.5499,16.8266 Z Z " fill="#0E6F9C" stroke="#FFFFFF" stroke-width="0.8856" stroke-linecap="butt" stroke-linejoin="miter"/>
        <path d="M 16.8266,5.01840000000004 L 18.5978,7.67529999999999 L 11.8081,9.44650000000001 L 13.2842,7.97050000000002 L 2.65679999999998,6.19920000000002 L 5.31360000000001,4.428 L 15.3506,5.904 L 16.8266,5.01840000000004 Z " fill="#FFFFFF" stroke-width="1px" stroke="#FFFFFF"/>
        <path d="M 26.2731,11.5129 L 25.0923,8.85610000000003 L 30.9964,7.67529999999999 L 30.1108,8.5609 L 40.1477,10.3321 L 37.7861,12.1033 L 27.7492,10.3321 L 26.2731,11.5129 Z " fill="#FFFFFF" stroke-width="1px" stroke="#FFFFFF"/>
        <path d="M 23.0259,3.54240000000004 L 29.8156,1.77120000000002 L 29.8156,4.72320000000002 L 28.0444,4.428 L 24.7971,7.0849 L 21.5499,6.78970000000004 L 25.0923,3.83760000000001 L 23.0259,3.54240000000004 Z " fill="#FFFFFF" stroke-width="1px" stroke="#FFFFFF"/>
        <path d="M 20.0738,14.1698 L 13.2842,15.3506 L 13.2842,12.3985 L 15.0554,12.6937 L 18.5978,9.74170000000004 L 21.8451,10.3321 L 18.0074,13.5793 L 20.0738,14.1698 Z " fill="#FFFFFF" stroke-width="1px" stroke="#FFFFFF"/>
        <path d="M 20.6643,23.6163 L 20.6643,25.3875 L 18.5978,25.0923 L 21.5499,28.93 L 24.7971,25.0923 L 22.4355,25.3875 L 22.4355,23.6163 Z " fill="#FFFFFF" stroke-width="1px" stroke="#FFFFFF"/>
        <path d="M 20.6643,23.6163 L 20.6643,25.3875 L 18.5978,25.0923 L 21.5499,28.93 L 24.7971,25.0923 L 22.4355,25.3875 L 22.4355,23.6163 " stroke="none" stroke-width="0" fill="none"/>
        <path d="M 25.3875,21.8451 L 16.8266,21.8451 L 16.8266,20.0738 L 13.2842,22.7307 L 16.8266,25.9779 L 16.8266,23.6163 L 25.3875,23.6163 Z " fill="#FFFFFF" stroke-width="1px" stroke="#FFFFFF"/>
        <path d="M 25.3875,21.8451 L 16.8266,21.8451 L 16.8266,20.0738 L 13.2842,22.7307 L 16.8266,25.9779 L 16.8266,23.6163 L 25.3875,23.6163 " stroke="none" stroke-width="0" fill="none"/>
        <path d="M 18.0074,23.6163 L 26.5683,23.6163 L 26.5683,25.6827 L 30.1108,22.7307 L 26.5683,19.7786 L 26.5683,21.8451 L 18.0074,21.8451 Z " fill="#FFFFFF" stroke-width="1px" stroke="#FFFFFF"/>
        <path d="M 18.0074,23.6163 L 26.5683,23.6163 L 26.5683,25.6827 L 30.1108,22.7307 L 26.5683,19.7786 L 26.5683,21.8451 L 18.0074,21.8451 " stroke="none" stroke-width="0" fill="none"/>
        <path d="M 22.4355,23.9115 L 22.4355,22.4355 L 20.9595,22.4355 L 20.9595,23.9115 L 22.4355,23.9115 Z " fill="#FFFFFF" stroke-width="1px" stroke="#FFFFFF"/>
        <g transform=" scale(3.000000) ">
          <text font-family="Helvetica" fill="#FFFFFF" style="white-space:pre;" font-weight="700" text-anchor="start" x="0.0000" y="0.0000" font-size="4.7233"><![CDATA[TDM]]></text>
        </g>
        <g transform=" scale(3.000000) ">
</g>
      </g>
      <!--emf-blob end-->
    </g>
  </g>
</svg>

