<svg xmlns="http://www.w3.org/2000/svg" xmlns:xlink="http://www.w3.org/1999/xlink" version="1.1" viewBox="0 0 231 84" >
  <title><![CDATA[Telepresence 3200]]></title>
  <g transform=" scale(3.000000) ">
    <!--converted by libvisio2svg-->
    <g>
      <!--emf-blob start-->
      <g>
        <path d="M 50.1924,25.982 L 50.1924,7.08599999999996 L 26.2772,7.08599999999996 L 26.2772,25.982 L 50.1924,25.982 L 50.1924,25.982 Z " fill="#0084C0" stroke="#FFFFFF" stroke-width="1.3286" stroke-linecap="butt" stroke-linejoin="miter"/>
        <path d="M 47.8304,23.62 L 47.8304,9.15279999999996 L 28.6392,9.15279999999996 L 28.6392,23.62 L 47.8304,23.62 L 47.8304,23.62 Z " fill="#FFFFFF" stroke-width="1px" stroke="#FFFFFF"/>
        <path d="M 26.2772,7.08599999999996 L 23.9152,5.01929999999999 L 52.5544,5.01929999999999 L 50.1924,7.08599999999996 L 26.2772,7.08599999999996 L 26.2772,7.08599999999996 Z " fill="#0084C0" stroke="#FFFFFF" stroke-width="1.3286" stroke-linecap="butt" stroke-linejoin="miter"/>
        <path d="M 50.1924,25.982 L 52.5544,23.0295 L 52.5544,5.01929999999999 L 50.1924,7.08599999999996 L 50.1924,25.982 L 50.1924,25.982 Z " fill="#0084C0" stroke="#FFFFFF" stroke-width="1.3286" stroke-linecap="butt" stroke-linejoin="miter"/>
        <path d="M 74.1076,27.4582 L 74.1076,8.56229999999999 L 50.1924,7.08599999999996 L 50.1924,25.982 L 74.1076,27.4582 L 74.1076,27.4582 Z " fill="#0084C0" stroke="#FFFFFF" stroke-width="1.3286" stroke-linecap="butt" stroke-linejoin="miter"/>
        <path d="M 71.7456,25.0962 L 71.7456,10.629 L 52.5544,9.44799999999998 L 52.5544,23.9152 L 71.7456,25.0962 L 71.7456,25.0962 Z " fill="#FFFFFF" stroke-width="1px" stroke="#FFFFFF"/>
        <path d="M 50.1924,7.08599999999996 L 52.5544,5.31450000000001 L 76.4696,6.79079999999999 L 74.1076,8.56229999999999 L 50.1924,7.08599999999996 L 50.1924,7.08599999999996 Z " fill="#0084C0" stroke="#FFFFFF" stroke-width="1.3286" stroke-linecap="butt" stroke-linejoin="miter"/>
        <path d="M 74.1076,27.4582 L 76.7648,24.5057 L 76.7648,6.49549999999999 L 74.1076,8.56229999999999 L 74.1076,27.4582 L 74.1076,27.4582 Z " fill="#0084C0" stroke="#FFFFFF" stroke-width="1.3286" stroke-linecap="butt" stroke-linejoin="miter"/>
        <path d="M 2.36200000000002,27.4582 L 2.36200000000002,8.56229999999999 L 26.2772,7.08599999999996 L 26.2772,25.982 L 2.36200000000002,27.4582 L 2.36200000000002,27.4582 Z " fill="#0084C0" stroke="#FFFFFF" stroke-width="1.3286" stroke-linecap="butt" stroke-linejoin="miter"/>
        <path d="M 4.72399999999999,25.0962 L 4.72399999999999,10.629 L 23.9152,9.44799999999998 L 23.9152,23.9152 L 4.72399999999999,25.0962 L 4.72399999999999,25.0962 Z " fill="#FFFFFF" stroke-width="1px" stroke="#FFFFFF"/>
        <path d="M 26.2772,7.08599999999996 L 23.9152,5.31450000000001 L 0,6.79079999999999 L 2.36200000000002,8.56229999999999 L 26.2772,7.08599999999996 L 26.2772,7.08599999999996 Z " fill="#0084C0" stroke="#FFFFFF" stroke-width="1.3286" stroke-linecap="butt" stroke-linejoin="miter"/>
        <path d="M 2.36200000000002,27.4582 L 0,24.5057 L 0,6.49549999999999 L 2.36200000000002,8.56229999999999 L 2.36200000000002,27.4582 L 2.36200000000002,27.4582 Z " fill="#0084C0" stroke="#FFFFFF" stroke-width="1.3286" stroke-linecap="butt" stroke-linejoin="miter"/>
        <path d="M 41.6302,7.67649999999998 L 41.6302,0 L 35.1347,0 L 35.1347,7.67649999999998 L 41.6302,7.67649999999998 L 41.6302,7.67649999999998 Z " fill="#0084C0" stroke="#FFFFFF" stroke-width="0.88575" stroke-linecap="butt" stroke-linejoin="miter"/>
        <path d="M 40.4492,4.72399999999999 C 40.4492,5.60980000000001 39.5634,6.49549999999999 38.6777,6.49549999999999 C 37.4967,6.49549999999999 36.6109,5.60980000000001 36.6109,4.72399999999999 C 36.6109,3.54300000000001 37.4967,2.65729999999996 38.6777,2.65729999999996 C 39.5634,2.65729999999996 40.4492,3.54300000000001 40.4492,4.72399999999999 Z Z " fill="#0084C0" stroke="#FFFFFF" stroke-width="0.88575" stroke-linecap="butt" stroke-linejoin="miter"/>
        <path d="M 48.1256,7.67649999999998 L 48.1256,0 L 41.6302,0 L 41.6302,7.67649999999998 L 48.1256,7.67649999999998 L 48.1256,7.67649999999998 Z " fill="#0084C0" stroke="#FFFFFF" stroke-width="0.88575" stroke-linecap="butt" stroke-linejoin="miter"/>
        <path d="M 46.9447,4.72399999999999 C 46.9447,5.60980000000001 46.0589,6.49549999999999 44.8779,6.49549999999999 C 43.9922,6.49549999999999 43.1064,5.60980000000001 43.1064,4.72399999999999 C 43.1064,3.54300000000001 43.9922,2.65729999999996 44.8779,2.65729999999996 C 46.0589,2.65729999999996 46.9447,3.54300000000001 46.9447,4.72399999999999 Z Z " fill="#0084C0" stroke="#FFFFFF" stroke-width="0.88575" stroke-linecap="butt" stroke-linejoin="miter"/>
        <path d="M 35.1347,7.67649999999998 L 35.1347,0 L 28.9345,0 L 28.9345,7.67649999999998 L 35.1347,7.67649999999998 L 35.1347,7.67649999999998 Z " fill="#0084C0" stroke="#FFFFFF" stroke-width="0.88575" stroke-linecap="butt" stroke-linejoin="miter"/>
        <path d="M 33.9537,4.72399999999999 C 33.9537,5.60980000000001 33.0679,6.49549999999999 32.1822,6.49549999999999 C 31.0012,6.49549999999999 30.1155,5.60980000000001 30.1155,4.72399999999999 C 30.1155,3.54300000000001 31.0012,2.65729999999996 32.1822,2.65729999999996 C 33.0679,2.65729999999996 33.9537,3.54300000000001 33.9537,4.72399999999999 Z Z " fill="#0084C0" stroke="#FFFFFF" stroke-width="0.88575" stroke-linecap="butt" stroke-linejoin="miter"/>
        <path d="M 40.4492,16.2387 C 40.4492,18.896 40.4492,18.896 40.4492,18.896 C 35.7252,18.896 35.7252,18.896 35.7252,18.896 C 35.7252,16.2387 35.7252,16.2387 35.7252,16.2387 C 38.0872,14.7625 40.4492,16.2387 40.4492,16.2387 Z Z " fill="#0084C0" stroke="#FFFFFF" stroke-width="0.88575" stroke-linecap="butt" stroke-linejoin="miter"/>
        <path d="M 39.5634,14.172 C 39.5634,15.0577 38.9729,15.6482 38.0872,15.6482 C 37.4967,15.6482 36.6109,15.0577 36.6109,14.172 C 36.6109,13.2863 37.4967,12.6958 38.0872,12.6958 C 38.9729,12.6958 39.5634,13.2863 39.5634,14.172 Z Z " fill="#0084C0" stroke="#FFFFFF" stroke-width="0.88575" stroke-linecap="butt" stroke-linejoin="miter"/>
        <path d="M 37.4967,18.0102 C 37.4967,20.6675 37.4967,20.6675 37.4967,20.6675 C 32.4774,20.6675 32.4774,20.6675 32.4774,20.6675 C 32.4774,18.0102 32.4774,18.0102 32.4774,18.0102 C 35.1347,16.534 37.4967,18.0102 37.4967,18.0102 Z Z " fill="#0084C0" stroke="#FFFFFF" stroke-width="0.88575" stroke-linecap="butt" stroke-linejoin="miter"/>
        <path d="M 36.6109,15.9435 C 36.6109,16.8292 36.0204,17.4197 35.1347,17.4197 C 34.2489,17.4197 33.6584,16.8292 33.6584,15.9435 C 33.6584,15.0577 34.2489,14.4672 35.1347,14.4672 C 36.0204,14.4672 36.6109,15.0577 36.6109,15.9435 Z Z " fill="#0084C0" stroke="#FFFFFF" stroke-width="0.88575" stroke-linecap="butt" stroke-linejoin="miter"/>
        <path d="M 43.6969,18.0102 C 43.6969,20.6675 43.6969,20.6675 43.6969,20.6675 C 38.9729,20.6675 38.9729,20.6675 38.9729,20.6675 C 38.9729,18.0102 38.9729,18.0102 38.9729,18.0102 C 41.3349,16.534 43.6969,18.0102 43.6969,18.0102 Z Z " fill="#0084C0" stroke="#FFFFFF" stroke-width="0.88575" stroke-linecap="butt" stroke-linejoin="miter"/>
        <path d="M 42.8112,15.9435 C 42.8112,16.8292 42.2207,17.4197 41.3349,17.4197 C 40.4492,17.4197 39.8587,16.8292 39.8587,15.9435 C 39.8587,15.0577 40.4492,14.4672 41.3349,14.4672 C 42.2207,14.4672 42.8112,15.0577 42.8112,15.9435 Z Z " fill="#0084C0" stroke="#FFFFFF" stroke-width="0.88575" stroke-linecap="butt" stroke-linejoin="miter"/>
        <path d="M 34.5442,19.7817 C 34.5442,23.3247 34.5442,23.3247 34.5442,23.3247 C 29.525,23.3247 29.525,23.3247 29.525,23.3247 C 29.525,19.7817 29.525,19.7817 29.525,19.7817 C 32.1822,18.3055 34.5442,19.7817 34.5442,19.7817 Z Z " fill="#0084C0" stroke="#FFFFFF" stroke-width="0.88575" stroke-linecap="butt" stroke-linejoin="miter"/>
        <path d="M 33.6584,17.715 C 33.6584,18.6007 32.7727,19.1912 32.1822,19.1912 C 31.2964,19.1912 30.706,18.6007 30.706,17.715 C 30.706,16.8292 31.2964,16.2387 32.1822,16.2387 C 32.7727,16.2387 33.6584,16.8292 33.6584,17.715 Z Z " fill="#0084C0" stroke="#FFFFFF" stroke-width="0.88575" stroke-linecap="butt" stroke-linejoin="miter"/>
        <path d="M 40.7444,19.7817 C 40.7444,23.3247 40.7444,23.3247 40.7444,23.3247 C 36.0204,23.3247 36.0204,23.3247 36.0204,23.3247 C 36.0204,19.7817 36.0204,19.7817 36.0204,19.7817 C 38.3824,18.3055 40.7444,19.7817 40.7444,19.7817 Z Z " fill="#0084C0" stroke="#FFFFFF" stroke-width="0.88575" stroke-linecap="butt" stroke-linejoin="miter"/>
        <path d="M 39.8587,17.715 C 39.8587,18.6007 39.2682,19.1912 38.3824,19.1912 C 37.4967,19.1912 36.9062,18.6007 36.9062,17.715 C 36.9062,16.8292 37.4967,16.2387 38.3824,16.2387 C 39.2682,16.2387 39.8587,16.8292 39.8587,17.715 Z Z " fill="#0084C0" stroke="#FFFFFF" stroke-width="0.88575" stroke-linecap="butt" stroke-linejoin="miter"/>
        <path d="M 46.9447,19.7817 C 46.9447,23.3247 46.9447,23.3247 46.9447,23.3247 C 42.2207,23.3247 42.2207,23.3247 42.2207,23.3247 C 42.2207,19.7817 42.2207,19.7817 42.2207,19.7817 C 44.5827,18.3055 46.9447,19.7817 46.9447,19.7817 Z Z " fill="#0084C0" stroke="#FFFFFF" stroke-width="0.88575" stroke-linecap="butt" stroke-linejoin="miter"/>
        <path d="M 46.0589,17.715 C 46.0589,18.6007 45.4684,19.1912 44.5827,19.1912 C 43.6969,19.1912 43.1064,18.6007 43.1064,17.715 C 43.1064,16.8292 43.6969,16.2387 44.5827,16.2387 C 45.4684,16.2387 46.0589,16.8292 46.0589,17.715 Z Z " fill="#0084C0" stroke="#FFFFFF" stroke-width="0.88575" stroke-linecap="butt" stroke-linejoin="miter"/>
        <path d="M 11.5148,17.4197 C 11.5148,20.3722 11.5148,20.3722 11.5148,20.3722 C 17.1245,20.077 17.1245,20.077 17.1245,20.077 C 17.1245,16.8292 17.1245,16.8292 17.1245,16.8292 C 14.172,15.353 11.5148,17.4197 11.5148,17.4197 Z Z " fill="#0084C0" stroke="#FFFFFF" stroke-width="0.88575" stroke-linecap="butt" stroke-linejoin="miter"/>
        <path d="M 12.6958,15.0577 C 12.6958,15.9435 13.2863,16.534 14.172,16.534 C 15.0578,16.534 15.9435,15.6482 15.9435,14.7625 C 15.9435,13.8767 15.0578,13.2863 14.172,13.2863 C 13.2863,13.2863 12.6958,14.172 12.6958,15.0577 Z Z " fill="#0084C0" stroke="#FFFFFF" stroke-width="0.88575" stroke-linecap="butt" stroke-linejoin="miter"/>
        <path d="M 8.56229999999999,19.1912 C 8.56229999999999,23.0295 8.56229999999999,23.0295 8.56229999999999,23.0295 C 13.8768,22.7342 13.8768,22.7342 13.8768,22.7342 C 13.8768,18.6007 13.8768,18.6007 13.8768,18.6007 C 11.2195,17.1245 8.56229999999999,19.1912 8.56229999999999,19.1912 Z Z " fill="#0084C0" stroke="#FFFFFF" stroke-width="0.88575" stroke-linecap="butt" stroke-linejoin="miter"/>
        <path d="M 9.44800000000004,16.8292 C 9.44800000000004,17.715 10.3338,18.3055 11.2195,18.3055 C 12.1053,18.3055 12.991,17.4197 12.991,16.534 C 12.991,15.6482 12.1053,15.0577 11.2195,15.0577 C 10.3338,15.0577 9.44800000000004,15.9435 9.44800000000004,16.8292 Z Z " fill="#0084C0" stroke="#FFFFFF" stroke-width="0.88575" stroke-linecap="butt" stroke-linejoin="miter"/>
        <path d="M 14.4673,18.6007 C 14.4673,22.7342 14.4673,22.7342 14.4673,22.7342 C 20.077,21.5532 20.077,21.5532 20.077,21.5532 C 20.077,18.3055 20.077,18.3055 20.077,18.3055 C 17.4197,16.8292 14.4673,18.6007 14.4673,18.6007 Z Z " fill="#0084C0" stroke="#FFFFFF" stroke-width="0.88575" stroke-linecap="butt" stroke-linejoin="miter"/>
        <path d="M 15.6482,16.2387 C 15.6482,17.4197 16.2387,18.0102 17.1245,18.0102 C 18.0102,18.0102 18.896,17.1245 18.896,16.2387 C 18.896,15.353 18.0102,14.4672 17.1245,14.7625 C 16.2387,14.7625 15.6482,15.353 15.6482,16.2387 Z Z " fill="#0084C0" stroke="#FFFFFF" stroke-width="0.88575" stroke-linecap="butt" stroke-linejoin="miter"/>
        <path d="M 5.60980000000001,20.6675 C 5.60980000000001,24.5057 5.60980000000001,24.5057 5.60980000000001,24.5057 C 10.9243,24.2105 10.9243,24.2105 10.9243,24.2105 C 10.9243,20.3722 10.9243,20.3722 10.9243,20.3722 C 8.267,18.896 5.60980000000001,20.6675 5.60980000000001,20.6675 Z Z " fill="#0084C0" stroke="#FFFFFF" stroke-width="0.88575" stroke-linecap="butt" stroke-linejoin="miter"/>
        <path d="M 6.49549999999999,18.3055 C 6.49549999999999,19.1912 7.38130000000001,19.7817 8.267,19.7817 C 9.15280000000001,19.7817 9.74330000000003,18.896 9.74330000000003,18.0102 C 9.74330000000003,17.1245 9.15280000000001,16.534 8.267,16.534 C 7.38130000000001,16.534 6.49549999999999,17.4197 6.49549999999999,18.3055 Z Z " fill="#0084C0" stroke="#FFFFFF" stroke-width="0.88575" stroke-linecap="butt" stroke-linejoin="miter"/>
        <path d="M 11.81,20.3722 C 11.81,24.2105 11.81,24.2105 11.81,24.2105 C 17.4197,23.9152 17.4197,23.9152 17.4197,23.9152 C 17.4197,20.077 17.4197,20.077 17.4197,20.077 C 14.7625,18.6007 11.81,20.3722 11.81,20.3722 Z Z " fill="#0084C0" stroke="#FFFFFF" stroke-width="0.88575" stroke-linecap="butt" stroke-linejoin="miter"/>
        <path d="M 12.991,18.0102 C 12.991,18.896 13.5815,19.4865 14.4673,19.4865 C 15.353,19.4865 16.2387,18.6007 16.2387,17.715 C 16.2387,16.8292 15.353,16.2387 14.4673,16.2387 C 13.5815,16.2387 12.991,17.1245 12.991,18.0102 Z Z " fill="#0084C0" stroke="#FFFFFF" stroke-width="0.88575" stroke-linecap="butt" stroke-linejoin="miter"/>
        <path d="M 18.0102,20.077 C 18.0102,23.9152 18.0102,23.9152 18.0102,23.9152 C 23.3247,23.62 23.3247,23.62 23.3247,23.62 C 23.3247,19.4865 23.3247,19.4865 23.3247,19.4865 C 20.6675,18.0102 18.0102,20.077 18.0102,20.077 Z Z " fill="#0084C0" stroke="#FFFFFF" stroke-width="0.88575" stroke-linecap="butt" stroke-linejoin="miter"/>
        <path d="M 18.896,17.715 C 18.896,18.6007 19.7817,19.1912 20.6675,19.1912 C 21.5532,19.1912 22.1437,18.3055 22.1437,17.4197 C 22.1437,16.534 21.5532,15.9435 20.6675,15.9435 C 19.7817,15.9435 18.896,16.8292 18.896,17.715 Z Z " fill="#0084C0" stroke="#FFFFFF" stroke-width="0.88575" stroke-linecap="butt" stroke-linejoin="miter"/>
        <path d="M 64.9548,17.4197 C 64.9548,20.3722 64.9548,20.3722 64.9548,20.3722 C 59.6404,20.077 59.6404,20.077 59.6404,20.077 C 59.6404,16.8292 59.6404,16.8292 59.6404,16.8292 C 62.2976,15.353 64.9548,17.4197 64.9548,17.4197 Z Z " fill="#0084C0" stroke="#FFFFFF" stroke-width="0.88575" stroke-linecap="butt" stroke-linejoin="miter"/>
        <path d="M 64.0691,15.0577 C 64.0691,15.9435 63.1833,16.534 62.2976,16.534 C 61.4119,16.534 60.5261,15.6482 60.5261,14.7625 C 60.5261,13.8767 61.4119,13.2863 62.2976,13.2863 C 63.1833,13.2863 64.0691,14.172 64.0691,15.0577 Z Z " fill="#0084C0" stroke="#FFFFFF" stroke-width="0.88575" stroke-linecap="butt" stroke-linejoin="miter"/>
        <path d="M 67.9073,19.1912 C 67.9073,22.7342 67.9073,22.7342 67.9073,22.7342 C 62.5929,21.8485 62.5929,21.8485 62.5929,21.8485 C 62.5929,18.6007 62.5929,18.6007 62.5929,18.6007 C 65.2501,17.1245 67.9073,19.1912 67.9073,19.1912 Z Z " fill="#0084C0" stroke="#FFFFFF" stroke-width="0.88575" stroke-linecap="butt" stroke-linejoin="miter"/>
        <path d="M 67.0216,16.8292 C 67.0216,17.715 66.1358,18.3055 65.2501,18.3055 C 64.3643,18.3055 63.7738,17.4197 63.7738,16.534 C 63.7738,15.6482 64.3643,15.0577 65.2501,15.0577 C 66.1358,15.0577 67.0216,15.9435 67.0216,16.8292 Z Z " fill="#0084C0" stroke="#FFFFFF" stroke-width="0.88575" stroke-linecap="butt" stroke-linejoin="miter"/>
        <path d="M 62.0024,18.6007 C 62.0024,21.8485 62.0024,21.8485 62.0024,21.8485 C 56.3926,21.5532 56.3926,21.5532 56.3926,21.5532 C 56.3926,18.3055 56.3926,18.3055 56.3926,18.3055 C 59.3451,16.8292 62.0024,18.6007 62.0024,18.6007 Z Z " fill="#0084C0" stroke="#FFFFFF" stroke-width="0.88575" stroke-linecap="butt" stroke-linejoin="miter"/>
        <path d="M 60.8214,16.2387 C 60.8214,17.4197 60.2309,18.0102 59.3451,18.0102 C 58.4594,18.0102 57.5736,17.1245 57.5736,16.2387 C 57.5736,15.353 58.4594,14.4672 59.3451,14.7625 C 60.2309,14.7625 60.8214,15.353 60.8214,16.2387 Z Z " fill="#0084C0" stroke="#FFFFFF" stroke-width="0.88575" stroke-linecap="butt" stroke-linejoin="miter"/>
        <path d="M 71.1551,20.6675 C 71.1551,24.5057 71.1551,24.5057 71.1551,24.5057 C 65.5453,23.9152 65.5453,23.9152 65.5453,23.9152 C 65.5453,20.3722 65.5453,20.3722 65.5453,20.3722 C 68.2026,18.896 71.1551,20.6675 71.1551,20.6675 Z Z " fill="#0084C0" stroke="#FFFFFF" stroke-width="0.88575" stroke-linecap="butt" stroke-linejoin="miter"/>
        <path d="M 69.9741,18.3055 C 69.9741,19.1912 69.3836,19.7817 68.2026,19.7817 C 67.3168,19.7817 66.7263,18.896 66.7263,18.0102 C 66.7263,17.1245 67.3168,16.534 68.2026,16.534 C 69.3836,16.534 69.9741,17.4197 69.9741,18.3055 Z Z " fill="#0084C0" stroke="#FFFFFF" stroke-width="0.88575" stroke-linecap="butt" stroke-linejoin="miter"/>
        <path d="M 64.6596,20.3722 C 64.6596,23.9152 64.6596,23.9152 64.6596,23.9152 C 59.0499,23.62 59.0499,23.62 59.0499,23.62 C 59.0499,20.077 59.0499,20.077 59.0499,20.077 C 62.0024,18.6007 64.6596,20.3722 64.6596,20.3722 Z Z " fill="#0084C0" stroke="#FFFFFF" stroke-width="0.88575" stroke-linecap="butt" stroke-linejoin="miter"/>
        <path d="M 63.4786,18.0102 C 63.4786,18.896 62.8881,19.4865 62.0024,19.4865 C 61.1166,19.4865 60.2309,18.6007 60.2309,17.715 C 60.2309,16.8292 61.1166,16.2387 62.0024,16.2387 C 62.8881,16.2387 63.4786,17.1245 63.4786,18.0102 Z Z " fill="#0084C0" stroke="#FFFFFF" stroke-width="0.88575" stroke-linecap="butt" stroke-linejoin="miter"/>
        <path d="M 58.7546,19.7817 C 58.7546,23.62 58.7546,23.62 58.7546,23.62 C 53.1449,23.3247 53.1449,23.3247 53.1449,23.3247 C 53.1449,19.4865 53.1449,19.4865 53.1449,19.4865 C 55.8021,18.0102 58.7546,19.7817 58.7546,19.7817 Z Z " fill="#0084C0" stroke="#FFFFFF" stroke-width="0.88575" stroke-linecap="butt" stroke-linejoin="miter"/>
        <path d="M 57.5736,17.715 C 57.5736,18.6007 56.9831,19.1912 55.8021,19.1912 C 54.9164,19.1912 54.3259,18.3055 54.3259,17.4197 C 54.3259,16.534 54.9164,15.9435 55.8021,15.9435 C 56.9831,15.9435 57.5736,16.8292 57.5736,17.715 Z Z " fill="#0084C0" stroke="#FFFFFF" stroke-width="0.88575" stroke-linecap="butt" stroke-linejoin="miter"/>
      </g>
      <!--emf-blob end-->
    </g>
  </g>
</svg>

