<svg xmlns="http://www.w3.org/2000/svg" xmlns:xlink="http://www.w3.org/1999/xlink" version="1.1" viewBox="0 0 105 90" >
  <title><![CDATA[Telecommuter icon]]></title>
  <g transform=" scale(3.000000) ">
    <!--converted by libvisio2svg-->
    <g>
      <!--emf-blob start-->
      <g>
        <path d="M 18.8931,4.72319999999996 L 10.6274,4.428 L 6.49450000000002,8.85609999999997 L 9.15129999999999,10.9225 L 11.2178,8.56089999999995 L 16.2362,8.56089999999995 L 10.6274,15.6458 L 12.6938,17.417 L 9.44650000000001,21.5499 L 4.42810000000003,21.5499 L 0.885600000000011,23.0259 L 3.2473,28.3396 L 6.49450000000002,28.6348 L 6.49450000000002,27.4539 L 4.72329999999999,27.4539 L 5.01850000000002,25.0923 L 12.3986,25.3875 L 16.8266,20.0737999999999 L 26.8636,29.5204 L 32.1773,23.6163 L 30.9964,22.4355 L 28.6348,24.7971 L 20.3691,17.1218 L 23.9115,12.3985 L 27.1588,14.7602 L 34.2437,14.7602 L 34.5389,12.1033 L 29.2252,11.8081 L 18.8931,4.72319999999996 Z " fill="#126D99" stroke-width="1px" stroke="#126D99"/>
        <path d="M 22.1403,0 L 28.3396,0.295199999999966 L 28.0444,6.78969999999998 L 22.1403,6.49449999999996 L 22.1403,0 Z " fill="#126D99" stroke-width="1px" stroke="#126D99"/>
        <path d="M 3.83770000000004,7.97049999999996 L 10.9226,13.5794 L 6.78970000000004,18.3026 L 0,12.6937 L 3.83770000000004,7.97049999999996 Z " fill="#126D99" stroke-width="1px" stroke="#126D99"/>
      </g>
      <!--emf-blob end-->
    </g>
  </g>
</svg>

