<svg xmlns="http://www.w3.org/2000/svg" xmlns:xlink="http://www.w3.org/1999/xlink" version="1.1" viewBox="0 0 174 150" >
  <title><![CDATA[Telecommuter house]]></title>
  <g transform=" scale(3.000000) ">
    <!--converted by libvisio2svg-->
    <g>
      <!--emf-blob start-->
      <g>
        <path d="M 23.914,3.5428 L 29.2282,0 L 32.1805,0 L 31.8853,2.65710000000001 L 28.0473,6.19990000000001 L 23.914,3.5428 Z " fill="#126D99" stroke="#FFFFFF" stroke-width="0.8857" stroke-linecap="butt" stroke-linejoin="miter"/>
        <path d="M 4.13330000000002,28.6376 L 41.628,28.6376 L 41.628,49.0088 L 4.13330000000002,49.0088 L 4.13330000000002,28.6376 Z " fill="#126D99" stroke="#FFFFFF" stroke-width="0.8857" stroke-linecap="butt" stroke-linejoin="miter"/>
        <path d="M 41.628,28.6376 L 54.9135,15.9426 L 54.9135,35.428 L 41.628,49.0088 L 41.628,28.6376 Z " fill="#126D99" stroke="#FFFFFF" stroke-width="0.8857" stroke-linecap="butt" stroke-linejoin="miter"/>
        <path d="M 48.4184,44.8755 L 45.7613,44.8755 L 45.4661,26.571 L 47.8279,25.6853 L 49.0089,26.8662 L 49.3041,42.5136 L 48.4184,44.8755 Z " fill="#126D99" stroke="#FFFFFF" stroke-width="0.8857" stroke-linecap="butt" stroke-linejoin="miter"/>
        <path d="M 47.8279,25.6853 L 48.4184,44.8755 L 53.4374,39.2661 L 51.3707,21.552 L 47.8279,25.6853 Z " fill="#126D99" stroke="#FFFFFF" stroke-width="0.8857" stroke-linecap="butt" stroke-linejoin="miter"/>
        <path d="M 44.5804,30.1138 L 25.3902,5.01889999999997 L 31.8853,0 L 57.5707,15.9426 L 44.5804,30.1138 Z " fill="#126D99" stroke="#FFFFFF" stroke-width="0.8857" stroke-linecap="butt" stroke-linejoin="miter"/>
        <path d="M 47.5327,19.4854 L 50.485,16.5331 L 49.0089,4.72370000000001 L 46.3518,5.90460000000002 L 46.3518,16.5331 L 47.5327,19.4854 Z " fill="#126D99" stroke="#FFFFFF" stroke-width="0.8857" stroke-linecap="butt" stroke-linejoin="miter"/>
        <path d="M 43.1042,15.3521 L 47.5327,19.4854 L 47.2375,5.31419999999997 L 44.8756,5.01889999999997 L 43.1042,15.3521 Z " fill="#126D99" stroke="#FFFFFF" stroke-width="0.8857" stroke-linecap="butt" stroke-linejoin="miter"/>
        <path d="M 44.8756,5.01889999999997 L 46.9422,6.49509999999998 L 49.0089,4.72370000000001 L 46.647,4.13319999999999 L 44.8756,5.01889999999997 Z " fill="#126D99" stroke="#FFFFFF" stroke-width="0.8857" stroke-linecap="butt" stroke-linejoin="miter"/>
        <path d="M 27.1616,3.5428 L 44.8756,30.1138 L 0,30.1138 L 23.914,3.5428 L 27.1616,3.5428 Z " fill="#126D99" stroke="#FFFFFF" stroke-width="0.8857" stroke-linecap="butt" stroke-linejoin="miter"/>
        <path d="M 35.4281,30.7043 C 35.4281,33.0662 30.1139,35.1328 23.6187,35.1328 C 16.8284,35.1328 11.5142,33.0662 11.5142,30.7043 C 11.5142,37.4947 11.5142,37.4947 11.5142,37.4947 C 11.5142,39.8565 16.8284,41.9232 23.6187,41.9232 C 30.1139,41.9232 35.4281,39.8565 35.4281,37.4947 Z Z " fill="#126D99" stroke="#FFFFFF" stroke-width="0.8857" stroke-linecap="butt" stroke-linejoin="miter"/>
        <path d="M 23.6187,35.1328 C 30.1139,35.1328 35.4281,33.0662 35.4281,30.7043 C 35.4281,28.0472 30.1139,25.9805 23.6187,25.9805 C 16.8284,25.9805 11.5142,28.0472 11.5142,30.7043 C 11.5142,33.0662 16.8284,35.1328 23.6187,35.1328 Z Z " fill="#126D99" stroke="#FFFFFF" stroke-width="0.8857" stroke-linecap="butt" stroke-linejoin="miter"/>
        <path d="M 20.6664,28.6376 L 21.8473,30.1138 L 18.0093,30.9995 L 18.895,30.4091 L 12.9903,29.5234 L 14.4665,28.3424 L 20.0759,29.2281 L 20.6664,28.6376 Z " fill="#FFFFFF" stroke-width="1px" stroke="#FFFFFF"/>
        <path d="M 25.9806,32.4757 L 25.3902,30.7043 L 28.6377,30.1138 L 28.0473,30.7043 L 33.6567,31.59 L 32.4758,32.7709 L 26.8663,31.59 L 25.9806,32.4757 Z " fill="#FFFFFF" stroke-width="1px" stroke="#FFFFFF"/>
        <path d="M 24.2092,28.0472 L 28.0473,26.8662 L 28.0473,28.6376 L 27.1616,28.3424 L 25.0949,29.8186 L 23.3235,29.5234 L 25.3902,28.0472 L 24.2092,28.0472 Z " fill="#FFFFFF" stroke-width="1px" stroke="#FFFFFF"/>
        <path d="M 22.4378,33.6566 L 18.895,34.5423 L 18.895,32.7709 L 19.7807,33.0662 L 21.8473,31.2948 L 23.6187,31.59 L 21.5521,33.3614 L 22.4378,33.6566 Z " fill="#FFFFFF" stroke-width="1px" stroke="#FFFFFF"/>
      </g>
      <!--emf-blob end-->
    </g>
  </g>
</svg>

