<svg xmlns="http://www.w3.org/2000/svg" xmlns:xlink="http://www.w3.org/1999/xlink" version="1.1" viewBox="0 0 174 150" >
  <title><![CDATA[Telecommuter house PC]]></title>
  <g transform=" scale(3.000000) ">
    <!--converted by libvisio2svg-->
    <g>
      <!--emf-blob start-->
      <g>
        <path d="M 23.914,3.5428 L 29.2282,0 L 32.1805,0 L 31.8853,2.65710000000001 L 28.0472,6.19990000000001 L 23.914,3.5428 Z " fill="#126D99" stroke="#FFFFFF" stroke-width="0.8857" stroke-linecap="butt" stroke-linejoin="miter"/>
        <path d="M 4.13330000000002,28.6376 L 41.628,28.6376 L 41.628,49.0088 L 4.13330000000002,49.0088 L 4.13330000000002,28.6376 Z " fill="#126D99" stroke="#FFFFFF" stroke-width="0.8857" stroke-linecap="butt" stroke-linejoin="miter"/>
        <path d="M 41.628,28.6376 L 54.9135,15.9426 L 54.9135,35.428 L 41.628,49.0088 L 41.628,28.6376 Z " fill="#126D99" stroke="#FFFFFF" stroke-width="0.8857" stroke-linecap="butt" stroke-linejoin="miter"/>
        <path d="M 48.4184,44.8755 L 45.7613,44.8755 L 45.466,26.571 L 47.8279,25.6853 L 49.0088,26.8662 L 49.3041,42.5136 L 48.4184,44.8755 Z " fill="#126D99" stroke="#FFFFFF" stroke-width="0.8857" stroke-linecap="butt" stroke-linejoin="miter"/>
        <path d="M 47.8279,25.6853 L 48.4184,44.8755 L 53.4373,39.2661 L 51.3707,21.552 L 47.8279,25.6853 Z " fill="#126D99" stroke="#FFFFFF" stroke-width="0.8857" stroke-linecap="butt" stroke-linejoin="miter"/>
        <path d="M 44.5803,30.1138 L 25.3901,5.01889999999997 L 31.8853,0 L 57.5706,15.9426 L 44.5803,30.1138 Z " fill="#126D99" stroke="#FFFFFF" stroke-width="0.8857" stroke-linecap="butt" stroke-linejoin="miter"/>
        <path d="M 47.5327,19.4854 L 50.485,16.5331 L 49.0088,4.72370000000001 L 46.3517,5.90460000000002 L 46.3517,16.5331 L 47.5327,19.4854 Z " fill="#126D99" stroke="#FFFFFF" stroke-width="0.8857" stroke-linecap="butt" stroke-linejoin="miter"/>
        <path d="M 43.1042,15.3521 L 47.5327,19.4854 L 47.2374,5.31419999999997 L 44.8756,5.01889999999997 L 43.1042,15.3521 Z " fill="#126D99" stroke="#FFFFFF" stroke-width="0.8857" stroke-linecap="butt" stroke-linejoin="miter"/>
        <path d="M 44.8756,5.01889999999997 L 46.9422,6.49509999999998 L 49.0088,4.72370000000001 L 46.647,4.13319999999999 L 44.8756,5.01889999999997 Z " fill="#126D99" stroke="#FFFFFF" stroke-width="0.8857" stroke-linecap="butt" stroke-linejoin="miter"/>
        <path d="M 27.1615,3.5428 L 44.8756,30.1138 L 0,30.1138 L 23.914,3.5428 L 27.1615,3.5428 Z " fill="#126D99" stroke="#FFFFFF" stroke-width="0.8857" stroke-linecap="butt" stroke-linejoin="miter"/>
        <path d="M 32.771,40.1518 L 32.771,36.3137 L 11.8094,36.3137 L 11.8094,40.1518 L 32.771,40.1518 Z " fill="#126D99" stroke="#FFFFFF" stroke-width="0.8857" stroke-linecap="butt" stroke-linejoin="miter"/>
        <path d="M 26.2758,38.3804 L 31.59,38.3804 Z " fill="#126D99" stroke-width="1px" stroke="#126D99"/>
        <path d="M 26.2758,38.3804 L 31.59,38.3804 " stroke="#FFFFFF" stroke-width="0.8857" stroke-linecap="butt" stroke-linejoin="miter" fill="none"/>
        <path d="M 26.2758,38.3804 L 31.59,38.3804 Z " fill="#126D99" stroke-width="1px" stroke="#126D99"/>
        <path d="M 26.2758,38.3804 L 31.59,38.3804 " stroke="#FFFFFF" stroke-width="0.8857" stroke-linecap="butt" stroke-linejoin="miter" fill="none"/>
        <path d="M 36.3138,36.3137 L 36.3138,32.7709 L 32.771,36.3137 L 32.771,40.1518 L 36.3138,36.3137 Z " fill="#126D99" stroke="#FFFFFF" stroke-width="0.8857" stroke-linecap="butt" stroke-linejoin="miter"/>
        <path d="M 29.2282,43.3993 L 29.2282,42.5136 L 30.9996,39.8565 L 30.9996,41.3327 L 29.2282,43.3993 Z " fill="#126D99" stroke="#FFFFFF" stroke-width="0.8857" stroke-linecap="butt" stroke-linejoin="miter"/>
        <path d="M 29.2282,42.5136 L 29.2282,43.3993 L 12.3998,43.3993 L 12.3998,42.5136 L 29.2282,42.5136 Z " fill="#126D99" stroke="#FFFFFF" stroke-width="0.8857" stroke-linecap="butt" stroke-linejoin="miter"/>
        <path d="M 29.2282,42.5136 L 12.3998,42.5136 L 14.1712,39.8565 L 30.9996,39.8565 L 29.2282,42.5136 Z " fill="#126D99" stroke="#FFFFFF" stroke-width="0.8857" stroke-linecap="butt" stroke-linejoin="miter"/>
        <path d="M 36.3138,33.0662 L 15.3522,33.0662 L 11.8094,36.3137 L 32.771,36.3137 L 36.3138,33.0662 Z " fill="#126D99" stroke="#FFFFFF" stroke-width="0.8857" stroke-linecap="butt" stroke-linejoin="miter"/>
        <path d="M 32.4757,33.0662 L 18.3045,33.0662 L 15.9426,35.1328 L 30.1139,35.1328 L 32.4757,33.0662 Z " fill="#126D99" stroke="#FFFFFF" stroke-width="0.8857" stroke-linecap="butt" stroke-linejoin="miter"/>
        <path d="M 15.6474,23.6187 L 30.1139,23.6187 L 30.1139,34.2471 L 15.6474,34.2471 L 15.6474,23.6187 Z " fill="#126D99" stroke="#FFFFFF" stroke-width="0.8857" stroke-linecap="butt" stroke-linejoin="miter"/>
        <path d="M 16.8283,25.9805 C 16.8283,25.0948 18.0093,24.7996 18.0093,24.7996 C 18.0093,24.7996 26.5711,24.7996 27.4568,24.7996 C 28.9329,24.7996 28.6377,25.9805 28.6377,25.9805 C 28.6377,25.9805 28.6377,31.2948 28.6377,31.8852 C 28.6377,32.7709 27.752,33.0662 27.752,33.0662 C 27.752,33.0662 19.1902,33.0662 18.0093,33.0662 C 17.1236,33.0662 16.8283,32.1805 16.8283,32.1805 Z Z " fill="#126D99" stroke="#FFFFFF" stroke-width="0.8857" stroke-linecap="butt" stroke-linejoin="miter"/>
        <path d="M 32.4757,21.552 L 18.0093,21.552 L 15.6474,23.6187 L 30.1139,23.6187 L 32.4757,21.552 Z " fill="#126D99" stroke="#FFFFFF" stroke-width="0.8857" stroke-linecap="butt" stroke-linejoin="miter"/>
        <path d="M 32.4757,32.1805 L 32.4757,21.552 L 30.1139,23.6187 L 30.1139,34.2471 L 32.4757,32.1805 Z " fill="#126D99" stroke="#FFFFFF" stroke-width="0.8857" stroke-linecap="butt" stroke-linejoin="miter"/>
      </g>
      <!--emf-blob end-->
    </g>
  </g>
</svg>

