<svg xmlns="http://www.w3.org/2000/svg" xmlns:xlink="http://www.w3.org/1999/xlink" version="1.1" viewBox="0 0 102 93" >
  <title><![CDATA[Terminal]]></title>
  <g transform=" scale(3.000000) ">
    <!--converted by libvisio2svg-->
    <g>
      <!--emf-blob start-->
      <g>
        <path d="M 5.0197,27.4606 L 5.0197,22.7362 L 29.5276,22.7362 L 29.5276,27.4606 L 5.0197,27.4606 Z " fill="#126D99" stroke="#FFFFFF" stroke-width="0.88585" stroke-linecap="butt" stroke-linejoin="miter"/>
        <path d="M 33.9567,18.6023 L 33.9567,23.3268 L 29.5276,27.4606 L 29.5276,22.7362 L 5.0197,22.7362 Z " fill="#126D99" stroke-width="1px" stroke="#126D99"/>
        <path d="M 33.9567,18.6023 L 33.9567,23.3268 L 29.5276,27.4606 L 29.5276,22.7362 L 5.0197,22.7362 " stroke="#FFFFFF" stroke-width="0.88585" stroke-linecap="butt" stroke-linejoin="miter" fill="none"/>
        <path d="M 5.0197,18.6023 L 33.9567,18.6023 Z " fill="#126D99" stroke-width="1px" stroke="#126D99"/>
        <path d="M 5.0197,18.6023 L 33.9567,18.6023 " stroke="#FFFFFF" stroke-width="0.88585" stroke-linecap="butt" stroke-linejoin="miter" fill="none"/>
        <path d="M 29.5276,22.7362 L 33.9567,18.6023 Z " fill="#126D99" stroke-width="1px" stroke="#126D99"/>
        <path d="M 29.5276,22.7362 L 33.9567,18.6023 " stroke="#FFFFFF" stroke-width="0.88585" stroke-linecap="butt" stroke-linejoin="miter" fill="none"/>
        <path d="M 29.5276,22.7362 L 29.5276,4.13380000000001 L 5.0197,4.13380000000001 L 5.0197,22.7362 L 29.5276,22.7362 Z " fill="#126D99" stroke="#FFFFFF" stroke-width="0.88585" stroke-linecap="butt" stroke-linejoin="miter"/>
        <path d="M 29.5276,22.7362 L 33.9567,18.6023 L 33.9567,0 L 9.15350000000001,0 L 5.0197,4.13380000000001 L 29.5276,4.13380000000001 L 29.5276,22.7362 Z " fill="#126D99" stroke="#FFFFFF" stroke-width="0.88585" stroke-linecap="butt" stroke-linejoin="miter"/>
        <path d="M 27.4606,20.6693 L 27.4606,6.20069999999998 L 7.08659999999998,6.20069999999998 L 7.08659999999998,20.6693 L 27.4606,20.6693 Z " fill="#126D99" stroke="#FFFFFF" stroke-width="0.88585" stroke-linecap="butt" stroke-linejoin="miter"/>
        <path d="M 29.5276,4.13380000000001 L 33.9567,0 Z " fill="#126D99" stroke-width="1px" stroke="#126D99"/>
        <path d="M 29.5276,4.13380000000001 L 33.9567,0 " stroke="#FFFFFF" stroke-width="0.88585" stroke-linecap="butt" stroke-linejoin="miter" fill="none"/>
        <path d="M 28.3465,30.7086 L 28.3465,28.0512 L 0,28.0512 L 3.24799999999999,24.8031 L 31.5945,24.8031 L 31.5945,27.4606 L 28.3465,30.7086 Z " fill="#126D99" stroke="#FFFFFF" stroke-width="0.88585" stroke-linecap="butt" stroke-linejoin="miter"/>
        <path d="M 28.3465,28.0512 L 28.3465,30.7086 L 0,30.7086 L 0,28.0512 L 28.3465,28.0512 Z " fill="#126D99" stroke="#FFFFFF" stroke-width="0.88585" stroke-linecap="butt" stroke-linejoin="miter"/>
        <path d="M 28.3465,28.0512 L 31.5945,24.8031 Z " fill="#126D99" stroke-width="1px" stroke="#126D99"/>
        <path d="M 28.3465,28.0512 L 31.5945,24.8031 " stroke="#FFFFFF" stroke-width="0.88585" stroke-linecap="butt" stroke-linejoin="miter" fill="none"/>
      </g>
      <!--emf-blob end-->
    </g>
  </g>
</svg>

