<svg xmlns="http://www.w3.org/2000/svg" xmlns:xlink="http://www.w3.org/1999/xlink" version="1.1" viewBox="0 0 123 147" >
  <title><![CDATA[TP MCU]]></title>
  <g transform=" scale(3.000000) ">
    <!--converted by libvisio2svg-->
    <g>
      <!--emf-blob start-->
      <g>
        <path d="M 5.61019999999996,11.811 L 4.7244,11.811 L 0,11.811 L 0,16.2402 L 4.7244,16.2402 L 5.31489999999997,16.2402 Z " fill="#FFFFFF" stroke-width="1px" stroke="#FFFFFF"/>
        <path d="M 5.61019999999996,11.811 L 4.7244,11.811 L 0,11.811 L 0,16.2402 L 4.7244,16.2402 L 5.31489999999997,16.2402 " stroke="#000000" stroke-width="0.88585" stroke-linecap="butt" stroke-linejoin="miter" fill="none"/>
        <path d="M 33.9567,16.5354 C 34.5472,16.5354 34.5472,16.5354 34.5472,16.5354 C 39.2716,16.5354 40.1575,20.6693 40.1575,20.6693 C 40.1575,16.2402 40.1575,16.2402 40.1575,16.2402 C 40.1575,16.2402 39.2716,11.811 34.5472,11.811 C 33.3661,11.811 33.3661,11.811 33.3661,11.811 Z " fill="#FFFFFF" stroke="none"/>
        <path d="M 33.9567,16.5354 C 34.5472,16.5354 34.5472,16.5354 34.5472,16.5354 C 39.2716,16.5354 40.1575,20.6693 40.1575,20.6693 C 40.1575,16.2402 40.1575,16.2402 40.1575,16.2402 C 40.1575,16.2402 39.2716,11.811 34.5472,11.811 C 33.3661,11.811 33.3661,11.811 33.3661,11.811 Z " stroke="#000000" stroke-width="0.88585" stroke-linecap="butt" stroke-linejoin="miter" fill="none"/>
        <path d="M 30.1181,48.1299 L 30.1181,3.83859999999999 L 4.7244,3.83859999999999 L 4.7244,48.1299 L 30.1181,48.1299 L 30.1181,48.1299 Z " fill="#0084C0" stroke="#FFFFFF" stroke-width="0.88585" stroke-linecap="butt" stroke-linejoin="miter"/>
        <path d="M 4.7244,3.83859999999999 L 9.7441,0 L 34.2519,0 L 30.1181,3.83859999999999 L 4.7244,3.83859999999999 L 4.7244,3.83859999999999 Z " fill="#0084C0" stroke="#FFFFFF" stroke-width="0.88585" stroke-linecap="butt" stroke-linejoin="miter"/>
        <path d="M 30.1181,48.1299 L 34.2519,43.4055 L 34.2519,0 L 30.1181,3.83859999999999 L 30.1181,48.1299 L 30.1181,48.1299 Z " fill="#0084C0" stroke="#FFFFFF" stroke-width="0.88585" stroke-linecap="butt" stroke-linejoin="miter"/>
        <path d="M 40.1575,17.7165 C 40.1575,23.0315 40.1575,23.0315 40.1575,23.0315 C 39.5669,29.2323 28.3464,28.937 28.3464,28.937 C 28.3464,29.2323 28.3464,29.2323 28.3464,29.2323 C 28.3464,33.6614 28.3464,33.6614 28.3464,33.6614 C 20.9645,26.2795 20.9645,26.2795 20.9645,26.2795 C 28.3464,18.8976 28.3464,18.8976 28.3464,18.8976 C 28.3464,23.622 28.3464,23.622 28.3464,23.622 C 28.3464,23.622 39.8622,23.9173 40.1575,17.7165 Z " fill="#FFFFFF" stroke="none"/>
        <path d="M 40.1575,17.7165 C 40.1575,23.0315 40.1575,23.0315 40.1575,23.0315 C 39.5669,29.2323 28.3464,28.937 28.3464,28.937 C 28.3464,29.2323 28.3464,29.2323 28.3464,29.2323 C 28.3464,33.6614 28.3464,33.6614 28.3464,33.6614 C 20.9645,26.2795 20.9645,26.2795 20.9645,26.2795 C 28.3464,18.8976 28.3464,18.8976 28.3464,18.8976 C 28.3464,23.622 28.3464,23.622 28.3464,23.622 C 28.3464,23.622 39.8622,23.9173 40.1575,17.7165 Z " stroke="#000000" stroke-width="0.88585" stroke-linecap="butt" stroke-linejoin="miter" fill="none"/>
        <path d="M 8.56299999999999,11.2205 L 7.08659999999998,12.4016 L 7.08659999999998,6.79129999999998 L 12.9921,6.79129999999998 L 11.5157,7.97239999999999 L 11.5157,8.26769999999999 L 19.7834,16.5354 L 17.126,19.4882 L 8.56299999999999,10.9252 L 8.56299999999999,11.2205 L 8.56299999999999,11.2205 Z " fill="#FFFFFF" stroke-width="1px" stroke="#FFFFFF"/>
        <path d="M 8.85820000000001,41.0433 L 7.6771,39.8622 L 7.6771,45.4724 L 13.2874,45.4724 L 12.1063,44.2913 L 11.811,43.9961 L 20.374,35.4331 L 17.7165,32.7756 L 9.15350000000001,41.0433 L 8.85820000000001,41.0433 L 8.85820000000001,41.0433 Z " fill="#FFFFFF" stroke-width="1px" stroke="#FFFFFF"/>
        <path d="M 12.6968,25.0984 C 12.6968,30.7087 12.6968,30.7087 12.6968,30.7087 C 6.49599999999998,30.7087 6.49599999999998,30.7087 6.49599999999998,30.7087 C 6.49599999999998,25.0984 6.49599999999998,25.0984 6.49599999999998,25.0984 C 9.7441,23.3268 12.6968,25.0984 12.6968,25.0984 Z Z " fill="#FFFFFF" stroke="none"/>
        <path d="M 11.5157,22.7362 C 11.5157,23.622 10.6299,24.5079 9.7441,24.5079 C 8.56299999999999,24.5079 7.97239999999999,23.622 7.97239999999999,22.7362 C 7.97239999999999,21.5551 8.56299999999999,20.9646 9.7441,20.9646 C 10.6299,20.9646 11.5157,21.5551 11.5157,22.7362 Z Z " fill="#FFFFFF" stroke="none"/>
        <path d="M 20.0787,25.0984 C 20.0787,30.7087 20.0787,30.7087 20.0787,30.7087 C 13.8779,30.7087 13.8779,30.7087 13.8779,30.7087 C 13.8779,25.0984 13.8779,25.0984 13.8779,25.0984 C 17.126,23.3268 20.0787,25.0984 20.0787,25.0984 Z Z " fill="#FFFFFF" stroke="none"/>
        <path d="M 18.8976,22.7362 C 18.8976,23.622 18.0118,24.5079 17.126,24.5079 C 15.9449,24.5079 15.3543,23.622 15.3543,22.7362 C 15.3543,21.5551 15.9449,20.9646 17.126,20.9646 C 18.0118,20.9646 18.8976,21.5551 18.8976,22.7362 Z Z " fill="#FFFFFF" stroke="none"/>
      </g>
      <!--emf-blob end-->
    </g>
  </g>
</svg>

