<svg xmlns="http://www.w3.org/2000/svg" xmlns:xlink="http://www.w3.org/1999/xlink" version="1.1" viewBox="0 0 117 111" >
  <title><![CDATA[Transpath]]></title>
  <g transform=" scale(3.000000) ">
    <!--converted by libvisio2svg-->
    <g>
      <!--emf-blob start-->
      <g>
        <path d="M 35.7148,36.0099 L 35.7148,2.95159999999998 L 0,2.95159999999998 L 0,36.0099 L 35.7148,36.0099 Z " fill="#0E6F9C" stroke="#FFFFFF" stroke-width="0.8855" stroke-linecap="butt" stroke-linejoin="miter"/>
        <path d="M 0,2.95159999999998 L 3.83709999999996,0 L 38.6664,0 L 35.7148,2.95159999999998 L 0,2.95159999999998 Z " fill="#0E6F9C" stroke="#FFFFFF" stroke-width="0.8855" stroke-linecap="butt" stroke-linejoin="miter"/>
        <path d="M 35.7148,36.0099 L 38.6664,32.468 L 38.6664,0 L 35.7148,2.95159999999998 L 35.7148,36.0099 Z " fill="#0E6F9C" stroke="#FFFFFF" stroke-width="0.8855" stroke-linecap="butt" stroke-linejoin="miter"/>
        <path d="M 35.4196,14.1678 C 28.6309,14.1678 28.6309,14.1678 28.6309,14.1678 C 26.2696,14.1678 26.2696,11.8065 26.2696,11.8065 C 29.8115,3.83710000000002 23.3179,5.01769999999999 23.3179,5.01769999999999 C 23.3179,5.01769999999999 17.1195,3.83710000000002 20.6615,11.8065 C 20.6615,11.8065 20.6615,14.1678 18.3002,14.1678 C 2.06619999999998,14.1678 2.06619999999998,14.1678 2.06619999999998,14.1678 C 2.06619999999998,14.1678 0.590399999999988,14.463 0.295199999999966,16.234 Z " stroke="#FFFFFF" stroke-width="0.8855" stroke-linecap="butt" stroke-linejoin="miter" fill="none"/>
        <path d="M 0,24.4985 C 6.78879999999998,24.4985 6.78879999999998,24.4985 6.78879999999998,24.4985 C 9.15010000000001,24.4985 9.15010000000001,26.8598 9.15010000000001,26.8598 C 5.31299999999999,34.8293 11.8066,33.6486 11.8066,33.6486 C 11.8066,33.6486 18.3002,34.8293 14.7582,26.8598 C 14.7582,26.8598 14.7582,24.4985 17.1195,24.4985 C 33.3535,24.4985 33.3535,24.4985 33.3535,24.4985 C 33.3535,24.4985 34.5342,24.2034 35.1245,22.4324 Z " stroke="#FFFFFF" stroke-width="0.8855" stroke-linecap="butt" stroke-linejoin="miter" fill="none"/>
        <path d="M 8.26459999999997,18.0049 L 9.15010000000001,19.4808 L 5.9033,20.0711 L 6.49359999999996,19.4808 L 1.47579999999999,18.5953 L 2.65649999999999,17.7098 L 7.67429999999996,18.5953 L 8.26459999999997,18.0049 Z " fill="#FFFFFF" stroke-width="1px" stroke="#FFFFFF"/>
        <path d="M 12.9872,21.2517 L 12.3969,19.7759 L 15.6437,19.1856 L 15.0534,19.7759 L 20.0711,20.6614 L 18.8905,21.5469 L 13.8727,20.6614 L 12.9872,21.2517 Z " fill="#FFFFFF" stroke-width="1px" stroke="#FFFFFF"/>
        <path d="M 11.5114,17.4146 L 14.7582,16.234 L 15.0534,17.7098 L 14.1679,17.7098 L 12.3969,19.1856 L 10.9211,18.8904 L 12.3969,17.4146 L 11.5114,17.4146 Z " fill="#FFFFFF" stroke-width="1px" stroke="#FFFFFF"/>
        <path d="M 10.0356,22.4324 L 6.78879999999998,23.3179 L 6.49359999999996,21.5469 L 7.67429999999996,21.8421 L 9.44529999999997,20.3663 L 10.9211,20.6614 L 8.85489999999999,22.1372 L 10.0356,22.4324 Z " fill="#FFFFFF" stroke-width="1px" stroke="#FFFFFF"/>
        <path d="M 27.7454,19.4808 L 30.1067,21.2517 L 30.9922,21.2517 L 31.2874,20.6614 L 33.6487,21.5469 L 31.2874,22.4324 L 30.9922,21.8421 L 29.8115,21.8421 L 27.1551,20.0711 L 24.7938,21.8421 L 23.3179,21.8421 L 23.3179,22.4324 L 20.9566,21.5469 L 23.3179,20.6614 L 23.3179,21.2517 L 24.2034,21.2517 L 26.5647,19.4808 L 24.2034,17.7098 L 23.3179,17.7098 L 23.3179,18.3001 L 20.9566,17.4146 L 23.3179,16.5291 L 23.3179,16.8243 L 24.7938,16.8243 L 27.1551,18.8904 L 29.8115,16.8243 L 30.9922,16.8243 L 31.2874,16.5291 L 33.6487,17.4146 L 31.2874,18.3001 L 30.9922,17.7098 L 30.1067,17.7098 L 27.7454,19.4808 Z " fill="#FFFFFF" stroke-width="1px" stroke="#FFFFFF"/>
      </g>
      <!--emf-blob end-->
    </g>
  </g>
</svg>

