<svg xmlns="http://www.w3.org/2000/svg" xmlns:xlink="http://www.w3.org/1999/xlink" version="1.1" viewBox="0 0 276 111" >
  <title><![CDATA[Turret]]></title>
  <g transform=" scale(3.000000) ">
    <!--converted by libvisio2svg-->
    <g>
      <!--emf-blob start-->
      <g>
        <path d="M 81.4651,28.926 C 81.4651,29.5163 81.1699,29.8115 80.8748,29.8115 C 8.55970000000002,29.8115 8.55970000000002,29.8115 8.55970000000002,29.8115 C 7.96940000000001,29.8115 7.67420000000004,29.5163 7.67420000000004,28.926 C 11.8065,4.7226 11.8065,4.7226 11.8065,4.7226 C 11.8065,4.42739999999998 12.1017,4.13219999999995 12.3968,4.13219999999995 C 83.5312,4.13219999999995 83.5312,4.13219999999995 83.5312,4.13219999999995 C 84.1215,4.13219999999995 84.4167,4.42739999999998 84.4167,4.7226 Z Z " fill="#126D99" stroke="#FFFFFF" stroke-width="0.8855" stroke-linecap="butt" stroke-linejoin="miter"/>
        <path d="M 91.5006,25.6792 C 91.5006,25.9743 90.9103,26.2695 90.6151,26.2695 C 80.5796,29.8115 80.5796,29.8115 80.5796,29.8115 C 80.2844,29.8115 79.6941,29.5163 79.6941,28.926 C 82.6457,4.7226 82.6457,4.7226 82.6457,4.7226 C 82.6457,4.42739999999998 82.9409,4.13219999999995 83.2361,4.13219999999995 C 90.6151,4.13219999999995 90.6151,4.13219999999995 90.6151,4.13219999999995 C 91.2055,4.13219999999995 91.5006,4.42739999999998 91.5006,4.7226 Z Z " fill="#126D99" stroke="#FFFFFF" stroke-width="0.8855" stroke-linecap="butt" stroke-linejoin="miter"/>
        <path d="M 74.6763,33.0583 L 49.5874,33.0583 L 56.6713,23.9082 L 80.2844,23.9082 L 74.6763,33.0583 Z " fill="#126D99" stroke="#FFFFFF" stroke-width="0.8855" stroke-linecap="butt" stroke-linejoin="miter"/>
        <path d="M 74.6763,36.0099 L 49.5874,36.0099 L 49.8826,33.3534 L 74.6763,33.3534 L 74.6763,36.0099 Z " fill="#126D99" stroke="#FFFFFF" stroke-width="0.8855" stroke-linecap="butt" stroke-linejoin="miter"/>
        <path d="M 80.2844,23.9082 L 80.2844,29.8115 L 74.3812,36.3051 L 74.3812,33.0583 L 80.2844,23.9082 Z " fill="#0E6A98" stroke="#FFFFFF" stroke-width="0.8855" stroke-linecap="butt" stroke-linejoin="miter"/>
        <path d="M 33.0583,4.42739999999998 L 29.5163,29.8115 Z " fill="#0E6A98" stroke-width="1px" stroke="#0E6A98"/>
        <path d="M 33.0583,4.42739999999998 L 29.5163,29.8115 " stroke="#FFFFFF" stroke-width="0.8855" stroke-linecap="butt" stroke-linejoin="miter" fill="none"/>
        <path d="M 59.0327,4.13219999999995 L 56.3762,24.2034 Z " fill="#0E6A98" stroke-width="1px" stroke="#0E6A98"/>
        <path d="M 59.0327,4.13219999999995 L 56.3762,24.2034 " stroke="#FFFFFF" stroke-width="0.8855" stroke-linecap="butt" stroke-linejoin="miter" fill="none"/>
        <path d="M 80.5796,13.2823 C 80.5796,14.7581 79.1038,16.234 77.628,16.234 C 75.857,16.234 74.6763,14.7581 74.6763,13.2823 C 74.6763,11.5112999999999 75.857,10.3307 77.628,10.3307 C 79.1038,10.3307 80.5796,11.5112999999999 80.5796,13.2823 Z Z " fill="#126D99" stroke="#FFFFFF" stroke-width="0.8855" stroke-linecap="butt" stroke-linejoin="miter"/>
        <path d="M 24.2034,9.74039999999997 C 24.2034,11.2162 22.7275,12.692 21.2517,12.692 C 19.4807,12.692 18.3001,11.2162 18.3001,9.74039999999997 C 18.3001,7.96939999999995 19.4807,6.78869999999995 21.2517,6.78869999999995 C 22.7275,6.78869999999995 24.2034,7.96939999999995 24.2034,9.74039999999997 Z Z " fill="#126D99" stroke="#FFFFFF" stroke-width="0.8855" stroke-linecap="butt" stroke-linejoin="miter"/>
        <path d="M 63.4601,28.926 C 62.5746,30.1066 60.5085,31.2873 58.7375,30.9921 C 56.6713,30.9921 55.7859,29.8115 56.3762,28.3357 C 57.2617,27.155 59.3278,25.9743 61.0988,26.2695 C 63.1649,26.2695 64.0504,27.4502 63.4601,28.926 Z Z " fill="#126D99" stroke="#FFFFFF" stroke-width="0.8855" stroke-linecap="butt" stroke-linejoin="miter"/>
        <path d="M 42.7987,19.7759 C 42.2083,22.4324 40.1422,23.0227 37.4857,23.0227 C 37.4857,23.0227 37.4857,23.0227 37.4857,23.0227 C 34.8292,23.0227 33.0583,22.4324 33.3534,19.7759 C 34.5341,12.1017 34.5341,12.1017 34.5341,12.1017 C 35.1244,9.4452 37.1906,8.85489999999999 39.847,8.85489999999999 C 39.847,8.85489999999999 39.847,8.85489999999999 39.847,8.85489999999999 C 42.5035,8.85489999999999 44.2745,9.4452 43.9793,12.1017 Z Z " fill="#126D99" stroke="#FFFFFF" stroke-width="0.8855" stroke-linecap="butt" stroke-linejoin="miter"/>
        <path d="M 53.1294,19.7759 C 52.5391,22.4324 50.4729,23.0227 47.8164,23.0227 C 47.8164,23.0227 47.8164,23.0227 47.8164,23.0227 C 45.16,23.0227 43.389,22.4324 43.6842,19.7759 C 44.8648,12.1017 44.8648,12.1017 44.8648,12.1017 C 45.4551,9.4452 47.5213,8.85489999999999 50.1777,8.85489999999999 C 50.1777,8.85489999999999 50.1777,8.85489999999999 50.1777,8.85489999999999 C 52.8342,8.85489999999999 54.6052,9.4452 54.31,12.1017 Z Z " fill="#126D99" stroke="#FFFFFF" stroke-width="0.8855" stroke-linecap="butt" stroke-linejoin="miter"/>
        <path d="M 71.1344,19.4808 C 70.544,21.5469 67.8876,22.1372 64.9359,22.1372 C 64.9359,22.1372 64.9359,22.1372 64.9359,22.1372 C 61.6891,22.1372 59.3278,21.5469 59.9181,19.4808 C 60.8036,12.692 60.8036,12.692 60.8036,12.692 C 61.394,10.3307 64.0504,10.0355 67.0021,10.0355 C 67.0021,10.0355 67.0021,10.0355 67.0021,10.0355 C 70.2489,10.0355 72.6102,10.3307 72.315,12.692 Z Z " fill="#126D99" stroke="#FFFFFF" stroke-width="0.8855" stroke-linecap="butt" stroke-linejoin="miter"/>
        <path d="M 28.3356,17.4146 L 13.5775,17.4146 L 14.1678,15.0533 L 28.6308,15.0533 L 28.3356,17.4146 Z " fill="#126D99" stroke="#FFFFFF" stroke-width="0.8855" stroke-linecap="butt" stroke-linejoin="miter"/>
        <path d="M 27.4502,20.9566 L 12.9871,20.9566 L 13.2823,18.5953 L 27.7453,18.5953 L 27.4502,20.9566 Z " fill="#126D99" stroke="#FFFFFF" stroke-width="0.8855" stroke-linecap="butt" stroke-linejoin="miter"/>
        <path d="M 26.5647,24.4985 L 12.1017,24.4985 L 12.3968,22.1372 L 27.155,22.1372 L 26.5647,24.4985 Z " fill="#126D99" stroke="#FFFFFF" stroke-width="0.8855" stroke-linecap="butt" stroke-linejoin="miter"/>
        <path d="M 25.9743,28.0405 L 11.2162,28.0405 L 11.8065,25.6792 L 26.2695,25.6792 L 25.9743,28.0405 Z " fill="#126D99" stroke="#FFFFFF" stroke-width="0.8855" stroke-linecap="butt" stroke-linejoin="miter"/>
        <path d="M 73.2005,30.9921 L 65.2311,30.9921 L 67.8876,27.155 L 75.857,27.155 L 73.2005,30.9921 Z " fill="#126D99" stroke="#FFFFFF" stroke-width="0.8855" stroke-linecap="butt" stroke-linejoin="miter"/>
        <path d="M 22.1372,8.2645 C 28.0405,0 39.5519,2.06609999999995 39.5519,2.06609999999995 Z " fill="#126D99" stroke="none"/>
        <path d="M 22.1372,8.2645 C 28.0405,0 39.5519,2.06609999999995 39.5519,2.06609999999995 Z " stroke="#FFFFFF" stroke-width="0.8855" stroke-linecap="butt" stroke-linejoin="miter" fill="none"/>
        <path d="M 42.2083,1.47579999999999 C 42.2083,2.36129999999997 41.0277,3.24679999999995 39.5519,3.24679999999995 C 38.076,3.24679999999995 36.8954,2.36129999999997 36.8954,1.47579999999999 C 36.8954,0.590299999999957 38.076,0 39.5519,0 C 41.0277,0 42.2083,0.590299999999957 42.2083,1.47579999999999 Z Z " fill="#126D99" stroke="#FFFFFF" stroke-width="0.8855" stroke-linecap="butt" stroke-linejoin="miter"/>
        <path d="M 17.1194,13.8726 L 13.8726,29.2211 " stroke="#0E6A98" stroke-width="1.32825" stroke-linecap="butt" stroke-linejoin="miter" fill="none"/>
        <path d="M 26.2695,13.8726 L 23.0227,29.2211 " stroke="#0E6A98" stroke-width="1.32825" stroke-linecap="butt" stroke-linejoin="miter" fill="none"/>
        <path d="M 21.5469,13.8726 L 18.3001,29.2211 " stroke="#0E6A98" stroke-width="1.32825" stroke-linecap="butt" stroke-linejoin="miter" fill="none"/>
        <path d="M 1.47579999999999,20.3662 L 2.36130000000003,15.0533 Z " fill="#126D99" stroke-width="1px" stroke="#126D99"/>
        <path d="M 1.47579999999999,20.3662 L 2.36130000000003,15.0533 " stroke="#FFFFFF" stroke-width="0.8855" stroke-linecap="butt" stroke-linejoin="miter" fill="none"/>
        <path d="M 8.85490000000004,12.692 C 8.2645,14.7581 7.37900000000002,16.8243 7.08390000000003,19.1856 C 7.67420000000004,20.3662 7.67420000000004,20.3662 7.67420000000004,20.3662 C 6.78870000000001,26.8598 6.78870000000001,26.8598 6.78870000000001,26.8598 C 4.7226,22.7275 4.7226,22.7275 4.7226,22.7275 C 4.13220000000001,19.4808 7.37900000000002,7.37899999999996 8.55970000000002,5.90319999999997 C 10.6258,10.0355 10.6258,10.0355 10.6258,10.0355 C 9.4452,14.1678 9.4452,14.1678 9.4452,14.1678 Z Z " fill="#126D99" stroke="#FFFFFF" stroke-width="0.8855" stroke-linecap="butt" stroke-linejoin="miter"/>
        <path d="M 0.590300000000013,22.7275 L 2.06610000000001,26.8598 L 6.78870000000001,26.8598 L 4.7226,22.7275 L 0.590300000000013,22.7275 Z " fill="#126D99" stroke="#FFFFFF" stroke-width="0.8855" stroke-linecap="butt" stroke-linejoin="miter"/>
        <path d="M 8.55970000000002,5.90319999999997 C 7.37900000000002,7.37899999999996 4.13220000000001,19.4808 4.7226,22.7275 C 0.590300000000013,22.7275 0.590300000000013,22.7275 0.590300000000013,22.7275 C 0,19.7759 3.24680000000001,7.37899999999996 4.42740000000003,5.90319999999997 Z Z " fill="#126D99" stroke="#FFFFFF" stroke-width="0.8855" stroke-linecap="butt" stroke-linejoin="miter"/>
      </g>
      <!--emf-blob end-->
    </g>
  </g>
</svg>

