<svg xmlns="http://www.w3.org/2000/svg" xmlns:xlink="http://www.w3.org/1999/xlink" version="1.1" viewBox="0 0 90 90" >
  <title><![CDATA[TV]]></title>
  <g transform=" scale(3.000000) ">
    <!--converted by libvisio2svg-->
    <g>
      <!--emf-blob start-->
      <g>
        <path d="M 29.8088,20.3644 L 26.8574,24.7915 L 0,24.7915 L 4.4271,20.3644 L 29.8088,20.3644 Z " fill="#126D99" stroke="#FFFFFF" stroke-width="0.8854" stroke-linecap="butt" stroke-linejoin="miter"/>
        <path d="M 0,29.5136 L 0,24.7915 L 25.6769,24.7915 L 25.6769,29.5136 L 0,29.5136 Z " fill="#126D99" stroke="#FFFFFF" stroke-width="0.8854" stroke-linecap="butt" stroke-linejoin="miter"/>
        <path d="M 0,4.4271 L 25.3818,4.4271 L 25.3818,23.6109 L 0,23.6109 L 0,4.4271 Z " fill="#126D99" stroke="#FFFFFF" stroke-width="0.8854" stroke-linecap="butt" stroke-linejoin="miter"/>
        <path d="M 25.3818,23.6109 L 29.8088,19.1839 L 29.8088,0 L 25.3818,4.4271 L 25.3818,23.6109 Z " fill="#126D99" stroke="#FFFFFF" stroke-width="0.8854" stroke-linecap="butt" stroke-linejoin="miter"/>
        <path d="M 25.6769,29.5136 L 25.6769,24.7915 L 29.8088,20.3644 L 29.8088,25.0866 L 25.6769,29.5136 Z " fill="#126D99" stroke="#FFFFFF" stroke-width="0.8854" stroke-linecap="butt" stroke-linejoin="miter"/>
        <path d="M 4.13189999999997,6.49299999999999 C 21.2498,6.49299999999999 21.2498,6.49299999999999 21.2498,6.49299999999999 C 22.4304,6.49299999999999 23.3158,7.3784 23.3158,8.55899999999997 C 23.3158,19.479 23.3158,19.479 23.3158,19.479 C 23.3158,20.3644 22.4304,21.2498 21.2498,21.2498 C 4.13189999999997,21.2498 4.13189999999997,21.2498 4.13189999999997,21.2498 C 2.95139999999998,21.2498 2.06599999999997,20.3644 2.06599999999997,19.479 C 2.06599999999997,8.55899999999997 2.06599999999997,8.55899999999997 2.06599999999997,8.55899999999997 C 2.06599999999997,7.3784 2.95139999999998,6.49299999999999 4.13189999999997,6.49299999999999 Z Z " fill="#FFFFFF" stroke="#FFFFFF" stroke-width="0.8854" stroke-linecap="butt" stroke-linejoin="miter"/>
        <path d="M 29.8088,0 L 5.01729999999998,0 L 0,4.4271 L 25.3818,4.4271 L 29.8088,0 Z " fill="#126D99" stroke="#FFFFFF" stroke-width="0.8854" stroke-linecap="butt" stroke-linejoin="miter"/>
        <path d="M 4.4271,27.1525999999999 C 4.4271,28.038 3.83679999999998,28.6282 2.95139999999998,28.6282 C 2.06599999999997,28.6282 1.47570000000002,28.038 1.47570000000002,27.1525999999999 C 1.47570000000002,26.2671 2.06599999999997,25.6769 2.95139999999998,25.6769 C 3.83679999999998,25.6769 4.4271,26.2671 4.4271,27.1525999999999 Z Z " fill="#126D99" stroke="#FFFFFF" stroke-width="0.8854" stroke-linecap="butt" stroke-linejoin="miter"/>
        <path d="M 24.4963,27.1525999999999 C 24.4963,28.038 23.6109,28.6282 22.7255,28.6282 C 22.1353,28.6282 21.2498,28.038 21.2498,27.1525999999999 C 21.2498,26.2671 22.1353,25.6769 22.7255,25.6769 C 23.6109,25.6769 24.4963,26.2671 24.4963,27.1525999999999 Z Z " fill="#126D99" stroke="#FFFFFF" stroke-width="0.8854" stroke-linecap="butt" stroke-linejoin="miter"/>
        <path d="M 10.0347,27.4477 C 10.0347,28.038 9.73950000000002,28.3330999999999 9.44439999999997,28.3330999999999 C 8.85410000000002,28.3330999999999 8.55899999999997,28.038 8.55899999999997,27.4477 C 8.55899999999997,27.1525999999999 8.85410000000002,26.8574 9.44439999999997,26.8574 C 9.73950000000002,26.8574 10.0347,27.1525999999999 10.0347,27.4477 Z Z " fill="#126D99" stroke="#FFFFFF" stroke-width="0.8854" stroke-linecap="butt" stroke-linejoin="miter"/>
        <path d="M 13.2812,27.4477 C 13.2812,28.038 12.986,28.3330999999999 12.3958,28.3330999999999 C 12.1006,28.3330999999999 11.8055,28.038 11.8055,27.4477 C 11.8055,27.1525999999999 12.1006,26.8574 12.3958,26.8574 C 12.986,26.8574 13.2812,27.1525999999999 13.2812,27.4477 Z Z " fill="#126D99" stroke="#FFFFFF" stroke-width="0.8854" stroke-linecap="butt" stroke-linejoin="miter"/>
        <path d="M 16.2325,27.4477 C 16.2325,28.038 15.9374,28.3330999999999 15.6423,28.3330999999999 C 15.052,28.3330999999999 14.7568,28.038 14.7568,27.4477 C 14.7568,27.1525999999999 15.052,26.8574 15.6423,26.8574 C 15.9374,26.8574 16.2325,27.1525999999999 16.2325,27.4477 Z Z " fill="#126D99" stroke="#FFFFFF" stroke-width="0.8854" stroke-linecap="butt" stroke-linejoin="miter"/>
        <path d="M 7.67360000000002,9.14919999999995 C 10.0347,7.08329999999995 10.0347,7.08329999999995 10.0347,7.08329999999995 C 11.5103,7.96869999999996 11.5103,7.96869999999996 11.5103,7.96869999999996 C 11.5103,9.73949999999996 11.5103,9.73949999999996 11.5103,9.73949999999996 C 12.1006,10.9201 12.1006,10.9201 12.1006,10.9201 C 11.5103,12.6909 11.5103,12.6909 11.5103,12.6909 C 11.2152,12.986 11.2152,12.986 11.2152,12.986 C 11.2152,13.5762999999999 10.6249,13.2812 10.6249,13.2812 C 10.0347,16.5277 10.0347,16.5277 10.0347,16.5277 C 7.96870000000001,13.5762999999999 7.96870000000001,13.5762999999999 7.96870000000001,13.5762999999999 C 7.67360000000002,12.3957 7.67360000000002,12.3957 7.67360000000002,12.3957 C 6.78820000000002,9.73949999999996 6.78820000000002,9.73949999999996 6.78820000000002,9.73949999999996 Z " fill="#FBFBFB" stroke="none"/>
        <path d="M 8.55899999999997,8.55899999999997 C 8.85410000000002,8.85409999999996 8.85410000000002,8.85409999999996 8.85410000000002,9.14919999999995 C 8.85410000000002,9.44439999999997 8.85410000000002,10.0347 8.55899999999997,10.6249 C 8.55899999999997,10.9201 8.55899999999997,11.2152 8.2638,10.9201 C 8.2638,10.9201 7.96870000000001,10.6249 7.67360000000002,10.6249 C 7.67360000000002,10.6249 7.3784,10.6249 7.08330000000001,10.9201 C 7.3784,11.5103 7.96870000000001,12.1006 7.67360000000002,12.986 C 7.08330000000001,12.1006 6.49299999999999,11.2152 6.1979,10.3298 C 5.90280000000001,9.73949999999996 6.1979,9.14919999999995 6.49299999999999,8.55899999999997 C 6.78820000000002,7.96869999999996 7.3784,7.3784 8.2638,7.3784 C 9.44439999999997,7.08329999999995 10.3298,6.78819999999996 11.5103,6.78819999999996 C 10.6249,7.3784 9.44439999999997,7.67359999999996 8.55899999999997,8.26379999999995 C 8.55899999999997,8.55899999999997 8.55899999999997,8.55899999999997 8.55899999999997,8.55899999999997 Z Z " fill="#126D99" stroke="none"/>
        <path d="M 12.3958,8.55899999999997 C 12.1006,9.14919999999995 11.8055,9.73949999999996 11.5103,10.0347 C 11.5103,10.0347 11.5103,10.0347 11.5103,10.0347 C 11.5103,10.0347 11.2152,10.0347 11.2152,10.0347 C 11.2152,9.73949999999996 11.2152,9.73949999999996 11.2152,9.44439999999997 C 11.2152,9.44439999999997 11.5103,9.44439999999997 11.5103,9.44439999999997 C 12.1006,8.85409999999996 11.2152,8.26379999999995 10.9201,7.3784 C 11.5103,7.3784 12.1006,7.96869999999996 12.6909,7.96869999999996 C 12.6909,8.26379999999995 12.3958,8.55899999999997 12.3958,8.55899999999997 Z Z " fill="#126D99" stroke="none"/>
        <path d="M 9.73950000000002,10.0347 C 9.73950000000002,10.0347 9.44439999999997,10.0347 9.44439999999997,10.0347 C 9.14929999999998,9.44439999999997 10.0347,9.73949999999996 10.6249,9.44439999999997 C 10.3298,9.73949999999996 10.3298,10.0347 9.73950000000002,10.0347 Z Z " fill="#0E6A98" stroke="none"/>
        <path d="M 10.9201,11.2152 C 10.9201,11.2152 10.6249,11.2152 10.6249,11.2152 C 10.6249,11.2152 10.9201,10.9201 11.2152,10.9201 C 11.2152,11.2152 11.2152,11.2152 11.2152,11.2152 C 11.2152,11.2152 11.2152,11.2152 10.9201,11.2152 Z Z " fill="#0E6A98" stroke="none"/>
        <path d="M 10.9201,12.1006 C 10.6249,12.1006 10.3298,12.1006 10.0347,12.1006 C 10.0347,12.1006 10.3298,12.1006 10.3298,12.1006 C 10.6249,12.1006 10.9201,11.8055 11.2152,12.1006 C 11.2152,12.1006 10.9201,12.1006 10.9201,12.1006 Z Z " fill="#0E6A98" stroke="none"/>
        <path d="M 10.9201,12.3957 C 10.9201,12.6909 10.6249,12.6909 10.6249,12.6909 C 10.6249,12.6909 10.6249,12.3957 10.3298,12.3957 C 10.6249,12.3957 10.6249,12.3957 10.9201,12.3957 Z Z " fill="#0E6A98" stroke="none"/>
        <path d="M 15.6423,19.1839 C 15.6423,18.8887 15.9374,18.2985 15.9374,17.7082 C 15.9374,17.4131 16.2325,16.8228 16.2325,16.8228 C 15.9374,16.2325 15.3471,15.9374 15.052,15.9374 C 13.8714,15.3471 12.6909,15.052 11.2152,14.4617 C 11.2152,14.4617 11.2152,14.4617 11.2152,14.4617 C 11.5103,17.4131 11.5103,17.4131 11.5103,17.4131 C 10.3298,20.9546999999999 10.3298,20.9546999999999 10.3298,20.9546999999999 Z " fill="#126D99" stroke="none"/>
        <path d="M 10.3298,20.9546999999999 C 7.96870000000001,17.7082 7.96870000000001,17.7082 7.96870000000001,17.7082 C 7.08330000000001,14.4617 7.08330000000001,14.4617 7.08330000000001,14.4617 C 6.78820000000002,14.7568 6.78820000000002,14.7568 6.49299999999999,15.052 C 5.01729999999998,15.6421999999999 3.83679999999998,15.9374 2.36110000000002,16.8228 C 2.36110000000002,19.7742 3.54169999999999,18.5936 3.24649999999997,21.545 Z " fill="#126D99" stroke="none"/>
        <path d="M 10.0347,21.2498 C 11.5103,17.4131 11.5103,17.4131 11.5103,17.4131 C 11.2152,14.4617 11.2152,14.4617 11.2152,14.4617 C 10.6249,14.1666 10.6249,14.1666 10.6249,14.1666 C 10.0347,15.3471 10.0347,15.3471 10.0347,15.3471 C 7.67360000000002,13.5762999999999 7.67360000000002,13.5762999999999 7.67360000000002,13.5762999999999 C 7.67360000000002,13.8714 7.08330000000001,14.4617 7.08330000000001,14.4617 C 7.96870000000001,17.7082 7.96870000000001,17.7082 7.96870000000001,17.7082 C 10.3298,20.9546999999999 10.3298,20.9546999999999 10.3298,20.9546999999999 Z " fill="#98C3D2" stroke="none"/>
        <path d="M 9.44439999999997,20.9546999999999 L 9.73950000000002,16.2325 L 9.44439999999997,15.9374 L 9.73950000000002,15.3471 L 10.0347,15.6421999999999 L 10.3298,15.3471 L 10.6249,15.6421999999999 L 10.3298,16.2325 L 10.6249,20.3644 Z " fill="#126D99" stroke-width="1px" stroke="#126D99"/>
        <path d="M 9.44439999999997,20.9546999999999 L 9.73950000000002,16.2325 L 9.44439999999997,15.9374 L 9.73950000000002,15.3471 L 10.0347,15.6421999999999 L 10.3298,15.3471 L 10.6249,15.6421999999999 L 10.3298,16.2325 L 10.6249,20.3644 " stroke="none" stroke-width="0" fill="none"/>
        <path d="M 13.5763,16.2325 C 13.2812,15.9374 12.986,15.9374 12.986,15.6421999999999 C 12.986,15.6421999999999 13.2812,15.6421999999999 13.5763,15.6421999999999 C 13.2812,15.3471 12.986,15.052 12.986,14.4617 C 12.986,14.4617 12.986,14.4617 12.986,14.4617 C 13.2812,14.4617 13.2812,14.7568 13.2812,14.7568 C 13.5763,14.7568 13.5763,14.7568 13.5763,14.7568 C 13.5763,14.4617 13.5763,14.1666 13.5763,14.1666 C 13.5763,14.1666 14.1666,14.1666 14.1666,13.8714 C 14.1666,13.5762999999999 13.5763,13.2812 13.8714,12.986 C 14.1666,12.986 14.4617,13.2812 14.4617,12.986 C 14.4617,12.6909 14.1666,12.3957 14.1666,12.3957 C 14.1666,12.1006 14.4617,12.1006 14.4617,11.8055 C 14.7568,11.5103 14.4617,11.2152 14.4617,10.9201 C 14.7568,10.0347 15.3471,9.14919999999995 15.6423,8.26379999999995 C 16.8228,8.26379999999995 17.1179,7.3784 18.8888,8.26379999999995 C 18.8888,8.26379999999995 18.5936,8.26379999999995 18.8888,8.26379999999995 C 18.8888,8.26379999999995 18.8888,8.26379999999995 18.8888,8.55899999999997 C 19.1839,8.55899999999997 19.479,8.26379999999995 19.7742,8.55899999999997 C 19.7742,8.85409999999996 19.479,9.14919999999995 19.479,9.14919999999995 C 19.479,9.44439999999997 20.0693,9.44439999999997 20.0693,9.73949999999996 C 20.3644,10.0347 19.7742,10.6249 19.7742,10.9201 C 19.7742,11.2152 20.3644,11.2152 20.6596,11.5103 C 20.6596,11.8055 20.3644,12.3957 20.6596,12.6909 C 20.9547,12.3957 20.9547,12.3957 21.2498,12.1006 C 21.2498,12.3957 21.2498,12.6909 21.545,12.986 C 21.545,12.6909 21.8401,12.6909 22.1353,12.3957 C 22.1353,12.3957 22.1353,12.6909 22.1353,12.6909 C 21.8401,12.986 21.545,13.2812 20.9547,13.5762999999999 C 20.9547,13.5762999999999 20.9547,13.5762999999999 20.9547,13.5762999999999 C 20.3644,13.2812 20.3644,13.2812 20.3644,13.2812 C 20.3644,13.5762999999999 20.9547,13.5762999999999 20.6596,13.5762999999999 C 20.6596,13.8714 20.6596,13.8714 20.6596,13.8714 C 20.9547,14.1666 21.2498,14.1666 21.545,13.8714 C 21.545,14.4617 20.9547,14.4617 20.9547,14.7568 C 20.9547,15.052 21.2498,15.052 21.545,15.052 C 21.545,15.3471 21.2498,15.3471 20.9547,15.6421999999999 Z " fill="#126D99" stroke="none"/>
        <path d="M 10.3298,21.2498 C 10.6249,19.7742 10.6249,18.8887 10.6249,17.4131 C 11.5103,16.8228 12.3958,16.5277 13.5763,16.2325 C 17.7082,15.3471 17.7082,15.3471 17.7082,15.3471 C 20.9547,15.6421999999999 20.9547,15.6421999999999 20.9547,15.6421999999999 C 21.545,15.9374 22.1353,15.9374 23.0207,15.9374 C 23.6109,17.7082 21.8401,19.479 22.4304,20.9546999999999 C 22.1353,21.2498 22.1353,21.2498 22.1353,21.2498 Z " fill="#126D99" stroke="none"/>
        <path d="M 19.1839,17.4131 C 19.1839,17.4131 19.1839,17.1179 19.1839,17.1179 C 19.1839,17.1179 18.8888,17.1179 19.1839,17.1179 C 19.1839,16.8228 19.1839,16.8228 19.1839,16.8228 C 19.1839,17.1179 19.479,17.1179 19.479,17.1179 C 19.479,16.5277 19.479,16.2325 19.479,15.6421999999999 C 19.1839,15.3471 18.8888,15.3471 18.8888,15.3471 C 18.5936,15.052 18.5936,14.1666 18.8888,14.1666 C 19.479,14.1666 19.479,12.6909 19.7742,11.8055 C 19.7742,11.5103 19.7742,11.5103 19.479,10.9201 C 19.479,11.2152 19.479,11.2152 19.479,11.2152 C 19.1839,11.2152 19.1839,11.5103 18.8888,11.2152 C 18.8888,11.2152 18.8888,10.9201 18.8888,10.9201 C 19.1839,10.9201 19.479,10.6249 19.479,10.6249 C 19.7742,10.3298 19.479,10.0347 19.1839,9.73949999999996 C 19.1839,10.0347 18.8888,10.0347 18.8888,10.0347 C 18.8888,9.73949999999996 18.8888,9.44439999999997 18.5936,9.44439999999997 C 18.2985,9.73949999999996 18.5936,10.3298 18.0033,10.3298 C 18.0033,10.0347 18.0033,9.73949999999996 18.0033,9.73949999999996 C 17.7082,10.0347 17.4131,10.0347 17.4131,10.0347 C 17.1179,10.0347 17.1179,9.73949999999996 17.1179,9.73949999999996 C 16.8228,10.0347 17.1179,10.3298 17.1179,10.6249 C 16.8228,11.2152 16.8228,11.8055 16.5277,12.3957 C 16.5277,12.6909 16.5277,12.6909 16.5277,12.986 C 16.5277,12.986 16.8228,12.986 16.8228,12.986 C 16.8228,13.2812 16.5277,13.2812 16.5277,13.2812 C 16.5277,13.2812 16.5277,13.5762999999999 16.5277,13.5762999999999 C 16.8228,13.8714 16.8228,13.8714 17.1179,13.8714 C 17.1179,14.1666 16.5277,14.1666 16.2325,14.1666 C 16.2325,14.4617 16.5277,14.7568 16.8228,15.052 C 16.8228,15.3471 16.5277,15.052 16.2325,15.052 C 15.9374,15.3471 16.2325,15.6421999999999 16.2325,15.9374 C 16.2325,15.9374 15.9374,15.9374 15.9374,15.9374 C 15.9374,16.2325 15.9374,16.5277 16.2325,16.8228 C 16.2325,16.8228 16.2325,16.8228 16.2325,16.8228 C 16.5277,16.8228 16.5277,17.1179 16.5277,17.1179 C 16.2325,17.1179 16.2325,17.1179 16.2325,17.1179 C 15.9374,17.1179 16.2325,17.4131 16.2325,17.4131 C 16.8228,17.7082 17.7082,18.0033 18.2985,18.0033 C 18.5936,18.0033 18.8888,17.7082 18.8888,17.7082 C 18.8888,17.4131 18.2985,17.7082 18.5936,17.4131 C 18.5936,17.1179 18.8888,17.1179 18.8888,17.1179 C 18.8888,17.4131 18.8888,17.4131 18.8888,17.7082 C 18.8888,17.7082 18.8888,17.7082 19.1839,17.7082 C 19.1839,17.4131 19.479,17.4131 19.479,17.1179 C 19.479,17.1179 19.479,17.1179 19.479,17.1179 C 19.1839,17.1179 19.479,17.4131 19.1839,17.4131 Z Z " fill="#FFFFFF" stroke="none"/>
        <path d="M 18.2985,11.2152 C 18.2985,11.5103 18.2985,11.5103 18.2985,11.5103 C 18.0033,11.5103 17.7082,11.5103 17.4131,11.2152 C 17.7082,10.9201 18.2985,10.9201 18.5936,11.2152 C 18.5936,11.2152 18.2985,11.2152 18.2985,11.2152 Z Z " fill="#0E6A98" stroke="none"/>
        <path d="M 19.1839,12.3957 C 19.1839,12.3957 18.8888,12.3957 18.5936,12.3957 C 18.8888,12.1006 18.8888,12.1006 19.1839,12.1006 C 19.1839,12.1006 19.1839,12.1006 19.1839,12.3957 Z Z " fill="#0E6A98" stroke="none"/>
        <path d="M 18.8888,12.986 C 18.8888,12.986 18.5936,12.986 18.2985,12.986 C 18.5936,12.6909 19.1839,12.986 19.479,12.6909 C 19.479,12.6909 19.479,12.986 19.479,12.986 C 19.1839,12.986 19.1839,12.986 18.8888,12.986 Z Z " fill="#000000" stroke="none"/>
        <path d="M 18.2985,17.7082 C 18.2985,18.0033 18.0033,17.7082 18.0033,17.4131 C 18.0033,17.4131 18.2985,17.4131 18.2985,17.4131 C 18.2985,17.4131 18.5936,17.7082 18.2985,17.7082 Z Z " fill="#000000" stroke="none"/>
        <path d="M 17.7082,17.7082 C 17.7082,17.7082 17.7082,17.7082 17.4131,17.7082 C 17.4131,17.7082 17.4131,17.4131 17.7082,17.4131 C 17.7082,17.4131 17.7082,17.4131 18.0033,17.4131 C 18.0033,17.7082 17.7082,17.7082 17.7082,17.7082 Z Z " fill="#000000" stroke="none"/>
        <path d="M 17.1179,17.7082 C 17.1179,17.7082 17.1179,17.7082 17.1179,17.4131 C 16.8228,17.4131 16.8228,17.4131 17.1179,17.1179 C 17.1179,17.1179 17.4131,17.4131 17.4131,17.4131 C 17.4131,17.4131 17.1179,17.7082 17.1179,17.7082 Z Z " fill="#000000" stroke="none"/>
        <path d="M 16.8228,17.4131 C 16.8228,17.4131 16.5277,17.4131 16.5277,17.1179 C 16.5277,17.1179 16.8228,16.8228 16.8228,17.1179 C 16.8228,17.1179 16.8228,17.1179 16.8228,17.4131 Z Z " fill="#000000" stroke="none"/>
        <path d="M 18.8888,13.2812 C 18.8888,13.2812 18.8888,13.2812 18.5936,13.2812 C 18.8888,13.2812 19.1839,12.986 19.1839,12.986 C 19.1839,13.2812 19.1839,13.2812 18.8888,13.2812 Z Z " fill="#0E6A98" stroke="none"/>
        <path d="M 22.1353,21.2498 L 3.54169999999999,21.2498 L 3.54169999999999,20.3644 L 22.1353,20.3644 L 22.1353,21.2498 Z " fill="#126D99" stroke-width="1px" stroke="#126D99"/>
      </g>
      <!--emf-blob end-->
    </g>
  </g>
</svg>

