<svg xmlns="http://www.w3.org/2000/svg" xmlns:xlink="http://www.w3.org/1999/xlink" version="1.1" viewBox="0 0 171 84" >
  <title><![CDATA[UBR910]]></title>
  <g transform=" scale(3.000000) ">
    <!--converted by libvisio2svg-->
    <g>
      <!--emf-blob start-->
      <g>
        <path d="M 0,13.8763 L 17.1239,0 L 56.3908,0 L 42.2193,13.8763 L 0,13.8763 Z " fill="#0C6D9C" stroke="#FFFFFF" stroke-width="0.8857" stroke-linecap="butt" stroke-linejoin="miter"/>
        <path d="M 42.2193,27.7525 L 56.3908,12.4001 L 56.3908,0.295299999999997 L 42.2193,13.8763 L 42.2193,27.7525 Z " fill="#0C6D9C" stroke="#FFFFFF" stroke-width="0.8857" stroke-linecap="butt" stroke-linejoin="miter"/>
        <path d="M 42.2193,27.7525 L 42.2193,13.8763 L 0,13.8763 L 0,27.7525 L 42.2193,27.7525 Z " fill="#0C6D9C" stroke="#FFFFFF" stroke-width="0.8857" stroke-linecap="butt" stroke-linejoin="miter"/>
        <path d="M 25.0954,19.4858 L 25.0954,16.2381999999999 L 17.7144,20.3715 L 25.0954,24.8001 L 25.0954,21.5525 L 25.0954,19.4858 Z " fill="#FFFFFF" stroke="#FFFFFF" stroke-width="0.8857" stroke-linecap="butt" stroke-linejoin="miter"/>
        <path d="M 23.6192,5.90479999999997 L 25.9811,3.8381 L 15.6477,7.08579999999995 L 19.7811,9.4477 L 22.143,7.38099999999997 Z " fill="#FFFFFF" stroke-width="1px" stroke="#FFFFFF"/>
        <path d="M 23.6192,5.90479999999997 L 25.9811,3.8381 L 15.6477,7.08579999999995 L 19.7811,9.4477 L 22.143,7.38099999999997 " stroke="none" stroke-width="0" fill="none"/>
        <path d="M 34.8383,7.38099999999997 L 20.3715,7.38099999999997 L 21.8477,5.90479999999997 L 36.3145,5.90479999999997 L 38.6764,3.8381 L 42.8097,6.79049999999995 L 32.4764,9.4477 L 34.8383,7.38099999999997 Z " fill="#FFFFFF" stroke-width="1px" stroke="#FFFFFF"/>
      </g>
      <!--emf-blob end-->
    </g>
  </g>
</svg>

