<svg xmlns="http://www.w3.org/2000/svg" xmlns:xlink="http://www.w3.org/1999/xlink" version="1.1" viewBox="0 0 171 84" >
  <title><![CDATA[UMG series]]></title>
  <g transform=" scale(3.000000) ">
    <!--converted by libvisio2svg-->
    <g>
      <!--emf-blob start-->
      <g>
        <path d="M 0,13.8762 L 17.1239,0 L 56.3908,0 L 42.2193,13.8762 L 0,13.8762 Z " fill="#046897" stroke="#FFFFFF" stroke-width="0.8857" stroke-linecap="butt" stroke-linejoin="miter"/>
        <path d="M 42.2193,27.4572 L 56.3908,12.1048 L 56.3908,0 L 42.2193,13.8762 L 42.2193,27.4572 Z " fill="#046897" stroke="#FFFFFF" stroke-width="0.8857" stroke-linecap="butt" stroke-linejoin="miter"/>
        <path d="M 42.2193,27.4572 L 42.2193,13.8762 L 0,13.8762 L 0,27.4572 L 42.2193,27.4572 Z " fill="#046897" stroke="#FFFFFF" stroke-width="0.8857" stroke-linecap="butt" stroke-linejoin="miter"/>
        <path d="M 21.2573,27.4572 L 21.2573,13.8762 Z " fill="#000000" stroke-width="1px" stroke="#000000"/>
        <path d="M 21.2573,27.4572 L 21.2573,13.8762 " stroke="#FFFFFF" stroke-width="1.77145" stroke-linecap="butt" stroke-linejoin="miter" fill="none"/>
        <path d="M 28.9335,24.8001 L 36.3145,20.6667 L 28.9335,16.5334 L 28.9335,24.8001 Z " fill="#FFFFFF" stroke="#FFFFFF" stroke-width="0.8857" stroke-linecap="butt" stroke-linejoin="miter"/>
        <path d="M 16.2382,7.08569999999997 L 16.2382,7.08569999999997 L 34.8383,7.08569999999997 L 32.4764,9.44759999999997 L 42.8097,6.49519999999995 L 38.6764,3.5428 L 36.3145,5.90479999999997 L 17.7144,5.90479999999997 L 16.2382,7.08569999999997 Z " fill="#FFFFFF" stroke-width="1px" stroke="#FFFFFF"/>
        <path d="M 12.1048,18.0096 L 3.24759999999998,18.0096 L 3.24759999999998,16.8286 L 12.1048,16.8286 L 12.1048,15.0572 L 17.4191,17.4191 L 12.1048,19.7809999999999 L 12.1048,18.0096 Z " fill="#FFFFFF" stroke-width="1px" stroke="#FFFFFF"/>
        <path d="M 12.1048,24.2096 L 3.24759999999998,24.2096 L 3.24759999999998,23.0286 L 12.1048,23.0286 L 12.1048,21.2572 L 17.4191,23.6191 L 12.1048,25.981 L 12.1048,24.2096 Z " fill="#FFFFFF" stroke-width="1px" stroke="#FFFFFF"/>
      </g>
      <!--emf-blob end-->
    </g>
  </g>
</svg>

