<svg xmlns="http://www.w3.org/2000/svg" xmlns:xlink="http://www.w3.org/1999/xlink" version="1.1" viewBox="0 0 222 90" >
  <title><![CDATA[University]]></title>
  <g transform=" scale(3.000000) ">
    <!--converted by libvisio2svg-->
    <g>
      <!--emf-blob start-->
      <g>
        <path d="M 71.4393,27.454 L 71.4393,5.01850000000002 L 1.77119999999996,5.01850000000002 L 1.77119999999996,27.454 L 71.4393,27.454 Z " fill="#126D99" stroke="#FFFFFF" stroke-width="0.8856" stroke-linecap="butt" stroke-linejoin="miter"/>
        <path d="M 71.4393,2.36169999999998 L 71.4393,0 L 1.77119999999996,0 L 1.77119999999996,2.36169999999998 L 71.4393,2.36169999999998 Z " fill="#126D99" stroke="#FFFFFF" stroke-width="0.8856" stroke-linecap="butt" stroke-linejoin="miter"/>
        <path d="M 6.19919999999996,10.9226 L 6.19919999999996,6.78969999999998 L 4.13279999999997,6.78969999999998 L 4.13279999999997,10.9226 L 6.19919999999996,10.9226 Z " fill="#126D99" stroke="#FFFFFF" stroke-width="0.8856" stroke-linecap="butt" stroke-linejoin="miter"/>
        <path d="M 6.19919999999996,17.4171 L 6.19919999999996,12.989 L 4.13279999999997,12.989 L 4.13279999999997,17.4171 L 6.19919999999996,17.4171 Z " fill="#126D99" stroke="#FFFFFF" stroke-width="0.8856" stroke-linecap="butt" stroke-linejoin="miter"/>
        <path d="M 6.19919999999996,23.6164 L 6.19919999999996,19.4835 L 4.13279999999997,19.4835 L 4.13279999999997,23.6164 L 6.19919999999996,23.6164 Z " fill="#126D99" stroke="#FFFFFF" stroke-width="0.8856" stroke-linecap="butt" stroke-linejoin="miter"/>
        <path d="M 36.6053,24.502 L 36.6053,12.989 L 28.93,12.989 L 28.93,24.502 L 36.6053,24.502 Z " fill="#126D99" stroke="#FFFFFF" stroke-width="0.8856" stroke-linecap="butt" stroke-linejoin="miter"/>
        <path d="M 36.6053,24.502 L 36.6053,12.989 L 44.5758,12.989 L 44.5758,24.502 L 36.6053,24.502 Z " fill="#126D99" stroke="#FFFFFF" stroke-width="0.8856" stroke-linecap="butt" stroke-linejoin="miter"/>
        <path d="M 72.325,2.36169999999998 L 73.5058,5.01850000000002 L 0,5.01850000000002 L 1.18079999999998,2.36169999999998 L 72.325,2.36169999999998 Z " fill="#126D99" stroke="#FFFFFF" stroke-width="0.8856" stroke-linecap="butt" stroke-linejoin="miter"/>
        <path d="M 46.6422,25.6828 L 46.6422,23.9116 L 26.8635,23.9116 L 26.8635,25.6828 L 46.6422,25.6828 Z " fill="#126D99" stroke="#FFFFFF" stroke-width="0.8856" stroke-linecap="butt" stroke-linejoin="miter"/>
        <path d="M 47.5278,27.454 L 47.5278,25.6828 L 25.9779,25.6828 L 25.9779,27.454 L 47.5278,27.454 Z " fill="#126D99" stroke="#FFFFFF" stroke-width="0.8856" stroke-linecap="butt" stroke-linejoin="miter"/>
        <path d="M 12.6937,10.9226 L 12.6937,6.78969999999998 L 10.6273,6.78969999999998 L 10.6273,10.9226 L 12.6937,10.9226 Z " fill="#126D99" stroke="#FFFFFF" stroke-width="0.8856" stroke-linecap="butt" stroke-linejoin="miter"/>
        <path d="M 12.6937,17.4171 L 12.6937,12.989 L 10.6273,12.989 L 10.6273,17.4171 L 12.6937,17.4171 Z " fill="#126D99" stroke="#FFFFFF" stroke-width="0.8856" stroke-linecap="butt" stroke-linejoin="miter"/>
        <path d="M 12.6937,23.6164 L 12.6937,19.4835 L 10.6273,19.4835 L 10.6273,23.6164 L 12.6937,23.6164 Z " fill="#126D99" stroke="#FFFFFF" stroke-width="0.8856" stroke-linecap="butt" stroke-linejoin="miter"/>
        <path d="M 19.1882,10.9226 L 19.1882,6.78969999999998 L 17.1218,6.78969999999998 L 17.1218,10.9226 L 19.1882,10.9226 Z " fill="#126D99" stroke="#FFFFFF" stroke-width="0.8856" stroke-linecap="butt" stroke-linejoin="miter"/>
        <path d="M 19.1882,17.4171 L 19.1882,12.989 L 17.1218,12.989 L 17.1218,17.4171 L 19.1882,17.4171 Z " fill="#126D99" stroke="#FFFFFF" stroke-width="0.8856" stroke-linecap="butt" stroke-linejoin="miter"/>
        <path d="M 19.1882,23.6164 L 19.1882,19.4835 L 17.1218,19.4835 L 17.1218,23.6164 L 19.1882,23.6164 Z " fill="#126D99" stroke="#FFFFFF" stroke-width="0.8856" stroke-linecap="butt" stroke-linejoin="miter"/>
        <path d="M 25.6827,10.9226 L 25.6827,6.78969999999998 L 23.6163,6.78969999999998 L 23.6163,10.9226 L 25.6827,10.9226 Z " fill="#126D99" stroke="#FFFFFF" stroke-width="0.8856" stroke-linecap="butt" stroke-linejoin="miter"/>
        <path d="M 25.6827,17.4171 L 25.6827,12.989 L 23.6163,12.989 L 23.6163,17.4171 L 25.6827,17.4171 Z " fill="#126D99" stroke="#FFFFFF" stroke-width="0.8856" stroke-linecap="butt" stroke-linejoin="miter"/>
        <path d="M 25.6827,23.6164 L 25.6827,19.4835 L 23.6163,19.4835 L 23.6163,23.6164 L 25.6827,23.6164 Z " fill="#126D99" stroke="#FFFFFF" stroke-width="0.8856" stroke-linecap="butt" stroke-linejoin="miter"/>
        <path d="M 67.3065,10.9226 L 67.3065,6.78969999999998 L 69.3729,6.78969999999998 L 69.3729,10.9226 L 67.3065,10.9226 Z " fill="#126D99" stroke="#FFFFFF" stroke-width="0.8856" stroke-linecap="butt" stroke-linejoin="miter"/>
        <path d="M 67.3065,17.4171 L 67.3065,12.989 L 69.3729,12.989 L 69.3729,17.4171 L 67.3065,17.4171 Z " fill="#126D99" stroke="#FFFFFF" stroke-width="0.8856" stroke-linecap="butt" stroke-linejoin="miter"/>
        <path d="M 67.3065,23.6164 L 67.3065,19.4835 L 69.3729,19.4835 L 69.3729,23.6164 L 67.3065,23.6164 Z " fill="#126D99" stroke="#FFFFFF" stroke-width="0.8856" stroke-linecap="butt" stroke-linejoin="miter"/>
        <path d="M 60.812,10.9226 L 60.812,6.78969999999998 L 62.8784,6.78969999999998 L 62.8784,10.9226 L 60.812,10.9226 Z " fill="#126D99" stroke="#FFFFFF" stroke-width="0.8856" stroke-linecap="butt" stroke-linejoin="miter"/>
        <path d="M 60.812,17.4171 L 60.812,12.989 L 62.8784,12.989 L 62.8784,17.4171 L 60.812,17.4171 Z " fill="#126D99" stroke="#FFFFFF" stroke-width="0.8856" stroke-linecap="butt" stroke-linejoin="miter"/>
        <path d="M 60.812,23.6164 L 60.812,19.4835 L 62.8784,19.4835 L 62.8784,23.6164 L 60.812,23.6164 Z " fill="#126D99" stroke="#FFFFFF" stroke-width="0.8856" stroke-linecap="butt" stroke-linejoin="miter"/>
        <path d="M 54.3175,10.9226 L 54.3175,6.78969999999998 L 56.3839,6.78969999999998 L 56.3839,10.9226 L 54.3175,10.9226 Z " fill="#126D99" stroke="#FFFFFF" stroke-width="0.8856" stroke-linecap="butt" stroke-linejoin="miter"/>
        <path d="M 54.3175,17.4171 L 54.3175,12.989 L 56.3839,12.989 L 56.3839,17.4171 L 54.3175,17.4171 Z " fill="#126D99" stroke="#FFFFFF" stroke-width="0.8856" stroke-linecap="butt" stroke-linejoin="miter"/>
        <path d="M 54.3175,23.6164 L 54.3175,19.4835 L 56.3839,19.4835 L 56.3839,23.6164 L 54.3175,23.6164 Z " fill="#126D99" stroke="#FFFFFF" stroke-width="0.8856" stroke-linecap="butt" stroke-linejoin="miter"/>
        <path d="M 47.823,10.9226 L 47.823,6.78969999999998 L 49.8894,6.78969999999998 L 49.8894,10.9226 L 47.823,10.9226 Z " fill="#126D99" stroke="#FFFFFF" stroke-width="0.8856" stroke-linecap="butt" stroke-linejoin="miter"/>
        <path d="M 47.823,17.4171 L 47.823,12.989 L 49.8894,12.989 L 49.8894,17.4171 L 47.823,17.4171 Z " fill="#126D99" stroke="#FFFFFF" stroke-width="0.8856" stroke-linecap="butt" stroke-linejoin="miter"/>
        <path d="M 47.823,23.6164 L 47.823,19.4835 L 49.8894,19.4835 L 49.8894,23.6164 L 47.823,23.6164 Z " fill="#126D99" stroke="#FFFFFF" stroke-width="0.8856" stroke-linecap="butt" stroke-linejoin="miter"/>
        <path d="M 41.6237,10.9226 L 41.6237,6.78969999999998 L 43.6902,6.78969999999998 L 43.6902,10.9226 L 41.6237,10.9226 Z " fill="#126D99" stroke="#FFFFFF" stroke-width="0.8856" stroke-linecap="butt" stroke-linejoin="miter"/>
        <path d="M 35.7196,10.9226 L 35.7196,6.78969999999998 L 37.7861,6.78969999999998 L 37.7861,10.9226 L 35.7196,10.9226 Z " fill="#126D99" stroke="#FFFFFF" stroke-width="0.8856" stroke-linecap="butt" stroke-linejoin="miter"/>
        <path d="M 29.8156,10.9226 L 29.8156,6.78969999999998 L 31.882,6.78969999999998 L 31.882,10.9226 L 29.8156,10.9226 Z " fill="#126D99" stroke="#FFFFFF" stroke-width="0.8856" stroke-linecap="butt" stroke-linejoin="miter"/>
        <path d="M 31.882,18.0075 L 31.882,14.465 L 30.1108,14.465 L 30.1108,18.0075 L 31.882,18.0075 Z " fill="#126D99" stroke="#FFFFFF" stroke-width="0.8856" stroke-linecap="butt" stroke-linejoin="miter"/>
        <path d="M 35.1292,18.0075 L 35.1292,14.465 L 33.358,14.465 L 33.358,18.0075 L 35.1292,18.0075 Z " fill="#126D99" stroke="#FFFFFF" stroke-width="0.8856" stroke-linecap="butt" stroke-linejoin="miter"/>
        <path d="M 41.3285,18.0075 L 41.3285,14.465 L 43.0998,14.465 L 43.0998,18.0075 L 41.3285,18.0075 Z " fill="#126D99" stroke="#FFFFFF" stroke-width="0.8856" stroke-linecap="butt" stroke-linejoin="miter"/>
        <path d="M 38.3765,18.0075 L 38.3765,14.465 L 40.1477,14.465 L 40.1477,18.0075 L 38.3765,18.0075 Z " fill="#126D99" stroke="#FFFFFF" stroke-width="0.8856" stroke-linecap="butt" stroke-linejoin="miter"/>
        <path d="M 48.4134,29.2252 L 48.4134,27.454 L 24.7971,27.454 L 24.7971,29.2252 L 48.4134,29.2252 Z " fill="#126D99" stroke="#FFFFFF" stroke-width="0.8856" stroke-linecap="butt" stroke-linejoin="miter"/>
      </g>
      <!--emf-blob end-->
    </g>
  </g>
</svg>

