<svg xmlns="http://www.w3.org/2000/svg" xmlns:xlink="http://www.w3.org/1999/xlink" version="1.1" viewBox="0 0 93 96" >
  <title><![CDATA[Universal gateway]]></title>
  <g transform=" scale(3.000000) ">
    <!--converted by libvisio2svg-->
    <g>
      <!--emf-blob start-->
      <g>
        <path d="M 25.3937,31.004 L 25.3937,5.0197 L 0,5.0197 L 0,31.004 L 25.3937,31.004 Z " fill="#0E6F9C" stroke="#FFFFFF" stroke-width="0.88585" stroke-linecap="butt" stroke-linejoin="miter"/>
        <path d="M 12.6968000000001,23.6221 C 15.9449,23.6221 18.3071,20.9646 18.3071,18.0119 C 18.3071,14.7638 15.9449,12.4016 12.6968000000001,12.4016 C 9.7441,12.4016 7.08660000000003,14.7638 7.08660000000003,18.0119 C 7.08660000000003,20.9646 9.7441,23.6221 12.6968000000001,23.6221 Z Z " stroke="#FFFFFF" stroke-width="1.77165" stroke-linecap="butt" stroke-linejoin="miter" fill="none"/>
        <path d="M 12.6968000000001,12.4016 L 21.2598,12.4016 " stroke="#FFFFFF" stroke-width="1.77165" stroke-linecap="butt" stroke-linejoin="miter" fill="none"/>
        <path d="M 21.2598,9.15360000000004 L 21.2598,15.3544 L 25.0984,12.4016 L 21.2598,9.15360000000004 Z " fill="#FFFFFF" stroke="#FFFFFF" stroke-width="0.4429" stroke-linecap="butt" stroke-linejoin="miter"/>
        <path d="M 7.08660000000003,18.0119 L 7.08660000000003,9.44890000000004 " stroke="#FFFFFF" stroke-width="1.77165" stroke-linecap="butt" stroke-linejoin="miter" fill="none"/>
        <path d="M 3.83860000000004,9.44890000000004 L 10.0393,9.44890000000004 L 7.08660000000003,5.90550000000002 L 3.83860000000004,9.44890000000004 Z " fill="#FFFFFF" stroke="#FFFFFF" stroke-width="0.4429" stroke-linecap="butt" stroke-linejoin="miter"/>
        <path d="M 18.3071,18.0119 L 18.3071,26.5749 " stroke="#FFFFFF" stroke-width="1.77165" stroke-linecap="butt" stroke-linejoin="miter" fill="none"/>
        <path d="M 21.5551,26.5749 L 15.3543,26.5749 L 18.3071,30.1182 L 21.5551,26.5749 Z " fill="#FFFFFF" stroke="#FFFFFF" stroke-width="0.4429" stroke-linecap="butt" stroke-linejoin="miter"/>
        <path d="M 12.6968000000001,23.6221 L 4.42910000000001,23.6221 " stroke="#FFFFFF" stroke-width="1.77165" stroke-linecap="butt" stroke-linejoin="miter" fill="none"/>
        <path d="M 4.13380000000001,26.8701 L 4.13380000000001,20.6693 L 0.59050000000002,23.6221 L 4.13380000000001,26.8701 Z " fill="#FFFFFF" stroke="#FFFFFF" stroke-width="0.4429" stroke-linecap="butt" stroke-linejoin="miter"/>
        <path d="M 25.3937,5.0197 L 0,5.0197 L 6.49600000000004,0 L 30.7087,0 L 30.7087,0 L 30.7087,25.689 L 25.3937,31.004 L 25.3937,5.0197 L 25.3937,5.0197 Z " fill="#0E6F9C" stroke="#FFFFFF" stroke-width="0.88585" stroke-linecap="butt" stroke-linejoin="miter"/>
        <path d="M 25.3937,5.0197 L 30.7087,0 Z " fill="#0E6F9C" stroke-width="1px" stroke="#0E6F9C"/>
        <path d="M 25.3937,5.0197 L 30.7087,0 " stroke="#FFFFFF" stroke-width="0.88585" stroke-linecap="butt" stroke-linejoin="miter" fill="none"/>
        <path d="M 15.6496,15.3544 C 15.6496,18.8977 15.6496,18.8977 15.6496,18.8977 C 15.6496,20.6693 14.7638,21.8504 12.6968000000001,21.8504 C 10.6299,21.8504 9.7441,20.6693 9.7441,19.193 C 9.7441,15.3544 9.7441,15.3544 9.7441,15.3544 C 10.6299,15.3544 10.6299,15.3544 10.6299,15.3544 C 10.6299,18.8977 10.6299,18.8977 10.6299,18.8977 C 10.6299,20.3741 11.811,20.9646 12.6968000000001,20.9646 C 13.5827,20.9646 14.7638,20.3741 14.7638,18.8977 C 14.7638,15.3544 14.7638,15.3544 14.7638,15.3544 Z Z " fill="#FFFFFF" stroke="none"/>
      </g>
      <!--emf-blob end-->
    </g>
  </g>
</svg>

