<svg xmlns="http://www.w3.org/2000/svg" xmlns:xlink="http://www.w3.org/1999/xlink" version="1.1" viewBox="0 0 153 147" >
  <title><![CDATA[UPC]]></title>
  <g transform=" scale(3.000000) ">
    <!--converted by libvisio2svg-->
    <g>
      <!--emf-blob start-->
      <g>
        <path d="M 45.4724,33.3662 L 49.6063,10.9252 L 18.0118,10.9252 L 13.5827,33.3662 L 45.4724,33.3662 Z " fill="#036C9B" stroke="#FFFFFF" stroke-width="0.88585" stroke-linecap="butt" stroke-linejoin="miter"/>
        <path d="M 49.6063,10.9252 L 50.7874,12.4016 L 46.9488,34.252 L 45.4724,33.3662 L 49.6063,10.9252 Z " fill="#036C9B" stroke="#FFFFFF" stroke-width="0.88585" stroke-linecap="butt" stroke-linejoin="miter"/>
        <path d="M 13.5827,33.3662 L 14.7638,34.252 L 46.9488,34.252 L 45.4724,33.3662 L 13.5827,33.3662 Z " fill="#036C9B" stroke="#FFFFFF" stroke-width="0.88585" stroke-linecap="butt" stroke-linejoin="miter"/>
        <path d="M 45.7677,34.8426 C 45.7677,38.0906 45.7677,38.0906 45.7677,38.0906 C 44.8819,38.9764 44.8819,38.9764 44.8819,38.9764 C 44.8819,38.9764 43.1102,39.2717 43.4055,40.4528 C 34.8425,48.7205 34.8425,48.7205 34.8425,48.7205 C 34.8425,45.1772 34.8425,45.1772 34.8425,45.1772 Z Z " fill="#036C9B" stroke="#FFFFFF" stroke-width="0.88585" stroke-linecap="butt" stroke-linejoin="miter"/>
        <path d="M 0,45.1772 L 0,48.7205 L 34.8425,48.7205 L 34.8425,45.1772 L 0,45.1772 Z " fill="#036C9B" stroke-width="1px" stroke="#036C9B"/>
        <path d="M 0,45.1772 L 0,48.7205 L 34.8425,48.7205 L 34.8425,45.1772 L 0,45.1772 " stroke="#FFFFFF" stroke-width="0.88585" stroke-linecap="butt" stroke-linejoin="miter" fill="none"/>
        <path d="M 13.8779,35.1378 L 45.7677,34.8426 L 34.8425,45.1772 L 0,45.1772 L 13.8779,35.1378 Z " fill="#036C9B" stroke="#FFFFFF" stroke-width="0.88585" stroke-linecap="butt" stroke-linejoin="miter"/>
        <path d="M 42.8149,31.2992 L 46.063,13.5827 L 20.6693,13.5827 L 17.126,31.2992 L 42.8149,31.2992 Z " fill="#036C9B" stroke="#FFFFFF" stroke-width="0.88585" stroke-linecap="butt" stroke-linejoin="miter"/>
        <path d="M 14.7638,35.4331 L 6.49600000000004,41.9292 " stroke="#FFFFFF" stroke-width="0" stroke-linecap="butt" stroke-linejoin="round" fill="none"/>
        <path d="M 17.126,35.4331 L 9.15350000000001,41.9292 " stroke="#FFFFFF" stroke-width="0" stroke-linecap="butt" stroke-linejoin="round" fill="none"/>
        <path d="M 19.7834,35.4331 L 11.811,41.9292 " stroke="#FFFFFF" stroke-width="0" stroke-linecap="butt" stroke-linejoin="round" fill="none"/>
        <path d="M 22.4409,35.4331 L 14.4685,41.9292 " stroke="#FFFFFF" stroke-width="0" stroke-linecap="butt" stroke-linejoin="round" fill="none"/>
        <path d="M 25.0984,35.4331 L 16.8307,41.9292 " stroke="#FFFFFF" stroke-width="0" stroke-linecap="butt" stroke-linejoin="round" fill="none"/>
        <path d="M 27.4606,35.4331 L 19.4882,41.9292 " stroke="#FFFFFF" stroke-width="0" stroke-linecap="butt" stroke-linejoin="round" fill="none"/>
        <path d="M 30.1181,35.4331 L 22.1456,41.9292 " stroke="#FFFFFF" stroke-width="0" stroke-linecap="butt" stroke-linejoin="round" fill="none"/>
        <path d="M 32.7756,35.4331 L 24.8031,41.9292 " stroke="#FFFFFF" stroke-width="0" stroke-linecap="butt" stroke-linejoin="round" fill="none"/>
        <path d="M 35.4331,35.4331 L 27.1653,41.9292 " stroke="#FFFFFF" stroke-width="0" stroke-linecap="butt" stroke-linejoin="round" fill="none"/>
        <path d="M 37.7953,35.4331 L 29.8228,41.9292 " stroke="#FFFFFF" stroke-width="0" stroke-linecap="butt" stroke-linejoin="round" fill="none"/>
        <path d="M 40.4527,35.4331 L 32.4803,41.9292 " stroke="#FFFFFF" stroke-width="0" stroke-linecap="butt" stroke-linejoin="round" fill="none"/>
        <path d="M 43.1102,35.4331 L 35.1378,41.9292 " stroke="#FFFFFF" stroke-width="0" stroke-linecap="butt" stroke-linejoin="round" fill="none"/>
        <path d="M 7.38190000000003,41.0433 L 36.0236,41.0433 " stroke="#FFFFFF" stroke-width="0" stroke-linecap="butt" stroke-linejoin="round" fill="none"/>
        <path d="M 9.44880000000001,39.567 L 37.5,39.567 " stroke="#FFFFFF" stroke-width="0" stroke-linecap="butt" stroke-linejoin="round" fill="none"/>
        <path d="M 11.5157,38.0906 L 39.5669,38.0906 " stroke="#FFFFFF" stroke-width="0" stroke-linecap="butt" stroke-linejoin="round" fill="none"/>
        <path d="M 13.2874,36.6142 L 41.6338,36.6142 " stroke="#FFFFFF" stroke-width="0" stroke-linecap="butt" stroke-linejoin="round" fill="none"/>
        <path d="M 34.8425,7.97249999999997 C 36.9094,7.97249999999997 38.6811,6.20079999999996 38.6811,4.13389999999998 C 38.6811,1.77170000000001 36.9094,0 34.8425,0 C 32.4803,0 30.7086,1.77170000000001 30.7086,4.13389999999998 C 30.7086,6.20079999999996 32.4803,7.97249999999997 34.8425,7.97249999999997 Z Z " fill="#036C9B" stroke="#FFFFFF" stroke-width="0.4429" stroke-linecap="butt" stroke-linejoin="miter"/>
        <path d="M 28.937,10.0394 C 30.1181,3.83859999999999 30.1181,3.83859999999999 30.1181,3.83859999999999 C 30.1181,6.49609999999996 32.185,8.85829999999999 34.8425,8.85829999999999 C 37.5,8.85829999999999 39.5669,6.49609999999996 39.5669,3.83859999999999 C 40.4527,10.0394 40.4527,10.0394 40.4527,10.0394 Z Z " fill="#036C9B" stroke="none"/>
        <path d="M 37.5,5.0197 L 37.5,3.24809999999997 L 32.185,3.24809999999997 L 32.185,5.0197 L 37.5,5.0197 Z " fill="#FFFFFF" stroke-width="1px" stroke="#FFFFFF"/>
        <path d="M 31.2992,15.9449 C 35.7283,15.9449 35.7283,15.9449 35.7283,15.9449 C 33.6614,16.5355 32.7756,18.8977 32.7756,18.8977 C 34.5472,20.0788 34.5472,20.0788 34.5472,20.0788 C 30.7086,22.7363 30.7086,22.7363 30.7086,22.7363 C 28.6417,16.8307 28.6417,16.8307 28.6417,16.8307 C 30.1181,17.7166 30.1181,17.7166 30.1181,17.7166 C 30.4134,16.8307 31.2992,15.9449 31.2992,15.9449 Z Z " fill="#FFFFFF" stroke="none"/>
        <path d="M 34.8425,29.8229 C 35.7283,27.7559 33.9567,25.9843 33.9567,25.9843 C 32.185,26.8701 32.185,26.8701 32.185,26.8701 C 31.8897,22.1457 31.8897,22.1457 31.8897,22.1457 C 37.7953,23.6221 37.7953,23.6221 37.7953,23.6221 C 36.3189,24.5079 36.3189,24.5079 36.3189,24.5079 C 37.7953,26.5748 37.5,28.937 37.5,28.937 C 36.6142,30.1181 34.8425,29.8229 34.8425,29.8229 Z Z " fill="#FFFFFF" stroke="none"/>
        <path d="M 24.2126,23.3268 C 25.689,23.9174 27.4606,23.6221 27.4606,23.6221 C 27.4606,21.5552 27.4606,21.5552 27.4606,21.5552 C 31.5945,23.9174 31.5945,23.9174 31.5945,23.9174 C 27.4606,28.3465 27.4606,28.3465 27.4606,28.3465 C 27.1653,26.5748 27.1653,26.5748 27.1653,26.5748 C 25.9842,26.5748 25.0984,26.2796 24.2126,25.9843 Z Z " fill="#FFFFFF" stroke="none"/>
      </g>
      <!--emf-blob end-->
    </g>
  </g>
</svg>

