<svg xmlns="http://www.w3.org/2000/svg" xmlns:xlink="http://www.w3.org/1999/xlink" version="1.1" viewBox="0 0 156 111" >
  <title><![CDATA[Vault]]></title>
  <g transform=" scale(3.000000) ">
    <!--converted by libvisio2svg-->
    <g>
      <!--emf-blob start-->
      <g>
        <path d="M 0,36.0099 L 45.16,36.0099 L 45.16,6.49360000000001 L 0,6.49360000000001 L 0,36.0099 Z " fill="#046897" stroke="#FFFFFF" stroke-width="0.8855" stroke-linecap="butt" stroke-linejoin="miter"/>
        <path d="M 51.6536,30.1067 L 45.16,36.0099 L 45.16,6.49360000000001 L 51.6536,0 L 51.6536,30.1067 Z " fill="#046897" stroke="#FFFFFF" stroke-width="0.8855" stroke-linecap="butt" stroke-linejoin="miter"/>
        <path d="M 7.67419999999998,0 L 51.6536,0 L 45.16,6.49360000000001 L 0,6.49360000000001 L 7.67419999999998,0 Z " fill="#046897" stroke="#FFFFFF" stroke-width="1.32825" stroke-linecap="butt" stroke-linejoin="miter"/>
        <path d="M 38.9616,13.5775 L 35.1244,13.5775 L 35.1244,12.3968 L 38.9616,12.3968 L 38.9616,10.6259 L 43.389,12.9872 L 38.9616,15.3485 L 38.9616,13.5775 Z " fill="#FFFFFF" stroke-width="1px" stroke="#FFFFFF"/>
        <path d="M 38.9616,28.6308 L 35.1244,28.6308 L 35.1244,27.4502 L 38.9616,27.4502 L 38.9616,25.384 L 43.389,28.0405 L 38.9616,30.4018 L 38.9616,28.6308 Z " fill="#FFFFFF" stroke-width="1px" stroke="#FFFFFF"/>
        <path d="M 6.19839999999999,21.2518 L 1.77100000000002,21.2518 L 1.77100000000002,20.0711 L 6.19839999999999,20.0711 L 6.19839999999999,18.005 L 10.6259,20.6614 L 6.19839999999999,23.0227 L 6.19839999999999,21.2518 Z " fill="#FFFFFF" stroke-width="1px" stroke="#FFFFFF"/>
        <path d="M 32.468,16.5291 C 32.468,18.5953 27.7453,20.0711 22.1372,20.0711 C 16.5291,20.0711 11.8065,18.5953 11.8065,16.5291 C 11.8065,25.0889 11.8065,25.0889 11.8065,25.0889 C 11.8065,27.155 16.5291,28.926 22.1372,28.926 C 27.7453,28.926 32.468,27.155 32.468,25.0889 Z Z " fill="#046897" stroke="#FFFFFF" stroke-width="0.8855" stroke-linecap="butt" stroke-linejoin="miter"/>
        <path d="M 22.1372,20.0711 C 27.7453,20.0711 32.468,18.5953 32.468,16.5291 C 32.468,14.1678 27.7453,12.692 22.1372,12.692 C 16.5291,12.692 11.8065,14.1678 11.8065,16.5291 C 11.8065,18.5953 16.5291,20.0711 22.1372,20.0711 Z Z " fill="#046897" stroke="#FFFFFF" stroke-width="0.8855" stroke-linecap="butt" stroke-linejoin="miter"/>
      </g>
      <!--emf-blob end-->
    </g>
  </g>
</svg>

