<svg xmlns="http://www.w3.org/2000/svg" xmlns:xlink="http://www.w3.org/1999/xlink" version="1.1" viewBox="0 0 114 165" >
  <title><![CDATA[Video camera]]></title>
  <g transform=" scale(3.000000) ">
    <!--converted by libvisio2svg-->
    <g>
      <!--emf-blob start-->
      <g>
        <path d="M 17.1164000000001,14.4604 L 17.1164000000001,54.5955 " stroke="#126D99" stroke-width="1.77065" stroke-linecap="butt" stroke-linejoin="miter" fill="none"/>
        <path d="M 17.1164000000001,14.4604 L 34.2329,48.103 " stroke="#126D99" stroke-width="1.77065" stroke-linecap="butt" stroke-linejoin="miter" fill="none"/>
        <path d="M 17.1164000000001,14.4604 L 0,48.103 " stroke="#126D99" stroke-width="1.77065" stroke-linecap="butt" stroke-linejoin="miter" fill="none"/>
        <path d="M 22.1333,19.1822 L 22.1333,9.73859999999996 L 12.0996,9.73859999999996 L 12.0996,19.1822 L 22.1333,19.1822 Z " fill="#126D99" stroke="#FFFFFF" stroke-width="0.88535" stroke-linecap="butt" stroke-linejoin="miter"/>
        <path d="M 2.36090000000002,9.44349999999997 C 1.77070000000003,9.44349999999997 1.47560000000004,8.26309999999995 1.47560000000004,6.78749999999997 C 1.47560000000004,5.01689999999996 1.77070000000003,3.83639999999997 2.36090000000002,3.83639999999997 C 7.37780000000004,3.83639999999997 7.37780000000004,3.83639999999997 7.37780000000004,3.83639999999997 C 7.96800000000002,3.83639999999997 8.5582,5.01689999999996 8.5582,6.78749999999997 C 8.5582,8.26309999999995 7.96800000000002,9.44349999999997 7.37780000000004,9.44349999999997 Z Z " fill="#126D99" stroke="#FFFFFF" stroke-width="0.88535" stroke-linecap="butt" stroke-linejoin="miter"/>
        <path d="M 6.19730000000004,13.5751 L 6.19730000000004,3.54129999999998 L 28.0356,3.54129999999998 L 28.0356,13.5751 L 6.19730000000004,13.5751 Z " fill="#126D99" stroke="#FFFFFF" stroke-width="0.88535" stroke-linecap="butt" stroke-linejoin="miter"/>
        <path d="M 28.0356,13.5751 L 28.0356,3.54129999999998 L 6.19730000000004,3.54129999999998 L 8.85330000000005,0.590199999999982 L 28.3307,0.590199999999982 L 30.9867,0.590199999999982 L 30.9867,10.624 L 28.0356,13.5751 Z " fill="#126D99" stroke="#FFFFFF" stroke-width="0.88535" stroke-linecap="butt" stroke-linejoin="miter"/>
        <path d="M 28.0356,3.54129999999998 L 30.9867,0.590199999999982 Z " fill="#126D99" stroke-width="1px" stroke="#126D99"/>
        <path d="M 28.0356,3.54129999999998 L 30.9867,0.590199999999982 " stroke="#FFFFFF" stroke-width="0.88535" stroke-linecap="butt" stroke-linejoin="miter" fill="none"/>
        <path d="M 28.0356,10.9191 L 6.19730000000004,10.9191 Z " fill="#126D99" stroke-width="1px" stroke="#126D99"/>
        <path d="M 28.0356,10.9191 L 6.19730000000004,10.9191 " stroke="#FFFFFF" stroke-width="0.88535" stroke-linecap="butt" stroke-linejoin="miter" fill="none"/>
        <path d="M 30.9867,7.96799999999996 L 28.0356,10.9191 Z " fill="#126D99" stroke-width="1px" stroke="#126D99"/>
        <path d="M 30.9867,7.96799999999996 L 28.0356,10.9191 " stroke="#FFFFFF" stroke-width="0.88535" stroke-linecap="butt" stroke-linejoin="miter" fill="none"/>
        <path d="M 37.4791,0 L 36.8889,2.36089999999996 L 29.216,7.08259999999996 L 28.9209,3.24619999999999 L 37.4791,0 Z " fill="#126D99" stroke="#FFFFFF" stroke-width="0.88535" stroke-linecap="butt" stroke-linejoin="miter"/>
      </g>
      <!--emf-blob end-->
    </g>
  </g>
</svg>

