<svg xmlns="http://www.w3.org/2000/svg" xmlns:xlink="http://www.w3.org/1999/xlink" version="1.1" viewBox="0 0 108 144" >
  <title><![CDATA[VIP]]></title>
  <g transform=" scale(3.000000) ">
    <!--converted by libvisio2svg-->
    <g>
      <!--emf-blob start-->
      <g>
        <path d="M 35.4261,42.2161 L 35.4261,0 L 29.2265,5.60909999999996 L 29.2265,47.8253 L 35.4261,42.2161 Z " fill="#0E6F9C" stroke="#FFFFFF" stroke-width="0.88565" stroke-linecap="butt" stroke-linejoin="miter"/>
        <path d="M 35.4261,0 L 29.2265,5.60909999999996 L 0,5.60909999999996 L 7.38040000000001,0 L 35.4261,0 Z " fill="#0E6F9C" stroke="#FFFFFF" stroke-width="0.88565" stroke-linecap="butt" stroke-linejoin="miter"/>
        <path d="M 29.2265,34.8357 L 29.2265,5.60909999999996 L 0,5.60909999999996 L 0,34.8357 L 29.2265,34.8357 Z " fill="#0E6F9C" stroke="#FFFFFF" stroke-width="0.88565" stroke-linecap="butt" stroke-linejoin="miter"/>
        <path d="M 29.2265,47.8253 L 29.2265,35.1309 L 0,35.1309 L 0,47.8253 L 29.2265,47.8253 Z " fill="#0E6F9C" stroke="#FFFFFF" stroke-width="0.88565" stroke-linecap="butt" stroke-linejoin="miter"/>
        <path d="M 12.1039,16.8274 L 7.38040000000001,12.3991 L 8.26609999999999,11.5135 L 5.31389999999999,10.923 L 5.90429999999998,13.8752 L 6.78999999999996,12.9896 L 11.2182,17.4178 L 12.1039,16.8274 Z " fill="#FFFFFF" stroke-width="1px" stroke="#FFFFFF"/>
        <path d="M 10.3326,19.7796 L 4.13299999999998,19.7796 L 4.13299999999998,18.5987 L 1.7713,20.0748 L 4.13299999999998,21.8461 L 4.13299999999998,20.6652 L 10.3326,20.6652 L 10.3326,19.7796 Z " fill="#FFFFFF" stroke-width="1px" stroke="#FFFFFF"/>
        <path d="M 11.2182,23.027 L 6.78999999999996,27.4552 L 5.90429999999998,26.5696 L 5.31389999999999,29.5218 L 8.26609999999999,28.9313 L 7.38040000000001,28.0457 L 12.1039,23.6174 L 11.2182,23.027 Z " fill="#FFFFFF" stroke-width="1px" stroke="#FFFFFF"/>
        <path d="M 14.1704,24.5031 L 14.1704,30.9979 L 12.9895,30.9979 L 14.7609,33.3596 L 16.2369,30.9979 L 15.3513,30.9979 L 15.3513,24.5031 L 14.1704,24.5031 Z " fill="#FFFFFF" stroke-width="1px" stroke="#FFFFFF"/>
        <path d="M 14.1704,15.9417 L 14.1704,9.74219999999997 L 12.9895,9.74219999999997 L 14.7609,7.38040000000001 L 16.2369,9.74219999999997 L 15.3513,9.74219999999997 L 15.3513,15.9417 L 14.1704,15.9417 Z " fill="#FFFFFF" stroke-width="1px" stroke="#FFFFFF"/>
        <path d="M 17.4178,23.6174 L 21.8461,28.0457 L 21.2557,28.9313 L 23.9126,29.5218 L 23.3222,26.5696 L 22.7317,27.4552 L 18.0083,23.027 L 17.4178,23.6174 Z " fill="#FFFFFF" stroke-width="1px" stroke="#FFFFFF"/>
        <path d="M 19.1891,20.6652 L 25.3887,20.6652 L 25.3887,21.8461 L 27.7504,20.0748 L 25.3887,18.5987 L 25.3887,19.7796 L 19.1891,19.7796 L 19.1891,20.6652 Z " fill="#FFFFFF" stroke-width="1px" stroke="#FFFFFF"/>
        <path d="M 18.0083,17.4178 L 22.7317,12.9896 L 23.3222,13.8752 L 23.9126,10.923 L 21.2557,11.5135 L 21.8461,12.3991 L 17.4178,16.8274 L 18.0083,17.4178 Z " fill="#FFFFFF" stroke-width="1px" stroke="#FFFFFF"/>
        <path d="M 18.5987,25.6839 C 21.5509,23.6174 22.4365,19.4844 20.0748,16.237 C 18.0083,13.2848 13.8752,12.6943 10.923,14.7609 C 7.9708,16.8274 7.38040000000001,20.9604 9.44689999999997,23.9126 C 11.5135,26.8648 15.6465,27.7505 18.5987,25.6839 Z Z " fill="#FFFFFF" stroke="#0C6D9C" stroke-width="0.88565" stroke-linecap="butt" stroke-linejoin="miter"/>
        <path d="M 15.3513,38.9687 L 16.2369,38.9687 L 14.7609,36.607 L 12.9895,38.9687 L 14.1704,38.9687 L 14.1704,43.9874 L 12.9895,43.9874 L 14.7609,46.3492 L 16.2369,43.9874 L 15.3513,43.9874 L 15.3513,38.9687 Z " fill="#FFFFFF" stroke-width="1px" stroke="#FFFFFF"/>
        <path d="M 7.08519999999999,38.9687 L 7.9708,38.9687 L 6.4948,36.607 L 5.01869999999997,38.9687 L 5.90429999999998,38.9687 L 5.90429999999998,43.9874 L 5.01869999999997,43.9874 L 6.4948,46.3492 L 7.9708,43.9874 L 7.08519999999999,43.9874 L 7.08519999999999,38.9687 Z " fill="#FFFFFF" stroke-width="1px" stroke="#FFFFFF"/>
        <path d="M 23.027,38.9687 L 24.2078,38.9687 L 22.4365,36.607 L 20.9604,38.9687 L 22.1413,38.9687 L 22.1413,43.9874 L 20.9604,43.9874 L 22.4365,46.3492 L 24.2078,43.9874 L 23.027,43.9874 L 23.027,38.9687 Z " fill="#FFFFFF" stroke-width="1px" stroke="#FFFFFF"/>
      </g>
      <!--emf-blob end-->
    </g>
  </g>
</svg>

