<svg xmlns="http://www.w3.org/2000/svg" xmlns:xlink="http://www.w3.org/1999/xlink" version="1.1" viewBox="0 0 108 147" >
  <title><![CDATA[Virtual layer switch]]></title>
  <g transform=" scale(3.000000) ">
    <!--converted by libvisio2svg-->
    <g>
      <!--emf-blob start-->
      <g>
        <path d="M 0,48.4252 L 0,16.8307 L 31.5945,16.8307 L 31.5945,48.4252 L 0,48.4252 Z " fill="#046897" stroke="#FFFFFF" stroke-width="0.88585" stroke-linecap="butt" stroke-linejoin="miter"/>
        <path d="M 35.7284,44.5866 L 35.7284,12.9922 L 31.5945,16.8307 L 31.5945,48.4252 L 35.7284,44.5866 Z " fill="#046897" stroke="#FFFFFF" stroke-width="0.88585" stroke-linecap="butt" stroke-linejoin="miter"/>
        <path d="M 5.90550000000002,0 L 0,4.13389999999998 L 31.5945,4.13389999999998 L 35.7284,0 L 5.90550000000002,0 Z " fill="#046897" stroke="#FFFFFF" stroke-width="0.88585" stroke-linecap="butt" stroke-linejoin="miter"/>
        <path d="M 0,16.8307 L 0,4.13389999999998 L 31.5945,4.13389999999998 L 31.5945,16.8307 L 0,16.8307 Z " fill="#046897" stroke="#FFFFFF" stroke-width="0.88585" stroke-linecap="butt" stroke-linejoin="miter"/>
        <path d="M 35.7284,12.9922 L 35.7284,0 L 31.5945,4.13389999999998 L 31.5945,16.8307 L 35.7284,12.9922 Z " fill="#046897" stroke="#FFFFFF" stroke-width="0.88585" stroke-linecap="butt" stroke-linejoin="miter"/>
        <path d="M 31.5945,16.8307 L 0,16.8307 Z " fill="#046897" stroke-width="1px" stroke="#046897"/>
        <path d="M 31.5945,16.8307 L 0,16.8307 " stroke="#FFFFFF" stroke-width="0.88585" stroke-linecap="butt" stroke-linejoin="miter" fill="none"/>
        <path d="M 31.5945,16.8307 L 35.7284,12.9922 Z " fill="#046897" stroke-width="1px" stroke="#046897"/>
        <path d="M 31.5945,16.8307 L 35.7284,12.9922 " stroke="#FFFFFF" stroke-width="0.88585" stroke-linecap="butt" stroke-linejoin="miter" fill="none"/>
        <path d="M 10.3347,8.56299999999999 L 10.3347,5.90549999999996 L 5.315,5.90549999999996 L 5.315,8.56299999999999 L 10.3347,8.56299999999999 Z " fill="#FFFFFF" stroke-width="1px" stroke="#FFFFFF"/>
        <path d="M 7.67720000000003,7.08659999999998 L 7.67720000000003,7.08659999999998 Z " fill="#000000" stroke-width="1px" stroke="#000000"/>
        <path d="M 7.67720000000003,7.08659999999998 L 7.67720000000003,7.08659999999998 " stroke="#FFFFFF" stroke-width="0.88585" stroke-linecap="butt" stroke-linejoin="miter" fill="none"/>
        <path d="M 21.8504,8.56299999999999 L 21.8504,5.90549999999996 L 27.1654,5.90549999999996 L 27.1654,8.56299999999999 L 21.8504,8.56299999999999 Z " fill="#FFFFFF" stroke-width="1px" stroke="#FFFFFF"/>
        <path d="M 24.5079,7.08659999999998 L 24.5079,7.08659999999998 Z " fill="#000000" stroke-width="1px" stroke="#000000"/>
        <path d="M 24.5079,7.08659999999998 L 24.5079,7.08659999999998 " stroke="#FFFFFF" stroke-width="0.88585" stroke-linecap="butt" stroke-linejoin="miter" fill="none"/>
        <path d="M 10.3347,15.0591 L 10.3347,12.4016 L 5.315,12.4016 L 5.315,15.0591 L 10.3347,15.0591 Z " fill="#FFFFFF" stroke-width="1px" stroke="#FFFFFF"/>
        <path d="M 7.67720000000003,13.878 L 7.67720000000003,13.878 Z " fill="#000000" stroke-width="1px" stroke="#000000"/>
        <path d="M 7.67720000000003,13.878 L 7.67720000000003,13.878 " stroke="#FFFFFF" stroke-width="0.88585" stroke-linecap="butt" stroke-linejoin="miter" fill="none"/>
        <path d="M 21.8504,15.0591 L 21.8504,12.4016 L 27.1654,12.4016 L 27.1654,15.0591 L 21.8504,15.0591 Z " fill="#FFFFFF" stroke-width="1px" stroke="#FFFFFF"/>
        <path d="M 24.5079,13.878 L 24.5079,13.878 Z " fill="#000000" stroke-width="1px" stroke="#000000"/>
        <path d="M 24.5079,13.878 L 24.5079,13.878 " stroke="#FFFFFF" stroke-width="0.88585" stroke-linecap="butt" stroke-linejoin="miter" fill="none"/>
        <path d="M 8.56300000000005,7.08659999999998 L 24.5079,7.08659999999998 Z " fill="#000000" stroke-width="1px" stroke="#000000"/>
        <path d="M 8.56300000000005,7.08659999999998 L 24.5079,7.08659999999998 " stroke="#FFFFFF" stroke-width="0.88585" stroke-linecap="butt" stroke-linejoin="miter" fill="none"/>
        <path d="M 8.56300000000005,13.878 L 24.5079,13.878 Z " fill="#000000" stroke-width="1px" stroke="#000000"/>
        <path d="M 8.56300000000005,13.878 L 24.5079,13.878 " stroke="#FFFFFF" stroke-width="0.88585" stroke-linecap="butt" stroke-linejoin="miter" fill="none"/>
        <path d="M 7.67720000000003,13.878 L 24.5079,7.08659999999998 Z " fill="#000000" stroke-width="1px" stroke="#000000"/>
        <path d="M 7.67720000000003,13.878 L 24.5079,7.08659999999998 " stroke="#FFFFFF" stroke-width="0.88585" stroke-linecap="butt" stroke-linejoin="miter" fill="none"/>
        <path d="M 7.67720000000003,7.08659999999998 L 24.5079,13.878 Z " fill="#000000" stroke-width="1px" stroke="#000000"/>
        <path d="M 7.67720000000003,7.08659999999998 L 24.5079,13.878 " stroke="#FFFFFF" stroke-width="0.88585" stroke-linecap="butt" stroke-linejoin="miter" fill="none"/>
        <path d="M 8.56300000000005,23.9174 L 8.56300000000005,21.2599 L 9.15360000000004,21.2599 L 8.56300000000005,20.3741 L 7.67720000000003,21.2599 L 8.26770000000005,21.2599 L 8.26770000000005,23.9174 L 8.56300000000005,23.9174 Z " fill="#FFFFFF" stroke-width="1px" stroke="#FFFFFF"/>
        <path d="M 7.38190000000003,24.5079 L 5.315,22.441 L 5.61030000000005,22.1457 L 4.42920000000004,21.8504 L 4.7244,23.0315 L 5.0197,22.7363 L 7.08660000000003,24.8032 L 7.38190000000003,24.5079 Z " fill="#FFFFFF" stroke-width="1px" stroke="#FFFFFF"/>
        <path d="M 6.49610000000001,25.689 L 3.83860000000004,25.689 L 3.83860000000004,25.3937 L 2.65750000000003,25.9843 L 3.83860000000004,26.5748 L 3.83860000000004,26.2796 L 6.49610000000001,26.2796 L 6.49610000000001,25.689 Z " fill="#FFFFFF" stroke-width="1px" stroke="#FFFFFF"/>
        <path d="M 7.08660000000003,27.1654 L 5.0197,28.937 L 4.7244,28.6418 L 4.42920000000004,29.8229 L 5.61030000000005,29.8229 L 5.315,29.2323 L 7.38190000000003,27.4607 L 7.08660000000003,27.1654 Z " fill="#FFFFFF" stroke-width="1px" stroke="#FFFFFF"/>
        <path d="M 8.26770000000005,27.7559 L 8.26770000000005,30.7087 L 7.67720000000003,30.7087 L 8.56300000000005,31.5945 L 9.15360000000004,30.7087 L 8.56300000000005,30.7087 L 8.56300000000005,27.7559 L 8.26770000000005,27.7559 Z " fill="#FFFFFF" stroke-width="1px" stroke="#FFFFFF"/>
        <path d="M 10.3347,26.2796 L 12.9921000000001,26.2796 L 12.9921000000001,26.5748 L 14.1732,25.9843 L 12.9921000000001,25.3937 L 12.9921000000001,25.689 L 10.3347,25.689 L 10.3347,26.2796 Z " fill="#FFFFFF" stroke-width="1px" stroke="#FFFFFF"/>
        <path d="M 10.0394,24.8032 L 11.811,22.7363 L 12.1063,23.0315 L 12.4016,21.8504 L 11.2205,22.1457 L 11.5158,22.441 L 9.7441,24.5079 L 10.0394,24.8032 Z " fill="#FFFFFF" stroke-width="1px" stroke="#FFFFFF"/>
        <path d="M 10.0394,28.3465 C 11.5158,27.4607 11.811,25.689 10.9252,24.2126 C 10.0394,23.0315 8.26770000000005,22.7363 6.79140000000001,23.6221 C 5.61030000000005,24.5079 5.315,26.2796 6.20080000000002,27.4607 C 7.08660000000003,28.937 8.85830000000004,29.2323 10.0394,28.3465 Z Z " fill="#FFFFFF" stroke="none"/>
        <path d="M 8.56300000000005,38.9764 L 8.56300000000005,36.3189 L 9.15360000000004,36.3189 L 8.56300000000005,35.1378 L 7.67720000000003,36.3189 L 8.26770000000005,36.3189 L 8.26770000000005,38.9764 L 8.56300000000005,38.9764 Z " fill="#FFFFFF" stroke-width="1px" stroke="#FFFFFF"/>
        <path d="M 7.38190000000003,39.2717 L 5.315,37.5 L 5.61030000000005,37.2048 L 4.42920000000004,36.9095 L 4.7244,38.0906 L 5.0197,37.7953 L 7.08660000000003,39.8622 L 7.38190000000003,39.2717 Z " fill="#FFFFFF" stroke-width="1px" stroke="#FFFFFF"/>
        <path d="M 6.49610000000001,40.7481 L 3.83860000000004,40.7481 L 3.83860000000004,40.1575 L 2.65750000000003,41.0433 L 3.83860000000004,41.6339 L 3.83860000000004,41.0433 L 6.49610000000001,41.0433 L 6.49610000000001,40.7481 Z " fill="#FFFFFF" stroke-width="1px" stroke="#FFFFFF"/>
        <path d="M 7.08660000000003,42.2244 L 5.0197,43.9961 L 4.7244,43.7008 L 4.42920000000004,44.8819 L 5.61030000000005,44.5866 L 5.315,44.2914 L 7.38190000000003,42.5197 L 7.08660000000003,42.2244 Z " fill="#FFFFFF" stroke-width="1px" stroke="#FFFFFF"/>
        <path d="M 8.26770000000005,42.815 L 8.26770000000005,45.4725 L 7.67720000000003,45.4725 L 8.56300000000005,46.6536 L 9.15360000000004,45.4725 L 8.56300000000005,45.4725 L 8.56300000000005,42.815 L 8.26770000000005,42.815 Z " fill="#FFFFFF" stroke-width="1px" stroke="#FFFFFF"/>
        <path d="M 9.7441,42.5197 L 11.5158,44.2914 L 11.2205,44.5866 L 12.4016,44.8819 L 12.1063,43.7008 L 11.811,43.9961 L 10.0394,42.2244 L 9.7441,42.5197 Z " fill="#FFFFFF" stroke-width="1px" stroke="#FFFFFF"/>
        <path d="M 10.3347,41.0433 L 12.9921000000001,41.0433 L 12.9921000000001,41.6339 L 14.1732,41.0433 L 12.9921000000001,40.1575 L 12.9921000000001,40.7481 L 10.3347,40.7481 L 10.3347,41.0433 Z " fill="#FFFFFF" stroke-width="1px" stroke="#FFFFFF"/>
        <path d="M 10.0394,43.1103 C 11.5158,42.2244 11.811,40.4528 10.9252,39.2717 C 10.0394,38.0906 8.26770000000005,37.7953 6.79140000000001,38.6811 C 5.61030000000005,39.567 5.315,41.3386 6.20080000000002,42.5197 C 7.08660000000003,43.7008 8.85830000000004,43.9961 10.0394,43.1103 Z Z " fill="#FFFFFF" stroke="none"/>
        <path d="M 23.6221,23.9174 L 23.6221,21.2599 L 24.2126,21.2599 L 23.3268,20.3741 L 22.7362,21.2599 L 23.3268,21.2599 L 23.3268,23.9174 L 23.6221,23.9174 Z " fill="#FFFFFF" stroke-width="1px" stroke="#FFFFFF"/>
        <path d="M 22.1457,24.5079 L 20.374,22.441 L 20.6693,22.1457 L 19.4882,21.8504 L 19.7835,23.0315 L 20.0788,22.7363 L 21.8504,24.8032 L 22.1457,24.5079 Z " fill="#FFFFFF" stroke-width="1px" stroke="#FFFFFF"/>
        <path d="M 21.5551,25.689 L 18.8977,25.689 L 18.8977,25.3937 L 17.7166,25.9843 L 18.8977,26.5748 L 18.8977,26.2796 L 21.5551,26.2796 L 21.5551,25.689 Z " fill="#FFFFFF" stroke-width="1px" stroke="#FFFFFF"/>
        <path d="M 23.3268,27.7559 L 23.3268,30.7087 L 22.7362,30.7087 L 23.3268,31.5945 L 24.2126,30.7087 L 23.6221,30.7087 L 23.6221,27.7559 L 23.3268,27.7559 Z " fill="#FFFFFF" stroke-width="1px" stroke="#FFFFFF"/>
        <path d="M 24.5079,27.4607 L 26.5748,29.2323 L 26.2795,29.8229 L 27.4606,29.8229 L 27.1654,28.6418 L 26.8701,28.937 L 24.8032,27.1654 L 24.5079,27.4607 Z " fill="#FFFFFF" stroke-width="1px" stroke="#FFFFFF"/>
        <path d="M 25.3937,26.2796 L 28.0512000000001,26.2796 L 28.0512000000001,26.5748 L 28.937,25.9843 L 28.0512000000001,25.3937 L 28.0512000000001,25.689 L 25.3937,25.689 L 25.3937,26.2796 Z " fill="#FFFFFF" stroke-width="1px" stroke="#FFFFFF"/>
        <path d="M 24.8032,24.8032 L 26.8701,22.7363 L 27.1654,23.0315 L 27.4606,21.8504 L 26.2795,22.1457 L 26.5748,22.441 L 24.5079,24.5079 L 24.8032,24.8032 Z " fill="#FFFFFF" stroke-width="1px" stroke="#FFFFFF"/>
        <path d="M 25.0984,28.3465 C 26.2795,27.4607 26.5748,25.689 25.689,24.2126 C 24.8032,23.0315 23.0315000000001,22.7363 21.8504,23.6221 C 20.6693,24.5079 20.374,26.2796 21.2599,27.4607 C 22.1457,28.937 23.9173,29.2323 25.0984,28.3465 Z Z " fill="#FFFFFF" stroke="none"/>
        <path d="M 23.6221,38.9764 L 23.6221,36.3189 L 24.2126,36.3189 L 23.3268,35.1378 L 22.7362,36.3189 L 23.3268,36.3189 L 23.3268,38.9764 L 23.6221,38.9764 Z " fill="#FFFFFF" stroke-width="1px" stroke="#FFFFFF"/>
        <path d="M 21.5551,40.7481 L 18.8977,40.7481 L 18.8977,40.1575 L 17.7166,41.0433 L 18.8977,41.6339 L 18.8977,41.0433 L 21.5551,41.0433 L 21.5551,40.7481 Z " fill="#FFFFFF" stroke-width="1px" stroke="#FFFFFF"/>
        <path d="M 21.8504,42.2244 L 20.0788,43.9961 L 19.7835,43.7008 L 19.4882,44.8819 L 20.6693,44.5866 L 20.374,44.2914 L 22.1457,42.5197 L 21.8504,42.2244 Z " fill="#FFFFFF" stroke-width="1px" stroke="#FFFFFF"/>
        <path d="M 23.3268,42.815 L 23.3268,45.4725 L 22.7362,45.4725 L 23.3268,46.6536 L 24.2126,45.4725 L 23.6221,45.4725 L 23.6221,42.815 L 23.3268,42.815 Z " fill="#FFFFFF" stroke-width="1px" stroke="#FFFFFF"/>
        <path d="M 24.5079,42.5197 L 26.5748,44.2914 L 26.2795,44.5866 L 27.4606,44.8819 L 27.1654,43.7008 L 26.8701,43.9961 L 24.8032,42.2244 L 24.5079,42.5197 Z " fill="#FFFFFF" stroke-width="1px" stroke="#FFFFFF"/>
        <path d="M 25.3937,41.0433 L 28.0512000000001,41.0433 L 28.0512000000001,41.6339 L 28.937,41.0433 L 28.0512000000001,40.1575 L 28.0512000000001,40.7481 L 25.3937,40.7481 L 25.3937,41.0433 Z " fill="#FFFFFF" stroke-width="1px" stroke="#FFFFFF"/>
        <path d="M 24.8032,39.8622 L 26.8701,37.7953 L 27.1654,38.0906 L 27.4606,36.9095 L 26.2795,37.2048 L 26.5748,37.5 L 24.5079,39.2717 L 24.8032,39.8622 Z " fill="#FFFFFF" stroke-width="1px" stroke="#FFFFFF"/>
        <path d="M 25.0984,43.1103 C 26.2795,42.2244 26.5748,40.4528 25.689,39.2717 C 24.8032,38.0906 23.0315000000001,37.7953 21.8504,38.6811 C 20.6693,39.567 20.374,41.3386 21.2599,42.5197 C 22.1457,43.7008 23.9173,43.9961 25.0984,43.1103 Z Z " fill="#FFFFFF" stroke="none"/>
        <path d="M 10.0394,27.4607 L 22.1457,39.567 " stroke="#FFFFFF" stroke-width="1.77165" stroke-linecap="butt" stroke-linejoin="miter" fill="none"/>
        <path d="M 9.7441,39.567 L 22.441,27.1654 " stroke="#FFFFFF" stroke-width="1.77165" stroke-linecap="butt" stroke-linejoin="miter" fill="none"/>
      </g>
      <!--emf-blob end-->
    </g>
  </g>
</svg>

