<svg xmlns="http://www.w3.org/2000/svg" xmlns:xlink="http://www.w3.org/1999/xlink" version="1.1" viewBox="0 0 81 156" >
  <title><![CDATA[Virtual switch controller (vsc3]]></title>
  <g transform=" scale(3.000000) ">
    <!--converted by libvisio2svg-->
    <g>
      <!--emf-blob start-->
      <g>
        <path d="M 0,51.9406999999999 L 21.2485,51.9406999999999 L 21.2485,4.72189999999995 L 0,4.72189999999995 L 0,51.9406999999999 Z " fill="#126D99" stroke="#FFFFFF" stroke-width="0.88535" stroke-linecap="butt" stroke-linejoin="miter"/>
        <path d="M 0,4.72189999999995 L 5.01700000000005,0 L 26.2655,0 L 21.2485,4.72189999999995 L 0,4.72189999999995 Z " fill="#126D99" stroke-width="1px" stroke="#126D99"/>
        <path d="M 0,4.72189999999995 L 5.01700000000005,0 L 26.2655,0 L 21.2485,4.72189999999995 L 0,4.72189999999995 " stroke="#FFFFFF" stroke-width="0.88535" stroke-linecap="butt" stroke-linejoin="miter" fill="none"/>
        <path d="M 21.2485,51.9406999999999 L 26.2655,47.2187999999999 L 26.2655,0 L 21.2485,4.72189999999995 L 21.2485,51.9406999999999 Z " fill="#126D99" stroke-width="1px" stroke="#126D99"/>
        <path d="M 21.2485,51.9406999999999 L 26.2655,47.2187999999999 L 26.2655,0 L 21.2485,4.72189999999995 L 21.2485,51.9406999999999 " stroke="#FFFFFF" stroke-width="0.88535" stroke-linecap="butt" stroke-linejoin="miter" fill="none"/>
        <path d="M 7.96820000000002,38.3652999999999 C 7.96820000000002,38.0701999999999 7.96820000000002,37.1847999999999 8.85350000000005,35.7092 C 9.14860000000004,35.4141 9.44370000000004,35.119 9.44370000000004,35.119 C 7.08280000000002,37.1847999999999 7.08280000000002,37.1847999999999 7.08280000000002,37.1847999999999 C 6.78770000000003,37.48 6.49260000000004,37.7751 6.19750000000005,38.0701999999999 C 5.31210000000004,39.5458 5.31210000000004,40.4311 5.31210000000004,40.4311 Z Z " fill="#FFFFFF" stroke="#0E6A98" stroke-width="0.4427" stroke-linecap="butt" stroke-linejoin="miter"/>
        <path d="M 15.9363,36.8896999999999 C 14.7559000000001,35.7092 13.2803,33.9385 10.034,34.8239 C 9.7389,34.8239 9.7389,34.8239 9.44370000000004,35.119 C 7.08280000000002,37.1847999999999 7.08280000000002,37.1847999999999 7.08280000000002,37.1847999999999 C 8.26330000000002,36.2995 11.2145,35.4141 13.8705,38.9555 C 12.0998,40.136 12.0998,40.136 12.0998,40.136 C 15.9363,40.4311 15.9363,40.4311 15.9363,40.4311 C 17.1168,35.7092 17.1168,35.7092 17.1168,35.7092 Z Z " fill="#FFFFFF" stroke="#0E6A98" stroke-width="0.4427" stroke-linecap="butt" stroke-linejoin="miter"/>
        <path d="M 17.4119,39.8409 C 14.7559000000001,42.2017999999999 14.7559000000001,42.2017999999999 14.7559000000001,42.2017999999999 C 14.7559000000001,42.497 15.051,43.9725 13.8705,46.3335 C 12.0998,46.9236999999999 9.7389,46.0384 7.96820000000002,42.2017999999999 C 9.44370000000004,41.0214 9.44370000000004,41.0214 9.44370000000004,41.0214 C 6.49260000000004,40.136 6.49260000000004,40.136 6.49260000000004,40.136 C 4.72190000000001,45.153 4.72190000000001,45.153 4.72190000000001,45.153 C 6.19750000000005,43.6774 6.19750000000005,43.6774 6.19750000000005,43.6774 C 6.78770000000003,44.8579 7.37790000000001,45.7433 8.26330000000002,46.3335 C 5.60720000000003,46.3335 5.60720000000003,46.3335 5.60720000000003,46.3335 C 6.78770000000003,45.4481 6.78770000000003,45.4481 6.78770000000003,45.4481 C 0.885300000000029,47.2187999999999 0.885300000000029,47.2187999999999 0.885300000000029,47.2187999999999 C 3.24630000000002,48.6944 3.24630000000002,48.6944 3.24630000000002,48.6944 C 3.8365,48.1041999999999 3.8365,48.1041999999999 3.8365,48.1041999999999 C 11.5096,48.1041999999999 11.5096,48.1041999999999 11.5096,48.1041999999999 C 11.5096,48.1041999999999 11.5096,48.1041999999999 11.5096,48.1041999999999 C 11.8047,48.1041999999999 12.3949,48.1041999999999 12.6900000000001,47.8090999999999 C 12.6900000000001,47.8090999999999 12.6900000000001,47.8090999999999 12.9852,47.514 C 12.9852,47.514 12.9852,47.8090999999999 12.9852,47.8090999999999 C 12.9852,47.8090999999999 15.3461,46.0384 15.6412,45.7433 C 16.5266,44.5628 17.4119,43.0871999999999 17.4119,39.8409 Z Z " fill="#FFFFFF" stroke="#0E6A98" stroke-width="0.4427" stroke-linecap="butt" stroke-linejoin="miter"/>
        <path d="M 9.7389,31.5776 C 11.8047,29.5117999999999 11.8047,29.5117999999999 11.8047,29.5117999999999 C 9.7389,29.5117999999999 8.85350000000005,29.5117999999999 7.37790000000001,29.8069 C 6.78770000000003,32.1677999999999 6.19750000000005,33.6434 5.60720000000003,35.119 C 7.673,33.3482999999999 7.673,33.3482999999999 7.673,33.3482999999999 C 9.44370000000004,34.5287999999999 11.2145,35.119 12.6900000000001,34.2336999999999 C 12.6900000000001,34.2336999999999 12.9852,34.2336999999999 12.9852,34.2336999999999 C 15.3461,31.8727 15.3461,31.8727 15.3461,31.8727 C 13.8705,33.3482999999999 11.5096,33.0531999999999 9.7389,31.5776 Z Z " fill="#FFFFFF" stroke="#0E6A98" stroke-width="0.4427" stroke-linecap="butt" stroke-linejoin="miter"/>
        <path d="M 7.96820000000002,28.0362 C 7.37790000000001,25.9704 7.673,23.9045 8.85350000000005,22.1338 C 9.14860000000004,21.8387 9.44370000000004,21.5436 9.44370000000004,21.5436 C 7.08280000000002,23.9045 7.08280000000002,23.9045 7.08280000000002,23.9045 C 6.78770000000003,23.9045 6.49260000000004,24.1997 6.19750000000005,24.4947999999999 C 5.31210000000004,26.2655 5.01700000000005,28.3312999999999 5.31210000000004,30.3971 Z Z " fill="#FFFFFF" stroke="#0E6A98" stroke-width="0.4427" stroke-linecap="butt" stroke-linejoin="miter"/>
        <path d="M 12.9852,21.5436 C 12.0998,20.9533999999999 10.9193,20.9533999999999 10.034,21.2485 C 9.7389,21.2485 9.7389,21.2485 9.44370000000004,21.5436 C 7.08280000000002,23.9045 7.08280000000002,23.9045 7.08280000000002,23.9045 C 8.26330000000002,22.7241 9.7389,22.4288999999999 11.2145,23.0192 C 9.7389,24.1997 9.7389,24.1997 9.7389,24.1997 C 14.1656,24.1997 14.1656,24.1997 14.1656,24.1997 C 14.7559000000001,19.7728999999999 14.7559000000001,19.7728999999999 14.7559000000001,19.7728999999999 Z Z " fill="#FFFFFF" stroke="#0E6A98" stroke-width="0.4427" stroke-linecap="butt" stroke-linejoin="miter"/>
        <path d="M 16.2315,23.0192 C 18.0022,26.2655 17.4119,29.5117999999999 16.2315,30.9874 C 15.9363,31.2825 15.6412,31.5776 15.3461,31.8727 C 12.9852,34.2336999999999 12.9852,34.2336999999999 12.9852,34.2336999999999 C 13.2803,33.9385 13.2803,33.6434 13.5754,33.3482999999999 C 15.6412,30.3971 14.4608,27.1507999999999 13.8705,25.3801 Z Z " fill="#FFFFFF" stroke="#0E6A98" stroke-width="0.4427" stroke-linecap="butt" stroke-linejoin="miter"/>
        <path d="M 12.6900000000001,20.6582 C 12.6900000000001,20.6582 12.9852,20.6582 12.9852,20.3631 C 15.3461,18.2973 15.3461,18.2973 15.3461,18.2973 C 13.8705,19.7728999999999 11.5096,19.4777999999999 9.7389,17.7071 C 7.673,19.4777999999999 7.673,19.4777999999999 7.673,19.4777999999999 C 9.14860000000004,20.9533999999999 11.2145,21.2485 12.6900000000001,20.6582 Z Z " fill="#FFFFFF" stroke="#0E6A98" stroke-width="0.4427" stroke-linecap="butt" stroke-linejoin="miter"/>
        <path d="M 9.7389,12.9852 C 7.96820000000002,14.4607999999999 7.96820000000002,14.4607999999999 7.96820000000002,14.4607999999999 C 7.37790000000001,12.3949 7.673,10.3291 8.85350000000005,8.55839999999995 C 9.14860000000004,8.26329999999996 9.44370000000004,7.96819999999997 9.44370000000004,7.67309999999998 C 7.08280000000002,10.0339999999999 7.08280000000002,10.0339999999999 7.08280000000002,10.0339999999999 C 6.78770000000003,10.3291 6.49260000000004,10.6242 6.19750000000005,10.9193999999999 C 5.31210000000004,12.3949 5.01700000000005,14.7558999999999 5.31210000000004,16.8217 C 3.54140000000001,18.5923999999999 3.54140000000001,18.5923999999999 3.54140000000001,18.5923999999999 C 5.01700000000005,18.5923999999999 6.19750000000005,18.5923999999999 7.96820000000002,18.2973 C 8.55840000000001,16.5266 8.85350000000005,15.0509999999999 9.7389,12.9852 Z " fill="#FFFFFF" stroke="none"/>
        <path d="M 9.7389,12.9852 C 7.96820000000002,14.4607999999999 7.96820000000002,14.4607999999999 7.96820000000002,14.4607999999999 C 7.37790000000001,12.3949 7.673,10.3291 8.85350000000005,8.55839999999995 C 9.14860000000004,8.26329999999996 9.44370000000004,7.96819999999997 9.44370000000004,7.67309999999998 C 7.08280000000002,10.0339999999999 7.08280000000002,10.0339999999999 7.08280000000002,10.0339999999999 C 6.78770000000003,10.3291 6.49260000000004,10.6242 6.19750000000005,10.9193999999999 C 5.31210000000004,12.3949 5.01700000000005,14.7558999999999 5.31210000000004,16.8217 C 3.54140000000001,18.5923999999999 3.54140000000001,18.5923999999999 3.54140000000001,18.5923999999999 C 5.01700000000005,18.5923999999999 6.19750000000005,18.5923999999999 7.96820000000002,18.2973 C 8.55840000000001,16.5266 8.85350000000005,15.0509999999999 9.7389,12.9852 Z " stroke="#0E6A98" stroke-width="0.4427" stroke-linecap="butt" stroke-linejoin="miter" fill="none"/>
        <path d="M 18.8875,9.73889999999994 C 17.1168,11.5096 17.1168,11.5096 17.1168,11.5096 C 17.7070000000001,13.5753999999999 17.4119,15.6412 16.2315,17.4118999999999 C 15.9363,17.7071 15.6412,18.0022 15.3461,18.2973 C 12.9852,20.3631 12.9852,20.3631 12.9852,20.3631 C 13.2803,20.3631 13.2803,20.068 13.5754,19.7728999999999 C 14.7559000000001,18.0022 15.051,15.9363999999999 14.4608,13.8704999999999 C 12.6900000000001,15.3461 12.6900000000001,15.3461 12.6900000000001,15.3461 C 13.2803,13.8704999999999 13.8705,12.3949 14.4608,10.0339999999999 C 15.9363,9.73889999999994 16.8217,9.73889999999994 18.8875,9.73889999999994 Z " fill="#FFFFFF" stroke="none"/>
        <path d="M 18.8875,9.73889999999994 C 17.1168,11.5096 17.1168,11.5096 17.1168,11.5096 C 17.7070000000001,13.5753999999999 17.4119,15.6412 16.2315,17.4118999999999 C 15.9363,17.7071 15.6412,18.0022 15.3461,18.2973 C 12.9852,20.3631 12.9852,20.3631 12.9852,20.3631 C 13.2803,20.3631 13.2803,20.068 13.5754,19.7728999999999 C 14.7559000000001,18.0022 15.051,15.9363999999999 14.4608,13.8704999999999 C 12.6900000000001,15.3461 12.6900000000001,15.3461 12.6900000000001,15.3461 C 13.2803,13.8704999999999 13.8705,12.3949 14.4608,10.0339999999999 C 15.9363,9.73889999999994 16.8217,9.73889999999994 18.8875,9.73889999999994 Z " stroke="#0E6A98" stroke-width="0.4427" stroke-linecap="butt" stroke-linejoin="miter" fill="none"/>
        <path d="M 20.3631,7.37789999999995 C 11.8047,7.37789999999995 11.8047,7.37789999999995 11.8047,7.37789999999995 C 11.2145,7.37789999999995 10.6242,7.37789999999995 10.034,7.37789999999995 C 9.7389,7.67309999999998 9.7389,7.67309999999998 9.44370000000004,7.67309999999998 C 7.08280000000002,10.0339999999999 7.08280000000002,10.0339999999999 7.08280000000002,10.0339999999999 C 8.55840000000001,8.55839999999995 11.2145,8.85349999999994 12.9852,10.6242 C 14.7559000000001,9.14859999999993 14.7559000000001,9.14859999999993 14.7559000000001,9.14859999999993 C 18.5924000000001,9.14859999999993 18.5924000000001,9.14859999999993 18.5924000000001,9.14859999999993 Z Z " fill="#FFFFFF" stroke="#0E6A98" stroke-width="0.4427" stroke-linecap="butt" stroke-linejoin="miter"/>
      </g>
      <!--emf-blob end-->
    </g>
  </g>
</svg>

