<svg xmlns="http://www.w3.org/2000/svg" xmlns:xlink="http://www.w3.org/1999/xlink" version="1.1" viewBox="0 0 93 96" >
  <title><![CDATA[Voice ATM switch]]></title>
  <g transform=" scale(3.000000) ">
    <!--converted by libvisio2svg-->
    <g>
      <!--emf-blob start-->
      <g>
        <path d="M 25.3882,31.2924 L 25.3882,5.31380000000001 L 0,5.31380000000001 L 0,31.2924 L 25.3882,31.2924 Z " fill="#0E6F9C" stroke="#FFFFFF" stroke-width="0.88565" stroke-linecap="butt" stroke-linejoin="miter"/>
        <path d="M 25.3882,5.31380000000001 L 0,5.31380000000001 L 6.49459999999999,0 L 30.702,0 L 30.702,0 L 30.702,25.9786 L 25.3882,31.2924 L 25.3882,5.31380000000001 L 25.3882,5.31380000000001 Z " fill="#0E6F9C" stroke="#FFFFFF" stroke-width="0.88565" stroke-linecap="butt" stroke-linejoin="miter"/>
        <path d="M 25.3882,5.31380000000001 L 30.702,0 Z " fill="#0E6F9C" stroke-width="1px" stroke="#0E6F9C"/>
        <path d="M 25.3882,5.31380000000001 L 30.702,0 " stroke="#FFFFFF" stroke-width="0.88565" stroke-linecap="butt" stroke-linejoin="miter" fill="none"/>
        <path d="M 22.1409,25.9786 L 16.5318,25.9786 L 8.85630000000003,10.6276 L 3.83770000000004,10.6276 " stroke="#FFFFFF" stroke-width="2.6569" stroke-linecap="butt" stroke-linejoin="miter" fill="none"/>
        <path d="M 3.54250000000002,25.9786 L 8.85630000000003,25.9786 L 16.5318,10.6276 L 22.1409,10.6276 " stroke="#FFFFFF" stroke-width="2.6569" stroke-linecap="butt" stroke-linejoin="miter" fill="none"/>
        <path d="M 20.3696,7.97070000000002 L 20.3696,13.2845 L 23.6169,10.6276 L 20.3696,7.97070000000002 Z " fill="#FFFFFF" stroke="#FFFFFF" stroke-width="0.4428" stroke-linecap="butt" stroke-linejoin="miter"/>
        <path d="M 20.3696,23.0265 L 20.3696,28.6355 L 23.6169,25.9786 L 20.3696,23.0265 Z " fill="#FFFFFF" stroke="#FFFFFF" stroke-width="0.4428" stroke-linecap="butt" stroke-linejoin="miter"/>
        <path d="M 4.72340000000003,13.5797 L 4.72340000000003,7.97070000000002 L 1.476,10.6276 L 4.72340000000003,13.5797 Z " fill="#FFFFFF" stroke="#FFFFFF" stroke-width="0.4428" stroke-linecap="butt" stroke-linejoin="miter"/>
        <path d="M 4.72340000000003,28.6355 L 4.72340000000003,23.3217 L 1.476,25.9786 L 4.72340000000003,28.6355 Z " fill="#FFFFFF" stroke="#FFFFFF" stroke-width="0.4428" stroke-linecap="butt" stroke-linejoin="miter"/>
        <path d="M 17.7127,23.0265 L 17.7127,12.9893 L 7.97070000000002,12.9893 L 7.97070000000002,23.0265 L 17.7127,23.0265 Z " fill="#0E6F9C" stroke="#FFFFFF" stroke-width="0.88565" stroke-linecap="butt" stroke-linejoin="miter"/>
        <g transform=" scale(3.000000) ">
          <text font-family="Helvetica" fill="#FFFFFF" style="white-space:pre;" font-weight="400" text-anchor="start" x="0.0000" y="0.0000" font-size="9.4468"><![CDATA[V]]></text>
        </g>
        <g transform=" scale(3.000000) ">
</g>
      </g>
      <!--emf-blob end-->
    </g>
  </g>
</svg>

