<svg xmlns="http://www.w3.org/2000/svg" xmlns:xlink="http://www.w3.org/1999/xlink" version="1.1" viewBox="0 0 93 96" >
  <title><![CDATA[Voice commserver]]></title>
  <g transform=" scale(3.000000) ">
    <!--converted by libvisio2svg-->
    <g>
      <!--emf-blob start-->
      <g>
        <path d="M 25.3937,31.0039 L 25.3937,5.0197 L 0,5.0197 L 0,31.0039 L 25.3937,31.0039 Z " fill="#126D99" stroke="#FFFFFF" stroke-width="0.88585" stroke-linecap="butt" stroke-linejoin="miter"/>
        <path d="M 12.6969,23.622 C 15.6496,23.622 18.3071,21.2598 18.3071,18.0118 C 18.3071,15.059 15.6496,12.6968 12.6969,12.6968 C 9.7441,12.6968 7.38190000000003,15.059 7.38190000000003,18.0118 C 7.38190000000003,21.2598 9.7441,23.622 12.6969,23.622 Z Z " stroke="#FFFFFF" stroke-width="1.32875" stroke-linecap="butt" stroke-linejoin="miter" fill="none"/>
        <path d="M 12.6969,12.6968 L 22.1457,12.6968 " stroke="#FFFFFF" stroke-width="1.32875" stroke-linecap="butt" stroke-linejoin="miter" fill="none"/>
        <path d="M 20.6693,9.7441 L 20.6693,15.3543 L 24.2126,12.6968 L 20.6693,9.7441 Z " fill="#FFFFFF" stroke="#FFFFFF" stroke-width="0.4429" stroke-linecap="butt" stroke-linejoin="miter"/>
        <path d="M 7.38190000000003,18.0118 L 7.38190000000003,8.56299999999999 " stroke="#FFFFFF" stroke-width="1.32875" stroke-linecap="butt" stroke-linejoin="miter" fill="none"/>
        <path d="M 4.42920000000004,10.3346 L 10.0394,10.3346 L 7.38190000000003,6.79129999999998 L 4.42920000000004,10.3346 Z " fill="#FFFFFF" stroke="#FFFFFF" stroke-width="0.4429" stroke-linecap="butt" stroke-linejoin="miter"/>
        <path d="M 18.3071,18.0118 L 18.3071,27.7559 " stroke="#FFFFFF" stroke-width="1.32875" stroke-linecap="butt" stroke-linejoin="miter" fill="none"/>
        <path d="M 21.2599,25.9842 L 15.3544,25.9842 L 18.3071,29.2323 L 21.2599,25.9842 Z " fill="#FFFFFF" stroke="#FFFFFF" stroke-width="0.4429" stroke-linecap="butt" stroke-linejoin="miter"/>
        <path d="M 12.9922,23.622 L 3.24810000000002,23.622 " stroke="#FFFFFF" stroke-width="1.32875" stroke-linecap="butt" stroke-linejoin="miter" fill="none"/>
        <path d="M 5.0197,26.2795 L 5.0197,20.6693 L 1.47640000000001,23.3268 L 5.0197,26.2795 Z " fill="#FFFFFF" stroke="#FFFFFF" stroke-width="0.4429" stroke-linecap="butt" stroke-linejoin="miter"/>
        <path d="M 25.3937,5.0197 L 0,5.0197 L 6.49610000000001,0 L 30.7087,0 L 30.7087,0 L 30.7087,25.689 L 25.3937,31.0039 L 25.3937,5.31490000000002 L 25.3937,5.0197 Z " fill="#126D99" stroke="#FFFFFF" stroke-width="0.88585" stroke-linecap="butt" stroke-linejoin="miter"/>
        <path d="M 25.3937,5.0197 L 30.7087,0 Z " fill="#126D99" stroke-width="1px" stroke="#126D99"/>
        <path d="M 25.3937,5.0197 L 30.7087,0 " stroke="#FFFFFF" stroke-width="0.88585" stroke-linecap="butt" stroke-linejoin="miter" fill="none"/>
        <g transform=" scale(3.000000) ">
          <text font-family="Helvetica" fill="#FFFFFF" style="white-space:pre;" font-weight="700" text-anchor="start" x="0.0000" y="0.0000" font-size="10.6299"><![CDATA[V]]></text>
        </g>
        <g transform=" scale(3.000000) ">
</g>
      </g>
      <!--emf-blob end-->
    </g>
  </g>
</svg>

