<svg xmlns="http://www.w3.org/2000/svg" xmlns:xlink="http://www.w3.org/1999/xlink" version="1.1" viewBox="0 0 171 87" >
  <title><![CDATA[Voice switch]]></title>
  <g transform=" scale(3.000000) ">
    <!--converted by libvisio2svg-->
    <g>
      <!--emf-blob start-->
      <g>
        <path d="M 42.2141999999999,27.4539 L 42.2141999999999,13.8746 L 0,13.8746 L 0,27.4539 L 42.2141999999999,27.4539 Z " fill="#0E6F9C" stroke="#FFFFFF" stroke-width="0.8856" stroke-linecap="butt" stroke-linejoin="miter"/>
        <path d="M 0,13.8746 L 17.1218,0 L 56.384,0 L 42.2141999999999,13.8746 L 0,13.8746 Z " fill="#0E6F9C" stroke="#FFFFFF" stroke-width="0.8856" stroke-linecap="butt" stroke-linejoin="miter"/>
        <path d="M 42.2141999999999,28.0444000000001 L 56.384,12.6937 L 56.384,0.295200000000023 L 42.2141999999999,13.8746 L 42.2141999999999,28.0444000000001 Z " fill="#0E6F9C" stroke="#FFFFFF" stroke-width="0.8856" stroke-linecap="butt" stroke-linejoin="miter"/>
        <path d="M 24.7971,10.3321 L 23.9115,10.9225 L 13.2842,10.9225 L 12.3986,12.1033 L 9.44649999999996,10.9225 L 15.3506,9.15130000000005 L 14.1698,10.3321 L 24.7971,10.3321 Z " fill="#FFFFFF" stroke-width="1px" stroke="#FFFFFF"/>
        <path d="M 33.0628,5.31360000000001 L 32.1772,5.90400000000005 L 21.5499,5.90400000000005 L 20.6643,6.78970000000004 L 17.7122,5.60880000000003 L 23.6163,4.13280000000003 L 22.4355,5.31360000000001 L 33.0628,5.31360000000001 Z " fill="#FFFFFF" stroke-width="1px" stroke="#FFFFFF"/>
        <path d="M 26.5684,8.5609 L 27.454,7.97050000000002 L 38.0813,7.97050000000002 L 38.9669,6.78970000000004 L 41.919,7.97050000000002 L 36.0149,9.74170000000004 L 37.1957,8.5609 L 26.5684,8.5609 Z " fill="#FFFFFF" stroke-width="1px" stroke="#FFFFFF"/>
        <path d="M 32.1772,3.24720000000002 L 32.7676,2.65680000000003 L 43.395,2.65680000000003 L 44.5758,1.77120000000002 L 47.2326,2.95200000000006 L 41.6238,4.42800000000005 L 42.5094,3.24720000000002 L 32.1772,3.24720000000002 Z " fill="#FFFFFF" stroke-width="1px" stroke="#FFFFFF"/>
        <path d="M 25.6827,25.9779 L 25.6827,16.2362000000001 L 15.6458,16.2362000000001 L 15.6458,25.9779 L 25.6827,25.9779 Z " fill="#000000" stroke="#FFFFFF" stroke-width="0.8856" stroke-linecap="butt" stroke-linejoin="miter"/>
        <g transform=" scale(3.000000) ">
          <text font-family="Helvetica" fill="#FFFFFF" style="white-space:pre;" font-weight="700" text-anchor="start" x="0.0000" y="0.0000" font-size="11.8082"><![CDATA[V]]></text>
        </g>
        <g transform=" scale(3.000000) ">
</g>
      </g>
      <!--emf-blob end-->
    </g>
  </g>
</svg>

