<svg xmlns="http://www.w3.org/2000/svg" xmlns:xlink="http://www.w3.org/1999/xlink" version="1.1" viewBox="0 0 156 81" >
  <title><![CDATA[VPN gateway]]></title>
  <g transform=" scale(3.000000) ">
    <!--converted by libvisio2svg-->
    <g>
      <!--emf-blob start-->
      <g>
        <path d="M 0.295299999999997,26.8701 L 0.295299999999997,7.97249999999997 L 42.2245,7.97249999999997 L 42.2245,26.8701 L 0.295299999999997,26.8701 Z " fill="#126D99" stroke="#FFFFFF" stroke-width="0.88585" stroke-linecap="butt" stroke-linejoin="miter"/>
        <path d="M 42.2245,7.97249999999997 L 0,7.97249999999997 L 10.6299,0 L 51.0827,0 L 42.2245,7.97249999999997 Z " fill="#126D99" stroke="#FFFFFF" stroke-width="0.88585" stroke-linecap="butt" stroke-linejoin="miter"/>
        <path d="M 51.0827,0 L 51.0827,18.3071 L 42.2245,26.8701 L 42.2245,7.97249999999997 L 51.0827,0 Z " fill="#126D99" stroke="#FFFFFF" stroke-width="0.88585" stroke-linecap="butt" stroke-linejoin="miter"/>
        <path d="M 22.441,15.3544 C 23.9174,15.3544 23.9174,15.3544 23.9174,15.3544 C 24.2126,15.6496 24.2126,15.6496 24.2126,15.6496 C 25.3937,15.6496 25.3937,15.6496 25.3937,15.6496 C 26.5748,14.7638 26.5748,14.7638 26.5748,14.7638 C 27.7559,14.7638 27.7559,14.7638 27.7559,14.7638 C 28.937,15.9449 28.937,15.9449 28.937,15.9449 C 30.1181,15.9449 30.1181,15.9449 30.1181,15.9449 C 31.5945,14.7638 31.5945,14.7638 31.5945,14.7638 C 32.7756,14.7638 32.7756,14.7638 32.7756,14.7638 C 33.6615,15.6496 33.6615,15.6496 33.6615,15.6496 C 34.8426,15.6496 34.8426,15.6496 34.8426,15.6496 C 35.4331,14.7638 35.4331,14.7638 35.4331,14.7638 C 38.6812,16.8308 38.6812,16.8308 38.6812,16.8308 C 36.3189,18.8977 36.3189,18.8977 36.3189,18.8977 C 22.441,18.8977 22.441,18.8977 22.441,18.8977 C 22.441,19.4882 22.441,19.4882 22.441,19.4882 C 20.374,19.4882 20.374,19.4882 20.374,19.4882 C 19.7835,19.4882 19.1929,19.7835 18.8977,20.0788 C 18.0118,21.8504 16.2402,23.0315 14.1732,23.0315 C 10.9252,23.0315 8.26769999999999,20.3741 8.26769999999999,17.126 C 8.26769999999999,13.878 10.9252,11.2205 14.1732,11.2205 C 16.2402,11.2205 18.0118,12.1063 18.8977,13.878 C 19.1929,14.4685 19.7835,14.7638 20.374,14.7638 C 22.441,14.7638 22.441,14.7638 22.441,14.7638 C 22.441,15.3544 22.441,15.3544 22.441,15.3544 Z " fill="#FFFFFF" stroke="none"/>
        <path d="M 22.441,15.3544 C 23.9174,15.3544 23.9174,15.3544 23.9174,15.3544 C 24.2126,15.6496 24.2126,15.6496 24.2126,15.6496 C 25.3937,15.6496 25.3937,15.6496 25.3937,15.6496 C 26.5748,14.7638 26.5748,14.7638 26.5748,14.7638 C 27.7559,14.7638 27.7559,14.7638 27.7559,14.7638 C 28.937,15.9449 28.937,15.9449 28.937,15.9449 C 30.1181,15.9449 30.1181,15.9449 30.1181,15.9449 C 31.5945,14.7638 31.5945,14.7638 31.5945,14.7638 C 32.7756,14.7638 32.7756,14.7638 32.7756,14.7638 C 33.6615,15.6496 33.6615,15.6496 33.6615,15.6496 C 34.8426,15.6496 34.8426,15.6496 34.8426,15.6496 C 35.4331,14.7638 35.4331,14.7638 35.4331,14.7638 C 38.6812,16.8308 38.6812,16.8308 38.6812,16.8308 C 36.3189,18.8977 36.3189,18.8977 36.3189,18.8977 C 22.441,18.8977 22.441,18.8977 22.441,18.8977 C 22.441,19.4882 22.441,19.4882 22.441,19.4882 C 20.374,19.4882 20.374,19.4882 20.374,19.4882 C 19.7835,19.4882 19.1929,19.7835 18.8977,20.0788 C 18.0118,21.8504 16.2402,23.0315 14.1732,23.0315 C 10.9252,23.0315 8.26769999999999,20.3741 8.26769999999999,17.126 C 8.26769999999999,13.878 10.9252,11.2205 14.1732,11.2205 C 16.2402,11.2205 18.0118,12.1063 18.8977,13.878 C 19.1929,14.4685 19.7835,14.7638 20.374,14.7638 C 22.441,14.7638 22.441,14.7638 22.441,14.7638 C 22.441,15.3544 22.441,15.3544 22.441,15.3544 Z " stroke="#126D99" stroke-width="0.4429" stroke-linecap="butt" stroke-linejoin="miter" fill="none"/>
        <path d="M 37.5,18.0119 C 22.441,18.0119 22.441,18.0119 22.441,18.0119 C 21.8504,18.0119 20.9646,18.0119 20.374,18.6024 C 20.9646,18.8977 21.8504,18.8977 22.441,18.8977 Z " stroke="#126D99" stroke-width="0.4429" stroke-linecap="butt" stroke-linejoin="round" fill="none"/>
        <path d="M 38.0906,16.5355 C 23.0315,16.5355 23.0315,16.5355 23.0315,16.5355 C 22.441,16.5355 20.9646,16.5355 20.6693,16.2402 Z " stroke="#126D99" stroke-width="0.4429" stroke-linecap="butt" stroke-linejoin="round" fill="none"/>
        <path d="M 14.1732,22.1457 C 17.126,22.1457 19.1929,19.7835 19.1929,17.126 C 19.1929,14.1733 17.126,11.8111 14.1732,11.8111 C 11.2205,11.8111 8.85830000000004,14.1733 8.85830000000004,17.126 C 8.85830000000004,20.0788 11.2205,22.1457 14.1732,22.1457 Z Z " fill="#FFFFFF" stroke="#126D99" stroke-width="0.4429" stroke-linecap="butt" stroke-linejoin="round"/>
        <path d="M 11.2205,18.3071 C 11.811,18.3071 12.4016,17.7166 12.4016,17.126 C 12.4016,16.2402 11.811,15.6496 11.2205,15.6496 C 10.3347,15.6496 9.7441,16.2402 9.7441,17.126 C 9.7441,17.7166 10.3347,18.3071 11.2205,18.3071 Z Z " fill="#FFFFFF" stroke="#126D99" stroke-width="0.4429" stroke-linecap="butt" stroke-linejoin="round"/>
      </g>
      <!--emf-blob end-->
    </g>
  </g>
</svg>

