<svg xmlns="http://www.w3.org/2000/svg" xmlns:xlink="http://www.w3.org/1999/xlink" version="1.1" viewBox="0 0 111 102" >
  <title><![CDATA[VPN concentrator]]></title>
  <g transform=" scale(3.000000) ">
    <!--converted by libvisio2svg-->
    <g>
      <!--emf-blob start-->
      <g>
        <path d="M 0,33.0569 L 8.8546,28.9247 L 36.0084,28.9247 L 27.1539,33.0569 L 0,33.0569 L 0,33.0569 Z " fill="#126D99" stroke="#FFFFFF" stroke-width="0.88545" stroke-linecap="butt" stroke-linejoin="miter"/>
        <path d="M 0,4.13210000000004 L 8.8546,0 L 8.8546,28.9247 L 0,33.0569 L 0,4.13210000000004 L 0,4.13210000000004 Z " fill="#126D99" stroke="#FFFFFF" stroke-width="0.88545" stroke-linecap="butt" stroke-linejoin="miter"/>
        <path d="M 8.8546,0 L 36.0084,0 L 36.0084,28.9247 L 8.8546,28.9247 L 8.8546,0 Z " fill="#126D99" stroke="#FFFFFF" stroke-width="0.88545" stroke-linecap="butt" stroke-linejoin="miter"/>
        <path d="M 0,4.13210000000004 L 8.8546,0 L 36.0084,0 L 27.1539,4.13210000000004 L 0,4.13210000000004 L 0,4.13210000000004 Z " fill="#126D99" stroke="#FFFFFF" stroke-width="0.88545" stroke-linecap="butt" stroke-linejoin="miter"/>
        <path d="M 4.72239999999999,8.26420000000002 C 5.60789999999997,8.26420000000002 6.49340000000001,9.73990000000003 6.49340000000001,12.1011 C 6.49340000000001,13.8721 5.60789999999997,15.643 4.72239999999999,15.643 C 3.83699999999999,15.643 3.24669999999998,13.8721 3.24669999999998,12.1011 C 3.24669999999998,9.73990000000003 3.83699999999999,8.26420000000002 4.72239999999999,8.26420000000002 Z " fill="#0E6A98" stroke="none"/>
        <path d="M 4.72239999999999,8.26420000000002 C 5.60789999999997,8.26420000000002 6.49340000000001,9.73990000000003 6.49340000000001,12.1011 C 6.49340000000001,13.8721 5.60789999999997,15.643 4.72239999999999,15.643 C 3.83699999999999,15.643 3.24669999999998,13.8721 3.24669999999998,12.1011 C 3.24669999999998,9.73990000000003 3.83699999999999,8.26420000000002 4.72239999999999,8.26420000000002 Z " stroke="#FFFFFF" stroke-width="0.88545" stroke-linecap="butt" stroke-linejoin="miter" fill="none"/>
        <path d="M 4.72239999999999,8.26420000000002 L 27.1539,8.26420000000002 L 27.1539,15.643 L 4.72239999999999,15.643 Z " fill="#0E6A98" stroke-width="1px" stroke="#0E6A98"/>
        <path d="M 4.72239999999999,8.26420000000002 L 27.1539,8.26420000000002 L 27.1539,15.643 L 4.72239999999999,15.643 " stroke="#FFFFFF" stroke-width="0.88545" stroke-linecap="butt" stroke-linejoin="miter" fill="none"/>
        <path d="M 4.72239999999999,18.8896 C 5.60789999999997,18.8896 6.49340000000001,20.3654 6.49340000000001,22.7266 C 6.49340000000001,24.7926 5.60789999999997,26.2684 4.72239999999999,26.2684 C 3.83699999999999,26.2684 3.24669999999998,24.7926 3.24669999999998,22.7266 C 3.24669999999998,20.3654 3.83699999999999,18.8896 4.72239999999999,18.8896 Z " fill="#0E6A98" stroke="none"/>
        <path d="M 4.72239999999999,18.8896 C 5.60789999999997,18.8896 6.49340000000001,20.3654 6.49340000000001,22.7266 C 6.49340000000001,24.7926 5.60789999999997,26.2684 4.72239999999999,26.2684 C 3.83699999999999,26.2684 3.24669999999998,24.7926 3.24669999999998,22.7266 C 3.24669999999998,20.3654 3.83699999999999,18.8896 4.72239999999999,18.8896 Z " stroke="#FFFFFF" stroke-width="0.88545" stroke-linecap="butt" stroke-linejoin="miter" fill="none"/>
        <path d="M 4.72239999999999,18.8896 L 27.1539,18.8896 L 27.1539,26.2684 L 4.72239999999999,26.2684 Z " fill="#0E6A98" stroke-width="1px" stroke="#0E6A98"/>
        <path d="M 4.72239999999999,18.8896 L 27.1539,18.8896 L 27.1539,26.2684 L 4.72239999999999,26.2684 " stroke="#FFFFFF" stroke-width="0.88545" stroke-linecap="butt" stroke-linejoin="miter" fill="none"/>
        <path d="M 4.72239999999999,8.26420000000002 L 27.7442,8.26420000000002 Z " fill="#000000" stroke-width="1px" stroke="#000000"/>
        <path d="M 4.72239999999999,8.26420000000002 L 27.7442,8.26420000000002 " stroke="#FFFFFF" stroke-width="0.44275" stroke-linecap="butt" stroke-linejoin="miter" fill="none"/>
        <path d="M 4.72239999999999,15.643 L 27.7442,15.643 Z " fill="#000000" stroke-width="1px" stroke="#000000"/>
        <path d="M 4.72239999999999,15.643 L 27.7442,15.643 " stroke="#FFFFFF" stroke-width="0.44275" stroke-linecap="butt" stroke-linejoin="miter" fill="none"/>
        <path d="M 4.72239999999999,18.8896 L 27.7442,18.8896 Z " fill="#000000" stroke-width="1px" stroke="#000000"/>
        <path d="M 4.72239999999999,18.8896 L 27.7442,18.8896 " stroke="#FFFFFF" stroke-width="0.44275" stroke-linecap="butt" stroke-linejoin="miter" fill="none"/>
        <path d="M 4.72239999999999,26.2684 L 27.7442,26.2684 Z " fill="#000000" stroke-width="1px" stroke="#000000"/>
        <path d="M 4.72239999999999,26.2684 L 27.7442,26.2684 " stroke="#FFFFFF" stroke-width="0.44275" stroke-linecap="butt" stroke-linejoin="miter" fill="none"/>
        <path d="M 6.19819999999999,12.1011 L 20.0703,12.1011 " stroke="#FFFFFF" stroke-width="1.3282" stroke-linecap="butt" stroke-linejoin="miter" fill="none"/>
        <path d="M 20.0703,13.8721 L 25.9733,12.1011 L 20.0703,10.3302 L 20.0703,13.8721 Z " fill="#000000" stroke="#FFFFFF" stroke-width="0.44275" stroke-linecap="butt" stroke-linejoin="miter"/>
        <path d="M 5.90309999999999,12.1011 L 20.0703,12.1011 Z " fill="#000000" stroke-width="1px" stroke="#000000"/>
        <path d="M 5.90309999999999,12.1011 L 20.0703,12.1011 " stroke="#FFFFFF" stroke-width="0.44275" stroke-linecap="butt" stroke-linejoin="miter" fill="none"/>
        <path d="M 19.7751,13.8721 L 25.6782,12.1011 L 19.7751,10.3302 L 19.7751,13.8721 Z " fill="#FFFFFF" stroke="#FFFFFF" stroke-width="0.44275" stroke-linecap="butt" stroke-linejoin="miter"/>
        <path d="M 25.6782,22.7266 L 11.8061,22.7266 Z " fill="#FFFFFF" stroke-width="1px" stroke="#FFFFFF"/>
        <path d="M 25.6782,22.7266 L 11.8061,22.7266 " stroke="#FFFFFF" stroke-width="1.3282" stroke-linecap="round" stroke-linejoin="miter" fill="none"/>
        <path d="M 12.1012,20.9557 L 6.19819999999999,22.7266 L 12.1012,24.4975 L 12.1012,20.9557 Z " fill="#FFFFFF" stroke="#FFFFFF" stroke-width="0.88545" stroke-linecap="butt" stroke-linejoin="miter"/>
        <path d="M 27.1539,4.13210000000004 L 36.0084,0 L 36.0084,28.9247 L 27.1539,33.0569 L 27.1539,4.13210000000004 L 27.1539,4.13210000000004 Z " fill="#126D99" stroke="#FFFFFF" stroke-width="0.88545" stroke-linecap="butt" stroke-linejoin="miter"/>
        <path d="M 31.8763,8.26420000000002 C 32.7618,8.26420000000002 33.6472,9.73990000000003 33.6472,12.1011 C 33.6472,13.8721 32.7618,15.643 31.8763,15.643 C 30.9909,15.643 30.4006,13.8721 30.4006,12.1011 C 30.4006,9.73990000000003 30.9909,8.26420000000002 31.8763,8.26420000000002 Z " fill="#126D99" stroke="none"/>
        <path d="M 31.8763,8.26420000000002 C 32.7618,8.26420000000002 33.6472,9.73990000000003 33.6472,12.1011 C 33.6472,13.8721 32.7618,15.643 31.8763,15.643 C 30.9909,15.643 30.4006,13.8721 30.4006,12.1011 C 30.4006,9.73990000000003 30.9909,8.26420000000002 31.8763,8.26420000000002 Z " stroke="#FFFFFF" stroke-width="0.88545" stroke-linecap="butt" stroke-linejoin="miter" fill="none"/>
        <path d="M 31.8763,18.8896 C 32.7618,18.8896 33.6472,20.3654 33.6472,22.7266 C 33.6472,24.7926 32.7618,26.2684 31.8763,26.2684 C 30.9909,26.2684 30.4006,24.7926 30.4006,22.7266 C 30.4006,20.3654 30.9909,18.8896 31.8763,18.8896 Z " fill="#126D99" stroke="none"/>
        <path d="M 31.8763,18.8896 C 32.7618,18.8896 33.6472,20.3654 33.6472,22.7266 C 33.6472,24.7926 32.7618,26.2684 31.8763,26.2684 C 30.9909,26.2684 30.4006,24.7926 30.4006,22.7266 C 30.4006,20.3654 30.9909,18.8896 31.8763,18.8896 Z " stroke="#FFFFFF" stroke-width="0.88545" stroke-linecap="butt" stroke-linejoin="miter" fill="none"/>
      </g>
      <!--emf-blob end-->
    </g>
  </g>
</svg>

