<svg xmlns="http://www.w3.org/2000/svg" xmlns:xlink="http://www.w3.org/1999/xlink" version="1.1" viewBox="0 0 108 147" >
  <title><![CDATA[VSS]]></title>
  <g transform=" scale(3.000000) ">
    <!--converted by libvisio2svg-->
    <g>
      <!--emf-blob start-->
      <g>
        <path d="M 0,48.4068 L 0,16.8243 L 31.5825,16.8243 L 31.5825,48.4068 L 0,48.4068 Z " fill="#046897" stroke="#FFFFFF" stroke-width="0.8855" stroke-linecap="butt" stroke-linejoin="miter"/>
        <path d="M 35.7148,44.5697 L 35.7148,12.692 L 31.5825,16.8243 L 31.5825,48.4068 L 35.7148,44.5697 Z " fill="#046897" stroke="#FFFFFF" stroke-width="0.8855" stroke-linecap="butt" stroke-linejoin="miter"/>
        <path d="M 5.9033,0 L 0,3.83710000000002 L 31.5825,3.83710000000002 L 35.7148,0 L 5.9033,0 Z " fill="#046897" stroke="#FFFFFF" stroke-width="0.8855" stroke-linecap="butt" stroke-linejoin="miter"/>
        <path d="M 0,16.8243 L 0,3.83710000000002 L 31.5825,3.83710000000002 L 31.5825,16.8243 L 0,16.8243 Z " fill="#046897" stroke="#FFFFFF" stroke-width="0.8855" stroke-linecap="butt" stroke-linejoin="miter"/>
        <path d="M 35.7148,12.692 L 35.7148,0 L 31.5825,3.83710000000002 L 31.5825,16.8243 L 35.7148,12.692 Z " fill="#046897" stroke="#FFFFFF" stroke-width="0.8855" stroke-linecap="butt" stroke-linejoin="miter"/>
        <path d="M 31.5825,16.8243 L 35.7148,12.692 Z " fill="#046897" stroke-width="1px" stroke="#046897"/>
        <path d="M 31.5825,16.8243 L 35.7148,12.692 " stroke="#FFFFFF" stroke-width="0.8855" stroke-linecap="butt" stroke-linejoin="miter" fill="none"/>
        <path d="M 10.3307,8.26459999999997 L 10.3307,5.60809999999998 L 5.31290000000001,5.60809999999998 L 5.31290000000001,8.26459999999997 L 10.3307,8.26459999999997 Z " fill="#FFFFFF" stroke-width="1px" stroke="#FFFFFF"/>
        <path d="M 7.67430000000002,7.08389999999997 L 7.67430000000002,7.08389999999997 Z " fill="#000000" stroke-width="1px" stroke="#000000"/>
        <path d="M 7.67430000000002,7.08389999999997 L 7.67430000000002,7.08389999999997 " stroke="#FFFFFF" stroke-width="0.8855" stroke-linecap="butt" stroke-linejoin="miter" fill="none"/>
        <path d="M 21.8421,8.26459999999997 L 21.8421,5.60809999999998 L 27.155,5.60809999999998 L 27.155,8.26459999999997 L 21.8421,8.26459999999997 Z " fill="#FFFFFF" stroke-width="1px" stroke="#FFFFFF"/>
        <path d="M 24.4986,7.08389999999997 L 24.4986,7.08389999999997 Z " fill="#000000" stroke-width="1px" stroke="#000000"/>
        <path d="M 24.4986,7.08389999999997 L 24.4986,7.08389999999997 " stroke="#FFFFFF" stroke-width="0.8855" stroke-linecap="butt" stroke-linejoin="miter" fill="none"/>
        <path d="M 10.3307,15.0534 L 10.3307,12.3969 L 5.31290000000001,12.3969 L 5.31290000000001,15.0534 L 10.3307,15.0534 Z " fill="#FFFFFF" stroke-width="1px" stroke="#FFFFFF"/>
        <path d="M 7.67430000000002,13.5775 L 7.67430000000002,13.5775 Z " fill="#000000" stroke-width="1px" stroke="#000000"/>
        <path d="M 7.67430000000002,13.5775 L 7.67430000000002,13.5775 " stroke="#FFFFFF" stroke-width="0.8855" stroke-linecap="butt" stroke-linejoin="miter" fill="none"/>
        <path d="M 21.8421,15.0534 L 21.8421,12.3969 L 27.155,12.3969 L 27.155,15.0534 L 21.8421,15.0534 Z " fill="#FFFFFF" stroke-width="1px" stroke="#FFFFFF"/>
        <path d="M 24.4986,13.5775 L 24.4986,13.5775 Z " fill="#000000" stroke-width="1px" stroke="#000000"/>
        <path d="M 24.4986,13.5775 L 24.4986,13.5775 " stroke="#FFFFFF" stroke-width="0.8855" stroke-linecap="butt" stroke-linejoin="miter" fill="none"/>
        <path d="M 8.55970000000002,7.08389999999997 L 24.2034,7.08389999999997 Z " fill="#000000" stroke-width="1px" stroke="#000000"/>
        <path d="M 8.55970000000002,7.08389999999997 L 24.2034,7.08389999999997 " stroke="#FFFFFF" stroke-width="0.8855" stroke-linecap="butt" stroke-linejoin="miter" fill="none"/>
        <path d="M 8.55970000000002,13.5775 L 24.2034,13.5775 Z " fill="#000000" stroke-width="1px" stroke="#000000"/>
        <path d="M 8.55970000000002,13.5775 L 24.2034,13.5775 " stroke="#FFFFFF" stroke-width="0.8855" stroke-linecap="butt" stroke-linejoin="miter" fill="none"/>
        <path d="M 7.67430000000002,13.5775 L 24.2034,7.08389999999997 Z " fill="#000000" stroke-width="1px" stroke="#000000"/>
        <path d="M 7.67430000000002,13.5775 L 24.2034,7.08389999999997 " stroke="#FFFFFF" stroke-width="0.8855" stroke-linecap="butt" stroke-linejoin="miter" fill="none"/>
        <path d="M 7.67430000000002,7.08389999999997 L 24.2034,13.5775 Z " fill="#000000" stroke-width="1px" stroke="#000000"/>
        <path d="M 7.67430000000002,7.08389999999997 L 24.2034,13.5775 " stroke="#FFFFFF" stroke-width="0.8855" stroke-linecap="butt" stroke-linejoin="miter" fill="none"/>
        <path d="M 10.0356,30.9922 L 10.0356,28.3357 L 10.3307,28.3357 L 9.74040000000002,27.4502 L 9.15010000000001,28.3357 L 9.4452,28.3357 L 9.4452,30.9922 L 10.0356,30.9922 Z " fill="#FFFFFF" stroke-width="1px" stroke="#FFFFFF"/>
        <path d="M 8.55970000000002,31.2873 L 6.78880000000004,29.5164 L 7.08390000000003,29.2212 L 5.9033,28.926 L 6.19840000000005,30.1067 L 6.49360000000001,29.8115 L 8.26460000000003,31.5825 L 8.55970000000002,31.2873 Z " fill="#FFFFFF" stroke-width="1px" stroke="#FFFFFF"/>
        <path d="M 7.96940000000001,32.468 L 5.31290000000001,32.468 L 5.31290000000001,32.1728 L 4.13230000000004,32.7632 L 5.31290000000001,33.3535 L 5.31290000000001,33.0583 L 7.96940000000001,33.0583 L 7.96940000000001,32.468 Z " fill="#FFFFFF" stroke-width="1px" stroke="#FFFFFF"/>
        <path d="M 8.26460000000003,33.9438 L 6.49360000000001,35.7148 L 6.19840000000005,35.4196 L 5.9033,36.6003 L 7.08390000000003,36.6003 L 6.78880000000004,36.01 L 8.55970000000002,34.239 L 8.26460000000003,33.9438 Z " fill="#FFFFFF" stroke-width="1px" stroke="#FFFFFF"/>
        <path d="M 9.4452,34.5341 L 9.4452,37.1906 L 9.15010000000001,37.1906 L 9.74040000000002,38.3713 L 10.3307,37.1906 L 10.0356,37.1906 L 10.0356,34.5341 L 9.4452,34.5341 Z " fill="#FFFFFF" stroke-width="1px" stroke="#FFFFFF"/>
        <path d="M 11.2162,31.5825 L 12.9872,29.8115 L 13.2824000000001,30.1067 L 13.5775,28.926 L 12.3969,29.2212 L 12.692,29.5164 L 10.9211,31.2873 L 11.2162,31.5825 Z " fill="#FFFFFF" stroke-width="1px" stroke="#FFFFFF"/>
        <path d="M 11.5114,35.1245 C 12.692,34.239 12.9872,32.468 12.1017000000001,31.2873 C 11.2162,29.8115 9.4452,29.5164 8.26460000000003,30.4019 C 7.08390000000003,31.2873 6.78880000000004,33.0583 7.37910000000005,34.239 C 8.26460000000003,35.7148 10.0356,36.01 11.5114,35.1245 Z Z " fill="#FFFFFF" stroke="none"/>
        <path d="M 11.2162,34.239 L 12.9872,36.01 L 12.692,36.6003 L 13.8727,36.6003 L 13.5775,35.4196 L 13.2824000000001,35.7148 L 11.5114,33.9438 L 11.2162,34.239 Z " fill="#FFFFFF" stroke-width="1px" stroke="#FFFFFF"/>
        <path d="M 21.8421,30.9922 L 21.8421,28.3357 L 21.2518,28.3357 L 21.8421,27.4502 L 22.7276000000001,28.3357 L 22.1373,28.3357 L 22.1373,30.9922 L 21.8421,30.9922 Z " fill="#FFFFFF" stroke-width="1px" stroke="#FFFFFF"/>
        <path d="M 23.0228,31.2873 L 25.0889,29.5164 L 24.4986,29.2212 L 25.6792,28.926 L 25.6792,30.1067 L 25.3841,29.8115 L 23.3179,31.5825 L 23.0228,31.2873 Z " fill="#FFFFFF" stroke-width="1px" stroke="#FFFFFF"/>
        <path d="M 23.6131,32.468 L 26.5647,32.468 L 26.5647,32.1728 L 27.4502000000001,32.7632 L 26.5647,33.3535 L 26.5647,33.0583 L 23.6131,33.0583 L 23.6131,32.468 Z " fill="#FFFFFF" stroke-width="1px" stroke="#FFFFFF"/>
        <path d="M 23.3179,33.9438 L 25.3841,35.7148 L 25.6792,35.4196 L 25.6792,36.6003 L 24.4986,36.6003 L 25.0889,36.01 L 23.0228,34.239 L 23.3179,33.9438 Z " fill="#FFFFFF" stroke-width="1px" stroke="#FFFFFF"/>
        <path d="M 22.1373,34.5341 L 22.1373,37.1906 L 22.7276000000001,37.1906 L 21.8421,38.3713 L 21.2518,37.1906 L 21.8421,37.1906 L 21.8421,34.5341 L 22.1373,34.5341 Z " fill="#FFFFFF" stroke-width="1px" stroke="#FFFFFF"/>
        <path d="M 20.3663,31.5825 L 18.5953,29.8115 L 18.3001,30.1067 L 18.0050000000001,28.926 L 19.1856,29.2212 L 18.8905,29.5164 L 20.6614,31.2873 L 20.3663,31.5825 Z " fill="#FFFFFF" stroke-width="1px" stroke="#FFFFFF"/>
        <path d="M 20.3663,35.1245 C 19.1856,34.239 18.5953,32.468 19.4808,31.2873 C 20.3663,29.8115 22.1373,29.5164 23.3179,30.4019 C 24.7937,31.2873 25.0889,33.0583 24.2034,34.239 C 23.3179,35.7148 21.5469000000001,36.01 20.3663,35.1245 Z Z " fill="#FFFFFF" stroke="none"/>
        <path d="M 20.6614,34.239 L 18.5953,36.01 L 18.8905,36.6003 L 17.7098,36.6003 L 18.0050000000001,35.4196 L 18.3001,35.7148 L 20.3663,33.9438 L 20.6614,34.239 Z " fill="#FFFFFF" stroke-width="1px" stroke="#FFFFFF"/>
        <path d="M 11.2162,32.7632 L 20.3663,32.7632 " stroke="#FFFFFF" stroke-width="1.771" stroke-linecap="butt" stroke-linejoin="miter" fill="none"/>
        <path d="M 16.5292,32.7632 C 16.5292,34.8293 16.234,36.3051 15.6437,36.3051 C 15.3485,36.3051 15.0533,34.8293 15.0533,32.7632 C 15.0533,30.9922 15.3485,29.2212 15.6437,29.2212 C 16.234,29.2212 16.5292,30.9922 16.5292,32.7632 Z Z " stroke="#FFFFFF" stroke-width="0.8855" stroke-linecap="butt" stroke-linejoin="miter" fill="none"/>
        <path d="M 28.3357,42.5036 L 2.95160000000004,42.5036 L 2.95160000000004,22.7276 L 28.3357,22.7276 L 28.3357,42.5036 Z " fill="none" stroke="#FFFFFF" stroke-width="0.8855" stroke-linecap="butt" stroke-linejoin="miter"/>
      </g>
      <!--emf-blob end-->
    </g>
  </g>
</svg>

