<svg xmlns="http://www.w3.org/2000/svg" xmlns:xlink="http://www.w3.org/1999/xlink" version="1.1" viewBox="0 0 153 111" >
  <title><![CDATA[WAE]]></title>
  <g transform=" scale(3.000000) ">
    <!--converted by libvisio2svg-->
    <g>
      <!--emf-blob start-->
      <g>
        <path d="M 0,36.0099 L 45.16,36.0099 L 45.16,6.49360000000001 L 0,6.49360000000001 L 0,36.0099 Z " fill="#046897" stroke="#FFFFFF" stroke-width="0.44275" stroke-linecap="butt" stroke-linejoin="miter"/>
        <path d="M 50.1778,28.3357 L 45.16,36.0099 L 45.16,6.49360000000001 L 50.1778,0 L 50.1778,28.3357 Z " fill="#046897" stroke="#FFFFFF" stroke-width="0.44275" stroke-linecap="butt" stroke-linejoin="miter"/>
        <path d="M 7.67419999999998,0 L 50.1778,0 L 45.16,6.49360000000001 L 0,6.49360000000001 L 7.67419999999998,0 Z " fill="#046897" stroke="#FFFFFF" stroke-width="0.44275" stroke-linecap="butt" stroke-linejoin="miter"/>
        <path d="M 36.8954,20.9566 L 41.9132,20.9566 L 41.9132,22.1372 L 36.8954,22.1372 L 36.8954,23.9082 L 32.468,21.5469 L 36.8954,18.8904 L 36.8954,20.9566 Z " fill="#FFFFFF" stroke-width="1px" stroke="#FFFFFF"/>
        <path d="M 39.8471,21.8421 L 34.8293,21.8421 L 34.8293,20.6614 L 39.8471,20.6614 L 39.8471,18.8904 L 44.2745,21.2518 L 39.8471,23.9082 L 39.8471,21.8421 Z " fill="#FFFFFF" stroke-width="1px" stroke="#FFFFFF"/>
        <path d="M 30.697,21.2518 L 17.7098,15.3485 L 17.7098,27.4502 L 30.697,21.2518 Z " fill="#FFFFFF" stroke="#FFFFFF" stroke-width="0.44275" stroke-linecap="butt" stroke-linejoin="miter"/>
        <path d="M 11.2162,21.5469 L 11.2162,23.3179 L 15.3485,20.9566 L 11.2162,18.8904 L 11.2162,20.6614 Z " fill="#FFFFFF" stroke-width="1px" stroke="#FFFFFF"/>
        <path d="M 11.2162,21.5469 L 11.2162,23.3179 L 15.3485,20.9566 L 11.2162,18.8904 L 11.2162,20.6614 " stroke="none" stroke-width="0" fill="none"/>
        <path d="M 5.01780000000002,21.5469 L 11.8065,21.5469 L 11.8065,20.6614 L 5.01780000000002,20.6614 L 5.01780000000002,18.8904 L 1.18059999999997,20.9566 L 5.01780000000002,23.3179 L 5.01780000000002,21.5469 Z " fill="#FFFFFF" stroke-width="1px" stroke="#FFFFFF"/>
        <path d="M 12.1017,15.9388 L 11.2162,17.4146 L 15.6436,17.7098 L 13.5775,13.8727 L 12.692,15.0533 Z " fill="#FFFFFF" stroke-width="1px" stroke="#FFFFFF"/>
        <path d="M 12.1017,15.9388 L 11.2162,17.4146 L 15.6436,17.7098 L 13.5775,13.8727 L 12.692,15.0533 " stroke="none" stroke-width="0" fill="none"/>
        <path d="M 7.08389999999997,12.3968 L 12.692,16.234 L 13.2823,15.3485 L 7.67419999999998,11.5114 L 8.55970000000002,10.0355 L 4.13229999999999,9.74040000000002 L 6.19839999999999,13.8727 L 7.08389999999997,12.3968 Z " fill="#FFFFFF" stroke-width="1px" stroke="#FFFFFF"/>
        <path d="M 12.1017,26.2695 L 11.2162,25.0889 L 15.6436,24.4986 L 13.5775,28.6308 L 12.692,27.155 Z " fill="#FFFFFF" stroke-width="1px" stroke="#FFFFFF"/>
        <path d="M 12.1017,26.2695 L 11.2162,25.0889 L 15.6436,24.4986 L 13.5775,28.6308 L 12.692,27.155 " stroke="none" stroke-width="0" fill="none"/>
        <path d="M 7.08389999999997,29.8115 L 12.692,25.9744 L 13.2823,26.8599 L 7.67419999999998,30.697 L 8.55970000000002,32.1728 L 4.13229999999999,32.468 L 6.19839999999999,28.6308 L 7.08389999999997,29.8115 Z " fill="#FFFFFF" stroke-width="1px" stroke="#FFFFFF"/>
      </g>
      <!--emf-blob end-->
    </g>
  </g>
</svg>

