<svg xmlns="http://www.w3.org/2000/svg" xmlns:xlink="http://www.w3.org/1999/xlink" version="1.1" viewBox="0 0 129 84" >
  <title><![CDATA[Wavelength router]]></title>
  <g transform=" scale(3.000000) ">
    <!--converted by libvisio2svg-->
    <g>
      <!--emf-blob start-->
      <g>
        <path d="M 42.5127,8.26639999999998 L 42.5127,19.485 L 32.1798,27.7514 L 10.9234,27.7514 L 0,19.485 L 0,8.26639999999998 Z " fill="#126D99" stroke-width="1px" stroke="#126D99"/>
        <path d="M 42.5127,8.26639999999998 L 42.5127,19.485 L 32.1798,27.7514 L 10.9234,27.7514 L 0,19.485 L 0,8.26639999999998 " stroke="#FFFFFF" stroke-width="0.8857" stroke-linecap="butt" stroke-linejoin="miter" fill="none"/>
        <path d="M 31.8845,0 L 10.9234,0 L 0,8.26639999999998 L 10.9234,16.5327 L 32.1798,16.5327 L 42.5127,8.26639999999998 L 31.8845,0 Z " fill="#126D99" stroke="#FFFFFF" stroke-width="0.8857" stroke-linecap="butt" stroke-linejoin="miter"/>
        <path d="M 17.1232,5.01889999999997 L 18.8945,7.67589999999996 L 12.6948,8.85679999999996 L 13.8757,7.97109999999998 L 5.90449999999998,6.19979999999998 L 8.5616,4.42840000000001 L 15.9423,5.90449999999998 L 17.1232,5.01889999999997 Z " fill="#FFFFFF" stroke-width="1px" stroke="#FFFFFF"/>
        <path d="M 25.98,10.9234 L 24.7991,8.5616 L 30.4084,7.38069999999999 L 29.2275,8.26639999999998 L 37.4938,9.74250000000001 L 35.4273,11.5139 L 27.1609,10.0377 L 25.98,10.9234 Z " fill="#FFFFFF" stroke-width="1px" stroke="#FFFFFF"/>
        <path d="M 23.3229,3.2475 L 29.5227,1.47609999999997 L 29.5227,4.13319999999999 L 28.0466,3.83789999999999 L 25.0943,6.495 L 22.142,5.90449999999998 L 25.0943,3.54269999999997 L 23.3229,3.2475 Z " fill="#FFFFFF" stroke-width="1px" stroke="#FFFFFF"/>
        <path d="M 19.485,13.8757 L 13.5804,15.0566 L 13.2852,12.1043 L 15.0566,12.6948 L 18.3041,9.74250000000001 L 21.2564,10.3329 L 17.7136,13.2852 L 19.485,13.8757 Z " fill="#FFFFFF" stroke-width="1px" stroke="#FFFFFF"/>
        <path d="M 10.6282,27.4561 L 10.6282,16.5327 " stroke="#FFFFFF" stroke-width="0.8857" stroke-linecap="butt" stroke-linejoin="miter" fill="none"/>
        <path d="M 32.1798,27.4561 L 32.1798,16.5327 " stroke="#FFFFFF" stroke-width="0.8857" stroke-linecap="butt" stroke-linejoin="miter" fill="none"/>
      </g>
      <!--emf-blob end-->
    </g>
  </g>
</svg>

