<svg xmlns="http://www.w3.org/2000/svg" xmlns:xlink="http://www.w3.org/1999/xlink" version="1.1" viewBox="0 0 312 180" >
  <title><![CDATA[Web cluster]]></title>
  <g transform=" scale(3.000000) ">
    <!--converted by libvisio2svg-->
    <g>
      <!--emf-blob start-->
      <g>
        <path d="M 64.3701,43.4055 L 62.0079,46.3583 L 43.1102,46.3583 L 46.3583,43.4055 L 64.3701,43.4055 Z " fill="#126D99" stroke="#FFFFFF" stroke-width="0.88585" stroke-linecap="butt" stroke-linejoin="miter"/>
        <path d="M 43.1102,49.9016 L 43.1102,46.3583 L 61.4173,46.3583 L 61.4173,49.9016 L 43.1102,49.9016 Z " fill="#126D99" stroke="#FFFFFF" stroke-width="0.88585" stroke-linecap="butt" stroke-linejoin="miter"/>
        <path d="M 60.8268,54.3307 L 60.8268,53.1496 L 63.189,49.9016 L 63.189,51.9685 L 60.8268,54.3307 Z " fill="#126D99" stroke="#FFFFFF" stroke-width="0.88585" stroke-linecap="butt" stroke-linejoin="miter"/>
        <path d="M 60.8268,53.1496 L 60.8268,54.3307 L 39.8622,54.3307 L 39.8622,53.1496 L 60.8268,53.1496 Z " fill="#126D99" stroke="#FFFFFF" stroke-width="0.88585" stroke-linecap="butt" stroke-linejoin="miter"/>
        <path d="M 43.1102,32.185 L 61.122,32.185 L 61.122,45.7677 L 43.1102,45.7677 L 43.1102,32.185 Z " fill="#126D99" stroke="#FFFFFF" stroke-width="0.88585" stroke-linecap="butt" stroke-linejoin="miter"/>
        <path d="M 61.122,45.7677 L 64.3701,42.5197 L 64.3701,28.937 L 61.122,32.185 L 61.122,45.7677 Z " fill="#126D99" stroke="#FFFFFF" stroke-width="0.88585" stroke-linecap="butt" stroke-linejoin="miter"/>
        <path d="M 60.8268,53.1496 L 39.8622,53.1496 L 42.2244,49.9016 L 63.189,49.9016 L 60.8268,53.1496 Z " fill="#126D99" stroke="#FFFFFF" stroke-width="0.88585" stroke-linecap="butt" stroke-linejoin="miter"/>
        <path d="M 61.122,49.9016 L 61.122,46.3583 L 64.3701,43.4055 L 64.3701,46.9488 L 61.122,49.9016 Z " fill="#126D99" stroke="#FFFFFF" stroke-width="0.88585" stroke-linecap="butt" stroke-linejoin="miter"/>
        <path d="M 46.063,33.6614 C 58.1693,33.6614 58.1693,33.6614 58.1693,33.6614 C 59.0551,33.6614 59.6457,34.252 59.6457,35.1378 C 59.6457,42.815 59.6457,42.815 59.6457,42.815 C 59.6457,43.4055 59.0551,43.9961 58.1693,43.9961 C 46.063,43.9961 46.063,43.9961 46.063,43.9961 C 45.1772,43.9961 44.5866,43.4055 44.5866,42.815 C 44.5866,35.1378 44.5866,35.1378 44.5866,35.1378 C 44.5866,34.252 45.1772,33.6614 46.063,33.6614 Z Z " fill="#126D99" stroke="#FFFFFF" stroke-width="0.88585" stroke-linecap="butt" stroke-linejoin="miter"/>
        <path d="M 64.3701,28.937 L 46.6535,28.937 L 43.1102,32.185 L 61.122,32.185 L 64.3701,28.937 Z " fill="#126D99" stroke="#FFFFFF" stroke-width="0.88585" stroke-linecap="butt" stroke-linejoin="miter"/>
        <path d="M 50.4921,36.0236 C 48.4252,35.7283 47.2441,36.9094 47.5394,37.7953 C 47.5394,37.7953 47.5394,37.7953 47.5394,37.7953 C 45.7677,38.0905 46.063,40.1575 46.9488,40.1575 C 46.9488,40.1575 46.9488,40.1575 46.9488,40.1575 C 46.9488,41.6339 49.0157,42.5197 49.9016,41.6339 C 50.1968,41.6339 50.1968,41.6339 50.1968,41.6339 C 50.4921,42.815 54.9212,42.815 55.8071,41.9291 C 55.8071,41.9291 55.8071,41.9291 55.8071,41.9291 C 57.874,42.2244 58.7598,40.748 58.1693,39.8622 C 58.4646,39.8622 58.4646,39.8622 58.4646,39.8622 C 59.0551,39.5669 59.0551,38.0905 57.874,37.7953 C 57.874,37.7953 57.874,37.7953 57.874,37.7953 C 58.4646,36.9094 57.2834,35.7283 55.8071,36.0236 C 55.5118,36.0236 55.5118,36.0236 55.5118,36.0236 C 54.3307,34.8425 51.0827,35.1378 50.7874,36.0236 Z Z " fill="#FFFFFF" stroke="none"/>
        <path d="M 91.5354,28.0512 L 89.1732,31.0039 L 70.2756,31.0039 L 73.5236,28.0512 L 91.5354,28.0512 Z " fill="#126D99" stroke="#FFFFFF" stroke-width="0.88585" stroke-linecap="butt" stroke-linejoin="miter"/>
        <path d="M 70.2756,34.5472 L 70.2756,31.0039 L 88.5827,31.0039 L 88.5827,34.5472 L 70.2756,34.5472 Z " fill="#126D99" stroke="#FFFFFF" stroke-width="0.88585" stroke-linecap="butt" stroke-linejoin="miter"/>
        <path d="M 87.9921,38.9764 L 87.9921,37.7953 L 90.3543,34.5472 L 90.3543,36.6142 L 87.9921,38.9764 Z " fill="#126D99" stroke="#FFFFFF" stroke-width="0.88585" stroke-linecap="butt" stroke-linejoin="miter"/>
        <path d="M 87.9921,37.7953 L 87.9921,38.9764 L 67.0275,38.9764 L 67.0275,37.7953 L 87.9921,37.7953 Z " fill="#126D99" stroke="#FFFFFF" stroke-width="0.88585" stroke-linecap="butt" stroke-linejoin="miter"/>
        <path d="M 70.2756,16.8307 L 88.2874,16.8307 L 88.2874,30.4134 L 70.2756,30.4134 L 70.2756,16.8307 Z " fill="#126D99" stroke="#FFFFFF" stroke-width="0.88585" stroke-linecap="butt" stroke-linejoin="miter"/>
        <path d="M 88.2874,30.4134 L 91.5354,27.1654 L 91.5354,13.5827 L 88.2874,16.8307 L 88.2874,30.4134 Z " fill="#126D99" stroke="#FFFFFF" stroke-width="0.88585" stroke-linecap="butt" stroke-linejoin="miter"/>
        <path d="M 87.9921,37.7953 L 67.0275,37.7953 L 69.3897,34.5472 L 90.3543,34.5472 L 87.9921,37.7953 Z " fill="#126D99" stroke="#FFFFFF" stroke-width="0.88585" stroke-linecap="butt" stroke-linejoin="miter"/>
        <path d="M 88.2874,34.5472 L 88.2874,31.0039 L 91.5354,28.0512 L 91.5354,31.5945 L 88.2874,34.5472 Z " fill="#126D99" stroke="#FFFFFF" stroke-width="0.88585" stroke-linecap="butt" stroke-linejoin="miter"/>
        <path d="M 73.2283,18.3071 C 85.3346,18.3071 85.3346,18.3071 85.3346,18.3071 C 86.2205,18.3071 86.811,18.8976 86.811,19.7835 C 86.811,27.4606 86.811,27.4606 86.811,27.4606 C 86.811,28.0512 86.2205,28.6417 85.3346,28.6417 C 73.2283,28.6417 73.2283,28.6417 73.2283,28.6417 C 72.3425,28.6417 71.752,28.0512 71.752,27.4606 C 71.752,19.7835 71.752,19.7835 71.752,19.7835 C 71.752,18.8976 72.3425,18.3071 73.2283,18.3071 Z Z " fill="#126D99" stroke="#FFFFFF" stroke-width="0.88585" stroke-linecap="butt" stroke-linejoin="miter"/>
        <path d="M 91.5354,13.5827 L 73.8189,13.5827 L 70.2756,16.8307 L 88.2874,16.8307 L 91.5354,13.5827 Z " fill="#126D99" stroke="#FFFFFF" stroke-width="0.88585" stroke-linecap="butt" stroke-linejoin="miter"/>
        <path d="M 77.6575,20.6693 C 75.5905,20.374 74.4094,21.5551 74.7047,22.4409 C 74.7047,22.4409 74.7047,22.4409 74.7047,22.4409 C 72.9331,22.7362 73.2283,24.8031 74.1142,24.8031 C 74.1142,24.8031 74.1142,24.8031 74.1142,24.8031 C 74.1142,26.2795 76.1811,27.1654 77.0669,26.2795 C 77.3622,26.2795 77.3622,26.2795 77.3622,26.2795 C 77.6575,27.4606 82.0866,27.4606 82.9724,26.5748 C 82.9724,26.5748 82.9724,26.5748 82.9724,26.5748 C 85.0393,26.8701 85.9252,25.3937 85.3346,24.5079 C 85.6299,24.5079 85.6299,24.5079 85.6299,24.5079 C 86.2205,24.2126 86.2205,22.7362 85.0393,22.4409 C 85.0393,22.4409 85.0393,22.4409 85.0393,22.4409 C 85.6299,21.5551 84.4488,20.374 82.9724,20.6693 C 82.6771,20.6693 82.6771,20.6693 82.6771,20.6693 C 81.496,19.4882 78.248,19.7835 77.9527,20.6693 Z Z " fill="#FFFFFF" stroke="none"/>
        <path d="M 38.9764,26.8701 L 36.6142,29.8228 L 17.7165,29.8228 L 20.9646,26.8701 L 38.9764,26.8701 Z " fill="#126D99" stroke="#FFFFFF" stroke-width="0.88585" stroke-linecap="butt" stroke-linejoin="miter"/>
        <path d="M 17.7165,33.3661 L 17.7165,29.8228 L 36.0236,29.8228 L 36.0236,33.3661 L 17.7165,33.3661 Z " fill="#126D99" stroke="#FFFFFF" stroke-width="0.88585" stroke-linecap="butt" stroke-linejoin="miter"/>
        <path d="M 35.4331,37.7953 L 35.4331,36.6142 L 37.7953,33.3661 L 37.7953,35.4331 L 35.4331,37.7953 Z " fill="#126D99" stroke="#FFFFFF" stroke-width="0.88585" stroke-linecap="butt" stroke-linejoin="miter"/>
        <path d="M 35.4331,36.6142 L 35.4331,37.7953 L 14.4685,37.7953 L 14.4685,36.6142 L 35.4331,36.6142 Z " fill="#126D99" stroke="#FFFFFF" stroke-width="0.88585" stroke-linecap="butt" stroke-linejoin="miter"/>
        <path d="M 17.7165,15.6496 L 35.7283,15.6496 L 35.7283,29.2323 L 17.7165,29.2323 L 17.7165,15.6496 Z " fill="#126D99" stroke="#FFFFFF" stroke-width="0.88585" stroke-linecap="butt" stroke-linejoin="miter"/>
        <path d="M 35.7283,29.2323 L 38.9764,25.9842 L 38.9764,12.4016 L 35.7283,15.6496 L 35.7283,29.2323 Z " fill="#126D99" stroke="#FFFFFF" stroke-width="0.88585" stroke-linecap="butt" stroke-linejoin="miter"/>
        <path d="M 35.4331,36.6142 L 14.4685,36.6142 L 16.8307,33.3661 L 37.7953,33.3661 L 35.4331,36.6142 Z " fill="#126D99" stroke="#FFFFFF" stroke-width="0.88585" stroke-linecap="butt" stroke-linejoin="miter"/>
        <path d="M 35.7283,33.3661 L 35.7283,29.8228 L 38.9764,26.8701 L 38.9764,30.4134 L 35.7283,33.3661 Z " fill="#126D99" stroke="#FFFFFF" stroke-width="0.88585" stroke-linecap="butt" stroke-linejoin="miter"/>
        <path d="M 20.6693,17.126 C 32.7756,17.126 32.7756,17.126 32.7756,17.126 C 33.6614,17.126 34.252,17.7165 34.252,18.6024 C 34.252,26.2795 34.252,26.2795 34.252,26.2795 C 34.252,26.8701 33.6614,27.4606 32.7756,27.4606 C 20.6693,27.4606 20.6693,27.4606 20.6693,27.4606 C 19.7835,27.4606 19.1929,26.8701 19.1929,26.2795 C 19.1929,18.6024 19.1929,18.6024 19.1929,18.6024 C 19.1929,17.7165 19.7835,17.126 20.6693,17.126 Z Z " fill="#126D99" stroke="#FFFFFF" stroke-width="0.88585" stroke-linecap="butt" stroke-linejoin="miter"/>
        <path d="M 38.9764,12.4016 L 21.2598,12.4016 L 17.7165,15.6496 L 35.7283,15.6496 L 38.9764,12.4016 Z " fill="#126D99" stroke="#FFFFFF" stroke-width="0.88585" stroke-linecap="butt" stroke-linejoin="miter"/>
        <path d="M 24.5079,19.4882 C 22.4409,19.1929 21.2598,20.374 21.5551,21.2598 C 21.5551,21.2598 21.5551,21.2598 21.5551,21.2598 C 19.7835,21.5551 20.0787,23.622 20.9646,23.622 C 20.9646,23.622 20.9646,23.622 20.9646,23.622 C 20.9646,25.0984 23.0315,25.9842 23.9173,25.0984 C 24.2126,25.0984 24.2126,25.0984 24.2126,25.0984 C 24.5079,26.2795 28.937,26.2795 29.8228,25.3937 C 29.8228,25.3937 29.8228,25.3937 29.8228,25.3937 C 31.8898,25.689 32.7756,24.2126 32.185,23.3268 C 32.4803,23.3268 32.4803,23.3268 32.4803,23.3268 C 33.0709,23.0315 33.0709,21.5551 31.8898,21.2598 C 31.8898,21.2598 31.8898,21.2598 31.8898,21.2598 C 32.4803,20.374 31.2992,19.1929 29.8228,19.4882 C 29.5276,19.4882 29.5276,19.4882 29.5276,19.4882 C 28.3464,18.3071 25.0984,18.6024 24.8031,19.4882 Z Z " fill="#FFFFFF" stroke="none"/>
        <path d="M 37.7953,9.15350000000001 C 20.6693,5.90550000000002 11.811,14.4685 12.9921,22.1457 C 13.2874,22.4409 13.2874,22.4409 13.2874,22.4409 C 0,24.8031 3.54329999999999,40.4528 9.7441,40.4528 C 10.3346,40.1575 10.3346,40.1575 10.3346,40.1575 C 8.85830000000004,47.5394 24.2126,55.2165 33.0709,51.3779 C 33.3661,50.7874 33.3661,50.7874 33.3661,50.7874 C 36.6142,57.2835 47.5394,58.4646 58.4646,58.7598 C 67.6181,59.0551 73.2283,58.1693 77.0669,54.0354 C 77.9527,54.3307 77.9527,54.3307 77.9527,54.3307 C 92.7165,55.5118 99.8031,45.1772 96.2598,37.7953 C 97.1456,37.5 97.1456,37.5 97.1456,37.5 C 102.4606,36.0236 103.0512,24.2126 94.1929,22.7362 C 94.1929,22.1457 94.1929,22.1457 94.1929,22.1457 C 98.0315,14.4685 89.1732,7.08659999999998 76.7716,8.56299999999999 C 75.8858,8.26769999999999 75.8858,8.26769999999999 75.8858,8.26769999999999 C 66.7323,0 41.0433,1.47640000000001 38.0905,9.44880000000001 Z Z " stroke="#126D99" stroke-width="0.88585" stroke-linecap="butt" stroke-linejoin="miter" fill="none"/>
        <path d="M 44.5866,44.8819 L 33.3661,37.5 " stroke="#126D99" stroke-width="0.88585" stroke-linecap="butt" stroke-linejoin="miter" fill="none"/>
        <path d="M 62.5984,43.1102 L 69.685,38.3858 " stroke="#126D99" stroke-width="0.88585" stroke-linecap="butt" stroke-linejoin="miter" fill="none"/>
        <path d="M 37.5,20.0787 L 71.1614,20.0787 " stroke="#126D99" stroke-width="0.88585" stroke-linecap="butt" stroke-linejoin="miter" fill="none"/>
      </g>
      <!--emf-blob end-->
    </g>
  </g>
</svg>

