<svg xmlns="http://www.w3.org/2000/svg" xmlns:xlink="http://www.w3.org/1999/xlink" version="1.1" viewBox="0 0 105 111" >
  <title><![CDATA[Web browser]]></title>
  <g transform=" scale(3.000000) ">
    <!--converted by libvisio2svg-->
    <g>
      <!--emf-blob start-->
      <g>
        <path d="M 4.42919999999998,29.2323 L 5.0197,23.9174 L 30.7087,23.9174 L 30.4135,29.2323 L 4.42919999999998,29.2323 Z " fill="#126D99" stroke="#FFFFFF" stroke-width="0.88585" stroke-linecap="butt" stroke-linejoin="miter"/>
        <path d="M 29.8229,36.0237 L 29.8229,34.5473 L 33.0709,29.8229 L 33.0709,32.7756 L 29.8229,36.0237 Z " fill="#126D99" stroke="#FFFFFF" stroke-width="0.88585" stroke-linecap="butt" stroke-linejoin="miter"/>
        <path d="M 29.8229,34.5473 L 29.8229,36.0237 L 0,36.0237 L 0,34.5473 L 29.8229,34.5473 Z " fill="#126D99" stroke="#FFFFFF" stroke-width="0.88585" stroke-linecap="butt" stroke-linejoin="miter"/>
        <path d="M 4.72449999999998,4.42920000000004 L 30.4135,4.42920000000004 L 30.4135,23.9174 L 4.72449999999998,23.9174 L 4.72449999999998,4.42920000000004 Z " fill="#126D99" stroke="#FFFFFF" stroke-width="0.88585" stroke-linecap="butt" stroke-linejoin="miter"/>
        <path d="M 30.4135,23.9174 L 34.8426,19.4882 L 34.8426,0 L 30.4135,4.42920000000004 L 30.4135,23.9174 Z " fill="#126D99" stroke="#FFFFFF" stroke-width="0.88585" stroke-linecap="butt" stroke-linejoin="miter"/>
        <path d="M 29.8229,34.5473 L 0,34.5473 L 3.54340000000002,29.8229 L 33.0709,29.8229 L 29.8229,34.5473 Z " fill="#126D99" stroke="#FFFFFF" stroke-width="0.88585" stroke-linecap="butt" stroke-linejoin="miter"/>
        <path d="M 30.4135,29.8229 L 30.4135,23.6221 L 34.8426,19.4882 L 34.8426,25.3937 L 30.4135,29.8229 Z " fill="#126D99" stroke="#FFFFFF" stroke-width="0.88585" stroke-linecap="butt" stroke-linejoin="miter"/>
        <path d="M 8.85829999999999,6.49610000000001 C 25.9843,6.49610000000001 25.9843,6.49610000000001 25.9843,6.49610000000001 C 27.1654,6.49610000000001 28.0512,7.67720000000003 28.0512,8.56299999999999 C 28.0512,19.4882 28.0512,19.4882 28.0512,19.4882 C 28.0512,20.6693 27.1654,21.5552 25.9843,21.5552 C 8.85829999999999,21.5552 8.85829999999999,21.5552 8.85829999999999,21.5552 C 7.67719999999997,21.5552 6.79140000000001,20.6693 6.79140000000001,19.4882 C 6.79140000000001,8.56299999999999 6.79140000000001,8.56299999999999 6.79140000000001,8.56299999999999 C 6.79140000000001,7.67720000000003 7.67719999999997,6.49610000000001 8.85829999999999,6.49610000000001 Z Z " fill="#FFFFFF" stroke="none"/>
        <path d="M 34.8426,0 L 9.7441,0 L 4.72449999999998,4.42920000000004 L 30.4135,4.42920000000004 L 34.8426,0 Z " fill="#126D99" stroke="#FFFFFF" stroke-width="0.88585" stroke-linecap="butt" stroke-linejoin="miter"/>
        <path d="M 14.4686,10.0394 C 11.2205,9.44880000000001 9.7441,11.2205 10.0394,12.4016 C 10.0394,12.6969 10.0394,12.6969 10.0394,12.6969 C 7.38189999999997,12.9922 8.26780000000002,15.9449 9.44889999999998,15.9449 C 9.44889999999998,15.9449 9.44889999999998,15.9449 9.44889999999998,15.9449 C 9.15359999999998,18.0118 12.1064,19.1929 13.5827,18.0118 C 13.5827,17.7166 13.5827,17.7166 13.5827,17.7166 C 14.1733,19.7835 20.6694,19.7835 21.8505,18.6024 C 21.8505,18.6024 21.8505,18.6024 21.8505,18.6024 C 24.8032,18.6024 25.9843,16.8307 25.3938,15.3544 C 25.3938,15.3544 25.3938,15.3544 25.3938,15.3544 C 26.5749,15.0591 26.5749,12.9922 24.8032,12.6969 C 25.0985,12.4016 25.0985,12.4016 25.0985,12.4016 C 25.689,11.2205 23.9174,9.7441 21.8505,10.0394 C 21.5552,10.0394 21.5552,10.0394 21.5552,10.0394 C 19.7835,8.56299999999999 15.0591,8.56299999999999 14.4686,10.0394 Z Z " fill="#126D99" stroke="#FFFFFF" stroke-width="0.88585" stroke-linecap="butt" stroke-linejoin="miter"/>
      </g>
      <!--emf-blob end-->
    </g>
  </g>
</svg>

