<svg xmlns="http://www.w3.org/2000/svg" xmlns:xlink="http://www.w3.org/1999/xlink" version="1.1" viewBox="0 0 126 108" >
  <title><![CDATA[Wi-fi tag]]></title>
  <g transform=" scale(3.000000) ">
    <!--converted by libvisio2svg-->
    <g>
      <!--emf-blob start-->
      <g>
        <path d="M 11.5098,11.805 C 7.37810000000002,12.6904 4.42680000000001,22.7247 4.42680000000001,22.7247 C 2.65610000000004,27.1515000000001 0,30.9881 0,30.9881 C 28.3320000000001,30.9881 28.3320000000001,30.9881 28.3320000000001,30.9881 C 28.3320000000001,30.9881 31.5783,26.8564 33.9393,22.7247 C 33.9393,22.7247 36.8906,12.6904 41.3174,11.805 Z Z " fill="#126A98" stroke="#FFFFFF" stroke-width="0.88535" stroke-linecap="butt" stroke-linejoin="miter"/>
        <path d="M 28.3320000000001,30.693 C 28.3320000000001,35.7101 28.3320000000001,35.7101 28.3320000000001,35.7101 C 40.7272,22.7247 40.7272,22.7247 40.7272,22.7247 C 40.7272,12.1002 40.7272,12.1002 40.7272,12.1002 C 38.6613,12.3953 35.7101,15.6417 33.6442,18.888 C 32.1686,20.6588 31.2832,22.4295 30.3978,23.61 Z " fill="#126A98" stroke="none"/>
        <path d="M 28.3320000000001,30.693 C 28.3320000000001,35.7101 28.3320000000001,35.7101 28.3320000000001,35.7101 C 40.7272,22.7247 40.7272,22.7247 40.7272,22.7247 C 40.7272,12.1002 40.7272,12.1002 40.7272,12.1002 C 38.6613,12.3953 35.7101,15.6417 33.6442,18.888 C 32.1686,20.6588 31.2832,22.4295 30.3978,23.61 Z " stroke="#FFFFFF" stroke-width="0.88535" stroke-linecap="butt" stroke-linejoin="miter" fill="none"/>
        <path d="M 19.4782,5.90250000000003 C 21.5441,4.13180000000006 24.4953,2.65620000000001 27.1515,2.9513 C 30.1027,2.9513 31.8735,4.42690000000005 32.4637,6.49280000000005 Z " stroke="#126A98" stroke-width="0.88535" stroke-linecap="butt" stroke-linejoin="miter" fill="none"/>
        <path d="M 18.5928,8.85380000000004 C 20.6587,6.78790000000004 23.3148,5.60740000000004 26.2661000000001,5.60740000000004 C 28.9222,5.90250000000003 30.9881,7.37820000000005 31.5783,9.44400000000002 Z " stroke="#126A98" stroke-width="0.88535" stroke-linecap="butt" stroke-linejoin="miter" fill="none"/>
        <path d="M 17.4123,11.805 C 19.4782,9.73920000000004 22.4295,8.55870000000004 25.0856,8.55870000000004 C 27.7417,8.85380000000004 29.8076,10.0343 30.3978,12.3953 Z " stroke="#126A98" stroke-width="0.88535" stroke-linecap="butt" stroke-linejoin="miter" fill="none"/>
        <path d="M 16.2318,14.7563 C 18.2977,12.6904 21.249,11.5099 23.9051,11.5099 C 26.8563,11.5099 28.6271,12.9855 29.2173,15.3465 Z " fill="#0F6998" stroke="none"/>
        <path d="M 16.2318,14.7563 C 18.2977,12.6904 21.249,11.5099 23.9051,11.5099 C 26.8563,11.5099 28.6271,12.9855 29.2173,15.3465 Z " stroke="#FFFFFF" stroke-width="0.88535" stroke-linecap="butt" stroke-linejoin="miter" fill="none"/>
        <path d="M 19.4782,5.90250000000003 C 21.5441,4.13180000000006 24.4953,2.65620000000001 27.1515,2.9513 C 30.1027,2.9513 31.8735,4.42690000000005 32.4637,6.49280000000005 Z " stroke="#126A98" stroke-width="0.88535" stroke-linecap="butt" stroke-linejoin="miter" fill="none"/>
        <path d="M 20.6587,2.9513 C 22.7246,1.18050000000005 25.6758,0 28.3320000000001,0 C 31.2832,0 33.0539,1.47570000000002 33.6442,3.54150000000004 Z " stroke="#126A98" stroke-width="0.88535" stroke-linecap="butt" stroke-linejoin="miter" fill="none"/>
        <path d="M 18.5928,8.85380000000004 C 20.6587,6.78790000000004 23.3148,5.60740000000004 26.2661000000001,5.60740000000004 C 28.9222,5.90250000000003 30.9881,7.37820000000005 31.5783,9.44400000000002 Z " stroke="#126A98" stroke-width="0.88535" stroke-linecap="butt" stroke-linejoin="miter" fill="none"/>
        <path d="M 17.4123,11.805 C 19.4782,9.73920000000004 22.4295,8.55870000000004 25.0856,8.55870000000004 C 27.7417,8.85380000000004 29.8076,10.0343 30.3978,12.3953 Z " stroke="#126A98" stroke-width="0.88535" stroke-linecap="butt" stroke-linejoin="miter" fill="none"/>
        <path d="M 16.2318,14.7563 C 18.2977,12.6904 21.249,11.5099 23.9051,11.5099 C 26.8563,11.5099 28.6271,12.9855 29.2173,15.3465 Z " stroke="#FFFFFF" stroke-width="0.88535" stroke-linecap="butt" stroke-linejoin="miter" fill="none"/>
        <path d="M 31.5783,20.9539 C 31.8735,24.2003 26.2661000000001,27.4466 18.888,28.0369 C 11.5098,28.6271 5.60730000000001,26.5613 5.31220000000002,23.0198 C 5.01710000000003,19.7734 10.6245,16.527 18.0026,15.9368 C 25.0856,15.3465 31.2832,17.4124 31.5783,20.9539 Z Z " fill="#126A98" stroke="#FFFFFF" stroke-width="0.88535" stroke-linecap="butt" stroke-linejoin="miter"/>
        <path d="M 30.3978,20.0685 C 30.693,23.0198 25.3807,25.971 18.888,26.5613 C 12.1001000000001,27.1515000000001 6.7878,25.0857 6.49270000000001,22.1344 C 6.19760000000002,19.1832 11.2147000000001,16.2319000000001 18.0026,15.6417 C 24.4953,15.0514 30.1027,17.1173 30.3978,20.0685 Z Z " fill="#126A98" stroke="#FFFFFF" stroke-width="0.88535" stroke-linecap="butt" stroke-linejoin="miter"/>
        <path d="M 0,35.7101 L 28.3320000000001,35.7101 L 28.3320000000001,30.693 L 0,30.693 L 0,35.7101 Z " fill="#126A98" stroke="#FFFFFF" stroke-width="0.88535" stroke-linecap="butt" stroke-linejoin="miter"/>
      </g>
      <!--emf-blob end-->
    </g>
  </g>
</svg>

