<svg xmlns="http://www.w3.org/2000/svg" xmlns:xlink="http://www.w3.org/1999/xlink" version="1.1" viewBox="0 0 129 93" >
  <title><![CDATA[Wireless transport]]></title>
  <g transform=" scale(3.000000) ">
    <!--converted by libvisio2svg-->
    <g>
      <!--emf-blob start-->
      <g>
        <path d="M 39.8349,30.3925 L 39.8349,2.95070000000004 L 0,2.95070000000004 L 0,30.3925 L 39.8349,30.3925 Z " fill="#126D99" stroke="#FFFFFF" stroke-width="0.8852" stroke-linecap="butt" stroke-linejoin="miter"/>
        <path d="M 0,2.95070000000004 L 2.95079999999996,0 L 42.7857,0 L 39.8349,2.95070000000004 L 0,2.95070000000004 Z " fill="#126D99" stroke="#FFFFFF" stroke-width="0.8852" stroke-linecap="butt" stroke-linejoin="miter"/>
        <path d="M 39.8349,30.3925 L 42.7857,27.4418 L 42.7857,0 L 39.8349,2.95070000000004 L 39.8349,30.3925 Z " fill="#126D99" stroke="#FFFFFF" stroke-width="0.8852" stroke-linecap="butt" stroke-linejoin="miter"/>
        <path d="M 23.3108,19.4748 C 24.1961,18.5896 24.4911,17.1142 24.4911,15.6389 C 24.4911,14.1635 24.1961,12.6881 23.3108,11.8029 C 24.4911,9.73740000000004 24.4911,9.73740000000004 24.4911,9.73740000000004 C 25.6714,11.2128 26.2616,13.2783 25.9665,15.6389 C 25.9665,17.9995 25.6714,20.065 24.4911,21.5403 Z Z " fill="#FFFFFF" stroke="none"/>
        <path d="M 29.8024,20.9502 C 30.6877,19.7699 30.9827,17.9995 30.9827,15.934 C 30.9827,14.1635 30.6877,12.098 29.8024,10.9177 C 30.9827,8.55709999999999 30.9827,8.55709999999999 30.9827,8.55709999999999 C 32.163,10.6226 32.7532,13.2783 32.7532,15.934 C 32.7532,18.5896 32.163,21.2453 30.9827,23.6059 Z Z " fill="#FFFFFF" stroke="none"/>
        <path d="M 16.2291,19.4748 C 15.6389,18.5896 15.0488,17.1142 15.0488,15.6389 C 15.0488,14.1635 15.6389,12.6881 16.2291,11.8029 C 15.0488,9.73740000000004 15.0488,9.73740000000004 15.0488,9.73740000000004 C 13.8685,11.2128 13.2783,13.2783 13.2783,15.6389 C 13.2783,17.9995 13.8685,20.065 15.0488,21.5403 Z Z " fill="#FFFFFF" stroke="none"/>
        <path d="M 10.3276,20.9502 C 9.73750000000001,19.7699 9.14729999999997,17.9995 9.14729999999997,15.934 C 9.14729999999997,14.1635 9.73750000000001,12.098 10.3276,10.9177 C 9.14729999999997,8.55709999999999 9.14729999999997,8.55709999999999 9.14729999999997,8.55709999999999 C 7.96699999999998,10.6226 7.37689999999998,13.2783 7.37689999999998,15.934 C 7.37689999999998,18.5896 7.96699999999998,21.2453 9.14729999999997,23.6059 Z Z " fill="#FFFFFF" stroke="none"/>
        <path d="M 19.4749,16.5241 L 19.4749,25.6714 " stroke="#FFFFFF" stroke-width="0.8852" stroke-linecap="butt" stroke-linejoin="miter" fill="none"/>
        <path d="M 20.3601,15.6389 C 20.3601,16.229 20.065,16.5241 19.4749,16.5241 C 19.1798,16.5241 18.8847,16.229 18.8847,15.6389 C 18.8847,15.3438 19.1798,15.0487 19.4749,15.0487 C 20.065,15.0487 20.3601,15.3438 20.3601,15.6389 Z Z " fill="#FFFFFF" stroke="none"/>
      </g>
      <!--emf-blob end-->
    </g>
  </g>
</svg>

