<svg xmlns="http://www.w3.org/2000/svg" xmlns:xlink="http://www.w3.org/1999/xlink" version="1.1" viewBox="0 0 63 114" >
  <title><![CDATA[Wireless]]></title>
  <g transform=" scale(3.000000) ">
    <!--converted by libvisio2svg-->
    <g>
      <!--emf-blob start-->
      <g>
        <path d="M 1.47559999999999,0 L 20.3627,0 L 18.8871,1.77069999999998 L 0,1.77069999999998 L 1.47559999999999,0 Z " fill="#126D99" stroke="#FFFFFF" stroke-width="0.88535" stroke-linecap="butt" stroke-linejoin="miter"/>
        <path d="M 0,2.06580000000002 L 18.592,2.06580000000002 L 18.592,37.4791 L 0,37.4791 L 0,2.06580000000002 Z " fill="#126D99" stroke="#FFFFFF" stroke-width="0.88535" stroke-linecap="butt" stroke-linejoin="miter"/>
        <path d="M 14.4605,35.4133 C 16.5262,35.4133 16.8214,33.3475 16.8214,33.3475 C 16.8214,33.3475 16.8214,12.9849 16.8214,11.2142 C 16.8214,8.85329999999999 14.4605,8.85329999999999 14.4605,8.85329999999999 C 14.4605,8.85329999999999 5.31199999999995,8.85329999999999 4.13159999999999,8.85329999999999 C 2.65599999999995,8.85329999999999 2.06579999999997,10.624 2.06579999999997,10.624 C 2.06579999999997,10.624 2.06579999999997,31.2818 2.06579999999997,33.0524 C 2.06579999999997,34.8231 3.8365,35.4133 3.8365,35.4133 Z Z " fill="#126D99" stroke="#FFFFFF" stroke-width="0.88535" stroke-linecap="butt" stroke-linejoin="miter"/>
        <path d="M 20.3627,0 L 20.3627,35.4133 L 18.592,37.4791 L 18.592,2.06580000000002 L 20.3627,0 Z " fill="#126D99" stroke="#FFFFFF" stroke-width="0.88535" stroke-linecap="butt" stroke-linejoin="miter"/>
        <path d="M 14.7556,4.42669999999998 C 14.4605,4.42669999999998 14.1654,5.01690000000002 14.1654,5.31200000000001 C 14.1654,5.90219999999999 14.4605,6.49250000000001 14.7556,6.49250000000001 C 15.0506999999999,6.49250000000001 15.3458,5.90219999999999 15.3458,5.31200000000001 C 15.3458,5.01690000000002 15.0506999999999,4.42669999999998 14.7556,4.42669999999998 Z Z " fill="#126D99" stroke="#FFFFFF" stroke-width="0.88535" stroke-linecap="butt" stroke-linejoin="miter"/>
        <path d="M 10.9191,4.42669999999998 C 10.624,4.42669999999998 10.3289,5.01690000000002 10.3289,5.31200000000001 C 10.3289,5.90219999999999 10.624,6.49250000000001 10.9191,6.49250000000001 C 11.2142,6.49250000000001 11.5094,5.90219999999999 11.5094,5.31200000000001 C 11.5094,5.01690000000002 11.2142,4.42669999999998 10.9191,4.42669999999998 Z Z " fill="#126D99" stroke="#FFFFFF" stroke-width="0.88535" stroke-linecap="butt" stroke-linejoin="miter"/>
        <path d="M 7.08269999999999,4.42669999999998 C 6.7876,4.42669999999998 6.49249999999995,5.01690000000002 6.49249999999995,5.31200000000001 C 6.49249999999995,5.90219999999999 6.7876,6.49250000000001 7.08269999999999,6.49250000000001 C 7.37779999999998,6.49250000000001 7.37779999999998,5.90219999999999 7.37779999999998,5.31200000000001 C 7.37779999999998,5.01690000000002 7.37779999999998,4.42669999999998 7.08269999999999,4.42669999999998 Z Z " fill="#126D99" stroke="#FFFFFF" stroke-width="0.88535" stroke-linecap="butt" stroke-linejoin="miter"/>
        <path d="M 2.9511,4.42669999999998 C 2.65599999999995,4.42669999999998 2.36089999999996,5.01690000000002 2.36089999999996,5.31200000000001 C 2.36089999999996,5.90219999999999 2.65599999999995,6.49250000000001 2.9511,6.49250000000001 C 3.24629999999996,6.49250000000001 3.54139999999995,5.90219999999999 3.54139999999995,5.31200000000001 C 3.54139999999995,5.01690000000002 3.24629999999996,4.42669999999998 2.9511,4.42669999999998 Z Z " fill="#126D99" stroke="#FFFFFF" stroke-width="0.88535" stroke-linecap="butt" stroke-linejoin="miter"/>
      </g>
      <!--emf-blob end-->
    </g>
  </g>
</svg>

