<svg xmlns="http://www.w3.org/2000/svg" xmlns:xlink="http://www.w3.org/1999/xlink" version="1.1" viewBox="0 0 132 132" >
  <title><![CDATA[Wireless router]]></title>
  <g transform=" scale(3.000000) ">
    <!--converted by libvisio2svg-->
    <g>
      <!--emf-blob start-->
      <g>
        <path d="M 35.4273,19.7802 L 35.4273,0.590399999999988 " stroke="#0D6E9C" stroke-width="0.8857" stroke-linecap="butt" stroke-linejoin="miter" fill="none"/>
        <path d="M 35.4273,19.485 L 35.4273,6.19970000000001 " stroke="#0D6E9C" stroke-width="3.54275" stroke-linecap="butt" stroke-linejoin="miter" fill="none"/>
        <path d="M 36.0178,2.36180000000002 L 34.8369,2.36180000000002 L 34.8369,0 L 36.0178,0 L 36.0178,2.36180000000002 Z " fill="#000000" stroke="#0D6E9C" stroke-width="1.77135" stroke-linecap="butt" stroke-linejoin="miter"/>
        <path d="M 6.7903,19.7802 L 6.7903,0.590399999999988 " stroke="#0D6E9C" stroke-width="0.8857" stroke-linecap="butt" stroke-linejoin="miter" fill="none"/>
        <path d="M 6.7903,19.485 L 6.7903,6.19970000000001 " stroke="#0D6E9C" stroke-width="3.54275" stroke-linecap="butt" stroke-linejoin="miter" fill="none"/>
        <path d="M 7.38069999999999,2.36180000000002 L 6.19979999999998,2.36180000000002 L 6.19979999999998,0 L 7.38069999999999,0 L 7.38069999999999,2.36180000000002 Z " fill="#000000" stroke="#0D6E9C" stroke-width="1.77135" stroke-linecap="butt" stroke-linejoin="miter"/>
        <path d="M 43.6937,22.142 C 43.6937,26.8657 33.9512,30.7036 21.8469,30.7036 C 9.74250000000001,30.7036 0,26.8657 0,22.142 C 0,34.5416 0,34.5416 0,34.5416 C 0,39.2652 9.74250000000001,43.1031 21.8469,43.1031 C 33.9512,43.1031 43.6937,39.2652 43.6937,34.5416 Z Z " fill="#0D6E9C" stroke="#FFFFFF" stroke-width="0.8857" stroke-linecap="butt" stroke-linejoin="miter"/>
        <path d="M 21.8469,30.7036 C 33.9512,30.7036 43.6937,26.8657 43.6937,22.142 C 43.6937,17.7136 33.9512,13.8757 21.8469,13.8757 C 9.74250000000001,13.8757 0,17.7136 0,22.142 C 0,26.8657 9.74250000000001,30.7036 21.8469,30.7036 Z Z " fill="#0D6E9C" stroke="#FFFFFF" stroke-width="0.8857" stroke-linecap="butt" stroke-linejoin="miter"/>
        <path d="M 16.828,18.8945 L 18.5994,21.5516 L 11.8091,23.3229 L 13.2853,21.8468 L 2.95229999999998,20.0754 L 5.60939999999999,18.3041 L 15.6471,19.7802 L 16.828,18.8945 Z " fill="#FFFFFF" stroke-width="1px" stroke="#FFFFFF"/>
        <path d="M 26.5705,25.3895 L 25.0944,22.7325 L 31.2941,21.5516 L 30.4084,22.4372 L 40.4462,24.2086 L 38.0844,25.98 L 27.7514,24.2086 L 26.5705,25.3895 Z " fill="#FFFFFF" stroke-width="1px" stroke="#FFFFFF"/>
        <path d="M 23.0278,17.4184 L 29.818,15.647 L 30.1132,18.5993 L 28.3419,18.3041 L 25.0944,20.9611 L 21.8469,20.6659 L 25.0944,17.7136 L 23.0278,17.4184 Z " fill="#FFFFFF" stroke-width="1px" stroke="#FFFFFF"/>
        <path d="M 20.0755,28.0466 L 13.5805,29.2275 L 13.2853,26.2752 L 15.3519,26.5704 L 18.8946,23.6182 L 22.1421,24.2086 L 18.3041,27.4561 L 20.0755,28.0466 Z " fill="#FFFFFF" stroke-width="1px" stroke="#FFFFFF"/>
      </g>
      <!--emf-blob end-->
    </g>
  </g>
</svg>

