<svg xmlns="http://www.w3.org/2000/svg" xmlns:xlink="http://www.w3.org/1999/xlink" version="1.1" viewBox="0 0 129 105" >
  <title><![CDATA[Wirelss bridge]]></title>
  <g transform=" scale(3.000000) ">
    <!--converted by libvisio2svg-->
    <g>
      <!--emf-blob start-->
      <g>
        <path d="M 9.44880000000001,1.47640000000001 C 0,6.49610000000001 0,6.49610000000001 0,6.49610000000001 C 23.0315000000001,20.9646 36.3189,5.6103 36.3189,5.6103 C 22.7362,13.5827 9.44880000000001,1.47640000000001 9.44880000000001,1.47640000000001 Z Z " fill="#126D99" stroke="#FFFFFF" stroke-width="0.88585" stroke-linecap="butt" stroke-linejoin="miter"/>
        <path d="M 42.2244,0 C 40.4528,3.24810000000002 36.0236,5.6103 36.0236,5.6103 C 36.0236,34.252 36.0236,34.252 36.0236,34.252 C 42.2244,29.5276 42.2244,29.5276 42.2244,29.5276 Z Z " fill="#126D99" stroke="#FFFFFF" stroke-width="0.88585" stroke-linecap="butt" stroke-linejoin="miter"/>
        <path d="M 36.0236,5.6103 C 36.0236,5.6103 23.0315000000001,20.9646 0,6.49610000000001 C 0,34.252 0,34.252 0,34.252 C 36.0236,34.252 36.0236,34.252 36.0236,34.252 Z Z " fill="#126D99" stroke="#FFFFFF" stroke-width="0.88585" stroke-linecap="butt" stroke-linejoin="miter"/>
        <path d="M 33.6614,23.0315 C 33.6614,23.0315 31.2992,28.9371 28.3465,23.0315 C 25.689,17.126 23.3268,23.0315 23.3268,23.0315 C 23.3268,23.0315 20.9646,28.9371 18.3071,23.0315 C 15.6496,17.126 13.2874,23.0315 13.2874,23.0315 C 13.2874,23.0315 10.9252,28.9371 7.97240000000005,23.0315 C 5.315,17.126 2.95280000000002,23.0315 2.95280000000002,23.0315 Z " stroke="#000000" stroke-width="0.88585" stroke-linecap="round" stroke-linejoin="miter" fill="none"/>
        <path d="M 2.95280000000002,23.0315 C 2.95280000000002,23.0315 5.315,28.9371 8.26770000000005,23.0315 C 10.9252,17.126 13.2874,23.0315 13.2874,23.0315 C 13.2874,23.0315 15.6496,28.9371 18.3071,23.0315 C 20.9646,17.126 23.3268,23.0315 23.3268,23.0315 C 23.3268,23.0315 25.689,28.9371 28.3465,23.0315 C 31.2992,17.126 33.6614,23.0315 33.6614,23.0315 Z " stroke="#000000" stroke-width="1.77165" stroke-linecap="round" stroke-linejoin="miter" fill="none"/>
        <path d="M 33.0709000000001,23.0315 C 33.0709000000001,23.0315 30.7087,28.9371 28.0512000000001,23.0315 C 25.0984,17.126 22.7362,23.0315 22.7362,23.0315 C 22.7362,23.0315 20.6693,28.9371 17.7165000000001,23.0315 C 15.0591,17.126 12.6969,23.0315 12.6969,23.0315 C 12.6969,23.0315 10.3347,28.9371 7.67720000000003,23.0315 C 4.7244,17.126 2.36220000000003,23.0315 2.36220000000003,23.0315 Z " stroke="#FFFFFF" stroke-width="0.88585" stroke-linecap="round" stroke-linejoin="miter" fill="none"/>
        <path d="M 2.36220000000003,23.0315 C 2.36220000000003,23.0315 4.7244,28.9371 7.67720000000003,23.0315 C 10.3347,17.126 12.6969,23.0315 12.6969,23.0315 C 12.6969,23.0315 15.0591,28.9371 17.7165000000001,23.0315 C 20.6693,17.126 22.7362,23.0315 22.7362,23.0315 C 22.7362,23.0315 25.0984,28.9371 28.0512000000001,23.0315 C 30.7087,17.126 33.0709000000001,23.0315 33.0709000000001,23.0315 Z " stroke="#FFFFFF" stroke-width="1.77165" stroke-linecap="round" stroke-linejoin="miter" fill="none"/>
      </g>
      <!--emf-blob end-->
    </g>
  </g>
</svg>

