<svg xmlns="http://www.w3.org/2000/svg" xmlns:xlink="http://www.w3.org/1999/xlink" version="1.1" viewBox="0 0 135 162" >
  <title><![CDATA[WISM]]></title>
  <g transform=" scale(3.000000) ">
    <!--converted by libvisio2svg-->
    <g>
      <!--emf-blob start-->
      <g>
        <path d="M 0,21.2598 L 8.85829999999999,14.4685 L 44.8819,11.5157 L 35.7284,21.2598 L 0,21.2598 Z " fill="#046897" stroke="#FFFFFF" stroke-width="0.88585" stroke-linecap="butt" stroke-linejoin="miter"/>
        <path d="M 35.7284,53.1496 L 44.8819,43.7008 L 44.8819,11.811 L 35.7284,21.2598 L 35.7284,53.1496 Z " fill="#046897" stroke="#FFFFFF" stroke-width="0.88585" stroke-linecap="butt" stroke-linejoin="miter"/>
        <path d="M 35.7284,53.1496 L 35.7284,21.2598 L 0,21.2598 L 0,53.1496 L 35.7284,53.1496 Z " fill="#046897" stroke="#FFFFFF" stroke-width="0.88585" stroke-linecap="butt" stroke-linejoin="miter"/>
        <path d="M 0,9.44880000000001 L 11.811,0 L 44.8819,0 L 35.7284,9.44880000000001 L 0,9.44880000000001 Z " fill="#046897" stroke="#FFFFFF" stroke-width="0.88585" stroke-linecap="butt" stroke-linejoin="miter"/>
        <path d="M 35.7284,21.2598 L 44.8819,11.811 L 44.8819,0 L 35.7284,9.44880000000001 L 35.7284,21.2598 Z " fill="#046897" stroke="#FFFFFF" stroke-width="0.88585" stroke-linecap="butt" stroke-linejoin="miter"/>
        <path d="M 35.7284,21.2598 L 35.7284,9.44880000000001 L 0,9.44880000000001 L 0,21.2598 L 35.7284,21.2598 Z " fill="#046897" stroke="#FFFFFF" stroke-width="0.88585" stroke-linecap="butt" stroke-linejoin="miter"/>
        <path d="M 39.567,16.8307 L 39.567,16.8307 Z " fill="#046897" stroke-width="1px" stroke="#046897"/>
        <path d="M 39.567,16.8307 L 39.567,16.8307 " stroke="none" stroke-width="0" fill="none"/>
        <path d="M 39.567,16.8307 L 39.567,16.8307 Z " fill="#000000" stroke-width="1px" stroke="#000000"/>
        <path d="M 39.567,16.8307 L 39.567,16.8307 " stroke="none" stroke-width="0" fill="none"/>
        <path d="M 39.567,16.8307 L 39.567,16.8307 " stroke="#FFFFFF" stroke-width="0.88585" stroke-linecap="butt" stroke-linejoin="miter" fill="none"/>
        <path d="M 32.7756,15.3543 C 32.7756,15.3543 30.4134,21.2598 27.7559,15.3543 C 24.8031999999999,9.44880000000001 22.441,15.3543 22.441,15.3543 C 22.441,15.3543 20.374,21.2598 17.4213,15.3543 C 14.7637999999999,9.44880000000001 12.4016,15.3543 12.4016,15.3543 C 12.4016,15.3543 10.0394,21.2598 7.38189999999997,15.3543 C 4.42919999999998,9.44880000000001 2.36219999999997,15.3543 2.36219999999997,15.3543 Z " stroke="#FFFFFF" stroke-width="0.88585" stroke-linecap="round" stroke-linejoin="miter" fill="none"/>
        <path d="M 2.36219999999997,15.3543 C 2.36219999999997,15.3543 4.42919999999998,21.2598 7.38189999999997,15.3543 C 10.0394,9.44880000000001 12.4016,15.3543 12.4016,15.3543 C 12.4016,15.3543 14.7637999999999,21.2598 17.4213,15.3543 C 20.374,9.44880000000001 22.7362,15.3543 22.7362,15.3543 C 22.7362,15.3543 24.8031999999999,21.2598 27.7559,15.3543 C 30.4134,9.44880000000001 32.7756,15.3543 32.7756,15.3543 Z " stroke="#FFFFFF" stroke-width="1.77165" stroke-linecap="round" stroke-linejoin="miter" fill="none"/>
        <path d="M 33.3662,15.3543 C 33.3662,15.3543 31.004,21.2598 28.3465,15.3543 C 25.3937,9.44880000000001 23.0315,15.3543 23.0315,15.3543 C 23.0315,15.3543 20.6693,21.2598 18.0118,15.3543 C 15.3544,9.44880000000001 12.9922,15.3543 12.9922,15.3543 C 12.9922,15.3543 10.6299,21.2598 7.97249999999997,15.3543 C 5.0197,9.44880000000001 2.65749999999997,15.3543 2.65749999999997,15.3543 Z " stroke="#000000" stroke-width="0.88585" stroke-linecap="round" stroke-linejoin="miter" fill="none"/>
        <path d="M 2.65749999999997,15.3543 C 2.65749999999997,15.3543 5.0197,21.2598 7.97249999999997,15.3543 C 10.6299,9.44880000000001 12.9922,15.3543 12.9922,15.3543 C 12.9922,15.3543 15.3544,21.2598 18.0118,15.3543 C 20.9646,9.44880000000001 23.0315,15.3543 23.0315,15.3543 C 23.0315,15.3543 25.3937,21.2598 28.3465,15.3543 C 31.004,9.44880000000001 33.3662,15.3543 33.3662,15.3543 Z " stroke="#000000" stroke-width="1.77165" stroke-linecap="round" stroke-linejoin="miter" fill="none"/>
        <path d="M 32.7756,15.3543 C 32.7756,15.3543 30.4134,21.2598 27.7559,15.3543 C 24.8031999999999,9.44880000000001 22.441,15.3543 22.441,15.3543 C 22.441,15.3543 20.374,21.2598 17.4213,15.3543 C 14.7637999999999,9.44880000000001 12.4016,15.3543 12.4016,15.3543 C 12.4016,15.3543 10.0394,21.2598 7.38189999999997,15.3543 C 4.42919999999998,9.44880000000001 2.36219999999997,15.3543 2.36219999999997,15.3543 Z " stroke="#FFFFFF" stroke-width="0.88585" stroke-linecap="round" stroke-linejoin="miter" fill="none"/>
        <path d="M 2.36219999999997,15.3543 C 2.36219999999997,15.3543 4.42919999999998,21.2598 7.38189999999997,15.3543 C 10.0394,9.44880000000001 12.4016,15.3543 12.4016,15.3543 C 12.4016,15.3543 14.7637999999999,21.2598 17.4213,15.3543 C 20.374,9.44880000000001 22.7362,15.3543 22.7362,15.3543 C 22.7362,15.3543 24.8031999999999,21.2598 27.7559,15.3543 C 30.4134,9.44880000000001 32.7756,15.3543 32.7756,15.3543 Z " stroke="#FFFFFF" stroke-width="1.77165" stroke-linecap="round" stroke-linejoin="miter" fill="none"/>
        <path d="M 33.3662,15.3543 C 33.3662,15.3543 31.004,21.2598 28.3465,15.3543 C 25.3937,9.44880000000001 23.0315,15.3543 23.0315,15.3543 C 23.0315,15.3543 20.6693,21.2598 18.0118,15.3543 C 15.3544,9.44880000000001 12.9922,15.3543 12.9922,15.3543 C 12.9922,15.3543 10.6299,21.2598 7.97249999999997,15.3543 C 5.0197,9.44880000000001 2.65749999999997,15.3543 2.65749999999997,15.3543 Z " stroke="#000000" stroke-width="0.88585" stroke-linecap="round" stroke-linejoin="miter" fill="none"/>
        <path d="M 2.65749999999997,15.3543 C 2.65749999999997,15.3543 5.0197,21.2598 7.97249999999997,15.3543 C 10.6299,9.44880000000001 12.9922,15.3543 12.9922,15.3543 C 12.9922,15.3543 15.3544,21.2598 18.0118,15.3543 C 20.9646,9.44880000000001 23.0315,15.3543 23.0315,15.3543 C 23.0315,15.3543 25.3937,21.2598 28.3465,15.3543 C 31.004,9.44880000000001 33.3662,15.3543 33.3662,15.3543 Z " stroke="#000000" stroke-width="1.77165" stroke-linecap="round" stroke-linejoin="miter" fill="none"/>
        <path d="M 32.7756,15.3543 C 32.7756,15.3543 30.4134,21.2598 27.7559,15.3543 C 24.8031999999999,9.44880000000001 22.441,15.3543 22.441,15.3543 C 22.441,15.3543 20.374,21.2598 17.4213,15.3543 C 14.7637999999999,9.44880000000001 12.4016,15.3543 12.4016,15.3543 C 12.4016,15.3543 10.0394,21.2598 7.38189999999997,15.3543 C 4.42919999999998,9.44880000000001 2.36219999999997,15.3543 2.36219999999997,15.3543 Z " stroke="#FFFFFF" stroke-width="0.88585" stroke-linecap="round" stroke-linejoin="miter" fill="none"/>
        <path d="M 2.36219999999997,15.3543 C 2.36219999999997,15.3543 4.42919999999998,21.2598 7.38189999999997,15.3543 C 10.0394,9.44880000000001 12.4016,15.3543 12.4016,15.3543 C 12.4016,15.3543 14.7637999999999,21.2598 17.4213,15.3543 C 20.374,9.44880000000001 22.7362,15.3543 22.7362,15.3543 C 22.7362,15.3543 24.8031999999999,21.2598 27.7559,15.3543 C 30.4134,9.44880000000001 32.7756,15.3543 32.7756,15.3543 Z " stroke="#FFFFFF" stroke-width="1.77165" stroke-linecap="round" stroke-linejoin="miter" fill="none"/>
        <path d="M 18.8977,32.4803 L 18.8977,25.689 L 20.0787999999999,25.689 L 18.3071,23.0315 L 16.5355,25.689 L 17.7166,25.689 L 17.7166,32.4803 L 18.8977,32.4803 Z " fill="#FFFFFF" stroke-width="1px" stroke="#FFFFFF"/>
        <path d="M 15.3544,33.6614 L 10.6299,28.6417 L 11.2205,27.7559 L 8.26769999999999,27.1653 L 8.85829999999999,30.4134 L 9.74409999999995,29.5275 L 14.4684999999999,34.2519 L 15.3544,33.6614 Z " fill="#FFFFFF" stroke-width="1px" stroke="#FFFFFF"/>
        <path d="M 13.5827,36.6142 L 6.79139999999995,36.6142 L 6.79139999999995,35.4331 L 4.13389999999998,37.2047 L 6.79139999999995,38.9764 L 6.79139999999995,37.7953 L 13.5827,37.7953 L 13.5827,36.6142 Z " fill="#FFFFFF" stroke-width="1px" stroke="#FFFFFF"/>
        <path d="M 14.4684999999999,40.1575 L 9.74409999999995,44.8819 L 8.85829999999999,44.2913 L 8.26769999999999,47.2441 L 11.2205,46.6535 L 10.6299,45.7677 L 15.3544,41.0433 L 14.4684999999999,40.1575 Z " fill="#FFFFFF" stroke-width="1px" stroke="#FFFFFF"/>
        <path d="M 17.7166,41.9291 L 17.7166,48.7205 L 16.5355,48.7205 L 18.3071,51.3779 L 20.0787999999999,48.7205 L 18.8977,48.7205 L 18.8977,41.9291 L 17.7166,41.9291 Z " fill="#FFFFFF" stroke-width="1px" stroke="#FFFFFF"/>
        <path d="M 21.2599,41.0433 L 25.9843,45.7677 L 25.0984999999999,46.6535 L 28.3465,47.2441 L 27.4607,44.2913 L 26.8701,44.8819 L 21.8504,40.1575 L 21.2599,41.0433 Z " fill="#FFFFFF" stroke-width="1px" stroke="#FFFFFF"/>
        <path d="M 23.0315,37.7953 L 29.8228999999999,37.7953 L 29.8228999999999,38.9764 L 32.1851,37.2047 L 29.8228999999999,35.4331 L 29.8228999999999,36.6142 L 23.0315,36.6142 L 23.0315,37.7953 Z " fill="#FFFFFF" stroke-width="1px" stroke="#FFFFFF"/>
        <path d="M 21.8504,34.2519 L 26.8701,29.5275 L 27.4607,30.4134 L 28.3465,27.1653 L 25.0984999999999,27.7559 L 25.9843,28.6417 L 21.2599,33.6614 L 21.8504,34.2519 Z " fill="#FFFFFF" stroke-width="1px" stroke="#FFFFFF"/>
        <path d="M 22.441,43.1102 C 25.689,40.748 26.2796,36.3189 24.2126,33.0708 C 21.8504,29.8228 17.4213,29.2323 14.1733,31.2992 C 10.9252,33.6614 10.3347,38.0905 12.4016,41.3386 C 14.7637999999999,44.5866 19.1929,45.1771 22.441,43.1102 Z Z " fill="#FFFFFF" stroke="none"/>
        <path d="M 13.2874,5.90550000000002 L 16.8307,5.61020000000002 L 16.2402,6.49600000000004 L 15.3544,6.49600000000004 L 11.2205,7.97239999999999 L 10.0394,7.6771 L 14.1733,6.20080000000002 L 13.2874,5.90550000000002 L 13.2874,5.90550000000002 Z " fill="#000000" stroke-width="1px" stroke="#000000"/>
        <path d="M 29.2323,5.90550000000002 L 25.9843,5.31490000000002 L 26.2796,6.49600000000004 L 27.1654,6.49600000000004 L 30.1181,7.6771 L 31.2992,7.38190000000003 L 28.3465,6.20080000000002 L 29.2323,5.90550000000002 L 29.2323,5.90550000000002 Z " fill="#000000" stroke-width="1px" stroke="#000000"/>
        <path d="M 23.6221,2.36220000000003 L 21.8504,2.36220000000003 L 27.1654,1.18110000000001 L 29.5275999999999,2.65750000000003 L 27.7559,2.65750000000003 L 27.4607,2.65750000000003 L 24.5078999999999,4.42910000000001 L 20.6693,4.42910000000001 L 23.9174,2.36220000000003 L 23.6221,2.36220000000003 L 23.6221,2.36220000000003 Z " fill="#000000" stroke-width="1px" stroke="#000000"/>
        <path d="M 20.374,6.79130000000004 L 19.1929,6.79130000000004 L 22.1457,5.31490000000002 L 22.441,6.79130000000004 L 20.9646,6.79130000000004 L 21.2599,6.79130000000004 L 19.7834999999999,8.26769999999999 L 18.6024,8.26769999999999 L 20.0787999999999,6.79130000000004 L 20.374,6.79130000000004 L 20.374,6.79130000000004 Z " fill="#000000" stroke-width="1px" stroke="#000000"/>
        <path d="M 12.9922,5.61020000000002 L 16.8307,5.31490000000002 L 16.2402,6.49600000000004 L 15.0591,6.20080000000002 L 10.9252,7.97239999999999 L 10.0394,7.6771 L 13.878,6.20080000000002 L 12.9922,5.61020000000002 L 12.9922,5.61020000000002 Z " fill="#FFFFFF" stroke-width="1px" stroke="#FFFFFF"/>
        <path d="M 29.2323,5.61020000000002 L 25.9843,5.31490000000002 L 26.2796,6.49600000000004 L 27.1654,6.20080000000002 L 30.1181,7.6771 L 31.004,7.38190000000003 L 28.0512,6.20080000000002 L 29.2323,5.61020000000002 L 29.2323,5.61020000000002 Z " fill="#FFFFFF" stroke-width="1px" stroke="#FFFFFF"/>
        <path d="M 23.3268,2.36220000000003 L 21.8504,2.36220000000003 L 27.1654,1.18110000000001 L 29.5275999999999,2.65750000000003 L 27.7559,2.65750000000003 L 27.4607,2.65750000000003 L 24.5078999999999,4.42910000000001 L 20.6693,4.42910000000001 L 23.6221,2.36220000000003 L 23.3268,2.36220000000003 L 23.3268,2.36220000000003 Z " fill="#FFFFFF" stroke-width="1px" stroke="#FFFFFF"/>
        <path d="M 20.0787999999999,6.79130000000004 L 18.8977,6.79130000000004 L 21.8504,5.0197 L 22.1457,6.79130000000004 L 20.9646,6.79130000000004 L 20.9646,6.79130000000004 L 19.4881999999999,8.26769999999999 L 18.6024,8.26769999999999 L 20.0787999999999,6.79130000000004 L 20.0787999999999,6.79130000000004 L 20.0787999999999,6.79130000000004 Z " fill="#FFFFFF" stroke-width="1px" stroke="#FFFFFF"/>
      </g>
      <!--emf-blob end-->
    </g>
  </g>
</svg>

