<svg xmlns="http://www.w3.org/2000/svg" xmlns:xlink="http://www.w3.org/1999/xlink" version="1.1" viewBox="0 0 171 96" >
  <title><![CDATA[WLAN controller]]></title>
  <g transform=" scale(3.000000) ">
    <!--converted by libvisio2svg-->
    <g>
      <!--emf-blob start-->
      <g>
        <path d="M 0,13.875 L 16.8271,0 L 56.3855,0 L 42.2153,13.875 L 0,13.875 Z " fill="#036E9D" stroke="#FFFFFF" stroke-width="0.88565" stroke-linecap="butt" stroke-linejoin="miter"/>
        <path d="M 42.2153,31.2925 L 56.3855,17.1223 L 56.3855,0 L 42.2153,13.875 L 42.2153,31.2925 Z " fill="#036E9D" stroke="#FFFFFF" stroke-width="0.88565" stroke-linecap="butt" stroke-linejoin="miter"/>
        <path d="M 42.2153,31.2925 L 42.2153,13.875 L 0,13.875 L 0,31.2925 L 42.2153,31.2925 Z " fill="#036E9D" stroke="#FFFFFF" stroke-width="0.88565" stroke-linecap="butt" stroke-linejoin="miter"/>
        <path d="M 12.6941,8.85640000000001 L 18.008,8.26589999999999 L 17.1223,10.6276 L 15.6463,9.74200000000002 L 9.74199999999996,12.1037 L 8.56119999999999,11.8085 L 14.1702,9.4468 L 12.6941,8.85640000000001 Z " fill="#FFFFFF" stroke-width="1px" stroke="#FFFFFF"/>
        <path d="M 35.1301999999999,8.85640000000001 L 30.7021,8.26589999999999 L 30.9973,10.6276 L 32.4733,9.74200000000002 L 36.6063,11.8085 L 37.7871,11.5133 L 33.9494,9.4468 L 35.1301999999999,8.85640000000001 Z " fill="#FFFFFF" stroke-width="1px" stroke="#FFFFFF"/>
        <path d="M 39.8536,23.0265 C 39.8536,23.0265 36.9015,30.4068 33.6541999999999,23.0265 C 30.1116,15.9414 27.4546999999999,23.0265 27.4546999999999,23.0265 C 27.4546999999999,23.0265 24.5026,30.4068 21.2553,23.0265 C 18.008,15.9414 15.0558,23.0265 15.0558,23.0265 C 15.0558,23.0265 12.3989,30.4068 8.85639999999995,23.0265 C 5.60909999999996,15.9414 2.65699999999998,23.0265 2.65699999999998,23.0265 Z " stroke="#FFFFFF" stroke-width="0.88565" stroke-linecap="round" stroke-linejoin="miter" fill="none"/>
        <path d="M 2.65699999999998,23.0265 C 2.65699999999998,23.0265 5.60909999999996,30.4068 8.85639999999995,23.0265 C 12.3989,15.9414 15.0558,23.0265 15.0558,23.0265 C 15.0558,23.0265 18.008,30.4068 21.2553,23.0265 C 24.7978,15.9414 27.4546999999999,23.0265 27.4546999999999,23.0265 C 27.4546999999999,23.0265 30.1116,30.4068 33.6541999999999,23.0265 C 36.9015,15.9414 39.8536,23.0265 39.8536,23.0265 Z " stroke="#FFFFFF" stroke-width="1.77125" stroke-linecap="round" stroke-linejoin="miter" fill="none"/>
        <path d="M 40.4441,23.0265 C 40.4441,23.0265 37.7871,30.4068 34.2446,23.0265 C 30.9973,15.9414 28.0452,23.0265 28.0452,23.0265 C 28.0452,23.0265 25.3883,30.4068 21.8457,23.0265 C 18.5984,15.9414 15.6463,23.0265 15.6463,23.0265 C 15.6463,23.0265 12.9894,30.4068 9.4468,23.0265 C 6.1995,15.9414 3.24739999999997,23.0265 3.24739999999997,23.0265 Z " stroke="#000000" stroke-width="0.88565" stroke-linecap="round" stroke-linejoin="miter" fill="none"/>
        <path d="M 3.24739999999997,23.0265 C 3.24739999999997,23.0265 6.1995,30.4068 9.4468,23.0265 C 12.9894,15.9414 15.6463,23.0265 15.6463,23.0265 C 15.6463,23.0265 18.5984,30.4068 21.8457,23.0265 C 25.3883,15.9414 28.0452,23.0265 28.0452,23.0265 C 28.0452,23.0265 30.9973,30.4068 34.2446,23.0265 C 37.7871,15.9414 40.4441,23.0265 40.4441,23.0265 Z " stroke="#000000" stroke-width="1.77125" stroke-linecap="round" stroke-linejoin="miter" fill="none"/>
        <path d="M 39.8536,23.0265 C 39.8536,23.0265 36.9015,30.4068 33.6541999999999,23.0265 C 30.1116,15.9414 27.4546999999999,23.0265 27.4546999999999,23.0265 C 27.4546999999999,23.0265 24.5026,30.4068 21.2553,23.0265 C 18.008,15.9414 15.0558,23.0265 15.0558,23.0265 C 15.0558,23.0265 12.3989,30.4068 8.85639999999995,23.0265 C 5.60909999999996,15.9414 2.65699999999998,23.0265 2.65699999999998,23.0265 Z " stroke="#FFFFFF" stroke-width="0.88565" stroke-linecap="round" stroke-linejoin="miter" fill="none"/>
        <path d="M 2.65699999999998,23.0265 C 2.65699999999998,23.0265 5.60909999999996,30.4068 8.85639999999995,23.0265 C 12.3989,15.9414 15.0558,23.0265 15.0558,23.0265 C 15.0558,23.0265 18.008,30.4068 21.2553,23.0265 C 24.7978,15.9414 27.4546999999999,23.0265 27.4546999999999,23.0265 C 27.4546999999999,23.0265 30.1116,30.4068 33.6541999999999,23.0265 C 36.9015,15.9414 39.8536,23.0265 39.8536,23.0265 Z " stroke="#FFFFFF" stroke-width="1.77125" stroke-linecap="round" stroke-linejoin="miter" fill="none"/>
        <path d="M 40.4441,23.0265 C 40.4441,23.0265 37.7871,30.4068 34.2446,23.0265 C 30.9973,15.9414 28.0452,23.0265 28.0452,23.0265 C 28.0452,23.0265 25.3883,30.4068 21.8457,23.0265 C 18.5984,15.9414 15.6463,23.0265 15.6463,23.0265 C 15.6463,23.0265 12.9894,30.4068 9.4468,23.0265 C 6.1995,15.9414 3.24739999999997,23.0265 3.24739999999997,23.0265 Z " stroke="#000000" stroke-width="0.88565" stroke-linecap="round" stroke-linejoin="miter" fill="none"/>
        <path d="M 3.24739999999997,23.0265 C 3.24739999999997,23.0265 6.1995,30.4068 9.4468,23.0265 C 12.9894,15.9414 15.6463,23.0265 15.6463,23.0265 C 15.6463,23.0265 18.5984,30.4068 21.8457,23.0265 C 25.3883,15.9414 28.0452,23.0265 28.0452,23.0265 C 28.0452,23.0265 30.9973,30.4068 34.2446,23.0265 C 37.7871,15.9414 40.4441,23.0265 40.4441,23.0265 Z " stroke="#000000" stroke-width="1.77125" stroke-linecap="round" stroke-linejoin="miter" fill="none"/>
        <path d="M 39.8536,23.0265 C 39.8536,23.0265 36.9015,30.4068 33.6541999999999,23.0265 C 30.1116,15.9414 27.4546999999999,23.0265 27.4546999999999,23.0265 C 27.4546999999999,23.0265 24.5026,30.4068 21.2553,23.0265 C 18.008,15.9414 15.0558,23.0265 15.0558,23.0265 C 15.0558,23.0265 12.3989,30.4068 8.85639999999995,23.0265 C 5.60909999999996,15.9414 2.65699999999998,23.0265 2.65699999999998,23.0265 Z " stroke="#FFFFFF" stroke-width="0.88565" stroke-linecap="round" stroke-linejoin="miter" fill="none"/>
        <path d="M 2.65699999999998,23.0265 C 2.65699999999998,23.0265 5.60909999999996,30.4068 8.85639999999995,23.0265 C 12.3989,15.9414 15.0558,23.0265 15.0558,23.0265 C 15.0558,23.0265 18.008,30.4068 21.2553,23.0265 C 24.7978,15.9414 27.4546999999999,23.0265 27.4546999999999,23.0265 C 27.4546999999999,23.0265 30.1116,30.4068 33.6541999999999,23.0265 C 36.9015,15.9414 39.8536,23.0265 39.8536,23.0265 Z " stroke="#FFFFFF" stroke-width="1.77125" stroke-linecap="round" stroke-linejoin="miter" fill="none"/>
        <path d="M 27.1595,3.54259999999999 L 25.093,3.2473 L 32.4733,1.47610000000003 L 35.7207,3.83780000000002 L 33.359,3.83780000000002 L 32.7685,3.83780000000002 L 28.6356,6.78989999999999 L 23.3218,6.78989999999999 L 27.7499,3.54259999999999 L 27.1595,3.54259999999999 Z " fill="#FFFFFF" stroke-width="1px" stroke="#FFFFFF"/>
        <path d="M 22.7313,10.3324 L 20.9601,10.3324 L 25.093,7.6755 L 25.3883,10.3324 L 23.9122,10.3324 L 23.9122,10.3324 L 21.8457,12.6941 L 20.3697,12.6941 L 22.4361,10.3324 L 22.7313,10.3324 Z " fill="#FFFFFF" stroke-width="1px" stroke="#FFFFFF"/>
      </g>
      <!--emf-blob end-->
    </g>
  </g>
</svg>

