<svg xmlns="http://www.w3.org/2000/svg" xmlns:xlink="http://www.w3.org/1999/xlink" version="1.1" viewBox="0 0 141 114" >
  <title><![CDATA[Workgroup director]]></title>
  <g transform=" scale(3.000000) ">
    <!--converted by libvisio2svg-->
    <g>
      <!--emf-blob start-->
      <g>
        <path d="M 36.3247,21.2632 L 33.0761,25.9884 L 4.72520000000003,25.9884 L 9.45030000000003,21.2632 L 36.3247,21.2632 Z " fill="#000000" stroke="#FFFFFF" stroke-width="0.88595" stroke-linecap="butt" stroke-linejoin="miter"/>
        <path d="M 4.72520000000003,31.0089 L 4.72520000000003,25.9884 L 31.8948,25.9884 L 31.8948,31.0089 L 4.72520000000003,31.0089 Z " fill="#126D99" stroke="#FFFFFF" stroke-width="0.88595" stroke-linecap="butt" stroke-linejoin="miter"/>
        <path d="M 4.72520000000003,4.42989999999998 L 31.5995,4.42989999999998 L 31.5995,24.8071 L 4.72520000000003,24.8071 L 4.72520000000003,4.42989999999998 Z " fill="#126D99" stroke="#FFFFFF" stroke-width="0.88595" stroke-linecap="butt" stroke-linejoin="miter"/>
        <path d="M 31.5995,24.8071 L 36.3247,20.3773 L 36.3247,0 L 31.5995,4.42989999999998 L 31.5995,24.8071 Z " fill="#126D99" stroke="#FFFFFF" stroke-width="0.88595" stroke-linecap="butt" stroke-linejoin="miter"/>
        <path d="M 41.9358,35.4387 L 44.003,31.3042 L 39.2779,31.3042 L 37.2106,35.4387 L 41.9358,35.4387 Z " fill="#126D99" stroke="#FFFFFF" stroke-width="0.88595" stroke-linecap="butt" stroke-linejoin="miter"/>
        <path d="M 37.2106,35.4387 L 41.9358,35.4387 L 41.9358,36.9153 L 37.2106,36.9153 L 37.2106,35.4387 Z " fill="#126D99" stroke="#FFFFFF" stroke-width="0.88595" stroke-linecap="butt" stroke-linejoin="miter"/>
        <path d="M 41.6405,36.9153 L 41.6405,35.4387 L 43.7077,31.3042 L 43.7077,34.2574 L 41.6405,36.9153 Z " fill="#126D99" stroke="#FFFFFF" stroke-width="0.88595" stroke-linecap="butt" stroke-linejoin="miter"/>
        <path d="M 31.8948,31.0089 L 31.8948,25.9884 L 36.3247,21.5585 L 36.3247,26.579 L 31.8948,31.0089 Z " fill="#126D99" stroke="#FFFFFF" stroke-width="0.88595" stroke-linecap="butt" stroke-linejoin="miter"/>
        <path d="M 9.15500000000003,6.79239999999999 C 27.1697,6.79239999999999 27.1697,6.79239999999999 27.1697,6.79239999999999 C 28.351,6.79239999999999 29.2369,7.67840000000001 29.2369,8.85969999999998 C 29.2369,20.3773 29.2369,20.3773 29.2369,20.3773 C 29.2369,21.5585 28.351,22.4445 27.1697,22.4445 C 9.15500000000003,22.4445 9.15500000000003,22.4445 9.15500000000003,22.4445 C 7.97370000000001,22.4445 7.08780000000002,21.5585 7.08780000000002,20.3773 C 7.08780000000002,8.85969999999998 7.08780000000002,8.85969999999998 7.08780000000002,8.85969999999998 C 7.08780000000002,7.67840000000001 7.97370000000001,6.79239999999999 9.15500000000003,6.79239999999999 Z Z " fill="#126D99" stroke="#FFFFFF" stroke-width="0.88595" stroke-linecap="butt" stroke-linejoin="miter"/>
        <path d="M 36.3247,0 L 10.041,0 L 4.72520000000003,4.42989999999998 L 31.5995,4.42989999999998 L 36.3247,0 Z " fill="#126D99" stroke="#FFFFFF" stroke-width="0.88595" stroke-linecap="butt" stroke-linejoin="miter"/>
        <path d="M 31.0089,37.5059 L 31.0089,36.0293 L 34.5527,31.0089 L 34.5527,33.9621 L 31.0089,37.5059 Z " fill="#126D99" stroke="#FFFFFF" stroke-width="0.88595" stroke-linecap="butt" stroke-linejoin="miter"/>
        <path d="M 31.0089,36.0293 L 0,36.0293 L 3.54390000000001,31.0089 L 34.5527,31.0089 L 31.0089,36.0293 Z " fill="#126D99" stroke="#FFFFFF" stroke-width="0.88595" stroke-linecap="butt" stroke-linejoin="miter"/>
        <path d="M 31.0089,36.0293 L 31.0089,37.5059 L 0,37.5059 L 0,36.0293 L 31.0089,36.0293 Z " fill="#126D99" stroke="#FFFFFF" stroke-width="0.88595" stroke-linecap="butt" stroke-linejoin="miter"/>
        <path d="M 42.8218,31.5995 C 46.3656,29.8276 43.4124,22.1492 36.0293,25.9884 Z " stroke="#126D99" stroke-width="0.88595" stroke-linecap="butt" stroke-linejoin="miter" fill="none"/>
        <path d="M 18.0147,17.7194 C 21.8539,17.7194 25.1024,16.2427 25.1024,14.7661 C 25.1024,12.9942 21.8539,11.5176 18.0147,11.5176 C 14.1755,11.5176 11.2223,12.9942 11.2223,14.7661 C 11.2223,16.2427 14.1755,17.7194 18.0147,17.7194 Z Z " stroke="#FFFFFF" stroke-width="0.88595" stroke-linecap="butt" stroke-linejoin="miter" fill="none"/>
        <path d="M 18.0147,18.9006 C 23.0352,18.9006 26.8744,16.8334 26.8744,14.4708 C 26.8744,12.1082 23.0352,10.3363 18.0147,10.3363 C 13.2895,10.3363 9.15500000000003,12.1082 9.15500000000003,14.4708 C 9.15500000000003,16.8334 13.2895,18.9006 18.0147,18.9006 Z Z " stroke="#FFFFFF" stroke-width="0.88595" stroke-linecap="butt" stroke-linejoin="miter" fill="none"/>
      </g>
      <!--emf-blob end-->
    </g>
  </g>
</svg>

