<svg xmlns="http://www.w3.org/2000/svg" xmlns:xlink="http://www.w3.org/1999/xlink" version="1.1" viewBox="0 0 171 87" >
  <title><![CDATA[Workgroup switch]]></title>
  <g transform=" scale(3.000000) ">
    <!--converted by libvisio2svg-->
    <g>
      <!--emf-blob start-->
      <g>
        <path d="M 42.5145,27.4573 L 42.5145,13.8763 L 0.295200000000023,13.8763 L 0.295200000000023,27.4573 L 42.5145,27.4573 Z " fill="#126D99" stroke="#FFFFFF" stroke-width="0.8857" stroke-linecap="butt" stroke-linejoin="miter"/>
        <path d="M 0,13.8763 L 17.1239,0 L 56.3907,0 L 42.2192,13.8763 L 0,13.8763 Z " fill="#126D99" stroke="#FFFFFF" stroke-width="0.8857" stroke-linecap="butt" stroke-linejoin="miter"/>
        <path d="M 42.5145,28.0478 L 56.3907,12.6953 L 56.3907,0 L 42.5145,13.8763 L 42.5145,28.0478 Z " fill="#126D99" stroke="#FFFFFF" stroke-width="0.8857" stroke-linecap="butt" stroke-linejoin="miter"/>
        <path d="M 24.8001,10.3334 L 23.9144,10.9239 L 13.581,10.9239 L 12.4001,12.1048 L 9.4477,10.9239 L 15.3524,9.1524 L 14.1715,10.3334 L 24.8001,10.3334 Z " fill="#FFFFFF" stroke-width="1px" stroke="#FFFFFF"/>
        <path d="M 33.0668,5.01909999999998 L 32.1811,5.90479999999997 L 21.8477,5.90479999999997 L 20.6668,6.79049999999995 L 17.7144,5.6096 L 23.6192,4.13339999999999 L 22.4382,5.01909999999998 L 33.0668,5.01909999999998 Z " fill="#FFFFFF" stroke-width="1px" stroke="#FFFFFF"/>
        <path d="M 26.5715,8.56199999999995 L 27.4573,7.97149999999999 L 38.0859,7.97149999999999 L 38.9716,6.79049999999995 L 41.924,7.97149999999999 L 36.3144,9.74289999999996 L 37.2002,8.56199999999995 L 26.5715,8.56199999999995 Z " fill="#FFFFFF" stroke-width="1px" stroke="#FFFFFF"/>
        <path d="M 32.1811,3.24759999999998 L 33.0668,2.65719999999999 L 43.4002,2.65719999999999 L 44.5812,1.47620000000001 L 47.5335,2.95239999999995 L 41.6288,4.42859999999996 L 42.8097,3.24759999999998 L 32.1811,3.24759999999998 Z " fill="#FFFFFF" stroke-width="1px" stroke="#FFFFFF"/>
      </g>
      <!--emf-blob end-->
    </g>
  </g>
</svg>

