<svg xmlns="http://www.w3.org/2000/svg" xmlns:xlink="http://www.w3.org/1999/xlink" version="1.1" viewBox="0 0 111 114" >
  <title><![CDATA[WWW server]]></title>
  <g transform=" scale(3.000000) ">
    <!--converted by libvisio2svg-->
    <g>
      <!--emf-blob start-->
      <g>
        <path d="M 36.6003,21.5469 L 33.0583,25.9743 L 5.01780000000002,25.9743 L 9.4452,21.2517 L 36.6003,21.5469 Z " fill="#126D99" stroke="#FFFFFF" stroke-width="0.8855" stroke-linecap="butt" stroke-linejoin="miter"/>
        <path d="M 5.01780000000002,30.9921 L 5.01780000000002,25.9743 L 31.8777,25.9743 L 31.8777,30.9921 L 5.01780000000002,30.9921 Z " fill="#126D99" stroke="#FFFFFF" stroke-width="0.8855" stroke-linecap="butt" stroke-linejoin="miter"/>
        <path d="M 4.7226,4.7226 L 31.8777,4.7226 L 31.8777,24.7937 L 4.7226,24.7937 L 4.7226,4.7226 Z " fill="#126D99" stroke="#FFFFFF" stroke-width="0.8855" stroke-linecap="butt" stroke-linejoin="miter"/>
        <path d="M 31.8777,24.7937 L 36.3051,20.3662 L 36.3051,0 L 31.8777,4.7226 L 31.8777,24.7937 Z " fill="#126D99" stroke="#FFFFFF" stroke-width="0.8855" stroke-linecap="butt" stroke-linejoin="miter"/>
        <path d="M 31.8777,30.9921 L 31.8777,25.9743 L 36.6003,21.5469 L 36.6003,26.5647 L 31.8777,30.9921 Z " fill="#126D99" stroke="#FFFFFF" stroke-width="0.8855" stroke-linecap="butt" stroke-linejoin="miter"/>
        <path d="M 9.15010000000001,6.78870000000001 C 27.1551,6.78870000000001 27.1551,6.78870000000001 27.1551,6.78870000000001 C 28.3357,6.78870000000001 29.5164,7.96940000000001 29.5164,9.14999999999998 C 29.5164,20.3662 29.5164,20.3662 29.5164,20.3662 C 29.5164,21.5469 28.3357,22.4324 27.1551,22.4324 C 9.15010000000001,22.4324 9.15010000000001,22.4324 9.15010000000001,22.4324 C 7.96940000000001,22.4324 7.08389999999997,21.5469 7.08389999999997,20.3662 C 7.08389999999997,9.14999999999998 7.08389999999997,9.14999999999998 7.08389999999997,9.14999999999998 C 7.08389999999997,7.96940000000001 7.96940000000001,6.78870000000001 9.15010000000001,6.78870000000001 Z Z " fill="#126D99" stroke="#FFFFFF" stroke-width="0.8855" stroke-linecap="butt" stroke-linejoin="miter"/>
        <path d="M 36.3051,0 L 10.0356,0 L 4.7226,4.7226 L 31.8777,4.7226 L 36.3051,0 Z " fill="#126D99" stroke="#FFFFFF" stroke-width="0.8855" stroke-linecap="butt" stroke-linejoin="miter"/>
        <path d="M 30.9922,37.4857 L 30.9922,36.0099 L 34.5341,30.9921 L 34.5341,34.2389 L 30.9922,37.4857 Z " fill="#126D99" stroke="#FFFFFF" stroke-width="0.8855" stroke-linecap="butt" stroke-linejoin="miter"/>
        <path d="M 30.9922,36.0099 L 0,36.0099 L 3.54199999999997,30.9921 L 34.5341,30.9921 L 30.9922,36.0099 Z " fill="#126D99" stroke="#FFFFFF" stroke-width="0.8855" stroke-linecap="butt" stroke-linejoin="miter"/>
        <path d="M 30.9922,36.0099 L 30.9922,37.4857 L 0,37.4857 L 0,36.0099 L 30.9922,36.0099 Z " fill="#126D99" stroke="#FFFFFF" stroke-width="0.8855" stroke-linecap="butt" stroke-linejoin="miter"/>
        <path d="M 15.6437,10.3307 C 12.3969,9.74029999999999 10.6259,11.5113 10.9211,12.692 C 10.9211,12.9871 10.9211,12.9871 10.9211,12.9871 C 8.5598,13.2823 9.15010000000001,16.2339 10.3307,16.2339 C 10.3307,16.2339 10.3307,16.2339 10.3307,16.2339 C 10.0356,18.3001 12.9872,19.4807 14.7582,18.3001 C 14.7582,18.0049 14.7582,18.0049 14.7582,18.0049 C 15.0534,20.0711 21.5469,20.0711 22.7276,18.8904 C 23.0228,18.8904 23.0228,18.8904 23.0228,18.8904 C 25.6792,18.8904 26.8599,17.1194 26.2696,15.6436 C 26.5647,15.6436 26.5647,15.6436 26.5647,15.6436 C 27.4502,15.3485 27.4502,13.2823 25.9744,12.9871 C 25.9744,12.692 25.9744,12.692 25.9744,12.692 C 26.5647,11.5113 25.0889,10.0355 22.7276,10.3307 C 22.4324,10.3307 22.4324,10.3307 22.4324,10.3307 C 20.9566,8.85489999999999 16.234,8.85489999999999 15.6437,10.3307 Z Z " fill="#126D99" stroke="#FFFFFF" stroke-width="0.8855" stroke-linecap="butt" stroke-linejoin="miter"/>
      </g>
      <!--emf-blob end-->
    </g>
  </g>
</svg>

